<svg xmlns="http://www.w3.org/2000/svg" xmlns:xlink="http://www.w3.org/1999/xlink" width="183.006" height="142.678" viewBox="0 0 183.006 142.678">
  <defs>
    <clipPath id="clip-path">
      <rect id="Rectángulo_454895" data-name="Rectángulo 454895" width="183.006" height="142.678" fill="none"/>
    </clipPath>
  </defs>
  <g id="Grupo_1179122" data-name="Grupo 1179122" transform="translate(-550.497 -2595.311)">
    <g id="Grupo_1177819" data-name="Grupo 1177819" transform="translate(267.033 -1818)">
      <rect id="Rectángulo_401003" data-name="Rectángulo 401003" width="144.479" height="124.843" rx="29" transform="translate(303.762 4417.924)" fill="none" stroke="#fe8938" stroke-miterlimit="10" stroke-width="3"/>
      <g id="Grupo_1177823" data-name="Grupo 1177823" transform="translate(283.464 4413.311)">
        <path id="Trazado_995061" data-name="Trazado 995061" d="M90.746,207.135l-.432.045-.418.072-.4.1-.382.124-.359.148-.332.175L1.142,259.31l-.546.407-.372.463-.2.5L0,261.2l.144.53.312.521.48.5.643.455,86.4,51,.374.2.4.177.413.154.427.13.438.1.445.08.449.055.449.03.447,0,.44-.02.431-.046.418-.071.4-.1.382-.122.359-.148.331-.175,87.282-51.516.546-.407.371-.463.2-.5.025-.523-.144-.531-.313-.521-.479-.5-.644-.455-86.4-51-.375-.2-.395-.178-.413-.154-.427-.13-.437-.1-.445-.08-.449-.055-.45-.03-.447,0Z" transform="translate(0 -172.463)" fill="#93c6de"/>
        <path id="Trazado_995062" data-name="Trazado 995062" d="M200.421,496.238V492.2l-.188.478-.354.44-.521.388-83.1,49.046-.316.166-.342.141-.364.116-.382.092-.4.068-.41.043-.419.019-.425,0-.429-.029-.427-.053-.422-.076-.418-.1-.406-.124-.393-.146-.377-.169-.355-.192L27.717,493.755l-.612-.432-.457-.473-.3-.5-.138-.5v4.035l.138.5.3.5.457.473.612.432,82.263,48.553.355.193.377.169.393.146.406.124.418.1.422.076.427.053.429.029.425,0,.419-.02.41-.042.4-.068.382-.093.364-.116.342-.141.316-.166,83.1-49.046.521-.388.354-.44Z" transform="translate(-21.827 -409.562)" fill="#c9e3f6" fill-rule="evenodd"/>
        <path id="Trazado_995063" data-name="Trazado 995063" d="M27.3,233.738l83.1-49.046.316-.166.342-.142.364-.116.382-.093.4-.068.41-.043.419-.019.425,0,.429.029.427.053.424.076.416.1.406.124.394.146.377.169.357.192,82.261,48.554.612.432.457.472.3.5.138.505-.025.5-.188.478-.354.44-.521.388-83.1,49.046-.315.166-.342.141-.364.117-.382.092-.4.068-.41.043-.419.019-.425,0-.429-.029-.427-.053-.422-.075-.418-.1-.406-.124-.394-.146-.377-.169-.355-.192L27.717,237.447l-.612-.432-.457-.473-.3-.5-.138-.5.025-.5.188-.478.354-.441Z" transform="translate(-21.826 -153.254)" fill="#e3f3fc" fill-rule="evenodd"/>
        <g id="Grupo_1177822" data-name="Grupo 1177822">
          <g id="Grupo_1177821" data-name="Grupo 1177821" clip-path="url(#clip-path)">
            <path id="Trazado_995064" data-name="Trazado 995064" d="M55.879,252.071l0,0-.016-.01-.022-.017-.016-.012-.013-.012L55.8,252l-.012-.014-.017-.022-.01-.017,0,0-.006-.011-.006-.011-.011-.024,0-.007-.006-.017,0-.006,0-.013v0a.368.368,0,0,1-.01-.072v-.025a.366.366,0,0,1,.01-.072v0l0-.012,0-.006.006-.017,0-.009.011-.024.006-.009.006-.011v0l0-.007.005-.006,0-.008.011-.013.006-.007.006-.007,0,0,.012-.014.019-.018.007-.006.012-.009,0,0,.007,0,.022-.014.345-.205a.35.35,0,0,1,.478.124.345.345,0,0,1,0,.356l.134.078a.348.348,0,1,1-.354.6Zm2.5-1.267a.348.348,0,1,1-.354-.6l.6-.354a.348.348,0,0,1,.353.6Zm2.4-1.416a.348.348,0,1,1-.353-.6l.6-.355a.348.348,0,1,1,.353.6Zm2.4-1.417a.348.348,0,0,1-.354-.6l.6-.354a.348.348,0,1,1,.354.6Zm2.4-1.417a.348.348,0,0,1-.354-.6l.6-.354a.348.348,0,1,1,.354.6Zm2.4-1.417a.348.348,0,0,1-.354-.6l.6-.354a.348.348,0,1,1,.354.6Zm2.4-1.418a.348.348,0,0,1-.354-.6l.6-.354a.348.348,0,0,1,.354.6Zm2.4-1.416a.348.348,0,0,1-.354-.6l.6-.355a.348.348,0,1,1,.353.6Zm2.4-1.417a.348.348,0,0,1-.354-.6l.6-.354a.348.348,0,1,1,.353.6Zm2.4-1.417a.348.348,0,0,1-.354-.6l.6-.354a.348.348,0,0,1,.353.6Zm2.4-1.416a.348.348,0,0,1-.353-.6l.6-.354a.348.348,0,0,1,.353.6Zm2.4-1.416a.348.348,0,1,1-.354-.6l.6-.354a.348.348,0,0,1,.354.6Zm2.4-1.417a.348.348,0,1,1-.354-.6l.6-.354a.349.349,0,0,1,.355.6Zm2.4-1.416a.349.349,0,0,1-.355-.6l.6-.354a.348.348,0,1,1,.354.6Zm2.4-1.416a.348.348,0,0,1-.354-.6l.6-.354a.348.348,0,1,1,.354.6Zm2.4-1.416a.348.348,0,0,1-.353-.6l.6-.354a.348.348,0,1,1,.353.6Zm2.4-1.417a.348.348,0,1,1-.353-.6l.6-.353a.348.348,0,0,1,.353.6Zm2.4-1.416a.348.348,0,1,1-.354-.6l.6-.354a.348.348,0,0,1,.354.6Zm2.4-1.416a.349.349,0,0,1-.355-.6l.6-.354a.349.349,0,0,1,.355.6Zm2.4-1.416a.349.349,0,0,1-.355-.6l.6-.354a.348.348,0,1,1,.354.6Zm2.4-1.417a.348.348,0,1,1-.354-.6l.6-.354a.348.348,0,1,1,.353.6Zm2.4-1.416a.348.348,0,1,1-.353-.6l.6-.354a.348.348,0,1,1,.353.6Zm2.4-1.416a.348.348,0,1,1-.353-.6l.6-.354a.348.348,0,0,1,.354.6Zm2.4-1.416a.348.348,0,1,1-.354-.6l.6-.354a.348.348,0,0,1,.354.6Zm2.4-1.418a.348.348,0,1,1-.356-.6l.6-.354a.349.349,0,1,1,.355.6Zm2.4-1.416a.349.349,0,0,1-.355-.6l.6-.353a.348.348,0,1,1,.354.6Zm2.4-1.416a.348.348,0,0,1-.354-.6l.6-.354a.348.348,0,0,1,.354.6Zm2.4-1.416a.348.348,0,1,1-.353-.6l.6-.354a.348.348,0,1,1,.353.6Zm2.4-1.416a.348.348,0,0,1-.354-.6l.6-.354a.348.348,0,0,1,.354.6Zm2.4-1.416a.348.348,0,1,1-.354-.6l.6-.354a.349.349,0,1,1,.355.6Zm2.4-1.416a.349.349,0,0,1-.355-.6l.6-.354a.349.349,0,0,1,.355.6Zm2.4-1.416a.348.348,0,0,1-.354-.6l.6-.354a.348.348,0,1,1,.354.6Zm2.4-1.416a.348.348,0,0,1-.354-.6l.6-.354a.348.348,0,0,1,.353.6Zm2.4-1.416a.348.348,0,0,1-.353-.6l.6-.354a.348.348,0,0,1,.353.6Zm2.321-1.147a.348.348,0,0,1-.032-.7l.157-.007h.03l.22,0h.02l.224.016h.022l.082.011a.348.348,0,0,1-.085.691l-.073-.008-.208-.014-.2,0Zm.619-.685-.044.695.047-.695Zm1.8,1.43a.349.349,0,0,1,.355-.6l.6.354a.349.349,0,1,1-.355.6Zm2.4,1.417a.348.348,0,1,1,.354-.6l.6.354a.348.348,0,0,1-.354.6Zm2.4,1.417a.348.348,0,1,1,.353-.6l.6.354a.348.348,0,1,1-.353.6Zm2.4,1.417a.348.348,0,0,1,.354-.6l.6.354a.348.348,0,0,1-.354.6Zm2.4,1.416a.348.348,0,0,1,.354-.6l.6.354a.348.348,0,0,1-.353.6Zm2.4,1.417a.348.348,0,0,1,.354-.6l.6.355a.348.348,0,1,1-.353.6Zm2.4,1.417a.348.348,0,0,1,.354-.6l.6.354a.348.348,0,1,1-.353.6Zm2.4,1.417a.348.348,0,0,1,.353-.6l.6.354a.348.348,0,1,1-.353.6Zm2.4,1.417a.348.348,0,1,1,.353-.6l.6.354a.348.348,0,1,1-.353.6Zm2.4,1.416a.347.347,0,1,1,.353-.6l.6.354a.348.348,0,0,1-.354.6Zm2.4,1.417a.348.348,0,1,1,.354-.6l.6.354a.348.348,0,0,1-.354.6Zm2.4,1.416a.349.349,0,0,1,.355-.6l.6.354a.349.349,0,0,1-.355.6Zm2.4,1.417a.349.349,0,0,1,.355-.6l.6.353a.348.348,0,1,1-.354.6Zm2.4,1.416a.348.348,0,0,1,.354-.6l.6.354a.348.348,0,0,1-.354.6Zm2.4,1.416a.348.348,0,1,1,.353-.6l.6.354a.348.348,0,0,1-.353.6Zm2.4,1.416a.348.348,0,1,1,.353-.6l.6.354a.348.348,0,0,1-.354.6Zm2.4,1.416a.348.348,0,1,1,.354-.6l.6.354a.348.348,0,0,1-.354.6Zm2.4,1.418a.349.349,0,0,1,.355-.6l.6.354a.349.349,0,0,1-.355.6Zm2.4,1.416a.348.348,0,0,1,.354-.6l.6.354a.348.348,0,1,1-.354.6Zm2.4,1.416a.348.348,0,0,1,.354-.6l.6.354a.348.348,0,1,1-.353.6Zm2.4,1.416a.348.348,0,1,1,.353-.6l.6.353a.348.348,0,1,1-.353.6Zm2.4,1.417a.348.348,0,0,1,.354-.6l.6.354a.348.348,0,1,1-.354.6Zm2.4,1.416a.348.348,0,1,1,.354-.6l.6.354a.348.348,0,0,1-.354.6Zm2.4,1.416a.349.349,0,0,1,.355-.6l.6.354a.348.348,0,1,1-.354.6Zm2.4,1.416a.348.348,0,0,1,.354-.6l.6.354a.348.348,0,1,1-.354.6Zm2.4,1.416a.348.348,0,1,1,.354-.6l.6.354a.348.348,0,1,1-.353.6Zm2.4,1.417a.348.348,0,1,1,.353-.6l.6.354a.348.348,0,0,1-.353.6Zm2.4,1.416a.348.348,0,1,1,.354-.6l.6.354a.348.348,0,0,1-.354.6Zm2.4,1.416a.348.348,0,1,1,.354-.6l.6.354a.349.349,0,0,1-.355.6Zm2.4,1.416a.349.349,0,0,1,.355-.6l.6.354a.348.348,0,1,1-.354.6Zm2.4,1.416a.348.348,0,0,1,.354-.6l.6.354a.348.348,0,1,1-.354.6Zm2.4,1.416a.348.348,0,0,1,.353-.6l.6.354a.348.348,0,1,1-.353.6Zm2.4,1.416a.348.348,0,1,1,.353-.6l.6.354a.348.348,0,0,1-.354.6Zm2.4,1.416a.348.348,0,1,1,.354-.6l.427.252a.343.343,0,0,1,.122.122.347.347,0,0,1-.122.476l-.173.1a.35.35,0,0,1-.477-.124.355.355,0,0,1-.048-.183Zm-1.547.817a.348.348,0,1,1,.354.6l-.6.355a.348.348,0,0,1-.354-.6Zm-2.4,1.416a.348.348,0,0,1,.353.6l-.6.354a.348.348,0,1,1-.353-.6Zm-2.4,1.417a.348.348,0,0,1,.354.6l-.6.354a.348.348,0,1,1-.354-.6Zm-2.4,1.417a.348.348,0,0,1,.354.6l-.6.354a.348.348,0,1,1-.354-.6Zm-2.4,1.417a.348.348,0,0,1,.354.6l-.6.355a.348.348,0,0,1-.354-.6Zm-2.4,1.417a.348.348,0,0,1,.354.6l-.6.354a.348.348,0,1,1-.354-.6Zm-2.4,1.416a.348.348,0,0,1,.354.6l-.6.354a.347.347,0,1,1-.353-.6Zm-2.4,1.417a.348.348,0,0,1,.354.6l-.6.354a.348.348,0,1,1-.353-.6Zm-2.4,1.417a.348.348,0,0,1,.354.6l-.6.354a.348.348,0,1,1-.353-.6Zm-2.4,1.416a.348.348,0,1,1,.353.6l-.6.354a.348.348,0,0,1-.353-.6Zm-2.4,1.416a.348.348,0,1,1,.354.6l-.6.354a.348.348,0,0,1-.354-.6Zm-2.4,1.417a.348.348,0,1,1,.355.6l-.6.354a.348.348,0,1,1-.355-.6Zm-2.4,1.416a.349.349,0,0,1,.355.6l-.6.354a.348.348,0,1,1-.354-.6Zm-2.4,1.416a.348.348,0,0,1,.354.6l-.6.354a.348.348,0,1,1-.354-.6Zm-2.4,1.416a.348.348,0,1,1,.353.6l-.6.354a.348.348,0,1,1-.353-.6Zm-2.4,1.417a.347.347,0,1,1,.353.6l-.6.354a.348.348,0,0,1-.354-.6Zm-2.4,1.416a.348.348,0,1,1,.354.6l-.6.353a.348.348,0,0,1-.354-.6Zm-2.4,1.416a.349.349,0,0,1,.355.6l-.6.354a.349.349,0,0,1-.355-.6Zm-2.4,1.416a.348.348,0,0,1,.354.6l-.6.354a.348.348,0,1,1-.354-.6Zm-2.4,1.416a.348.348,0,0,1,.354.6l-.6.354a.348.348,0,0,1-.354-.6Zm-2.4,1.417a.348.348,0,1,1,.353.6l-.6.354a.348.348,0,1,1-.353-.6Zm-2.4,1.416a.348.348,0,1,1,.353.6l-.6.354a.348.348,0,0,1-.354-.6Zm-2.4,1.416a.348.348,0,1,1,.354.6l-.6.354a.348.348,0,0,1-.354-.6Zm-2.4,1.416a.349.349,0,0,1,.355.6l-.6.354a.349.349,0,0,1-.355-.6Zm-2.4,1.417a.348.348,0,0,1,.354.6l-.6.354a.348.348,0,1,1-.354-.6Zm-2.4,1.416a.348.348,0,0,1,.354.6l-.6.354a.348.348,0,0,1-.353-.6Zm-2.4,1.416a.348.348,0,1,1,.353.6l-.6.354a.348.348,0,1,1-.353-.6Zm-2.4,1.416a.348.348,0,0,1,.354.6l-.6.354a.348.348,0,0,1-.354-.6Zm-2.4,1.416a.348.348,0,1,1,.354.6l-.6.354a.349.349,0,0,1-.355-.6Zm-2.4,1.416a.349.349,0,0,1,.355.6l-.6.354a.349.349,0,0,1-.355-.6Zm-2.4,1.416a.348.348,0,0,1,.354.6l-.6.354a.348.348,0,1,1-.354-.6Zm-2.4,1.416a.348.348,0,0,1,.354.6l-.6.354a.348.348,0,1,1-.353-.6Zm-2.4,1.416a.348.348,0,1,1,.353.6l-.6.354a.348.348,0,1,1-.353-.6ZM138.46,299.2a.348.348,0,0,1,.072.693l-.157.017h-.02l-.2.01h-.03l-.22,0h-.019l-.109-.008a.348.348,0,1,1,.047-.695l.1.007.2,0,.186-.008Zm-2.427-.628a.349.349,0,1,1-.355.6l-.6-.354a.349.349,0,0,1,.355-.6Zm-2.4-1.416a.348.348,0,1,1-.354.6l-.6-.355a.348.348,0,0,1,.354-.6Zm-2.4-1.417a.348.348,0,1,1-.353.6l-.6-.354a.348.348,0,1,1,.353-.6Zm-2.4-1.418a.348.348,0,0,1-.353.6l-.6-.354a.348.348,0,1,1,.353-.6Zm-2.4-1.417a.348.348,0,1,1-.353.6l-.6-.354a.348.348,0,1,1,.353-.6Zm-2.4-1.417a.348.348,0,1,1-.353.6l-.6-.354a.348.348,0,0,1,.353-.6Zm-2.4-1.416a.348.348,0,1,1-.353.6l-.6-.354a.348.348,0,0,1,.353-.6Zm-2.4-1.417a.348.348,0,1,1-.353.6l-.6-.355a.348.348,0,0,1,.353-.6Zm-2.4-1.417a.348.348,0,0,1-.353.6l-.6-.354a.348.348,0,0,1,.353-.6Zm-2.4-1.417a.348.348,0,0,1-.353.6l-.6-.354a.348.348,0,0,1,.354-.6Zm-2.4-1.416a.348.348,0,1,1-.354.6l-.6-.354a.348.348,0,0,1,.354-.6Zm-2.4-1.416a.349.349,0,0,1-.355.6l-.6-.354a.349.349,0,0,1,.355-.6Zm-2.4-1.417a.348.348,0,0,1-.354.6l-.6-.354a.348.348,0,1,1,.354-.6Zm-2.4-1.416a.348.348,0,0,1-.354.6l-.6-.354a.348.348,0,0,1,.353-.6Zm-2.4-1.416a.348.348,0,0,1-.353.6l-.6-.354a.348.348,0,0,1,.353-.6Zm-2.4-1.416a.348.348,0,0,1-.354.6l-.6-.354a.348.348,0,0,1,.354-.6Zm-2.4-1.416a.348.348,0,1,1-.354.6l-.6-.354a.348.348,0,1,1,.355-.6Zm-2.4-1.417a.349.349,0,1,1-.355.6l-.6-.354a.349.349,0,0,1,.355-.6Zm-2.4-1.416a.348.348,0,0,1-.354.6l-.6-.354a.348.348,0,0,1,.354-.6Zm-2.4-1.416a.348.348,0,0,1-.354.6l-.6-.354a.348.348,0,1,1,.353-.6Zm-2.4-1.416a.348.348,0,0,1-.353.6l-.6-.354a.348.348,0,1,1,.353-.6Zm-2.4-1.417a.353.353,0,0,1,.124.478.349.349,0,0,1-.478.122l-.6-.354a.348.348,0,1,1,.354-.6Zm-2.4-1.416a.348.348,0,1,1-.354.6l-.6-.354a.349.349,0,0,1,.355-.6Zm-2.4-1.416a.349.349,0,0,1-.355.6l-.6-.354a.349.349,0,0,1,.355-.6Zm-2.4-1.416a.348.348,0,0,1-.354.6l-.6-.354a.348.348,0,1,1,.354-.6Zm-2.4-1.416a.347.347,0,0,1-.353.6l-.6-.354a.347.347,0,1,1,.353-.6Zm-2.4-1.417a.348.348,0,1,1-.353.6l-.6-.354a.348.348,0,0,1,.353-.6Zm-2.4-1.416a.348.348,0,1,1-.354.6l-.6-.354a.348.348,0,0,1,.354-.6Zm-2.4-1.416a.348.348,0,1,1-.354.6l-.6-.354a.349.349,0,0,1,.355-.6Zm-2.4-1.416a.349.349,0,0,1-.355.6l-.6-.354a.348.348,0,1,1,.354-.6Zm-2.4-1.416a.348.348,0,0,1-.354.6l-.6-.354a.348.348,0,1,1,.354-.6Zm-2.4-1.416a.348.348,0,0,1-.353.6l-.6-.354a.348.348,0,0,1,.353-.6Zm-2.4-1.416a.348.348,0,1,1-.353.6l-.6-.354a.348.348,0,0,1,.354-.6Z" transform="translate(-46.388 -169.555)" fill="#fff" fill-rule="evenodd"/>
            <path id="Trazado_995065" data-name="Trazado 995065" d="M632.953,495.265l-83.1,49.046-.316.166-.342.141-.364.117-.382.093-.4.068-.411.043-.419.019-.3,0v4.035l.3,0,.419-.021.411-.042.4-.068.382-.092.364-.117.342-.141.316-.166,83.1-49.046.521-.388.354-.44.188-.478v-4.035l-.188.478-.354.44Z" transform="translate(-455.422 -411.318)" fill="#b7d9f2" fill-rule="evenodd"/>
            <path id="Trazado_995066" data-name="Trazado 995066" d="M417.045,295.33l-9.163,5.3a2.666,2.666,0,0,1-1.981,0l-9.167-5.288c-.1-.056-.145-.119-.15-.18h0v-.01h0l-.187-2.492,2.677.235,2.006-1.745a3.094,3.094,0,0,0-1.524-1.7,8.589,8.589,0,0,0-7.772,0,5.665,5.665,0,0,0-1.215,1.05,2.465,2.465,0,0,1-2.082.079l-8.961-5.17a.254.254,0,0,1-.144-.171l-.022-.006-.176-2.534,4.274.059,5.026-2.9a2.471,2.471,0,0,1,2.082.077,5.673,5.673,0,0,0,1.216,1.05,8.256,8.256,0,0,0,4.608.9l1.583-.265a6.5,6.5,0,0,0,1.581-.634c2.145-1.24,2.145-3.249,0-4.487a13.174,13.174,0,0,0-2.566-.921c-.266-.076-.408-.184-.406-.294h0l-.184-2.481,2.523-.336,1.553.468,5.425-3.134a2.669,2.669,0,0,1,1.98,0l19.549,11.278.653.2,6.139,1.427.186,2.495a.1.1,0,0,1,0,.018v.012h0a.264.264,0,0,1-.146.172l-8.958,5.175a2.466,2.466,0,0,1-2.082-.078,5.633,5.633,0,0,0-1.216-1.049,8.589,8.589,0,0,0-7.772,0,2.745,2.745,0,0,0-1.6,2.207l4.385.942.193,2.529h0c.012.072-.034.145-.148.211" transform="translate(-315.743 -224.496)" fill="#789fd3" fill-rule="evenodd"/>
            <path id="Trazado_995067" data-name="Trazado 995067" d="M414.028,274.409a8.6,8.6,0,0,1,7.772,0,5.677,5.677,0,0,1,1.216,1.05,2.466,2.466,0,0,0,2.082.078l8.958-5.175c.2-.119.2-.264,0-.381L407.68,254.76a2.672,2.672,0,0,0-1.981,0l-9.163,5.295c-.279.16-.168.363.254.483a13.225,13.225,0,0,1,2.567.921c2.146,1.239,2.146,3.247,0,4.487a8.6,8.6,0,0,1-7.772,0,5.675,5.675,0,0,1-1.214-1.05,2.468,2.468,0,0,0-2.083-.078l-8.958,5.175c-.2.119-.2.264,0,.382l8.961,5.17a2.466,2.466,0,0,0,2.082-.079,5.651,5.651,0,0,1,1.216-1.051,8.6,8.6,0,0,1,7.771,0c2.146,1.239,2.147,3.248,0,4.487a13.263,13.263,0,0,1-2.566.922c-.422.12-.533.323-.256.483l9.168,5.289a2.663,2.663,0,0,0,1.98,0l9.163-5.295c.277-.16.167-.363-.256-.483a13.235,13.235,0,0,1-2.566-.921c-2.146-1.237-2.146-3.248,0-4.487" transform="translate(-315.739 -211.979)" fill="#a0c6e9" fill-rule="evenodd"/>
            <path id="Trazado_995068" data-name="Trazado 995068" d="M668.172,420.961l-8.492-4.9a2.438,2.438,0,0,0-2.089.089,6.933,6.933,0,0,1-1.6,1.488,8.592,8.592,0,0,1-7.773,0,2.971,2.971,0,0,1-1.565-1.859h0l0-.029a1.8,1.8,0,0,1-.034-.415l-.171-2.163,4.446-2.185-9.095-5.246c-.1-.06-.154-.127-.151-.194h0l-.183-2.476,10.162-3.974c-.024-.007-.045-.016-.07-.022a17.069,17.069,0,0,1-3.337-1.129,2.85,2.85,0,0,1-1.594-2.045h0l-.2-2.58,2.033.012a8.642,8.642,0,0,1,7.535.122,4.288,4.288,0,0,1,.746.577l3.356.759,8.077-4.666a2.664,2.664,0,0,1,1.978,0l19.769,11.406,6.575,1.484.187,2.5h0c.01.071-.036.143-.146.208l-26.368,15.235a2.662,2.662,0,0,1-1.979,0" transform="translate(-534.138 -324.698)" fill="#8eb6e1" fill-rule="evenodd"/>
            <path id="Trazado_995069" data-name="Trazado 995069" d="M655.767,378.43a6.9,6.9,0,0,1,1.6,1.487,2.439,2.439,0,0,0,2.089.088l8.49-4.905a2.664,2.664,0,0,1,1.978,0L696.3,390.317c.2.118.2.263,0,.38l-26.368,15.236a2.667,2.667,0,0,1-1.979,0l-8.492-4.9a2.439,2.439,0,0,0-2.09.089,6.952,6.952,0,0,1-1.6,1.488,8.594,8.594,0,0,1-7.774,0c-2.147-1.239-2.148-3.249,0-4.489a17.005,17.005,0,0,1,3.334-1.132c.443-.116.562-.325.279-.488l-10.038-5.79c-.2-.118-.2-.263,0-.382l10.033-5.8c.283-.163.163-.371-.278-.488A16.908,16.908,0,0,1,648,382.919c-2.146-1.239-2.147-3.248,0-4.487a8.589,8.589,0,0,1,7.772,0" transform="translate(-534.111 -312.185)" fill="#b7d9f2" fill-rule="evenodd"/>
            <path id="Trazado_995070" data-name="Trazado 995070" d="M180.119,414.857a3.242,3.242,0,0,1-1.457,1.517,8.592,8.592,0,0,1-7.773,0,6.94,6.94,0,0,1-1.6-1.487,2.437,2.437,0,0,0-2.088-.087l-8.49,4.9a2.666,2.666,0,0,1-1.979,0l-26.379-15.219c-.1-.057-.15-.121-.151-.186h0v0h0l-.19-2.519,2.036-.793,6.255-1.47,18.42-10.643a2.664,2.664,0,0,1,1.98,0l8.173,4.714,2.763-.3a5.767,5.767,0,0,1,1.243-1.089,8.638,8.638,0,0,1,7.549-.119l1.641-.3.2,2.652h0a2.726,2.726,0,0,1-1.608,2.255,11.653,11.653,0,0,1-2.214.819l-.557.528,1.007,1.339,2.385,1.377,5.762,1.057.191,2.472a.025.025,0,0,1,0,.013v.011l-.006,0a.255.255,0,0,1-.145.173l-9.255,5.347,4.236,1.528.036,2.005a1.883,1.883,0,0,1,.026,1.493v.014Z" transform="translate(-108.26 -323.654)" fill="#8eb6e1" fill-rule="evenodd"/>
            <path id="Trazado_995071" data-name="Trazado 995071" d="M170.7,401.348a6.918,6.918,0,0,1-1.6-1.487,2.44,2.44,0,0,0-2.089-.087l-8.49,4.9a2.66,2.66,0,0,1-1.979,0L130.168,389.46c-.2-.118-.2-.263,0-.382l26.367-15.235a2.663,2.663,0,0,1,1.98,0l8.492,4.9a2.438,2.438,0,0,0,2.089-.089,6.957,6.957,0,0,1,1.6-1.488,8.6,8.6,0,0,1,7.775,0c2.147,1.239,2.148,3.248,0,4.489a16.938,16.938,0,0,1-3.334,1.13c-.443.118-.562.325-.28.489l10.038,5.791c.2.118.2.263,0,.381l-10.033,5.8c-.283.164-.163.372.279.489a17.017,17.017,0,0,1,3.335,1.129c2.147,1.239,2.147,3.249,0,4.488a8.592,8.592,0,0,1-7.773,0" transform="translate(-108.263 -311.14)" fill="#b7d9f2" fill-rule="evenodd"/>
            <path id="Trazado_995072" data-name="Trazado 995072" d="M410.256,560.758a2.669,2.669,0,0,1-1.98,0L381.9,545.54c-.1-.058-.151-.124-.152-.189h0l-.19-2.512,1.675.383,2.127-.06,5.5-3.178a2.463,2.463,0,0,1,2.081.078,5.639,5.639,0,0,0,1.213,1.051,8.591,8.591,0,0,0,7.773,0c2.147-1.241,2.146-3.25,0-4.489a13.356,13.356,0,0,0-2.567-.919c-.255-.071-.394-.174-.4-.278h0v-.013l-.18-2.466,3.9.214,5.6-3.233a2.66,2.66,0,0,1,1.979,0l4.948,2.854.528-.019,3.656.133.179,2.468a.13.13,0,0,1,.006.067v.012h0c-.026.1-.161.19-.4.257a13.391,13.391,0,0,0-2.566.921c-2.146,1.24-2.146,3.25,0,4.488.152.088.313.168.48.244l4.483.622a7.334,7.334,0,0,0,2.81-.868,5.593,5.593,0,0,0,1.212-1.053,2.467,2.467,0,0,1,2.081-.078L432.92,543l3.668-.176.19,2.5v.013h0c0,.062-.053.125-.15.181Z" transform="translate(-317.72 -441.107)" fill="#789fd3" fill-rule="evenodd"/>
            <path id="Trazado_995073" data-name="Trazado 995073" d="M381.7,530.13l8.959-5.176a2.462,2.462,0,0,1,2.081.078,5.682,5.682,0,0,0,1.214,1.051,8.589,8.589,0,0,0,7.772,0c2.147-1.24,2.146-3.249,0-4.487a13.316,13.316,0,0,0-2.568-.919c-.422-.119-.533-.322-.256-.481l9.166-5.3a2.67,2.67,0,0,1,1.98,0l9.169,5.29c.276.161.167.362-.257.482a13.325,13.325,0,0,0-2.566.921c-2.146,1.24-2.146,3.249,0,4.487a8.584,8.584,0,0,0,7.773,0,5.594,5.594,0,0,0,1.212-1.051,2.468,2.468,0,0,1,2.08-.079l8.965,5.171c.2.118.2.263,0,.38l-26.37,15.236a2.661,2.661,0,0,1-1.979,0L381.7,530.512c-.2-.118-.2-.263,0-.382" transform="translate(-317.717 -428.592)" fill="#a0c6e9" fill-rule="evenodd"/>
            <path id="Trazado_995074" data-name="Trazado 995074" d="M734.73,444.354a13.687,13.687,0,0,1-6.694-1.6c-3.7-2.133-3.7-5.594,0-7.73a14.8,14.8,0,0,1,13.388,0c3.694,2.136,3.7,5.6,0,7.73a13.685,13.685,0,0,1-6.693,1.6" transform="translate(-603.924 -360.91)" fill="#c9e3f6" fill-rule="evenodd"/>
            <path id="Trazado_995075" data-name="Trazado 995075" d="M485.937,603.478a14.832,14.832,0,0,1-7.249-1.734c-4-2.31-4-6.058,0-8.371a16.023,16.023,0,0,1,14.5,0c4,2.313,4,6.061,0,8.371a14.824,14.824,0,0,1-7.248,1.734" transform="translate(-396.101 -492.657)" fill="#8eb6e1" fill-rule="evenodd"/>
            <path id="Trazado_995076" data-name="Trazado 995076" d="M228.83,439.186a16.536,16.536,0,0,1-8.084-1.934c-4.465-2.575-4.465-6.755,0-9.336a17.874,17.874,0,0,1,16.167,0c4.461,2.58,4.466,6.76,0,9.336a16.528,16.528,0,0,1-8.083,1.934" transform="translate(-181.026 -354.715)" fill="#c9e3f6" fill-rule="evenodd"/>
            <path id="Trazado_995077" data-name="Trazado 995077" d="M519.106,312.859a13.8,13.8,0,0,1-6.745-1.613c-3.723-2.148-3.723-5.635,0-7.788a14.924,14.924,0,0,1,13.487,0c3.722,2.153,3.725,5.639,0,7.788a13.788,13.788,0,0,1-6.742,1.613" transform="translate(-424.316 -251.348)" fill="#8eb6e1" fill-rule="evenodd"/>
            <path id="Trazado_995078" data-name="Trazado 995078" d="M517.37,419.385s1.384-1.147,2.456-.7,1.6.774,1.008,1.757-4.5,4.965-5.7,4.6a5.863,5.863,0,0,1-3.1-5.171c.188-2.319,1.319-3.784,3.292-3.134a3.024,3.024,0,0,1,2.047,2.651" transform="translate(-426.356 -346.884)" fill="#2f73b7" fill-rule="evenodd"/>
            <path id="Trazado_995079" data-name="Trazado 995079" d="M514.521,611.347A6.923,6.923,0,0,0,514.06,613c-.094.85.049,1.289.624,1.479.614.2,1.476.071,2.913-.695s2.065-1.522,2.117-2.015-.673-1.208-1.913-.821a16.823,16.823,0,0,0-1.871.68Z" transform="translate(-428.034 -508.646)" fill="#101e3b" fill-rule="evenodd"/>
            <path id="Trazado_995080" data-name="Trazado 995080" d="M530.606,612.393a3.914,3.914,0,0,1,1.074.793c.354.446.743.08.487-.373a1.721,1.721,0,0,0-.913-.642,1.867,1.867,0,0,0-.648.222" transform="translate(-441.834 -509.753)" fill="#101e3b" fill-rule="evenodd"/>
            <path id="Trazado_995081" data-name="Trazado 995081" d="M514.841,492.532a12.892,12.892,0,0,0-.523-3.085,19.76,19.76,0,0,0-3.236-.71c-.4-.082-2.237,3.287-.909,5.146a15.125,15.125,0,0,0,1.283,5.816,20.4,20.4,0,0,0-.737,2.309c-.644,2.328-.233,5.405.07,7.884.13,1.064,2.259.713,2.708.181.316-1.557.545-5.341,1.213-7.824.505-1.873.635-2.263.444-3.507a51.1,51.1,0,0,1-.313-6.211" transform="translate(-424.425 -406.968)" fill="#005098" fill-rule="evenodd"/>
            <path id="Trazado_995082" data-name="Trazado 995082" d="M542.268,627.1a6.945,6.945,0,0,0-.461,1.659c-.094.85.049,1.288.624,1.477.615.205,1.476.072,2.913-.693s2.065-1.524,2.117-2.016-.673-1.21-1.914-.822a16.941,16.941,0,0,0-1.87.682Z" transform="translate(-451.139 -521.763)" fill="#101e3b" fill-rule="evenodd"/>
            <path id="Trazado_995083" data-name="Trazado 995083" d="M558.352,628.146a3.925,3.925,0,0,1,1.074.792c.354.448.743.081.487-.372a1.725,1.725,0,0,0-.913-.643,1.854,1.854,0,0,0-.648.223" transform="translate(-464.938 -522.869)" fill="#101e3b" fill-rule="evenodd"/>
            <path id="Trazado_995084" data-name="Trazado 995084" d="M527.67,499.152a22.057,22.057,0,0,0-.853-4.019,12.067,12.067,0,0,1-2.836.51c-.667-.133-2.6-2.194-2.608-2.117a4.486,4.486,0,0,0,.5,6.435,9.973,9.973,0,0,0,3.017,6.361,13.643,13.643,0,0,0-.737,2.309,27.67,27.67,0,0,0,.07,7.885c.13,1.063,2.259.713,2.708.18.315-1.555.545-5.341,1.213-7.823.505-1.875.635-2.263.444-3.508-.442-2.868-.82-5.608-.914-6.213" transform="translate(-433.213 -410.955)" fill="#2561ad" fill-rule="evenodd"/>
            <path id="Trazado_995085" data-name="Trazado 995085" d="M533.868,383.515a2.273,2.273,0,0,0-2.444.526,2.029,2.029,0,0,0-.761,1.846,5.959,5.959,0,0,0,.4,1.29,5.792,5.792,0,0,0,1.224,1.483,2.853,2.853,0,0,0,2.694.406c.671-.372.946-1.518.485-3.045-.33-1.093-.486-2.038-1.594-2.506" transform="translate(-441.864 -319.215)" fill="#f4ae92" fill-rule="evenodd"/>
            <path id="Trazado_995086" data-name="Trazado 995086" d="M517.4,421.436c-2.124-1.036-2.787-2.121-4.256-.828-.912.8-1.068,4.078-.943,5.439a29.609,29.609,0,0,1,.607,5.048c-.034.6-.606,1.374-.719,1.936.706.882,2.853,2.768,4.766,2.757s2.742-.347,3.435-1.028c0-1.468-.115-2.373-.044-3.244.2-2.529.553-4.564.64-6.132.115-2.107-1.011-2.741-3.485-3.947" transform="translate(-426.416 -349.747)" fill="#4385c6" fill-rule="evenodd"/>
            <path id="Trazado_995087" data-name="Trazado 995087" d="M528.921,405.855a12.242,12.242,0,0,1-.3,1.764,3.254,3.254,0,0,1-.9,1.346,1.021,1.021,0,0,0,.47,1.582,3.057,3.057,0,0,0,2.6-.535,5.488,5.488,0,0,1,.46-1.771c.329-.814-2.326-2.386-2.326-2.386" transform="translate(-439.254 -337.954)" fill="#f4ae92" fill-rule="evenodd"/>
            <path id="Trazado_995088" data-name="Trazado 995088" d="M528.79,380.2a1.848,1.848,0,0,1-.948,2.255,2.9,2.9,0,0,1-1.083,1.611,1.791,1.791,0,0,1-.6,1.6,4.888,4.888,0,0,1-1.493.978,22.749,22.749,0,0,1-1.623-3.039,2.673,2.673,0,0,1,1.245-3.263,4.039,4.039,0,0,1,2.5-.469,16.756,16.756,0,0,1,2,.326" transform="translate(-435.402 -316.297)" fill="#101e3b" fill-rule="evenodd"/>
            <path id="Trazado_995089" data-name="Trazado 995089" d="M544.755,402.014a.981.981,0,0,0,.934,1.069l.343-1.126s-1.181-1.066-1.277.056" transform="translate(-453.611 -334.328)" fill="#f4ae92" fill-rule="evenodd"/>
            <path id="Trazado_995090" data-name="Trazado 995090" d="M524.63,492.991a5.564,5.564,0,0,0,2.758,1.562,7.077,7.077,0,0,0,1.848-.008,5.1,5.1,0,0,0-1.883-.857c-1.008-.188-2.723-.7-2.723-.7" transform="translate(-436.858 -410.512)" fill="#2f73b7" fill-rule="evenodd"/>
            <path id="Trazado_995091" data-name="Trazado 995091" d="M547.431,443.331a1.3,1.3,0,0,0,1.4-.328c1.17-.972,3.238-2.77,3.524-3.144.508-.666-.42-1.893-1.438-1.541a9,9,0,0,0-3.173,1.6,38.725,38.725,0,0,0-2.365-4.883c-1.3-1.44-1.982-1.165-2.618-.39a6.624,6.624,0,0,0-.912,3.546c-.031,1.324.18,2.372.87,2.685a2.642,2.642,0,0,0,1.415.323,8.907,8.907,0,0,0,3.293,2.131" transform="translate(-451.196 -361.398)" fill="#2f73b7" fill-rule="evenodd"/>
            <path id="Trazado_995092" data-name="Trazado 995092" d="M525.143,422.135c-.449.164-1.027,1.077.047,1.917a2.312,2.312,0,0,0,2.639-.082,3.825,3.825,0,0,1,1.008-.294s-.2-.655-1.26-.649a2.734,2.734,0,0,1-1.882-.574c-.3-.41-.3-.41-.552-.318" transform="translate(-436.815 -351.469)" fill="#2f73b7" fill-rule="evenodd"/>
            <path id="Trazado_995093" data-name="Trazado 995093" d="M596.07,447.4a17.7,17.7,0,0,1,1.917-2.338c.86-.8.961-.241.577.532l-.386.773s1.819-.355,2.871-.464.766,1.645-.478,2.108-2.7.2-3.24.741a1.368,1.368,0,0,1-1.26-1.351" transform="translate(-496.345 -370.275)" fill="#f4ae92" fill-rule="evenodd"/>
            <path id="Trazado_995094" data-name="Trazado 995094" d="M558.217,415.443a26.108,26.108,0,0,1,2.511-2.718c.437-.219.329.552,0,.958l-.326.406a5.924,5.924,0,0,0,1.395-.175c1.006-.206,1.915-.223,1.371.844s-1.866,1.395-2.726,1.619a9.126,9.126,0,0,0-1.36.451s-1.313-.851-.864-1.384" transform="translate(-464.747 -343.642)" fill="#f4ae92" fill-rule="evenodd"/>
            <path id="Trazado_995095" data-name="Trazado 995095" d="M618.989,332.529a.539.539,0,1,0,.539-.539.539.539,0,0,0-.539.539" transform="translate(-515.43 -276.447)" fill="#4b6cb2" fill-rule="evenodd"/>
            <path id="Trazado_995096" data-name="Trazado 995096" d="M569.062,347.256a.539.539,0,1,0,.539-.539.539.539,0,0,0-.539.539" transform="translate(-473.856 -288.71)" fill="#4b6cb2" fill-rule="evenodd"/>
            <path id="Trazado_995097" data-name="Trazado 995097" d="M530.318,324.632a.539.539,0,1,0,.539-.539.539.539,0,0,0-.539.539" transform="translate(-441.594 -269.871)" fill="#4b6cb2" fill-rule="evenodd"/>
            <path id="Trazado_995098" data-name="Trazado 995098" d="M554.407,295.192a.539.539,0,1,0,.538-.539.538.538,0,0,0-.538.539" transform="translate(-461.653 -245.357)" fill="#242424" fill-rule="evenodd"/>
            <path id="Trazado_995099" data-name="Trazado 995099" d="M611.034,301.088a.539.539,0,1,0,.539-.539.539.539,0,0,0-.539.539" transform="translate(-508.806 -250.266)" fill="#4b6cb2" fill-rule="evenodd"/>
            <path id="Trazado_995100" data-name="Trazado 995100" d="M536.814,298.4l-2.628-3.515v-.233l.773.006,3.38,3.293a3.376,3.376,0,0,1,.681.062l4.978-2.53.613.122v.233l-4.381,2.873a.736.736,0,0,1,.108.392l5.7,1.72v.233l-.394.445-6.089-1.517a2.651,2.651,0,0,1-.615.181l-1.451,3.735-.857-.078v-.233l.618-3.58a2.1,2.1,0,0,1-.267-.127,1.737,1.737,0,0,1-.221-.154l-6.6.358-.137-.495v-.233l6.469-.606a1.112,1.112,0,0,1,.314-.354" transform="translate(-441.355 -245.357)" fill="#4b6cb2" fill-rule="evenodd"/>
            <path id="Trazado_995101" data-name="Trazado 995101" d="M536.814,296.341l-2.628-2.817.773-.227,3.38,2.595a3.29,3.29,0,0,1,.681.062l4.978-1.83.613.354-4.381,2.175a.736.736,0,0,1,.108.392l5.7,2.651-.394.446-6.089-2.217a2.761,2.761,0,0,1-.615.181l-1.451,4.433-.857-.078.618-4.512a2.073,2.073,0,0,1-.267-.127,1.759,1.759,0,0,1-.221-.154l-6.6,1.056-.137-.495,6.469-1.537a1.1,1.1,0,0,1,.314-.354" transform="translate(-441.355 -244.227)" fill="#6e96ce" fill-rule="evenodd"/>
            <path id="Trazado_995102" data-name="Trazado 995102" d="M574.113,283.341a.8.8,0,0,1,.171-.131,1.645,1.645,0,0,1,1.486,0,.8.8,0,0,1,.172.131h.137v4.947a.522.522,0,0,1-.309.428,1.638,1.638,0,0,1-1.486,0,.522.522,0,0,1-.308-.428v-4.947Z" transform="translate(-477.948 -235.681)" fill="#5479bb" fill-rule="evenodd"/>
            <path id="Trazado_995103" data-name="Trazado 995103" d="M574.287,281.425a.453.453,0,0,0,0,.858,1.645,1.645,0,0,0,1.486,0,.453.453,0,0,0,0-.858,1.645,1.645,0,0,0-1.486,0" transform="translate(-477.95 -234.194)" fill="#444545" fill-rule="evenodd"/>
            <path id="Trazado_995104" data-name="Trazado 995104" d="M571.263,261.829a1.524,1.524,0,0,1,.708-.376,2.424,2.424,0,0,1,1.263,0,1.535,1.535,0,0,1,.709.376h.2v3.76c0,.316-.289.63-.865.8a2.384,2.384,0,0,1-1.348,0c-.577-.173-.865-.487-.865-.8v-3.76Z" transform="translate(-475.523 -217.642)" fill="#6e96ce" fill-rule="evenodd"/>
            <path id="Trazado_995105" data-name="Trazado 995105" d="M571.921,258.832c-1.156.343-1.156,1.261,0,1.6a2.364,2.364,0,0,0,1.348,0c1.155-.343,1.155-1.261,0-1.6a2.385,2.385,0,0,0-1.348,0" transform="translate(-475.515 -215.447)" fill="#444545" fill-rule="evenodd"/>
            <path id="Trazado_995106" data-name="Trazado 995106" d="M571.222,196.967l3.011-1.738c2.556-1.476,4.559-4.653,4.559-7.233V183.63H577.73V188c0,2.2-1.807,5.031-4.029,6.313l-3.011,1.739Z" transform="translate(-475.212 -152.908)" fill="#5d84c2" fill-rule="evenodd"/>
            <rect id="Rectángulo_454894" data-name="Rectángulo 454894" width="12.453" height="1.768" transform="translate(90.853 41.683)" fill="#5d84c2"/>
            <path id="Trazado_995107" data-name="Trazado 995107" d="M544.871,239.276c-2.431,1.4-2.431,3.68,0,5.084a9.728,9.728,0,0,0,8.8,0c2.431-1.4,2.431-3.681,0-5.084a9.727,9.727,0,0,0-8.8,0" transform="translate(-452.193 -198.368)" fill="#5d84c2" fill-rule="evenodd"/>
            <path id="Trazado_995108" data-name="Trazado 995108" d="M544.871,228.707c-2.431,1.4-2.431,3.681,0,5.084a9.728,9.728,0,0,0,8.8,0c2.431-1.4,2.431-3.68,0-5.084a9.735,9.735,0,0,0-8.8,0" transform="translate(-452.193 -189.567)" fill="#6e96ce" fill-rule="evenodd"/>
            <path id="Trazado_995109" data-name="Trazado 995109" d="M592.371,157.451l-1.15.677.7.606a4.149,4.149,0,0,0,1.86,3.094l2.65,1.53,1.587,1.626,1.09-.629a1.281,1.281,0,0,0,.619-1.251,4.462,4.462,0,0,0-1.867-3.232,22.672,22.672,0,0,0-4.078-2.356c-.6-.263-1.072-.327-1.414-.066" transform="translate(-492.308 -130.97)" fill="#5d84c2" fill-rule="evenodd"/>
            <path id="Trazado_995110" data-name="Trazado 995110" d="M590.01,161.78a20.466,20.466,0,0,1,4.079,2.355,4.738,4.738,0,0,1,1.866,3.233c0,1.191-.924,1.805-1.866,1.078a20.177,20.177,0,0,0-4.149-2.585,3.356,3.356,0,0,1-1.8-3c0-1.191.788-1.584,1.866-1.078" transform="translate(-489.745 -134.533)" fill="#6e96ce" fill-rule="evenodd"/>
            <path id="Trazado_995111" data-name="Trazado 995111" d="M526.529,171.7l-1.988,2.664-2.242,3.91c-.624.711-2.508.036-2.129-1.181l1.9-4.457,3.6-6.374,1.093,2.33Z" transform="translate(-433.102 -138.446)" fill="#103e7d" fill-rule="evenodd"/>
            <path id="Trazado_995112" data-name="Trazado 995112" d="M484.35,316.763a3.59,3.59,0,0,1,.367,1.976c-.161.907-1.008.912-1.716,1.086-1.366.336-1.965,1.438-3.808,1.6-1.1.092-1.847-.079-2.138-.753a1.191,1.191,0,0,1,.456-1.021s2.415-1.343,2.475-1.392a13.149,13.149,0,0,0,1.13-1.057c.015-.089.505-2.073.505-2.073l2.459-.212Z" transform="translate(-397.232 -262.225)" fill="#101e3b" fill-rule="evenodd"/>
            <path id="Trazado_995113" data-name="Trazado 995113" d="M533.681,337.25a2.328,2.328,0,0,1,.108,1.564,8.769,8.769,0,0,0-.292.919c-.107.548-.006,1.44-.756,2.044-.885.832-2.715,1.025-3.362.276a4.22,4.22,0,0,1,.571-2.01l1.073-2.2.1-1.626,2.555-.533Z" transform="translate(-440.81 -279.524)" fill="#101e3b" fill-rule="evenodd"/>
            <path id="Trazado_995114" data-name="Trazado 995114" d="M548.948,245.885a57.325,57.325,0,0,1-6.83,5.156c.263,1.483-.451,4.876-1.054,8.052-.545,1.05-3.142.624-3.142,0,.134-3.954.192-8.87.555-10.034,1.811-2.581,3.591-4.9,5.218-5.949l2.794-1.547,2.459,1.978Z" transform="translate(-447.926 -201.148)" fill="#072b5d" fill-rule="evenodd"/>
            <path id="Trazado_995115" data-name="Trazado 995115" d="M512.089,236.866c-1.368,1.308-6.115,1.618-8.359,2.915a30.718,30.718,0,0,1-.408,8.567c-.544,1.051-3.578.772-3.578.146.135-3.954-.623-8.8-.259-9.962.647-2.945,4.19-3.986,8.643-5.681l1.318-.3,1.324.389Z" transform="translate(-415.836 -193.646)" fill="#072b5d" fill-rule="evenodd"/>
            <path id="Trazado_995116" data-name="Trazado 995116" d="M551.724,172.475l.023.064a.685.685,0,0,0,.542.457,3.971,3.971,0,0,0,1.638-.323,3.76,3.76,0,0,1,2.183-.254c2.083,1.309,1.483,3.917,2.167,3.59a4.529,4.529,0,0,0,1.756-3.138,60.434,60.434,0,0,0,.256-9.518,7.523,7.523,0,0,0-.493-2.279,13.823,13.823,0,0,0-5.166-4.379l-3.785.329a6.381,6.381,0,0,0-1.279,3.836,29.1,29.1,0,0,0,1.7,6.8.994.994,0,0,1,.045.779c-.317.839-1.818,1.155-1.818,1.155-.132.551,1.343.389,2.23,2.882" transform="translate(-457.555 -130.478)" fill="#103e7d" fill-rule="evenodd"/>
            <path id="Trazado_995117" data-name="Trazado 995117" d="M559.161,170.286l2.8-.247-3.76,8.312a10.274,10.274,0,0,1-.815-8.982Z" transform="translate(-463.566 -141.033)" fill="#fff" fill-rule="evenodd"/>
            <path id="Trazado_995118" data-name="Trazado 995118" d="M562.984,174.949l.172,1.051-.586,1.055a31.5,31.5,0,0,0-.246,4.417l-.415,1.539-.686-1.464a45.347,45.347,0,0,1,.833-4.874l-.07-1.3.687-.521Z" transform="translate(-467.328 -145.596)" fill="#4385c6" fill-rule="evenodd"/>
            <path id="Trazado_995119" data-name="Trazado 995119" d="M562.568,154.476l1.628,1.079c.965,2.264-.859,3.386-1.991,4.79l-.906-1.972-1.777.51.378-3.374Z" transform="translate(-465.911 -128.632)" fill="#fff" fill-rule="evenodd"/>
            <path id="Trazado_995120" data-name="Trazado 995120" d="M568.139,158.443c1.2.762.742,2.5-.435,4.151-1.058,1.492-2.686,4.753-2.7,7.051a20.9,20.9,0,0,1,3.9-6.182l-.4-.791.775.1a4.461,4.461,0,0,0,.721-3.123Z" transform="translate(-470.481 -131.935)" fill="#072b5d" fill-rule="evenodd"/>
            <path id="Trazado_995121" data-name="Trazado 995121" d="M555.285,157.817c-1.5,1.72-1.894,8.309-.312,11.049-1.621-1.647-2.316-4.285-2.086-8.539l.413-.308-.167-.445,1.247-1.8Z" transform="translate(-460.351 -131.374)" fill="#072b5d" fill-rule="evenodd"/>
            <path id="Trazado_995122" data-name="Trazado 995122" d="M563.825,154.836c.154.136.2.19.37.2,1.781.152,2.635-2.123,2-3.233a8.88,8.88,0,0,1-.652-1.333l-2.525,1.786a1.274,1.274,0,0,0,.068.643c.218.64.287,1.526.743,1.933" transform="translate(-468.808 -125.299)" fill="#f4ae92" fill-rule="evenodd"/>
            <path id="Trazado_995123" data-name="Trazado 995123" d="M567.488,176.024a.945.945,0,0,1-.3-.278,1,1,0,0,0,.125.134,1.556,1.556,0,0,0,.173.144" transform="translate(-472.297 -146.343)" fill="#f9d5c8" fill-rule="evenodd"/>
            <path id="Trazado_995124" data-name="Trazado 995124" d="M565.332,161.42a1.136,1.136,0,0,1-.239-.026l-.019-.011a1.568,1.568,0,0,1-.173-.144,1,1,0,0,1-.125-.135,7.085,7.085,0,0,1-.485-1.792l2.211-1.15c.5,2.407-.386,3.257-1.17,3.257" transform="translate(-469.884 -131.702)" fill="#f09172" fill-rule="evenodd"/>
            <path id="Trazado_995125" data-name="Trazado 995125" d="M556.056,135.221a4.826,4.826,0,0,1-.163,2.063,3.52,3.52,0,0,1-1.419,1.48.933.933,0,0,1-.9.053,13.339,13.339,0,0,1-1.345-2.418,7.317,7.317,0,0,1-.521-1.7,2.514,2.514,0,0,1,2-3.156,2.2,2.2,0,0,1,2.495,1.087,5.34,5.34,0,0,1,.315,2.178Z" transform="translate(-459.353 -109.475)" fill="#f4ae92" fill-rule="evenodd"/>
            <path id="Trazado_995126" data-name="Trazado 995126" d="M554.972,134.8l-.8.934-.312-.574a.528.528,0,0,0-.722-.292,4.1,4.1,0,0,1-2.073.422,1.513,1.513,0,0,1-1.1-.474c-.854-1.177.475-2.866,1.793-3.333a2.225,2.225,0,0,1,3.027,1.178,5.414,5.414,0,0,1,.19,2.137" transform="translate(-457.727 -109.329)" fill="#101e3b" fill-rule="evenodd"/>
            <path id="Trazado_995127" data-name="Trazado 995127" d="M576.883,147.178a.374.374,0,0,1,.451-.1.357.357,0,0,1,.151.23.953.953,0,0,1,.008.281,4.425,4.425,0,0,1-.067.485.518.518,0,0,1-.171.348c-.112.077-.227.221-.335.139a1.113,1.113,0,0,1-.037-1.38" transform="translate(-480.184 -122.435)" fill="#f4ae92" fill-rule="evenodd"/>
            <path id="Trazado_995128" data-name="Trazado 995128" d="M489.329,240.487l8.492,4.9,5.319-3.07v-.262l-8.492-4.642Z" transform="translate(-407.463 -197.695)" fill="#5479bb" fill-rule="evenodd"/>
            <path id="Trazado_995129" data-name="Trazado 995129" d="M489.329,238.924l8.492,4.9,5.319-3.071-8.492-4.9Z" transform="translate(-407.463 -196.394)" fill="#6e96ce" fill-rule="evenodd"/>
            <path id="Trazado_995130" data-name="Trazado 995130" d="M496.825,254.219l.546.314.415-.24-.545-.315Z" transform="translate(-413.705 -211.487)" fill="#969697" fill-rule="evenodd"/>
            <path id="Trazado_995131" data-name="Trazado 995131" d="M500.62,256.407l.545.314.415-.24-.545-.315Z" transform="translate(-416.865 -213.309)" fill="#969697" fill-rule="evenodd"/>
            <path id="Trazado_995132" data-name="Trazado 995132" d="M504.407,258.595l.545.316.416-.24-.545-.316Z" transform="translate(-420.018 -215.131)" fill="#969697" fill-rule="evenodd"/>
            <path id="Trazado_995133" data-name="Trazado 995133" d="M508.2,260.783l.545.316.416-.24-.545-.316Z" transform="translate(-423.178 -216.953)" fill="#969697" fill-rule="evenodd"/>
            <path id="Trazado_995134" data-name="Trazado 995134" d="M512,262.977l.545.315.415-.24-.545-.315Z" transform="translate(-426.338 -218.78)" fill="#969697" fill-rule="evenodd"/>
            <path id="Trazado_995135" data-name="Trazado 995135" d="M515.785,265.165l.545.314.416-.24-.546-.315Z" transform="translate(-429.493 -220.602)" fill="#969697" fill-rule="evenodd"/>
            <path id="Trazado_995136" data-name="Trazado 995136" d="M519.572,267.353l.546.316.416-.241-.546-.315Z" transform="translate(-432.646 -222.424)" fill="#969697" fill-rule="evenodd"/>
            <path id="Trazado_995137" data-name="Trazado 995137" d="M523.374,269.541l.545.314.415-.24-.545-.315Z" transform="translate(-435.812 -224.246)" fill="#969697" fill-rule="evenodd"/>
            <path id="Trazado_995138" data-name="Trazado 995138" d="M527.162,271.729l.545.316.415-.241-.545-.314Z" transform="translate(-438.966 -226.068)" fill="#969697" fill-rule="evenodd"/>
            <path id="Trazado_995139" data-name="Trazado 995139" d="M530.949,273.917l.545.316.416-.24-.545-.316Z" transform="translate(-442.119 -227.89)" fill="#5479bb" fill-rule="evenodd"/>
            <path id="Trazado_995140" data-name="Trazado 995140" d="M534.744,276.112l.546.314.415-.24-.545-.315Z" transform="translate(-445.279 -229.718)" fill="#5479bb" fill-rule="evenodd"/>
            <path id="Trazado_995141" data-name="Trazado 995141" d="M501.28,251.643l.546.315.416-.24-.546-.315Z" transform="translate(-417.414 -209.343)" fill="#969697" fill-rule="evenodd"/>
            <path id="Trazado_995142" data-name="Trazado 995142" d="M505.075,253.831l.546.316.415-.241-.545-.315Z" transform="translate(-420.574 -211.165)" fill="#969697" fill-rule="evenodd"/>
            <path id="Trazado_995143" data-name="Trazado 995143" d="M508.87,256.019l.545.316.415-.24-.545-.316Z" transform="translate(-423.734 -212.987)" fill="#969697" fill-rule="evenodd"/>
            <path id="Trazado_995144" data-name="Trazado 995144" d="M512.657,258.215l.545.314.416-.24-.545-.314Z" transform="translate(-426.888 -214.815)" fill="#969697" fill-rule="evenodd"/>
            <path id="Trazado_995145" data-name="Trazado 995145" d="M516.452,260.4l.545.314.416-.24-.545-.315Z" transform="translate(-430.048 -216.636)" fill="#969697" fill-rule="evenodd"/>
            <path id="Trazado_995146" data-name="Trazado 995146" d="M520.247,262.59l.545.314.415-.24-.545-.315Z" transform="translate(-433.208 -218.458)" fill="#969697" fill-rule="evenodd"/>
            <path id="Trazado_995147" data-name="Trazado 995147" d="M524.034,264.778l.545.316.416-.241-.546-.315Z" transform="translate(-436.361 -220.28)" fill="#969697" fill-rule="evenodd"/>
            <path id="Trazado_995148" data-name="Trazado 995148" d="M527.821,266.966l.546.316.416-.24-.545-.316Z" transform="translate(-439.515 -222.102)" fill="#5479bb" fill-rule="evenodd"/>
            <path id="Trazado_995149" data-name="Trazado 995149" d="M531.616,269.16l.546.316.415-.241-.545-.313Z" transform="translate(-442.675 -223.93)" fill="#5479bb" fill-rule="evenodd"/>
            <path id="Trazado_995150" data-name="Trazado 995150" d="M535.411,271.343l.545.314.415-.24-.545-.316Z" transform="translate(-445.835 -225.746)" fill="#5479bb" fill-rule="evenodd"/>
            <path id="Trazado_995151" data-name="Trazado 995151" d="M539.2,273.537l.545.314.418-.24-.546-.315Z" transform="translate(-448.989 -227.573)" fill="#5479bb" fill-rule="evenodd"/>
            <path id="Trazado_995152" data-name="Trazado 995152" d="M504.136,250l.545.314.416-.24-.546-.315Z" transform="translate(-419.792 -207.975)" fill="#969697" fill-rule="evenodd"/>
            <path id="Trazado_995153" data-name="Trazado 995153" d="M507.923,252.189l.546.314.416-.24-.546-.315Z" transform="translate(-422.946 -209.797)" fill="#969697" fill-rule="evenodd"/>
            <path id="Trazado_995154" data-name="Trazado 995154" d="M511.718,254.377l.546.314.415-.24-.545-.315Z" transform="translate(-426.106 -211.619)" fill="#969697" fill-rule="evenodd"/>
            <path id="Trazado_995155" data-name="Trazado 995155" d="M515.513,256.565l.545.316.415-.241-.545-.315Z" transform="translate(-429.266 -213.441)" fill="#969697" fill-rule="evenodd"/>
            <path id="Trazado_995156" data-name="Trazado 995156" d="M519.3,258.752l.545.316.416-.24-.545-.316Z" transform="translate(-432.419 -215.262)" fill="#969697" fill-rule="evenodd"/>
            <path id="Trazado_995157" data-name="Trazado 995157" d="M523.095,260.94l.545.316.416-.24-.545-.316Z" transform="translate(-435.579 -217.084)" fill="#969697" fill-rule="evenodd"/>
            <path id="Trazado_995158" data-name="Trazado 995158" d="M526.89,263.136l.545.314.415-.24-.545-.315Z" transform="translate(-438.739 -218.912)" fill="#5479bb" fill-rule="evenodd"/>
            <path id="Trazado_995159" data-name="Trazado 995159" d="M530.677,265.324l.545.314.416-.24-.546-.315Z" transform="translate(-441.893 -220.734)" fill="#5479bb" fill-rule="evenodd"/>
            <path id="Trazado_995160" data-name="Trazado 995160" d="M534.464,267.511l.546.314.416-.24-.545-.315Z" transform="translate(-445.046 -222.556)" fill="#5479bb" fill-rule="evenodd"/>
            <path id="Trazado_995161" data-name="Trazado 995161" d="M538.259,269.7l.546.314.415-.24-.545-.315Z" transform="translate(-448.206 -224.378)" fill="#5479bb" fill-rule="evenodd"/>
            <path id="Trazado_995162" data-name="Trazado 995162" d="M506.99,248.351l.545.316.415-.24-.545-.316Z" transform="translate(-422.169 -206.601)" fill="#969697" fill-rule="evenodd"/>
            <path id="Trazado_995163" data-name="Trazado 995163" d="M510.778,250.539l.545.314.416-.24-.546-.315Z" transform="translate(-425.323 -208.423)" fill="#969697" fill-rule="evenodd"/>
            <path id="Trazado_995164" data-name="Trazado 995164" d="M514.565,252.734l.546.314.416-.24-.546-.314Z" transform="translate(-428.477 -210.251)" fill="#969697" fill-rule="evenodd"/>
            <path id="Trazado_995165" data-name="Trazado 995165" d="M518.36,254.916l.546.314.415-.24-.545-.316Z" transform="translate(-431.637 -212.067)" fill="#969697" fill-rule="evenodd"/>
            <path id="Trazado_995166" data-name="Trazado 995166" d="M522.155,257.11l.545.314.415-.24-.545-.315Z" transform="translate(-434.797 -213.894)" fill="#5479bb" fill-rule="evenodd"/>
            <path id="Trazado_995167" data-name="Trazado 995167" d="M525.942,259.3l.545.314.416-.24-.545-.315Z" transform="translate(-437.95 -215.716)" fill="#5479bb" fill-rule="evenodd"/>
            <path id="Trazado_995168" data-name="Trazado 995168" d="M529.737,261.486l.545.316.416-.241-.545-.315Z" transform="translate(-441.11 -217.538)" fill="#5479bb" fill-rule="evenodd"/>
            <path id="Trazado_995169" data-name="Trazado 995169" d="M533.532,263.675l.545.313.415-.239-.545-.316Z" transform="translate(-444.27 -219.36)" fill="#5479bb" fill-rule="evenodd"/>
            <path id="Trazado_995170" data-name="Trazado 995170" d="M537.319,265.861l.545.316.417-.24-.546-.316Z" transform="translate(-447.424 -221.182)" fill="#5479bb" fill-rule="evenodd"/>
            <path id="Trazado_995171" data-name="Trazado 995171" d="M541.266,268.692l.476-.275-.635-.366.416-.241.635.367.158.091.386.223-.354.205-.061.035-.478.276Z" transform="translate(-450.578 -223.004)" fill="#5479bb" fill-rule="evenodd"/>
            <path id="Trazado_995172" data-name="Trazado 995172" d="M510.639,247.171l-.166-.1-.635-.366.416-.24.634.366.166.095.379.22-.415.24Z" transform="translate(-424.54 -205.234)" fill="#969697" fill-rule="evenodd"/>
            <path id="Trazado_995173" data-name="Trazado 995173" d="M517.421,251.085l.545.315.417-.24-.545-.314Z" transform="translate(-430.855 -208.878)" fill="#969697" fill-rule="evenodd"/>
            <path id="Trazado_995174" data-name="Trazado 995174" d="M521.208,253.272l.546.316.416-.24-.546-.316Z" transform="translate(-434.008 -210.699)" fill="#5479bb" fill-rule="evenodd"/>
            <path id="Trazado_995175" data-name="Trazado 995175" d="M525,255.46l.546.316.415-.24-.545-.316Z" transform="translate(-437.168 -212.521)" fill="#5479bb" fill-rule="evenodd"/>
            <path id="Trazado_995176" data-name="Trazado 995176" d="M528.8,257.655l.545.314.417-.24-.546-.314Z" transform="translate(-440.328 -214.349)" fill="#5479bb" fill-rule="evenodd"/>
            <path id="Trazado_995177" data-name="Trazado 995177" d="M532.585,259.843l.545.315.418-.24L533,259.6Z" transform="translate(-443.482 -216.17)" fill="#5479bb" fill-rule="evenodd"/>
            <path id="Trazado_995178" data-name="Trazado 995178" d="M536.38,262.031l.545.314.416-.24-.545-.315Z" transform="translate(-446.642 -217.992)" fill="#969697" fill-rule="evenodd"/>
            <path id="Trazado_995179" data-name="Trazado 995179" d="M540.175,264.219l.545.314.415-.24-.545-.315Z" transform="translate(-449.802 -219.814)" fill="#5479bb" fill-rule="evenodd"/>
            <path id="Trazado_995180" data-name="Trazado 995180" d="M544.507,266.723l-.092-.054-.453-.262.415-.24.454.261.093.054.635.366-.416.24Z" transform="translate(-452.955 -221.637)" fill="#5479bb" fill-rule="evenodd"/>
            <path id="Trazado_995181" data-name="Trazado 995181" d="M512.685,245.058l.545.316.418-.241-.547-.315Z" transform="translate(-426.911 -203.859)" fill="#969697" fill-rule="evenodd"/>
            <path id="Trazado_995182" data-name="Trazado 995182" d="M516.481,247.253l.545.314.416-.24-.545-.315Z" transform="translate(-430.072 -205.687)" fill="#5479bb" fill-rule="evenodd"/>
            <path id="Trazado_995183" data-name="Trazado 995183" d="M520.275,249.434l.545.316.415-.24-.545-.316Z" transform="translate(-433.231 -207.503)" fill="#5479bb" fill-rule="evenodd"/>
            <path id="Trazado_995184" data-name="Trazado 995184" d="M526.874,253.253l-.274-.157-.089-.052-.545-.316-.089-.051-.545-.316-.09-.052L524.7,252l-.634-.366.415-.24.636.366.545.314.089.052.545.315.089.052.546.316.089.05.272.158.274.157-.418.24Z" transform="translate(-436.386 -209.331)" fill="#5479bb" fill-rule="evenodd"/>
            <path id="Trazado_995185" data-name="Trazado 995185" d="M543.022,262.576l.545.314.417-.24-.545-.315Z" transform="translate(-452.173 -218.446)" fill="#5479bb" fill-rule="evenodd"/>
            <path id="Trazado_995186" data-name="Trazado 995186" d="M546.817,264.764l.545.314.415-.24-.545-.315Z" transform="translate(-455.333 -220.268)" fill="#5479bb" fill-rule="evenodd"/>
            <path id="Trazado_995187" data-name="Trazado 995187" d="M550.6,266.952l.545.314.416-.24-.545-.314Z" transform="translate(-458.486 -222.09)" fill="#5479bb" fill-rule="evenodd"/>
            <path id="Trazado_995188" data-name="Trazado 995188" d="M530.835,248.169l2.316,1.337,1.181-.682-2.316-1.337Z" transform="translate(-442.024 -206.082)" fill="#5479bb" fill-rule="evenodd"/>
            <path id="Trazado_995189" data-name="Trazado 995189" d="M472.77,222.6l8.492,4.9,2.65,5.295-8.493-4.9-2.811-5.106Z" transform="translate(-393.539 -185.354)" fill="#5479bb" fill-rule="evenodd"/>
            <path id="Trazado_995190" data-name="Trazado 995190" d="M472.608,223.722l8.493,4.9,2.648,5.3-8.492-4.9Z" transform="translate(-393.539 -186.292)" fill="#6e96ce" fill-rule="evenodd"/>
            <path id="Trazado_995191" data-name="Trazado 995191" d="M558.172,206.733c-.1,0-.168-.094-.223-.252-.222-.646-.264-2.378-1.839-3.367a1.8,1.8,0,0,0-.571-.085,5.605,5.605,0,0,0-1.612.34c-.143.046-.282.091-.419.133a3.7,3.7,0,0,1-1.015.208,1.136,1.136,0,0,1-.2-.018l-.565-.521c-.849-2.388-2.238-2.34-2.238-2.817a.254.254,0,0,1,.009-.065s1.5-.316,1.818-1.155l1.176.233a1.955,1.955,0,0,0,.483.061c1.806,0,3.574-2.516,3.9-5.428l3.267-.444.151.491c.082.835.113,1.781.113,2.743,0,3.287-.368,6.775-.368,6.775a4.529,4.529,0,0,1-1.756,3.138.239.239,0,0,1-.106.029" transform="translate(-457.554 -161.174)" fill="#072b5d" fill-rule="evenodd"/>
            <path id="Trazado_995192" data-name="Trazado 995192" d="M570.374,183.925a4.052,4.052,0,0,1-1.83,2.748c-1.318.964-2.912,1.833-4.746,2.9-.948.532-2.367-1.432-1.924-1.9a33.274,33.274,0,0,1,4.79-3.651l.239-4.636c.255-2.075.239-4.346,2.24-3.821,1.957,1.09,1.6,6.232,1.231,8.359" transform="translate(-467.802 -146.13)" fill="#103e7d" fill-rule="evenodd"/>
            <path id="Trazado_995193" data-name="Trazado 995193" d="M539.564,251.283l-.625.321a2.935,2.935,0,0,1-1.906.623l-.638.425-.48.678c-.345.42-.5.151-.332-.193l.26-.441.542-.648-.2-.129-.461.135-.66.362-.174.191a.319.319,0,0,1-.373.073l-.031-.014-.066.032a.214.214,0,0,1-.281-.084.338.338,0,0,1,0-.343l.3-.481.533-.44-.432.068-.346.248-.229.277c-.247.269-.4.026-.3-.242l.271-.408.719-.535,1.129-.341,2.007-.137.736-.3c.657-.42,1.539.914,1.041,1.3" transform="translate(-444.35 -208.092)" fill="#f4ae92" fill-rule="evenodd"/>
            <path id="Trazado_995194" data-name="Trazado 995194" d="M513.2,231.408l-.132.239.041,1.147-.353.81-.182.5-.185.2-.144-.288-.245-.142.115-.2-.017-.539a.882.882,0,0,0-.919.085l-.047.156-1.318-.761.5-.533,1.219-.984.33-.517c.473-.5,1.565.315,1.335.826" transform="translate(-424.517 -191.876)" fill="#f4ae92" fill-rule="evenodd"/>
            <path id="Trazado_995195" data-name="Trazado 995195" d="M541.06,136.848a2.91,2.91,0,0,1-.856-.529.741.741,0,0,0,.589-.016c-.26-.058-.863-.2-1.02-.552,1.03-.043,1.881-.931,2.79-1.5.774-.485,1.167-.371.505.749.845.4.848,1.678.542,2.409a3.737,3.737,0,0,1-3.041-.569.9.9,0,0,0,.49.01" transform="translate(-449.467 -111.563)" fill="#101e3b" fill-rule="evenodd"/>
            <path id="Trazado_995196" data-name="Trazado 995196" d="M755.616,428.552a5.352,5.352,0,0,1-2-.28c.032.36.059.711.068,1.037.068,2.228.382,2.63-.777,3.517a4.746,4.746,0,0,0-1.63,1.824c-.34.574.357.791.873.67,1.129-.263,2.057-1.512,2.661-1.761s1.432-.562,1.273-1.222c-.172-.711-.353-.685-.5-1.308a8.418,8.418,0,0,1,.034-2.477" transform="translate(-625.512 -356.621)" fill="#f4ae92" fill-rule="evenodd"/>
            <path id="Trazado_995197" data-name="Trazado 995197" d="M754.382,449.541a4.01,4.01,0,0,0-.355.76c-.475.36-1.046.622-1.657,1.148s-1,.855-1.528.571-.6-.481-.6-.481a4.089,4.089,0,0,0-.866.9c-.16.34.557,1.084,1.606.847s1.4-.945,1.946-1.462,1.061-.691,1.559-1.1-.1-1.181-.1-1.181" transform="translate(-623.979 -374.331)" fill="#101e3b" fill-rule="evenodd"/>
            <path id="Trazado_995198" data-name="Trazado 995198" d="M792.38,442.293c-.6.054-1.209-.892-1.9-1.108.032.359.184.707.193,1.033.07,2.228.52,3.452-.638,4.337a4.749,4.749,0,0,0-1.63,1.826c-.34.574.358.789.874.668,1.128-.263,2.057-1.512,2.66-1.759s1.433-.563,1.275-1.223c-.172-.709-.424-.966-.574-1.589a5.525,5.525,0,0,1-.257-2.185" transform="translate(-656.425 -367.373)" fill="#f4ae92" fill-rule="evenodd"/>
            <path id="Trazado_995199" data-name="Trazado 995199" d="M791.512,467.339a4.028,4.028,0,0,0-.355.761c-.475.359-1.048.622-1.659,1.147s-1,.855-1.527.571-.6-.481-.6-.481a4.1,4.1,0,0,0-.867.9c-.16.339.556,1.082,1.606.847s1.4-.946,1.944-1.462,1.061-.692,1.56-1.1-.1-1.182-.1-1.182" transform="translate(-654.897 -389.152)" fill="#101e3b" fill-rule="evenodd"/>
            <path id="Trazado_995200" data-name="Trazado 995200" d="M751.594,328.117s-1.963,4-2.762,6.322c-.672,1.96-1.722,3.344-1.414,4.395a43.576,43.576,0,0,0,1.5,4.312c.96,2.333,1.664,4.521,1.664,4.521a2.253,2.253,0,0,0,1.745-.5,33.315,33.315,0,0,0-.2-5.935,4.669,4.669,0,0,0-1.183-2.709,22.935,22.935,0,0,0,3.1-5.956c3.053-1.643,1.653-4.059,1.53-4.022s-3.975-.428-3.975-.428" transform="translate(-622.327 -273.222)" fill="#103e7d" fill-rule="evenodd"/>
            <path id="Trazado_995201" data-name="Trazado 995201" d="M783.788,349.452c-.253-1.552-.085-4.609-.463-6.169a4.7,4.7,0,0,0-1.519-2.83c1-1.234,1.282-7.091,1.715-9.534a4.352,4.352,0,0,0-1.033-3.852c-.034-.037-4.5,1.547-4.449,1.545l.061-.006a4.155,4.155,0,0,0,.421,4.313c-.178,3.579-.966,5.141-.31,7.438.227.8,3.149,7.5,3.71,9.239.658.369,1.351.522,1.867-.144" transform="translate(-647.577 -272.347)" fill="#103e7d" fill-rule="evenodd"/>
            <path id="Trazado_995202" data-name="Trazado 995202" d="M683.252,309.3a6.126,6.126,0,0,0-2,1.074c-.457.421-.95.966-1.281,1.252s-.256.615.2.431a4.872,4.872,0,0,0,1.006-.629s.45.863,1.031.682,1.01-1.027,1.395-1.356.4-.416.4-.416-.246-1.188-.75-1.037" transform="translate(-566.038 -257.541)" fill="#f4ae92" fill-rule="evenodd"/>
            <path id="Trazado_995203" data-name="Trazado 995203" d="M701.05,278.01a1.282,1.282,0,0,0-.449-.708,52.784,52.784,0,0,1,4.936-1.982c1.065-.781,4.216-4.168,5.326-4.422a1.807,1.807,0,0,1,1.715.76L712,273.942s-3.447,2.111-5.038,3.323c-.838.328-4.941,1.162-5.912,1.357a1.639,1.639,0,0,0,0-.612" transform="translate(-583.388 -225.544)" fill="#103e7d" fill-rule="evenodd"/>
            <path id="Trazado_995204" data-name="Trazado 995204" d="M755.343,273.657a5.162,5.162,0,0,1-.012,3.867c1.186,1.248,2.494,1.529,4.649,1.419a5.871,5.871,0,0,0,3.569-1.1c-.077-.978-.518-2.421-.607-3.653a21.136,21.136,0,0,0-1.054-5.522,6.315,6.315,0,0,0-3.73-3.273c-2.178-.861-2.605-.1-2.605-.1s-1.343,3.194-1.725,4.635a2.57,2.57,0,0,0,.23,2.5c.617.81.6.3,1.284,1.22" transform="translate(-627.542 -220.653)" fill="#005098" fill-rule="evenodd"/>
            <path id="Trazado_995205" data-name="Trazado 995205" d="M769.437,264.761a9.675,9.675,0,0,0-1.744.853c.032.564-.216.827-.5,1.351-.151.274-.1.852-.35,1.427-.219.495-.094.417.294.645.613.362,1.669.02,2.557-1.061-.135-.142.463-.67.353-1-.14-.43-.334-1.2-.606-2.217" transform="translate(-638.455 -220.46)" fill="#f09172" fill-rule="evenodd"/>
            <path id="Trazado_995206" data-name="Trazado 995206" d="M763.564,284.59l-1.941-.482a14.421,14.421,0,0,0-1.024,3.261c-.052,1.026,1.313,3,1.313,3s.332-2.411.625-3.466a11.866,11.866,0,0,1,1.026-2.314" transform="translate(-633.348 -236.576)" fill="#fff" fill-rule="evenodd"/>
            <path id="Trazado_995207" data-name="Trazado 995207" d="M758.2,269.7s-1.027,1.836-1.44,2.839a4.5,4.5,0,0,0,.824.659l-1.19.614a7.775,7.775,0,0,0,.475,2.207,17.085,17.085,0,0,0,1.751,2.751l-.164-.727a5.514,5.514,0,0,1-.847-2.77,16.868,16.868,0,0,1,1.147-3.726,3.708,3.708,0,0,0,.38-1.192Z" transform="translate(-629.842 -224.575)" fill="#103e7d" fill-rule="evenodd"/>
            <path id="Trazado_995208" data-name="Trazado 995208" d="M770.577,265.694s.149.485.3.85a5.877,5.877,0,0,1-.889,1.621,11.259,11.259,0,0,0-1.771,4.073,9.347,9.347,0,0,0,.179,3.182,6.96,6.96,0,0,1,.957-2.235c.3-.431.973-1.777.973-1.777l-.862-1.079,1.378-.371s.922-2.454.506-3.347c-.528-1.136-.77-.917-.77-.917" transform="translate(-639.622 -221.228)" fill="#103e7d" fill-rule="evenodd"/>
            <path id="Trazado_995209" data-name="Trazado 995209" d="M769.83,282.013c-1.271,0-1.445,2.514-1.451,3.328s.568,4.168.568,4.168-1.309,1.03-2.166,1.573-2.192,1.373-2.192,1.373l.516.959a16.13,16.13,0,0,0,3.4-.382c1.128-.356,2.967-1.4,3.2-2.176s.179-3.416.342-5.516c.2-2.61-1.274-3.327-2.219-3.328" transform="translate(-636.671 -234.831)" fill="#103e7d" fill-rule="evenodd"/>
            <path id="Trazado_995210" data-name="Trazado 995210" d="M744.031,320l-.259.146,2,4.7.262-.146Z" transform="translate(-619.336 -266.466)" fill="#e7e7e5" fill-rule="evenodd"/>
            <path id="Trazado_995211" data-name="Trazado 995211" d="M723.141,308.242l.259-.146,3.451,1.992-.259.146Z" transform="translate(-602.157 -256.55)" fill="#fff" fill-rule="evenodd"/>
            <path id="Trazado_995212" data-name="Trazado 995212" d="M723.029,314.744l4.116,2.376-2.386-5.6-4.117-2.376Z" transform="translate(-600.077 -257.422)" fill="#789fd3" fill-rule="evenodd"/>
            <path id="Trazado_995213" data-name="Trazado 995213" d="M745.558,322.3l-.31.175,2.386,5.6.31-.175Z" transform="translate(-620.566 -268.377)" fill="#6e96ce" fill-rule="evenodd"/>
            <path id="Trazado_995214" data-name="Trazado 995214" d="M720.644,308.271l.31-.175,4.116,2.376-.31.175Z" transform="translate(-600.077 -256.551)" fill="#80a8d8" fill-rule="evenodd"/>
            <path id="Trazado_995215" data-name="Trazado 995215" d="M749.22,341.83a12.324,12.324,0,0,1-1.988-.234c.118.589.495.753.179,1.019s-.738.026-1.4-.306c-.613-.308-.578.954.416,1.391a2.274,2.274,0,0,0,2.316-.035,5.378,5.378,0,0,1,.852-.613s.168-.99-.379-1.222" transform="translate(-620.865 -284.446)" fill="#f4ae92" fill-rule="evenodd"/>
            <path id="Trazado_995216" data-name="Trazado 995216" d="M779.007,233.058a2.537,2.537,0,0,1,3.158-.42c1.09.727,1.068,2.464.481,3.671-.516,1.064-1.012,2.717-.142,2.98a2.021,2.021,0,0,0,1.752-.6s-.441,2.307-2.352,1.543c-1.676-.671-2.247-2.423-1.86-4.45a2.371,2.371,0,0,0-1.037-2.721" transform="translate(-648.676 -193.378)" fill="#101e3b" fill-rule="evenodd"/>
            <path id="Trazado_995217" data-name="Trazado 995217" d="M759.9,242.6a3.008,3.008,0,0,1,.867-1.99,2.089,2.089,0,0,1,1.786-.364c1.048.156,1.853,1.757,1.56,3.089-.269,1.231-1.049,2.749-2.458,2.9-1.566.169-1.881-2.591-1.755-3.635" transform="translate(-632.746 -200.014)" fill="#f4ae92" fill-rule="evenodd"/>
            <path id="Trazado_995218" data-name="Trazado 995218" d="M776.224,234.419s.7-1.329,1.686-.842,1.249,2.151.24,2.637-1.926-1.794-1.926-1.794" transform="translate(-646.359 -194.409)" fill="#4385c6" fill-rule="evenodd"/>
            <path id="Trazado_995219" data-name="Trazado 995219" d="M758.068,240.981l-.609-1.036-1.231-1.483s-.262.194-.555,1.139a3.9,3.9,0,0,1-2.634-.724s-.3-1.072,1.12-1.993a2.75,2.75,0,0,1,4.729.252c1.063,2.1-.82,3.845-.82,3.845" transform="translate(-627.031 -196.229)" fill="#101e3b" fill-rule="evenodd"/>
            <path id="Trazado_995220" data-name="Trazado 995220" d="M776.275,255.985s.57-.637.812-.138-.218,1.349-.617,1.257-.2-1.12-.2-1.12" transform="translate(-646.359 -212.884)" fill="#f4ae92" fill-rule="evenodd"/>
            <path id="Trazado_995221" data-name="Trazado 995221" d="M272.308,428.036h-3.62a2.481,2.481,0,0,0,0,4.806h0a1.075,1.075,0,0,0,.918,1.181h1.781a1.074,1.074,0,0,0,.917-1.181h0a2.481,2.481,0,0,0,0-4.806" transform="translate(-222.183 -356.424)" fill="#80a8d8" fill-rule="evenodd"/>
            <path id="Trazado_995222" data-name="Trazado 995222" d="M268.856,410.848c0,1.811-1.14,3.278-2.544,3.278h-4.937c-1.4,0-2.542-1.467-2.542-3.278s1.138-3.278,2.542-3.278h4.937c1.4,0,2.544,1.468,2.544,3.278" transform="translate(-215.528 -339.382)" fill="#8eb6e1" fill-rule="evenodd"/>
            <path id="Trazado_995223" data-name="Trazado 995223" d="M258.507,350.786a7.612,7.612,0,1,1-3.469-6.386,7.567,7.567,0,0,1,3.469,6.386" transform="translate(-202.578 -285.76)" fill="#a0c6e9" fill-rule="evenodd"/>
            <path id="Trazado_995224" data-name="Trazado 995224" d="M264.266,350.786A7.612,7.612,0,1,1,260.8,344.4a7.567,7.567,0,0,1,3.469,6.386" transform="translate(-208.336 -285.76)" fill="#a0c6e9" fill-rule="evenodd"/>
            <path id="Trazado_995225" data-name="Trazado 995225" d="M289.762,363.673a2.921,2.921,0,1,1-2.912-2.687,2.806,2.806,0,0,1,2.912,2.687" transform="translate(-236.435 -300.592)" fill="#fccf00" fill-rule="evenodd"/>
            <path id="Trazado_995226" data-name="Trazado 995226" d="M240.764,264.912a13.29,13.29,0,1,1-6.055-11.15,13.223,13.223,0,0,1,6.055,11.15" transform="translate(-178.344 -209.522)" fill="#a0c6e9" fill-rule="evenodd"/>
            <path id="Trazado_995227" data-name="Trazado 995227" d="M250.816,264.912a13.224,13.224,0,0,1-1.564,6.259,13.249,13.249,0,0,1-9.709,4.216q-.27,0-.54-.015a13.293,13.293,0,0,1-11.188-19.539,13.293,13.293,0,0,1,23,9.079" transform="translate(-188.398 -209.522)" fill="#b7d9f2" fill-rule="evenodd"/>
            <path id="Trazado_995228" data-name="Trazado 995228" d="M311.185,273.421a5.1,5.1,0,1,1-5.083-4.693,4.9,4.9,0,0,1,5.083,4.693" transform="translate(-250.657 -223.769)" fill="#c9e3f6" fill-rule="evenodd"/>
            <path id="Trazado_995229" data-name="Trazado 995229" d="M737.485,188.12l.931,2.5-1.908,1.069-.814-1.559Z" transform="translate(-612.61 -156.646)" fill="#a0c6e9" fill-rule="evenodd"/>
            <path id="Trazado_995230" data-name="Trazado 995230" d="M628.087,32.929l19.144,11.053c.609.35,1.1-.022,1.1-.833V25.474a2.633,2.633,0,0,0-1.1-2.1L628.087,12.317c-.608-.35-1.1.022-1.1.833V30.826a2.641,2.641,0,0,0,1.1,2.1" transform="translate(-522.09 -10.147)" fill="#a0c6e9" fill-rule="evenodd"/>
            <path id="Trazado_995231" data-name="Trazado 995231" d="M709.923,164.506c.124.505,2.234,12.231,2.234,12.231l-1.884,1.11-5.445-14.6Z" transform="translate(-586.907 -135.937)" fill="#a0c6e9" fill-rule="evenodd"/>
            <path id="Trazado_995232" data-name="Trazado 995232" d="M620.361,14.73c-.108-.071-1.408-1.921-1.408-1.921l-2.022,1.242,1.1,1.827Z" transform="translate(-513.716 -10.666)" fill="#a0c6e9" fill-rule="evenodd"/>
            <path id="Trazado_995233" data-name="Trazado 995233" d="M616.827,39.56,635.97,50.615c.607.35,1.1-.022,1.1-.833V32.106a2.639,2.639,0,0,0-1.1-2.1L616.827,18.949c-.61-.352-1.1.022-1.1.832V37.458a2.631,2.631,0,0,0,1.1,2.1" transform="translate(-512.712 -15.669)" fill="#c9e3f6" fill-rule="evenodd"/>
            <path id="Trazado_995234" data-name="Trazado 995234" d="M698.661,171.141c.125.505,2.232,12.231,2.232,12.231l-7.329-13.487Z" transform="translate(-577.528 -141.462)" fill="#c9e3f6" fill-rule="evenodd"/>
            <path id="Trazado_995235" data-name="Trazado 995235" d="M706.348,122.521A3.96,3.96,0,0,0,708,125.683c.915.528,1.655-.031,1.655-1.251A3.958,3.958,0,0,0,708,121.271c-.914-.528-1.655.032-1.655,1.251" transform="translate(-588.173 -100.816)" fill="#fff" fill-rule="evenodd"/>
            <path id="Trazado_995236" data-name="Trazado 995236" d="M669.626,101.316a3.962,3.962,0,0,0,1.655,3.162c.915.527,1.655-.032,1.655-1.252a3.965,3.965,0,0,0-1.655-3.161c-.914-.528-1.655.032-1.655,1.251" transform="translate(-557.595 -83.159)" fill="#fff" fill-rule="evenodd"/>
            <path id="Trazado_995237" data-name="Trazado 995237" d="M632.9,80.112a3.962,3.962,0,0,0,1.655,3.162c.913.528,1.655-.032,1.655-1.251a3.97,3.97,0,0,0-1.655-3.162c-.915-.528-1.655.032-1.655,1.251" transform="translate(-527.018 -65.502)" fill="#fff" fill-rule="evenodd"/>
            <path id="Trazado_995238" data-name="Trazado 995238" d="M492.722,111.866l-3.35,1.933,3.394,5.731,1.789,1.078Z" transform="translate(-407.499 -93.151)" fill="#a0c6e9" fill-rule="evenodd"/>
            <path id="Trazado_995239" data-name="Trazado 995239" d="M503.423,118.308l-3.348,1.934,3.393,5.731Z" transform="translate(-416.411 -98.514)" fill="#c9e3f6" fill-rule="evenodd"/>
            <path id="Trazado_995240" data-name="Trazado 995240" d="M403.629,163.651l-.869,2.321,1.777.995.757-1.45Z" transform="translate(-335.377 -136.272)" fill="#a0c6e9" fill-rule="evenodd"/>
            <path id="Trazado_995241" data-name="Trazado 995241" d="M419.168,19.3,401.36,29.578c-.566.325-1.025-.02-1.025-.775V12.361A2.45,2.45,0,0,1,401.36,10.4L419.168.123c.566-.326,1.025.019,1.025.774V17.339a2.453,2.453,0,0,1-1.025,1.957" transform="translate(-333.357 0)" fill="#a0c6e9" fill-rule="evenodd"/>
            <path id="Trazado_995242" data-name="Trazado 995242" d="M509.3,2.366c.1-.066,1.311-1.788,1.311-1.788l1.879,1.154-1.025,1.7Z" transform="translate(-424.092 -0.481)" fill="#a0c6e9" fill-rule="evenodd"/>
            <path id="Trazado_995243" data-name="Trazado 995243" d="M429.649,25.466,411.84,35.748c-.566.326-1.024-.02-1.024-.774V18.531a2.449,2.449,0,0,1,1.024-1.956L429.649,6.293c.565-.326,1.024.02,1.024.774V23.509a2.453,2.453,0,0,1-1.024,1.957" transform="translate(-342.085 -5.138)" fill="#c9e3f6" fill-rule="evenodd"/>
            <path id="Trazado_995244" data-name="Trazado 995244" d="M429.876,102.633a3.683,3.683,0,0,1-1.541,2.942c-.847.491-1.537-.03-1.537-1.164a3.69,3.69,0,0,1,1.537-2.94c.852-.491,1.541.03,1.541,1.163" transform="translate(-355.393 -84.34)" fill="#fff" fill-rule="evenodd"/>
            <path id="Trazado_995245" data-name="Trazado 995245" d="M464.042,82.907a3.687,3.687,0,0,1-1.54,2.942c-.848.49-1.537-.031-1.537-1.164a3.691,3.691,0,0,1,1.537-2.942c.851-.491,1.54.03,1.54,1.164" transform="translate(-383.844 -67.914)" fill="#fff" fill-rule="evenodd"/>
            <path id="Trazado_995246" data-name="Trazado 995246" d="M498.189,63.186a3.684,3.684,0,0,1-1.538,2.942c-.85.491-1.54-.03-1.54-1.164a3.687,3.687,0,0,1,1.54-2.94c.851-.491,1.538.03,1.538,1.163" transform="translate(-412.277 -51.493)" fill="#fff" fill-rule="evenodd"/>
            <path id="Trazado_995247" data-name="Trazado 995247" d="M215.954,119.167a19.721,19.721,0,0,1,3.956,2.783c-.04.058-.135-.088-.135-.088a3.793,3.793,0,0,0-3.821.374l-3.821-2.7a3.787,3.787,0,0,1,3.821-.372" transform="translate(-176.642 -98.927)" fill="#003f4a" fill-rule="evenodd"/>
            <path id="Trazado_995248" data-name="Trazado 995248" d="M93.74,331.968c-2.558-1.489-5.111-2.968-7.673-4.461-.017-.01-.036-.024-.058-.036l7.67,4.461c.02.011.041.024.06.036" transform="translate(-71.62 -272.684)" fill="#f2970c" fill-rule="evenodd"/>
            <path id="Trazado_995249" data-name="Trazado 995249" d="M124.954,40.127c1.359-.784,2.466-.152,2.469,1.411l.049,17.787a5.382,5.382,0,0,1-2.453,4.253L98.249,79.04l-6.791,12.3a2.573,2.573,0,0,1-.9,1.032.793.793,0,0,1-.894.012L82.189,87.7a1.182,1.182,0,0,1-.538-.358,1.536,1.536,0,0,1-.36-.768c-.014-.088-.024-.154-.031-.22-.014-.148-.018-.217-.019-.284l-.053-17.841a5.417,5.417,0,0,1,2.458-4.249Z" transform="translate(-67.605 -33.134)" fill="#fff" fill-rule="evenodd"/>
            <path id="Trazado_995250" data-name="Trazado 995250" d="M135.157,82.587a4.8,4.8,0,0,1-2.181,3.772l-2.425,1.4-5.427,3.131-8.466,4.89-5.427,3.131-2,1.158L103.2,110.98a2.231,2.231,0,0,1-.8.918.7.7,0,0,1-.792.006l-6.638-4.149a1.066,1.066,0,0,1-.469-.312,1.393,1.393,0,0,1-.322-.688c-.01-.074-.023-.131-.026-.192-.017-.133-.016-.192-.02-.254l-.046-15.825a3.548,3.548,0,0,1,.181-1.105,4.828,4.828,0,0,1,2-2.668l2.1-1.216,8.469-4.885,5.427-3.135,7.807-4.508,5.427-3.138,7.416-4.277c1.2-.695,2.185-.137,2.189,1.252l.025,8.448.014,6.2Z" transform="translate(-78.352 -54.336)" fill="#b7d9f2" fill-rule="evenodd"/>
            <path id="Trazado_995251" data-name="Trazado 995251" d="M100.445,24.927a1.733,1.733,0,0,0-1.752.173L57.385,48.95A5.418,5.418,0,0,0,54.927,53.2l.054,17.836c0,.076,0,.142.019.288.007.066.016.131.031.216a1.606,1.606,0,0,0,.359.772,1.314,1.314,0,0,0,.306.254c.308.18.622.359.934.539l3.5,2.3,7.67,4.461-7.475-4.679L59.9,74.94a1.406,1.406,0,0,1-.113-.11,1.536,1.536,0,0,1-.36-.768c-.014-.088-.024-.154-.031-.22-.014-.148-.018-.217-.019-.284l-.053-17.841a5.416,5.416,0,0,1,2.458-4.249l41.308-23.855a1.748,1.748,0,0,1,1.753-.172c-2.559-1.483-1.836-1.026-4.395-2.513" transform="translate(-45.737 -20.618)" fill="#a0c6e9" fill-rule="evenodd"/>
            <path id="Trazado_995252" data-name="Trazado 995252" d="M117.56,196.528l-5.427,3.131-16.956-9.535a4.828,4.828,0,0,1,2-2.668l2.1-1.216Z" transform="translate(-79.254 -155.081)" fill="#c9e3f6" fill-rule="evenodd"/>
            <path id="Trazado_995253" data-name="Trazado 995253" d="M194.011,148.592l-5.427,3.131L170.3,141.442l5.427-3.135Z" transform="translate(-141.812 -115.167)" fill="#c9e3f6" fill-rule="evenodd"/>
            <path id="Trazado_995254" data-name="Trazado 995254" d="M264.478,104.228l-15.071-8.484,5.427-3.138,9.63,5.422Z" transform="translate(-207.68 -77.112)" fill="#c9e3f6" fill-rule="evenodd"/>
            <path id="Trazado_995255" data-name="Trazado 995255" d="M113.333,213.114l.023-.154.125-.94.048-.364.03-.214.121-.915L111.2,209.19l1.577-1.175.089-.064.031-.025,1.158-.865.016-.011.062-.044.482-.357.616-1.806.26-.757.095-.283.109-.329.245-.7.132-.393.055-.168.174.3.408.7.719,1.255.238.415.285-.114.858-.353.476-.2,1.8-.735-.776,1.323-.21.352-.37.628-.172.3-.15.252-.4.673-.4.67.353,2.094.015.1,0,.022.224,1.357-.538-.014-.094,0-.207,0-2.219-.061-1.006,1.2-.132.151-.223.263-.576.682-.094.113-.3.356-.723.85.158-1.176Z" transform="translate(-92.598 -168.378)" fill="#fff" fill-rule="evenodd"/>
            <path id="Trazado_995256" data-name="Trazado 995256" d="M198.107,162.328l.022-.157.127-.938.049-.361.028-.213.125-.919-2.48-1.338,1.577-1.174.084-.064.032-.024,1.163-.865.016-.012.058-.047.485-.358.618-1.806.254-.755.1-.283.11-.325.244-.7.136-.4.054-.164.174.3.4.7.72,1.255.241.418.287-.114.857-.354.474-.194,1.8-.742-.776,1.325-.207.353-.371.629-.174.3-.15.252-.393.669-.395.674.349,2.094.017.1,0,.019.226,1.359-.537-.012-.1-.008-.2,0-2.22-.059-1.007,1.192-.128.155-.228.265-.576.679-.1.114-.3.355-.721.849.161-1.171Z" transform="translate(-163.19 -126.088)" fill="#fff" fill-rule="evenodd"/>
            <path id="Trazado_995257" data-name="Trazado 995257" d="M284.587,108.908l.018-.155.129-.94.05-.364.024-.211.125-.919-2.478-1.339,1.578-1.174.086-.062.029-.025,1.163-.864.016-.011.062-.046.482-.359.616-1.8.258-.761.1-.277.113-.328.238-.707.136-.395.06-.168.168.3.4.7.725,1.257.24.418.283-.116.852-.358.482-.194,1.8-.736-.779,1.324-.205.35-.37.629-.173.3-.151.25-.394.673-.393.672.349,2.092.014.1,0,.023.229,1.355-.539-.011-.1,0-.2-.006-2.223-.059-1.008,1.19-.127.156-.226.262-.574.683-.1.115-.3.351-.723.851.159-1.17Z" transform="translate(-235.199 -81.604)" fill="#fff" fill-rule="evenodd"/>
            <path id="Trazado_995258" data-name="Trazado 995258" d="M851.746,247.672a1.09,1.09,0,0,0-.437.141l-6.406,3.723a1.1,1.1,0,0,1,.439-.141,1.888,1.888,0,0,1,1.122.294l6.4-3.721a1.875,1.875,0,0,0-1.122-.294" transform="translate(-703.548 -206.23)" fill="#8eb6e1" fill-rule="evenodd"/>
            <path id="Trazado_995259" data-name="Trazado 995259" d="M851.4,220.289a1.548,1.548,0,0,0-1.559-.154l-6.407,3.724a1.542,1.542,0,0,1,1.56.154l6.405-3.724" transform="translate(-702.329 -183.184)" fill="#8eb6e1" fill-rule="evenodd"/>
            <path id="Trazado_995260" data-name="Trazado 995260" d="M853.021,225.656l6.406-3.724-.258-.148-6.405,3.724Z" transform="translate(-710.094 -184.679)" fill="#f4ad87" fill-rule="evenodd"/>
            <path id="Trazado_995261" data-name="Trazado 995261" d="M906.377,301.764a12.78,12.78,0,0,1-5.551-8.251l-6.405,3.723a12.771,12.771,0,0,0,5.551,8.25q3.2-1.86,6.405-3.722" transform="translate(-744.781 -244.407)" fill="#f4ad87" fill-rule="evenodd"/>
            <path id="Trazado_995262" data-name="Trazado 995262" d="M851.319,295.7c-.877-.506-1.637-.35-1.99.3a2.023,2.023,0,0,0-.209.95,4.812,4.812,0,0,0,2.184,3.784l10.96,6.327c.012.009.024.013.036.022-.017-.01-.032-.018-.051-.03a12.767,12.767,0,0,1-5.551-8.25Z" transform="translate(-707.059 -245.982)" fill="#c9e3f6" fill-rule="evenodd"/>
            <path id="Trazado_995263" data-name="Trazado 995263" d="M934.054,342.86c-.017-.01-.033-.02-.052-.03q-3.2,1.863-6.405,3.721c.018.012.034.02.05.03,1.923-1.119,4.484-2.606,6.406-3.722" transform="translate(-772.407 -285.473)" fill="#f4ad87" fill-rule="evenodd"/>
            <path id="Trazado_995264" data-name="Trazado 995264" d="M843.285,270.214a1.888,1.888,0,0,0-1.122-.294c-.644.07-1.076.628-1.078,1.548a4.872,4.872,0,0,0,1.553,3.312c.353-.653,1.113-.809,1.99-.3l5.38,3.106a8.8,8.8,0,0,1-.153-1.63l.005-1.944Z" transform="translate(-700.368 -224.755)" fill="#c9e3f6" fill-rule="evenodd"/>
            <path id="Trazado_995265" data-name="Trazado 995265" d="M851.479,190.921l-6.4,3.722a1.542,1.542,0,0,1,1.558.151l6.406-3.722a1.552,1.552,0,0,0-1.56-.151" transform="translate(-703.691 -158.856)" fill="#8eb6e1" fill-rule="evenodd"/>
            <path id="Trazado_995266" data-name="Trazado 995266" d="M952.1,345.864a.953.953,0,0,1-.05-.288l-6.406,3.724a.928.928,0,0,0,.052.286c1.921-1.117,4.482-2.606,6.4-3.722" transform="translate(-787.436 -287.76)" fill="#f4ad87" fill-rule="evenodd"/>
            <path id="Trazado_995267" data-name="Trazado 995267" d="M841.822,242.546c-1.21-.7-2.2-.138-2.2,1.252a4.839,4.839,0,0,0,1.323,3.083,1.887,1.887,0,0,1,1.122.294l6.575,3.8.007-2.425a5.845,5.845,0,0,1,.291-1.891l-6.862-3.961Z" transform="translate(-699.151 -201.716)" fill="#c9e3f6" fill-rule="evenodd"/>
            <path id="Trazado_995268" data-name="Trazado 995268" d="M863.722,201.673l6.406-3.72-9.337-5.392-6.406,3.722Z" transform="translate(-711.443 -160.344)" fill="#8eb6e1" fill-rule="evenodd"/>
            <path id="Trazado_995269" data-name="Trazado 995269" d="M909.959,233.8l-6.406,3.723a3.008,3.008,0,0,1,1.671-.383,5.353,5.353,0,0,1,2.4.783l6.4-3.724a5.367,5.367,0,0,0-2.4-.781,3.011,3.011,0,0,0-1.668.383" transform="translate(-752.385 -194.364)" fill="#f4ad87" fill-rule="evenodd"/>
            <path id="Trazado_995270" data-name="Trazado 995270" d="M910.753,229.959l6.405-3.723-.557-1.446-6.406,3.72Z" transform="translate(-757.916 -187.182)" fill="#f4ad87" fill-rule="evenodd"/>
            <path id="Trazado_995271" data-name="Trazado 995271" d="M843.438,213.314c-1.21-.7-2.2-.136-2.2,1.254a4.82,4.82,0,0,0,2.185,3.785l6.863,3.96a2.958,2.958,0,0,1,3.048-2.16l-.559-1.449Z" transform="translate(-700.496 -177.376)" fill="#c9e3f6" fill-rule="evenodd"/>
            <path id="Trazado_995272" data-name="Trazado 995272" d="M997.94,380.523q3.2-1.86,6.405-3.72a.4.4,0,0,0,.191-.373l-6.406,3.724a.4.4,0,0,1-.19.37" transform="translate(-830.981 -313.451)" fill="#80a8d8" fill-rule="evenodd"/>
            <path id="Trazado_995273" data-name="Trazado 995273" d="M899.262,256.451a5.353,5.353,0,0,0-2.4-.782,2.958,2.958,0,0,0-3.048,2.16,5.844,5.844,0,0,0-.29,1.891l-.007,2.426,0,1.944a8.793,8.793,0,0,0,.152,1.63,12.77,12.77,0,0,0,5.551,8.25c.018.012.034.021.051.03a4.754,4.754,0,0,0,3.021.718.931.931,0,0,1-.052-.286l.044-15.253a10.612,10.612,0,0,0-3.013-2.728" transform="translate(-744.021 -212.891)" fill="#c9e3f6" fill-rule="evenodd"/>
            <path id="Trazado_995274" data-name="Trazado 995274" d="M945.911,257.811l6.405-3.723v-.066l-6.405,3.723Z" transform="translate(-787.657 -211.523)" fill="#f4ad87" fill-rule="evenodd"/>
            <path id="Trazado_995275" data-name="Trazado 995275" d="M930.912,244.557l6.405-3.723A10.629,10.629,0,0,0,934.3,238.1l-6.4,3.724a10.6,10.6,0,0,1,3.014,2.728" transform="translate(-772.658 -198.269)" fill="#f4ad87" fill-rule="evenodd"/>
            <path id="Trazado_995276" data-name="Trazado 995276" d="M945.646,273.392l6.406-3.724.043-15.251-6.405,3.723Z" transform="translate(-787.436 -211.852)" fill="#f4ad87" fill-rule="evenodd"/>
            <path id="Trazado_995277" data-name="Trazado 995277" d="M952.316,252.177a.407.407,0,0,1,.192-.371L946.1,255.53a.4.4,0,0,0-.192.37c1.923-1.117,4.485-2.605,6.405-3.723" transform="translate(-787.657 -209.678)" fill="#f4ad87" fill-rule="evenodd"/>
            <path id="Trazado_995278" data-name="Trazado 995278" d="M933.066,205.069l6.405-3.723L935.852,191.2l-6.4,3.723Z" transform="translate(-773.948 -159.216)" fill="#8eb6e1" fill-rule="evenodd"/>
            <path id="Trazado_995279" data-name="Trazado 995279" d="M909.032,170.749a1.423,1.423,0,0,1,.61-.187,2.5,2.5,0,0,1,1.414.382,6.177,6.177,0,0,1,2.462,3.068l-6.4,3.723a6.19,6.19,0,0,0-2.465-3.069,2.48,2.48,0,0,0-1.411-.379,1.418,1.418,0,0,0-.611.184Z" transform="translate(-751.614 -142.022)" fill="#8eb6e1" fill-rule="evenodd"/>
            <path id="Trazado_995280" data-name="Trazado 995280" d="M900.531,193.2a2.48,2.48,0,0,0-1.411-.379c-1.366.108-1.842,1.833-1.066,3.849l1.721,5.216.558,1.449a5.351,5.351,0,0,1,2.4.782,10.609,10.609,0,0,1,3.014,2.728v-.066c0-.4.361-.535.863-.369L903,196.267a6.189,6.189,0,0,0-2.465-3.069" transform="translate(-747.496 -160.555)" fill="#c9e3f6" fill-rule="evenodd"/>
            <path id="Trazado_995281" data-name="Trazado 995281" d="M999.074,303.916l6.406-3.724.043-15.317-6.405,3.722Z" transform="translate(-831.926 -237.214)" fill="#80a8d8" fill-rule="evenodd"/>
            <path id="Trazado_995282" data-name="Trazado 995282" d="M945.646,289.411a.928.928,0,0,0,.052.286,2.064,2.064,0,0,0,.357.622,3.171,3.171,0,0,0,.858.74l2.355,1.359,4.047,2.337c.7.4,1.269.325,1.27-.181l.016-5.156.011-3.911.018-6.253a2.411,2.411,0,0,0-1.266-1.647l-.376-.215-3.427-1.979-2.6-1.5a2.137,2.137,0,0,0-.408-.188c-.5-.167-.862-.031-.863.368v.066l-.01,3.436-.011,3.912Z" transform="translate(-787.436 -227.871)" fill="#a0c6e9" fill-rule="evenodd"/>
            <path id="Trazado_995283" data-name="Trazado 995283" d="M953.465,251.471a.844.844,0,0,1,.671,0,2.289,2.289,0,0,1,.409.187l6.4,3.7A2.413,2.413,0,0,1,962.212,257l-6.405,3.722a2.414,2.414,0,0,0-1.266-1.647l-6.4-3.7a2.219,2.219,0,0,0-.408-.186.847.847,0,0,0-.671,0l6.4-3.724" transform="translate(-788.613 -209.343)" fill="#80a8d8" fill-rule="evenodd"/>
            <path id="Trazado_995284" data-name="Trazado 995284" d="M948.085,349.306a3.2,3.2,0,0,0,.86.74L951.3,351.4l5.332-3,.011-3.911Z" transform="translate(-789.467 -286.858)" fill="#8eb6e1" fill-rule="evenodd"/>
            <path id="Trazado_995285" data-name="Trazado 995285" d="M945.79,290.259l7.317-4.115-3.426-1.979-3.88,2.182Z" transform="translate(-787.556 -236.623)" fill="#8eb6e1" fill-rule="evenodd"/>
            <path id="Trazado_995286" data-name="Trazado 995286" d="M962.4,358.362c-.835-.481-1.512-.095-1.515.863a3.313,3.313,0,0,0,1.5,2.61c.833.482,1.512.094,1.515-.864a3.316,3.316,0,0,0-1.5-2.609" transform="translate(-800.123 -298.235)" fill="#fff" fill-rule="evenodd"/>
          </g>
        </g>
      </g>
    </g>
  </g>
</svg>
