<svg xmlns="http://www.w3.org/2000/svg" xmlns:xlink="http://www.w3.org/1999/xlink" width="183.006" height="139.565" viewBox="0 0 183.006 139.565">
  <defs>
    <clipPath id="clip-path">
      <rect id="Rectángulo_454893" data-name="Rectángulo 454893" width="183.006" height="118.103" fill="none"/>
    </clipPath>
  </defs>
  <g id="Grupo_1179123" data-name="Grupo 1179123" transform="translate(-866 -2598.424)">
    <g id="Grupo_1177063" data-name="Grupo 1177063" transform="translate(582.536 -1818)">
      <rect id="Rectángulo_401003" data-name="Rectángulo 401003" width="144.479" height="124.843" rx="29" transform="translate(303.762 4417.924)" fill="none" stroke="#fe8938" stroke-miterlimit="10" stroke-width="3"/>
      <g id="Grupo_1177817" data-name="Grupo 1177817" transform="translate(283.465 4437.887)">
        <path id="Trazado_994812" data-name="Trazado 994812" d="M90.745,114.311l-.431.044-.418.072-.4.1-.382.124-.359.148-.332.175L1.143,166.484l-.547.408-.371.463-.2.5L0,168.379l.145.531.313.521.48.5.644.455,86.4,51,.374.2.4.178.413.153.427.13.437.1.445.08.449.055.449.03.446,0,.441-.02.431-.046.418-.071.4-.1.382-.122.36-.149.331-.174,87.28-51.516.547-.407.371-.463.2-.5.025-.524-.144-.529-.313-.521-.48-.5-.643-.455-86.4-51-.376-.2-.395-.178-.413-.154-.427-.13-.437-.1-.445-.08-.45-.055-.448-.03-.447,0Z" transform="translate(0 -104.215)" fill="#93c6de"/>
        <path id="Trazado_994813" data-name="Trazado 994813" d="M223.968,659v-4.034l-.188.476-.354.44-.521.388-83.095,49.046-.316.166-.342.141-.364.116-.382.093-.4.067-.41.043-.419.02-.425,0-.428-.029-.427-.053-.424-.077-.416-.1-.407-.122-.393-.146-.376-.169-.356-.193L51.265,656.516l-.613-.432-.457-.473-.3-.5-.137-.5v4.035l.137.5.3.5.457.473.613.432L133.526,709.1l.356.193.376.169.393.146.407.122.416.1.424.077.427.053.428.028.425,0,.419-.019.41-.043.4-.067.382-.093.364-.116.342-.142.316-.166L222.9,660.3l.521-.388.354-.441Z" transform="translate(-45.373 -596.899)" fill="#c9e3f6" fill-rule="evenodd"/>
        <path id="Trazado_994814" data-name="Trazado 994814" d="M50.848,120.2l83.1-49.046.316-.166.341-.142.363-.116.383-.092.4-.068.41-.043.419-.019.425,0,.428.029.427.053.422.076.418.1.406.124.394.146.377.169.355.192,82.262,48.554.612.432.457.472.3.5.138.5-.025.5-.188.476-.354.441-.521.388-83.095,49.046-.316.166-.342.142-.364.116-.382.092-.4.067-.41.043-.419.02-.425,0-.428-.029-.427-.053-.424-.077-.416-.1-.407-.122-.393-.146-.376-.169-.356-.193L51.265,123.913l-.613-.432-.457-.473-.3-.5-.137-.5.025-.5.188-.478.354-.44Z" transform="translate(-45.373 -64.296)" fill="#e3f3fc" fill-rule="evenodd"/>
        <g id="Grupo_1177816" data-name="Grupo 1177816" transform="translate(0 -0.001)">
          <g id="Grupo_1177815" data-name="Grupo 1177815" transform="translate(0 0)" clip-path="url(#clip-path)">
            <path id="Trazado_994815" data-name="Trazado 994815" d="M105.892,156.108l0,0-.016-.01-.022-.017-.015-.012-.012-.012-.012-.013-.013-.014-.016-.022-.011-.017,0,0-.006-.011-.005-.011-.011-.023,0-.008-.007-.017,0-.006,0-.013v0a.375.375,0,0,1-.011-.072V155.8a.333.333,0,0,1,.011-.072v0l0-.012,0-.006.007-.017,0-.008.011-.024.005-.01.006-.011,0,0,0-.007,0-.006.006-.008.01-.013,0-.007.007-.007,0,0,.013-.014.019-.018.007-.006.011-.008,0,0,.006,0,.023-.014.346-.205a.348.348,0,0,1,.475.48l.133.079a.348.348,0,1,1-.354.6Zm2.5-1.267a.348.348,0,1,1-.354-.6l.6-.355a.348.348,0,0,1,.354.6Zm2.4-1.416a.348.348,0,0,1-.354-.6l.6-.354a.348.348,0,1,1,.354.6Zm2.4-1.417a.348.348,0,0,1-.354-.6l.6-.354a.348.348,0,1,1,.354.6Zm2.4-1.417a.348.348,0,1,1-.354-.6l.6-.354a.348.348,0,0,1,.354.6Zm2.4-1.417a.348.348,0,1,1-.354-.6l.6-.354a.348.348,0,0,1,.353.6Zm2.4-1.417a.348.348,0,1,1-.354-.6l.6-.355a.348.348,0,0,1,.353.6Zm2.4-1.416a.348.348,0,0,1-.354-.6l.6-.355a.348.348,0,0,1,.354.6Zm2.4-1.417a.348.348,0,0,1-.354-.6l.6-.354a.348.348,0,1,1,.354.6Zm2.4-1.417a.348.348,0,0,1-.354-.6l.6-.354a.348.348,0,0,1,.354.6Zm2.4-1.416a.348.348,0,0,1-.354-.6l.6-.354a.348.348,0,1,1,.353.6Zm2.4-1.416a.348.348,0,0,1-.354-.6l.6-.354a.348.348,0,0,1,.354.6Zm2.4-1.417a.348.348,0,1,1-.354-.6l.6-.353a.348.348,0,1,1,.354.6Zm2.4-1.416a.348.348,0,1,1-.354-.6l.6-.354a.348.348,0,0,1,.354.6Zm2.4-1.416a.348.348,0,0,1-.354-.6l.6-.354a.348.348,0,0,1,.354.6Zm2.4-1.416a.348.348,0,0,1-.354-.6l.6-.354a.348.348,0,1,1,.354.6Zm2.4-1.417a.348.348,0,1,1-.354-.6l.6-.354a.348.348,0,1,1,.354.6Zm2.4-1.416a.348.348,0,1,1-.354-.6l.6-.354a.348.348,0,0,1,.354.6Zm2.4-1.416a.348.348,0,0,1-.354-.6l.6-.354a.348.348,0,0,1,.354.6Zm2.4-1.416a.348.348,0,0,1-.353-.6l.6-.354a.348.348,0,1,1,.354.6Zm2.4-1.417a.348.348,0,1,1-.354-.6l.6-.354a.348.348,0,1,1,.354.6Zm2.4-1.416a.348.348,0,1,1-.354-.6l.6-.354a.348.348,0,0,1,.354.6Zm2.4-1.416a.348.348,0,1,1-.353-.6l.6-.354a.348.348,0,0,1,.354.6Zm2.4-1.416a.348.348,0,0,1-.354-.6l.6-.354a.348.348,0,1,1,.353.6Zm2.4-1.416a.348.348,0,0,1-.354-.6l.6-.354a.348.348,0,0,1,.354.6Zm2.4-1.417a.348.348,0,0,1-.354-.6l.6-.353a.348.348,0,1,1,.354.6Zm2.4-1.416a.348.348,0,1,1-.353-.6l.6-.354a.348.348,0,0,1,.353.6Zm2.4-1.416a.348.348,0,0,1-.354-.6l.6-.354a.348.348,0,0,1,.353.6Zm2.4-1.416a.348.348,0,0,1-.354-.6l.6-.354a.348.348,0,1,1,.354.6Zm2.4-1.416a.348.348,0,0,1-.353-.6l.6-.354a.348.348,0,1,1,.354.6Zm2.4-1.416a.348.348,0,0,1-.354-.6l.6-.354a.348.348,0,1,1,.353.6Zm2.4-1.416a.348.348,0,0,1-.354-.6l.6-.354a.348.348,0,0,1,.354.6Zm2.4-1.416a.348.348,0,0,1-.354-.6l.6-.354a.348.348,0,0,1,.354.6Zm2.4-1.416a.348.348,0,0,1-.354-.6l.6-.354a.348.348,0,0,1,.353.6Zm2.321-1.147a.348.348,0,0,1-.033-.7l.157-.007h.03l.22,0h.019l.226.016h.021l.081.011a.348.348,0,0,1-.085.691l-.074-.008-.207-.014-.2,0Zm.619-.685-.045.695.047-.695Zm1.8,1.431a.348.348,0,0,1,.354-.6l.6.355a.348.348,0,1,1-.355.6Zm2.4,1.417a.348.348,0,1,1,.354-.6l.6.354a.348.348,0,0,1-.354.6Zm2.4,1.417a.348.348,0,1,1,.353-.6l.6.354a.348.348,0,1,1-.353.6Zm2.4,1.417a.348.348,0,0,1,.354-.6l.6.354a.348.348,0,1,1-.353.6Zm2.4,1.416a.348.348,0,0,1,.353-.6l.6.354a.348.348,0,0,1-.353.6Zm2.4,1.417a.348.348,0,0,1,.353-.6l.6.355a.348.348,0,1,1-.353.6Zm2.4,1.417a.348.348,0,0,1,.353-.6l.6.354a.348.348,0,1,1-.353.6Zm2.4,1.417a.348.348,0,0,1,.353-.6l.6.354a.348.348,0,1,1-.353.6Zm2.4,1.417a.348.348,0,1,1,.353-.6l.6.354a.348.348,0,1,1-.353.6Zm2.4,1.417a.348.348,0,1,1,.353-.6l.6.354a.348.348,0,0,1-.354.6Zm2.4,1.416a.348.348,0,1,1,.354-.6l.6.354a.348.348,0,0,1-.354.6Zm2.4,1.416a.349.349,0,0,1,.355-.6l.6.354a.349.349,0,0,1-.355.6Zm2.4,1.417a.348.348,0,0,1,.354-.6l.6.354a.348.348,0,1,1-.354.6Zm2.4,1.416a.348.348,0,0,1,.354-.6l.6.354a.348.348,0,0,1-.353.6Zm2.4,1.416a.348.348,0,0,1,.353-.6l.6.354a.348.348,0,1,1-.353.6Zm2.4,1.416a.348.348,0,1,1,.354-.6l.6.354a.348.348,0,0,1-.354.6Zm2.4,1.416a.348.348,0,1,1,.354-.6l.6.354a.348.348,0,1,1-.355.6Zm2.4,1.417a.349.349,0,0,1,.355-.6l.6.354a.348.348,0,1,1-.354.6Zm2.4,1.416a.348.348,0,0,1,.354-.6l.6.354a.348.348,0,1,1-.354.6Zm2.4,1.416a.348.348,0,0,1,.354-.6l.6.354a.348.348,0,1,1-.353.6Zm2.4,1.416a.348.348,0,1,1,.353-.6l.6.353a.348.348,0,0,1-.353.6Zm2.4,1.417a.348.348,0,1,1,.354-.6l.6.354a.348.348,0,0,1-.354.6Zm2.4,1.416a.348.348,0,1,1,.354-.6l.6.354a.349.349,0,0,1-.355.6Zm2.4,1.416a.349.349,0,0,1,.355-.6l.6.354a.348.348,0,1,1-.354.6Zm2.4,1.416a.348.348,0,0,1,.354-.6l.6.354a.348.348,0,1,1-.354.6Zm2.4,1.416a.348.348,0,1,1,.353-.6l.6.354a.348.348,0,1,1-.353.6Zm2.4,1.417a.348.348,0,1,1,.353-.6l.6.354a.348.348,0,0,1-.354.6Zm2.4,1.416a.348.348,0,1,1,.354-.6l.6.354a.348.348,0,0,1-.354.6Zm2.4,1.416a.349.349,0,0,1,.355-.6l.6.354a.349.349,0,0,1-.355.6Zm2.4,1.416a.348.348,0,0,1,.354-.6l.6.354a.348.348,0,1,1-.354.6Zm2.4,1.416a.348.348,0,0,1,.354-.6l.6.354a.348.348,0,0,1-.353.6Zm2.4,1.416a.348.348,0,1,1,.353-.6l.6.354a.348.348,0,0,1-.353.6Zm2.4,1.416a.348.348,0,1,1,.353-.6l.6.354a.348.348,0,0,1-.354.6Zm2.4,1.416a.348.348,0,1,1,.354-.6l.427.252a.353.353,0,0,1,.122.122.347.347,0,0,1-.122.476l-.173.1a.35.35,0,0,1-.478-.124.344.344,0,0,1-.048-.182Zm-1.547.817a.348.348,0,1,1,.354.6l-.6.355a.348.348,0,0,1-.354-.6Zm-2.4,1.416a.348.348,0,0,1,.353.6l-.6.354a.348.348,0,1,1-.353-.6Zm-2.4,1.417a.348.348,0,0,1,.354.6l-.6.354a.348.348,0,1,1-.354-.6Zm-2.4,1.417a.348.348,0,0,1,.354.6l-.6.354a.348.348,0,1,1-.354-.6Zm-2.4,1.417a.348.348,0,0,1,.354.6l-.6.354a.348.348,0,1,1-.354-.6Zm-2.4,1.417a.348.348,0,0,1,.354.6l-.6.355a.348.348,0,1,1-.354-.6Zm-2.4,1.416a.348.348,0,0,1,.354.6l-.6.354a.348.348,0,1,1-.354-.6Zm-2.4,1.417a.348.348,0,0,1,.354.6l-.6.354a.348.348,0,1,1-.353-.6Zm-2.4,1.417a.348.348,0,0,1,.354.6l-.6.354a.348.348,0,1,1-.353-.6Zm-2.4,1.416a.348.348,0,1,1,.353.6l-.6.354a.348.348,0,1,1-.353-.6Zm-2.4,1.416a.348.348,0,0,1,.354.6l-.6.354a.348.348,0,0,1-.354-.6Zm-2.4,1.417a.348.348,0,1,1,.354.6l-.6.354a.348.348,0,0,1-.354-.6Zm-2.4,1.416a.349.349,0,0,1,.355.6l-.6.354a.349.349,0,0,1-.355-.6Zm-2.4,1.416a.348.348,0,0,1,.354.6l-.6.354a.348.348,0,1,1-.354-.6Zm-2.4,1.416a.348.348,0,0,1,.354.6l-.6.354a.348.348,0,0,1-.353-.6Zm-2.4,1.416a.348.348,0,0,1,.353.6l-.6.354a.348.348,0,0,1-.353-.6Zm-2.4,1.417a.348.348,0,1,1,.354.6l-.6.354a.348.348,0,0,1-.354-.6Zm-2.4,1.416a.348.348,0,1,1,.354.6l-.6.354a.349.349,0,0,1-.355-.6Zm-2.4,1.416a.349.349,0,1,1,.355.6l-.6.354a.348.348,0,1,1-.354-.6Zm-2.4,1.416a.348.348,0,0,1,.354.6l-.6.354a.348.348,0,1,1-.354-.6Zm-2.4,1.416a.348.348,0,0,1,.353.6l-.6.354a.348.348,0,1,1-.353-.6Zm-2.4,1.417a.348.348,0,1,1,.353.6l-.6.354a.348.348,0,0,1-.353-.6Zm-2.4,1.416a.348.348,0,1,1,.354.6l-.6.354a.348.348,0,0,1-.354-.6Zm-2.4,1.416a.349.349,0,0,1,.355.6l-.6.354a.349.349,0,0,1-.355-.6Zm-2.4,1.416a.349.349,0,0,1,.355.6l-.6.354a.348.348,0,1,1-.354-.6Zm-2.4,1.417a.348.348,0,0,1,.354.6l-.6.354a.349.349,0,0,1-.478-.122.352.352,0,0,1,.124-.478Zm-2.4,1.416a.348.348,0,1,1,.353.6l-.6.354a.348.348,0,0,1-.353-.6Zm-2.4,1.416a.348.348,0,1,1,.353.6l-.6.354a.348.348,0,0,1-.354-.6Zm-2.4,1.416a.348.348,0,1,1,.354.6l-.6.354a.348.348,0,0,1-.354-.6Zm-2.4,1.416a.349.349,0,0,1,.355.6l-.6.354a.349.349,0,0,1-.355-.6Zm-2.4,1.416a.348.348,0,0,1,.354.6l-.6.354a.348.348,0,1,1-.354-.6Zm-2.4,1.416a.348.348,0,0,1,.354.6l-.6.354a.348.348,0,1,1-.353-.6Zm-2.4,1.416a.348.348,0,1,1,.353.6l-.6.353a.348.348,0,1,1-.353-.6Zm-2.314,1.231a.349.349,0,0,1,.072.694l-.158.017h-.019l-.2.01h-.03l-.22,0H187.9l-.109-.008a.348.348,0,1,1,.047-.695l.1.007.2,0,.186-.01Zm-2.427-.626a.348.348,0,1,1-.354.6l-.6-.354a.348.348,0,0,1,.354-.6Zm-2.4-1.417a.348.348,0,1,1-.354.6l-.6-.354a.348.348,0,0,1,.354-.6Zm-2.4-1.416a.348.348,0,1,1-.354.6l-.6-.354a.348.348,0,0,1,.354-.6Zm-2.4-1.417a.348.348,0,0,1-.353.6l-.6-.355a.348.348,0,1,1,.354-.6Zm-2.4-1.417a.348.348,0,1,1-.353.6l-.6-.354a.348.348,0,1,1,.354-.6Zm-2.4-1.417a.348.348,0,1,1-.354.6l-.6-.354a.348.348,0,1,1,.354-.6Zm-2.4-1.417a.348.348,0,1,1-.354.6l-.6-.354a.348.348,0,0,1,.354-.6Zm-2.4-1.416a.348.348,0,1,1-.354.6l-.6-.354a.348.348,0,0,1,.354-.6Zm-2.4-1.417a.348.348,0,0,1-.354.6l-.6-.355a.348.348,0,0,1,.354-.6Zm-2.4-1.417a.348.348,0,0,1-.354.6l-.6-.354a.348.348,0,0,1,.353-.6Zm-2.4-1.416a.348.348,0,0,1-.354.6l-.6-.354a.348.348,0,1,1,.354-.6Zm-2.4-1.417a.348.348,0,1,1-.353.6l-.6-.354a.348.348,0,1,1,.354-.6Zm-2.4-1.416a.348.348,0,1,1-.354.6l-.6-.354a.348.348,0,0,1,.354-.6Zm-2.4-1.416a.348.348,0,0,1-.354.6l-.6-.354a.348.348,0,0,1,.354-.6Zm-2.4-1.416a.348.348,0,1,1-.353.6l-.6-.354a.348.348,0,1,1,.354-.6Zm-2.4-1.416a.348.348,0,1,1-.354.6l-.6-.354a.348.348,0,1,1,.354-.6Zm-2.4-1.417a.348.348,0,1,1-.354.6l-.6-.354a.348.348,0,0,1,.354-.6Zm-2.4-1.416a.348.348,0,0,1-.354.6l-.6-.354a.348.348,0,0,1,.354-.6Zm-2.4-1.416a.348.348,0,0,1-.353.6l-.6-.354a.348.348,0,1,1,.354-.6Zm-2.4-1.416a.348.348,0,0,1-.354.6l-.6-.354a.348.348,0,1,1,.353-.6Zm-2.4-1.416a.348.348,0,0,1-.354.6l-.6-.354a.348.348,0,1,1,.354-.6Zm-2.4-1.417a.348.348,0,1,1-.353.6l-.6-.354a.348.348,0,1,1,.354-.6Zm-2.4-1.416a.348.348,0,1,1-.354.6l-.6-.354a.348.348,0,0,1,.353-.6Zm-2.4-1.416a.348.348,0,0,1-.354.6l-.6-.354a.348.348,0,0,1,.354-.6Zm-2.4-1.416a.348.348,0,0,1-.354.6l-.6-.354a.348.348,0,1,1,.354-.6Zm-2.4-1.416a.348.348,0,1,1-.354.6l-.6-.354a.348.348,0,1,1,.353-.6Zm-2.4-1.417a.348.348,0,1,1-.354.6l-.6-.354a.348.348,0,0,1,.354-.6Zm-2.4-1.416a.348.348,0,0,1-.354.6l-.6-.354a.348.348,0,0,1,.354-.6Zm-2.4-1.416a.348.348,0,1,1-.354.6l-.6-.354a.348.348,0,0,1,.354-.6Zm-2.4-1.416a.348.348,0,1,1-.354.6l-.6-.354a.348.348,0,0,1,.354-.6Zm-2.4-1.416a.348.348,0,1,1-.354.6l-.6-.354a.348.348,0,0,1,.354-.6Zm-2.4-1.416a.348.348,0,1,1-.354.6l-.6-.354a.348.348,0,0,1,.354-.6Zm-2.4-1.415a.348.348,0,1,1-.354.6l-.6-.354a.348.348,0,0,1,.354-.6Z" transform="translate(-96.4 -98.168)" fill="#fff" fill-rule="evenodd"/>
            <path id="Trazado_994816" data-name="Trazado 994816" d="M1123.9,659.932l-83.095,49.046-.316.166-.342.141-.364.116-.382.092-.4.067-.41.043-.419.021-.3,0v4.035l.3,0,.419-.019.41-.043.4-.067.382-.093.364-.116.342-.142.316-.166,83.095-49.046.521-.388.354-.44.188-.478v-4.034l-.188.476-.354.441Z" transform="translate(-946.369 -600.56)" fill="#b7d9f2" fill-rule="evenodd"/>
            <path id="Trazado_994817" data-name="Trazado 994817" d="M1200.084,885.632a7.671,7.671,0,0,1-2.5-.364c-3.276-1.141-2.3-4.62,2.18-7.777a22.042,22.042,0,0,1,11.55-4,7.737,7.737,0,0,1,2.506.366c3.275,1.135,2.3,4.616-2.184,7.773a22.033,22.033,0,0,1-11.55,4.006" transform="translate(-1090.232 -796.477)" fill="#c9e3f6" fill-rule="evenodd"/>
            <path id="Trazado_994818" data-name="Trazado 994818" d="M1435.978,673.283a11.334,11.334,0,0,1-5.542-1.326c-3.058-1.765-3.058-4.63,0-6.4a12.259,12.259,0,0,1,11.082,0c3.057,1.768,3.06,4.633,0,6.4a11.328,11.328,0,0,1-5.54,1.326" transform="translate(-1302.231 -605.673)" fill="#c9e3f6" fill-rule="evenodd"/>
            <path id="Trazado_994819" data-name="Trazado 994819" d="M878.731,439.122a11.33,11.33,0,0,1-5.541-1.326c-3.059-1.764-3.059-4.629,0-6.4a12.257,12.257,0,0,1,11.081,0c3.058,1.769,3.062,4.634,0,6.4a11.32,11.32,0,0,1-5.54,1.326" transform="translate(-794.114 -392.157)" fill="#c9e3f6" fill-rule="evenodd"/>
            <path id="Trazado_994820" data-name="Trazado 994820" d="M1475.978,448.241c-.618,1.727-.848,5.519.065,11.54.115.761,1.519.534,2.417-.3.117-1.091,1.825-8.3,1.013-8.832s-2.5-4.294-3.495-2.412" transform="translate(-1345.354 -408.245)" fill="#f4ae92" fill-rule="evenodd"/>
            <path id="Trazado_994821" data-name="Trazado 994821" d="M1491.646,461.563a4.845,4.845,0,0,0,1.644,3.094c.062,3.462,1.584,7.44,1.929,8.8a1.386,1.386,0,0,0,2.416-.084c-1.241-4.065,2.684-8.906-.574-13.338-.847-.474-4.817-.514-5.415,1.527" transform="translate(-1360.136 -419.233)" fill="#f4ae92" fill-rule="evenodd"/>
            <path id="Trazado_994822" data-name="Trazado 994822" d="M1518.692,718.848c.053.361-.94.743-1.243.994-.963.8-2.508,1.39-3.407.612-.1-.088-.1-.278.144-.513.88-.174,4.011-3.255,4.507-1.093" transform="translate(-1380.5 -654.773)" fill="#101e3b" fill-rule="evenodd"/>
            <path id="Trazado_994823" data-name="Trazado 994823" d="M1518.549,702.944c.042.52.462,1.051.258,1.571-.154.389-.654.454-1.107.775-.4.284-.622.533-.809.667-.3.211-1.943.915-2.634.152-.3-.324,1.217-1.014,1.539-1.29.814-.7,1.345-1.306,1.255-1.663.4-1.068,1.491-.269,1.5-.212" transform="translate(-1380.719 -640.66)" fill="#101e3b" fill-rule="evenodd"/>
            <path id="Trazado_994824" data-name="Trazado 994824" d="M1533.333,605.708a8.585,8.585,0,0,1,.7,2.72c.048,1.467-.358,3.815-.37,5.625-.071.82-1.315.65-1.406.1-.149-1.659-1.09-6.69-1.458-8.789-.019-.258.239-.294.486-.372,1.263-.012,1.359-.457,2.05.719" transform="translate(-1395.835 -551.567)" fill="#f4ae92" fill-rule="evenodd"/>
            <path id="Trazado_994825" data-name="Trazado 994825" d="M1464.676,681.912c.053.36-1.042.724-1.343.977-1.014.855-2.409,1.405-3.306.629-.1-.088-.1-.28.143-.512.88-.174,4.011-3.256,4.507-1.093" transform="translate(-1331.246 -621.093)" fill="#101e3b" fill-rule="evenodd"/>
            <path id="Trazado_994826" data-name="Trazado 994826" d="M1464.444,667.207c.011.4.541.995.344,1.377s-.96.588-1.414.91a7.425,7.425,0,0,0-.665.629c-.3.213-1.779.819-2.47.058-.3-.325,1.2-1.03,1.539-1.291.938-.731,1.5-1.129,1.4-1.609.4-1.069,1.253-.13,1.261-.072" transform="translate(-1331.464 -607.985)" fill="#101e3b" fill-rule="evenodd"/>
            <path id="Trazado_994827" data-name="Trazado 994827" d="M1484.863,573.549a2.807,2.807,0,0,0,.014,1.427c.983,3.147-.2,4.938-.185,7.435.006.732-1.321.677-1.319,0a66.865,66.865,0,0,0-1.039-7.9Z" transform="translate(-1351.645 -522.982)" fill="#f4ae92" fill-rule="evenodd"/>
            <path id="Trazado_994828" data-name="Trazado 994828" d="M1482.922,440.33c.917,2.1.4,5.081.6,7.622-3.191,2.107-7.228-1.265-8.19-3.184a20.832,20.832,0,0,1,.8-7.807q3.4,1.683,6.789,3.369" transform="translate(-1345.203 -398.437)" fill="#2561ad" fill-rule="evenodd"/>
            <path id="Trazado_994829" data-name="Trazado 994829" d="M1544.631,255.374c.9,1.222-1.885,2.076-.881,4.552.178.436,1.055.793,1.336.613.2-1.731,1.48-6.063.049-6.257-1.1-3.4-1.683-.5-.5,1.092" transform="translate(-1407.445 -230.421)" fill="#101e3b" fill-rule="evenodd"/>
            <path id="Trazado_994830" data-name="Trazado 994830" d="M1408.766,379.612c-1.183-.136-4.515.947-6.033.942-.928-.054-.329,1.3.083,1.05a44.014,44.014,0,0,0,5.278.152c2.3-.092,2.525-1.933.672-2.145" transform="translate(-1278.615 -346.133)" fill="#2561ad" fill-rule="evenodd"/>
            <path id="Trazado_994831" data-name="Trazado 994831" d="M1472.341,315.921a21.773,21.773,0,0,1-1.942,3.293c-.407,1.428,1.169,1.471,1.392,1.321a8.121,8.121,0,0,0,3.131-5.159c.693-1.6-.268-1.654-1-1.921-1.007.073-.885.863-1.578,2.466" transform="translate(-1340.702 -285.819)" fill="#2561ad" fill-rule="evenodd"/>
            <path id="Trazado_994832" data-name="Trazado 994832" d="M1488.874,321.482a6.028,6.028,0,0,0-2.577-2.476,6.552,6.552,0,0,0-2.9-.33c-.524.194-1.426,3.638-2.091,4.344a2.67,2.67,0,0,0,.413,2.121c.882,1.1-.4,4.178-.718,5.41-.76,2.893,6.15,5.048,7.124,2.265-.319-1.925-1.439-3.471-1.008-5.662.271-1.378,1.993-4.942,1.761-5.672" transform="translate(-1350.373 -290.556)" fill="#005098" fill-rule="evenodd"/>
            <path id="Trazado_994833" data-name="Trazado 994833" d="M1518.447,298.4a7.662,7.662,0,0,0,.126,2.371c.558.683,2.524-.046,2.154-1.38-.226-.8.034-1.9-.119-2.057-.505-.514-1.725.338-2.161,1.066" transform="translate(-1384.535 -270.979)" fill="#f09172" fill-rule="evenodd"/>
            <path id="Trazado_994834" data-name="Trazado 994834" d="M1502.462,247.309a2.481,2.481,0,0,0-2.357,2.619c-.051.576.24.65.053,1.642-.1.526.363,1.157.533,1.655.1.3.094.381.427.43a2.1,2.1,0,0,0,.894-.1,3.646,3.646,0,0,0,1.547-.694,3.142,3.142,0,0,0,.629-1.624c.979-2.53.293-4.064-1.726-3.929" transform="translate(-1367.844 -225.497)" fill="#f4ae92" fill-rule="evenodd"/>
            <path id="Trazado_994835" data-name="Trazado 994835" d="M1503.459,243.913a2.394,2.394,0,0,1,2.093,1.255,3.006,3.006,0,0,1-1.262,3.9c-.1.126,0-1.1-.048-.946-.114-.6-.473-.748-.737-1.214-.773-1.373-2.24-1.673-3.017-.636-.317-1.441,1.787-2.433,2.971-2.363" transform="translate(-1368.169 -222.406)" fill="#101e3b" fill-rule="evenodd"/>
            <path id="Trazado_994836" data-name="Trazado 994836" d="M1541.578,282.36s.3-.814.6-.424c.324.43-.271,2.035-.506,1.72a1.562,1.562,0,0,1-.09-1.3" transform="translate(-1405.576 -256.983)" fill="#f4ae92" fill-rule="evenodd"/>
            <path id="Trazado_994837" data-name="Trazado 994837" d="M1521.56,342.353a23.513,23.513,0,0,0-1.745,5.3c-.154.493.2.5.377.8s.264.617.406.7c.224.125.541-.1.862-.491.446-.445,3.854-5.832,2.638-7.1-.544-.569-1.38-1.107-2.537.8" transform="translate(-1385.788 -310.958)" fill="#2561ad" fill-rule="evenodd"/>
            <path id="Trazado_994838" data-name="Trazado 994838" d="M1385.028,387.351a1.137,1.137,0,0,0-.659-.364,5.466,5.466,0,0,0-1.581.389c-.2.056.357,1.235.562,1.326a3.22,3.22,0,0,0,1.431-.22c.25-.155.239-.239.269-.306.061-.143.226-.616-.022-.826" transform="translate(-1260.837 -352.869)" fill="#f09172" fill-rule="evenodd"/>
            <path id="Trazado_994839" data-name="Trazado 994839" d="M1379.349,403.395l-.7.414c-.179.1-.036.3.152.216l.727-.331c.182-.083.012-.408-.175-.3" transform="translate(-1257.023 -367.809)" fill="#f09172" fill-rule="evenodd"/>
            <path id="Trazado_994840" data-name="Trazado 994840" d="M1376,399.908h0a.185.185,0,0,0-.247-.085l-.865.422c-.22.107-.1.353.13.264l.9-.354a.181.181,0,0,0,.085-.247" transform="translate(-1253.565 -364.556)" fill="#f09172" fill-rule="evenodd"/>
            <path id="Trazado_994841" data-name="Trazado 994841" d="M1373.734,396.167h0a.193.193,0,0,0-.263-.077l-.924.515c-.233.128-.1.395.139.278l.947-.462a.193.193,0,0,0,.1-.254" transform="translate(-1251.427 -361.147)" fill="#f09172" fill-rule="evenodd"/>
            <path id="Trazado_994842" data-name="Trazado 994842" d="M1372.745,391.359l-.847.474c-.214.119-.074.388.144.281l.867-.422c.223-.11.043-.448-.163-.332" transform="translate(-1250.849 -356.834)" fill="#f09172" fill-rule="evenodd"/>
            <path id="Trazado_994843" data-name="Trazado 994843" d="M1459.958,415.4c-1.155.29-3.892,2.475-5.315,3-.888.277.15,1.336.446.955a44.371,44.371,0,0,0,4.994-1.715c2.121-.9,1.685-2.7-.125-2.244" transform="translate(-1326.075 -378.713)" fill="#2561ad" fill-rule="evenodd"/>
            <path id="Trazado_994844" data-name="Trazado 994844" d="M1437.02,448.769c-.3,0-.5-.109-.708-.036a5.474,5.474,0,0,0-1.344.916c-.17.124.766,1.033.989,1.048a3.21,3.21,0,0,0,1.263-.707c.18-.233.189-.31.3-.392.058-.042.6-.828-.5-.828" transform="translate(-1308.436 -409.148)" fill="#f4ae92" fill-rule="evenodd"/>
            <path id="Trazado_994845" data-name="Trazado 994845" d="M1437.669,468.777l-.515.634c-.131.162.071.3.219.149l.565-.564c.142-.142-.132-.385-.269-.218" transform="translate(-1310.41 -427.396)" fill="#f4ae92" fill-rule="evenodd"/>
            <path id="Trazado_994846" data-name="Trazado 994846" d="M1433.428,465.937h0a.186.186,0,0,0-.262.007l-.664.7c-.168.178.035.366.215.2l.717-.646a.181.181,0,0,0-.006-.262" transform="translate(-1306.15 -424.812)" fill="#f4ae92" fill-rule="evenodd"/>
            <path id="Trazado_994847" data-name="Trazado 994847" d="M1430.409,462.939h0a.2.2,0,0,0-.274.019l-.685.806c-.173.2.044.407.229.212l.725-.763a.2.2,0,0,0,.005-.275" transform="translate(-1303.366 -422.082)" fill="#f4ae92" fill-rule="evenodd"/>
            <path id="Trazado_994848" data-name="Trazado 994848" d="M1427.6,459.164l-.629.74c-.157.186.065.39.233.212l.665-.7c.172-.181-.115-.435-.269-.254" transform="translate(-1301.118 -418.626)" fill="#f4ae92" fill-rule="evenodd"/>
            <path id="Trazado_994849" data-name="Trazado 994849" d="M1437.38,448.847a.846.846,0,0,0-.634-.191,6.95,6.95,0,0,0-.694.082c-.291.037-.252.084-.545.122.012.168.086.384.6.272.109.028.135.11.509-.011.527.552.982-.046.767-.275" transform="translate(-1308.948 -409.099)" fill="#f4ae92" fill-rule="evenodd"/>
            <path id="Trazado_994850" data-name="Trazado 994850" d="M1383.787,386.9a.85.85,0,0,0-.653.114c-.24.132-.488.319-.583.383-.244.163-.189.19-.432.353.084.144.247.306.655-.023.11-.024.169.037.449-.238.718.259.857-.48.564-.589" transform="translate(-1260.266 -352.76)" fill="#f4ae92" fill-rule="evenodd"/>
            <path id="Trazado_994851" data-name="Trazado 994851" d="M835.842,903.554l16.226-9.416V890.8l-16.226,9.416Z" transform="translate(-762.151 -812.266)" fill="#80a8d8" fill-rule="evenodd"/>
            <path id="Trazado_994852" data-name="Trazado 994852" d="M700.839,919.283l-13.053-7.573v3.335l13.053,7.573Z" transform="translate(-627.147 -831.33)" fill="#80a8d8" fill-rule="evenodd"/>
            <path id="Trazado_994853" data-name="Trazado 994853" d="M712.911,810.747l-15.338,8.837,2.457,1.426,12.88-7.422,9.685,5.631,2.455-1.414Z" transform="translate(-636.072 -739.268)" fill="#80a8d8" fill-rule="evenodd"/>
            <path id="Trazado_994854" data-name="Trazado 994854" d="M711.825,835.332l10.889,6.317,14.077-8.1-10.885-6.328Z" transform="translate(-649.068 -754.287)" fill="#6e96ce" fill-rule="evenodd"/>
            <path id="Trazado_994855" data-name="Trazado 994855" d="M700.794,821.182l-9.689-5.621-2.457-1.426,15.338-8.836,12.14,7.058-2.455,1.414Zm3.224-16.411L687.785,814.2l13.053,7.573,16.226-9.416Z" transform="translate(-627.147 -733.819)" fill="#a0c6e9" fill-rule="evenodd"/>
            <path id="Trazado_994856" data-name="Trazado 994856" d="M743.863,916.719c0,.43-.617.777-1.379.777s-1.378-.347-1.378-.775.617-.777,1.378-.777,1.379.347,1.379.775" transform="translate(-675.767 -835.19)" fill="#789fd3" fill-rule="evenodd"/>
            <path id="Trazado_994857" data-name="Trazado 994857" d="M791.125,938.078c0,.43-.617.776-1.378.776s-1.379-.347-1.379-.776.617-.775,1.379-.775,1.378.347,1.378.775" transform="translate(-718.862 -854.666)" fill="#789fd3" fill-rule="evenodd"/>
            <path id="Trazado_994858" data-name="Trazado 994858" d="M776.466,898.928c0,.43-.617.776-1.379.776s-1.379-.347-1.379-.776.617-.775,1.379-.775,1.379.347,1.379.775" transform="translate(-705.495 -818.968)" fill="#789fd3" fill-rule="evenodd"/>
            <path id="Trazado_994859" data-name="Trazado 994859" d="M857.6,944.626c0,.428-.617.776-1.379.776s-1.379-.348-1.379-.776.617-.776,1.379-.776,1.379.348,1.379.776" transform="translate(-779.472 -860.636)" fill="#789fd3" fill-rule="evenodd"/>
            <path id="Trazado_994860" data-name="Trazado 994860" d="M844.916,853.339c0,.43-.617.777-1.378.777s-1.38-.347-1.38-.777.617-.775,1.38-.775,1.378.347,1.378.775" transform="translate(-767.91 -777.398)" fill="#789fd3" fill-rule="evenodd"/>
            <path id="Trazado_994861" data-name="Trazado 994861" d="M896.847,918.993c0,.43-.618.775-1.38.775s-1.379-.346-1.379-.775.617-.775,1.379-.775,1.38.347,1.38.775" transform="translate(-815.262 -837.264)" fill="#789fd3" fill-rule="evenodd"/>
            <path id="Trazado_994862" data-name="Trazado 994862" d="M896.847,871.948c0,.428-.618.775-1.38.775s-1.379-.347-1.379-.775.617-.777,1.379-.777,1.38.348,1.38.777" transform="translate(-815.262 -794.366)" fill="#789fd3" fill-rule="evenodd"/>
            <path id="Trazado_994863" data-name="Trazado 994863" d="M935.643,897.078c0,.427-.617.775-1.379.775s-1.378-.348-1.378-.775.617-.777,1.378-.777,1.379.347,1.379.777" transform="translate(-850.639 -817.279)" fill="#789fd3" fill-rule="evenodd"/>
            <path id="Trazado_994864" data-name="Trazado 994864" d="M817.848,962.24c0,.428-.617.776-1.38.776s-1.378-.348-1.378-.776.617-.775,1.378-.775,1.38.347,1.38.775" transform="translate(-743.228 -876.698)" fill="#789fd3" fill-rule="evenodd"/>
            <path id="Trazado_994865" data-name="Trazado 994865" d="M779.52,928.462c0,.139-.2.253-.449.253s-.449-.114-.449-.253.2-.253.449-.253.449.113.449.253" transform="translate(-709.975 -846.374)" fill="#789fd3" fill-rule="evenodd"/>
            <path id="Trazado_994866" data-name="Trazado 994866" d="M799.713,920.792c0,.188-.272.342-.609.342s-.608-.154-.608-.342.272-.342.608-.342.609.152.609.342" transform="translate(-728.097 -839.299)" fill="#789fd3" fill-rule="evenodd"/>
            <path id="Trazado_994867" data-name="Trazado 994867" d="M845.214,935.332c0,.187-.272.341-.609.341s-.609-.152-.609-.341.273-.343.609-.343.609.152.609.343" transform="translate(-769.586 -852.556)" fill="#789fd3" fill-rule="evenodd"/>
            <path id="Trazado_994868" data-name="Trazado 994868" d="M882.3,901.558c0,.188-.272.342-.608.342s-.608-.154-.608-.342.272-.343.608-.343.608.154.608.343" transform="translate(-803.403 -821.76)" fill="#789fd3" fill-rule="evenodd"/>
            <path id="Trazado_994869" data-name="Trazado 994869" d="M881.92,884.072c0,.139-.2.252-.449.252s-.449-.113-.449-.252.2-.252.449-.252.449.113.449.252" transform="translate(-803.347 -805.899)" fill="#789fd3" fill-rule="evenodd"/>
            <path id="Trazado_994870" data-name="Trazado 994870" d="M810.89,898.61c0,.141-.2.253-.448.253s-.449-.113-.449-.253.2-.252.449-.252.448.113.448.252" transform="translate(-738.58 -819.155)" fill="#789fd3" fill-rule="evenodd"/>
            <path id="Trazado_994871" data-name="Trazado 994871" d="M850.645,915.706c0,.139-.2.253-.449.253s-.449-.114-.449-.253.2-.252.449-.252.449.112.449.252" transform="translate(-774.83 -834.744)" fill="#789fd3" fill-rule="evenodd"/>
            <path id="Trazado_994872" data-name="Trazado 994872" d="M883.784,936.263c0,.138-.2.252-.449.252s-.449-.114-.449-.252.2-.253.449-.253.449.113.449.253" transform="translate(-805.047 -853.487)" fill="#789fd3" fill-rule="evenodd"/>
            <path id="Trazado_994873" data-name="Trazado 994873" d="M844,734.042a31.326,31.326,0,0,1,.938,5.545,15.246,15.246,0,0,1-.15,5,.288.288,0,0,0,.314.236c.4,0,.351-.236.351-.236a19.144,19.144,0,0,0-.117-5.778c-.41-2.037-1.1-5.254-1.1-5.254Z" transform="translate(-769.586 -668.878)" fill="#8eb6e1" fill-rule="evenodd"/>
            <path id="Trazado_994874" data-name="Trazado 994874" d="M812.456,700.819c-.092-.425-.5-.432-.906-.343.518-.646.814-1.53-.112-1.995-.988-.5-1.553.626-1.766,1.546-.254-.344-1.51-1.642-1.967-1.094-.425.509.473,1.393,1.075,1.867-.649.008-1.564.158-1.683.708-.147.677,1.1.525,1.672.45-.181.5-.37,1.3.118,1.557.51.271.968-.366,1.233-.854.166.456.776,1.163,1.088,1.015.688-.325.483-1.168.173-1.716.5-.181,1.2-.574,1.075-1.14" transform="translate(-735.929 -636.789)" fill="#c9e3f6" fill-rule="evenodd"/>
            <path id="Trazado_994875" data-name="Trazado 994875" d="M837.779,725.632c-.317-.142-.649.276-.6.506a.416.416,0,0,0,.654.264.492.492,0,0,0-.05-.771" transform="translate(-763.362 -661.631)" fill="#fff" fill-rule="evenodd"/>
            <path id="Trazado_994876" data-name="Trazado 994876" d="M858.615,748.564a13.216,13.216,0,0,1,.574-5.459c.927-2.176,1.542-3.987,1.542-3.987s-.246,1.948-.55,3.495a34.754,34.754,0,0,1-1.566,5.951" transform="translate(-782.855 -673.954)" fill="#a0c6e9" fill-rule="evenodd"/>
            <path id="Trazado_994877" data-name="Trazado 994877" d="M786.148,781.4a31.422,31.422,0,0,0-.938,5.545,15.29,15.29,0,0,0,.15,5,.288.288,0,0,1-.314.238c-.4,0-.352-.238-.352-.238a19.148,19.148,0,0,1,.118-5.776c.409-2.038,1.1-5.255,1.1-5.255Z" transform="translate(-715.359 -712.061)" fill="#8eb6e1" fill-rule="evenodd"/>
            <path id="Trazado_994878" data-name="Trazado 994878" d="M778.761,748.176c.093-.424.5-.432.9-.343-.518-.646-.814-1.53.113-1.995.988-.5,1.552.626,1.766,1.547.254-.344,1.511-1.642,1.967-1.1.425.51-.474,1.393-1.076,1.869.649.007,1.565.157,1.684.708.148.676-1.1.524-1.673.449.182.5.37,1.3-.117,1.558-.51.27-.967-.367-1.233-.856-.166.456-.775,1.164-1.088,1.015-.688-.324-.483-1.168-.174-1.716-.5-.181-1.2-.574-1.075-1.14" transform="translate(-710.089 -679.971)" fill="#b7d9f2" fill-rule="evenodd"/>
            <path id="Trazado_994879" data-name="Trazado 994879" d="M800.654,773c.318-.143.65.276.606.506a.415.415,0,0,1-.655.263.491.491,0,0,1,.049-.769" transform="translate(-729.872 -704.822)" fill="#fff" fill-rule="evenodd"/>
            <path id="Trazado_994880" data-name="Trazado 994880" d="M765.73,795.934a13.232,13.232,0,0,0-.573-5.459c-.928-2.176-1.543-3.986-1.543-3.986s.246,1.947.55,3.494a34.815,34.815,0,0,0,1.566,5.952" transform="translate(-696.291 -717.149)" fill="#8eb6e1" fill-rule="evenodd"/>
            <path id="Trazado_994881" data-name="Trazado 994881" d="M715.821,814.137a11.21,11.21,0,0,0,1.077,3.938c.939,1.788,2.381,3.679,2.451,4.245s.479-.455.342-.863-1.693-2.6-2.312-3.678a34.152,34.152,0,0,1-1.558-3.641" transform="translate(-652.711 -742.359)" fill="#8eb6e1" fill-rule="evenodd"/>
            <path id="Trazado_994882" data-name="Trazado 994882" d="M744.42,799.695a31.408,31.408,0,0,1,.937,5.545,15.269,15.269,0,0,1-.15,5,.289.289,0,0,0,.315.236c.4,0,.352-.236.352-.236a19.191,19.191,0,0,0-.117-5.778c-.411-2.036-1.1-5.254-1.1-5.254Z" transform="translate(-678.789 -728.743)" fill="#8eb6e1" fill-rule="evenodd"/>
            <path id="Trazado_994883" data-name="Trazado 994883" d="M712.874,766.464c-.092-.425-.5-.433-.906-.344.519-.645.814-1.529-.112-1.995-.988-.495-1.553.626-1.767,1.547-.254-.344-1.511-1.642-1.966-1.094-.426.509.472,1.393,1.075,1.867-.649.008-1.564.158-1.683.708-.147.677,1.1.525,1.672.45-.181.5-.37,1.3.117,1.557.51.27.967-.366,1.233-.856.166.456.775,1.164,1.088,1.017.688-.325.482-1.168.175-1.716.5-.182,1.2-.574,1.074-1.14" transform="translate(-645.126 -696.646)" fill="#b7d9f2" fill-rule="evenodd"/>
            <path id="Trazado_994884" data-name="Trazado 994884" d="M738.2,791.281c-.317-.143-.65.276-.6.506a.416.416,0,0,0,.654.264.492.492,0,0,0-.049-.771" transform="translate(-672.559 -721.492)" fill="#fff" fill-rule="evenodd"/>
            <path id="Trazado_994885" data-name="Trazado 994885" d="M759.03,814.216a13.233,13.233,0,0,1,.574-5.459c.928-2.176,1.542-3.986,1.542-3.986s-.245,1.948-.551,3.495a34.616,34.616,0,0,1-1.566,5.95" transform="translate(-692.051 -733.819)" fill="#a0c6e9" fill-rule="evenodd"/>
            <path id="Trazado_994886" data-name="Trazado 994886" d="M895.186,753.372a31.408,31.408,0,0,1,.937,5.544,15.269,15.269,0,0,1-.15,5,.289.289,0,0,0,.314.238c.4,0,.351-.238.351-.238a19.138,19.138,0,0,0-.117-5.776c-.41-2.038-1.1-5.255-1.1-5.255Z" transform="translate(-816.263 -686.503)" fill="#8eb6e1" fill-rule="evenodd"/>
            <path id="Trazado_994887" data-name="Trazado 994887" d="M863.633,720.152c-.092-.424-.5-.432-.9-.343.518-.646.814-1.53-.113-1.995-.988-.494-1.552.627-1.766,1.547-.254-.346-1.51-1.642-1.967-1.1-.425.51.473,1.395,1.076,1.869-.649.008-1.564.157-1.684.708-.147.676,1.1.524,1.673.449-.181.5-.37,1.3.118,1.558.51.27.967-.366,1.232-.856.167.456.776,1.164,1.089,1.015.688-.324.482-1.167.173-1.716.5-.181,1.2-.573,1.075-1.14" transform="translate(-782.594 -654.418)" fill="#b7d9f2" fill-rule="evenodd"/>
            <path id="Trazado_994888" data-name="Trazado 994888" d="M888.956,744.97c-.317-.143-.649.275-.6.506a.416.416,0,0,0,.655.263.491.491,0,0,0-.05-.769" transform="translate(-810.027 -679.263)" fill="#fff" fill-rule="evenodd"/>
            <path id="Trazado_994889" data-name="Trazado 994889" d="M909.8,767.906a13.223,13.223,0,0,1,.573-5.459c.928-2.176,1.542-3.986,1.542-3.986s-.245,1.948-.55,3.492a34.851,34.851,0,0,1-1.566,5.953" transform="translate(-829.525 -691.592)" fill="#a0c6e9" fill-rule="evenodd"/>
            <path id="Trazado_994890" data-name="Trazado 994890" d="M943.044,780.6a31.281,31.281,0,0,0-.938,5.545,15.308,15.308,0,0,0,.149,5,.288.288,0,0,1-.314.236c-.4,0-.351-.236-.351-.236a19.173,19.173,0,0,1,.117-5.777c.411-2.037,1.1-5.254,1.1-5.254Z" transform="translate(-858.423 -711.329)" fill="#8eb6e1" fill-rule="evenodd"/>
            <path id="Trazado_994891" data-name="Trazado 994891" d="M935.652,747.365c.092-.425.5-.433.906-.343-.518-.646-.815-1.53.113-2,.988-.495,1.552.626,1.766,1.547.255-.346,1.51-1.642,1.967-1.095.425.509-.473,1.393-1.075,1.867.649.008,1.564.158,1.683.708.147.677-1.1.524-1.673.45.182.5.37,1.3-.117,1.557-.51.27-.968-.366-1.234-.856-.166.456-.775,1.164-1.087,1.016-.688-.325-.483-1.168-.174-1.716-.5-.182-1.2-.574-1.075-1.14" transform="translate(-853.148 -679.231)" fill="#b7d9f2" fill-rule="evenodd"/>
            <path id="Trazado_994892" data-name="Trazado 994892" d="M957.547,772.182c.317-.143.65.276.605.506a.416.416,0,0,1-.655.264.492.492,0,0,1,.049-.77" transform="translate(-872.933 -704.077)" fill="#fff" fill-rule="evenodd"/>
            <path id="Trazado_994893" data-name="Trazado 994893" d="M922.621,795.118a13.221,13.221,0,0,0-.574-5.458c-.928-2.176-1.542-3.987-1.542-3.987s.246,1.948.55,3.494a34.749,34.749,0,0,0,1.566,5.951" transform="translate(-839.349 -716.405)" fill="#8eb6e1" fill-rule="evenodd"/>
            <path id="Trazado_994894" data-name="Trazado 994894" d="M898.548,800.5a31.358,31.358,0,0,1,.938,5.543,15.249,15.249,0,0,1-.15,5,.288.288,0,0,0,.315.238c.4,0,.35-.238.35-.238a19.137,19.137,0,0,0-.117-5.776c-.409-2.038-1.1-5.255-1.1-5.255Z" transform="translate(-819.328 -729.475)" fill="#8eb6e1" fill-rule="evenodd"/>
            <path id="Trazado_994895" data-name="Trazado 994895" d="M867,767.275c-.092-.424-.5-.432-.9-.343.518-.646.814-1.53-.113-1.995-.988-.5-1.553.627-1.767,1.547-.254-.346-1.51-1.642-1.966-1.1-.426.509.472,1.393,1.075,1.869-.649.008-1.564.157-1.684.708-.146.676,1.1.524,1.673.449-.181.5-.37,1.3.117,1.558.511.27.968-.366,1.233-.856.166.456.776,1.164,1.089,1.015.688-.324.482-1.168.173-1.716.5-.181,1.2-.574,1.074-1.14" transform="translate(-785.667 -697.386)" fill="#b7d9f2" fill-rule="evenodd"/>
            <path id="Trazado_994896" data-name="Trazado 994896" d="M892.327,792.1c-.317-.143-.649.275-.6.506a.416.416,0,0,0,.655.263.491.491,0,0,0-.05-.769" transform="translate(-813.1 -722.235)" fill="#fff" fill-rule="evenodd"/>
            <path id="Trazado_994897" data-name="Trazado 994897" d="M913.173,815.033a13.216,13.216,0,0,1,.573-5.458c.927-2.177,1.542-3.987,1.542-3.987s-.245,1.948-.55,3.494a34.864,34.864,0,0,1-1.565,5.952" transform="translate(-832.603 -734.564)" fill="#a0c6e9" fill-rule="evenodd"/>
            <path id="Trazado_994898" data-name="Trazado 994898" d="M799.506,821.326a31.435,31.435,0,0,0-.938,5.543,15.264,15.264,0,0,0,.151,5,.289.289,0,0,1-.314.236c-.4,0-.352-.236-.352-.236a19.133,19.133,0,0,1,.118-5.777c.41-2.037,1.1-5.255,1.1-5.255Z" transform="translate(-727.54 -748.466)" fill="#8eb6e1" fill-rule="evenodd"/>
            <path id="Trazado_994899" data-name="Trazado 994899" d="M792.124,788.106c.091-.425.5-.432.9-.343-.518-.646-.814-1.53.114-1.995.988-.494,1.553.627,1.765,1.547.255-.346,1.512-1.642,1.968-1.1.425.51-.473,1.394-1.075,1.869.649.007,1.564.157,1.684.707.147.677-1.1.526-1.672.45.181.5.37,1.3-.117,1.558-.511.27-.969-.366-1.233-.856-.167.456-.775,1.163-1.089,1.017-.688-.325-.483-1.169-.173-1.717-.5-.181-1.2-.573-1.075-1.14" transform="translate(-722.274 -716.381)" fill="#c9e3f6" fill-rule="evenodd"/>
            <path id="Trazado_994900" data-name="Trazado 994900" d="M814.012,812.924c.317-.143.649.276.6.506a.416.416,0,0,1-.654.264.492.492,0,0,1,.049-.77" transform="translate(-742.053 -741.227)" fill="#fff" fill-rule="evenodd"/>
            <path id="Trazado_994901" data-name="Trazado 994901" d="M779.09,835.86a13.223,13.223,0,0,0-.573-5.459c-.928-2.176-1.542-3.986-1.542-3.986s.245,1.948.55,3.494a34.811,34.811,0,0,0,1.565,5.952" transform="translate(-708.474 -753.555)" fill="#a0c6e9" fill-rule="evenodd"/>
            <path id="Trazado_994902" data-name="Trazado 994902" d="M868.264,827.587a31.358,31.358,0,0,0-.938,5.543,15.288,15.288,0,0,0,.15,5,.287.287,0,0,1-.314.236c-.4,0-.351-.236-.351-.236a19.169,19.169,0,0,1,.117-5.777c.41-2.037,1.1-5.254,1.1-5.254Z" transform="translate(-790.236 -754.176)" fill="#8eb6e1" fill-rule="evenodd"/>
            <path id="Trazado_994903" data-name="Trazado 994903" d="M860.877,794.363c.092-.425.5-.433.9-.344-.518-.646-.814-1.53.113-1.994.988-.5,1.552.625,1.766,1.545.255-.343,1.511-1.641,1.967-1.093.425.509-.473,1.393-1.075,1.867.648.008,1.564.158,1.683.708.148.676-1.1.523-1.672.45.181.5.369,1.3-.118,1.557-.509.27-.967-.366-1.233-.854-.166.455-.775,1.163-1.088,1.015-.688-.325-.482-1.168-.174-1.716-.5-.182-1.2-.574-1.074-1.14" transform="translate(-784.965 -722.086)" fill="#c9e3f6" fill-rule="evenodd"/>
            <path id="Trazado_994904" data-name="Trazado 994904" d="M882.769,819.173c.318-.143.65.276.606.506a.416.416,0,0,1-.655.264.493.493,0,0,1,.049-.77" transform="translate(-804.749 -746.925)" fill="#fff" fill-rule="evenodd"/>
            <path id="Trazado_994905" data-name="Trazado 994905" d="M847.841,842.108a13.23,13.23,0,0,0-.573-5.461c-.928-2.176-1.543-3.986-1.543-3.986s.246,1.948.551,3.494a34.8,34.8,0,0,0,1.565,5.953" transform="translate(-771.162 -759.251)" fill="#a0c6e9" fill-rule="evenodd"/>
            <path id="Trazado_994906" data-name="Trazado 994906" d="M817.261,844.753a31.315,31.315,0,0,1,.939,5.544,15.284,15.284,0,0,1-.151,5,.288.288,0,0,0,.315.236c.4,0,.351-.236.351-.236a19.134,19.134,0,0,0-.118-5.778c-.409-2.038-1.1-5.255-1.1-5.255Z" transform="translate(-745.208 -769.827)" fill="#8eb6e1" fill-rule="evenodd"/>
            <path id="Trazado_994907" data-name="Trazado 994907" d="M785.716,811.534c-.092-.426-.5-.433-.9-.344.518-.644.814-1.529-.113-1.995-.987-.495-1.553.627-1.766,1.547-.254-.346-1.511-1.642-1.967-1.095-.425.509.474,1.393,1.075,1.867-.649.008-1.564.157-1.684.708-.146.676,1.1.524,1.673.45-.182.5-.37,1.3.117,1.557.511.27.968-.366,1.233-.856.167.456.775,1.164,1.089,1.016.688-.325.482-1.168.173-1.716.5-.182,1.2-.574,1.075-1.14" transform="translate(-711.547 -737.743)" fill="#b7d9f2" fill-rule="evenodd"/>
            <path id="Trazado_994908" data-name="Trazado 994908" d="M811.044,836.351c-.317-.143-.649.276-.6.506a.415.415,0,0,0,.654.264.492.492,0,0,0-.05-.771" transform="translate(-738.984 -762.588)" fill="#fff" fill-rule="evenodd"/>
            <path id="Trazado_994909" data-name="Trazado 994909" d="M831.88,859.287a13.229,13.229,0,0,1,.573-5.461c.928-2.176,1.542-3.986,1.542-3.986s-.245,1.948-.55,3.494a34.734,34.734,0,0,1-1.565,5.953" transform="translate(-758.477 -774.915)" fill="#a0c6e9" fill-rule="evenodd"/>
            <path id="Trazado_994910" data-name="Trazado 994910" d="M1705.28,582.179l.655,10.332h7.27l.655-10.332Z" transform="translate(-1554.936 -530.852)" fill="#80a8d8" fill-rule="evenodd"/>
            <path id="Trazado_994911" data-name="Trazado 994911" d="M1719.983,678.219c0,1.129-1.627,2.046-3.635,2.046s-3.635-.917-3.635-2.046,1.627-2.045,3.635-2.045,3.635.916,3.635,2.045" transform="translate(-1561.713 -616.56)" fill="#80a8d8" fill-rule="evenodd"/>
            <path id="Trazado_994912" data-name="Trazado 994912" d="M1713.861,557.206c0,1.335-1.92,2.416-4.29,2.416s-4.291-1.081-4.291-2.416,1.92-2.415,4.291-2.415,4.29,1.081,4.29,2.415" transform="translate(-1554.936 -505.878)" fill="#a0c6e9" fill-rule="evenodd"/>
            <path id="Trazado_994913" data-name="Trazado 994913" d="M1719.983,559.885c0,1.129-1.627,2.046-3.635,2.046s-3.635-.917-3.635-2.046,1.627-2.045,3.635-2.045,3.635.916,3.635,2.045" transform="translate(-1561.713 -508.658)" fill="#80a8d8" fill-rule="evenodd"/>
            <path id="Trazado_994914" data-name="Trazado 994914" d="M1776.021,503.485s-.805,5.156-.875,6.277a8.726,8.726,0,0,0,0,1.589l.189-.074s.181-3.1.354-4.31.492-3.482.492-3.482Z" transform="translate(-1618.614 -459.096)" fill="#a0c6e9" fill-rule="evenodd"/>
            <path id="Trazado_994915" data-name="Trazado 994915" d="M1687.121,484.577c.691,1.091,1.995,2.771,2.885,3.993s1.695,6.42,1.695,6.42a4.489,4.489,0,0,0,.754.114,30.722,30.722,0,0,0-1.152-5.959c-.667-1.689-3.227-3.838-4.181-4.568" transform="translate(-1538.377 -441.855)" fill="#789fd3" fill-rule="evenodd"/>
            <path id="Trazado_994916" data-name="Trazado 994916" d="M1761.536,409.886a62.277,62.277,0,0,0-2.84,8.468,45.468,45.468,0,0,0-.691,8.652,5.147,5.147,0,0,0,.886-.109c.086-.062.748-6.134,1.284-9.067s1.361-7.944,1.361-7.944" transform="translate(-1603.009 -373.749)" fill="#789fd3" fill-rule="evenodd"/>
            <path id="Trazado_994917" data-name="Trazado 994917" d="M1685.746,428.943s1.083,5.9,1.518,8.29,1.7,6.426,1.7,6.426a3.217,3.217,0,0,0,.8.4,65.169,65.169,0,0,0-1.465-8.406,30.143,30.143,0,0,0-2.552-6.714" transform="translate(-1537.124 -391.126)" fill="#8eb6e1" fill-rule="evenodd"/>
            <path id="Trazado_994918" data-name="Trazado 994918" d="M1721.343,397.457s.983,7.769,1.407,9.977,1.222,8.255,1.222,8.255.583,0,1.109-.05c.218-1.93-.586-6.705-1.134-9.4s-2.6-8.778-2.6-8.778" transform="translate(-1569.582 -362.415)" fill="#8eb6e1" fill-rule="evenodd"/>
            <path id="Trazado_994919" data-name="Trazado 994919" d="M1745.491,420.313s.922,7.063,1,9.775.109,6.426.109,6.426l.266-.016s-.041-5.336-.27-8.852-.824-7.251-.824-7.251Z" transform="translate(-1591.601 -383.256)" fill="#a0c6e9" fill-rule="evenodd"/>
            <path id="Trazado_994920" data-name="Trazado 994920" d="M1715.108,456.238s1.608,7.022,1.807,8.625.471,4.256.471,4.256l.282.046s-.324-3.164-.588-5.024-1.683-7.973-1.683-7.973Z" transform="translate(-1563.897 -415.95)" fill="#a0c6e9" fill-rule="evenodd"/>
            <path id="Trazado_994921" data-name="Trazado 994921" d="M1765.7,434.948s-1.2,6.043-1.5,9.461a24.6,24.6,0,0,0,0,5.343l.222-.066s-.053-4.035.077-5.445c.233-2.547,1.417-9.362,1.417-9.362Z" transform="translate(-1608.537 -396.537)" fill="#a0c6e9" fill-rule="evenodd"/>
            <path id="Trazado_994922" data-name="Trazado 994922" d="M1743.463,510.273s.351,1.744.462,2.9.31,5.211.31,5.211l.214,0s-.12-3.657-.307-5.319a24.516,24.516,0,0,0-.547-2.976Z" transform="translate(-1589.752 -465.116)" fill="#a0c6e9" fill-rule="evenodd"/>
            <path id="Trazado_994923" data-name="Trazado 994923" d="M1720.183,480.263a.974.974,0,0,0,.216-.36.928.928,0,0,0-.319-.97.837.837,0,0,0-.977-.146,1.274,1.274,0,0,0-.38.3,1.2,1.2,0,0,0-.15-.884,1.383,1.383,0,0,0-1.443-.228c-.5.154-.831.4-.742.964a2.17,2.17,0,0,0,.42.93.786.786,0,0,0-.438-.022,1.4,1.4,0,0,0-.82.619,1.081,1.081,0,0,0,.031.974.926.926,0,0,0,.653.395.569.569,0,0,0-.2.326,1.035,1.035,0,0,0,.492.888,1.294,1.294,0,0,0,1.467-.212,1,1,0,0,0,.786.091,1.2,1.2,0,0,0,.6-.816c.25.184.5.364.834.232a.946.946,0,0,0,.508-.718c.1-.467-.063-1.2-.533-1.368" transform="translate(-1564.208 -435.751)" fill="#b7d9f2" fill-rule="evenodd"/>
            <path id="Trazado_994924" data-name="Trazado 994924" d="M1720.842,484.039s-.766-.152-.734.6a.887.887,0,0,0,.839.811s-.316.7.164.96a.831.831,0,0,0,.929-.212,2.026,2.026,0,0,0,.821.091c.332-.067.346-.713.346-.713s.9.481,1.116-.2a1.3,1.3,0,0,0-.364-1.231s.5-.625.168-1.039-.921,0-.921,0-.528-.7-.7-.923-.891-.211-1.257,0-.181,1.105-.181,1.105Z" transform="translate(-1568.455 -439.529)" fill="#fff" fill-rule="evenodd"/>
            <path id="Trazado_994925" data-name="Trazado 994925" d="M1724.7,486.885a.651.651,0,0,0-.34-.9.72.72,0,0,0-.721.161.824.824,0,0,0-.128-.206.494.494,0,0,0-.638-.077.774.774,0,0,0-.441.475.489.489,0,0,0-.01.124.832.832,0,0,0-.139-.066.733.733,0,0,0-.744.142.574.574,0,0,0-.144.674.754.754,0,0,0,.427.382.517.517,0,0,0-.106.082.6.6,0,0,0-.114.648.7.7,0,0,0,.8.377.791.791,0,0,0,.725.748.638.638,0,0,0,.524-.221.814.814,0,0,0,1-.251.857.857,0,0,0,.13-.831.889.889,0,0,0,.358-.283c.3-.458-.043-.8-.442-.978" transform="translate(-1569.577 -442.954)" fill="#c9e3f6" fill-rule="evenodd"/>
            <path id="Trazado_994926" data-name="Trazado 994926" d="M1730.152,491.632a.7.7,0,0,0-.2-.805.711.711,0,0,0-.655-.109.35.35,0,0,0-.144.088.466.466,0,0,0-.54-.088.445.445,0,0,0-.244.262.317.317,0,0,0-.467,0,.57.57,0,0,0-.25.527.381.381,0,0,0,.163.24.74.74,0,0,0-.184.614.473.473,0,0,0,.349.4.321.321,0,0,0,.139,0,.743.743,0,0,0,.3.528.348.348,0,0,0,.521.02,1.046,1.046,0,0,0,.106-.125.456.456,0,0,0,.5.173.678.678,0,0,0,.427-.418.41.41,0,0,0,.014-.131c.223.012.384-.232.492-.4a.534.534,0,0,0-.338-.774" transform="translate(-1575.31 -447.407)" fill="#fff" fill-rule="evenodd"/>
            <path id="Trazado_994927" data-name="Trazado 994927" d="M1733.977,493.745a.442.442,0,0,0,.079-.127.426.426,0,0,0-.266-.535.636.636,0,0,0-.684.044.5.5,0,0,0-.154.269.668.668,0,0,0-.2-.158.356.356,0,0,0-.4.1.3.3,0,0,0-.054.418.5.5,0,0,0,.179.125l-.046.028a.538.538,0,0,0-.029.488.355.355,0,0,0,.307.273.593.593,0,0,0,.251-.059.43.43,0,0,0,.532.4.515.515,0,0,0,.353-.425.414.414,0,0,0,0-.1.577.577,0,0,0,.2-.007.36.36,0,0,0,.307-.364c0-.206-.17-.33-.374-.37" transform="translate(-1579.514 -449.539)" fill="#daedf9" fill-rule="evenodd"/>
            <path id="Trazado_994928" data-name="Trazado 994928" d="M1738.21,496.486a.378.378,0,0,0-.18-.206.357.357,0,0,0,.067-.118.351.351,0,0,0-.135-.424.4.4,0,0,0-.57.214.383.383,0,0,0-.373-.02.262.262,0,0,0-.094.3.417.417,0,0,0,.209.205l-.071.058a.241.241,0,0,0-.05.342.3.3,0,0,0,.332.157.5.5,0,0,0,.187-.1.439.439,0,0,0,.576.043.466.466,0,0,0,.1-.45" transform="translate(-1583.778 -451.99)" fill="#fff" fill-rule="evenodd"/>
            <path id="Trazado_994929" data-name="Trazado 994929" d="M1742.806,501.134a.188.188,0,0,1-.036.373.188.188,0,0,1,.036-.373" transform="translate(-1588.972 -456.951)" fill="#daedf9" fill-rule="evenodd"/>
            <path id="Trazado_994930" data-name="Trazado 994930" d="M1769.971,462.271a.949.949,0,0,0,.355-.226.927.927,0,0,0,.149-1.008.841.841,0,0,0-.81-.569,1.267,1.267,0,0,0-.475.1,1.2,1.2,0,0,0,.26-.858c-.1-.509-.737-.774-1.188-.85-.516-.086-.922-.011-1.094.53a2.16,2.16,0,0,0-.038,1.019.815.815,0,0,0-.384-.215,1.394,1.394,0,0,0-1.01.187,1.079,1.079,0,0,0-.407.886.922.922,0,0,0,.407.644.574.574,0,0,0-.329.2,1.036,1.036,0,0,0,.043,1.013,1.3,1.3,0,0,0,1.407.468,1,1,0,0,0,.662.432,1.2,1.2,0,0,0,.9-.463c.142.277.281.548.643.582a.951.951,0,0,0,.775-.415c.3-.371.48-1.105.134-1.463" transform="translate(-1609.654 -418.381)" fill="#b7d9f2" fill-rule="evenodd"/>
            <path id="Trazado_994931" data-name="Trazado 994931" d="M1771.622,464.4a.572.572,0,0,0-.924.21.886.886,0,0,0,.386,1.1s-.593.485-.281.932a.83.83,0,0,0,.925.226,2.006,2.006,0,0,0,.692.449c.329.089.628-.484.628-.484s.587.832,1.087.324a1.3,1.3,0,0,0,.224-1.265s.73-.334.617-.853-.826-.413-.826-.413-.155-.865-.209-1.135-.7-.589-1.126-.559-.657.908-.657.908Z" transform="translate(-1614.514 -422.112)" fill="#fff" fill-rule="evenodd"/>
            <path id="Trazado_994932" data-name="Trazado 994932" d="M1777.341,469.477a.65.65,0,0,0,.1-.955.721.721,0,0,0-.718-.179.807.807,0,0,0-.022-.242.491.491,0,0,0-.536-.353.77.77,0,0,0-.607.227.616.616,0,0,0-.064.107.953.953,0,0,0-.095-.121.737.737,0,0,0-.729-.208.579.579,0,0,0-.431.54.758.758,0,0,0,.213.533.529.529,0,0,0-.132.025.6.6,0,0,0-.391.528.7.7,0,0,0,.545.695.791.791,0,0,0,.313.992.642.642,0,0,0,.568.037.961.961,0,0,0,.139.139.823.823,0,0,0,.873.086.9.9,0,0,1,.932-.779c.47-.278.322-.738.043-1.073" transform="translate(-1617.53 -426.489)" fill="#c9e3f6" fill-rule="evenodd"/>
            <path id="Trazado_994933" data-name="Trazado 994933" d="M1781.469,472.564a.7.7,0,0,0,.181-.809.714.714,0,0,0-.536-.392.384.384,0,0,0-.169.014.466.466,0,0,0-.442-.32.457.457,0,0,0-.336.125.315.315,0,0,0-.415-.21.568.568,0,0,0-.46.359.393.393,0,0,0,.038.288.735.735,0,0,0-.438.467.474.474,0,0,0,.132.513.3.3,0,0,0,.127.061.738.738,0,0,0,.036.61c.082.2.235.329.456.251a1.03,1.03,0,0,0,.15-.064.457.457,0,0,0,.373.379.68.68,0,0,0,.569-.182.4.4,0,0,0,.072-.11c.194.109.449-.036.618-.134a.534.534,0,0,0,.043-.844" transform="translate(-1622.036 -429.436)" fill="#fff" fill-rule="evenodd"/>
            <path id="Trazado_994934" data-name="Trazado 994934" d="M1786.946,475.538a.41.41,0,0,0,.127-.078.425.425,0,0,0,0-.6.639.639,0,0,0-.634-.266.5.5,0,0,0-.257.173.662.662,0,0,0-.112-.235.357.357,0,0,0-.4-.084.3.3,0,0,0-.235.349.485.485,0,0,0,.1.192l-.053,0a.54.54,0,0,0-.245.424.355.355,0,0,0,.154.383.629.629,0,0,0,.25.059.43.43,0,0,0,.3.594.515.515,0,0,0,.506-.222.49.49,0,0,0,.048-.09.585.585,0,0,0,.181.083.363.363,0,0,0,.438-.188.4.4,0,0,0-.17-.5" transform="translate(-1627.843 -432.597)" fill="#daedf9" fill-rule="evenodd"/>
            <path id="Trazado_994935" data-name="Trazado 994935" d="M1790.14,479.187a.369.369,0,0,0-.069-.265.384.384,0,0,0,.115-.076.352.352,0,0,0,.068-.439.4.4,0,0,0-.606-.064.384.384,0,0,0-.324-.185.265.265,0,0,0-.218.226.417.417,0,0,0,.1.277.646.646,0,0,0-.089.019.238.238,0,0,0-.2.283.3.3,0,0,0,.223.289.481.481,0,0,0,.214-.006.438.438,0,0,0,.5.3.469.469,0,0,0,.29-.358" transform="translate(-1631.196 -436.001)" fill="#fff" fill-rule="evenodd"/>
            <path id="Trazado_994936" data-name="Trazado 994936" d="M1795.415,483.329a.188.188,0,0,1-.2.318.188.188,0,0,1,.2-.318" transform="translate(-1636.864 -440.689)" fill="#daedf9" fill-rule="evenodd"/>
            <path id="Trazado_994937" data-name="Trazado 994937" d="M1716.643,385.033a.881.881,0,0,0,.5-1.235.842.842,0,0,0-.809-.569,1.293,1.293,0,0,0-.476.1,1.2,1.2,0,0,0,.262-.857c-.1-.509-.737-.775-1.189-.85-.516-.086-.922-.011-1.095.53a2.164,2.164,0,0,0-.038,1.019.8.8,0,0,0-.384-.215,1.4,1.4,0,0,0-1.011.187,1.086,1.086,0,0,0-.407.886.923.923,0,0,0,.407.645.575.575,0,0,0-.328.2,1.035,1.035,0,0,0,.042,1.013,1.3,1.3,0,0,0,1.408.468,1,1,0,0,0,.661.431,1.192,1.192,0,0,0,.9-.462c.141.277.281.548.642.582a.949.949,0,0,0,.775-.416c.3-.37.481-1.105.134-1.462" transform="translate(-1561.028 -347.952)" fill="#b7d9f2" fill-rule="evenodd"/>
            <path id="Trazado_994938" data-name="Trazado 994938" d="M1718.29,387.157a.573.573,0,0,0-.925.21.886.886,0,0,0,.388,1.1s-.594.484-.282.933a.834.834,0,0,0,.927.226,2.012,2.012,0,0,0,.691.449c.329.089.629-.484.629-.484s.587.832,1.086.323a1.3,1.3,0,0,0,.226-1.264s.73-.335.616-.853-.823-.413-.823-.413-.156-.867-.211-1.137-.7-.588-1.126-.558-.655.907-.655.907Z" transform="translate(-1565.883 -351.684)" fill="#fff" fill-rule="evenodd"/>
            <path id="Trazado_994939" data-name="Trazado 994939" d="M1724.007,392.237a.649.649,0,0,0,.1-.955.723.723,0,0,0-.718-.18.766.766,0,0,0-.022-.241.49.49,0,0,0-.537-.353.772.772,0,0,0-.607.227.615.615,0,0,0-.064.107.977.977,0,0,0-.094-.121.737.737,0,0,0-.73-.208.575.575,0,0,0-.43.539.753.753,0,0,0,.211.534.544.544,0,0,0-.132.025.6.6,0,0,0-.391.528.694.694,0,0,0,.545.694.793.793,0,0,0,.314.994.641.641,0,0,0,.568.037.9.9,0,0,0,.138.139.825.825,0,0,0,.873.086.9.9,0,0,1,.932-.779c.472-.278.322-.739.043-1.073" transform="translate(-1568.898 -356.059)" fill="#c9e3f6" fill-rule="evenodd"/>
            <path id="Trazado_994940" data-name="Trazado 994940" d="M1728.14,395.319a.7.7,0,0,0,.181-.81.717.717,0,0,0-.536-.391.365.365,0,0,0-.169.014.466.466,0,0,0-.443-.32.457.457,0,0,0-.336.125.316.316,0,0,0-.415-.211.566.566,0,0,0-.458.36.381.381,0,0,0,.038.288.731.731,0,0,0-.439.467.474.474,0,0,0,.133.512.307.307,0,0,0,.126.061.75.75,0,0,0,.036.608c.083.2.235.329.457.252a1.152,1.152,0,0,0,.15-.064.458.458,0,0,0,.373.379.681.681,0,0,0,.569-.182.393.393,0,0,0,.071-.11c.194.109.449-.036.619-.134a.534.534,0,0,0,.043-.844" transform="translate(-1573.408 -359)" fill="#fff" fill-rule="evenodd"/>
            <path id="Trazado_994941" data-name="Trazado 994941" d="M1733.616,398.3a.438.438,0,0,0,.129-.079.425.425,0,0,0,0-.6.638.638,0,0,0-.634-.265.5.5,0,0,0-.257.172.674.674,0,0,0-.11-.234.357.357,0,0,0-.4-.084.3.3,0,0,0-.235.349.511.511,0,0,0,.1.192l-.053,0a.547.547,0,0,0-.245.424.357.357,0,0,0,.154.383.636.636,0,0,0,.25.059.43.43,0,0,0,.3.594.516.516,0,0,0,.505-.222.426.426,0,0,0,.048-.09.6.6,0,0,0,.181.083.363.363,0,0,0,.438-.188.4.4,0,0,0-.171-.5" transform="translate(-1579.215 -362.166)" fill="#daedf9" fill-rule="evenodd"/>
            <path id="Trazado_994942" data-name="Trazado 994942" d="M1736.809,401.947a.38.38,0,0,0-.068-.266.366.366,0,0,0,.114-.074.351.351,0,0,0,.068-.439.4.4,0,0,0-.606-.064.379.379,0,0,0-.324-.185.266.266,0,0,0-.218.226.423.423,0,0,0,.1.277.5.5,0,0,0-.089.019.239.239,0,0,0-.2.283.3.3,0,0,0,.224.289.473.473,0,0,0,.212-.006.44.44,0,0,0,.5.3.466.466,0,0,0,.29-.358" transform="translate(-1582.567 -365.569)" fill="#fff" fill-rule="evenodd"/>
            <path id="Trazado_994943" data-name="Trazado 994943" d="M1742.083,406.091a.187.187,0,0,1-.2.317.187.187,0,0,1,.2-.317" transform="translate(-1588.235 -370.261)" fill="#daedf9" fill-rule="evenodd"/>
            <path id="Trazado_994944" data-name="Trazado 994944" d="M1682.7,429.107a.88.88,0,0,1-.5-1.235.84.84,0,0,1,.811-.567,1.27,1.27,0,0,1,.475.1,1.2,1.2,0,0,1-.259-.858c.1-.509.739-.773,1.192-.847.515-.084.921-.007,1.092.534a2.164,2.164,0,0,1,.037,1.019.792.792,0,0,1,.383-.214,1.39,1.39,0,0,1,1.009.19,1.079,1.079,0,0,1,.406.887.921.921,0,0,1-.408.643.569.569,0,0,1,.327.2,1.032,1.032,0,0,1-.044,1.013,1.3,1.3,0,0,1-1.408.463,1,1,0,0,1-.665.431,1.2,1.2,0,0,1-.9-.466c-.142.276-.283.547-.646.58a.948.948,0,0,1-.773-.418c-.3-.371-.478-1.106-.131-1.463" transform="translate(-1533.816 -388.146)" fill="#b7d9f2" fill-rule="evenodd"/>
            <path id="Trazado_994945" data-name="Trazado 994945" d="M1690.349,431.236a.572.572,0,0,1,.924.211.886.886,0,0,1-.39,1.1s.593.486.28.934a.832.832,0,0,1-.927.223,2.007,2.007,0,0,1-.694.448c-.329.088-.627-.485-.627-.485s-.59.829-1.087.319a1.3,1.3,0,0,1-.223-1.264s-.727-.337-.612-.856.826-.41.826-.41.157-.865.211-1.135.7-.587,1.128-.556.653.91.653.91Z" transform="translate(-1538.25 -391.873)" fill="#fff" fill-rule="evenodd"/>
            <path id="Trazado_994946" data-name="Trazado 994946" d="M1691.784,436.342a.649.649,0,0,1-.1-.955.721.721,0,0,1,.718-.179.819.819,0,0,1,.023-.241.491.491,0,0,1,.538-.352.77.77,0,0,1,.606.229.568.568,0,0,1,.063.107.945.945,0,0,1,.095-.121.735.735,0,0,1,.73-.205.575.575,0,0,1,.429.54.758.758,0,0,1-.213.533.468.468,0,0,1,.131.026.593.593,0,0,1,.39.528.693.693,0,0,1-.546.692.794.794,0,0,1-.317.994.644.644,0,0,1-.569.035.809.809,0,0,1-.139.139.822.822,0,0,1-.871.084.862.862,0,0,1-.486-.686.879.879,0,0,1-.445-.095c-.47-.28-.319-.739-.038-1.073" transform="translate(-1542.387 -396.281)" fill="#c9e3f6" fill-rule="evenodd"/>
            <path id="Trazado_994947" data-name="Trazado 994947" d="M1696.3,439.408a.7.7,0,0,1-.18-.809.716.716,0,0,1,.538-.391.376.376,0,0,1,.168.016.467.467,0,0,1,.444-.319.453.453,0,0,1,.336.126.314.314,0,0,1,.415-.21.566.566,0,0,1,.458.36.386.386,0,0,1-.038.288.737.737,0,0,1,.437.468.472.472,0,0,1-.134.512.3.3,0,0,1-.127.06.734.734,0,0,1-.038.61c-.082.2-.235.329-.456.251a1.316,1.316,0,0,1-.15-.065.456.456,0,0,1-.375.378.678.678,0,0,1-.568-.184.4.4,0,0,1-.072-.11c-.194.108-.446-.037-.617-.137a.534.534,0,0,1-.041-.844" transform="translate(-1546.527 -399.207)" fill="#fff" fill-rule="evenodd"/>
            <path id="Trazado_994948" data-name="Trazado 994948" d="M1699.946,442.385a.453.453,0,0,1-.128-.079.423.423,0,0,1,0-.6.635.635,0,0,1,.633-.265.5.5,0,0,1,.256.173.715.715,0,0,1,.113-.233.357.357,0,0,1,.4-.084.3.3,0,0,1,.234.349.477.477,0,0,1-.1.192l.053,0a.549.549,0,0,1,.245.425.358.358,0,0,1-.156.382.607.607,0,0,1-.25.059.429.429,0,0,1-.3.593.515.515,0,0,1-.5-.222.449.449,0,0,1-.048-.091.6.6,0,0,1-.181.083.364.364,0,0,1-.438-.19.4.4,0,0,1,.172-.5" transform="translate(-1549.842 -402.37)" fill="#daedf9" fill-rule="evenodd"/>
            <path id="Trazado_994949" data-name="Trazado 994949" d="M1702.645,446.035a.381.381,0,0,1,.07-.266.366.366,0,0,1-.113-.074.351.351,0,0,1-.067-.44.4.4,0,0,1,.6-.061.378.378,0,0,1,.324-.184.262.262,0,0,1,.219.226.412.412,0,0,1-.1.276.642.642,0,0,1,.089.02.241.241,0,0,1,.2.283.3.3,0,0,1-.226.289.5.5,0,0,1-.214-.006.438.438,0,0,1-.5.3.469.469,0,0,1-.29-.358" transform="translate(-1552.385 -405.773)" fill="#fff" fill-rule="evenodd"/>
            <path id="Trazado_994950" data-name="Trazado 994950" d="M1707.929,450.16a.188.188,0,0,0,.2.319.188.188,0,0,0-.2-.319" transform="translate(-1557.273 -410.445)" fill="#daedf9" fill-rule="evenodd"/>
            <path id="Trazado_994951" data-name="Trazado 994951" d="M1755.761,403.054a.883.883,0,0,1-.5-1.236.84.84,0,0,1,.811-.565,1.237,1.237,0,0,1,.475.1,1.207,1.207,0,0,1-.258-.858c.1-.508.738-.773,1.192-.847.515-.084.922-.007,1.092.534a2.166,2.166,0,0,1,.036,1.019.8.8,0,0,1,.384-.214,1.4,1.4,0,0,1,1.01.19,1.088,1.088,0,0,1,.4.887.925.925,0,0,1-.409.645.56.56,0,0,1,.328.2,1.033,1.033,0,0,1-.046,1.013,1.294,1.294,0,0,1-1.408.463.993.993,0,0,1-.662.431,1.2,1.2,0,0,1-.9-.464c-.142.276-.282.547-.645.58a.955.955,0,0,1-.774-.418c-.3-.372-.478-1.107-.13-1.463" transform="translate(-1600.434 -364.389)" fill="#b7d9f2" fill-rule="evenodd"/>
            <path id="Trazado_994952" data-name="Trazado 994952" d="M1763.394,405.184a.572.572,0,0,1,.924.212.886.886,0,0,1-.389,1.1s.593.485.279.934a.832.832,0,0,1-.925.223,2.019,2.019,0,0,1-.695.446c-.328.088-.626-.485-.626-.485s-.588.831-1.087.32a1.3,1.3,0,0,1-.221-1.265s-.73-.336-.615-.856.826-.41.826-.41.158-.865.212-1.135.7-.586,1.127-.556.655.911.655.911Z" transform="translate(-1604.855 -368.118)" fill="#fff" fill-rule="evenodd"/>
            <path id="Trazado_994953" data-name="Trazado 994953" d="M1764.84,410.287a.65.65,0,0,1-.1-.955.719.719,0,0,1,.718-.178.8.8,0,0,1,.022-.241.492.492,0,0,1,.538-.352.77.77,0,0,1,.607.228.55.55,0,0,1,.064.107.857.857,0,0,1,.095-.121.735.735,0,0,1,.73-.205.578.578,0,0,1,.428.54.755.755,0,0,1-.212.533.534.534,0,0,1,.132.026.6.6,0,0,1,.389.529.693.693,0,0,1-.547.691.793.793,0,0,1-.316.994.644.644,0,0,1-.569.035.836.836,0,0,1-.138.139.823.823,0,0,1-.874.084.86.86,0,0,1-.485-.686.876.876,0,0,1-.445-.095c-.469-.28-.319-.739-.04-1.073" transform="translate(-1609.004 -372.524)" fill="#c9e3f6" fill-rule="evenodd"/>
            <path id="Trazado_994954" data-name="Trazado 994954" d="M1769.353,413.359a.7.7,0,0,1-.18-.81.717.717,0,0,1,.539-.39.362.362,0,0,1,.168.014.47.47,0,0,1,.444-.319.45.45,0,0,1,.335.126.316.316,0,0,1,.415-.21.57.57,0,0,1,.46.36.387.387,0,0,1-.04.288.734.734,0,0,1,.437.468.474.474,0,0,1-.134.514.307.307,0,0,1-.125.06.744.744,0,0,1-.038.61c-.084.2-.236.328-.458.25a1.348,1.348,0,0,1-.149-.065.456.456,0,0,1-.374.378.679.679,0,0,1-.569-.184.4.4,0,0,1-.071-.11c-.194.109-.448-.037-.618-.137a.533.533,0,0,1-.041-.842" transform="translate(-1613.14 -375.454)" fill="#fff" fill-rule="evenodd"/>
            <path id="Trazado_994955" data-name="Trazado 994955" d="M1773,416.33a.4.4,0,0,1-.127-.079.422.422,0,0,1,0-.6.639.639,0,0,1,.634-.265.5.5,0,0,1,.256.174.66.66,0,0,1,.113-.234.355.355,0,0,1,.4-.084.3.3,0,0,1,.235.35.482.482,0,0,1-.1.191l.054,0a.546.546,0,0,1,.242.424.358.358,0,0,1-.155.383.616.616,0,0,1-.251.058.43.43,0,0,1-.3.594.52.52,0,0,1-.505-.223.615.615,0,0,1-.048-.091.592.592,0,0,1-.18.083.364.364,0,0,1-.438-.19.4.4,0,0,1,.172-.5" transform="translate(-1616.46 -378.612)" fill="#daedf9" fill-rule="evenodd"/>
            <path id="Trazado_994956" data-name="Trazado 994956" d="M1775.693,419.981a.379.379,0,0,1,.071-.265.391.391,0,0,1-.114-.076.351.351,0,0,1-.067-.439.4.4,0,0,1,.606-.062.379.379,0,0,1,.324-.184.264.264,0,0,1,.219.226.424.424,0,0,1-.1.277c.03,0,.061.012.088.019a.239.239,0,0,1,.2.284.3.3,0,0,1-.226.288.493.493,0,0,1-.212-.006.438.438,0,0,1-.5.3.469.469,0,0,1-.29-.358" transform="translate(-1618.992 -382.016)" fill="#fff" fill-rule="evenodd"/>
            <path id="Trazado_994957" data-name="Trazado 994957" d="M1780.975,424.115a.188.188,0,0,0,.2.318.188.188,0,0,0-.2-.318" transform="translate(-1623.878 -386.696)" fill="#daedf9" fill-rule="evenodd"/>
            <path id="Trazado_994958" data-name="Trazado 994958" d="M1776.127,464.662a53.4,53.4,0,0,0-3.663,6.788,25,25,0,0,0-.864,5.32,5.878,5.878,0,0,0,.81-.3,28.943,28.943,0,0,1,1.452-5.427c.521-1.2,2.265-5.269,2.265-6.385" transform="translate(-1615.408 -423.695)" fill="#8eb6e1" fill-rule="evenodd"/>
            <path id="Trazado_994959" data-name="Trazado 994959" d="M1678.817,500.845s1.654,2.994,2.333,4.3,1.983,4.354,1.983,4.354.312.131.755.269a18.285,18.285,0,0,0-1.871-4.884,18.7,18.7,0,0,0-3.2-4.034" transform="translate(-1530.805 -456.688)" fill="#789fd3" fill-rule="evenodd"/>
            <path id="Trazado_994960" data-name="Trazado 994960" d="M1783.615,501.757a35.376,35.376,0,0,0-3.658,4.5,17.338,17.338,0,0,0-.911,4.108,6.3,6.3,0,0,0,.824-.5,24.613,24.613,0,0,1,.854-3.438c.348-.6,2.347-2.956,2.89-4.676" transform="translate(-1622.198 -457.52)" fill="#789fd3" fill-rule="evenodd"/>
            <path id="Trazado_994961" data-name="Trazado 994961" d="M1649.284,274.175l-7.657,4.4,2.705-7.224Z" transform="translate(-1496.895 -247.428)" fill="#c9e3f6" fill-rule="evenodd"/>
            <path id="Trazado_994962" data-name="Trazado 994962" d="M1641.628,309.767l2.518-.988,6.075-3.22-2.063.456Z" transform="translate(-1496.895 -278.62)" fill="#a0c6e9" fill-rule="evenodd"/>
            <path id="Trazado_994963" data-name="Trazado 994963" d="M1533.842,36.983l.047-16.317L1512.451,8.289,1512.4,24.6l5.507,3.18Zm-4.88-12.3h0a2.307,2.307,0,0,1,1.047,1.815c0,.667-.474.937-1.054.6a2.305,2.305,0,0,1-1.048-1.815c0-.667.474-.936,1.055-.6m-5.811-3.356h0a2.315,2.315,0,0,1,1.047,1.815c0,.667-.474.937-1.054.6a2.315,2.315,0,0,1-1.049-1.816c0-.666.474-.936,1.056-.6m-5.821-.939h0a2.313,2.313,0,0,1-1.046-1.815c0-.667.474-.937,1.054-.6a2.308,2.308,0,0,1,1.049,1.815c0,.666-.475.936-1.056.6" transform="translate(-1379.064 -7.558)" fill="#c9e3f6" fill-rule="evenodd"/>
            <path id="Trazado_994964" data-name="Trazado 994964" d="M1557.467,116.688c-.58-.336-1.051-.066-1.054.6a2.313,2.313,0,0,0,1.047,1.815c.581.335,1.054.065,1.056-.6a2.308,2.308,0,0,0-1.049-1.815" transform="translate(-1419.194 -106.269)" fill="#fffaec" fill-rule="evenodd"/>
            <path id="Trazado_994965" data-name="Trazado 994965" d="M1623.382,154.743c-.582-.335-1.054-.065-1.056.6a2.314,2.314,0,0,0,1.049,1.816c.58.335,1.051.065,1.054-.6a2.314,2.314,0,0,0-1.046-1.815" transform="translate(-1479.295 -140.969)" fill="#fffaec" fill-rule="evenodd"/>
            <path id="Trazado_994966" data-name="Trazado 994966" d="M1689.306,192.8c-.581-.335-1.054-.066-1.055.6a2.306,2.306,0,0,0,1.048,1.815c.58.336,1.051.066,1.054-.6a2.308,2.308,0,0,0-1.047-1.815" transform="translate(-1539.408 -175.672)" fill="#fffaec" fill-rule="evenodd"/>
            <path id="Trazado_994967" data-name="Trazado 994967" d="M1512.936.73,1514.191,0l21.439,12.378-1.257.73Z" transform="translate(-1379.549 0.001)" fill="#a0c6e9" fill-rule="evenodd"/>
            <path id="Trazado_994968" data-name="Trazado 994968" d="M1755.611,141.129l1.257-.73-.048,16.317-1.255.73Z" transform="translate(-1600.787 -128.021)" fill="#a0c6e9" fill-rule="evenodd"/>
            <path id="Trazado_994969" data-name="Trazado 994969" d="M1623.375,157.16c.58.335,1.051.065,1.054-.6a2.314,2.314,0,0,0-1.046-1.815c-.582-.335-1.054-.065-1.056.6a2.314,2.314,0,0,0,1.049,1.816" transform="translate(-1479.295 -140.969)" fill="#fff" fill-rule="evenodd"/>
            <path id="Trazado_994970" data-name="Trazado 994970" d="M1558.516,118.5a2.308,2.308,0,0,0-1.049-1.815c-.58-.336-1.051-.066-1.054.6a2.313,2.313,0,0,0,1.047,1.815c.581.335,1.054.065,1.056-.6" transform="translate(-1419.194 -106.269)" fill="#fff" fill-rule="evenodd"/>
            <path id="Trazado_994971" data-name="Trazado 994971" d="M1689.3,195.217c.58.336,1.051.066,1.054-.6a2.308,2.308,0,0,0-1.047-1.815c-.581-.335-1.054-.066-1.055.6a2.306,2.306,0,0,0,1.048,1.815" transform="translate(-1539.408 -175.672)" fill="#fff" fill-rule="evenodd"/>
            <path id="Trazado_994972" data-name="Trazado 994972" d="M1120.378,174.227a20.7,20.7,0,0,0-15.8,0l7.9,4.562Z" transform="translate(-1007.189 -157.438)" fill="#a0c6e9" fill-rule="evenodd"/>
            <path id="Trazado_994973" data-name="Trazado 994973" d="M1104.573,190.425V194.5l7.9,4.563v-4.073Z" transform="translate(-1007.19 -173.636)" fill="#8eb6e1" fill-rule="evenodd"/>
            <path id="Trazado_994974" data-name="Trazado 994974" d="M1202.114,190.438v10.328l-7.9,4.562V195Z" transform="translate(-1088.925 -173.648)" fill="#80a8d8" fill-rule="evenodd"/>
            <path id="Trazado_994975" data-name="Trazado 994975" d="M1057.106,291.784v6.262c0,1.8,1.387,3.42,3.622,4.586v-7.869Z" transform="translate(-963.907 -266.059)" fill="#a0c6e9" fill-rule="evenodd"/>
            <path id="Trazado_994976" data-name="Trazado 994976" d="M1323.992,295.323v-6.262l-3.619,2.629v8.219c2.232-1.167,3.619-2.789,3.619-4.586" transform="translate(-1203.964 -263.576)" fill="#a0c6e9" fill-rule="evenodd"/>
            <path id="Trazado_994977" data-name="Trazado 994977" d="M1232.816,243.366c2.232-1.165,3.62-2.79,3.62-4.587,0-1.943-1.623-3.683-4.184-4.862l-7.9,4.562Z" transform="translate(-1116.406 -213.294)" fill="#c9e3f6" fill-rule="evenodd"/>
            <path id="Trazado_994978" data-name="Trazado 994978" d="M1224.35,285.658v6.261l8.466,4.887v-6.261Z" transform="translate(-1116.406 -260.473)" fill="#8eb6e1" fill-rule="evenodd"/>
            <path id="Trazado_994979" data-name="Trazado 994979" d="M1098.189,378.454v3.207a20.374,20.374,0,0,0,16.932,0v-3.207Z" transform="translate(-1001.368 -345.088)" fill="#80a8d8" fill-rule="evenodd"/>
            <path id="Trazado_994980" data-name="Trazado 994980" d="M1057.106,241.489c0,1.8,1.387,3.422,3.622,4.587l8.466-4.887-7.9-4.563c-2.561,1.178-4.185,2.92-4.185,4.863" transform="translate(-963.907 -215.764)" fill="#c9e3f6" fill-rule="evenodd"/>
            <path id="Trazado_994981" data-name="Trazado 994981" d="M1098.189,327.9a20.385,20.385,0,0,0,16.932,0l-8.466-4.888Z" transform="translate(-1001.368 -294.532)" fill="#a0c6e9" fill-rule="evenodd"/>
            <path id="Trazado_994982" data-name="Trazado 994982" d="M1106.656,288.38v3.053l-8.466,4.888v-3.054Z" transform="translate(-1001.369 -262.955)" fill="#8eb6e1" fill-rule="evenodd"/>
            <path id="Trazado_994983" data-name="Trazado 994983" d="M297.686,56.348c5.716-3.556,11.258-4.094,15.716-2.1l3.627,1.918v.017c-4.445-1.951-9.954-1.4-15.635,2.136-12.127,7.544-20.439,25.817-18.567,40.812.909,7.28,4.05,12.448,8.429,14.976l-2.436-1.326c-5.039-2.217-8.708-7.657-9.7-15.622-1.872-15,6.441-33.269,18.567-40.813" transform="translate(-254.27 -48.418)" fill="#6e96ce" fill-rule="evenodd"/>
            <path id="Trazado_994984" data-name="Trazado 994984" d="M335.5,76.451c6.149-3.826,12.1-4.156,16.713-1.6-4.56-2.337-10.354-1.924-16.337,1.8-12.126,7.544-20.439,25.817-18.567,40.812.922,7.392,4.148,12.6,8.632,15.09-4.679-2.4-8.059-7.7-9.008-15.29-1.872-15,6.441-33.269,18.567-40.814" transform="translate(-288.752 -66.749)" fill="#fff" fill-rule="evenodd"/>
            <path id="Trazado_994985" data-name="Trazado 994985" d="M321.2,119.53c1.872,15,13.219,21.036,25.346,13.492S366.98,107.2,365.108,92.209s-13.22-21.036-25.346-13.491S319.324,104.536,321.2,119.53" transform="translate(-292.637 -68.815)" fill="#80a8d8" fill-rule="evenodd"/>
            <path id="Trazado_994986" data-name="Trazado 994986" d="M334.825,135.814c1.771,14.184,12.5,19.9,23.973,12.761s19.332-24.42,17.562-38.6-12.5-19.9-23.973-12.76-19.332,24.419-17.562,38.6" transform="translate(-305.079 -85.838)" fill="#fff" fill-rule="evenodd"/>
            <path id="Trazado_994987" data-name="Trazado 994987" d="M369.146,176.818c1.515,12.139,10.7,17.029,20.518,10.921s16.546-20.9,15.03-33.039-10.7-17.029-20.517-10.921-16.546,20.9-15.031,33.039" transform="translate(-336.406 -128.705)" fill="#a0c6e9" fill-rule="evenodd"/>
            <path id="Trazado_994988" data-name="Trazado 994988" d="M407.766,222.954c1.228,9.839,8.673,13.8,16.63,8.852s13.41-16.94,12.182-26.779-8.673-13.8-16.63-8.852-13.411,16.94-12.183,26.779" transform="translate(-371.659 -176.936)" fill="#fff" fill-rule="evenodd"/>
            <path id="Trazado_994989" data-name="Trazado 994989" d="M444.234,266.52c.957,7.665,6.759,10.754,12.958,6.9s10.45-13.2,9.494-20.866-6.759-10.756-12.959-6.9-10.45,13.2-9.493,20.867" transform="translate(-404.946 -222.48)" fill="#a0c6e9" fill-rule="evenodd"/>
            <path id="Trazado_994990" data-name="Trazado 994990" d="M478.561,307.523c.7,5.623,4.957,7.888,9.5,5.059s7.663-9.68,6.961-15.3-4.956-7.887-9.5-5.059-7.663,9.68-6.961,15.3" transform="translate(-436.279 -265.347)" fill="#fff" fill-rule="evenodd"/>
            <path id="Trazado_994991" data-name="Trazado 994991" d="M441.352,164.637c11.471-7.136,19.332-24.419,17.562-38.6-.845-6.772-3.735-11.61-7.77-14.044,4.23,2.357,7.271,7.281,8.142,14.26,1.771,14.183-6.091,31.466-17.562,38.6-5.995,3.729-11.787,3.947-16.2,1.283,4.369,2.433,10,2.125,15.832-1.5" transform="translate(-388.004 -102.116)" fill="#daedf9" fill-rule="evenodd"/>
            <path id="Trazado_994992" data-name="Trazado 994992" d="M481.9,242.031c7.957-4.951,13.411-16.94,12.183-26.779-.589-4.715-2.607-8.076-5.423-9.758,3.012,1.6,5.181,5.053,5.8,9.974,1.228,9.839-4.226,21.829-12.182,26.779-4.144,2.578-8.147,2.734-11.207.906,3.009,1.6,6.858,1.353,10.834-1.122" transform="translate(-429.537 -187.377)" fill="#daedf9" fill-rule="evenodd"/>
            <path id="Trazado_994993" data-name="Trazado 994993" d="M519.409,318.191c4.547-2.829,7.663-9.679,6.961-15.3a7.329,7.329,0,0,0-2.968-5.5c1.735.909,2.988,2.886,3.34,5.714.7,5.621-2.415,12.473-6.961,15.3-2.427,1.51-4.771,1.567-6.535.439,1.715.9,3.9.751,6.163-.655" transform="translate(-467.996 -271.172)" fill="#daedf9" fill-rule="evenodd"/>
            <path id="Trazado_994994" data-name="Trazado 994994" d="M520.43,357.548c.391,3.129,2.758,4.389,5.288,2.813a9.448,9.448,0,0,0,3.874-8.514c-.39-3.129-2.758-4.389-5.288-2.814a9.45,9.45,0,0,0-3.873,8.515" transform="translate(-474.496 -317.642)" fill="#a0c6e9" fill-rule="evenodd"/>
            <path id="Trazado_994995" data-name="Trazado 994995" d="M1063.651,687.62l2.083-.287c1.14-.156,1.045-1.791-.122-2.1l-12.289-3.248Z" transform="translate(-960.458 -621.859)" fill="#a0c6e9" fill-rule="evenodd"/>
            <path id="Trazado_994996" data-name="Trazado 994996" d="M1063.541,687.412l2.083-.286a.944.944,0,0,0,.719-1.363.974.974,0,0,1-.61,1.571l-2.083.287-10.328-5.633.528.139Z" transform="translate(-960.457 -621.86)" fill="#a0c6e9" fill-rule="evenodd"/>
            <path id="Trazado_994997" data-name="Trazado 994997" d="M1183.541,726.343l-.1-.053.83-.115a.905.905,0,0,0,.8-1.068,1.179,1.179,0,0,0-.077-.3l.043.074a.941.941,0,0,1-.722,1.35Z" transform="translate(-1079.107 -660.909)" fill="#fff" fill-rule="evenodd"/>
            <path id="Trazado_994998" data-name="Trazado 994998" d="M569.372,417.064l.056.1A17.1,17.1,0,0,0,574,420.511a39.156,39.156,0,0,0,5.213,2.606c.122.064.034-.078.19-.176a1.181,1.181,0,0,0,.484-1.064c-.024-.193.154-.2.037-.259a45.859,45.859,0,0,0-5.071-2.918,15.493,15.493,0,0,0-5.255-1.912l-.106.012a.292.292,0,0,0-.121.265" transform="translate(-519.172 -380.041)" fill="#80a8d8" fill-rule="evenodd"/>
            <path id="Trazado_994999" data-name="Trazado 994999" d="M680.06,473.013a.474.474,0,0,0,.212.373L724.1,497.307c.114.061.029-.074.179-.168a1.126,1.126,0,0,0,.462-1.016c-.023-.184.148-.186.036-.249l-43.847-23.925a.41.41,0,0,0-.406.046,1.129,1.129,0,0,0-.463,1.018" transform="translate(-620.097 -430.308)" fill="#6e96ce" fill-rule="evenodd"/>
            <path id="Trazado_995000" data-name="Trazado 995000" d="M1177.332,744.4c.047.373.329.523.631.336a1.129,1.129,0,0,0,.463-1.017c-.047-.373-.33-.524-.633-.336a1.126,1.126,0,0,0-.462,1.017" transform="translate(-1073.527 -677.77)" fill="#fff" fill-rule="evenodd"/>
            <path id="Trazado_995001" data-name="Trazado 995001" d="M1064.4,671.849l-10.537-5.663,7.593-.629c2.844-.234,5.04,3.054,3.563,5.337Z" transform="translate(-960.954 -606.867)" fill="#a0c6e9" fill-rule="evenodd"/>
            <path id="Trazado_995002" data-name="Trazado 995002" d="M1062.606,671.506l-10.536-5.663,7.592-.628c2.844-.235,5.041,3.054,3.563,5.336Z" transform="translate(-959.315 -606.555)" fill="#a0c6e9" fill-rule="evenodd"/>
            <path id="Trazado_995003" data-name="Trazado 995003" d="M1052.152,672.2l-.082-.044Zm-.082-.044.36-.029Z" transform="translate(-959.315 -612.873)" fill="#c9daeb" fill-rule="evenodd"/>
            <path id="Trazado_995004" data-name="Trazado 995004" d="M1151.828,672.3h0l.593-.915s.006-.008.008-.013-.006.008-.008.013Zm1.016-3.089a.093.093,0,0,0,0-.019.093.093,0,0,1,0,.019m-.009-.056a3.943,3.943,0,0,0-2.945-3.036h0a3.944,3.944,0,0,1,2.94,3.036" transform="translate(-1048.511 -607.387)" fill="#d3ebef" fill-rule="evenodd"/>
            <path id="Trazado_995005" data-name="Trazado 995005" d="M1062.606,671.505h0l-.073-.038.554-.855c1.428-2.2-.574-5.348-3.274-5.348-.1,0-.191,0-.288.012l-7.374.61-.082-.044.36-.029.433-.036,6.8-.563c.1-.008.194-.012.288-.012a3.53,3.53,0,0,1,.744.08,3.943,3.943,0,0,1,2.945,3.036l.007.037a.1.1,0,0,1,0,.019,3,3,0,0,1-.415,2.161s-.006.008-.008.013l-.593.915Z" transform="translate(-959.315 -606.555)" fill="#a0c6e9" fill-rule="evenodd"/>
            <path id="Trazado_995006" data-name="Trazado 995006" d="M1059.086,692.476l-.134.868c-.354,2.315-3.379,2.772-4.921.747l-5.473-7.189Z" transform="translate(-956.113 -626.341)" fill="#a0c6e9" fill-rule="evenodd"/>
            <path id="Trazado_995007" data-name="Trazado 995007" d="M1057.191,691.059l-.133.869c-.354,2.313-3.377,2.772-4.921.745l-5.471-7.189Z" transform="translate(-954.388 -625.049)" fill="#a0c6e9" fill-rule="evenodd"/>
            <path id="Trazado_995008" data-name="Trazado 995008" d="M1057.186,691.093h0l.005-.034-.107-.056.107.056Zm-10.51-5.6-.011-.006Z" transform="translate(-954.388 -625.05)" fill="#c9daeb" fill-rule="evenodd"/>
            <path id="Trazado_995009" data-name="Trazado 995009" d="M1119.11,751.962a3.042,3.042,0,0,1-1.727-.549h0a3.036,3.036,0,0,0,1.726.549,2.359,2.359,0,0,0,2.43-2.031l.128-.835-.128.835a2.359,2.359,0,0,1-2.43,2.031" transform="translate(-1018.87 -683.053)" fill="#d3ebef" fill-rule="evenodd"/>
            <path id="Trazado_995010" data-name="Trazado 995010" d="M1054.628,693.958a3.043,3.043,0,0,1-1.727-.549,3.445,3.445,0,0,1-.763-.736l-5.471-7.189.011.006,0,0,5.355,7.035a3.14,3.14,0,0,0,2.489,1.285,2.36,2.36,0,0,0,2.432-2.031l.12-.784.007,0,.107.056-.005.034-.128.835a2.358,2.358,0,0,1-2.43,2.031" transform="translate(-954.388 -625.049)" fill="#a0c6e9" fill-rule="evenodd"/>
            <path id="Trazado_995011" data-name="Trazado 995011" d="M1370.2,708.095c-.038.02-.007.481-.238.76-.54-.06-.731.651-.814.9-.166.495.533,1.117,1.051,1.337s1.518-.347,1.678-1.3-.08-1.26-.08-1.26Z" transform="translate(-1248.416 -645.666)" fill="#f4ae92" fill-rule="evenodd"/>
            <path id="Trazado_995012" data-name="Trazado 995012" d="M1333.25,568.4c1.532,1.343,2.554,4.617,3.065,5.766s.106,2.692.053,4.689-.341,2.232-.341,2.232a1.245,1.245,0,0,1-1.435.2,1.724,1.724,0,0,1-.863-1.093l-.11-4.929a12.064,12.064,0,0,1-2.73-3.642,12.744,12.744,0,0,1-1.287-3.78,3.892,3.892,0,0,1,3.649.554" transform="translate(-1212.378 -517.575)" fill="#103e7d" fill-rule="evenodd"/>
            <path id="Trazado_995013" data-name="Trazado 995013" d="M1240.141,943.278c.109.31.4.306.518.937.154.791.233,1.555-.26,1.863a1.238,1.238,0,0,1-1.761-.4c-1.414.19-2.86-1.291-3.053-1.726-.37-.835.179-1.59,1.371-1.218s2.083.72,2.083.72Z" transform="translate(-1126.547 -859.529)" fill="#101e3b" fill-rule="evenodd"/>
            <path id="Trazado_995014" data-name="Trazado 995014" d="M1334.284,892.923c.108.31.4.306.518.936.154.792.232,1.555-.26,1.864a1.239,1.239,0,0,1-1.762-.4,3.708,3.708,0,0,1-3.052-1.726c-.37-.834.178-1.591,1.369-1.218s2.083.72,2.083.72Z" transform="translate(-1212.39 -813.612)" fill="#101e3b" fill-rule="evenodd"/>
            <path id="Trazado_995015" data-name="Trazado 995015" d="M1284.7,512.887a2.135,2.135,0,0,1,2.284.538,1.9,1.9,0,0,1,.679,1.744,5.561,5.561,0,0,1-.394,1.2,8.4,8.4,0,0,1-1.753,1.6,1.571,1.571,0,0,1-1.955.1c-.9-.617-.53-1.939-.4-2.865a2.549,2.549,0,0,1,1.54-2.321" transform="translate(-1169.86 -467.542)" fill="#f4ae92" fill-rule="evenodd"/>
            <path id="Trazado_995016" data-name="Trazado 995016" d="M1318.768,721.934a2.738,2.738,0,0,0-1.263-1.983,9.267,9.267,0,0,0-.42-5.228,4.692,4.692,0,0,0-.455-4.4c-.318.038-.637.066-.957.085-.389.3-.763.632-1.159.911-.509.356-1.073.64-1.567,1.014a2.189,2.189,0,0,0-.9,2.188c.643,2.427,1.018,2.355,2.4,4.94.1.192.019.674.122.891a2.088,2.088,0,0,0,.558.851,27.928,27.928,0,0,1,1.016,6.292c.8.7,2.088,1.054,2.439.146a26.465,26.465,0,0,0,.19-5.713" transform="translate(-1196.336 -647.702)" fill="#072b5d" fill-rule="evenodd"/>
            <path id="Trazado_995017" data-name="Trazado 995017" d="M1260.444,720.5a.175.175,0,0,0-.194-.087,22.645,22.645,0,0,1-5.91.665,76.276,76.276,0,0,0-1.843,9.3c-.082.67-.42,1.863.058,2.509a16.012,16.012,0,0,0,.3,2.644c.2,1.045.826,5.045.915,5.767.42.795,2.14.838,2.242.283.2-1.1.175-2.674.294-3.575a11.205,11.205,0,0,0,.292-3.021,4.091,4.091,0,0,0-1.7-3.063c.037-.044.074-.086.108-.122a12.25,12.25,0,0,0,2.279-3.239,7.85,7.85,0,0,0,.587-1.8,6.622,6.622,0,0,0,.1-.707c.045-.551.029-.575.485-.839a3.991,3.991,0,0,0,2.052-1.877,3.575,3.575,0,0,0-.058-2.835" transform="translate(-1141.896 -656.895)" fill="#072b5d" fill-rule="evenodd"/>
            <path id="Trazado_995018" data-name="Trazado 995018" d="M1266.933,576.893c2.184-.789,2.818-1.2,4.222.046.871.776,1.075,3.276.95,4.585s.106,4.092-.211,4.662c-.259.472-.9.51-.2,1.21.554.554,0,.764-.288,1.265a5.3,5.3,0,0,1-4.179,2.159c-1.839-.022-3.221-.414-3.522-.9s-.28-.9.283-1.466c.378-.383-.287-2.141-.289-3.316,0-.653-.715-1.862-.814-3.888s1.563-3.453,4.049-4.35" transform="translate(-1151.539 -525.35)" fill="#d7e8f7" fill-rule="evenodd"/>
            <path id="Trazado_995019" data-name="Trazado 995019" d="M1253.479,579.613a45.994,45.994,0,0,1-.156,5.578,34.206,34.206,0,0,1-1.013,4.1,8.527,8.527,0,0,0,4.582,1.729,7.625,7.625,0,0,0,4.109-.911,3.83,3.83,0,0,0,.408-1.518,5.329,5.329,0,0,1,.562,1.155,6.56,6.56,0,0,0,1.627-1.709s-1.372-4.437-1.1-7.215c.3-2.99.938-7.191-2.18-7.643a5.983,5.983,0,0,0-4.061,1.29l-2.2,1.26Z" transform="translate(-1141.901 -522.607)" fill="#103e7d" fill-rule="evenodd"/>
            <path id="Trazado_995020" data-name="Trazado 995020" d="M1299.1,543.914a11.805,11.805,0,0,0,.206,1.708,3.111,3.111,0,0,0,.805,1.331.982.982,0,0,1-.523,1.5,2.937,2.937,0,0,1-2.466-.631,5.469,5.469,0,0,0,.281-2.891c-.279-.794,1.7-1.014,1.7-1.014" transform="translate(-1182.762 -495.96)" fill="#f4ae92" fill-rule="evenodd"/>
            <path id="Trazado_995021" data-name="Trazado 995021" d="M1285.23,503.127a.948.948,0,0,1,1.769-.03c.728-.828,2.235-.332,2.83.414a1.187,1.187,0,0,1,.151,1.145.9.9,0,0,1,.644,1.059,1.277,1.277,0,0,1-.664.678.789.789,0,0,1-.017.873c-.664,1.012-1.714,1.774-2.228,2.525a19.63,19.63,0,0,1-1.89-1.613,3.734,3.734,0,0,1-1.113-2.449.663.663,0,0,1-.367-1.006c-.624-.482-.2-1.672.883-1.595" transform="translate(-1170.848 -458.202)" fill="#101e3b" fill-rule="evenodd"/>
            <path id="Trazado_995022" data-name="Trazado 995022" d="M1289.984,576.516a2.516,2.516,0,0,1-1.315.76,15.222,15.222,0,0,0-1.848.271c-.329.2-1,.57-1,.57s2.317.836,3.7.155c1.716-.847.458-1.756.458-1.756" transform="translate(-1172.46 -525.688)" fill="#072b5d" fill-rule="evenodd"/>
            <path id="Trazado_995023" data-name="Trazado 995023" d="M1293.447,547.552a.921.921,0,0,1-.9.985l-.3-1.061s1.127-.979,1.2.076" transform="translate(-1178.319 -498.831)" fill="#f4ae92" fill-rule="evenodd"/>
            <path id="Trazado_995024" data-name="Trazado 995024" d="M1268.187,700.472l-.494.8a8.582,8.582,0,0,0,1.056,1.1c.693.617,1.446,1.227,1.446,1.227l.384-1.072a11.455,11.455,0,0,1-1.528-1.09,7.146,7.146,0,0,1-.864-.957" transform="translate(-1155.928 -638.715)" fill="#072b5d" fill-rule="evenodd"/>
            <path id="Trazado_995025" data-name="Trazado 995025" d="M1117.917,534.393s-2.394-1.768-3.735-2.566-1.756-.742-1.884-.45.576.466.99.713.671.391.671.391-.384.256-.384,1.189.875,1.183,1.525,1.474a8.039,8.039,0,0,1,1.317.792Z" transform="translate(-1014.219 -484.348)" fill="#f4ae92" fill-rule="evenodd"/>
            <path id="Trazado_995026" data-name="Trazado 995026" d="M1164.421,560.735a1.46,1.46,0,0,0-2.05-1.129,3.267,3.267,0,0,1-1.486.157,37.594,37.594,0,0,1-5.189-2.562c-1.066-.671-2.086-1.308-2.849-1.783a2.492,2.492,0,0,0-1.242,2.418c.63.552,2.654,2.265,3.528,2.847,1.557,1.036,5.906,3.195,6.268,3.492,1.025,2.087,2.211,2.43,2.89,1.054a6.5,6.5,0,0,0,.129-4.493" transform="translate(-1050.062 -506.449)" fill="#103e7d" fill-rule="evenodd"/>
            <path id="Trazado_995027" data-name="Trazado 995027" d="M971.867,86.145c2.453-.229,3.324,4.954,3.679,5.865l3.662-1.467c.251.3.7,1.65.188,2.113-1.227.557-3.582,2.544-5.334,2.082-.85-.338-3.233-4.73-3.572-7.594Z" transform="translate(-884.928 -78.543)" fill="#c9e3f6" fill-rule="evenodd"/>
            <path id="Trazado_995028" data-name="Trazado 995028" d="M1065.17,119.486l.533-.1,1.094.01a1.021,1.021,0,0,0,.782-.342l.089-.1c.2-.03.247-.173.338-.356l.317-.346.057-.422-.019-.8c.04-.4-.139-.343-.33-.227l-.073.311-.292.222-.694.458-.073-.734.541-.362.325-.156c.28-.156.177-.362-.095-.325l-.713.18-.991.628c-.17.443-.391.913-.8.982-.31.206-.389,1.479,0,1.479" transform="translate(-971.021 -105.968)" fill="#f4ae92" fill-rule="evenodd"/>
            <path id="Trazado_995029" data-name="Trazado 995029" d="M1088.307,121.616l.292-.222.073-.311c.07-.209.38-.337.33.227l.019.8-.056.422-.317.346c-.091.184-.137.326-.338.356l-.089.1a1.023,1.023,0,0,1-.677.332l.343-1.541a.691.691,0,0,1,.293-.422Z" transform="translate(-991.662 -110.246)" fill="#f4ae92" fill-rule="evenodd"/>
            <path id="Trazado_995030" data-name="Trazado 995030" d="M919.044,410.323a3.046,3.046,0,0,0-.166,1.691c.2.754.917.695,1.526.79,1.176.185,1.761,1.069,3.327,1.067.931,0,1.551-.2,1.746-.791a1,1,0,0,0-.459-.827s-2.133-.956-2.187-.993a11.056,11.056,0,0,1-1.03-.809c-.019-.073-.367-1.709-.367-1.709h-2.3Z" transform="translate(-837.841 -372.706)" fill="#101e3b" fill-rule="evenodd"/>
            <path id="Trazado_995031" data-name="Trazado 995031" d="M906.121,454.564a2.346,2.346,0,0,0-.166,1.379,7.148,7.148,0,0,1,.313.754c.13.455.11,1.213.787,1.667.806.636,2.363.666,2.853-.013a3.571,3.571,0,0,0-.628-1.653l-.791-1.47.05-1.378-2.271-.5Z" transform="translate(-826.043 -413.382)" fill="#101e3b" fill-rule="evenodd"/>
            <path id="Trazado_995032" data-name="Trazado 995032" d="M926.63,227.424v9.216c-.74,2.67-2.168,5.18-2.395,7.849,0,1.126,2.278,1.372,2.853.649.226-2.067,1.974-4.872,3.035-8.137a36.416,36.416,0,0,0,1.089-9.456Z" transform="translate(-842.751 -207.373)" fill="#072b5d" fill-rule="evenodd"/>
            <path id="Trazado_995033" data-name="Trazado 995033" d="M915.14,231.467c.065.939-1.219,3.407-2.688,4.521-.064,2-.324,5.47-.662,7.73a50.4,50.4,0,0,0-2.254,8.457,2.316,2.316,0,0,1-2.243.4.772.772,0,0,1-.143-.061l-.048-.024a.737.737,0,0,1-.42-.662,30.611,30.611,0,0,1,1.24-7.952l-.223-11.862-.006-.331Z" transform="translate(-826.745 -211.06)" fill="#103e7d" fill-rule="evenodd"/>
            <path id="Trazado_995034" data-name="Trazado 995034" d="M911.3,100.61c.077.257-4.036,2.2-5.4,1.548-.513-.245-2.144.337-2.138-3.276l-.9-2.787-.406-5.319a20.123,20.123,0,0,1,4.273-3.494l3.224.152c1.25.887.889,2.1,1.084,3.594,0,0,.405,5.841.613,7.292.133.949-.3,1.438-.354,2.289" transform="translate(-822.891 -79.588)" fill="#c9e3f6" fill-rule="evenodd"/>
            <path id="Trazado_995035" data-name="Trazado 995035" d="M964.149,115.677l-.043.565.494.95a29.778,29.778,0,0,1,.135,6.177l.852,1.44.675-1.626a30.959,30.959,0,0,0-1.148-6.088l-.122-1.366-.4-.419Z" transform="translate(-879.106 -105.145)" fill="#2f73b7" fill-rule="evenodd"/>
            <path id="Trazado_995036" data-name="Trazado 995036" d="M910.172,108.29a7.714,7.714,0,0,1-5.236,1.064,2.016,2.016,0,0,1-1-.425,8.485,8.485,0,0,1-.776-3.945l-.29-1.913-.4-5.32a35.977,35.977,0,0,1,3.047-2.819,50.753,50.753,0,0,1,3.782,6.828A11.1,11.1,0,0,1,910,106.1c.02.523.044,1.055.1,1.6.017.2.043.4.073.6" transform="translate(-822.897 -86.563)" fill="#072b5d" fill-rule="evenodd"/>
            <path id="Trazado_995037" data-name="Trazado 995037" d="M974.5,97.353c-.208-1.451-.3-7.238-.3-7.238-.058-1.729-.265-3.008-1.515-3.894l-1.3.179a31.332,31.332,0,0,1,.946,3.492,10.39,10.39,0,0,1-.51,4.106c-.673,2.253-.142,5.029,1.2,6.348.691-.342,1.152-.625,1.129-.7a3.584,3.584,0,0,0,.354-2.289" transform="translate(-885.741 -78.619)" fill="#072b5d" fill-rule="evenodd"/>
            <path id="Trazado_995038" data-name="Trazado 995038" d="M936,77.591a4.649,4.649,0,0,0-1.5,1.77c-.442,1.555.836,2.355,1.966,3.612l1.026-1.612,1.5.013a8.423,8.423,0,0,0-1.441-2.85Z" transform="translate(-852.028 -70.75)" fill="#fff" fill-rule="evenodd"/>
            <path id="Trazado_995039" data-name="Trazado 995039" d="M1003.743,231.007a1.256,1.256,0,0,0,.151-.061.622.622,0,0,0,.387-.415c.005-.038-.1-.114-.288-.216l-.061-.031a3.814,3.814,0,0,1-.194.533c0,.062,0,.126,0,.191" transform="translate(-915.245 -209.98)" fill="#99b6cf" fill-rule="evenodd"/>
            <path id="Trazado_995040" data-name="Trazado 995040" d="M1002.65,236.547c.034-.01.068-.019.1-.03,0-.065,0-.128,0-.191-.028.062-.058.125-.089.187a.043.043,0,0,1-.007.034" transform="translate(-914.252 -215.49)" fill="#000d1d" fill-rule="evenodd"/>
            <path id="Trazado_995041" data-name="Trazado 995041" d="M1002.616,238.485s0,0,0,0a.043.043,0,0,0,.007-.034.043.043,0,0,1-.01.035" transform="translate(-914.221 -217.427)" fill="#80a9cf" fill-rule="evenodd"/>
            <path id="Trazado_995042" data-name="Trazado 995042" d="M976.261,216.666a3.091,3.091,0,0,0,.779-.089.043.043,0,0,0,.01-.035c.032-.062.061-.125.09-.187a3.836,3.836,0,0,0,.194-.533c-.355-.182-.94-.449-1.585-.77-.385-.193-.792-.4-1.181-.628a6.11,6.11,0,0,0,.829,2.171c.155.025.305.042.451.053s.282.018.414.018" transform="translate(-888.645 -195.519)" fill="#000d1d" fill-rule="evenodd"/>
            <path id="Trazado_995043" data-name="Trazado 995043" d="M882.252,122.543c-1.231,1.744-1.323,3.947-1.859,5.668-.353,1.132.319,1.728,1.428,2.149a18.209,18.209,0,0,0,5.051,1.051c.581-.144,1.149-1.266.73-1.8l-4.474-1.405,1.427-2.811c.417-1.951-.887-4.242-2.3-2.858" transform="translate(-802.688 -111.353)" fill="#c9e3f6" fill-rule="evenodd"/>
            <path id="Trazado_995044" data-name="Trazado 995044" d="M957.112,205.067c-.438-.089-.171-1.528.263-1.485l.49.156a12.5,12.5,0,0,1,1.456-.395l1.185.314.611.32.275.083c.359.055.32.36-.016.437l-.522-.03-.714-.271-.313.148,1.2.917,1.13-.077c.4,0,.4.3.127.382l-.463.14-.259.257-.276.182-.353.154a5.207,5.207,0,0,1-1.533-.245l-1.229-.718Z" transform="translate(-872.525 -185.416)" fill="#f4ae92" fill-rule="evenodd"/>
            <path id="Trazado_995045" data-name="Trazado 995045" d="M988.735,169.189l-1.948,6.014-4.318.323.684-2.325.07-.337.137-.507.181-.883.518-2.062Z" transform="translate(-895.85 -154.273)" fill="#fff" fill-rule="evenodd"/>
            <path id="Trazado_995046" data-name="Trazado 995046" d="M959.863,204.107l-.045.236.1.079-.443,1.655-.086-.024-1.23-.718-1.059-.269c-.436-.09-.17-1.531.263-1.486l.492.156a12.074,12.074,0,0,1,1.458-.395l.711.157Z" transform="translate(-872.518 -185.415)" fill="#f4ae92" fill-rule="evenodd"/>
            <path id="Trazado_995047" data-name="Trazado 995047" d="M989.146,216.738l-.464.139-.26.259-.274.184-.353.152a5.012,5.012,0,0,1-1.447-.222l.443-1.655,1.1.838,1.129-.076c.4,0,.4.3.128.38" transform="translate(-899.388 -196.587)" fill="#f4ae92" fill-rule="evenodd"/>
            <path id="Trazado_995048" data-name="Trazado 995048" d="M942.736,79.353a1.107,1.107,0,0,1-.515.425c-1.446.426-2.379-1.092-2.466-2.2-.077-.978-.146-1.746-.146-1.746l3.319.805s.03.262.047.634a4.977,4.977,0,0,1-.239,2.08" transform="translate(-856.77 -69.148)" fill="#f4ae92" fill-rule="evenodd"/>
            <path id="Trazado_995049" data-name="Trazado 995049" d="M978.377,93.9c.244-.268.308-.844-.016-1.939l-.535.1c.007.186.01.395,0,.61a7.448,7.448,0,0,1,.546,1.228" transform="translate(-891.618 -83.857)" fill="#072b5d" fill-rule="evenodd"/>
            <path id="Trazado_995050" data-name="Trazado 995050" d="M975.4,101.464a.867.867,0,0,0,.205-.025.567.567,0,0,0,.3-.173,7.454,7.454,0,0,0-.546-1.228,3.585,3.585,0,0,1-.244,1.378.906.906,0,0,0,.288.048" transform="translate(-889.142 -91.218)" fill="#fff" fill-rule="evenodd"/>
            <path id="Trazado_995051" data-name="Trazado 995051" d="M960.2,95.11a3.583,3.583,0,0,0,.244-1.378c.005-.215,0-.424,0-.61l-1.681.322s.6,1.388,1.442,1.666" transform="translate(-874.228 -84.913)" fill="#f09172" fill-rule="evenodd"/>
            <path id="Trazado_995052" data-name="Trazado 995052" d="M982.064,57.063l-.112.193,1.53.883v-.258Z" transform="translate(-895.379 -52.032)" fill="#101e3b" fill-rule="evenodd"/>
            <path id="Trazado_995053" data-name="Trazado 995053" d="M943.952,48.726c.041-.38.119-.961-.184-1.2-.47-.37-1.663-.882-3.735.038a2.331,2.331,0,0,0-.723.659.953.953,0,0,0-.259.805,2.539,2.539,0,0,0,.726,2.043,3.425,3.425,0,0,0,1.979,1.085,1.256,1.256,0,0,0,.934.2c.274-.059.538-.32.753-1.008a18.424,18.424,0,0,0,.509-2.617" transform="translate(-856.26 -42.898)" fill="#f4ae92" fill-rule="evenodd"/>
            <path id="Trazado_995054" data-name="Trazado 995054" d="M934.593,27.818c.085.2.3.3.337.142.13-.546.142-1.031,1.348-1.147.672-.065,1.677-.215,1.968-.665a2.035,2.035,0,0,0,.18-1.57,2.521,2.521,0,0,0-2.915-1.7,1.843,1.843,0,0,0-1.207.574.837.837,0,0,0-.874.227c-.937.769-.73,3.233-.421,3.881a4.675,4.675,0,0,0,.832,1.189c-.1-.448-.558-1.375-.07-1.638a.487.487,0,0,1,.559.054c.124.107.2.5.263.653" transform="translate(-850.513 -20.835)" fill="#101e3b" fill-rule="evenodd"/>
            <path id="Trazado_995055" data-name="Trazado 995055" d="M962.055,77.213c-.3,0-.516-.134-.516-.348v-.544c0-.08.1-.168.215-.193l1.082-.232a.307.307,0,0,1,.064-.007c.087,0,.15.042.15.108v.565c-.017.26-.348.536-.755.624a1.152,1.152,0,0,1-.24.026" transform="translate(-876.767 -69.198)" fill="#f09172" fill-rule="evenodd"/>
            <path id="Trazado_995056" data-name="Trazado 995056" d="M992.638,68.5c.058-.4.113-.829.161-1.251l.109-.058.317.184v.364a1.2,1.2,0,0,1-.586.761" transform="translate(-905.123 -61.267)" fill="#f09172" fill-rule="evenodd"/>
            <path id="Trazado_995057" data-name="Trazado 995057" d="M996.017,66.405l-.317-.184.117-.06a.255.255,0,0,1,.116-.034c.052,0,.085.026.085.077Z" transform="translate(-907.915 -60.298)" fill="#101e3b" fill-rule="evenodd"/>
            <path id="Trazado_995058" data-name="Trazado 995058" d="M983.572,69.287c-.17,0-.279-.083-.279-.24V68.5a.355.355,0,0,1,.2-.252l.784-.407c-.047.421-.1.847-.161,1.251q-.058.036-.119.068a.968.968,0,0,1-.426.124" transform="translate(-896.602 -61.862)" fill="#f09172" fill-rule="evenodd"/>
            <path id="Trazado_995059" data-name="Trazado 995059" d="M964.236,66.169a1.22,1.22,0,0,1-.677.8.624.624,0,0,1-.551.083.161.161,0,0,1-.072-.146v-.545a.311.311,0,0,1,.171-.2l1.01-.526c.06-.031.1-.03.114-.022Zm-1.818.893c-.016.253-.335.511-.713.592a.738.738,0,0,1-.6-.079.232.232,0,0,1-.091-.185v-.544c0-.049.074-.119.172-.14l1.082-.232.059-.006.073.022.014.029Zm1.87-1.545a.225.225,0,0,0-.224.018l-1.01.524a.443.443,0,0,0-.216.235.381.381,0,0,0-.365.109.269.269,0,0,0-.227-.041l-1.082.233a.3.3,0,0,0-.257.246v.544a.347.347,0,0,0,.134.275.678.678,0,0,0,.405.131,1.253,1.253,0,0,0,.286-.028c.428-.092.779-.388.8-.674V66.6a.291.291,0,0,1,.294-.106V66.9a.269.269,0,0,0,.127.245.382.382,0,0,0,.191.053,1,1,0,0,0,.47-.13,1.322,1.322,0,0,0,.734-.872v-.569a.126.126,0,0,0-.059-.112" transform="translate(-876.19 -59.721)" fill="#072b5d" fill-rule="evenodd"/>
            <path id="Trazado_995060" data-name="Trazado 995060" d="M952.4,75.208l.093.288.7.4v-.259Z" transform="translate(-868.432 -68.578)" fill="#072b5d" fill-rule="evenodd"/>
          </g>
        </g>
      </g>
    </g>
  </g>
</svg>
