<svg xmlns="http://www.w3.org/2000/svg" width="85" height="85" viewBox="0 0 85 85">
  <g id="Grupo_1179127" data-name="Grupo 1179127" transform="translate(-705 -3707.5)">
    <g id="Grupo_1177830" data-name="Grupo 1177830" transform="translate(705 3707.5)">
      <path id="Trazado_996546" data-name="Trazado 996546" d="M85,42.5A42.5,42.5,0,1,1,42.5,0,42.5,42.5,0,0,1,85,42.5Z" fill="#f0faa0"/>
      <path id="Trazado_996547" data-name="Trazado 996547" d="M75.922,255.439v10.293a.83.83,0,0,1-.83.83H56.83a.83.83,0,0,1-.83-.83V255.439a.83.83,0,0,1,.83-.83H75.092A.83.83,0,0,1,75.922,255.439ZM75.092,240H56.83a.83.83,0,0,0-.83.83v10.293a.83.83,0,0,0,.83.83H75.092a.83.83,0,0,0,.83-.83V240.83A.83.83,0,0,0,75.092,240ZM97.67,254.609H79.408a.83.83,0,0,0-.83.83v10.293a.83.83,0,0,0,.83.83H97.67a.83.83,0,0,0,.83-.83V255.439A.83.83,0,0,0,97.67,254.609Zm0-14.609H79.408a.83.83,0,0,0-.83.83v10.293a.83.83,0,0,0,.83.83H97.67a.83.83,0,0,0,.83-.83V240.83A.83.83,0,0,0,97.67,240Zm23.906,14.609H103.314a.83.83,0,0,0-.83.83v10.293a.83.83,0,0,0,.83.83h18.262a.83.83,0,0,0,.83-.83V255.439A.83.83,0,0,0,121.576,254.609Zm0-14.609H103.314a.83.83,0,0,0-.83.83v10.293a.83.83,0,0,0,.83.83h18.262a.83.83,0,0,0,.83-.83V240.83A.83.83,0,0,0,121.576,240Z" transform="translate(-46.703 -200.156)" fill="#ebf582"/>
      <path id="Trazado_996548" data-name="Trazado 996548" d="M124.7,420a42.5,42.5,0,0,1-65.264,0Z" transform="translate(-49.571 -350.273)" fill="#f2c230"/>
      <path id="Trazado_996549" data-name="Trazado 996549" d="M281.563,20.83V42.412a.83.83,0,0,1-.83.83h-24.9a.83.83,0,0,1-.83-.83V20.83a.83.83,0,0,1,.83-.83h24.9A.83.83,0,0,1,281.563,20.83Z" transform="translate(-212.666 -16.68)" fill="#d29650"/>
      <path id="Trazado_996550" data-name="Trazado 996550" d="M236.5,168.677,195,174.9V150h41.5Z" transform="translate(-162.627 -125.098)" fill="#aa6432"/>
      <path id="Trazado_996551" data-name="Trazado 996551" d="M262.471,43.32H255V40h7.471a.83.83,0,0,1,.83.83v1.66A.83.83,0,0,1,262.471,43.32Z" transform="translate(-212.666 -33.359)" fill="#f7d139"/>
      <path id="Trazado_996552" data-name="Trazado 996552" d="M129.383,439.16a1.66,1.66,0,0,1-1.66,1.66h-16.6a1.66,1.66,0,0,1,0-3.32h16.6A1.66,1.66,0,0,1,129.383,439.16Zm-33.2-1.66H75.513a42.746,42.746,0,0,0,3.752,3.32H96.18a1.66,1.66,0,0,0,0-3.32Z" transform="translate(-62.977 -364.868)" fill="#e3a600"/>
      <path id="Trazado_996553" data-name="Trazado 996553" d="M210.771,189.961H195V180h15.771a.83.83,0,0,1,.83.83v8.3A.83.83,0,0,1,210.771,189.961Z" transform="translate(-162.627 -150.117)" fill="#f63"/>
      <path id="Trazado_996554" data-name="Trazado 996554" d="M101.7,44.141H42.9l-1.346-5.383a1.659,1.659,0,0,0-1.754-1.25c-.051,0-.1-.008-.155-.008H26.627a1.66,1.66,0,0,0,0,3.32H38.645l1.334,5.335,6.532,34.454L43.347,90.1a1.66,1.66,0,1,0,3.15,1.05l2.932-8.8,52.48-6.682a1.66,1.66,0,0,0,1.45-1.647v-9.94h0V45.8A1.66,1.66,0,0,0,101.7,44.141Zm-58.093,3.32h13.1l.835,7.929-12.365.364Zm2.2,11.6L57.892,58.7l.8,7.581L47.368,67.305Zm3.778,19.929-1.593-8.4,11.048-1,.835,7.933c.005.052.014.1.024.155ZM60.047,47.461h13.1c0,.032,0,.065,0,.1l.433,7.36-12.709.374ZM61.22,58.6l12.555-.369.391,6.649L62,65.983Zm1.959,18.651c0-.028,0-.056,0-.085l-.83-7.884L74.361,68.2l.446,7.574ZM76.468,47.461H88.086v7.031L76.9,54.82ZM77.1,58.136l10.99-.323v5.812l-10.611.959Zm1.013,17.217L77.67,67.9l10.416-.941v7.064c0,.02,0,.04,0,.059Zm21.931-2.793-8.633,1.1v-7l8.633-.78Zm0-10.016-8.633.78v-5.61l8.633-.254Zm0-8.406-8.633.254V47.461h8.633Z" transform="translate(-20.85 -31.274)" fill="#414669"/>
      <path id="Trazado_996555" data-name="Trazado 996555" d="M88.472,82.295v3.32a.83.83,0,0,1-.83.83h-49.8a.83.83,0,0,1-.83-.83v-3.32a.83.83,0,0,1,.83-.83h49.8A.83.83,0,0,1,88.472,82.295ZM27.668,30H20.613A3.113,3.113,0,0,0,17.5,33.113h0a3.113,3.113,0,0,0,3.113,3.113h7.056a3.113,3.113,0,0,0,3.113-3.113h0A3.113,3.113,0,0,0,27.668,30Z" transform="translate(-14.595 -25.02)" fill="#f63"/>
      <path id="Trazado_996556" data-name="Trazado 996556" d="M221.523,338.33v11.621a.83.83,0,0,1-.83.83h-3.32a.83.83,0,0,1-.83-.83V338.33a.83.83,0,0,1,.83-.83h3.32A.83.83,0,0,1,221.523,338.33Zm-32.373-.83h-3.32a.83.83,0,0,0-.83.83v11.621a.83.83,0,0,0,.83.83h3.32a.83.83,0,0,0,.83-.83V338.33A.83.83,0,0,0,189.15,337.5Z" transform="translate(-154.287 -281.47)" fill="#ff5019"/>
      <path id="Trazado_996557" data-name="Trazado 996557" d="M208.164,393.311a5.811,5.811,0,1,1-5.811-5.811A5.811,5.811,0,0,1,208.164,393.311ZM170.811,387.5a5.811,5.811,0,1,0,5.811,5.811A5.811,5.811,0,0,0,170.811,387.5Z" transform="translate(-137.607 -323.169)" fill="#501e0f"/>
      <path id="Trazado_996558" data-name="Trazado 996558" d="M218.184,405.82a3.32,3.32,0,1,1-3.32-3.32A3.32,3.32,0,0,1,218.184,405.82ZM183.32,402.5a3.32,3.32,0,1,0,3.32,3.32A3.32,3.32,0,0,0,183.32,402.5Z" transform="translate(-150.117 -335.679)" fill="#b9783d"/>
    </g>
  </g>
</svg>
