<svg xmlns="http://www.w3.org/2000/svg" width="96" height="96" viewBox="0 0 96 96">
  <g id="Grupo_1179130" data-name="Grupo 1179130" transform="translate(-1201 -4381.635)">
    <g id="Grupo_154427" data-name="Grupo 154427" transform="translate(406.961 1461.555)">
      <path id="Elipse_5729" data-name="Elipse 5729" d="M48,0A48,48,0,1,1,0,48,48,48,0,0,1,48,0Z" transform="translate(794.039 2920.081)" fill="#1e3a8a"/>
      <g id="Grupo_1177834" data-name="Grupo 1177834" transform="translate(778.039 2831.049)">
        <path id="Trazado_996572" data-name="Trazado 996572" d="M101.624,117.912H76.414v-3.529a1.013,1.013,0,0,0-1-1H52.608a1,1,0,0,0-1,1v3.529H26.376A1.381,1.381,0,0,0,25,119.3v2.886a1.381,1.381,0,0,0,1.376,1.383h1.033v33.22H26.045a.6.6,0,0,0-.6.6v2.766a.6.6,0,0,0,.6.6h75.934a.6.6,0,0,0,.6-.6V157.38a.6.6,0,0,0-.6-.6h-1.364v-33.22h1.009A1.365,1.365,0,0,0,103,122.181V119.3A1.365,1.365,0,0,0,101.624,117.912Zm-2.2,30.454H88.5v-7.584H99.423Zm0-8.776H88.5v-7.607H99.423ZM76.414,156.784v-7.226h10.9v7.226Zm-3.211,0v-8.776a.6.6,0,0,0-.6-.6H55.417a.6.6,0,0,0-.6.6v8.776H52.8V117.2H75.221v39.587Zm-1.193,0h-16V148.6h16Zm-31.3,0v-7.226h10.9v7.226ZM28.6,131.982h10.92v7.607H28.6Zm0,8.8h10.92v7.584H28.6ZM51.61,139.59h-10.9v-7.607h10.9Zm0,1.193v7.584h-10.9v-7.584Zm0-9.992h-10.9v-7.226h10.9Zm24.8,9.992h10.9v7.584h-10.9Zm0-1.193v-7.607h10.9v7.607Zm0-8.8v-7.226h10.9v7.226ZM52.8,114.573H75.221V116H52.8Zm-26.61,7.608V119.3a.194.194,0,0,1,.183-.191H51.61v3.267H26.376a.194.194,0,0,1-.183-.19Zm13.329,1.383v7.226H28.6v-7.226ZM28.6,149.558h10.92v7.226H28.6Zm72.782,9.992H26.641v-1.574h74.741ZM88.5,156.784v-7.226H99.422v7.226Zm10.92-25.994H88.5v-7.226H99.423Zm2.385-8.609a.179.179,0,0,1-.183.19H76.414V119.1h25.211a.179.179,0,0,1,.183.191Z" transform="translate(0 0)" fill="#e8ebf3"/>
        <path id="Trazado_996573" data-name="Trazado 996573" d="M201.283,154.931c-5.736,0-10.23,2.6-10.23,5.914s4.493,5.914,10.23,5.914,10.206-2.6,10.206-5.914S207.006,154.931,201.283,154.931Zm0,10.636c-4.9,0-9.037-2.163-9.037-4.722s4.139-4.722,9.037-4.722,9.014,2.162,9.014,4.722S206.169,165.567,201.283,165.567Z" transform="translate(-137.271 -34.348)" fill="#e8ebf3"/>
        <path id="Trazado_996574" data-name="Trazado 996574" d="M203.733,258.943h-6.092a.6.6,0,0,0-.6.6v6.176a.6.6,0,0,0,.6.6h6.092a.6.6,0,0,0,.6-.6v-6.176A.6.6,0,0,0,203.733,258.943Zm-.6,6.177h-4.9v-4.984h4.9Z" transform="translate(-142.224 -120.331)" fill="#e8ebf3"/>
        <path id="Trazado_996575" data-name="Trazado 996575" d="M267.642,235.28h-6.115a.6.6,0,0,0-.6.6v6.176a.6.6,0,0,0,.6.6h6.115a.6.6,0,0,0,.6-.6v-6.176A.6.6,0,0,0,267.642,235.28Zm-.6,6.176h-4.923v-4.984h4.923Z" transform="translate(-195.036 -100.77)" fill="#e8ebf3"/>
        <path id="Trazado_996576" data-name="Trazado 996576" d="M218.8,177.769l-.331,2.122h-.047l-.331-2.122h-1.417l-.118,3.887h.968v-2.027h.047l.354,2.027h.992l.378-2.027h.047v2.027h.968l-.118-3.887Z" transform="translate(-158.355 -53.227)" fill="#e8ebf3"/>
        <path id="Trazado_996577" data-name="Trazado 996577" d="M272.927,177.769h-1.063v3.887h1.96l.071-.859h-.968Z" transform="translate(-204.074 -53.227)" fill="#e8ebf3"/>
        <path id="Trazado_996578" data-name="Trazado 996578" d="M259.986,177.769h-1.063v3.887h1.96l.071-.859h-.968Z" transform="translate(-193.376 -53.227)" fill="#e8ebf3"/>
        <path id="Trazado_996579" data-name="Trazado 996579" d="M240.561,177.769l-.708,3.887h.992l.118-.6h.732l.118.6h1.039l-.708-3.887Zm.543,2.552.213-1.383h.047l.212,1.383Z" transform="translate(-177.612 -53.227)" fill="#e8ebf3"/>
      </g>
    </g>
  </g>
</svg>
