<svg xmlns="http://www.w3.org/2000/svg" width="96" height="96" viewBox="0 0 96 96">
  <g id="Grupo_1179131" data-name="Grupo 1179131" transform="translate(2676 7332.859)">
    <g id="Grupo_154427" data-name="Grupo 154427" transform="translate(-3470.039 -10252.939)">
      <path id="Elipse_5729" data-name="Elipse 5729" d="M48,0A48,48,0,1,1,0,48,48,48,0,0,1,48,0Z" transform="translate(794.039 2920.081)" fill="#1e3a8a"/>
      <g id="Grupo_1177835" data-name="Grupo 1177835" transform="translate(807.189 2929.967)">
        <path id="Trazado_996580" data-name="Trazado 996580" d="M164.555,20.6a.922.922,0,0,1-.922-.922h0a5.956,5.956,0,0,1,3.607-5.424,6.483,6.483,0,0,0,3.806-6.171,6.6,6.6,0,0,0-6.237-6.236,6.5,6.5,0,0,0-6.744,6.238q-.005.126,0,.253a.922.922,0,1,1-1.844,0A8.34,8.34,0,0,1,164.555,0q.162,0,.324.006A8.341,8.341,0,0,1,168,15.936a4.133,4.133,0,0,0-2.526,3.746.922.922,0,0,1-.922.922h0Z" transform="translate(-129.931)" fill="#e8ebf3"/>
        <path id="Trazado_996581" data-name="Trazado 996581" d="M64.536,137.255H62.362a.922.922,0,1,1,0-1.844h2.174a1.74,1.74,0,0,0,.718-.158,1.553,1.553,0,0,0,.908-1.489,1.853,1.853,0,0,0-1.117-1.686l-29.932-12.5-29.931,12.5a1.852,1.852,0,0,0-1.117,1.685,1.552,1.552,0,0,0,.91,1.489,1.729,1.729,0,0,0,.716.158H7.865a.922.922,0,0,1,0,1.844H5.691a3.554,3.554,0,0,1-1.476-.322,3.393,3.393,0,0,1-1.993-3.2,3.686,3.686,0,0,1,2.249-3.361l30.287-12.649a.928.928,0,0,1,.711,0l30.287,12.649A3.687,3.687,0,0,1,68,133.737a3.391,3.391,0,0,1-1.991,3.2A3.573,3.573,0,0,1,64.536,137.255Z" transform="translate(-0.49 -98.897)" fill="#e8ebf3"/>
        <path id="Trazado_996582" data-name="Trazado 996582" d="M85.889,247.1H34.132a2.3,2.3,0,0,1-2.292-2.292v-27.54a2.3,2.3,0,0,1,2.292-2.292H85.889a2.3,2.3,0,0,1,2.292,2.292v27.54A2.3,2.3,0,0,1,85.889,247.1Zm-51.757-30.28a.448.448,0,0,0-.448.448v27.54a.448.448,0,0,0,.448.448H85.889a.448.448,0,0,0,.448-.448v-27.54a.448.448,0,0,0-.448-.448Z" transform="translate(-25.387 -180.703)" fill="#e8ebf3"/>
        <path id="Trazado_996583" data-name="Trazado 996583" d="M62.413,295.72h-2.25a.922.922,0,0,1,0-1.844h2.25a.567.567,0,0,0,.411-.222,1.147,1.147,0,0,0,.246-.731c0-.568-.349-.96-.661-.96h-.669a2.67,2.67,0,0,1-2.5-2.8,2.975,2.975,0,0,1,.677-1.93,2.388,2.388,0,0,1,1.819-.875h2.254a.922.922,0,0,1,0,1.844H61.731a.551.551,0,0,0-.409.219,1.143,1.143,0,0,0-.243.728c0,.574.35.966.661.966h.669a2.668,2.668,0,0,1,2.5,2.8,2.974,2.974,0,0,1-.679,1.926A2.4,2.4,0,0,1,62.413,295.72Z" transform="translate(-48.411 -240.701)" fill="#e8ebf3"/>
        <path id="Trazado_996584" data-name="Trazado 996584" d="M111.424,292.214H106.9a.923.923,0,0,1-.922-.921l0-1.71a3.072,3.072,0,0,1,2.921-3.216q.128-.006.257,0h0a3.066,3.066,0,0,1,3.185,2.941q.005.138,0,.276l0,1.71a.923.923,0,0,1-.922.923Zm-3.6-1.845H110.5v-.787a1.258,1.258,0,0,0-1.34-1.374h0a1.36,1.36,0,0,0-.976.357,1.379,1.379,0,0,0-.357,1.015Z" transform="translate(-87.704 -240.703)" fill="#e8ebf3"/>
        <path id="Trazado_996585" data-name="Trazado 996585" d="M106.938,316.848a.923.923,0,0,1-.922-.921l0-3.507a.923.923,0,0,1,.922-.923h4.52a.923.923,0,0,1,.922.921l0,3.506a.922.922,0,0,1-.921.923h0a.923.923,0,0,1-.922-.921l0-2.585h-2.675l0,2.584a.922.922,0,0,1-.921.923Z" transform="translate(-87.732 -261.83)" fill="#e8ebf3"/>
        <path id="Trazado_996586" data-name="Trazado 996586" d="M162.957,295.735H159.94a.923.923,0,0,1-.922-.921l-.008-7.512a.922.922,0,0,1,.921-.923h0a.923.923,0,0,1,.922.921l.007,6.591h2.095a.922.922,0,1,1,0,1.844Z" transform="translate(-132.281 -240.717)" fill="#e8ebf3"/>
        <path id="Trazado_996587" data-name="Trazado 996587" d="M204.365,291.987h-4.386a.923.923,0,0,1-.922-.921l0-3.122a1.618,1.618,0,0,1,.458-1.142,1.385,1.385,0,0,1,.983-.415h3.865a.922.922,0,1,1,0,1.844H200.9l0,1.912h3.465a.922.922,0,1,1,0,1.844Z" transform="translate(-165.939 -240.722)" fill="#e8ebf3"/>
        <path id="Trazado_996588" data-name="Trazado 996588" d="M204.389,315.544h-3.866a1.5,1.5,0,0,1-1.443-1.556l0-3.122a.923.923,0,0,1,.922-.923h4.386a.922.922,0,0,1,0,1.844h-3.463l0,1.912h3.465a.922.922,0,1,1,0,1.844Z" transform="translate(-165.958 -260.523)" fill="#e8ebf3"/>
        <path id="Trazado_996589" data-name="Trazado 996589" d="M272.385,289.606a.922.922,0,0,1-.652-1.574l10.382-10.382a.922.922,0,0,1,1.3,1.3l-10.382,10.382A.92.92,0,0,1,272.385,289.606Z" transform="translate(-226.804 -233.153)" fill="#e8ebf3"/>
        <path id="Trazado_996590" data-name="Trazado 996590" d="M264.231,283.231a2.926,2.926,0,1,1,2.926-2.926A2.926,2.926,0,0,1,264.231,283.231Zm0-4.008a1.082,1.082,0,1,0,1.082,1.082A1.082,1.082,0,0,0,264.231,279.223Z" transform="translate(-218.265 -233.152)" fill="#e8ebf3"/>
        <path id="Trazado_996591" data-name="Trazado 996591" d="M324.524,323.2a2.927,2.927,0,1,1,2.927-2.926A2.927,2.927,0,0,1,324.524,323.2Zm0-4.009a1.082,1.082,0,1,0,1.083,1.083A1.082,1.082,0,0,0,324.524,319.192Z" transform="translate(-268.945 -266.749)" fill="#e8ebf3"/>
        <path id="Trazado_996592" data-name="Trazado 996592" d="M2.559,143.48a.923.923,0,0,1-.356-1.774l13.021-5.438a.923.923,0,0,1,.712,1.7L2.915,143.409A.919.919,0,0,1,2.559,143.48Z" transform="translate(0 -114.482)" fill="#e8ebf3"/>
        <path id="Trazado_996593" data-name="Trazado 996593" d="M403.475,387.739a.922.922,0,0,1-.922-.921h0v-1.973a.922.922,0,1,1,1.844,0v1.973a.922.922,0,0,1-.921.922h0Z" transform="translate(-336.992 -322.707)" fill="#e8ebf3"/>
        <path id="Trazado_996594" data-name="Trazado 996594" d="M403.475,292.215a.922.922,0,0,1-.922-.921h0V278.3a.922.922,0,0,1,1.844,0v12.992a.922.922,0,0,1-.921.922Z" transform="translate(-336.992 -233.152)" fill="#e8ebf3"/>
        <path id="Trazado_996595" data-name="Trazado 996595" d="M98.072,250.563H92.179a.922.922,0,1,1,0-1.844h5.893a.922.922,0,1,1,0,1.844Z" transform="translate(-75.331 -209.062)" fill="#e8ebf3"/>
        <path id="Trazado_996596" data-name="Trazado 996596" d="M214.037,376.886H200.128a.922.922,0,1,1,0-1.844h13.909a.922.922,0,1,1,0,1.844Z" transform="translate(-166.068 -315.244)" fill="#e8ebf3"/>
      </g>
    </g>
  </g>
</svg>
