<svg xmlns="http://www.w3.org/2000/svg" width="96" height="96" viewBox="0 0 96 96">
  <g id="Grupo_1179132" data-name="Grupo 1179132" transform="translate(2436 7332.859)">
    <g id="Grupo_154427" data-name="Grupo 154427" transform="translate(-3230.039 -10252.939)">
      <path id="Elipse_5729" data-name="Elipse 5729" d="M48,0A48,48,0,1,1,0,48,48,48,0,0,1,48,0Z" transform="translate(794.039 2920.081)" fill="#1e3a8a"/>
      <g id="Grupo_1177836" data-name="Grupo 1177836" transform="translate(812.373 2938.273)">
        <g id="money_·_ecommerce_·_shopping_·_cart_·_global">
          <path id="Trazado_996597" data-name="Trazado 996597" d="M78.746,200a22.76,22.76,0,0,0-19.708,34.116.989.989,0,0,0,.86.494h37.7a.965.965,0,0,0,.85-.494A22.744,22.744,0,0,0,78.746,200ZM60.491,212.855h6.635a38.3,38.3,0,0,0-1.226,8.9H58.029A20.554,20.554,0,0,1,60.491,212.855Zm-.01,19.778a20.691,20.691,0,0,1-2.472-8.9H65.93a37.748,37.748,0,0,0,1.246,8.9Zm1.246-21.755a20.844,20.844,0,0,1,10.512-7.842,20.729,20.729,0,0,0-4.519,7.842Zm16.03,21.755H69.2a35.39,35.39,0,0,1-1.305-8.9h9.859Zm0-10.878H67.9a35.208,35.208,0,0,1,1.335-8.9h8.524Zm0-10.878H69.9c1.81-4.846,4.658-8.218,7.862-8.8Zm21.706,10.878H91.592a38.294,38.294,0,0,0-1.226-8.9H97A20.555,20.555,0,0,1,99.463,221.755ZM79.735,202.077c3.2.583,6.052,3.956,7.862,8.8H79.735Zm8.554,30.556H79.735v-8.9h9.859A35.39,35.39,0,0,1,88.289,232.633Zm-8.554-10.878v-8.9h8.524a35.208,35.208,0,0,1,1.335,8.9Zm5.518-18.72a20.844,20.844,0,0,1,10.512,7.842H89.772A20.729,20.729,0,0,0,85.253,203.036Zm11.758,29.6H90.316a37.748,37.748,0,0,0,1.246-8.9h7.921A20.691,20.691,0,0,1,97.011,232.633Z" transform="translate(-49.08 -175.278)" fill="#e8ebf3"/>
          <ellipse id="Elipse_11852" data-name="Elipse 11852" cx="2.5" cy="2" rx="2.5" ry="2" transform="translate(5.667 18.667)" fill="#e8ebf3"/>
          <ellipse id="Elipse_11853" data-name="Elipse 11853" cx="1.5" cy="2" rx="1.5" ry="2" transform="translate(11.667 18.667)" fill="#e8ebf3"/>
          <path id="Trazado_996598" data-name="Trazado 996598" d="M36.855,73.978H28.087l-.139-1.112A.989.989,0,0,0,26.967,72H24.989a.989.989,0,1,0,0,1.978h1.1l.137,1.1v.029l.74,5.917a.989.989,0,0,0,.985.866h6.922a.989.989,0,0,0,.938-.676l1.978-5.933a.989.989,0,0,0-.938-1.3Zm-2.691,5.933h-5.34l-.494-3.956h7.15Z" transform="translate(-21.033 -63.1)" fill="#e8ebf3"/>
          <path id="Trazado_996599" data-name="Trazado 996599" d="M16.811,48H2.967A2.967,2.967,0,0,0,0,50.967V64.811a2.967,2.967,0,0,0,2.967,2.967H8.491l4.655,4.655a.989.989,0,0,0,1.688-.7V67.778h1.978a2.967,2.967,0,0,0,2.967-2.967V50.967A2.967,2.967,0,0,0,16.811,48ZM17.8,64.811a.989.989,0,0,1-.989.989H13.844a.989.989,0,0,0-.989.989v2.557L9.6,66.09a.989.989,0,0,0-.7-.29H2.967a.989.989,0,0,1-.989-.989V50.967a.989.989,0,0,1,.989-.989H16.811a.989.989,0,0,1,.989.989Z" transform="translate(0 -42.067)" fill="#e8ebf3"/>
          <path id="Trazado_996600" data-name="Trazado 996600" d="M210.967,27.956h1.978a.989.989,0,0,1,.989.989.989.989,0,1,0,1.978,0,2.967,2.967,0,0,0-2.967-2.967v-.989a.989.989,0,1,0-1.978,0v.989a2.967,2.967,0,0,0,0,5.933h1.978a.989.989,0,1,1,0,1.978h-1.978a.989.989,0,0,1-.989-.989.989.989,0,1,0-1.978,0,2.967,2.967,0,0,0,2.967,2.967v.989a.989.989,0,0,0,1.978,0v-.989a2.967,2.967,0,0,0,0-5.933h-1.978a.989.989,0,0,1,0-1.978Z" transform="translate(-182.289 -21.033)" fill="#e8ebf3"/>
          <path id="Trazado_996601" data-name="Trazado 996601" d="M176.9,0A8.911,8.911,0,0,0,168,8.9c0,4.57,7.281,14.332,8.109,15.427a.989.989,0,0,0,1.582,0c.831-1.1,8.109-10.86,8.109-15.427A8.91,8.91,0,0,0,176.9,0Zm0,22.066c-2.472-3.431-6.922-10.207-6.922-13.166a6.922,6.922,0,1,1,13.844,0C183.822,11.859,179.372,18.635,176.9,22.066Z" transform="translate(-147.233)" fill="#e8ebf3"/>
          <path id="Trazado_996602" data-name="Trazado 996602" d="M336.811,40H322.967A2.976,2.976,0,0,0,320,42.967V57.8a2.976,2.976,0,0,0,2.967,2.967h1.978v3.956a.976.976,0,0,0,.613.91.829.829,0,0,0,.376.079,1,1,0,0,0,.7-.287l4.648-4.658h5.528a2.976,2.976,0,0,0,2.967-2.967V42.967A2.976,2.976,0,0,0,336.811,40Zm.989,17.8a.989.989,0,0,1-.989.989h-5.933a1.021,1.021,0,0,0-.7.287l-3.253,3.263V59.778a.989.989,0,0,0-.989-.989h-2.967a.989.989,0,0,1-.989-.989V42.967a.989.989,0,0,1,.989-.989h13.844a.989.989,0,0,1,.989.989Z" transform="translate(-280.445 -35.056)" fill="#e8ebf3"/>
          <path id="Trazado_996603" data-name="Trazado 996603" d="M368.9,68.944h-.989V66.967a2.967,2.967,0,0,0-5.933,0v1.978h-.989a.989.989,0,0,0-.989.989v5.933a2.976,2.976,0,0,0,2.967,2.967h3.956a2.976,2.976,0,0,0,2.967-2.967V69.933A.989.989,0,0,0,368.9,68.944Zm-4.944-1.978a.989.989,0,0,1,1.978,0v1.978h-1.978Zm3.956,8.9a.989.989,0,0,1-.989.989h-3.956a.989.989,0,0,1-.989-.989V70.922h5.933Z" transform="translate(-315.5 -56.089)" fill="#e8ebf3"/>
        </g>
      </g>
    </g>
  </g>
</svg>
