<svg xmlns="http://www.w3.org/2000/svg" xmlns:xlink="http://www.w3.org/1999/xlink" width="162.448" height="214.39" viewBox="0 0 162.448 214.39">
  <defs>
    <clipPath id="clip-path">
      <rect id="Rectángulo_454879" data-name="Rectángulo 454879" width="118.984" height="208.52" fill="none"/>
    </clipPath>
  </defs>
  <g id="Grupo_1179118" data-name="Grupo 1179118" transform="translate(5269.464 9719.5)">
    <g id="Grupo_1177051" data-name="Grupo 1177051" transform="translate(-5552.938 -10842.096)">
      <rect id="Rectángulo_401036" data-name="Rectángulo 401036" width="149" height="201" rx="40" transform="translate(284.974 1124.096)" fill="none" stroke="#1e3a8a" stroke-miterlimit="10" stroke-width="3"/>
      <g id="Grupo_1177789" data-name="Grupo 1177789" transform="translate(326.938 1128.466)">
        <path id="Trazado_994544" data-name="Trazado 994544" d="M108.386,0,.987,62.006V188.318l107.4-62.005Z" transform="translate(2.034 0)" fill="#1d76e1"/>
        <path id="Trazado_994545" data-name="Trazado 994545" d="M2.174,60.083V178.039l100.294-57.9V2.179Z" transform="translate(4.481 4.491)" fill="#d7eaf7"/>
        <g id="Grupo_1177788" data-name="Grupo 1177788" transform="translate(0 0)">
          <g id="Grupo_1177787" data-name="Grupo 1177787" clip-path="url(#clip-path)">
            <path id="Trazado_994546" data-name="Trazado 994546" d="M7.817,91.583c.037-.854,1.1-1.433,1.417-2.1s.738-1.864,1.249-2.008a3.412,3.412,0,0,0,1.39-.575c.367-.324,1.05-1.625,1.757-2.262a14.644,14.644,0,0,1,2.3-1.592c.621-.358,1.445-1.249,1.9-1.286s.4.11.511.575-.34,1.142-.425,1.644.227.664.68.478,1.42-.781,1.674-.474.055,1.215.539.973a3.493,3.493,0,0,1,1.332-.542c.343.031.851-.263.937-1.108a1.552,1.552,0,0,1,.823-1.38,4.08,4.08,0,0,1,2.381-.582,1.934,1.934,0,0,0,2.014-.973c.594-.722.793-.383,1.417-.744s.707-.673.992-1.821a6.745,6.745,0,0,0,.113-2.559c-.055-.612-.594-.526-.992.006s-.964.9-1.276.661-.086.2-.71.673-1.1.223-1.53-.4.086-1.448-.707-1.481-1.108.563-1.39,1.065.083.707.34,1.013-.285,1.224-.6,1.518-.425-.624-.738-.937a4.847,4.847,0,0,1-.964-1.6c-.254-.686-.621-.624-1.191-.976a2.248,2.248,0,0,0-1.558-.462c-.4.116-.511.56-.37,1.12a1.85,1.85,0,0,0,1.448,1.169c.624.095,1.019.015.878.438a5.832,5.832,0,0,1-.594,2.008c-.484.695-.995.989-1.022.7s.511-.75.6-1.328-.2-.413-.823-.658a3.749,3.749,0,0,1-1.644-1.093c-.257-.419-.425-.661-.964.178s-.823,1.117-1.42,1.273-.934.275-1.077.774.031,1-.453,1.469a4.488,4.488,0,0,0-1.163,1.846c-.227.735.171.658-.227,1.527a3.748,3.748,0,0,1-1.05,1.552,4.51,4.51,0,0,0-1.077.964c-.312.444-.453.07-.964.254s-.82.7-.934.312A5.385,5.385,0,0,1,8.782,84.6c.227-1-.028-1.76.141-2.5a1.419,1.419,0,0,1,1.39-1.028,2.885,2.885,0,0,0,2.014-1.276c.254-.676.511-2.109.113-2.372s-1.05-.113-1.05-.643.71-.673.937-1.1a22.661,22.661,0,0,0,1.843-2.388A16.008,16.008,0,0,1,15.9,70.205c.6-.722.851-.376,1.136-.958s-.285-.817.141-1.935.624-1.457.937-1.295a.921.921,0,0,1,.254,1.252c-.282.579-.511,1.353.031.964a11.954,11.954,0,0,1,1.87-1.081,6.527,6.527,0,0,0,2.014-1.769c.621-.774.312-1.237.68-2.317a3.388,3.388,0,0,0-.119-2.314c-.135-.563-.6-.823,0-1.7a10.855,10.855,0,0,0,1.423-2.259c.2-.643-.566-.315-1.1,0s-.624,1.3-1.136,1.977A3.9,3.9,0,0,0,21,60.6c-.171.854-.171,1.2.086,1.276s.425.888.028,1.534-.113,1.2-.566,1.687-.738.995-1.05.719-.851-.606-.937-1.16-.282-.594-.68.052-1.163,1.39-1.475,1.3-.566-.275-.481-1.007-.2-1.133.168-1.647a22.582,22.582,0,0,0,1.729-2.02,29.5,29.5,0,0,0,2.1-4.01A13.786,13.786,0,0,1,22,54.3a5.808,5.808,0,0,1,2.3-1.956c.823-.239,2.072-.392,2.752-.673s1.757-.71,2.127-.205a1.234,1.234,0,0,1-.34,1.671c-.539.386-1.022.664-1.448.986s.2.407.34.952.511.94.937.465A2.906,2.906,0,0,0,29.4,53.68c-.113-.389.055-1.509.511-1.583A5.854,5.854,0,0,0,31.95,51c.594-.5,2.58-2.4,3.119-2.972A14.882,14.882,0,0,0,36.26,46.1c.34-.471,1.445-1.641,2.042-1.644s1.558-.294,1.53-.885-.367-.618-.34-1.316a5.625,5.625,0,0,1,.34-2.577,2.564,2.564,0,0,1,1.616-.934,3.553,3.553,0,0,0,1.873-1.57c.2-.646.055-1.206.453-1.662s1.191-.875,1.5-1.549.113-1.047.624-1.833,1.218-2.746,1.87-3.049a3.317,3.317,0,0,0,1.616-1.423c.425-.738.144-1.858.823-2.516s.906-.563,1.191-.046.937.1,1.558-.257.851.266,1.191.484.23.551-.083,1.335-.285,1.185.453.986a14.128,14.128,0,0,0,3.658-1.959c.906-.75,1.5-1.019,1.561-1.7s.2-.833,1.133-1.3,1.729-.165,1.815.352a4.9,4.9,0,0,0,.285,1.953c.367.618.964.126,1.077-.242a3.071,3.071,0,0,1,1.05-1.289,3.451,3.451,0,0,0,1.191-2.084c.227-1,.367-1.007.906-1.129s1.53-.242,1.87.205.882,1.117,1.39.634,1.136-.958,1.815-1.5,1.191-.652,1.39-.312.227.927,1.163.2a13.743,13.743,0,0,1,2.58-1.867c.68-.242.511-.94,1.077-1.607a10.976,10.976,0,0,1,2.752-2.118c.621-.245,2.1-.53,2.721-.814a13.164,13.164,0,0,0,2.525-1.344c.765-.594,1.019-.174,1.757-.75A23.586,23.586,0,0,1,90.306,9.1c.624-.321.909-.637,1.05,0s-.171,1-.285,1.561.37,1.491-.055,2.075a2.259,2.259,0,0,1-1.873.854c-.425-.132-.735.086-1.276.585a6.006,6.006,0,0,0-.906.866c-.312.407-.2.906-.425,1.53a2.172,2.172,0,0,0-.086,1.864c.34.484.909.419.851.833s-.425.435-.906,1.393-1.417,3.691-1.729,3.949-.738-.067-1.249.683-1.163,1.047-1.218,1.534-.312,1.451.055,1.359a1,1,0,0,1,1.221.741,3.354,3.354,0,0,1-.086,2.394c-.37.894-.37,2.1-.878,2.736s-.511.257-.738-.67a21.994,21.994,0,0,1-.683-3.8c-.028-1.12.312-2.978.2-3.254s-.34.159-.793.383-.909-.5-1.362.22.171,1.791-.113,2.559-.594.722-.937.615a3.013,3.013,0,0,0-2.011.937c-.823.7-1.959,1.129-2.155,1.736s-.144,1.178-.4,2.234-.566,1.876-.058,1.809,1.022.695,1.561.046.992-.952,1.445-.875.539,2,.624,2.7a9.512,9.512,0,0,1-.028,3c-.367,1.2-.171,1.8-.71,2.339s-.82-.055-1.16.444a1.613,1.613,0,0,0-.2,1.475c.168.205.083.52,0,1.059s.227.438.735.634.823.771,1.05,1.1.2.643-.282,1.261-.823.171-1.077-.288-.964-.575-1.335-1.157-.793-.79-1.218-.242-.851.793-1.136.352-.511-.006-.652.6.285,1.31.683,1.234,1.074-.774,1.359-.71.2.376-.141,1.065-.6,1.365.055,1.555,1.307,1.628,1.534,2.066.028,1.041-.227,2.323a11.133,11.133,0,0,1-1.108,3.624,39.876,39.876,0,0,1-2.522,3.122c-.4.569-1.39.272-1.873,1.081a4.917,4.917,0,0,0-.934,2.241,2.195,2.195,0,0,0,1.246,1.889c.765.465.624,1,.8,1.925a2.068,2.068,0,0,1-.343,1.935c-.481.808-.621,1.53-1.246,1.7s-1.53-.931-1.987-1.047-.82-.432-.934.315a11.575,11.575,0,0,0-.34,2.651c.141.337.481.331.508.955s.2,1.019.569.845.621.245.934.444.144,1.582.34,2.109.511.612.23,1.081-1.307.034-1.561-.612-.312-2.014-.68-2.443-1.108-.912-1.108-1.895a21.57,21.57,0,0,0-.227-4.255c-.282-1.047-.652-1.022-.937-.6s-.621,1.23-.878,1.038.113-1.387-.282-1.69a4.9,4.9,0,0,1-1.191-1.39c-.285-.517-.257-.949-.823-.395a8.092,8.092,0,0,1-1.815,1.35c-.566.291-.254.563-.624,1.38S56.5,74.1,56.082,75.213a25.3,25.3,0,0,1-1.249,2.308c-.37.817-.086.729-.028,1.527a8.217,8.217,0,0,1-.312,3.2c-.4,1.062-.683,2.133-1.108,1.925s-.367-.735-.878-1.65a21.934,21.934,0,0,1-1.359-3.486,15.807,15.807,0,0,1-.511-3.07c-.058-.686-.141-.523-.539-.141a.964.964,0,0,1-1.136.239c-.395-.15-.227-.361-.425-.738a2.4,2.4,0,0,0-1.616-.882,3.649,3.649,0,0,0-1.7.68c-1.047.606-2.238,1.595-2.749,1.209s-.484-.3-1.276.162-1.5.572-1.928.064-.71-1.295-1.332-.82-1.108.9-.71,1.506,1.133,1.01,1.3,1.515.425.891.878.817a2.936,2.936,0,0,0,1.589-1.408c.4-.722.594-.836.992-.5s.484.554.995.487,1.047-.153.765.692-.909,2.112-1.05,2.8a4.745,4.745,0,0,1-1.022,1.913,12.319,12.319,0,0,1-1.332,1.714c-.453.453-1.191,1.595-2.069,2.746s-1.815,2.372-2.186,2.357-.508-.536-.539-1.24a6.329,6.329,0,0,0-1.276-2.476c-.34-.407-.738-.407-1.019-.735s-.171-1.111-.312-1.4a2.359,2.359,0,0,0-.738-.976c-.425-.321-.481-.833-.851-1.368s-.594-.67-.964-.23-.141,1.065.227,1.837.4,1.546.738,1.843.624.318.68.931-.141,1.276.312,1.475.768.245.8.759a1.46,1.46,0,0,0,.566,1.3,3.3,3.3,0,0,1,1.5,1.515c.2.68.2,1.472.878.927a10.613,10.613,0,0,0,2.326-2.173c.624-.927.937-.995,1.019-.514a18.243,18.243,0,0,1-.82,3.765A16.562,16.562,0,0,1,37.2,97.836a29.575,29.575,0,0,0-1.674,2.819c-.285.732-.851,1.775-1.5,3.627s-1.191,2.541-.937,3.489a17.78,17.78,0,0,0,.8,2.452,14.6,14.6,0,0,1-.058,3.1c-.028,1.035.144,1.693-.481,2.47a13,13,0,0,0-1.729,2.55,5.027,5.027,0,0,0-.823,2.213,2.63,2.63,0,0,1,.2,1.662c-.113.86.113.805-.6,1.742a4.48,4.48,0,0,0-.851,2.381c-.227,1.041-1.191,3.26-1.53,4.325a8.912,8.912,0,0,1-2.213,3.281,5.637,5.637,0,0,0-2.238,1.295c-.768.894-.937,1.218-1.307.753s-.113-1.032-.113-1.6-1.417-2.057-1.644-3.248,0-3.177-.227-3.538-1.475-2.21-1.362-3.447a30.945,30.945,0,0,1,.937-4.246,6.675,6.675,0,0,0-.141-2.792,21.981,21.981,0,0,0-1.05-2.648c-.254-.683-1.3-1.212-1.332-1.913s.453-2.078.508-2.792,0-1.286-.453-1.478-1.1.563-1.589.465-.367-1.111-.934-.9a7.4,7.4,0,0,0-2.3,1.931c-.566.744-1.644,1.781-2.014,1.653s-1.246.909-1.586,1.182-1.022.364-1.9-.227a11.123,11.123,0,0,1-1.644-1.356,9.581,9.581,0,0,1-1.276-1.76,2.923,2.923,0,0,1-.343-2.489c.285-.955.8-2.5.542-3.22s-.484-.478-.37-1.451a47.984,47.984,0,0,1,1.53-5.014c.257-.784,1.163-1.42,1.448-1.849a8.08,8.08,0,0,0,.878-3.682" transform="translate(7.539 17.988)" fill="#1d76e1"/>
            <path id="Trazado_994547" data-name="Trazado 994547" d="M17.7,41.686c-.52.159-1.059,2.069-1.892,3.092s-.869.7-1.172,1.977.153,1.579,0,2.323-.83,1.641-.68,2.406.493,2.039,1.172,1.341,1.286-2.66,1.852-4.5a24.473,24.473,0,0,0,1.059-5.6c-.113-.542.113-1.172-.34-1.041" transform="translate(28.711 85.875)" fill="#1d76e1"/>
            <path id="Trazado_994548" data-name="Trazado 994548" d="M28.324,17.128c-.459.021-.367.627-.453,1.472a5.521,5.521,0,0,0,.227,2.666A10.288,10.288,0,0,1,29,22.934c.113.5.456-.07.6-.569s-.285-.478-.566-.695-.2-.716,0-1.322a7.562,7.562,0,0,0-.058-2.388c-.055-.646-.227-.851-.652-.833" transform="translate(57.326 35.296)" fill="#1d76e1"/>
            <path id="Trazado_994549" data-name="Trazado 994549" d="M28.646,19.64c-.447.26-.312.86-.113,1.163s-.064.906-.034,1.341.373-.178.658-.683a3.3,3.3,0,0,0,.652-1.433c.141-.8.113-1.142-.257-.94s-.713.441-.906.551" transform="translate(58.422 39.224)" fill="#1d76e1"/>
            <path id="Trazado_994550" data-name="Trazado 994550" d="M30.628,20.057c-.285.018-.732.686-.551.961a4.092,4.092,0,0,1,.254,1.325,3.184,3.184,0,0,1-.468,1.295c-.141.233-.285,1.221-.8,1.478s-.735.878-1.077,1.6.227.551.312,1.182.312,1.028.456.759.453-2.192.934-2.544.7-1.16,1.157-1.953,1.056-1.252.915-1.889-.4-1.286-.484-1.876-.285-.367-.652-.343" transform="translate(57.462 41.207)" fill="#1d76e1"/>
            <path id="Trazado_994551" data-name="Trazado 994551" d="M23.293,32.491a.54.54,0,0,0,.058.952,8.034,8.034,0,0,1,1.671,1.794c.312.5,1.249,1.736,1.644,2.375s1.249,1.246,1.475,1.191a3.62,3.62,0,0,0,.484-2.167c-.113-.615-.765-.958-.964-1.524s-.113-.765-.71-1.139-.952-.021-1.433-.649-1.062-1.429-2.225-.833" transform="translate(47.472 66.527)" fill="#1d76e1"/>
            <path id="Trazado_994552" data-name="Trazado 994552" d="M29.305,29.877c-.392.052-.566,1.5-.992,2.161s-1.05,2.495-1.448,2.651-.028.771-.395,1.059-.484-.4-.823.061-.141,1.252.141,2.262.285,1.613,1.077,1.3,2.326-1.151,2.44-2.051,1.1-3.321.823-3.988a2.156,2.156,0,0,1-.171-1.983c.367-.664.028-1.564-.652-1.475" transform="translate(52.489 61.561)" fill="#1d76e1"/>
            <path id="Trazado_994553" data-name="Trazado 994553" d="M26.991,36.589a2.052,2.052,0,0,0-1.644.306c-.456.376-.569,1.16-.2,1.362a5.813,5.813,0,0,0,2.978-.432,12.539,12.539,0,0,0,2.92-1.384,4.312,4.312,0,0,1,1.983-1.08c.257.049.738.132,1.276-.738s1.39-2.176.569-1.785-2.923,2.36-4,2.715-3.061,1.24-3.884,1.035" transform="translate(51.372 67.531)" fill="#1d76e1"/>
            <path id="Trazado_994554" data-name="Trazado 994554" d="M30.108,30.447c-.19-.337-.159.774-.7.787a1.737,1.737,0,0,0-1.622.805,14.106,14.106,0,0,0-.453,2.51,2.932,2.932,0,0,0-.113,1.665c.086.432.086,1.6.312,1.68s.511-1.145.793-1.347.373.239.882.171.257-1.148,0-1.653a1.916,1.916,0,0,1,0-1.671c.254-.45-.5-.168-.575-.652s.744-.355,1.224-.934.514-.909.257-1.362" transform="translate(55.941 62.617)" fill="#1d76e1"/>
            <path id="Trazado_994555" data-name="Trazado 994555" d="M30.12,30.714a.593.593,0,0,0-.943.658c.178.615.459,1.246.943,1.117s.285.631.453,1.062.71.236,1.5-.073,1.221-.061,1.3.569-.707,1.433-.707,1.809.227-.018.707-.334.909.309,1.475.018.992-1.778,1.616-2.253,1.1-.11,1.362.536.441.539,1.028.086.077-.839-.263-1.625-.511-1.938-.964-2.354-1.448.077-2.069-.092-1.959-.193-2.326.435A12.216,12.216,0,0,1,32.1,32.337c-.425.425-.539.227-.707-.318s.086-1.445-.171-1.583-.793.551-1.1.279" transform="translate(60.071 61.284)" fill="#1d76e1"/>
            <path id="Trazado_994556" data-name="Trazado 994556" d="M27.994,26.524c-.318-.551-.624.551-.808,1.791a3.533,3.533,0,0,0,.383,2.5c.312.5.793.79,1.05,1.549a10.387,10.387,0,0,1,.624,1.794,1.5,1.5,0,0,0,1.065,1.276c.493.168.579-.863.75-1.907s-.223-1.384-.367-2.057.227-1.377-.542-1.54-2.032.38-1.965-.606a6.473,6.473,0,0,0-.19-2.8" transform="translate(55.9 54.363)" fill="#1d76e1"/>
            <path id="Trazado_994557" data-name="Trazado 994557" d="M38.5,37.373c-.328-.419.037-.931.19-1.521s-.077-.888-.774-.762a4.411,4.411,0,0,0-1.788,1.182c-.484.407-.67,1.423-.86,1.886s-.624,1.215-.964.983-.661-.3-1.1.205a6.772,6.772,0,0,0-.891,1.6,7.506,7.506,0,0,1-.924,1.341,1.711,1.711,0,0,0-.569,1.338,2.281,2.281,0,0,1-.661,1.693c-.53.631-1.567,1.687-2.268,2.394A12.377,12.377,0,0,0,26.1,50.483a8.036,8.036,0,0,0-.321,2.476,20.11,20.11,0,0,0,.132,2.951,10.772,10.772,0,0,1,.282,2.357c-.113.643-.373,1-.432,1.433s.64.664,1.038.358.888-1.191,1.558-1.592,1.163-.2,1.506-.866.83-1.653,1.359-1.757.964-.582,1.625-1.218,1.325-.888,1.684-.542.756,1.53,1.059,1.38,1.3-1.561,1.549-1.5.683.692.833,1.209a11.073,11.073,0,0,0,.53,1.76c.208.358,1.757-.386,1.87-.4a5.525,5.525,0,0,0,1.684-.817c.416-.392,1.3-1.788,1.7-2.244s.321-1.169.585-2.026,1.114-4.1,1.5-5.859a19.1,19.1,0,0,0,.579-4.065c-.077-.487-.643-.787-.927-1.558s-.643-1.469-.719-1.879-.435-.376-.716-.667-.7-.227-.661-1.659-.833-1.286-.927-1.886-.058-2.287-.511-1.647a4.788,4.788,0,0,0-.585,2.253,8.561,8.561,0,0,1-.456,3.012c-.223.453-.5.667-.943.621a2.642,2.642,0,0,1-1.475-.738" transform="translate(53.087 66.119)" fill="#1d76e1"/>
            <path id="Trazado_994558" data-name="Trazado 994558" d="M35.958,35.965c-.343.168-.141,1.328,0,2a3.985,3.985,0,0,1-.34,2.464,9.275,9.275,0,0,0-1.05,1.855,38.085,38.085,0,0,1-1.5,3.587,9.42,9.42,0,0,0-1.077,2.7c0,.3.6.187.906.309s.937-1.488,1.42-2.559.707-2.565,1.218-2.9.738-1.182,1.05-2.042.992-1.781.964-2.256-.652-.266-.8-1.093-.367-2.283-.793-2.075" transform="translate(65.925 74.078)" fill="#1d76e1"/>
            <path id="Trazado_994559" data-name="Trazado 994559" d="M56.606,118.2l-1.151,1.824-1.071-.542-24.634-95.9L31.971,22.3Z" transform="translate(61.311 45.956)" fill="#35212d"/>
            <path id="Trazado_994560" data-name="Trazado 994560" d="M56.955,118.381l-2.222,1.283L30.1,23.758l2.222-1.283Z" transform="translate(62.03 46.32)" fill="#4f3745"/>
            <path id="Trazado_994561" data-name="Trazado 994561" d="M41.143,30.833,27.865,38.684l-.337-.989,13.336-7.885Z" transform="translate(56.733 61.437)" fill="#4f3745"/>
            <path id="Trazado_994562" data-name="Trazado 994562" d="M41.563,29.973,28.285,37.824l-1.09-.208,13.336-7.885Z" transform="translate(56.047 61.273)" fill="#0049b2"/>
            <path id="Trazado_994563" data-name="Trazado 994563" d="M40.218,27.254,26.939,35.106l-.337-.989,13.336-7.885Z" transform="translate(54.826 54.062)" fill="#4f3745"/>
            <path id="Trazado_994564" data-name="Trazado 994564" d="M40.638,26.395,27.363,34.246l-1.093-.208,13.336-7.885Z" transform="translate(54.14 53.898)" fill="#0049b2"/>
            <path id="Trazado_994565" data-name="Trazado 994565" d="M42.993,37.99,29.718,45.841l-.34-.989,13.336-7.885Z" transform="translate(60.546 76.187)" fill="#4f3745"/>
            <path id="Trazado_994566" data-name="Trazado 994566" d="M43.413,37.13,30.135,44.981l-1.09-.208,13.336-7.885Z" transform="translate(59.861 76.023)" fill="#0049b2"/>
            <path id="Trazado_994567" data-name="Trazado 994567" d="M42.068,34.411,28.79,42.263l-.337-.989L41.79,33.389Z" transform="translate(58.64 68.812)" fill="#4f3745"/>
            <path id="Trazado_994568" data-name="Trazado 994568" d="M42.488,33.552,29.21,41.4l-1.09-.208L41.457,33.31Z" transform="translate(57.954 68.648)" fill="#0049b2"/>
            <path id="Trazado_994569" data-name="Trazado 994569" d="M43.918,41.568,30.64,49.42l-.337-.989L43.64,40.546Z" transform="translate(62.453 83.562)" fill="#4f3745"/>
            <path id="Trazado_994570" data-name="Trazado 994570" d="M44.339,40.709,31.063,48.56l-1.093-.208,13.336-7.885Z" transform="translate(61.767 83.398)" fill="#0049b2"/>
            <path id="Trazado_994571" data-name="Trazado 994571" d="M44.844,45.147,31.565,53l-.337-.989,13.336-7.885Z" transform="translate(64.36 90.937)" fill="#4f3745"/>
            <path id="Trazado_994572" data-name="Trazado 994572" d="M45.264,44.287,31.989,52.138,30.9,51.93l13.336-7.885Z" transform="translate(63.674 90.773)" fill="#0049b2"/>
            <path id="Trazado_994573" data-name="Trazado 994573" d="M45.771,48.725,32.493,56.577l-.34-.989L45.492,47.7Z" transform="translate(66.265 98.312)" fill="#4f3745"/>
            <path id="Trazado_994574" data-name="Trazado 994574" d="M46.189,47.865,32.914,55.717l-1.093-.208,13.336-7.885Z" transform="translate(65.581 98.148)" fill="#0049b2"/>
            <path id="Trazado_994575" data-name="Trazado 994575" d="M46.685,52.3,33.406,60.155l-.337-.989,13.336-7.885Z" transform="translate(68.154 105.687)" fill="#4f3745"/>
            <path id="Trazado_994576" data-name="Trazado 994576" d="M47.1,51.444,33.826,59.3l-1.09-.208L46.073,51.2Z" transform="translate(67.468 105.523)" fill="#0049b2"/>
            <path id="Trazado_994577" data-name="Trazado 994577" d="M51.572,121.153l-1.151,1.824-1.071-.542-24.634-95.9,2.222-1.283Z" transform="translate(50.937 52.034)" fill="#35212d"/>
            <path id="Trazado_994578" data-name="Trazado 994578" d="M51.921,121.33,49.7,122.613l-24.634-95.9,2.219-1.283Z" transform="translate(51.657 52.399)" fill="#4f3745"/>
            <path id="Trazado_994579" data-name="Trazado 994579" d="M28.006,25.79l-1.068-.542-2.222,1.283,1.068.542Z" transform="translate(50.936 52.035)" fill="#0049b2"/>
            <path id="Trazado_994580" data-name="Trazado 994580" d="M30.817,24.123l-1.068-.542L31.971,22.3l1.068.542Z" transform="translate(61.311 45.956)" fill="#0049b2"/>
            <path id="Trazado_994581" data-name="Trazado 994581" d="M39.258,16.521a37.548,37.548,0,0,0-.673-4.94L36.7,10.488c-.077-.043-.15-.092-.23-.132l-.028-.015v0a4.9,4.9,0,0,0-4.683.508c-4.141,2.391-7.5,8.806-7.5,14.325a9.287,9.287,0,0,0,.768,3.946c.092.2,5.2,10.888,5.2,10.888l1.7.986.211-3.508s5.3-12.43,6.174-15.583a21.873,21.873,0,0,0,.94-5.384" transform="translate(50.004 20.518)" fill="#f79e00"/>
            <path id="Trazado_994582" data-name="Trazado 994582" d="M39.813,16.846c0-5.522-3.358-8.059-7.5-5.669s-7.5,8.806-7.5,14.328a9.272,9.272,0,0,0,.768,3.942c.092.2,5.2,10.888,5.2,10.888.214-.174,6.9-13.826,8.084-18.105a21.731,21.731,0,0,0,.94-5.384" transform="translate(51.148 21.18)" fill="#fdd03e"/>
            <path id="Trazado_994583" data-name="Trazado 994583" d="M25.666,21.828c0,3.829,2.329,5.589,5.2,3.933s5.2-6.11,5.2-9.939-2.329-5.589-5.2-3.93-5.2,6.107-5.2,9.936" transform="translate(52.896 23.222)" fill="#fff"/>
            <path id="Trazado_994584" data-name="Trazado 994584" d="M28.926,24.347a37.548,37.548,0,0,0-.673-4.94l-1.886-1.093c-.077-.043-.15-.092-.23-.132l-.024-.015,0,0a4.911,4.911,0,0,0-4.683.508c-4.141,2.391-7.5,8.806-7.5,14.325a9.277,9.277,0,0,0,.768,3.946c.092.2,5.2,10.888,5.2,10.888l1.7.983.211-3.5s5.3-12.43,6.174-15.583a21.874,21.874,0,0,0,.94-5.384" transform="translate(28.711 36.65)" fill="#f79e00"/>
            <path id="Trazado_994585" data-name="Trazado 994585" d="M29.481,24.673c0-5.522-3.358-8.059-7.5-5.669s-7.5,8.806-7.5,14.328a9.224,9.224,0,0,0,.771,3.942c.089.2,5.2,10.888,5.2,10.888.211-.174,6.9-13.826,8.081-18.105a21.874,21.874,0,0,0,.94-5.384" transform="translate(29.855 37.311)" fill="#fdd03e"/>
            <path id="Trazado_994586" data-name="Trazado 994586" d="M15.335,29.655c0,3.829,2.329,5.589,5.2,3.933s5.2-6.11,5.2-9.939-2.329-5.589-5.2-3.93-5.2,6.107-5.2,9.936" transform="translate(31.604 39.353)" fill="#fff"/>
            <path id="Trazado_994587" data-name="Trazado 994587" d="M23.147,38.647a37.548,37.548,0,0,0-.673-4.94l-1.886-1.093c-.077-.043-.15-.092-.227-.132l-.028-.015,0,0a4.9,4.9,0,0,0-4.683.508c-4.138,2.391-7.5,8.806-7.5,14.325a9.287,9.287,0,0,0,.768,3.946c.092.2,5.2,10.888,5.2,10.888l1.7.986.211-3.508s5.3-12.43,6.174-15.583a21.874,21.874,0,0,0,.94-5.384" transform="translate(16.801 66.119)" fill="#f79e00"/>
            <path id="Trazado_994588" data-name="Trazado 994588" d="M23.7,38.972c0-5.522-3.358-8.059-7.5-5.669s-7.5,8.806-7.5,14.328a9.272,9.272,0,0,0,.768,3.942c.092.2,5.2,10.888,5.2,10.888.214-.174,6.9-13.826,8.084-18.105a21.873,21.873,0,0,0,.94-5.384" transform="translate(17.947 66.78)" fill="#fdd03e"/>
            <path id="Trazado_994589" data-name="Trazado 994589" d="M9.556,43.953c0,3.829,2.329,5.589,5.2,3.933s5.2-6.11,5.2-9.939-2.329-5.589-5.2-3.93-5.2,6.107-5.2,9.936" transform="translate(19.694 68.82)" fill="#fff"/>
            <path id="Trazado_994590" data-name="Trazado 994590" d="M30.915,14.736c.683,1.016.579,2.761.664,3.667.22.361,1.821,4.04,2.467,5.442.722.279,2.066,1.408,2.911,1.717a8.889,8.889,0,0,1,2.424,1.12c.676.569.918,3.137-.854,2.77a10.512,10.512,0,0,1-3.7-1.5,11.138,11.138,0,0,1-2.345-1.9c-.453-.422-.7-.545-.793-.973-.061-.269-.964-2.247-1.028-2.507a18.086,18.086,0,0,0-.689-3.447c-.376-.178-.533-.983-.774-1.249-.352-.4-.973-.649-.735-.9.245-.269.735.024,1.2.349.181.129.306-.358.306-.358s.45-1.175.946-2.231" transform="translate(58.544 30.369)" fill="#ffb9a4"/>
            <path id="Trazado_994591" data-name="Trazado 994591" d="M30.591,26.236c.193-.245.395-.484.563-.744a10.32,10.32,0,0,0,.826-1.576c-1.3-1.255-3.52-3.428-3.814-3.649a7.56,7.56,0,0,0-2.378-2.406c-.089-.288-.474-.444-.493-.661-.67-.343-.6.474-.22.882-.429.294.19.774.19.774a1.314,1.314,0,0,0,.077,1.038,3.137,3.137,0,0,0,1.509,1.494,23.519,23.519,0,0,0,2.017,3.095c.135.184,1.283,1.286,1.723,1.754" transform="translate(51.09 35.279)" fill="#ffc9b6"/>
            <path id="Trazado_994592" data-name="Trazado 994592" d="M25.53,18.115c.223-.588.162-.906.291-1.025.257-.239.425.049.416.575-.009.413.3,2.127-.04,2.4s-.836-.6-.836-.6a3.72,3.72,0,0,1,.168-1.353" transform="translate(52.257 35.044)" fill="#ffc9b6"/>
            <path id="Trazado_994593" data-name="Trazado 994593" d="M42.938,27.378a2.7,2.7,0,0,0-3.4-1.8,21.935,21.935,0,0,0-4.019-2.262c-1-1.665-3.021-6.364-4.071-7.016-.976.171-2.342.435-2.51,1.987A64.544,64.544,0,0,0,33.032,26.9c1.35,2.185,5.259,4.79,5.758,5.2,1.4,2.868,3.036,3.339,3.967,1.448,1.182-2.394.468-5.008.181-6.171" transform="translate(59.643 33.601)" fill="#bf855a"/>
            <path id="Trazado_994594" data-name="Trazado 994594" d="M34.618,35.071c.15.425.545.419.713,1.289.205,1.087.318,2.137-.361,2.559a1.706,1.706,0,0,1-2.421-.551c-1.938.26-3.924-1.775-4.19-2.372-.508-1.148.245-2.185,1.882-1.674s2.859.989,2.859.989Z" transform="translate(58.122 70.457)" fill="#35212d"/>
            <path id="Trazado_994595" data-name="Trazado 994595" d="M37.629,33.39c.15.425.545.422.713,1.289.208,1.087.318,2.137-.358,2.559a1.705,1.705,0,0,1-2.421-.551c-1.941.26-3.927-1.775-4.193-2.372-.508-1.148.245-2.186,1.882-1.674s2.862.992,2.862.992Z" transform="translate(64.327 66.992)" fill="#35212d"/>
            <path id="Trazado_994596" data-name="Trazado 994596" d="M32.089,17.519a2.93,2.93,0,0,1,3.137.738,2.608,2.608,0,0,1,.934,2.4,7.7,7.7,0,0,1-.539,1.653A11.528,11.528,0,0,1,33.21,24.5a2.161,2.161,0,0,1-2.684.144c-1.243-.848-.728-2.666-.551-3.936.205-1.457.676-2.614,2.115-3.189" transform="translate(61.245 35.71)" fill="#ffc9b6"/>
            <path id="Trazado_994597" data-name="Trazado 994597" d="M39.8,41.6A3.766,3.766,0,0,0,38.07,38.88a10.256,10.256,0,0,0,.288-7.337c.921-2,0-4.594-1.093-6.407-.435.052-1.273.612-1.711.64-.536.413-1.05.869-1.595,1.252-.7.49-1.472.878-2.152,1.393a3,3,0,0,0-1.24,3.006c.882,3.333,1.4,3.232,3.294,6.786.144.263.024.924.168,1.224a2.822,2.822,0,0,0,.768,1.169,38.4,38.4,0,0,1,1.393,8.644c1.1.967,2.871,1.448,3.352.2.321-3.765.554-6.275.26-7.848" transform="translate(62.892 51.803)" fill="#bf855a"/>
            <path id="Trazado_994598" data-name="Trazado 994598" d="M40.048,25.523a.237.237,0,0,0-.266-.119c-2.736.989-8.148.909-8.121.912a105.055,105.055,0,0,0-2.528,12.773c-.113.921-.579,2.559.077,3.45a21.978,21.978,0,0,0,.41,3.633c.279,1.433,1.133,6.93,1.255,7.919.579,1.093,2.942,1.154,3.082.392.279-1.515.242-3.676.4-4.913a15.455,15.455,0,0,0,.4-4.151,5.636,5.636,0,0,0-2.339-4.209c.052-.058.1-.116.15-.165A16.84,16.84,0,0,0,35.7,36.594a10.653,10.653,0,0,0,.805-2.476,9.362,9.362,0,0,0,.135-.97c.061-.756.037-.79.664-1.151,1.212-.7,2.228-1.206,2.819-2.58a4.906,4.906,0,0,0-.08-3.893" transform="translate(59.493 52.335)" fill="#cc9669"/>
            <path id="Trazado_994599" data-name="Trazado 994599" d="M34.491,20.864c3-1.084,3.872-1.656,5.8.061,1.2,1.068,1.478,4.5,1.3,6.3s.147,5.623-.288,6.407c-.358.646-1.234.7-.279,1.662.762.762,0,1.05-.395,1.736A7.3,7.3,0,0,1,34.892,40c-2.525-.031-4.423-.569-4.836-1.246s-.386-1.23.389-2.014c.517-.526-.4-2.942-.4-4.555,0-.9-.983-2.559-1.117-5.341s2.146-4.744,5.562-5.978" transform="translate(59.608 40.88)" fill="#c9e4ff"/>
            <path id="Trazado_994600" data-name="Trazado 994600" d="M30.111,28.616a62.885,62.885,0,0,1-.214,7.665A47.392,47.392,0,0,1,28.5,41.906a11.741,11.741,0,0,0,6.3,2.375,10.469,10.469,0,0,0,5.644-1.252,5.224,5.224,0,0,0,.563-2.084,7.528,7.528,0,0,1,.771,1.586,9.039,9.039,0,0,0,2.234-2.348s-1.886-6.1-1.509-9.911c.407-4.108,1.292-9.881-2.994-10.5-2.9-.419-5.577,1.775-5.577,1.775L30.91,23.275Z" transform="translate(58.745 40.634)" fill="#e5b483"/>
            <path id="Trazado_994601" data-name="Trazado 994601" d="M33,18.561a16.194,16.194,0,0,0,.282,2.345,4.3,4.3,0,0,0,1.108,1.83,1.348,1.348,0,0,1-.719,2.057c-1.592.594-3.388-.866-3.388-.866s.912-2.47.386-3.973C30.28,18.861,33,18.561,33,18.561" transform="translate(62.399 38.252)" fill="#ffc9b6"/>
            <path id="Trazado_994602" data-name="Trazado 994602" d="M31.373,17.776a1.3,1.3,0,0,1,2.43-.04c1-1.139,3.07-.459,3.887.569a1.629,1.629,0,0,1,.208,1.57,1.244,1.244,0,0,1,.885,1.457,1.755,1.755,0,0,1-.909.931,1.1,1.1,0,0,1-.024,1.2c-.912,1.39-2.354,2.436-3.058,3.468a26.085,26.085,0,0,1-2.6-2.219,5.11,5.11,0,0,1-1.53-3.364.91.91,0,0,1-.5-1.38c-.86-.664-.279-2.3,1.212-2.192" transform="translate(61.334 34.874)" fill="#35212d"/>
            <path id="Trazado_994603" data-name="Trazado 994603" d="M35.545,19.851a3.455,3.455,0,0,1-1.806,1.044,20.563,20.563,0,0,0-2.541.373c-.453.272-1.368.784-1.368.784s3.183,1.148,5.084.211c2.357-1.163.631-2.412.631-2.412" transform="translate(61.477 40.911)" fill="#cc9669"/>
            <path id="Trazado_994604" data-name="Trazado 994604" d="M31.729,19.358a1.264,1.264,0,0,1-1.23,1.353l-.413-1.457s1.546-1.347,1.644.1" transform="translate(62.003 38.508)" fill="#ffc9b6"/>
            <path id="Trazado_994605" data-name="Trazado 994605" d="M29.793,24.756l-.68,1.093a11.9,11.9,0,0,0,1.451,1.506c.952.848,1.987,1.684,1.987,1.684l.526-1.472a15.893,15.893,0,0,1-2.1-1.494,9.881,9.881,0,0,1-1.185-1.316" transform="translate(60 51.02)" fill="#cc9669"/>
            <path id="Trazado_994606" data-name="Trazado 994606" d="M40.081,28.118c-.364-1.466-1.24-2.351-2.709-1.971-1.148-.894-3.251-1.39-4.708-2.088-1-1.665-3.848-5.262-4.894-5.914-1,.539-2.4,1.175-2.238,2.666.961,1.4,3.56,5.072,4.643,6.832,1.35,2.185,5.259,4.79,5.758,5.2,1.4,2.865,3.033,3.336,3.967,1.445,1.182-2.394.468-5.008.181-6.171" transform="translate(52.594 37.395)" fill="#cc9669"/>
            <path id="Trazado_994607" data-name="Trazado 994607" d="M3.76,80.745l17.212-9.936V56.683L3.76,66.619Z" transform="translate(7.749 116.819)" fill="#bf855a"/>
            <path id="Trazado_994608" data-name="Trazado 994608" d="M11.509,78.451,0,71.922V57.8l11.509,6.529Z" transform="translate(0 119.112)" fill="#af744b"/>
            <path id="Trazado_994609" data-name="Trazado 994609" d="M0,64.539,17.209,54.524l11.512,6.605L11.509,71.068Z" transform="translate(0 112.369)" fill="#e5b483"/>
            <path id="Trazado_994610" data-name="Trazado 994610" d="M1.437,65.344l17.184-10,1.5.863L2.882,66.164Z" transform="translate(2.961 114.059)" fill="#e6f2fb"/>
            <path id="Trazado_994611" data-name="Trazado 994611" d="M7.483,60.648,4,62.644V61.481l3.486-2Z" transform="translate(8.237 122.594)" fill="#4f3745"/>
            <path id="Trazado_994612" data-name="Trazado 994612" d="M7.483,60.586,4,62.582V62l3.486-2Z" transform="translate(8.237 123.664)" fill="#4f3745"/>
            <path id="Trazado_994613" data-name="Trazado 994613" d="M7.483,60.911,4,62.907v-.582l3.486-2Z" transform="translate(8.237 124.334)" fill="#4f3745"/>
            <path id="Trazado_994614" data-name="Trazado 994614" d="M7.483,63.737,4,65.733V62.687l3.486-2Z" transform="translate(8.237 125.081)" fill="#e6f2fb"/>
            <path id="Trazado_994615" data-name="Trazado 994615" d="M1.44,58.605l1.433.826v3.3L1.44,61.905Z" transform="translate(2.969 120.781)" fill="#badaf6"/>
            <path id="Trazado_994616" data-name="Trazado 994616" d="M8.922,64.166c0,.1.021.135.049.159a.343.343,0,0,0,.254-.291.127.127,0,0,1,.254,0,.588.588,0,0,1-.508.542.263.263,0,0,1-.227-.116.486.486,0,0,1-.077-.294V62.238l-1.1.637a2.947,2.947,0,0,1,1.23-2.345c.683-.392,1.227.021,1.23.924l-1.1.64Z" transform="translate(15.587 124.442)" fill="#4f3745"/>
            <path id="Trazado_994617" data-name="Trazado 994617" d="M10.748,64.625,8.541,65.9V60.844l2.207-1.273Zm-.116-4.852L8.657,60.912V65.7l1.974-1.139Z" transform="translate(17.602 122.771)" fill="#4f3745"/>
            <path id="Trazado_994618" data-name="Trazado 994618" d="M10.484,60.033V65.09L7.46,66.828V61.775ZM7.576,66.626l2.789-1.607V60.238l-2.789,1.6Z" transform="translate(15.375 123.723)" fill="#4f3745"/>
            <path id="Trazado_994619" data-name="Trazado 994619" d="M10.077,61.709a1.783,1.783,0,0,1-.523,1.206v.894l.34-.2c.1-.058.184.006.184.141a.437.437,0,0,1-.184.349l-1.044.6c-.1.058-.184,0-.184-.138a.443.443,0,0,1,.184-.352l.337-.2v-.894c-.3.064-.52-.168-.52-.6V60.6l1.411-.814Z" transform="translate(17.86 123.222)" fill="#4f3745"/>
            <path id="Trazado_994620" data-name="Trazado 994620" d="M7.2,67.449l6.5-3.762V54.9L7.2,58.664Z" transform="translate(14.842 113.149)" fill="#cc9669"/>
            <path id="Trazado_994621" data-name="Trazado 994621" d="M14.988,69.388,3.424,62.746V53.961L14.988,60.6Z" transform="translate(7.056 111.21)" fill="#af744b"/>
            <path id="Trazado_994622" data-name="Trazado 994622" d="M3.423,56.527l6.5-3.811,11.564,6.691-6.5,3.762Z" transform="translate(7.055 108.644)" fill="#e5b483"/>
            <path id="Trazado_994623" data-name="Trazado 994623" d="M17.234,59.923,5.716,53.183l-1.433.842,11.57,6.682Z" transform="translate(8.828 109.605)" fill="#e6f2fb"/>
            <path id="Trazado_994624" data-name="Trazado 994624" d="M6.311,56.538l2.167,1.243v-.725l-2.167-1.24Z" transform="translate(13.006 115.031)" fill="#4f3745"/>
            <path id="Trazado_994625" data-name="Trazado 994625" d="M6.311,56.5l2.167,1.243v-.361L6.311,56.138Z" transform="translate(13.006 115.696)" fill="#4f3745"/>
            <path id="Trazado_994626" data-name="Trazado 994626" d="M6.311,56.7l2.167,1.243v-.361L6.311,56.34Z" transform="translate(13.006 116.112)" fill="#4f3745"/>
            <path id="Trazado_994627" data-name="Trazado 994627" d="M6.311,58.46,8.478,59.7V57.808L6.311,56.565Z" transform="translate(13.006 116.576)" fill="#e6f2fb"/>
            <path id="Trazado_994628" data-name="Trazado 994628" d="M9.432,55.38l-1.368.79v3.153l1.368-.79Z" transform="translate(16.62 114.132)" fill="#badaf6"/>
            <path id="Trazado_994629" data-name="Trazado 994629" d="M5.1,59c0,.07-.015.1-.037.119a.26.26,0,0,1-.193-.217A.1.1,0,0,0,4.78,58.8a.093.093,0,0,0-.092.095.435.435,0,0,0,.38.4.2.2,0,0,0,.168-.089A.374.374,0,0,0,5.291,59V57.555l.826.478A2.2,2.2,0,0,0,5.2,56.279c-.508-.291-.918.018-.921.692l.826.478Z" transform="translate(8.817 115.76)" fill="#4f3745"/>
            <path id="Trazado_994630" data-name="Trazado 994630" d="M3.609,59.338l1.65.952V56.516l-1.65-.952ZM3.7,55.714l1.472.851v3.572L3.7,59.289Z" transform="translate(7.438 114.513)" fill="#4f3745"/>
            <path id="Trazado_994631" data-name="Trazado 994631" d="M4.219,55.908v3.777l2.259,1.3V57.209Zm2.17,4.925L4.3,59.633V56.061l2.084,1.2Z" transform="translate(8.695 115.222)" fill="#4f3745"/>
            <path id="Trazado_994632" data-name="Trazado 994632" d="M3.711,57.162a1.334,1.334,0,0,0,.389.9v.667l-.251-.144c-.077-.043-.138,0-.138.1a.326.326,0,0,0,.138.26l.781.45c.073.046.135,0,.135-.1a.334.334,0,0,0-.135-.263l-.254-.147v-.667c.223.049.389-.125.389-.45V56.335l-1.053-.609Z" transform="translate(7.648 114.847)" fill="#4f3745"/>
            <path id="Trazado_994633" data-name="Trazado 994633" d="M35.591,76.734l-18.01-10.4V51.552l18.01,10.4Z" transform="translate(36.232 106.244)" fill="#cc9669"/>
            <path id="Trazado_994634" data-name="Trazado 994634" d="M23.464,74.331,35.509,67.5V52.718L23.464,59.547Z" transform="translate(48.358 108.647)" fill="#bf855a"/>
            <path id="Trazado_994635" data-name="Trazado 994635" d="M47.636,59.774,29.625,49.294,17.58,56.208l18.01,10.4Z" transform="translate(36.232 101.59)" fill="#e5b483"/>
            <path id="Trazado_994636" data-name="Trazado 994636" d="M39.063,60.617,21.08,50.151l-1.573.906L37.551,61.474Z" transform="translate(40.202 103.358)" fill="#e6f2fb"/>
            <path id="Trazado_994637" data-name="Trazado 994637" d="M22.025,55.7l3.649,2.091V56.576l-3.649-2.091Z" transform="translate(45.392 112.289)" fill="#4f3745"/>
            <path id="Trazado_994638" data-name="Trazado 994638" d="M22.025,55.638l3.649,2.091v-.609l-3.649-2.091Z" transform="translate(45.392 113.41)" fill="#4f3745"/>
            <path id="Trazado_994639" data-name="Trazado 994639" d="M22.025,55.978l3.649,2.091v-.609l-3.649-2.091Z" transform="translate(45.392 114.11)" fill="#4f3745"/>
            <path id="Trazado_994640" data-name="Trazado 994640" d="M22.025,58.937l3.649,2.091V57.838l-3.649-2.091Z" transform="translate(45.392 114.89)" fill="#e6f2fb"/>
            <path id="Trazado_994641" data-name="Trazado 994641" d="M26.9,53.565l-1.5.866v3.453l1.5-.866Z" transform="translate(52.354 110.392)" fill="#badaf6"/>
            <path id="Trazado_994642" data-name="Trazado 994642" d="M19.8,59.385c0,.1-.021.141-.052.165a.358.358,0,0,1-.269-.3.132.132,0,1,0-.263,0,.614.614,0,0,0,.533.566.286.286,0,0,0,.239-.122.527.527,0,0,0,.077-.306V57.368l1.157.667a3.079,3.079,0,0,0-1.289-2.455c-.71-.413-1.286.021-1.289.967l1.157.667Z" transform="translate(38.422 114.224)" fill="#4f3745"/>
            <path id="Trazado_994643" data-name="Trazado 994643" d="M17.706,59.865,20.014,61.2V55.9l-2.308-1.328Zm.122-5.081,2.063,1.194v5.008l-2.063-1.194Z" transform="translate(36.491 112.477)" fill="#4f3745"/>
            <path id="Trazado_994644" data-name="Trazado 994644" d="M18.559,55.06v5.286l3.165,1.821V56.878Zm3.043,6.9-2.92-1.68v-5l2.92,1.68Z" transform="translate(38.249 113.474)" fill="#4f3745"/>
            <path id="Trazado_994645" data-name="Trazado 994645" d="M17.848,56.812a1.853,1.853,0,0,0,.548,1.261v.937l-.355-.205c-.107-.061-.193,0-.193.147a.449.449,0,0,0,.193.364l1.093.634c.107.061.193-.006.193-.147a.459.459,0,0,0-.193-.367l-.355-.205V58.3c.315.067.548-.181.548-.631V55.655L17.848,54.8Z" transform="translate(36.783 112.946)" fill="#4f3745"/>
            <path id="Trazado_994646" data-name="Trazado 994646" d="M26.07,76.657,10.741,67.8V55.221L26.07,64.074Z" transform="translate(22.136 113.806)" fill="#cc9669"/>
            <path id="Trazado_994647" data-name="Trazado 994647" d="M15.749,76.463,30.778,67.9V55.315L15.749,63.88Z" transform="translate(32.457 114)" fill="#bf855a"/>
            <path id="Trazado_994648" data-name="Trazado 994648" d="M41.1,61.321,25.77,52.4,10.74,61.033,26.07,69.886Z" transform="translate(22.135 107.995)" fill="#e5b483"/>
            <path id="Trazado_994649" data-name="Trazado 994649" d="M29.756,62.519,14.448,53.612l-1.341.768L28.47,63.248Z" transform="translate(27.014 110.49)" fill="#e6f2fb"/>
            <path id="Trazado_994650" data-name="Trazado 994650" d="M14.524,58.755l3.107,1.778V59.5l-3.107-1.778Z" transform="translate(29.932 118.951)" fill="#4f3745"/>
            <path id="Trazado_994651" data-name="Trazado 994651" d="M14.524,58.7l3.107,1.778v-.517l-3.107-1.778Z" transform="translate(29.932 119.906)" fill="#4f3745"/>
            <path id="Trazado_994652" data-name="Trazado 994652" d="M14.524,58.988l3.107,1.778v-.517L14.524,58.47Z" transform="translate(29.932 120.502)" fill="#4f3745"/>
            <path id="Trazado_994653" data-name="Trazado 994653" d="M14.524,61.507l3.107,1.778V60.574l-3.107-1.781Z" transform="translate(29.932 121.166)" fill="#e6f2fb"/>
            <path id="Trazado_994654" data-name="Trazado 994654" d="M19.4,56.517l-1.276.738v2.938l1.276-.738Z" transform="translate(37.357 116.477)" fill="#badaf6"/>
            <path id="Trazado_994655" data-name="Trazado 994655" d="M12.633,61.889c0,.086-.021.119-.049.141a.307.307,0,0,1-.227-.26.112.112,0,0,0-.113-.11.11.11,0,0,0-.11.11.526.526,0,0,0,.45.487.242.242,0,0,0,.2-.107.411.411,0,0,0,.07-.26V60.172l.983.566a2.64,2.64,0,0,0-1.1-2.091c-.6-.349-1.093.021-1.1.826l.989.569Z" transform="translate(23.997 120.597)" fill="#4f3745"/>
            <path id="Trazado_994656" data-name="Trazado 994656" d="M10.847,62.3l1.968,1.136v-4.5l-1.968-1.136Zm.107-4.322,1.754,1.013v4.264l-1.754-1.016Z" transform="translate(22.355 119.111)" fill="#4f3745"/>
            <path id="Trazado_994657" data-name="Trazado 994657" d="M11.574,58.207v4.5l2.694,1.549v-4.5Zm2.59,5.871-2.485-1.429V58.388l2.485,1.429Z" transform="translate(23.853 119.96)" fill="#4f3745"/>
            <path id="Trazado_994658" data-name="Trazado 994658" d="M10.968,59.7a1.589,1.589,0,0,0,.465,1.074v.8l-.3-.174c-.089-.052-.162,0-.162.125a.4.4,0,0,0,.162.312l.931.536c.092.052.165,0,.165-.122a.39.39,0,0,0-.165-.312l-.3-.174v-.8c.266.055.465-.153.465-.539V58.714l-1.258-.725Z" transform="translate(22.604 119.51)" fill="#4f3745"/>
            <path id="Trazado_994659" data-name="Trazado 994659" d="M22.983,62.192l6.5-3.762V49.645l-6.5,3.762Z" transform="translate(47.366 102.315)" fill="#cc9669"/>
            <path id="Trazado_994660" data-name="Trazado 994660" d="M30.769,64.131,19.205,57.489V48.7l11.564,6.642Z" transform="translate(39.58 100.375)" fill="#af744b"/>
            <path id="Trazado_994661" data-name="Trazado 994661" d="M19.2,51.27l6.5-3.811,11.564,6.691-6.5,3.762Z" transform="translate(39.58 97.81)" fill="#e5b483"/>
            <path id="Trazado_994662" data-name="Trazado 994662" d="M33.016,54.666,21.5,47.926l-1.433.842,11.57,6.682Z" transform="translate(41.353 98.771)" fill="#e6f2fb"/>
            <path id="Trazado_994663" data-name="Trazado 994663" d="M22.092,51.283l2.167,1.243V51.8l-2.167-1.243Z" transform="translate(45.531 104.194)" fill="#4f3745"/>
            <path id="Trazado_994664" data-name="Trazado 994664" d="M22.092,51.242l2.167,1.243v-.361l-2.167-1.243Z" transform="translate(45.531 104.862)" fill="#4f3745"/>
            <path id="Trazado_994665" data-name="Trazado 994665" d="M22.092,51.444l2.167,1.243v-.361l-2.167-1.243Z" transform="translate(45.531 105.278)" fill="#4f3745"/>
            <path id="Trazado_994666" data-name="Trazado 994666" d="M22.092,53.2l2.167,1.243V52.551l-2.167-1.243Z" transform="translate(45.531 105.742)" fill="#e6f2fb"/>
            <path id="Trazado_994667" data-name="Trazado 994667" d="M25.214,50.122l-1.368.79v3.153l1.368-.79Z" transform="translate(49.144 103.298)" fill="#badaf6"/>
            <path id="Trazado_994668" data-name="Trazado 994668" d="M20.886,53.74c0,.07-.015.1-.037.119a.26.26,0,0,1-.193-.217.1.1,0,0,0-.095-.095.093.093,0,0,0-.092.095.435.435,0,0,0,.38.4.2.2,0,0,0,.168-.089.374.374,0,0,0,.055-.217V52.3l.826.478a2.213,2.213,0,0,0-.918-1.754c-.508-.291-.918.018-.921.692l.826.478Z" transform="translate(41.342 104.926)" fill="#4f3745"/>
            <path id="Trazado_994669" data-name="Trazado 994669" d="M19.391,54.081l1.65.952V51.256l-1.65-.949Zm.089-3.624,1.472.851V54.88l-1.472-.851Z" transform="translate(39.963 103.678)" fill="#4f3745"/>
            <path id="Trazado_994670" data-name="Trazado 994670" d="M20,50.651v3.777l2.256,1.3V51.952Zm2.17,4.925-2.084-1.2V50.8L22.171,52Z" transform="translate(41.221 104.387)" fill="#4f3745"/>
            <path id="Trazado_994671" data-name="Trazado 994671" d="M19.492,51.9a1.328,1.328,0,0,0,.389.9v.667l-.251-.144c-.077-.043-.138,0-.138.1a.326.326,0,0,0,.138.26l.781.45c.073.046.138,0,.138-.1a.336.336,0,0,0-.138-.263l-.254-.147v-.667c.223.049.392-.129.392-.45V51.078l-1.056-.609Z" transform="translate(40.172 104.012)" fill="#4f3745"/>
            <path id="Trazado_994672" data-name="Trazado 994672" d="M36.006,80.094l-14.46-8.347V59.876l14.46,8.35Z" transform="translate(44.405 123.4)" fill="#d7eaf7"/>
            <path id="Trazado_994673" data-name="Trazado 994673" d="M24.725,64.506,21.759,62.8V60.362l2.966,1.711Z" transform="translate(44.843 124.4)" fill="#fff"/>
            <path id="Trazado_994674" data-name="Trazado 994674" d="M24.725,63.514,21.759,61.8v-.435l2.966,1.711Z" transform="translate(44.843 126.474)" fill="#4f3745"/>
            <path id="Trazado_994675" data-name="Trazado 994675" d="M24.725,63.743l-2.966-1.711V61.6l2.966,1.711Z" transform="translate(44.843 126.947)" fill="#4f3745"/>
            <path id="Trazado_994676" data-name="Trazado 994676" d="M24.725,64l-2.966-1.711v-.435l2.966,1.711Z" transform="translate(44.843 127.475)" fill="#4f3745"/>
            <path id="Trazado_994677" data-name="Trazado 994677" d="M25.114,63.915v.435l2.639,1.518v-.435Z" transform="translate(51.759 131.723)" fill="#4f3745"/>
            <path id="Trazado_994678" data-name="Trazado 994678" d="M26.27,80.094l14.46-8.347V59.876l-14.46,8.35Z" transform="translate(54.141 123.4)" fill="#badaf6"/>
            <path id="Trazado_994679" data-name="Trazado 994679" d="M30.42,61.039l-2.137,1.234v4.852l2.137-1.237Z" transform="translate(58.29 125.795)" fill="#ffc033"/>
            <path id="Trazado_994680" data-name="Trazado 994680" d="M50.463,65.542,36,57.128,21.547,65.542,36,73.889Z" transform="translate(44.406 117.735)" fill="#e6f2fb"/>
            <path id="Trazado_994681" data-name="Trazado 994681" d="M40.217,66.7,25.757,58.29l-2.21,1.3,14.46,8.347Z" transform="translate(48.529 120.131)" fill="#fdd03e"/>
            <path id="Trazado_994682" data-name="Trazado 994682" d="M26.153,67.827c0,.086-.018.122-.046.144a.314.314,0,0,1-.23-.263.11.11,0,0,0-.113-.11.112.112,0,0,0-.113.11.526.526,0,0,0,.456.487.248.248,0,0,0,.205-.1.471.471,0,0,0,.067-.263V66.1l.986.569a2.634,2.634,0,0,0-1.1-2.1c-.609-.349-1.1.021-1.1.83l.989.569Z" transform="translate(51.861 132.81)" fill="#4f3745"/>
            <path id="Trazado_994683" data-name="Trazado 994683" d="M24.363,68.237l1.974,1.139V64.855l-1.974-1.139Zm.1-4.34,1.766,1.019V69.2l-1.766-1.019Z" transform="translate(50.21 131.313)" fill="#4f3745"/>
            <path id="Trazado_994684" data-name="Trazado 994684" d="M25.093,64.13v4.521l2.7,1.555V65.685Zm2.6,5.9L25.2,68.59V64.311l2.495,1.436Z" transform="translate(51.715 132.167)" fill="#4f3745"/>
            <path id="Trazado_994685" data-name="Trazado 994685" d="M24.484,65.629a1.586,1.586,0,0,0,.468,1.077v.8l-.3-.174c-.092-.052-.165,0-.165.122a.391.391,0,0,0,.165.315l.934.539c.092.052.165,0,.165-.125a.39.39,0,0,0-.165-.312l-.3-.174v-.8c.269.058.468-.15.468-.539V64.641l-1.264-.729Z" transform="translate(50.46 131.717)" fill="#4f3745"/>
            <path id="Trazado_994686" data-name="Trazado 994686" d="M20.909,81.736,6.449,73.388V61.518l14.46,8.35Z" transform="translate(13.292 126.784)" fill="#d7eaf7"/>
            <path id="Trazado_994687" data-name="Trazado 994687" d="M9.628,66.148,6.662,64.437V62l2.966,1.711Z" transform="translate(13.729 127.784)" fill="#fff"/>
            <path id="Trazado_994688" data-name="Trazado 994688" d="M9.628,65.156,6.662,63.445V63.01l2.966,1.711Z" transform="translate(13.729 129.858)" fill="#4f3745"/>
            <path id="Trazado_994689" data-name="Trazado 994689" d="M9.628,65.385,6.662,63.674v-.435L9.628,64.95Z" transform="translate(13.729 130.331)" fill="#4f3745"/>
            <path id="Trazado_994690" data-name="Trazado 994690" d="M9.628,65.641,6.662,63.93V63.5l2.966,1.711Z" transform="translate(13.729 130.859)" fill="#4f3745"/>
            <path id="Trazado_994691" data-name="Trazado 994691" d="M10.018,65.557v.435l2.639,1.518v-.435Z" transform="translate(20.646 135.107)" fill="#4f3745"/>
            <path id="Trazado_994692" data-name="Trazado 994692" d="M11.173,81.736l14.46-8.347V61.518l-14.46,8.35Z" transform="translate(23.027 126.784)" fill="#badaf6"/>
            <path id="Trazado_994693" data-name="Trazado 994693" d="M15.323,62.681l-2.137,1.234v4.852l2.137-1.234Z" transform="translate(27.176 129.18)" fill="#ffc033"/>
            <path id="Trazado_994694" data-name="Trazado 994694" d="M35.367,67.184,20.907,58.77,6.45,67.184l14.457,8.347Z" transform="translate(13.293 121.119)" fill="#e6f2fb"/>
            <path id="Trazado_994695" data-name="Trazado 994695" d="M25.12,68.347,10.66,59.932l-2.21,1.3,14.46,8.347Z" transform="translate(17.415 123.515)" fill="#fdd03e"/>
            <path id="Trazado_994696" data-name="Trazado 994696" d="M11.056,69.47c0,.086-.018.122-.046.144a.314.314,0,0,1-.23-.263.112.112,0,1,0-.223,0,.523.523,0,0,0,.453.487.243.243,0,0,0,.205-.107.453.453,0,0,0,.067-.26V67.744l.986.572a2.629,2.629,0,0,0-1.1-2.1c-.606-.352-1.1.021-1.1.83l.989.569Z" transform="translate(20.747 136.193)" fill="#4f3745"/>
            <path id="Trazado_994697" data-name="Trazado 994697" d="M9.267,69.879l1.974,1.139V66.5L9.267,65.358Zm.1-4.34,1.766,1.019v4.279L9.371,69.818Z" transform="translate(19.099 134.697)" fill="#4f3745"/>
            <path id="Trazado_994698" data-name="Trazado 994698" d="M9.995,65.772v4.521L12.7,71.848V67.327Zm2.6,5.9L10.1,70.232V65.953L12.6,67.388Z" transform="translate(20.599 135.551)" fill="#4f3745"/>
            <path id="Trazado_994699" data-name="Trazado 994699" d="M9.387,67.271a1.586,1.586,0,0,0,.468,1.077v.8l-.3-.174c-.092-.052-.165,0-.165.122a.391.391,0,0,0,.165.315l.934.539c.089.052.165,0,.165-.125a.4.4,0,0,0-.165-.312l-.3-.174v-.8c.266.055.468-.153.468-.542V66.283l-1.264-.729Z" transform="translate(19.346 135.101)" fill="#4f3745"/>
          </g>
        </g>
      </g>
    </g>
  </g>
</svg>
