<svg xmlns="http://www.w3.org/2000/svg" xmlns:xlink="http://www.w3.org/1999/xlink" width="190.434" height="204" viewBox="0 0 190.434 204">
  <defs>
    <clipPath id="clip-path">
      <rect id="Rectángulo_454873" data-name="Rectángulo 454873" width="181.101" height="169.259" fill="none"/>
    </clipPath>
    <clipPath id="clip-path-2">
      <rect id="Rectángulo_454872" data-name="Rectángulo 454872" width="181.1" height="169.26" fill="none"/>
    </clipPath>
    <clipPath id="clip-path-3">
      <rect id="Rectángulo_454864" data-name="Rectángulo 454864" width="12.158" height="8.915" fill="none"/>
    </clipPath>
    <clipPath id="clip-path-4">
      <rect id="Rectángulo_454865" data-name="Rectángulo 454865" width="19.187" height="8.238" fill="none"/>
    </clipPath>
    <clipPath id="clip-path-7">
      <rect id="Rectángulo_454870" data-name="Rectángulo 454870" width="13.474" height="20.637" fill="none"/>
    </clipPath>
    <clipPath id="clip-path-8">
      <rect id="Rectángulo_454871" data-name="Rectángulo 454871" width="13.474" height="21.55" fill="none"/>
    </clipPath>
  </defs>
  <g id="Grupo_1179119" data-name="Grupo 1179119" transform="translate(5269.464 9395.5)">
    <g id="Grupo_1177055" data-name="Grupo 1177055" transform="translate(-5552.938 -10518.096)">
      <rect id="Rectángulo_401036" data-name="Rectángulo 401036" width="149" height="201" rx="40" transform="translate(284.974 1124.096)" fill="none" stroke="#1e3a8a" stroke-miterlimit="10" stroke-width="3"/>
      <g id="Grupo_1177773" data-name="Grupo 1177773" transform="translate(292.807 1151.281)">
        <g id="Grupo_1177772" data-name="Grupo 1177772" clip-path="url(#clip-path)">
          <path id="Trazado_994128" data-name="Trazado 994128" d="M144.462,59.828l-71.543,41.4L15.842,67.619l71.543-41.4Z" transform="translate(24.863 41.154)" fill="#3d3d3d"/>
          <path id="Trazado_994129" data-name="Trazado 994129" d="M15.842,42.334v3.654L72.919,79.593V75.939Z" transform="translate(24.863 66.44)" fill="#161616"/>
          <g id="Grupo_1177771" data-name="Grupo 1177771" transform="translate(0 -0.001)">
            <g id="Grupo_1177770" data-name="Grupo 1177770" clip-path="url(#clip-path-2)">
              <path id="Trazado_994130" data-name="Trazado 994130" d="M109.6,42.956V39.3L38.056,80.7v3.654c0-.18,71.543-41.4,71.543-41.4" transform="translate(59.726 61.682)" fill="#212121"/>
              <path id="Trazado_994131" data-name="Trazado 994131" d="M100.96,72.014,35.97,109.538V53.355L100.96,15.834Z" transform="translate(56.451 24.851)" fill="#f4f4f4"/>
              <path id="Trazado_994132" data-name="Trazado 994132" d="M18.532,76.564l44.8,25.833V46.216l-44.8-25.833Z" transform="translate(29.085 31.991)" fill="#dbdbdb"/>
              <path id="Trazado_994133" data-name="Trazado 994133" d="M20.874,54.359l28.8,16.627v-24.1l-28.8-16.627Z" transform="translate(32.759 47.489)" fill="#3d3d3d"/>
              <path id="Trazado_994134" data-name="Trazado 994134" d="M47.33,46.214,21.371,31.227V51.993L47.33,66.98Z" transform="translate(33.541 49.008)" fill="#cae7ff"/>
              <path id="Trazado_994135" data-name="Trazado 994135" d="M47.33,46.214,21.371,31.227V51.993L47.33,66.98Z" transform="translate(33.541 49.008)" fill="#cae7ff"/>
              <g id="Grupo_1177754" data-name="Grupo 1177754" transform="translate(54.911 82.214)" opacity="0.5">
                <g id="Grupo_1177753" data-name="Grupo 1177753">
                  <g id="Grupo_1177752" data-name="Grupo 1177752" clip-path="url(#clip-path-3)">
                    <path id="Trazado_994136" data-name="Trazado 994136" d="M24.8,32l-3.43,1.095v7.821l12.158-3.877Z" transform="translate(-21.372 -31.997)" fill="#fff"/>
                  </g>
                </g>
              </g>
              <g id="Grupo_1177757" data-name="Grupo 1177757" transform="translate(54.911 89.191)" opacity="0.5">
                <g id="Grupo_1177756" data-name="Grupo 1177756">
                  <g id="Grupo_1177755" data-name="Grupo 1177755" clip-path="url(#clip-path-4)">
                    <path id="Trazado_994137" data-name="Trazado 994137" d="M36.883,34.712,21.372,39.656V42.95l19.186-6.115Z" transform="translate(-21.371 -34.712)" fill="#fff"/>
                  </g>
                </g>
              </g>
              <rect id="Rectángulo_454866" data-name="Rectángulo 454866" width="1.346" height="22.413" transform="translate(67.218 86.905)" fill="#3d3d3d"/>
              <path id="Trazado_994138" data-name="Trazado 994138" d="M67.087,54.873,38.289,71.5V47.4l28.8-16.627Z" transform="translate(60.091 48.295)" fill="#3d3d3d"/>
              <path id="Trazado_994139" data-name="Trazado 994139" d="M38.9,46.728,64.855,31.74V52.506L38.9,67.494Z" transform="translate(61.044 49.815)" fill="#cae7ff"/>
              <path id="Trazado_994140" data-name="Trazado 994140" d="M38.9,46.728,64.855,31.74V52.506L38.9,67.494Z" transform="translate(61.044 49.815)" fill="#cae7ff"/>
              <g id="Grupo_1177760" data-name="Grupo 1177760" transform="translate(113.741 83.535)" opacity="0.5">
                <g id="Grupo_1177759" data-name="Grupo 1177759">
                  <g id="Grupo_1177758" data-name="Grupo 1177758" clip-path="url(#clip-path-3)">
                    <path id="Trazado_994141" data-name="Trazado 994141" d="M53,32.511l3.43,1.092v7.824L44.268,37.549Z" transform="translate(-44.267 -32.511)" fill="#fff"/>
                  </g>
                </g>
              </g>
              <g id="Grupo_1177763" data-name="Grupo 1177763" transform="translate(106.712 90.511)" opacity="0.5">
                <g id="Grupo_1177762" data-name="Grupo 1177762">
                  <g id="Grupo_1177761" data-name="Grupo 1177761" clip-path="url(#clip-path-4)">
                    <path id="Trazado_994142" data-name="Trazado 994142" d="M45.206,35.226,60.718,40.17v3.294L41.532,37.348Z" transform="translate(-41.531 -35.226)" fill="#fff"/>
                  </g>
                </g>
              </g>
              <rect id="Rectángulo_454869" data-name="Rectángulo 454869" width="1.346" height="22.413" transform="translate(112.245 88.223)" fill="#3d3d3d"/>
              <path id="Trazado_994143" data-name="Trazado 994143" d="M68.34,25.259,52.4,34.462V70.529l15.941-9.2Z" transform="translate(82.236 39.642)" fill="#3d3d3d"/>
              <path id="Trazado_994144" data-name="Trazado 994144" d="M66.365,26.108,52.891,33.932v33L66.365,59.1Z" transform="translate(83.008 40.975)" fill="#cae7ff"/>
              <g id="Grupo_1177766" data-name="Grupo 1177766" transform="translate(135.898 67.082)" opacity="0.5">
                <g id="Grupo_1177765" data-name="Grupo 1177765">
                  <g id="Grupo_1177764" data-name="Grupo 1177764" clip-path="url(#clip-path-7)">
                    <path id="Trazado_994145" data-name="Trazado 994145" d="M66.365,26.108l-6.943,4.031-6.531,8.186v8.42L66.365,29.857Z" transform="translate(-52.891 -26.108)" fill="#fff"/>
                  </g>
                </g>
              </g>
              <g id="Grupo_1177769" data-name="Grupo 1177769" transform="translate(135.898 74.951)" opacity="0.5">
                <g id="Grupo_1177768" data-name="Grupo 1177768">
                  <g id="Grupo_1177767" data-name="Grupo 1177767" clip-path="url(#clip-path-8)">
                    <path id="Trazado_994146" data-name="Trazado 994146" d="M52.891,46.056V50.72L66.365,33.834V29.17Z" transform="translate(-52.891 -29.17)" fill="#fff"/>
                  </g>
                </g>
              </g>
              <path id="Trazado_994147" data-name="Trazado 994147" d="M58.669,29.054c0,3.8,2.31,5.547,5.159,3.9S68.99,26.9,68.99,23.1s-10.321,2.158-10.321,5.958" transform="translate(92.076 34.334)" fill="#d32d24"/>
              <path id="Trazado_994148" data-name="Trazado 994148" d="M66.466,24.313c0,3.8,2.31,5.547,5.159,3.9s5.162-6.059,5.162-9.859-10.321,2.158-10.321,5.958" transform="translate(104.313 26.894)" fill="#d32d24"/>
              <path id="Trazado_994149" data-name="Trazado 994149" d="M160.368,37.317,71.792,88.828,13.2,54.858,101.772,3.347Z" transform="translate(20.715 5.253)" fill="#eb4132"/>
              <path id="Trazado_994150" data-name="Trazado 994150" d="M85.861,52.882,75.54,58.835,16.947,24.865l10.319-5.953Z" transform="translate(26.597 29.681)" fill="#f4f4f4"/>
              <path id="Trazado_994151" data-name="Trazado 994151" d="M23.5,31.474c0,3.8-2.31,5.547-5.159,3.9s-5.162-6.059-5.162-9.859S23.5,27.674,23.5,31.474" transform="translate(20.688 38.132)" fill="#bf1916"/>
              <path id="Trazado_994152" data-name="Trazado 994152" d="M27.276,33.611c0,3.8-2.31,5.547-5.159,3.9s-5.162-6.059-5.162-9.859,10.321,2.158,10.321,5.958" transform="translate(26.609 41.486)" fill="#bf1916"/>
              <path id="Trazado_994153" data-name="Trazado 994153" d="M30.968,35.757c0,3.8-2.31,5.547-5.159,3.9S20.647,33.6,20.647,29.8s10.321,2.158,10.321,5.958" transform="translate(32.404 44.854)" fill="#bf1916"/>
              <path id="Trazado_994154" data-name="Trazado 994154" d="M34.74,37.894c0,3.8-2.31,5.547-5.159,3.9s-5.162-6.059-5.162-9.859S34.74,34.094,34.74,37.894" transform="translate(38.324 48.208)" fill="#bf1916"/>
              <path id="Trazado_994155" data-name="Trazado 994155" d="M38.572,40.171c0,3.8-2.31,5.547-5.159,3.9s-5.162-6.059-5.162-9.859,10.321,2.158,10.321,5.958" transform="translate(44.338 51.781)" fill="#bf1916"/>
              <path id="Trazado_994156" data-name="Trazado 994156" d="M42.347,42.307c0,3.8-2.312,5.547-5.162,3.9s-5.162-6.059-5.162-9.859,10.324,2.158,10.324,5.958" transform="translate(50.257 55.134)" fill="#bf1916"/>
              <path id="Trazado_994157" data-name="Trazado 994157" d="M51.047,33.611c0,3.8,2.31,5.547,5.159,3.9s5.162-6.059,5.162-9.859-10.321,2.158-10.321,5.958" transform="translate(80.114 41.486)" fill="#d32d24"/>
              <path id="Trazado_994158" data-name="Trazado 994158" d="M43.583,37.894c0,3.8,2.31,5.547,5.159,3.9S53.9,35.736,53.9,31.935s-10.321,2.158-10.321,5.958" transform="translate(68.4 48.208)" fill="#d32d24"/>
              <path id="Trazado_994159" data-name="Trazado 994159" d="M36,42.442c0,3.8,2.243,5.28,5.093,3.633s5.162-6.059,5.162-9.859c0-2.089-3.016-.511-5.8,1.084C38.167,38.609,36,39.438,36,42.442" transform="translate(56.505 55.266)" fill="#d32d24"/>
              <path id="Trazado_994160" data-name="Trazado 994160" d="M124.579,16.568V20.2L36,71.707V68.079Z" transform="translate(56.504 26.002)" fill="#d32d24"/>
              <path id="Trazado_994161" data-name="Trazado 994161" d="M13.2,23.395v3.628l58.593,33.97V57.365Z" transform="translate(20.715 36.717)" fill="#bf1916"/>
              <path id="Trazado_994162" data-name="Trazado 994162" d="M39.751,41.522c0,3.8,2.31,5.547,5.159,3.9s5.162-6.059,5.162-9.859v-3.43c-1.608.93-8.3,4.676-10.321,5.958Z" transform="translate(62.386 50.431)" fill="#dbdbdb"/>
              <path id="Trazado_994163" data-name="Trazado 994163" d="M93.5,48.469,83.182,54.422,24.589,20.452,34.908,14.5Z" transform="translate(38.59 22.755)" fill="#f4f4f4"/>
              <path id="Trazado_994164" data-name="Trazado 994164" d="M47.393,37.108c0,3.8,2.31,5.547,5.159,3.9s5.162-6.059,5.162-9.859v-3.43c-1.608.93-8.3,4.676-10.321,5.958Z" transform="translate(74.379 43.503)" fill="#dbdbdb"/>
              <path id="Trazado_994165" data-name="Trazado 994165" d="M100.938,44.186,90.617,50.139,32.024,16.169l10.319-5.953Z" transform="translate(50.259 16.033)" fill="#f4f4f4"/>
              <path id="Trazado_994166" data-name="Trazado 994166" d="M54.828,32.825c0,3.8,2.31,5.547,5.159,3.9s5.162-6.059,5.162-9.859v-3.43c-1.611.93-8.3,4.676-10.321,5.958Z" transform="translate(86.048 36.782)" fill="#dbdbdb"/>
              <path id="Trazado_994167" data-name="Trazado 994167" d="M108.56,39.629,98.238,45.582,39.645,11.612,49.967,5.659Z" transform="translate(62.22 8.882)" fill="#f4f4f4"/>
              <path id="Trazado_994168" data-name="Trazado 994168" d="M62.45,28.269c0,3.8,2.31,5.547,5.159,3.9s5.162-6.059,5.162-9.859V18.88c-1.608.93-8.3,4.676-10.321,5.958Z" transform="translate(98.01 29.631)" fill="#dbdbdb"/>
              <path id="Trazado_994169" data-name="Trazado 994169" d="M102.067,25.187,35.969,63.3V48.33l66.1-38.115Z" transform="translate(56.451 16.033)" fill="#d32d24"/>
              <path id="Trazado_994170" data-name="Trazado 994170" d="M83.249,14.972,18.258,52.5V37.524L83.249,0Z" transform="translate(28.654 0.001)" fill="#f4f4f4"/>
              <path id="Trazado_994171" data-name="Trazado 994171" d="M18.236,29.614,63.8,56.354V41.382L18.236,14.642Z" transform="translate(28.619 22.981)" fill="#bf1916"/>
              <path id="Trazado_994172" data-name="Trazado 994172" d="M83.283,0c-.917.529-65.047,37.621-65.047,37.621L63.8,64.361l66.1-38.115Z" transform="translate(28.62 0.001)" fill="#eb4132"/>
              <path id="Trazado_994173" data-name="Trazado 994173" d="M117.051,27.856l5.673-3.3L80.557.813c-.827.478-60.535,35.314-60.535,35.314l5.55,3.258C40.405,30.731,79.884,7.7,80.557,7.308Z" transform="translate(31.423 1.277)" fill="#bf1916"/>
              <path id="Trazado_994174" data-name="Trazado 994174" d="M113.661,23.889,77.167,3.341c-.673.388-40.152,23.423-54.985,32.077l35.666,20.93Z" transform="translate(34.813 5.244)" fill="#d32d24"/>
              <path id="Trazado_994175" data-name="Trazado 994175" d="M101.367,26.6v-3.07c0-15.715-9.556-16.753-21.342-9.949L57.5,26.589C45.711,33.4,36.155,45.466,36.155,61.181v3.07Z" transform="translate(56.742 15.062)" fill="#f7b614"/>
              <path id="Trazado_994176" data-name="Trazado 994176" d="M37.022,29.644c0,.136-.866,3.142-.866,3.142l2.068.863,1.231-3.826Z" transform="translate(56.744 46.524)" fill="#f7b614"/>
              <path id="Trazado_994177" data-name="Trazado 994177" d="M102.173,26.937v-3.07c0-15.715-9.556-16.753-21.342-9.949L58.3,26.924C46.517,33.73,36.961,45.8,36.961,61.516v3.07Z" transform="translate(58.007 15.588)" fill="#ffdc48"/>
              <path id="Trazado_994178" data-name="Trazado 994178" d="M64.088,39.079c-1.323,0-2.4.57-2.4,1.274s1.074,1.274,2.4,1.274,2.4-.57,2.4-1.274-1.074-1.274-2.4-1.274" transform="translate(96.819 61.332)" fill="#ceb8a3"/>
              <path id="Trazado_994179" data-name="Trazado 994179" d="M70.534,35.55a9.3,9.3,0,0,1,.134,2.014c0,4.82-2.228,8.728-4.977,8.728s-4.977-3.908-4.977-8.728a16.508,16.508,0,0,1,.008-1.827Z" transform="translate(95.249 55.793)" fill="#dbdbdb"/>
              <path id="Trazado_994180" data-name="Trazado 994180" d="M65.644,34.659c-2.731,0-4.944,1.177-4.944,2.629s2.212,2.629,4.944,2.629,4.944-1.177,4.944-2.629-2.215-2.629-4.944-2.629" transform="translate(95.263 54.395)" fill="#f4f4f4"/>
              <path id="Trazado_994181" data-name="Trazado 994181" d="M69.359,36.351a.938.938,0,0,0-.786-.167l-.049-.031a.813.813,0,0,0-.437-.6.579.579,0,0,0-.665.105l-.021.023a.907.907,0,0,0-1.418.039.453.453,0,0,0-.835.213.409.409,0,0,0-.624-.046,1.212,1.212,0,0,0-1.308-.288.767.767,0,0,0-.547.863.524.524,0,0,0-.519.355.937.937,0,0,0-1.231.573,1.464,1.464,0,0,1-.033-.28c0-1.3,1.986-2.359,4.435-2.359,2.2,0,4.013.848,4.368,1.963l-.059-.062a1.146,1.146,0,0,0-.27-.3" transform="translate(95.554 54.543)" fill="#dbdbdb"/>
              <path id="Trazado_994182" data-name="Trazado 994182" d="M65.3,39.1c-2.271,0-4.142-.91-4.4-2.079a.936.936,0,0,1,1.231-.573.525.525,0,0,1,.519-.355.765.765,0,0,1,.545-.863,1.214,1.214,0,0,1,1.308.288.412.412,0,0,1,.627.046.473.473,0,0,1,.19-.342.484.484,0,0,1,.645.128.907.907,0,0,1,1.418-.036l.021-.026a.578.578,0,0,1,.665-.105.819.819,0,0,1,.437.6v.005l.046.028a.942.942,0,0,1,.789.167,1.072,1.072,0,0,1,.267.306.672.672,0,0,1,.062.059,1.291,1.291,0,0,1,.067.4c0,1.3-1.986,2.359-4.435,2.359" transform="translate(95.576 54.915)" fill="#3d3d3d"/>
              <path id="Trazado_994183" data-name="Trazado 994183" d="M62.431,39.25a16.534,16.534,0,0,0-.128-5.3c-.013-.059.046-.1.105-.105a14.55,14.55,0,0,1,1.567-.105l.01,0,0-.01c.005-.015.026-.008.023.008v.013a.067.067,0,0,1-.018.121,13.934,13.934,0,0,0,.013,5.3,1.186,1.186,0,0,1-1.575.075" transform="translate(97.775 52.929)" fill="#e59a4e"/>
              <path id="Trazado_994184" data-name="Trazado 994184" d="M60.641,35.942a.969.969,0,0,1-.429-.552c-.136-.568.393-.943.915-.989a.287.287,0,0,1-.082-.355c.09-.211.3-.236.5-.216a.823.823,0,0,1-.311-.581c0-.349.326-.47.63-.4a1.2,1.2,0,0,1,.29.121,1.242,1.242,0,0,1,.612-.691.462.462,0,0,1-.059-.224.25.25,0,0,1,.308-.252.673.673,0,0,1,.134.057.594.594,0,0,1-.105-.486.149.149,0,0,1,.182-.1,2.435,2.435,0,0,1,.565.324.731.731,0,0,1,.342-.563.884.884,0,0,1,1.128.254,1.621,1.621,0,0,1,.4-.581c.357-.3.725.005.984.339a.874.874,0,0,1,1.056-.424,1.128,1.128,0,0,1,.5.46,1.922,1.922,0,0,1,.38-.373c.64-.455,1.267.27,1.552.928a1.631,1.631,0,0,1,.509-.38.163.163,0,0,1,.213.051,1.55,1.55,0,0,1,.213.529.828.828,0,0,1,.331-.2.665.665,0,0,1,.773.26c.154.308-.11.673-.313.9a.7.7,0,0,1-.072.08.7.7,0,0,1,.105.141.6.6,0,0,1,.65.231.381.381,0,0,1,.036.429.334.334,0,0,1-.077.082,2,2,0,0,1,1.752.832c.234.48-.342.9-.938,1.131a.56.56,0,0,1,.3.5.527.527,0,0,1-.406.47c-.046.013-.09.021-.139.031a.835.835,0,0,1,.349.979.738.738,0,0,1-.681.475c-.077.005-.164.005-.252.008a1.092,1.092,0,0,1-.308,1.2,1.06,1.06,0,0,1-.429.242.732.732,0,0,1,.128.355c.023.419-.162.686-1.074.46-.162.416-.9.6-1.48.365-.121.516-.791.886-1.485.306a.721.721,0,0,1-1.277-.352c-.321.537-1.434.817-1.644.116-.532.267-.686-.18-.843-.56a1.252,1.252,0,0,1-1.413.051,1.6,1.6,0,0,1-.856-1.5,1.648,1.648,0,0,1-.9-.874,1.293,1.293,0,0,1,.005-.807,1.9,1.9,0,0,1-.779-.216c-.468-.313.116-.8.5-1.03" transform="translate(94.112 47.976)" fill="#86a01a"/>
              <path id="Trazado_994185" data-name="Trazado 994185" d="M60.754,34.587a.878.878,0,0,1-.383-.491c-.121-.509.349-.843.815-.881a.257.257,0,0,1-.072-.319.392.392,0,0,1,.447-.19.735.735,0,0,1-.277-.519c0-.308.293-.419.56-.352a1.145,1.145,0,0,1,.26.105,1.1,1.1,0,0,1,.545-.614.423.423,0,0,1-.051-.2.223.223,0,0,1,.275-.224.687.687,0,0,1,.118.051.52.52,0,0,1-.1-.432.133.133,0,0,1,.164-.093,2.154,2.154,0,0,1,.5.29.647.647,0,0,1,.3-.5.788.788,0,0,1,1,.226,1.421,1.421,0,0,1,.355-.516c.316-.267.645.005.874.3a.78.78,0,0,1,.943-.378,1.013,1.013,0,0,1,.45.409,1.575,1.575,0,0,1,.337-.331c.57-.406,1.128.239,1.382.827a1.46,1.46,0,0,1,.452-.342.154.154,0,0,1,.193.046,1.445,1.445,0,0,1,.188.473.746.746,0,0,1,.3-.18.6.6,0,0,1,.689.231c.136.275-.1.6-.278.807-.021.023-.044.046-.064.072a.554.554,0,0,1,.093.123.532.532,0,0,1,.578.208.339.339,0,0,1,.033.38.319.319,0,0,1-.069.075,1.769,1.769,0,0,1,1.56.743c.211.424-.3.8-.832,1a.492.492,0,0,1,.265.439.462.462,0,0,1-.36.419,1.069,1.069,0,0,1-.123.028.748.748,0,0,1,.311.874.657.657,0,0,1-.606.421c-.069.005-.146.008-.224.008a.971.971,0,0,1-.278,1.066.883.883,0,0,1-.38.213.645.645,0,0,1,.113.319c.021.373-.144.612-.953.409-.146.37-.8.537-1.321.324-.108.46-.7.791-1.321.275a.644.644,0,0,1-1.138-.316c-.288.48-1.277.727-1.462.1-.475.242-.612-.159-.75-.5a1.114,1.114,0,0,1-1.259.044,1.424,1.424,0,0,1-.763-1.334,1.449,1.449,0,0,1-.8-.779,1.14,1.14,0,0,1,0-.717,1.709,1.709,0,0,1-.694-.193c-.414-.28.1-.712.447-.917" transform="translate(94.405 46.772)" fill="#99ad1f"/>
              <path id="Trazado_994186" data-name="Trazado 994186" d="M61.114,32.851a.692.692,0,0,1-.308-.4c-.1-.409.283-.678.658-.712a.207.207,0,0,1-.059-.257.319.319,0,0,1,.362-.154.585.585,0,0,1-.224-.419c0-.252.236-.339.452-.285a.882.882,0,0,1,.211.085.9.9,0,0,1,.439-.5.314.314,0,0,1-.041-.159.181.181,0,0,1,.221-.182.453.453,0,0,1,.1.044.427.427,0,0,1-.075-.352.109.109,0,0,1,.131-.075,1.789,1.789,0,0,1,.409.234.524.524,0,0,1,.244-.4.635.635,0,0,1,.815.182,1.109,1.109,0,0,1,.288-.419c.254-.216.519,0,.707.244a.629.629,0,0,1,.761-.306.806.806,0,0,1,.362.331,1.36,1.36,0,0,1,.275-.27c.46-.326.912.2,1.118.671a1.178,1.178,0,0,1,.365-.275.126.126,0,0,1,.157.036,1.17,1.17,0,0,1,.152.383.569.569,0,0,1,.239-.144.479.479,0,0,1,.558.185c.11.224-.08.486-.226.653-.015.021-.033.039-.051.059a.545.545,0,0,0,.542.267.277.277,0,0,1,.028.308.246.246,0,0,1-.057.059,1.432,1.432,0,0,1,1.262.6c.17.344-.247.647-.676.812a.406.406,0,0,1,.218.357.38.38,0,0,1-.293.339c-.033.01-.067.015-.1.023a.6.6,0,0,1,.252.7.532.532,0,0,1-.491.342c-.057.005-.118.005-.182.005a.788.788,0,0,1-.221.863.764.764,0,0,1-.308.175.526.526,0,0,1,.093.257c.015.3-.118.493-.773.329-.118.3-.647.434-1.066.262-.087.373-.57.64-1.071.221a.517.517,0,0,1-.917-.254c-.234.388-1.035.588-1.185.085-.385.193-.493-.131-.606-.4a.9.9,0,0,1-1.02.036,1.156,1.156,0,0,1-.617-1.079,1.174,1.174,0,0,1-.645-.629.917.917,0,0,1,0-.581,1.325,1.325,0,0,1-.56-.154c-.337-.226.082-.576.36-.743" transform="translate(95.153 45.481)" fill="#adbc2b"/>
              <path id="Trazado_994187" data-name="Trazado 994187" d="M63.753,33.127a2.033,2.033,0,0,1,.375-.005c.131.008.272.036.362-.085.167-.224-.051-.491-.018-.732.005-.039.051-.046.08-.033a.447.447,0,0,1,.146.123,1.458,1.458,0,0,1,.28-.028c.062,0,.236.021.285-.039.1-.121-.221-.411-.28-.5a.074.074,0,0,1,.082-.108c.283.064.645.455.48.753a.615.615,0,0,1-.712.193.731.731,0,0,1-.08.583c-.26.37-.691.175-1.023.033a.084.084,0,0,1,.021-.152" transform="translate(99.96 49.773)" fill="#86a01a"/>
              <path id="Trazado_994188" data-name="Trazado 994188" d="M64.122,34.5a2.033,2.033,0,0,1,.375,0c.131.005.272.033.362-.087.167-.224-.051-.491-.018-.732.005-.036.051-.046.08-.033a.521.521,0,0,1,.146.123,1.458,1.458,0,0,1,.28-.028c.062,0,.234.023.285-.039.1-.121-.221-.409-.28-.5a.074.074,0,0,1,.082-.108c.28.064.645.455.483.755a.619.619,0,0,1-.714.19.731.731,0,0,1-.08.583c-.26.373-.691.175-1.023.033a.084.084,0,0,1,.021-.152" transform="translate(100.539 51.934)" fill="#819315"/>
              <path id="Trazado_994189" data-name="Trazado 994189" d="M61.452,32.4a.1.1,0,0,1,.172-.023c.1.175.2.37.419.411a.588.588,0,0,0,.529-.257c.064-.082.167.01.154.09a.593.593,0,0,1-.234.375c.054.152.116.326.275.29s.206-.234.349-.29a.078.078,0,0,1,.093.054c.072.265-.26.578-.511.573a.556.556,0,0,1-.5-.5.622.622,0,0,1-.229,0c-.311-.057-.635-.385-.522-.722" transform="translate(96.408 50.736)" fill="#86a01a"/>
              <path id="Trazado_994190" data-name="Trazado 994190" d="M62.038,33.933a.1.1,0,0,1,.172-.023c.1.175.2.37.419.411a.588.588,0,0,0,.529-.257c.062-.082.167.01.154.09a.594.594,0,0,1-.234.375c.054.152.116.326.275.29s.206-.234.349-.29a.078.078,0,0,1,.092.054c.072.265-.26.578-.511.573a.561.561,0,0,1-.5-.5.608.608,0,0,1-.226,0c-.311-.057-.637-.385-.522-.722" transform="translate(97.325 53.15)" fill="#819315"/>
              <path id="Trazado_994191" data-name="Trazado 994191" d="M60.945,31.46a.044.044,0,0,1,.059.059c-.09.182-.239.655.123.668a.1.1,0,0,1,.046.175c-.234.172-.491-.015-.534-.277a.576.576,0,0,1,.306-.624" transform="translate(95.154 49.367)" fill="#86a01a"/>
              <path id="Trazado_994192" data-name="Trazado 994192" d="M63.529,31.741c.116.013.229.036.342.049.177.023.236-.051.206-.218-.044-.236-.2-.442-.229-.681a.064.064,0,0,1,.08-.059.718.718,0,0,1,.278.234l.018,0a1.309,1.309,0,0,0,.347.013c.1-.015.2-.026.141-.136-.1-.185-.283-.28-.414-.439-.023-.028-.021-.082.023-.09a.6.6,0,0,1,.468.172c.123.11.306.3.288.483s-.257.29-.421.319a.6.6,0,0,1-.288-.015.819.819,0,0,1,.044.47c-.116.445-.7.311-.951.069-.057-.054-.018-.177.069-.167" transform="translate(99.552 47.719)" fill="#99ad1f"/>
              <path id="Trazado_994193" data-name="Trazado 994193" d="M63.672,29.814a.464.464,0,0,1-.3-.01.076.076,0,0,1-.028-.1c.126-.177.409-.193.609-.218s.362.044.342.283c-.026.326-.388.763-.75.63a.059.059,0,0,1-.015-.108,1.554,1.554,0,0,0,.337-.221.554.554,0,0,0,.149-.311,2.632,2.632,0,0,0-.347.059" transform="translate(99.404 46.262)" fill="#99ad1f"/>
              <path id="Trazado_994194" data-name="Trazado 994194" d="M61.635,30.247a.748.748,0,0,1,.516-.121.637.637,0,0,1-.072-.424.312.312,0,0,1,.36-.283,1.322,1.322,0,0,1,.563.3c.131.105.373.293.352.48a.035.035,0,0,1-.044.033c-.105-.023-.152-.1-.226-.175a1.737,1.737,0,0,0-.321-.244c-.09-.051-.313-.213-.385-.077-.041.077.059.331.08.419a.12.12,0,0,1-.005.041,1.15,1.15,0,0,1,.365.226.045.045,0,0,1-.044.075,1.38,1.38,0,0,0-.838-.054c-.339.139.144.478.2.686.023.1-.085.2-.172.134-.313-.211-.791-.689-.324-1.02" transform="translate(96.425 46.165)" fill="#99ad1f"/>
              <path id="Trazado_994195" data-name="Trazado 994195" d="M61.65,30.964a.1.1,0,0,1,.18-.023c.123.213.3.421.576.375a.989.989,0,0,0,.619-.393.079.079,0,0,1,.136,0,.4.4,0,0,1-.17.462c.131.146.272.349.486.288.275-.08.283-.473.349-.694a.06.06,0,0,1,.113,0,.794.794,0,0,1-.4,1.03.63.63,0,0,1-.758-.478,1.244,1.244,0,0,1-.385.144.651.651,0,0,1-.748-.712" transform="translate(96.741 48.471)" fill="#99ad1f"/>
              <path id="Trazado_994196" data-name="Trazado 994196" d="M62.436,30.2c.17.1.239.306.414.393s.262-.031.4-.082a.071.071,0,0,1,.082.033c.126.262-.27.406-.465.383a.671.671,0,0,1-.573-.647.093.093,0,0,1,.139-.08" transform="translate(97.769 47.372)" fill="#99ad1f"/>
              <path id="Trazado_994197" data-name="Trazado 994197" d="M62.931,33.137c.157.072.3.167.483.1s.231-.254.293-.416c.01-.033.062-.059.09-.023a.513.513,0,0,1-.242.722c-.254.134-.7.039-.761-.277a.094.094,0,0,1,.136-.105" transform="translate(98.547 51.447)" fill="#86a01a"/>
              <path id="Trazado_994198" data-name="Trazado 994198" d="M61.221,33.74c.1.144.175.3.362.337a.6.6,0,0,0,.462-.2c.028-.023.085-.018.09.026.036.311-.3.509-.581.493s-.614-.329-.5-.635a.093.093,0,0,1,.17-.018" transform="translate(95.781 52.878)" fill="#819315"/>
              <path id="Trazado_994199" data-name="Trazado 994199" d="M60.761,55.056l20.28-11.8-9.2-5.311-20.278,11.8Z" transform="translate(80.923 59.558)" fill="#eb4132"/>
              <path id="Trazado_994200" data-name="Trazado 994200" d="M75.422,40.016v2.148l-20.28,11.8V51.812Z" transform="translate(86.541 62.802)" fill="#d32d24"/>
              <path id="Trazado_994201" data-name="Trazado 994201" d="M51.562,44.688V42.54l9.2,5.311V50Z" transform="translate(80.923 66.763)" fill="#bf1916"/>
              <path id="Trazado_994202" data-name="Trazado 994202" d="M51.609,45.8c-1.323,0-2.4.57-2.4,1.274s1.074,1.274,2.4,1.274,2.4-.57,2.4-1.274-1.074-1.274-2.4-1.274" transform="translate(77.234 71.883)" fill="#ceb8a3"/>
              <path id="Trazado_994203" data-name="Trazado 994203" d="M58.055,42.272a9.3,9.3,0,0,1,.134,2.014c0,4.82-2.228,8.728-4.977,8.728s-4.977-3.908-4.977-8.728a16.508,16.508,0,0,1,.008-1.827Z" transform="translate(75.665 66.343)" fill="#dbdbdb"/>
              <path id="Trazado_994204" data-name="Trazado 994204" d="M53.165,41.382c-2.729,0-4.944,1.177-4.944,2.629s2.215,2.631,4.944,2.631,4.944-1.179,4.944-2.631-2.215-2.629-4.944-2.629" transform="translate(75.679 64.946)" fill="#f4f4f4"/>
              <path id="Trazado_994205" data-name="Trazado 994205" d="M56.88,43.073a.938.938,0,0,0-.786-.167l-.049-.031v0a.813.813,0,0,0-.437-.6.574.574,0,0,0-.663.105l-.023.023a.9.9,0,0,0-1.416.039.455.455,0,0,0-.838.213.409.409,0,0,0-.624-.046,1.211,1.211,0,0,0-1.308-.288.767.767,0,0,0-.547.863.524.524,0,0,0-.519.355.933.933,0,0,0-1.228.573,1.287,1.287,0,0,1-.036-.28c0-1.3,1.986-2.359,4.437-2.359,2.194,0,4.011.848,4.365,1.963a.656.656,0,0,0-.059-.062,1.146,1.146,0,0,0-.27-.3" transform="translate(75.969 65.092)" fill="#dbdbdb"/>
              <path id="Trazado_994206" data-name="Trazado 994206" d="M52.821,45.82c-2.271,0-4.142-.91-4.4-2.079a.936.936,0,0,1,1.231-.573.525.525,0,0,1,.519-.355.768.768,0,0,1,.545-.863,1.209,1.209,0,0,1,1.308.288.412.412,0,0,1,.627.046.473.473,0,0,1,.19-.342.484.484,0,0,1,.645.128.907.907,0,0,1,1.418-.036l.021-.026a.578.578,0,0,1,.665-.105.819.819,0,0,1,.437.6v.005l.046.028a.934.934,0,0,1,.786.167,1.041,1.041,0,0,1,.27.306.67.67,0,0,1,.062.059,1.292,1.292,0,0,1,.067.4c0,1.3-1.986,2.359-4.435,2.359" transform="translate(75.991 65.464)" fill="#3d3d3d"/>
              <path id="Trazado_994207" data-name="Trazado 994207" d="M49.953,45.973a16.528,16.528,0,0,0-.131-5.3c-.01-.059.049-.1.105-.105a15.343,15.343,0,0,1,1.57-.105l.01,0,0-.01c.005-.015.026-.008.023.008v.013a.067.067,0,0,1-.018.121,13.934,13.934,0,0,0,.013,5.3,1.186,1.186,0,0,1-1.575.075" transform="translate(78.189 63.48)" fill="#e59a4e"/>
              <path id="Trazado_994208" data-name="Trazado 994208" d="M48.162,42.666a.969.969,0,0,1-.429-.552c-.136-.568.393-.946.915-.989a.287.287,0,0,1-.082-.355c.09-.211.3-.236.5-.216a.823.823,0,0,1-.311-.581c0-.349.326-.47.63-.4a1.2,1.2,0,0,1,.29.121A1.234,1.234,0,0,1,50.29,39a.462.462,0,0,1-.059-.224.25.25,0,0,1,.308-.252.673.673,0,0,1,.134.057.594.594,0,0,1-.105-.486.149.149,0,0,1,.182-.1,2.489,2.489,0,0,1,.565.324.731.731,0,0,1,.342-.563.884.884,0,0,1,1.128.254,1.621,1.621,0,0,1,.4-.581c.357-.3.725.005.984.339a.871.871,0,0,1,1.056-.424,1.129,1.129,0,0,1,.5.46,1.921,1.921,0,0,1,.38-.373c.64-.455,1.267.27,1.552.928a1.6,1.6,0,0,1,.509-.38.163.163,0,0,1,.213.051,1.572,1.572,0,0,1,.213.529.811.811,0,0,1,.331-.2.665.665,0,0,1,.773.26c.154.308-.11.673-.313.9a1.006,1.006,0,0,1-.072.08.6.6,0,0,1,.1.141.6.6,0,0,1,.653.231.381.381,0,0,1,.036.429.334.334,0,0,1-.077.082,1.991,1.991,0,0,1,1.752.832c.234.48-.342.9-.938,1.131a.559.559,0,0,1,.3.493.522.522,0,0,1-.406.47,1.215,1.215,0,0,1-.139.033.835.835,0,0,1,.349.979.738.738,0,0,1-.681.475c-.077.005-.164.005-.252.008a1.093,1.093,0,0,1-.308,1.2,1.06,1.06,0,0,1-.429.242.732.732,0,0,1,.128.355c.023.419-.162.686-1.074.46-.162.416-.9.6-1.48.365-.121.516-.791.886-1.485.306a.721.721,0,0,1-1.277-.352c-.324.537-1.434.817-1.644.113-.532.27-.686-.177-.843-.558a1.247,1.247,0,0,1-1.413.049,1.591,1.591,0,0,1-.856-1.5,1.635,1.635,0,0,1-.9-.874,1.275,1.275,0,0,1,0-.807,1.861,1.861,0,0,1-.779-.218c-.468-.311.116-.8.5-1.028" transform="translate(74.527 58.526)" fill="#86a01a"/>
              <path id="Trazado_994209" data-name="Trazado 994209" d="M48.274,41.31a.862.862,0,0,1-.38-.491c-.123-.509.349-.843.812-.881a.26.26,0,0,1-.072-.319.392.392,0,0,1,.447-.19.74.74,0,0,1-.278-.519c0-.308.293-.419.563-.352a1.25,1.25,0,0,1,.26.105,1.087,1.087,0,0,1,.542-.614.423.423,0,0,1-.051-.2.224.224,0,0,1,.275-.224.685.685,0,0,1,.118.051.529.529,0,0,1-.1-.432.133.133,0,0,1,.164-.092,2.153,2.153,0,0,1,.5.29.654.654,0,0,1,.3-.5.788.788,0,0,1,1,.226,1.444,1.444,0,0,1,.355-.516c.319-.267.645.005.876.3a.776.776,0,0,1,.94-.378,1.013,1.013,0,0,1,.45.409,1.575,1.575,0,0,1,.337-.331c.57-.406,1.128.239,1.382.827a1.46,1.46,0,0,1,.452-.342.154.154,0,0,1,.193.046,1.412,1.412,0,0,1,.188.473.777.777,0,0,1,.3-.18.6.6,0,0,1,.689.231c.136.275-.1.6-.277.807-.021.023-.044.046-.064.072a.553.553,0,0,1,.092.123.528.528,0,0,1,.578.208.339.339,0,0,1,.033.38.273.273,0,0,1-.069.075,1.769,1.769,0,0,1,1.56.743c.211.424-.3.8-.832,1a.493.493,0,0,1,.265.442.458.458,0,0,1-.36.416,1.066,1.066,0,0,1-.123.028.748.748,0,0,1,.311.874.657.657,0,0,1-.606.421c-.069.005-.146.008-.224.008a.971.971,0,0,1-.277,1.066.883.883,0,0,1-.38.213.674.674,0,0,1,.116.319c.021.373-.146.612-.956.409-.144.37-.8.537-1.321.324-.108.46-.7.791-1.321.275a.644.644,0,0,1-1.138-.316c-.285.48-1.277.727-1.462.1-.475.242-.612-.159-.75-.5a1.114,1.114,0,0,1-1.259.044,1.424,1.424,0,0,1-.763-1.334,1.458,1.458,0,0,1-.8-.779,1.14,1.14,0,0,1,0-.717,1.686,1.686,0,0,1-.691-.193c-.416-.28.1-.712.445-.917" transform="translate(74.821 57.323)" fill="#99ad1f"/>
              <path id="Trazado_994210" data-name="Trazado 994210" d="M48.637,39.573a.707.707,0,0,1-.311-.4c-.1-.409.283-.678.658-.712a.207.207,0,0,1-.059-.257.32.32,0,0,1,.362-.154.582.582,0,0,1-.221-.419c0-.252.234-.339.45-.285a.947.947,0,0,1,.213.085.883.883,0,0,1,.437-.5.314.314,0,0,1-.041-.159.182.182,0,0,1,.221-.182.473.473,0,0,1,.1.044.427.427,0,0,1-.075-.352.106.106,0,0,1,.128-.075,1.618,1.618,0,0,1,.409.236.525.525,0,0,1,.244-.406.629.629,0,0,1,.812.182,1.142,1.142,0,0,1,.29-.419c.257-.216.519,0,.707.244a.63.63,0,0,1,.761-.306.812.812,0,0,1,.365.331,1.42,1.42,0,0,1,.272-.27c.462-.326.912.2,1.118.671a1.241,1.241,0,0,1,.365-.275.125.125,0,0,1,.157.036,1.176,1.176,0,0,1,.154.383.522.522,0,0,1,.236-.144.479.479,0,0,1,.558.185c.11.224-.077.486-.224.653-.015.021-.033.039-.051.059a.356.356,0,0,1,.072.1.423.423,0,0,1,.468.167.282.282,0,0,1,.031.308.258.258,0,0,1-.059.059,1.429,1.429,0,0,1,1.262.6c.172.344-.247.647-.676.812a.4.4,0,0,1,.221.357.386.386,0,0,1-.3.339c-.033.01-.067.015-.1.023a.608.608,0,0,1,.252.7.532.532,0,0,1-.493.342c-.057.005-.118.005-.18.005a.807.807,0,0,1-.532,1.038.526.526,0,0,1,.093.257c.015.3-.118.493-.773.329-.118.3-.645.437-1.066.262-.087.373-.57.64-1.071.221a.517.517,0,0,1-.917-.254c-.231.388-1.035.588-1.185.085-.383.193-.493-.131-.606-.4a.9.9,0,0,1-1.017.036,1.152,1.152,0,0,1-.617-1.079,1.166,1.166,0,0,1-.645-.629.882.882,0,0,1,0-.581,1.336,1.336,0,0,1-.563-.154c-.337-.226.082-.576.362-.743" transform="translate(75.566 56.031)" fill="#adbc2b"/>
              <path id="Trazado_994211" data-name="Trazado 994211" d="M51.274,39.85a2.033,2.033,0,0,1,.375,0c.131.005.272.033.362-.087.167-.224-.051-.491-.018-.732.005-.039.051-.046.08-.033a.52.52,0,0,1,.146.123,1.458,1.458,0,0,1,.28-.028c.062,0,.236.021.285-.039.1-.121-.221-.409-.28-.5a.074.074,0,0,1,.082-.108c.283.064.645.455.48.755a.614.614,0,0,1-.712.19.731.731,0,0,1-.08.583c-.26.373-.691.175-1.023.033a.084.084,0,0,1,.021-.152" transform="translate(80.375 60.325)" fill="#86a01a"/>
              <path id="Trazado_994212" data-name="Trazado 994212" d="M51.643,41.227a2.033,2.033,0,0,1,.375,0c.131.005.272.033.362-.087.167-.224-.051-.491-.018-.732.005-.036.051-.046.08-.033a.52.52,0,0,1,.146.123,1.459,1.459,0,0,1,.28-.028c.062,0,.234.023.285-.039.1-.121-.221-.409-.28-.5a.074.074,0,0,1,.082-.108c.28.064.645.455.483.755a.619.619,0,0,1-.714.19.731.731,0,0,1-.08.583c-.26.373-.691.175-1.023.033a.084.084,0,0,1,.021-.152" transform="translate(80.954 62.486)" fill="#819315"/>
              <path id="Trazado_994213" data-name="Trazado 994213" d="M48.974,39.118a.1.1,0,0,1,.172-.023c.1.175.2.37.419.411a.588.588,0,0,0,.529-.257c.064-.082.167.01.154.09a.593.593,0,0,1-.234.375c.054.152.116.326.275.288s.206-.231.349-.288a.078.078,0,0,1,.093.054c.072.265-.26.578-.511.573a.556.556,0,0,1-.5-.5.622.622,0,0,1-.229,0c-.311-.057-.637-.385-.522-.722" transform="translate(76.822 61.287)" fill="#86a01a"/>
              <path id="Trazado_994214" data-name="Trazado 994214" d="M49.557,40.656a.1.1,0,0,1,.172-.023c.1.175.2.37.419.411a.588.588,0,0,0,.529-.257c.064-.082.167.01.154.09a.593.593,0,0,1-.234.375c.054.152.116.326.275.29s.206-.234.349-.29a.078.078,0,0,1,.092.054c.072.265-.26.578-.511.573a.556.556,0,0,1-.5-.5.622.622,0,0,1-.229,0c-.311-.057-.635-.385-.522-.722" transform="translate(77.739 63.701)" fill="#819315"/>
              <path id="Trazado_994215" data-name="Trazado 994215" d="M48.466,38.183a.044.044,0,0,1,.059.059c-.09.182-.239.655.123.668a.1.1,0,0,1,.046.175c-.234.172-.491-.015-.534-.277a.576.576,0,0,1,.306-.624" transform="translate(75.57 59.918)" fill="#86a01a"/>
              <path id="Trazado_994216" data-name="Trazado 994216" d="M51.05,38.464c.116.013.226.036.342.049.177.023.236-.051.206-.218-.044-.236-.2-.442-.229-.681a.063.063,0,0,1,.077-.059.706.706,0,0,1,.28.234l.018,0a1.309,1.309,0,0,0,.347.013c.1-.015.2-.026.141-.136-.1-.185-.283-.28-.414-.439-.023-.028-.021-.082.023-.09a.6.6,0,0,1,.468.172c.126.11.306.3.288.483s-.257.29-.421.319a.6.6,0,0,1-.288-.015.819.819,0,0,1,.044.47c-.116.445-.7.311-.951.069-.057-.054-.018-.177.069-.167" transform="translate(79.967 58.27)" fill="#99ad1f"/>
              <path id="Trazado_994217" data-name="Trazado 994217" d="M51.193,36.537a.464.464,0,0,1-.3-.01.076.076,0,0,1-.028-.1c.126-.177.409-.193.609-.218s.362.044.342.283c-.026.326-.388.763-.75.63a.059.059,0,0,1-.015-.108,1.555,1.555,0,0,0,.337-.221.554.554,0,0,0,.149-.311,2.631,2.631,0,0,0-.347.059" transform="translate(79.819 56.814)" fill="#99ad1f"/>
              <path id="Trazado_994218" data-name="Trazado 994218" d="M49.156,36.97a.748.748,0,0,1,.516-.121.636.636,0,0,1-.069-.424.308.308,0,0,1,.357-.283,1.346,1.346,0,0,1,.565.3c.128.105.37.3.349.48a.035.035,0,0,1-.044.033c-.1-.023-.152-.1-.226-.175a1.656,1.656,0,0,0-.321-.244c-.087-.051-.313-.213-.385-.077-.041.077.059.331.08.419a.113.113,0,0,1-.005.041,1.122,1.122,0,0,1,.365.226.045.045,0,0,1-.044.075,1.378,1.378,0,0,0-.838-.054c-.339.139.144.478.2.686.023.1-.085.2-.172.134-.313-.211-.791-.689-.324-1.02" transform="translate(76.84 56.716)" fill="#99ad1f"/>
              <path id="Trazado_994219" data-name="Trazado 994219" d="M49.172,37.687c.013-.085.139-.092.18-.023.118.213.3.421.573.375a1,1,0,0,0,.622-.393.077.077,0,0,1,.134,0,.405.405,0,0,1-.167.462c.128.149.27.349.483.288.275-.08.283-.473.349-.694a.06.06,0,0,1,.113,0,.792.792,0,0,1-.4,1.03.63.63,0,0,1-.758-.478,1.244,1.244,0,0,1-.385.144.649.649,0,0,1-.745-.712" transform="translate(77.156 59.022)" fill="#99ad1f"/>
              <path id="Trazado_994220" data-name="Trazado 994220" d="M49.957,36.92c.17.1.239.306.414.393s.262-.033.4-.082a.071.071,0,0,1,.082.033c.126.262-.27.406-.465.383A.671.671,0,0,1,49.819,37a.093.093,0,0,1,.139-.08" transform="translate(78.184 57.923)" fill="#99ad1f"/>
              <path id="Trazado_994221" data-name="Trazado 994221" d="M50.452,39.859c.157.072.306.167.483.1s.231-.254.29-.416a.057.057,0,0,1,.092-.023.513.513,0,0,1-.242.722c-.254.134-.7.039-.761-.277a.094.094,0,0,1,.136-.105" transform="translate(78.962 61.998)" fill="#86a01a"/>
              <path id="Trazado_994222" data-name="Trazado 994222" d="M48.743,40.462c.1.144.172.3.362.337a.6.6,0,0,0,.462-.2c.028-.023.085-.018.09.026.036.311-.3.509-.581.493s-.614-.329-.506-.635a.1.1,0,0,1,.172-.018" transform="translate(76.195 63.428)" fill="#819315"/>
              <path id="Trazado_994223" data-name="Trazado 994223" d="M41.97,32.522l2.1-1.488c.126.868.383,1.413.768,1.629a1.588,1.588,0,0,0,1.567-.242,4.242,4.242,0,0,0,1.575-1.5,3.336,3.336,0,0,0,.529-1.683,1.011,1.011,0,0,0-.224-.732.93.93,0,0,0-.779-.172c-.252.031-.83.157-1.729.378a3.423,3.423,0,0,1-2.441,0,2.5,2.5,0,0,1-.987-2.3A6.508,6.508,0,0,1,42.82,24.1a7.291,7.291,0,0,1,1.336-2.217,8.242,8.242,0,0,1,2.107-1.714Q48.279,19,49.3,19.593a2.786,2.786,0,0,1,1.071,2.528L48.209,23.5q-.143-1.021-.6-1.241c-.306-.144-.761-.041-1.37.308a4.242,4.242,0,0,0-1.475,1.369,1.95,1.95,0,0,0-.344,1.084.705.705,0,0,0,.321.681,3.546,3.546,0,0,0,1.986-.193,6.8,6.8,0,0,1,2.333-.319,1.574,1.574,0,0,1,1.185.768,3.825,3.825,0,0,1,.427,2.025,7.392,7.392,0,0,1-.511,2.6A7.726,7.726,0,0,1,48.72,33a9.185,9.185,0,0,1-2.33,1.868q-2.031,1.172-3.119.55t-1.3-2.9" transform="translate(65.868 30.439)" fill="#fff"/>
              <path id="Trazado_994224" data-name="Trazado 994224" d="M46.069,35.685V21.409l2.163-1.249V25.78l4.234-2.446V17.715l2.163-1.249V30.744L52.466,31.99V25.749L48.232,28.2v6.241Z" transform="translate(72.301 25.842)" fill="#fff"/>
              <path id="Trazado_994225" data-name="Trazado 994225" d="M50.1,25.72a14.73,14.73,0,0,1,.491-3.944,13.371,13.371,0,0,1,1-2.533,10.071,10.071,0,0,1,1.382-2.086,9.11,9.11,0,0,1,2.31-1.9q2.366-1.368,3.785-.229t1.421,4.622a13.512,13.512,0,0,1-1.408,6.226,9.7,9.7,0,0,1-3.769,4.129q-2.39,1.376-3.8.249T50.1,25.72m2.228-1.385q0,2.428.84,3.191a1.675,1.675,0,0,0,2.133.021,5.438,5.438,0,0,0,2.122-2.467,9.632,9.632,0,0,0,.827-4.2q0-2.455-.807-3.2t-2.143.031a5.469,5.469,0,0,0-2.153,2.467,9.487,9.487,0,0,0-.82,4.157" transform="translate(78.628 22.779)" fill="#fff"/>
              <path id="Trazado_994226" data-name="Trazado 994226" d="M54.8,29.655V15.379l3.469-2a12.879,12.879,0,0,1,2.569-1.269,1.47,1.47,0,0,1,1.542.506A3.713,3.713,0,0,1,63,15.035a7.835,7.835,0,0,1-1.267,4.35,6.5,6.5,0,0,1-1.123,1.323,16.088,16.088,0,0,1-2.241,1.5l-1.411.812v5.385ZM56.96,16.545V20.6l1.185-.683A7.791,7.791,0,0,0,59.853,18.7a3.5,3.5,0,0,0,.676-1.089,3.408,3.408,0,0,0,.244-1.251,1.426,1.426,0,0,0-.344-1.089.826.826,0,0,0-.868-.128,10.68,10.68,0,0,0-1.557.8Z" transform="translate(86.002 18.924)" fill="#fff"/>
              <path id="Trazado_994227" data-name="Trazado 994227" d="M22,29.789s4.419-3.04,5.362-5.028,2.564-3.23,2.641-4.386-.987-.935-1.711,0A11.991,11.991,0,0,1,26,22.35a30.771,30.771,0,0,0-.735-5.784c-.627-2.269-1.722-2.77-3.536-2s-.383,4.8-2.084,7.446A13.119,13.119,0,0,1,17.2,25.179Z" transform="translate(26.992 22.33)" fill="#ffb9a4"/>
              <path id="Trazado_994228" data-name="Trazado 994228" d="M10.21,29.8c2.569-5.105,8.872-5.6,8.872-5.6a88.008,88.008,0,0,1,15.224-6.161,12.97,12.97,0,0,1,2.554,5.272c-4.353,6.367-7.523,3.2-11.835,6.537-5.162,4-7.156,11.293-13.988,14.137C5.357,46.349,8.188,33.816,10.21,29.8" transform="translate(12.067 28.308)" fill="#99ad1f"/>
              <path id="Trazado_994229" data-name="Trazado 994229" d="M16.115,61.847,14.2,69.517a3.6,3.6,0,0,0,2.724,2.207,8.151,8.151,0,0,0,3.741.021,14.9,14.9,0,0,0,7.487-.021c4.291-1.053,8.122-6.547,5.732-7.541S25.1,63.2,22.38,62.808s-6.264-.961-6.264-.961" transform="translate(22.279 97.064)" fill="#161616"/>
              <path id="Trazado_994230" data-name="Trazado 994230" d="M4.849,58.17,0,64.678a4.565,4.565,0,0,0,1.711,3.166,5.481,5.481,0,0,0,3.536,1.5,15.3,15.3,0,0,0,7.1,2.939c4.481.7,10.28-3,8.41-4.882S12.824,63,10.4,61.554,4.849,58.17,4.849,58.17" transform="translate(0 91.294)" fill="#161616"/>
              <path id="Trazado_994231" data-name="Trazado 994231" d="M22.742,40.8,18.61,36.845s-6.182,9.214-1.259,16.971a37.808,37.808,0,0,0,3.566,16.359c-3.181,3.41-5.648,5.123-9.98,10.506-3.124,3.877-7.577,9.581-9.733,11.465,1.752,4.594,7.806,4.574,7.806,4.574s9.384-8.181,13.61-11.257c6.072-4.417,11.47-7.395,11.647-10.686.113-2.109-4.021-18.808-5.008-22.791-.85.992-7.271-3.551-6.519-11.185" transform="translate(1.891 57.826)" fill="#212121"/>
              <path id="Trazado_994232" data-name="Trazado 994232" d="M25.546,37.208,9.885,39.282C9.387,46.4,6.6,54.7,17.449,55.9A134.352,134.352,0,0,0,33.557,73.285c-1.531,1.829-3.119,2.8-4.933,8.62-2.716,8.718-5.609,20.342-5.609,20.342s5.609,3.8,10.732,1.133c2.909-7.788,11.244-27.518,11-31.391s-19.2-34.782-19.2-34.782" transform="translate(14.437 58.396)" fill="#3d3d3d"/>
              <path id="Trazado_994233" data-name="Trazado 994233" d="M24.021,33.46,20.812,38.7c-2.718-.021-5.553-2.238-7.541-4.617.637-1.015,3.153-3.9,3.045-4.926-1.84-2.284-1.19-4.972.419-8.158,1.686-3.338,6.272-4.9,9.774-3.69a4.581,4.581,0,0,1,3.607,3.366c.658,2.885,1.387,10.106-.555,12.125-1.354,1.411-3.746.712-5.54.663" transform="translate(20.828 26.521)" fill="#ffc9b6"/>
              <path id="Trazado_994234" data-name="Trazado 994234" d="M13.72,25.043a6.482,6.482,0,0,1,1.907-6.331c2.151-2.061,6.662-3.816,9.525-2.223a1.485,1.485,0,0,1,.028-.26,1.781,1.781,0,0,1,2.39-.966,4.469,4.469,0,0,1,1.958,1.367,2.114,2.114,0,0,1,1.369-.447c1.7.1,2.377,2.228,2.282,3.638-.2,2.932-3.266,7.125-6.48,7.462.665,1.434.218,2.492-.632,3.88a6.6,6.6,0,0,1-6.452,2.867c-2.8-.355-5.915-2.336-6.711-5.175a4.194,4.194,0,0,1,.817-3.813" transform="translate(20.011 23.759)" fill="#161616"/>
              <path id="Trazado_994235" data-name="Trazado 994235" d="M20.332,20.386a1.392,1.392,0,0,0-2.4.105c-1.262,1.66,1.827,4.224,1.827,4.224Z" transform="translate(27.66 30.959)" fill="#ffc9b6"/>
              <path id="Trazado_994236" data-name="Trazado 994236" d="M76.281,34.1c-.514-1.734-2.657-2.017-4.119-2.372-.719-.172-2.289,0-3.032-.388-.863-.447-1.575-.681-.933-1.786.719-1.238,1.675-1.434,1.071-2.605a.559.559,0,0,0-.946-.149,52.158,52.158,0,0,1-4.168,4.353c-7.914,1.059-16.537-.2-24.027,2.646-2.788-.825-5.6-1.59-8.4-2.356-3.327-.91-7.287-2.639-10.794-2.387-3.823.272-8.274,4.99-7.454,9.055a3.413,3.413,0,0,0,3.166,2.69,20.306,20.306,0,0,0,3.818-.321,18.451,18.451,0,0,1,5.545.956c4.435,1.156,9.494.352,14.157-.8,1.5.761,4.784.946,7.259.614a34.482,34.482,0,0,0,9.425-2.762c4.435-1.907,5.612-2.947,10.689-1.231,2.081.7,10.162,1.642,8.741-3.155" transform="translate(21.004 41.738)" fill="#ffc9b6"/>
              <path id="Trazado_994237" data-name="Trazado 994237" d="M19.558,21.649c4.134.612,5.745,4.209,11.8,8.867s7.007,6.57,6.457,9.455-.971,4.368-3.327,9.992c-3,7.164-.861,8.379-3.846,12.272.933.581,1.161,3.767.118,4.746-2.978,2.8-13.541,9.648-23.721-.547.462-8.014.152-25.149,2.2-31.473,2.32-7.151,7.567-13.721,10.319-13.312" transform="translate(11.044 33.949)" fill="#adbc2b"/>
              <path id="Trazado_994238" data-name="Trazado 994238" d="M23.122,37.631A38.612,38.612,0,0,1,15.872,40.6a59.387,59.387,0,0,1-6.406,1.282c.966,0,6.377.537,8.6-.794s5.054-3.461,5.054-3.461" transform="translate(14.856 59.059)" fill="#99ad1f"/>
              <path id="Trazado_994239" data-name="Trazado 994239" d="M10.181,37a7.246,7.246,0,0,0,4.99,1.367c2.986-.29,4.869-.653,4.869-.653A17.2,17.2,0,0,0,15.171,37a37.913,37.913,0,0,1-4.99,0" transform="translate(15.978 58.029)" fill="#99ad1f"/>
              <path id="Trazado_994240" data-name="Trazado 994240" d="M32.308,28.932l2.829-.771a14.781,14.781,0,0,1,.683,3.646,4.2,4.2,0,0,1-.815,2.793l-2.79-.11Z" transform="translate(50.559 44.197)" fill="#d9e2ff"/>
              <path id="Trazado_994241" data-name="Trazado 994241" d="M20.645,26.4c3.381-.039,9.915,4.443,18.266,6.269,8.669-1.557,21.547-1.6,21.547-1.6a13.2,13.2,0,0,1,.563,7.207C47.726,43.7,29.108,43.66,29.108,43.66a26.055,26.055,0,0,1-3.063-.015c-2.171-.116-3.569,2.261-7.459,1.85-4.643-.493-4.571-6.734-4.342-11.719.113-2.487,1.907-7.325,6.4-7.377" transform="translate(22.226 41.432)" fill="#99ad1f"/>
              <path id="Trazado_994242" data-name="Trazado 994242" d="M14.764,21.384,12.41,23.8s.021,1.375,3.034,4.162,9.484,4.54,9.484,4.54,1.192-1.858-.93-3.839-9.234-7.277-9.234-7.277" transform="translate(19.476 33.561)" fill="#f4f4f4"/>
            </g>
          </g>
        </g>
      </g>
    </g>
  </g>
</svg>
