<svg xmlns="http://www.w3.org/2000/svg" xmlns:xlink="http://www.w3.org/1999/xlink" width="156.673" height="155.843" viewBox="0 0 156.673 155.843">
  <defs>
    <clipPath id="clip-path">
      <rect id="Rectángulo_455339" data-name="Rectángulo 455339" width="148.397" height="143.935" fill="none"/>
    </clipPath>
  </defs>
  <g id="Grupo_1179128" data-name="Grupo 1179128" transform="translate(-1194.827 -7942.705)">
    <g id="Grupo_1177112" data-name="Grupo 1177112" transform="translate(892.565 3526.281)">
      <rect id="Rectángulo_401003" data-name="Rectángulo 401003" width="144.479" height="152.843" rx="29" transform="translate(303.762 4417.924)" fill="none" stroke="#fe8938" stroke-miterlimit="10" stroke-width="3"/>
      <g id="Grupo_1179002" data-name="Grupo 1179002" transform="translate(310.537 4426.832)">
        <g id="Grupo_1179001" data-name="Grupo 1179001" clip-path="url(#clip-path)">
          <path id="Trazado_1001386" data-name="Trazado 1001386" d="M419.948.437l29.957,17.2,29.923,17.182a5.818,5.818,0,0,1,2.832,4.377q0,5.094.008,10.189t.007,10.192c0,.848-.123,1.036-.728,1.42l-2.195,1.112-.739-1.879-29.105-16.7L422.988,28.09l-5.773,8.428L415.127,37.6l.128-2.3.84-2.245,1.1-.706-.054-10.12c-.008-.089-.012-.178-.012-.264V20.118l0-8.346,0-8.671-.885-.243L415.86,1.2,417.844.158a2.222,2.222,0,0,1,2.1.279" transform="translate(-334.278 0)" fill="#ed5563" fill-rule="evenodd"/>
          <path id="Trazado_1001387" data-name="Trazado 1001387" d="M417.492,6.018l29.956,17.2L477.372,40.4a5.817,5.817,0,0,1,2.832,4.376q0,5.095.008,10.189t.007,10.192c0,1.514-1.277,2.021-2.83,1.131L447.452,49.113l-26.92-15.442L414.759,42.1l-.077-14.283q-.012-.134-.012-.265V25.7l0-8.346q0-5.1.005-10.2c0-1.515,1.259-2.031,2.812-1.139" transform="translate(-333.91 -4.494)" fill="#fd697c" fill-rule="evenodd"/>
          <path id="Trazado_1001388" data-name="Trazado 1001388" d="M443.727,82.157c-1.317-2.841-2.414-5.229-3.718-8.068-.8-1.768,1.3-2.112,1.778-1.052.4.861,2.92,6.564,3.939,8.491.507.959.76.966,1.321.248.883-1.13,1.616-2.059,2.555-3.265,1.088-1.4,1.867-2.379,2.962-3.773a1.231,1.231,0,1,1,1.946,1.506l-1.35,1.713a71.78,71.78,0,0,1-5.076,6.264,1.854,1.854,0,0,1-2.312.5,6.34,6.34,0,0,1-2.046-2.56" transform="translate(-354.169 -58.329)" fill="#fff" fill-rule="evenodd"/>
          <path id="Trazado_1001389" data-name="Trazado 1001389" d="M550.712,131.706c10.96,6.291,21.334,12.243,32.293,18.534,1.356.775,1.889-1.359.584-2.009q-16.214-9.309-32.431-18.614c-1.086-.684-1.764,1.322-.447,2.09" transform="translate(-442.873 -104.26)" fill="#fff" fill-rule="evenodd"/>
          <path id="Trazado_1001390" data-name="Trazado 1001390" d="M568.18,166.6c-3.146-1.8-6.535-3.761-9.674-5.562l-9.418-5.4c-1.073-.673-1.7,1.3-.344,2.107,3.139,1.8,6.623,3.843,9.762,5.644l8.94,5.129c1.474.873,2.272-1.124.734-1.912" transform="translate(-441.249 -125.213)" fill="#fff" fill-rule="evenodd"/>
          <path id="Trazado_1001391" data-name="Trazado 1001391" d="M683.1,233.107c-2.53-1.45-5.214-3.015-7.738-4.462-1.433-.842-2.293,1-.674,1.894,2.523,1.447,5.144,3.017,7.674,4.468,1.591.912,2.452-.986.738-1.9" transform="translate(-542.586 -183.942)" fill="#fff" fill-rule="evenodd"/>
          <path id="Trazado_1001392" data-name="Trazado 1001392" d="M314.132,643.907l-.216-.092-.2-1.082.486-.6Z" transform="translate(-252.619 -517.072)" fill="#543333" fill-rule="evenodd"/>
          <path id="Trazado_1001393" data-name="Trazado 1001393" d="M314.688,637.094l-.269,2.753-.32,0-.422-2.59Z" transform="translate(-252.585 -513.015)" fill="#624566" fill-rule="evenodd"/>
          <path id="Trazado_1001394" data-name="Trazado 1001394" d="M258.846,441.632c-.127.6,3.976,27.933,4.385,30.107.8,5.651-.36,5.831-2.575,9.734-.417.907.638,1.324,1.618.981a11.749,11.749,0,0,0,4.61-5.884c-1.581-3.216.45-9.657.172-13.9-.294-2.207-.792-18.119-.792-18.119Z" transform="translate(-208.432 -355.621)" fill="#f78173" fill-rule="evenodd"/>
          <path id="Trazado_1001395" data-name="Trazado 1001395" d="M262.163,621.106s-1.544,1.773-1.814,2.153c-.853,1.5,3.073.62,3.85.074,1.265-.963,1.9-2.876,2.722-3.592q.03.963.061,1.925l.38.159.343-.282a14.491,14.491,0,0,1-.025-2.121c.091-.319,1.311-1.993.077-3.493-.473,1.532-3.824,7.985-5.594,5.177" transform="translate(-209.547 -495.972)" fill="#624566" fill-rule="evenodd"/>
          <path id="Trazado_1001396" data-name="Trazado 1001396" d="M294.589,634.295l.061,1.925.38.159L294.978,634Z" transform="translate(-237.216 -510.527)" fill="#543333" fill-rule="evenodd"/>
          <path id="Trazado_1001397" data-name="Trazado 1001397" d="M281.422,449.718c1.628,11.442,5.981,30.495,2.025,42.29a13.091,13.091,0,0,0,2.06-.76c2.125-1.374,2.932-5.24,2.624-7.257-.444-.933.857-5.8,1.321-7.808.878-3.767-.273-8.478-.517-12.711.351-5.44,1.325-12.915,1.325-12.915-2.822-.18-6.015-.659-8.837-.838" transform="translate(-226.613 -362.132)" fill="#ffa582" fill-rule="evenodd"/>
          <path id="Trazado_1001398" data-name="Trazado 1001398" d="M289.523,629.6c0,.41-1.646,3.279.139,3.04a4.048,4.048,0,0,0,3.159-1.785c.441-.882,1.005-3.384,1.52-4.487.8-1.316.53-3.107-.332-3.659-.367,2.556-.872,7.743-4.486,6.891" transform="translate(-232.578 -501.428)" fill="#624566" fill-rule="evenodd"/>
          <path id="Trazado_1001399" data-name="Trazado 1001399" d="M141.731,264.488c-3.559-1.949-7.28-.149-3.584-.018.333.106.424.636.424.636-.817,1.025-3.348.563-3.877,1.121-.3.455.666,1.667,2.757,1.7s4.726-1.7,4.726-1.7Z" transform="translate(-108.417 -212.252)" fill="#ffa582" fill-rule="evenodd"/>
          <path id="Trazado_1001400" data-name="Trazado 1001400" d="M274.6,129.935s-1.946.019-2.141-.827a14.035,14.035,0,0,1,2.082-6.9c3.6-5.206,10.709-.721,10.388,5.135-.1,1.527-1.42,1.776-3.983,3.039-2.465,1.215-5.529-.378-6.346-.451" transform="translate(-219.372 -96.562)" fill="#ffd098" fill-rule="evenodd"/>
          <path id="Trazado_1001401" data-name="Trazado 1001401" d="M235.1,324.133a151.831,151.831,0,0,0-4.58,23.284c7.026,4.506,18.213,8.524,24.528.65a169.714,169.714,0,0,0-3.181-23.806c-5.629.07-11.14-.2-16.768-.129" transform="translate(-185.625 -260.996)" fill="#624566" fill-rule="evenodd"/>
          <path id="Trazado_1001402" data-name="Trazado 1001402" d="M187.821,197.191c-4.116,8.75-9.051,12.528-19.069,13l.409,3.421c3.79.612,18.4-.623,18.686-8.659l-.026-7.766" transform="translate(-135.886 -158.787)" fill="#bec251" fill-rule="evenodd"/>
          <path id="Trazado_1001403" data-name="Trazado 1001403" d="M266.422,188.755c3.011,1.224,6.094,3.77,5.012,7.983-.765,4.318-3.355,12.983-1.257,18.022-3.345,3.16-13.768,2.468-16.893-.7,2.809-6.991,1.167-9.56-.161-15.229-.164-2.04.692-2.868,1.3-4.853,1.319-8.928,5.088-6.586,12-5.226" transform="translate(-203.809 -150.926)" fill="#c5c95f" fill-rule="evenodd"/>
          <path id="Trazado_1001404" data-name="Trazado 1001404" d="M292.351,171.374c-.036.459-.035,3.447.5,4.365.364,2.785-8.226,6.672-6.957,1.65,1.317-2.96,1.717-1.807,1.682-4.331l3.051-1.843a2.566,2.566,0,0,0,1.722.159" transform="translate(-230.114 -137.87)" fill="#ffa582" fill-rule="evenodd"/>
          <path id="Trazado_1001405" data-name="Trazado 1001405" d="M294.7,172.851c.029-.514.07-1.215.07-1.215l2.478-2.187,1.145.688c-.162.9-1.457,3.122-3.693,2.714" transform="translate(-237.307 -136.448)" fill="#f78173" fill-rule="evenodd"/>
          <path id="Trazado_1001406" data-name="Trazado 1001406" d="M287.4,146.466c-4.013,4.811-6.694.988-6.584-3.79a6.533,6.533,0,0,1,2.167-2.471c4.2,3.5,1.4,5.019,4.417,6.26" transform="translate(-226.12 -112.9)" fill="#ffa582" fill-rule="evenodd"/>
          <path id="Trazado_1001407" data-name="Trazado 1001407" d="M208.246,279.217s-2.392-.861-3.062-1.244c-.932-.648-3.556-2.45-1.786-.239a3.354,3.354,0,0,1,.606.813c-1.747,1.072-4.084.017-4.594.717-.3.574,1.547,2.01,3.269,2.265s5.422-.8,5.422-.8Z" transform="translate(-160.548 -222.783)" fill="#ffa582" fill-rule="evenodd"/>
          <path id="Trazado_1001408" data-name="Trazado 1001408" d="M255.487,221.768c-1.7,4.6-1.984,5.27-3.286,6.018s-9.955,1.259-9.955,1.259l.09,3.524c10.745,1.413,16.212-1.11,20.168-12.443,2.053-7.778-4.527-5.424-7.017,1.642" transform="translate(-195.067 -173.353)" fill="#c5c95f" fill-rule="evenodd"/>
          <path id="Trazado_1001409" data-name="Trazado 1001409" d="M271.351,229.844a.144.144,0,0,1-.01-.286c4.191-.314,4.973-.637,6.467-4.388,1.013-2.941,2.835-6.993,5.329-8.45a.143.143,0,0,1,.168.232c-6.682,4.6-2.961,13-11.954,12.892" transform="translate(-218.392 -174.49)" fill="#a9ad3b"/>
          <path id="Trazado_1001410" data-name="Trazado 1001410" d="M267.416,268.974a.143.143,0,0,1,0-.287c7.109.6,11.042-3.51,13.384-8.61.076-.165.345-.039.257.128-2.38,5.238-6.519,9.359-13.64,8.768" transform="translate(-215.223 -209.364)" fill="#a9ad3b"/>
          <path id="Trazado_1001411" data-name="Trazado 1001411" d="M34.728,696.983a26.865,26.865,0,0,0,.448,4.287c.28.476,1.99.869,3.335.2s6.781-3.7,6.557-4.6c.313-2.714-5.63-.167-6.109-.336-.588,0-4.231.448-4.231.448" transform="translate(-27.964 -560.137)" fill="#5e3a3a" fill-rule="evenodd"/>
          <path id="Trazado_1001412" data-name="Trazado 1001412" d="M101.959,270.815s2.577-2.259,3.025-2.665.883-.249.73.255c-.135.484-1.259,1.052-1.163,1.331s2.1-.644,2.1-.644l1.555,1.261c-.4.195-3.969,2.5-4.792,2.4Z" transform="translate(-82.102 -215.74)" fill="#ffa582" fill-rule="evenodd"/>
          <path id="Trazado_1001413" data-name="Trazado 1001413" d="M56.68,708.518a26.845,26.845,0,0,0,.449,4.287c.28.476,1.99.869,3.334.2s6.781-3.7,6.557-4.6c.312-2.714-5.63-.168-6.109-.336-.588,0-4.231.448-4.231.448" transform="translate(-45.641 -569.426)" fill="#624566" fill-rule="evenodd"/>
          <path id="Trazado_1001414" data-name="Trazado 1001414" d="M57.063,281.53s6.676-2.08,9-2.778a2.4,2.4,0,0,1,1.569,2.914c-.728.7-7.146,3.979-7.146,3.979l-3.42-4.115" transform="translate(-45.95 -224.463)" fill="#ed5563" fill-rule="evenodd"/>
          <path id="Trazado_1001415" data-name="Trazado 1001415" d="M11.788,484.964c.832,2.954,2.733,19.108,1.456,23.259-1.064,3.767,1.566,17.012,2.634,20.064a4.989,4.989,0,0,0,4.876-.784s.952-34.971-.841-38.222a14.715,14.715,0,0,0-5.6-5.156Z" transform="translate(-9.492 -389.837)" fill="#624566" fill-rule="evenodd"/>
          <path id="Trazado_1001416" data-name="Trazado 1001416" d="M7.177,456.1s-.084,4.077.9,5.338c2.777,1.795,5.928,3.577,6.208,7.444s1.134,14.511.63,16.36c-1.871,5.67.378,16.349,1.4,20.736a5.115,5.115,0,0,0,5.772-1.569c-.806-10.879,2.961-39.041,1.737-49.206-.168-1.009-16.645.9-16.645.9" transform="translate(-5.778 -366.312)" fill="#74597d" fill-rule="evenodd"/>
          <path id="Trazado_1001417" data-name="Trazado 1001417" d="M37.2,218.44c-.2,1.615,1.1,7.995-2.942,8.014l.028,5.409L27.447,229.4a27.445,27.445,0,0,0,.56-4.427c.056-2.13-.981-6.053.56-7.314,2.656-2.4,6.858-.1,8.631.784" transform="translate(-22.102 -174.41)" fill="#ffa582" fill-rule="evenodd"/>
          <path id="Trazado_1001418" data-name="Trazado 1001418" d="M26.048,211.195c.239,3.076-.269,4.124,2.886,3.293,3.282-1.124,2.71-3.631,3.083-5.675a16.79,16.79,0,0,1,3.054-1.541A1.106,1.106,0,0,0,35.8,206.1c-.927-5.773-9.806-5.455-10.007.028-.086,1.178.2,3.618.251,5.071" transform="translate(-20.76 -162.568)" fill="#d93b39" fill-rule="evenodd"/>
          <path id="Trazado_1001419" data-name="Trazado 1001419" d="M52.884,238.737c1-.342,1.758,2.094.745,2.38-1,.342-1.758-2.094-.745-2.38" transform="translate(-42.199 -192.215)" fill="#ffa582" fill-rule="evenodd"/>
          <path id="Trazado_1001420" data-name="Trazado 1001420" d="M60.431,214.609c9.549-5.4-2.645-5.721-3.85-2.446Z" transform="translate(-45.561 -169.141)" fill="#ed5563" fill-rule="evenodd"/>
          <path id="Trazado_1001421" data-name="Trazado 1001421" d="M5.667,280.257c-9.31,2.624-4.265,18.77-4.6,25.262C1.015,307.985.4,315.943.4,315.943c5.2,3.444,15.795,3.732,19.223-1.177,0,0-1.4-8.518-1.569-11.209.352-10.832.61-21.246-12.385-23.3" transform="translate(0 -225.675)" fill="#fd697c" fill-rule="evenodd"/>
          <path id="Trazado_1001422" data-name="Trazado 1001422" d="M23.192,276.594c1.543-3.111,6.932.019,8.113,2.343-3-1.221-5.8-2.49-8.113-2.343" transform="translate(-18.675 -221.674)" fill="#ed5563" fill-rule="evenodd"/>
          <path id="Trazado_1001423" data-name="Trazado 1001423" d="M119.437,235.641l.019,8.637,10.78,6.293.01-8.944Z" transform="translate(-96.175 -189.749)" fill="#fab954" fill-rule="evenodd"/>
          <path id="Trazado_1001424" data-name="Trazado 1001424" d="M119,216.573l7.682-4.455,10.7,6.16-7.467,4.418Z" transform="translate(-95.828 -170.807)" fill="#ffd27f" fill-rule="evenodd"/>
          <path id="Trazado_1001425" data-name="Trazado 1001425" d="M174.894,248.154l-.01,8.944,7.464-4.358.034-8.992Z" transform="translate(-140.824 -196.276)" fill="#ffc970" fill-rule="evenodd"/>
          <path id="Trazado_1001426" data-name="Trazado 1001426" d="M141.525,248.15l.1,8.763,1.38.806v-8.737Z" transform="translate(-113.962 -199.821)" fill="#c2d2e2" fill-rule="evenodd"/>
          <path id="Trazado_1001427" data-name="Trazado 1001427" d="M143.008,230.562l7.5-4.536-1.3-.75-7.682,4.455Z" transform="translate(-113.962 -181.401)" fill="#e4ebff" fill-rule="evenodd"/>
          <path id="Trazado_1001428" data-name="Trazado 1001428" d="M63.884,403.157a14.038,14.038,0,0,0,5.429-2.214c.275,2.119.481,3.775.756,5.894a13.643,13.643,0,0,1-6.213,2.675c-.343-.409-.232-5.961.027-6.355" transform="translate(-51.247 -322.856)" fill="#ed5563" fill-rule="evenodd"/>
          <path id="Trazado_1001429" data-name="Trazado 1001429" d="M64.065,403.157a14.038,14.038,0,0,0,5.429-2.214c.084.645.161,1.246.236,1.831a17.018,17.018,0,0,1-5.864,2.119,6.964,6.964,0,0,1,.2-1.736" transform="translate(-51.428 -322.856)" fill="#d64f68" fill-rule="evenodd"/>
          <path id="Trazado_1001430" data-name="Trazado 1001430" d="M22.955,206.64c2.267,1.713,8.749.288,10.76-1.541.173-9.2-13.466-7.895-10.76,1.541" transform="translate(-18.198 -160.115)" fill="#fd697c" fill-rule="evenodd"/>
          <path id="Trazado_1001431" data-name="Trazado 1001431" d="M157.355,305.026a32.688,32.688,0,0,0,2.582-2.5c.224-.435.54-.869.834-.715.484.43-.1,1.328-.4,1.886,1.171.739,2.538-2.306,3.456-1.749.588.476-.308,2.634-.925,3.307s-3.587,1.513-3.867,1.6-1.681-1.822-1.681-1.822" transform="translate(-126.709 -243.002)" fill="#ffa582" fill-rule="evenodd"/>
          <path id="Trazado_1001432" data-name="Trazado 1001432" d="M56.526,305.794c7.505,8.906,15.051,6.375,21.353.224a4.356,4.356,0,0,0-2.578-3.447c-2.244,1.011-5.745,3.545-8.351,2.858-2.31-.894-6.433-6.182-9.111-5.617-1.826.53-3.108,3.1-1.313,5.981" transform="translate(-44.822 -241.388)" fill="#fd697c" fill-rule="evenodd"/>
          <path id="Trazado_1001433" data-name="Trazado 1001433" d="M61.327,314.778c-3.835-1.72-8.123-5.78-6-9.539a.215.215,0,0,1,.388.184c-1.975,3.625,2.18,7.228,5.717,8.95a.217.217,0,0,1-.1.4" transform="translate(-44.097 -245.696)" fill="#ed5563"/>
          <path id="Trazado_1001434" data-name="Trazado 1001434" d="M442.941,395.488l27.085,16.174,0,34.554L442.945,430.24Z" transform="translate(-356.675 -318.464)" fill="#fab954" fill-rule="evenodd"/>
          <path id="Trazado_1001435" data-name="Trazado 1001435" d="M609.688,393.7,582.014,410.22l0,34.554,27.667-16.332Z" transform="translate(-468.663 -317.022)" fill="#ffc970" fill-rule="evenodd"/>
          <path id="Trazado_1001436" data-name="Trazado 1001436" d="M648.06,428.1l0,34.64,4.364-2.576,0-34.727Z" transform="translate(-521.845 -342.577)" fill="#b4b847" fill-rule="evenodd"/>
          <path id="Trazado_1001437" data-name="Trazado 1001437" d="M442.941,327.665l27.649-16.4,27.11,16.055-27.729,16.554Z" transform="translate(-356.675 -250.641)" fill="#ffd27f" fill-rule="evenodd"/>
          <path id="Trazado_1001438" data-name="Trazado 1001438" d="M532.483,348.613l-3.791-2.241L500.766,362.69l3.958,2.373Z" transform="translate(-403.238 -278.914)" fill="#c5c95f" fill-rule="evenodd"/>
          <path id="Trazado_1001439" data-name="Trazado 1001439" d="M504.724,432.529l-.006,34.6-3.952-2.331V430.156Z" transform="translate(-403.238 -346.38)" fill="#b4b847" fill-rule="evenodd"/>
          <path id="Trazado_1001440" data-name="Trazado 1001440" d="M508.556,345.76l4.4-2.612L540.1,359.225l-4.372,2.61Z" transform="translate(-409.511 -276.317)" fill="#c5c95f" fill-rule="evenodd"/>
        </g>
      </g>
    </g>
  </g>
</svg>
