<svg xmlns="http://www.w3.org/2000/svg" xmlns:xlink="http://www.w3.org/1999/xlink" width="147.479" height="155.843" viewBox="0 0 147.479 155.843">
  <defs>
    <clipPath id="clip-path">
      <rect id="Rectángulo_455340" data-name="Rectángulo 455340" width="132.85" height="148.613" fill="none"/>
    </clipPath>
  </defs>
  <g id="Grupo_1179125" data-name="Grupo 1179125" transform="translate(-249.827 -8711.964)">
    <g id="Grupo_1177114" data-name="Grupo 1177114" transform="translate(-52.435 4295.54)">
      <rect id="Rectángulo_401003" data-name="Rectángulo 401003" width="144.479" height="152.843" rx="29" transform="translate(303.762 4417.924)" fill="none" stroke="#fe8938" stroke-miterlimit="10" stroke-width="3"/>
      <g id="Grupo_1179005" data-name="Grupo 1179005" transform="translate(309.576 4420.04)">
        <path id="Trazado_1001441" data-name="Trazado 1001441" d="M215.518,79.108l-.233,60.9L166.29,168.48l.232-60.9Z" transform="translate(-97.076 -46.182)" fill="#efac41"/>
        <path id="Trazado_1001442" data-name="Trazado 1001442" d="M100.333,109.3l-.233,60.9L52.908,142.954l.233-60.9Z" transform="translate(-30.887 -47.902)" fill="#f9bb4a"/>
        <path id="Trazado_1001443" data-name="Trazado 1001443" d="M62.32,102.778l-1.5-.863-.212,27.309,1.508-.758Z" transform="translate(-35.384 -59.496)" fill="#efac41"/>
        <path id="Trazado_1001444" data-name="Trazado 1001444" d="M62.121,165.7h0l-1.508.758,40.8,23.555.012-1.622Z" transform="translate(-35.385 -96.734)" fill="#fed57a"/>
        <path id="Trazado_1001445" data-name="Trazado 1001445" d="M64.435,103.989l-.2,25.687,39.306,22.692.2-25.687Z" transform="translate(-37.499 -60.706)" fill="#dd9e43"/>
        <path id="Trazado_1001446" data-name="Trazado 1001446" d="M62.32,181.411l-1.5-.863-.212,15.329,1.508-.758Z" transform="translate(-35.384 -105.399)" fill="#efac41"/>
        <path id="Trazado_1001447" data-name="Trazado 1001447" d="M62.121,215.553h0l-1.508.758,40.8,23.555.012-1.622Z" transform="translate(-35.385 -125.835)" fill="#fed57a"/>
        <path id="Trazado_1001448" data-name="Trazado 1001448" d="M64.435,182.621l-.2,13.707,39.306,22.692.2-13.707Z" transform="translate(-37.499 -106.61)" fill="#dd9e43"/>
        <path id="Trazado_1001449" data-name="Trazado 1001449" d="M272.387,100.208l1.5-.863.212,27.309-1.508-.758Z" transform="translate(-159.013 -57.995)" fill="#f9bb4a"/>
        <path id="Trazado_1001450" data-name="Trazado 1001450" d="M215.639,163.134h0l1.508.758-42.3,24.468-.012-1.622Z" transform="translate(-102.066 -95.234)" fill="#fed57a"/>
        <path id="Trazado_1001451" data-name="Trazado 1001451" d="M215.163,101.419l.2,25.687-40.8,23.6-.2-25.687Z" transform="translate(-101.789 -59.206)" fill="#dd9e43"/>
        <path id="Trazado_1001452" data-name="Trazado 1001452" d="M272.387,178.841l1.5-.863.212,15.329-1.508-.758Z" transform="translate(-159.013 -103.899)" fill="#f9bb4a"/>
        <path id="Trazado_1001453" data-name="Trazado 1001453" d="M215.639,212.983h0l1.508.758-42.3,24.468-.012-1.622Z" transform="translate(-102.066 -124.335)" fill="#fed57a"/>
        <path id="Trazado_1001454" data-name="Trazado 1001454" d="M215.163,180.051l.2,13.707-40.8,23.6-.2-13.707Z" transform="translate(-101.789 -105.11)" fill="#dd9e43"/>
        <path id="Trazado_1001455" data-name="Trazado 1001455" d="M149.654,40.894l-49,28.473L53.467,42.12l49-28.473Z" transform="translate(-31.213 -7.967)" fill="#fed57a"/>
        <path id="Trazado_1001456" data-name="Trazado 1001456" d="M171.19,22.538v1.71l15.617,9.015,1.477-.858Z" transform="translate(-99.937 -13.157)" fill="#eaaa42"/>
        <path id="Trazado_1001457" data-name="Trazado 1001457" d="M68.816,47.3l1.476.852,41.134-23.905v-1.71Z" transform="translate(-40.173 -13.157)" fill="#efac41"/>
        <path id="Trazado_1001458" data-name="Trazado 1001458" d="M129.114,35.662,113.5,26.647,72.364,50.552l15.615,9.015Z" transform="translate(-42.244 -15.556)" fill="#f9bb4a"/>
        <path id="Trazado_1001459" data-name="Trazado 1001459" d="M222.283,52.005v1.71L237.9,62.731l1.477-.858Z" transform="translate(-129.764 -30.36)" fill="#eaaa42"/>
        <path id="Trazado_1001460" data-name="Trazado 1001460" d="M119.909,76.769l1.477.852L162.52,53.716v-1.71Z" transform="translate(-70 -30.36)" fill="#efac41"/>
        <path id="Trazado_1001461" data-name="Trazado 1001461" d="M180.207,65.13l-15.617-9.015L123.457,80.02l15.615,9.015Z" transform="translate(-72.071 -32.758)" fill="#f9bb4a"/>
        <path id="Trazado_1001462" data-name="Trazado 1001462" d="M230.175,131.873l.967,1.84-.6.346-1.321.757Z" transform="translate(-133.814 -76.984)" fill="#3f434f"/>
        <path id="Trazado_1001463" data-name="Trazado 1001463" d="M231.383,137.124l.01,3.639-.723.417-.01-3.639Z" transform="translate(-134.654 -80.05)" fill="#3f434f"/>
        <path id="Trazado_1001464" data-name="Trazado 1001464" d="M234.022,141.684l0,.779-4.988,2.88,0-.779Z" transform="translate(-133.705 -82.712)" fill="#3f434f"/>
        <g id="Grupo_1179004" data-name="Grupo 1179004">
          <g id="Grupo_1179003" data-name="Grupo 1179003" clip-path="url(#clip-path)">
            <path id="Trazado_1001465" data-name="Trazado 1001465" d="M259.261,114.261l.008,2.593a3.065,3.065,0,0,1-1.1,2.252l.006,2.338c.441-.2.773-.184.773.06L257,122.627c0-.245.33-.646.77-.952l-.006-2.338a.777.777,0,0,1-.729-.035,1.129,1.129,0,0,1-.38-.943l-.007-2.593Z" transform="translate(-149.828 -66.703)" fill="#3f434f"/>
            <path id="Trazado_1001466" data-name="Trazado 1001466" d="M238.325,133.115l.01,3.639-.723.417-.01-3.639Z" transform="translate(-138.707 -77.709)" fill="#3f434f"/>
            <path id="Trazado_1001467" data-name="Trazado 1001467" d="M237.13,127.857l.962,1.843-.6.346-1.316.754Z" transform="translate(-137.874 -74.64)" fill="#3f434f"/>
            <path id="Trazado_1001468" data-name="Trazado 1001468" d="M249.85,121.943a.459.459,0,0,1-.214-.422l-.021-7.787a1.182,1.182,0,0,1,.537-.932l6.765-3.905a.461.461,0,0,1,.462-.03.473.473,0,0,1,.21.429l.023,7.787a1.185,1.185,0,0,1-.524.926l-6.765,3.9a.562.562,0,0,1-.277.082.37.37,0,0,1-.194-.051m7.21-12.8-6.765,3.905a.917.917,0,0,0-.4.686l.021,7.787a.206.206,0,0,0,.07.175.213.213,0,0,0,.186-.03l6.765-3.905a.892.892,0,0,0,.385-.678l-.023-7.787a.211.211,0,0,0-.067-.182.108.108,0,0,0-.049-.012.259.259,0,0,0-.126.042" transform="translate(-145.719 -63.525)" fill="#3f434f"/>
            <path id="Trazado_1001469" data-name="Trazado 1001469" d="M225.655,135.906a.463.463,0,0,1-.207-.42l-.021-7.787a1.171,1.171,0,0,1,.536-.933l6.765-3.908a.444.444,0,0,1,.462-.028.467.467,0,0,1,.21.427l.023,7.79a1.161,1.161,0,0,1-.527.925l-6.765,3.905a.545.545,0,0,1-.275.079.4.4,0,0,1-.2-.051m7.217-12.8-6.765,3.908a.912.912,0,0,0-.4.686l.021,7.787a.2.2,0,0,0,.068.172.215.215,0,0,0,.189-.028l6.763-3.905a.894.894,0,0,0,.387-.678l-.023-7.79a.2.2,0,0,0-.067-.179.117.117,0,0,0-.051-.012.268.268,0,0,0-.124.04" transform="translate(-131.599 -71.676)" fill="#3f434f"/>
            <path id="Trazado_1001470" data-name="Trazado 1001470" d="M102.5,202.974l-.1,33.528L72.427,254.125l.1-33.528,12.9-7.609,3.88-2.258Z" transform="translate(-42.281 -118.492)" fill="#efac41"/>
            <path id="Trazado_1001471" data-name="Trazado 1001471" d="M30.282,220.6l-.122,33.486L0,236.45l.1-33.456v-.05h.05l13.084,7.674,2.974,1.756.892.5Z" transform="translate(0 -118.474)" fill="#f9bb4a"/>
            <path id="Trazado_1001472" data-name="Trazado 1001472" d="M60.377,178.33,30.4,195.953l-13.176-7.72-3.814-2.183-.077-.039L.237,178.33l29.974-17.624Z" transform="translate(-0.138 -93.817)" fill="#fed57a"/>
            <path id="Trazado_1001473" data-name="Trazado 1001473" d="M65.6,181.384,35.628,199.007l-3.814-2.184-.077-.039,30.05-17.623.039.039Z" transform="translate(-18.527 -104.591)" fill="#e4e8f4"/>
            <path id="Trazado_1001474" data-name="Trazado 1001474" d="M31.674,229.476l3.88,2.308L35.6,223.8v-.1l-.873-.491-3.007-1.718v.049Z" transform="translate(-18.49 -129.301)" fill="#d4dae8"/>
            <path id="Trazado_1001475" data-name="Trazado 1001475" d="M81.41,297.529l.9,1.74-.56.327-1.235.716Z" transform="translate(-47.005 -173.69)" fill="#3f434f"/>
            <path id="Trazado_1001476" data-name="Trazado 1001476" d="M82.539,302.494l.01,3.442-.675.395-.01-3.442Z" transform="translate(-47.79 -176.589)" fill="#3f434f"/>
            <path id="Trazado_1001477" data-name="Trazado 1001477" d="M85.006,306.806l0,.737-4.661,2.724,0-.737Z" transform="translate(-46.903 -179.106)" fill="#3f434f"/>
            <path id="Trazado_1001478" data-name="Trazado 1001478" d="M108.592,280.874l.007,2.452a2.909,2.909,0,0,1-1.027,2.13l.006,2.211c.412-.192.722-.174.723.057l-1.818,1.062c0-.231.309-.611.72-.9l-.006-2.21a.721.721,0,0,1-.681-.033,1.073,1.073,0,0,1-.355-.892l-.007-2.452Z" transform="translate(-61.971 -163.968)" fill="#3f434f"/>
            <path id="Trazado_1001479" data-name="Trazado 1001479" d="M89.027,298.7l.01,3.442-.675.395-.01-3.442Z" transform="translate(-51.578 -174.376)" fill="#3f434f"/>
            <path id="Trazado_1001480" data-name="Trazado 1001480" d="M87.91,293.731l.9,1.742-.56.327-1.23.713Z" transform="translate(-50.8 -171.473)" fill="#3f434f"/>
            <path id="Trazado_1001481" data-name="Trazado 1001481" d="M99.8,288.139a.436.436,0,0,1-.2-.4l-.02-7.364a1.119,1.119,0,0,1,.5-.882L106.4,275.8a.426.426,0,0,1,.431-.028.448.448,0,0,1,.2.405l.022,7.364a1.122,1.122,0,0,1-.49.875l-6.322,3.693a.52.52,0,0,1-.259.077.342.342,0,0,1-.181-.049m6.738-12.1-6.322,3.693a.869.869,0,0,0-.37.648l.02,7.364a.2.2,0,0,0,.065.165.2.2,0,0,0,.174-.029l6.322-3.693a.846.846,0,0,0,.36-.642l-.022-7.364a.2.2,0,0,0-.063-.172.1.1,0,0,0-.046-.011.237.237,0,0,0-.118.04" transform="translate(-58.131 -160.963)" fill="#3f434f"/>
            <path id="Trazado_1001482" data-name="Trazado 1001482" d="M77.185,301.342a.439.439,0,0,1-.194-.4l-.02-7.364a1.11,1.11,0,0,1,.5-.882l6.322-3.695a.41.41,0,0,1,.432-.027.444.444,0,0,1,.2.4l.022,7.366a1.1,1.1,0,0,1-.492.875l-6.322,3.693a.5.5,0,0,1-.257.075.365.365,0,0,1-.188-.049m6.745-12.1-6.322,3.7a.864.864,0,0,0-.37.648l.02,7.364a.187.187,0,0,0,.063.163.2.2,0,0,0,.176-.027l6.32-3.693a.849.849,0,0,0,.362-.641l-.022-7.366a.2.2,0,0,0-.063-.169.111.111,0,0,0-.048-.011.252.252,0,0,0-.115.037" transform="translate(-44.934 -168.67)" fill="#3f434f"/>
            <path id="Trazado_1001483" data-name="Trazado 1001483" d="M122.4,274.934a.438.438,0,0,1-.194-.4l-.02-7.364a1.11,1.11,0,0,1,.5-.882l6.322-3.7a.41.41,0,0,1,.431-.026.444.444,0,0,1,.2.4l.022,7.366a1.1,1.1,0,0,1-.492.875l-6.322,3.693a.5.5,0,0,1-.257.075.363.363,0,0,1-.187-.049m6.744-12.1-6.322,3.7a.864.864,0,0,0-.37.648l.02,7.364a.188.188,0,0,0,.063.163.2.2,0,0,0,.176-.027l6.32-3.693a.849.849,0,0,0,.362-.642l-.022-7.366a.2.2,0,0,0-.063-.17.118.118,0,0,0-.048-.011.252.252,0,0,0-.115.037" transform="translate(-71.328 -153.254)" fill="#3f434f"/>
            <path id="Trazado_1001484" data-name="Trazado 1001484" d="M127.842,269.374v.343c1.288-.658,2.318-.012,2.323,1.492l-2.315,1.352.008,2.734a1.672,1.672,0,0,1-.744,1.3c-.41.239-.748.045-.749-.429l.311-.182c0,.274.2.388.436.248a.976.976,0,0,0,.434-.756l-.008-2.734-2.315,1.352a5.538,5.538,0,0,1,2.307-4.2v-.343Z" transform="translate(-73.103 -157.254)" fill="#3f434f"/>
            <path id="Trazado_1001485" data-name="Trazado 1001485" d="M10.9,269.229a1.209,1.209,0,0,1,.569.967l-.022,5.27a.339.339,0,0,1-.546.323l-8.234-4.81a1.245,1.245,0,0,1-.569-.967l.023-5.271c0-.368.25-.507.546-.322Z" transform="translate(-1.223 -154.314)" fill="#fff"/>
            <path id="Trazado_1001486" data-name="Trazado 1001486" d="M11.52,251.45l-.023,5.294c0,.345-.25.483-.546.3l-8.234-4.811a1.175,1.175,0,0,1-.569-.966L2.172,246c0-.368.25-.506.545-.322l8.234,4.81a1.209,1.209,0,0,1,.569.966" transform="translate(-1.255 -143.371)" fill="#fff"/>
            <path id="Trazado_1001487" data-name="Trazado 1001487" d="M11.783,276.125v.236l-7.8-4.556v-.236Z" transform="translate(-2.326 -158.536)" fill="#5b5e71"/>
            <path id="Trazado_1001488" data-name="Trazado 1001488" d="M11.788,274.421v.236l-7.8-4.556v-.236Z" transform="translate(-2.329 -157.541)" fill="#5b5e71"/>
            <path id="Trazado_1001489" data-name="Trazado 1001489" d="M11.8,271.014v.236L4,266.694v-.236Z" transform="translate(-2.334 -155.552)" fill="#5b5e71"/>
            <path id="Trazado_1001490" data-name="Trazado 1001490" d="M11.764,282.941v.236l-7.8-4.556v-.236Z" transform="translate(-2.315 -162.515)" fill="#5b5e71"/>
            <path id="Trazado_1001491" data-name="Trazado 1001491" d="M11.769,281.237v.236l-7.8-4.556v-.236Z" transform="translate(-2.317 -161.52)" fill="#5b5e71"/>
            <path id="Trazado_1001492" data-name="Trazado 1001492" d="M11.774,279.533v.236l-7.8-4.556v-.236Z" transform="translate(-2.32 -160.525)" fill="#5b5e71"/>
            <path id="Trazado_1001493" data-name="Trazado 1001493" d="M11.779,277.829v.236l-7.8-4.556v-.236Z" transform="translate(-2.323 -159.531)" fill="#5b5e71"/>
            <path id="Trazado_1001494" data-name="Trazado 1001494" d="M11.793,272.717v.237l-7.8-4.556v-.237Z" transform="translate(-2.331 -156.546)" fill="#5b5e71"/>
            <path id="Trazado_1001495" data-name="Trazado 1001495" d="M11.831,259.127v.236l-7.8-4.556v-.236Z" transform="translate(-2.354 -148.613)" fill="#5b5e71"/>
            <path id="Trazado_1001496" data-name="Trazado 1001496" d="M11.836,257.423v.236l-7.8-4.556v-.236Z" transform="translate(-2.356 -147.618)" fill="#5b5e71"/>
            <path id="Trazado_1001497" data-name="Trazado 1001497" d="M11.845,254.015v.236l-7.8-4.556v-.236Z" transform="translate(-2.362 -145.629)" fill="#5b5e71"/>
            <path id="Trazado_1001498" data-name="Trazado 1001498" d="M11.85,252.311v.236l-7.8-4.556v-.236Z" transform="translate(-2.365 -144.634)" fill="#5b5e71"/>
            <path id="Trazado_1001499" data-name="Trazado 1001499" d="M11.817,264.2v.253l-7.8-4.556v-.253Z" transform="translate(-2.345 -151.573)" fill="#5b5e71"/>
            <path id="Trazado_1001500" data-name="Trazado 1001500" d="M11.821,262.494v.253l-7.8-4.556v-.253Z" transform="translate(-2.348 -150.578)" fill="#5b5e71"/>
            <path id="Trazado_1001501" data-name="Trazado 1001501" d="M11.826,260.79v.253l-7.8-4.556v-.253Z" transform="translate(-2.351 -149.584)" fill="#5b5e71"/>
            <path id="Trazado_1001502" data-name="Trazado 1001502" d="M11.84,255.719v.237l-7.8-4.556v-.237Z" transform="translate(-2.359 -146.623)" fill="#5b5e71"/>
            <path id="Trazado_1001503" data-name="Trazado 1001503" d="M225.7,37.271l-.086,19.556-26.433,15.54.085-19.556,11.377-6.71,3.422-1.991Z" transform="translate(-116.278 -21.758)" fill="#dd9b3c"/>
            <path id="Trazado_1001504" data-name="Trazado 1001504" d="M162.019,52.813l-.108,19.519L135.316,56.781l.087-19.492v-.044h.044l11.538,6.767,2.622,1.548.787.442Z" transform="translate(-78.995 -21.743)" fill="#efad43"/>
            <path id="Trazado_1001505" data-name="Trazado 1001505" d="M188.556,15.54,162.126,31.08l-11.619-6.807-3.363-1.925-.067-.034L135.525,15.54,161.956,0Z" transform="translate(-79.116 0)" fill="#fed57a"/>
            <path id="Trazado_1001506" data-name="Trazado 1001506" d="M193.163,18.233l-26.431,15.54-3.363-1.925-.068-.034,26.5-15.54.034.034Z" transform="translate(-95.332 -9.5)" fill="#f9607f"/>
            <path id="Trazado_1001507" data-name="Trazado 1001507" d="M163.246,60.641l3.422,2.034.043-7.042v-.087l-.77-.433L163.289,53.6v.043Z" transform="translate(-95.299 -31.29)" fill="#fa5168"/>
            <path id="Trazado_1001508" data-name="Trazado 1001508" d="M207.1,96.6l.8,1.534-.493.288-1.089.631Z" transform="translate(-120.444 -56.394)" fill="#3f434f"/>
            <path id="Trazado_1001509" data-name="Trazado 1001509" d="M208.1,100.98l.008,3.035-.6.348-.008-3.035Z" transform="translate(-121.136 -58.95)" fill="#3f434f"/>
            <path id="Trazado_1001510" data-name="Trazado 1001510" d="M210.274,104.782l0,.65-4.11,2.4,0-.65Z" transform="translate(-120.354 -61.169)" fill="#3f434f"/>
            <path id="Trazado_1001511" data-name="Trazado 1001511" d="M231.072,81.916l.006,2.162a2.567,2.567,0,0,1-.906,1.878l.005,1.949c.363-.169.637-.154.637.05l-1.6.936c0-.2.272-.539.635-.794l-.006-1.949a.634.634,0,0,1-.6-.029.945.945,0,0,1-.313-.786l-.006-2.162Z" transform="translate(-133.64 -47.821)" fill="#3f434f"/>
            <path id="Trazado_1001512" data-name="Trazado 1001512" d="M213.82,97.637l.008,3.035-.6.348-.008-3.035Z" transform="translate(-124.476 -56.998)" fill="#3f434f"/>
            <path id="Trazado_1001513" data-name="Trazado 1001513" d="M212.834,93.252l.792,1.536-.493.288-1.085.629Z" transform="translate(-123.789 -54.439)" fill="#3f434f"/>
            <path id="Trazado_1001514" data-name="Trazado 1001514" d="M223.318,88.322a.384.384,0,0,1-.177-.352l-.017-6.493a.986.986,0,0,1,.442-.778l5.575-3.257a.376.376,0,0,1,.38-.025.4.4,0,0,1,.173.358l.019,6.493a.991.991,0,0,1-.432.772L223.706,88.3a.459.459,0,0,1-.229.068.3.3,0,0,1-.159-.043m5.942-10.673-5.575,3.257a.765.765,0,0,0-.326.571l.017,6.493a.124.124,0,0,0,.211.12l5.575-3.257a.745.745,0,0,0,.317-.566l-.019-6.493a.178.178,0,0,0-.056-.152.089.089,0,0,0-.04-.01.211.211,0,0,0-.1.035" transform="translate(-130.255 -45.171)" fill="#3f434f"/>
            <path id="Trazado_1001515" data-name="Trazado 1001515" d="M203.378,99.964a.388.388,0,0,1-.171-.35l-.017-6.493a.978.978,0,0,1,.442-.778l5.575-3.258a.361.361,0,0,1,.38-.023.391.391,0,0,1,.173.356l.019,6.5a.97.97,0,0,1-.434.772l-5.575,3.257a.447.447,0,0,1-.226.066.323.323,0,0,1-.165-.043m5.947-10.673-5.575,3.258a.762.762,0,0,0-.326.572l.017,6.493a.166.166,0,0,0,.056.144.177.177,0,0,0,.156-.023l5.573-3.257a.747.747,0,0,0,.319-.566l-.019-6.5a.173.173,0,0,0-.056-.15.1.1,0,0,0-.042-.01.221.221,0,0,0-.1.033" transform="translate(-118.618 -51.967)" fill="#3f434f"/>
            <path id="Trazado_1001516" data-name="Trazado 1001516" d="M243.245,76.678a.388.388,0,0,1-.171-.35l-.017-6.493a.978.978,0,0,1,.442-.778l5.575-3.258a.361.361,0,0,1,.38-.023.391.391,0,0,1,.173.356l.019,6.5a.97.97,0,0,1-.434.772l-5.575,3.257a.447.447,0,0,1-.226.066.323.323,0,0,1-.165-.043M249.192,66l-5.575,3.258a.762.762,0,0,0-.326.572l.017,6.493a.166.166,0,0,0,.056.144.177.177,0,0,0,.156-.023l5.573-3.257a.747.747,0,0,0,.319-.566l-.019-6.5a.173.173,0,0,0-.056-.15.1.1,0,0,0-.042-.01.221.221,0,0,0-.1.033" transform="translate(-141.891 -38.373)" fill="#3f434f"/>
            <path id="Trazado_1001517" data-name="Trazado 1001517" d="M248.046,71.775v.3c1.136-.58,2.044-.01,2.048,1.316l-2.041,1.192L248.06,77a1.473,1.473,0,0,1-.656,1.147c-.361.211-.659.039-.66-.378l.275-.16c0,.241.174.342.385.219a.859.859,0,0,0,.382-.667l-.007-2.41-2.041,1.192a4.884,4.884,0,0,1,2.034-3.7v-.3Z" transform="translate(-143.456 -41.901)" fill="#3f434f"/>
            <path id="Trazado_1001518" data-name="Trazado 1001518" d="M145.127,62.949l-.017,3.888c0,.253-.184.355-.4.22l-6.048-3.533a.863.863,0,0,1-.417-.71l.017-3.871c0-.271.184-.372.4-.237l6.048,3.533a.888.888,0,0,1,.417.71" transform="translate(-80.704 -34.237)" fill="#fff"/>
            <path id="Trazado_1001519" data-name="Trazado 1001519" d="M145.355,68.589v.174l-5.728-3.346v-.174Z" transform="translate(-81.511 -38.087)" fill="#5b5e71"/>
            <path id="Trazado_1001520" data-name="Trazado 1001520" d="M145.359,67.337v.174l-5.728-3.346v-.174Z" transform="translate(-81.513 -37.356)" fill="#5b5e71"/>
            <path id="Trazado_1001521" data-name="Trazado 1001521" d="M145.366,64.834v.174l-5.728-3.346v-.174Z" transform="translate(-81.517 -35.895)" fill="#5b5e71"/>
            <path id="Trazado_1001522" data-name="Trazado 1001522" d="M145.369,63.582v.174l-5.728-3.346v-.174Z" transform="translate(-81.519 -35.164)" fill="#5b5e71"/>
            <path id="Trazado_1001523" data-name="Trazado 1001523" d="M145.345,72.313V72.5l-5.728-3.346v-.186Z" transform="translate(-81.505 -40.261)" fill="#5b5e71"/>
            <path id="Trazado_1001524" data-name="Trazado 1001524" d="M145.348,71.062v.186L139.62,67.9v-.186Z" transform="translate(-81.507 -39.531)" fill="#5b5e71"/>
            <path id="Trazado_1001525" data-name="Trazado 1001525" d="M145.352,69.81V70l-5.728-3.346v-.186Z" transform="translate(-81.509 -38.8)" fill="#5b5e71"/>
            <path id="Trazado_1001526" data-name="Trazado 1001526" d="M145.362,66.085v.174l-5.728-3.346v-.174Z" transform="translate(-81.515 -36.625)" fill="#5b5e71"/>
            <path id="Trazado_1001527" data-name="Trazado 1001527" d="M249.03,128.659a1.589,1.589,0,0,0-1.572.143l-41.047,23.72a4.789,4.789,0,0,0-2.215,3.823l.179,64.446a1.573,1.573,0,0,0,.643,1.428l-3.786-2.215a1.491,1.491,0,0,1-.608-1.394l-.214-64.482a4.936,4.936,0,0,1,2.215-3.822l41.047-23.686a1.508,1.508,0,0,1,1.572-.143Z" transform="translate(-116.994 -73.742)" fill="#e63044"/>
            <path id="Trazado_1001528" data-name="Trazado 1001528" d="M252.787,131.885c1.209-.7,2.193-.137,2.2,1.278l.183,64.474a4.811,4.811,0,0,1-2.182,3.78l-41.056,23.7c-1.232.711-2.216.15-2.219-1.239l-.183-64.474a4.826,4.826,0,0,1,2.205-3.82Z" transform="translate(-122.316 -76.817)" fill="#f9607f"/>
            <path id="Trazado_1001529" data-name="Trazado 1001529" d="M256.183,203.484l-40.4,23.292-.179-63.7L256,139.752Z" transform="translate(-125.863 -81.584)" fill="#fff"/>
            <path id="Trazado_1001530" data-name="Trazado 1001530" d="M270.2,157.54l0,.97L244.587,173.3l0-.97Z" transform="translate(-142.783 -91.969)" fill="#e4e8f4"/>
            <path id="Trazado_1001531" data-name="Trazado 1001531" d="M229.141,191.657v6.716a1.16,1.16,0,0,1-.536.929l-5.823,3.358c-.286.179-.536.036-.536-.286l-.036-6.752a1.2,1.2,0,0,1,.536-.893l5.859-3.394c.286-.143.5-.036.536.322" transform="translate(-129.721 -111.661)" fill="#75ca75"/>
            <path id="Trazado_1001532" data-name="Trazado 1001532" d="M270.293,190.976l0,.97-25.614,14.788,0-.97Z" transform="translate(-142.838 -111.488)" fill="#e4e8f4"/>
            <path id="Trazado_1001533" data-name="Trazado 1001533" d="M270.339,206.97l0,.97-25.614,14.788,0-.97Z" transform="translate(-142.865 -120.824)" fill="#e4e8f4"/>
            <path id="Trazado_1001534" data-name="Trazado 1001534" d="M270.433,240.344l0,.97L244.822,256.1l0-.97Z" transform="translate(-142.92 -140.307)" fill="#e4e8f4"/>
            <path id="Trazado_1001535" data-name="Trazado 1001535" d="M270.543,279.069l0,.97-25.614,14.788,0-.97Z" transform="translate(-142.984 -162.914)" fill="#e4e8f4"/>
            <path id="Trazado_1001536" data-name="Trazado 1001536" d="M270.558,284.422l0,.97L244.947,300.18l0-.97Z" transform="translate(-142.993 -166.039)" fill="#e4e8f4"/>
            <path id="Trazado_1001537" data-name="Trazado 1001537" d="M270.528,273.717l0,.97-25.614,14.788,0-.97Z" transform="translate(-142.975 -159.79)" fill="#e4e8f4"/>
            <path id="Trazado_1001538" data-name="Trazado 1001538" d="M270.513,268.428l0,.97L244.9,284.186l0-.97Z" transform="translate(-142.966 -156.702)" fill="#e4e8f4"/>
            <path id="Trazado_1001539" data-name="Trazado 1001539" d="M270.449,245.7l0,.97-25.614,14.788,0-.97Z" transform="translate(-142.929 -143.432)" fill="#e4e8f4"/>
            <path id="Trazado_1001540" data-name="Trazado 1001540" d="M270.418,234.991l0,.97-25.614,14.788,0-.97Z" transform="translate(-142.911 -137.182)" fill="#e4e8f4"/>
            <path id="Trazado_1001541" data-name="Trazado 1001541" d="M270.4,229.7l0,.97L244.792,245.46l0-.97Z" transform="translate(-142.902 -134.095)" fill="#e4e8f4"/>
            <path id="Trazado_1001542" data-name="Trazado 1001542" d="M270.324,201.618l0,.97-25.614,14.788,0-.97Z" transform="translate(-142.856 -117.7)" fill="#e4e8f4"/>
            <path id="Trazado_1001543" data-name="Trazado 1001543" d="M270.308,196.265l0,.97L244.7,212.024l0-.97Z" transform="translate(-142.847 -114.575)" fill="#e4e8f4"/>
            <path id="Trazado_1001544" data-name="Trazado 1001544" d="M270.229,168.244l0,.97L244.618,184l0-.97Z" transform="translate(-142.8 -98.217)" fill="#e4e8f4"/>
            <path id="Trazado_1001545" data-name="Trazado 1001545" d="M270.214,162.893l0,.969L244.6,178.651l0-.969Z" transform="translate(-142.792 -95.093)" fill="#e4e8f4"/>
            <path id="Trazado_1001546" data-name="Trazado 1001546" d="M270.184,152.251l0,.969-25.614,14.788,0-.969Z" transform="translate(-142.774 -88.881)" fill="#e4e8f4"/>
            <path id="Trazado_1001547" data-name="Trazado 1001547" d="M228.709,230.073c.3-.171.526-.041.527.3l.019,6.736a1.168,1.168,0,0,1-.523.905l-5.839,3.371c-.3.171-.549.027-.549-.287l-.019-6.736a1.176,1.176,0,0,1,.546-.919Zm-3.677,8.5,3.228-5.618-.435-.248-2.8,4.843-1.259-.717-.454.787,1.716.952" transform="translate(-129.788 -134.267)" fill="#748bfd"/>
            <path id="Trazado_1001548" data-name="Trazado 1001548" d="M229.217,236.513l.435.248-3.228,5.618-1.716-.952.455-.788,1.259.717Z" transform="translate(-131.179 -138.071)" fill="#fff"/>
            <path id="Trazado_1001549" data-name="Trazado 1001549" d="M229.327,275.553l.435.274-3.228,5.618-1.716-.952.455-.788,1.259.691Z" transform="translate(-131.244 -160.861)" fill="#fff"/>
            <path id="Trazado_1001550" data-name="Trazado 1001550" d="M228.819,268.8c.3-.171.525-.041.527.3l.019,6.736a1.168,1.168,0,0,1-.523.906L223,280.11c-.3.171-.548.028-.549-.287l-.019-6.736a1.177,1.177,0,0,1,.546-.919Zm-3.677,8.659,3.228-5.618-.435-.274-2.8,4.844-1.259-.691-.455.788,1.716.952" transform="translate(-129.852 -156.874)" fill="#fed57a"/>
            <path id="Trazado_1001551" data-name="Trazado 1001551" d="M229.438,314.656l.435.274-3.228,5.591-1.716-.952.454-.787,1.259.717Z" transform="translate(-131.308 -183.689)" fill="#fff"/>
            <path id="Trazado_1001552" data-name="Trazado 1001552" d="M228.929,307.523c.3-.171.525-.04.527.3l.019,6.736a1.168,1.168,0,0,1-.523.906l-5.839,3.371c-.3.171-.549.027-.549-.287l-.019-6.735a1.177,1.177,0,0,1,.546-.919Zm-3.676,8.791,3.228-5.592-.435-.274-2.8,4.844-1.259-.718-.455.788,1.716.952" transform="translate(-129.916 -179.481)" fill="#4c7891"/>
            <path id="Trazado_1001553" data-name="Trazado 1001553" d="M229.106,197.409l.435.274-3.228,5.592-1.716-.952.454-.761,1.259.691Z" transform="translate(-131.114 -115.243)" fill="#fff"/>
            <path id="Trazado_1001554" data-name="Trazado 1001554" d="M282.563,142.615l1.259.732A7.191,7.191,0,0,0,278.79,143l-1.259-.732a7.19,7.19,0,0,1,5.032.344" transform="translate(-162.016 -82.895)" fill="#37617b"/>
            <path id="Trazado_1001555" data-name="Trazado 1001555" d="M264.1,143.9a6.43,6.43,0,0,1-2.894,5.073,1.952,1.952,0,0,1-2.036.179l-1.25-.715a2.057,2.057,0,0,0,2.036-.214,6.407,6.407,0,0,0,2.894-5.037,2.039,2.039,0,0,0-.857-1.858l1.286.75a1.992,1.992,0,0,1,.822,1.822" transform="translate(-150.57 -82.502)" fill="#416e84"/>
            <path id="Trazado_1001556" data-name="Trazado 1001556" d="M258.593,135.06l1.259.732c-1.12-.651-2.675-.548-4.425.462a13.689,13.689,0,0,0-6.118,9.544l-1.259-.732a13.688,13.688,0,0,1,6.118-9.544c1.75-1.01,3.3-1.113,4.424-.462" transform="translate(-144.806 -78.606)" fill="#416e84"/>
            <path id="Trazado_1001557" data-name="Trazado 1001557" d="M233.412,171.525l-1.259-.732c-.009-3.171,2.7-7.438,6.617-11.118l1.259.731c-3.919,3.681-6.626,7.947-6.617,11.119" transform="translate(-135.526 -93.215)" fill="#37617b"/>
            <path id="Trazado_1001558" data-name="Trazado 1001558" d="M254.065,139.738c3.927-.85,6.649.283,6.658,3.454l-25.546,14.749c-.009-3.171,2.7-7.437,6.617-11.118a13.691,13.691,0,0,1,6.118-9.544c3.148-1.817,5.664-.7,6.153,2.459m-6.128,6.347a6.389,6.389,0,0,0,2.887-5.053c-.005-1.808-1.287-2.565-2.906-1.63a6.327,6.327,0,0,0-2.887,4.975c.005,1.861,1.287,2.643,2.906,1.709" transform="translate(-137.291 -79.631)" fill="#4c7891"/>
          </g>
        </g>
      </g>
    </g>
  </g>
</svg>
