<svg xmlns="http://www.w3.org/2000/svg" width="96" height="96" viewBox="0 0 96 96">
  <g id="Grupo_1179118" data-name="Grupo 1179118" transform="translate(-720.746 -4221.635)">
    <g id="Grupo_154427" data-name="Grupo 154427" transform="translate(-73.293 1301.555)">
      <path id="Elipse_5729" data-name="Elipse 5729" d="M48,0A48,48,0,1,1,0,48,48,48,0,0,1,48,0Z" transform="translate(794.039 2920.081)" fill="#1e3a8a"/>
      <g id="Grupo_1178803" data-name="Grupo 1178803" transform="translate(810.039 2899.959)">
        <g id="Grupo_1178802" data-name="Grupo 1178802" transform="translate(0 41.282)">
          <path id="Trazado_998989" data-name="Trazado 998989" d="M139.435,379.278h-5.6a1.317,1.317,0,0,0-1.316,1.316v5.6a1.317,1.317,0,0,0,1.316,1.316h5.6a1.317,1.317,0,0,0,1.316-1.316v-5.6A1.317,1.317,0,0,0,139.435,379.278Zm-.559,6.356H134.4v-4.481h4.481v4.481Z" transform="translate(-115.955 -337.028)" fill="#fff"/>
          <path id="Trazado_998990" data-name="Trazado 998990" d="M61.385,56.309a.938.938,0,0,0,.938-.937V52.841h.109A1.569,1.569,0,0,0,64,51.273V49.382a1.569,1.569,0,0,0-1.568-1.568H35.685V46.309h.109a1.57,1.57,0,0,0,1.568-1.568V42.85a1.569,1.569,0,0,0-1.568-1.568H1.568A1.569,1.569,0,0,0,0,42.85v1.891a1.57,1.57,0,0,0,1.568,1.568h.109V57.247H1.662a.938.938,0,0,0,0,1.875h.015V73.313H1.662a.938.938,0,0,0,0,1.875h.015V89.935H1.568A1.57,1.57,0,0,0,0,91.5v1.891a1.57,1.57,0,0,0,1.568,1.568H45.75a.938.938,0,1,0,0-1.875H31.04L41.391,82.764a4.439,4.439,0,0,1,6.259,0L58,93.087H50.125a.938.938,0,1,0,0,1.875H62.432A1.57,1.57,0,0,0,64,93.394V91.5a1.569,1.569,0,0,0-1.568-1.568h-.109V77.605h.015a.938.938,0,0,0,0-1.875h-.015V63.88h.015a.938.938,0,0,0,0-1.875h-.015V59.747a.938.938,0,1,0-1.875,0V62H35.685V59.122H35.7a.937.937,0,1,0,0-1.875h-.015V52.841H60.448v2.531a.938.938,0,0,0,.938.938ZM8.5,46.309a.938.938,0,1,0,0-1.875H1.875V43.157H35.487v1.277H12.875a.938.938,0,1,0,0,1.875H33.81V57.247H3.552V46.309Zm4.874,46.778H1.875V91.81h11.5Zm0-3.152H3.552V75.188h9.822Zm0-20v3.376H3.552V59.122H33.81v9.248H14.942a1.57,1.57,0,0,0-1.568,1.568Zm12.115.307h2.362v4.128H25.489Zm12.6,13.163-9.706,9.68H15.249V70.244h8.365v4.687a1.317,1.317,0,0,0,1.316,1.316H28.41a1.317,1.317,0,0,0,1.316-1.316V70.244h8.365V83.407ZM57.5,89.935l-8.522-8.5a6.317,6.317,0,0,0-8.907,0l-.1.1V77.605H60.448v12.33H57.5Zm4.629,1.875v1.277H60.657l-1.28-1.277ZM60.448,63.88V75.73H39.966V69.937A1.57,1.57,0,0,0,38.4,68.369H35.685V63.88ZM35.685,50.966V49.689H62.125v1.277Z" transform="translate(0 -41.282)" fill="#fff"/>
          <path id="Trazado_998991" data-name="Trazado 998991" d="M365.166,389.783h-.756a.938.938,0,0,0,0,1.875h.756a.937.937,0,0,0,0-1.875Z" transform="translate(-318.038 -346.22)" fill="#fff"/>
          <path id="Trazado_998992" data-name="Trazado 998992" d="M339.2,415a.937.937,0,1,0,0,1.875h.756a.937.937,0,1,0,0-1.875Z" transform="translate(-295.977 -368.282)" fill="#fff"/>
          <path id="Trazado_998993" data-name="Trazado 998993" d="M394.666,427.966h.756a.938.938,0,0,0,0-1.875h-.756a.938.938,0,1,0,0,1.875Z" transform="translate(-344.512 -377.99)" fill="#fff"/>
        </g>
      </g>
    </g>
  </g>
</svg>
