<svg xmlns="http://www.w3.org/2000/svg" width="96" height="96" viewBox="0 0 96 96">
  <g id="Grupo_1179119" data-name="Grupo 1179119" transform="translate(-960.746 -4221.635)">
    <g id="Grupo_154427" data-name="Grupo 154427" transform="translate(166.707 1301.555)">
      <path id="Elipse_5729" data-name="Elipse 5729" d="M48,0A48,48,0,1,1,0,48,48,48,0,0,1,48,0Z" transform="translate(794.039 2920.081)" fill="#1e3a8a"/>
      <g id="Grupo_1178805" data-name="Grupo 1178805" transform="translate(806.849 2932.779)">
        <g id="Grupo_1178804" data-name="Grupo 1178804" transform="translate(5.545)">
          <path id="Trazado_998994" data-name="Trazado 998994" d="M355.986,135.582h-9.309a.888.888,0,1,0,0,1.775h9.309a.888.888,0,1,0,0-1.775Z" transform="translate(-305.516 -119.534)" fill="#fff"/>
          <path id="Trazado_998995" data-name="Trazado 998995" d="M356.874,174.193a.888.888,0,0,0-.888-.888h-9.309a.888.888,0,1,0,0,1.775h9.309A.888.888,0,0,0,356.874,174.193Z" transform="translate(-305.516 -152.792)" fill="#fff"/>
          <path id="Trazado_998996" data-name="Trazado 998996" d="M346.676,211.027a.888.888,0,1,0,0,1.775h6.151a.888.888,0,0,0,0-1.775Z" transform="translate(-305.515 -186.049)" fill="#fff"/>
          <path id="Trazado_998997" data-name="Trazado 998997" d="M63.593,230.852H58.578V215.687a1.244,1.244,0,0,0-1.243-1.243H36.078v-2.709a.888.888,0,0,0-1.775,0v2.709H17.713V201.929h4.824v3.41a1.244,1.244,0,0,0,1.243,1.243h4.457a1.244,1.244,0,0,0,1.243-1.243v-3.41H34.3v5.663a.888.888,0,0,0,1.775,0v-6.2a1.244,1.244,0,0,0-1.243-1.243H17.18a1.244,1.244,0,0,0-1.243,1.243v13.047H13.046a1.244,1.244,0,0,0-1.243,1.243v15.165H6.788a1.244,1.244,0,0,0-1.243,1.243v3.729a1.244,1.244,0,0,0,1.243,1.243H63.593a1.244,1.244,0,0,0,1.243-1.243v-3.729A1.244,1.244,0,0,0,63.593,230.852ZM24.312,201.93H27.7v2.877H24.312Zm22.5,14.29H50.2V219.1H46.811Zm-22.8,0H28V219.1H24.016Zm-10.438,0h8.662v3.41a1.244,1.244,0,0,0,1.243,1.243h5.048a1.244,1.244,0,0,0,1.243-1.243v-3.41h8.662v14.632H13.579ZM63.06,235.291H7.32v-2.663H49.986a.888.888,0,0,0,0-1.775H40.212V216.22h4.824v3.41a1.244,1.244,0,0,0,1.243,1.243h4.457a1.244,1.244,0,0,0,1.243-1.243v-3.41H56.8v14.632H54.129a.888.888,0,1,0,0,1.775H63.06Z" transform="translate(-5.545 -176.463)" fill="#fff"/>
          <path id="Trazado_998998" data-name="Trazado 998998" d="M253.35,15.576V31.73a1.244,1.244,0,0,0,1.243,1.243H274.3a1.244,1.244,0,0,0,1.243-1.243V23.673a.888.888,0,1,0-1.775,0V31.2H255.126V15.782h.006a7.867,7.867,0,0,0,5.681-2.423H269.1a.888.888,0,1,0,0-1.775h-7a7.841,7.841,0,0,0,.92-3.692c0-.253-.013-.5-.037-.751H273.77V19.53a.888.888,0,1,0,1.775,0V6.607A1.244,1.244,0,0,0,274.3,5.364h-11.7a7.89,7.89,0,1,0-9.255,10.212Zm1.782-13.8a6.115,6.115,0,1,1-6.115,6.115A6.122,6.122,0,0,1,255.132,1.775Z" transform="translate(-218.632)" fill="#fff"/>
          <path id="Trazado_998999" data-name="Trazado 998999" d="M282.646,50.522a.888.888,0,0,0,1.256,0l3.61-3.61a.888.888,0,1,0-1.255-1.256l-2.982,2.982-2.093-2.093a.888.888,0,1,0-1.256,1.256Z" transform="translate(-247.22 -40.024)" fill="#fff"/>
        </g>
      </g>
    </g>
  </g>
</svg>
