<svg xmlns="http://www.w3.org/2000/svg" width="96" height="96" viewBox="0 0 96 96">
  <g id="Grupo_1179122" data-name="Grupo 1179122" transform="translate(-4645.746 7450.365)">
    <g id="Grupo_154427" data-name="Grupo 154427" transform="translate(3851.707 -10370.445)">
      <path id="Elipse_5729" data-name="Elipse 5729" d="M48,0A48,48,0,1,1,0,48,48,48,0,0,1,48,0Z" transform="translate(794.039 2920.081)" fill="#1e3a8a"/>
      <g id="Grupo_1178809" data-name="Grupo 1178809" transform="translate(811.293 2937.445)">
        <path id="Trazado_999018" data-name="Trazado 999018" d="M22,17v1H40V17a9,9,0,0,0-18,0Zm8-4.9a4.961,4.961,0,0,0-1.753.732L26.812,11.4A6.962,6.962,0,0,1,30,10.079ZM31,14a3,3,0,0,1,2.816,2H28.185A2.994,2.994,0,0,1,31,14Zm2.753-1.167A4.961,4.961,0,0,0,32,12.1V10.079A6.962,6.962,0,0,1,35.188,11.4ZM25.4,12.815l1.433,1.433A4.961,4.961,0,0,0,26.1,16h-2.03A6.959,6.959,0,0,1,25.4,12.815ZM35.9,16a4.961,4.961,0,0,0-.732-1.753L36.6,12.814A6.949,6.949,0,0,1,37.929,16H35.9Z" fill="#fff"/>
        <path id="Trazado_999019" data-name="Trazado 999019" d="M7,52a3,3,0,1,0,3,3A3,3,0,0,0,7,52Zm0,4a1,1,0,1,1,1-1A1,1,0,0,1,7,56Z" fill="#fff"/>
        <path id="Trazado_999020" data-name="Trazado 999020" d="M25,52a3,3,0,1,0,3,3A3,3,0,0,0,25,52Zm0,4a1,1,0,1,1,1-1A1,1,0,0,1,25,56Z" fill="#fff"/>
        <path id="Trazado_999021" data-name="Trazado 999021" d="M62,38a2,2,0,0,0-2-2H50a2,2,0,0,0-2,2V48a1.978,1.978,0,0,0,.278,1A1.978,1.978,0,0,0,48,50V60a2,2,0,0,0,2,2H60a2,2,0,0,0,2-2V50a1.978,1.978,0,0,0-.278-1A1.978,1.978,0,0,0,62,48Zm-8,0h2v2H54Zm-4,0h2v4h6V38h2V48H50Zm4,12h2v2H54ZM50,60V50h2v4h6V50h2l0,10Z" fill="#fff"/>
        <path id="Trazado_999022" data-name="Trazado 999022" d="M48,34V20H14V30H10V13.572a32.906,32.906,0,0,1,42,0V34h2V15.364a32.925,32.925,0,0,1,5.839,7.6l.287.517,1.748-.971L61.587,22A34.99,34.99,0,0,0,.413,22l-.287.517,1.748.971.287-.517A32.925,32.925,0,0,1,8,15.364V30a2,2,0,0,0-2,2V42H2a2,2,0,0,0-2,2V55a7,7,0,0,0,13.92,1h4.16a6.988,6.988,0,0,0,13.235,2H42a2,2,0,0,0,2-2V54a1.978,1.978,0,0,0-.278-1A1.978,1.978,0,0,0,44,52V42a1.978,1.978,0,0,0-.278-1A1.978,1.978,0,0,0,44,40V30a2,2,0,0,0-2-2H32a2,2,0,0,0-2,2V42.764l-4-8V32a2,2,0,0,0-2-2H16V22H46V34ZM8,48.08V46h6.512a.994.994,0,0,1,.958.713L17.656,54H13.92A7,7,0,0,0,8,48.08ZM2,44H6v4.08a6.984,6.984,0,0,0-4,2.031ZM7,60a5,5,0,1,1,5-5A5.006,5.006,0,0,1,7,60Zm18,0a5,5,0,1,1,5-5A5.006,5.006,0,0,1,25,60Zm5-9.889a7.036,7.036,0,0,0-2-1.426V48h2ZM42,56H31.92a6.29,6.29,0,0,0,0-2H42ZM36,30h2v2H36Zm-4,0h2v4h6V30h2V40H32Zm4,12h2v2H36Zm-2,0v4h6V42h2V52H32V42Zm-9.618-6,5,10H27.414l-2-2,1.293-1.293-1.414-1.414-4,4,1.414,1.414L24,45.414l2,2v.666a6.9,6.9,0,0,0-7.021,3.368l-1.593-5.31A2.982,2.982,0,0,0,14.512,44H8V36ZM24,34H8V32H24Z" fill="#fff"/>
        <path id="Trazado_999023" data-name="Trazado 999023" d="M2.046,15.317a38.135,38.135,0,0,1,57.909,0l.286.333,1.518-1.3-.285-.332a40.136,40.136,0,0,0-60.947,0l-.286.333,1.518,1.3Z" fill="#fff"/>
      </g>
    </g>
  </g>
</svg>
