<svg xmlns="http://www.w3.org/2000/svg" xmlns:xlink="http://www.w3.org/1999/xlink" width="295" height="217" viewBox="0 0 295 217">
  <defs>
    <clipPath id="clip-path">
      <rect id="Rectángulo_455101" data-name="Rectángulo 455101" width="217.022" height="212" fill="none"/>
    </clipPath>
    <clipPath id="clip-path-3">
      <rect id="Rectángulo_455073" data-name="Rectángulo 455073" width="69.056" height="8.752" fill="none"/>
    </clipPath>
    <clipPath id="clip-path-6">
      <rect id="Rectángulo_455078" data-name="Rectángulo 455078" width="7.933" height="14.315" fill="none"/>
    </clipPath>
    <clipPath id="clip-path-8">
      <rect id="Rectángulo_455083" data-name="Rectángulo 455083" width="9.559" height="17.249" fill="none"/>
    </clipPath>
    <clipPath id="clip-path-9">
      <rect id="Rectángulo_455084" data-name="Rectángulo 455084" width="12.919" height="12.919" fill="none"/>
    </clipPath>
    <clipPath id="clip-path-10">
      <rect id="Rectángulo_455085" data-name="Rectángulo 455085" width="20.437" height="9.592" fill="none"/>
    </clipPath>
    <clipPath id="clip-path-11">
      <rect id="Rectángulo_455086" data-name="Rectángulo 455086" width="13.684" height="13.422" fill="none"/>
    </clipPath>
    <clipPath id="clip-path-12">
      <rect id="Rectángulo_455088" data-name="Rectángulo 455088" width="7.11" height="30.546" fill="none"/>
    </clipPath>
    <clipPath id="clip-path-13">
      <rect id="Rectángulo_455091" data-name="Rectángulo 455091" width="65.25" height="75.256" fill="none"/>
    </clipPath>
    <clipPath id="clip-path-14">
      <rect id="Rectángulo_455092" data-name="Rectángulo 455092" width="18.379" height="9.079" fill="none"/>
    </clipPath>
    <clipPath id="clip-path-15">
      <rect id="Rectángulo_455093" data-name="Rectángulo 455093" width="5.408" height="20.897" fill="none"/>
    </clipPath>
    <clipPath id="clip-path-16">
      <rect id="Rectángulo_455094" data-name="Rectángulo 455094" width="25.252" height="12.04" fill="none"/>
    </clipPath>
    <clipPath id="clip-path-17">
      <rect id="Rectángulo_455095" data-name="Rectángulo 455095" width="4.752" height="10.327" fill="none"/>
    </clipPath>
    <clipPath id="clip-path-18">
      <rect id="Rectángulo_455096" data-name="Rectángulo 455096" width="4.869" height="8.037" fill="none"/>
    </clipPath>
    <clipPath id="clip-path-20">
      <rect id="Rectángulo_455098" data-name="Rectángulo 455098" width="39.579" height="17.068" fill="none"/>
    </clipPath>
    <clipPath id="clip-path-21">
      <rect id="Rectángulo_455099" data-name="Rectángulo 455099" width="48.487" height="24.683" fill="none"/>
    </clipPath>
  </defs>
  <g id="Grupo_1178276" data-name="Grupo 1178276" transform="translate(-600 -4850)">
    <rect id="Rectángulo_454903" data-name="Rectángulo 454903" width="295" height="217" rx="20" transform="translate(600 4850)" fill="#edf8fd"/>
    <g id="Grupo_1178275" data-name="Grupo 1178275" transform="translate(647 4855)">
      <g id="Grupo_1178274" data-name="Grupo 1178274" clip-path="url(#clip-path)">
        <g id="Grupo_1178221" data-name="Grupo 1178221">
          <g id="Grupo_1178220" data-name="Grupo 1178220" clip-path="url(#clip-path)">
            <g id="Grupo_1178219" data-name="Grupo 1178219" transform="translate(122.881 161.537)" opacity="0.2" style="mix-blend-mode: multiply;isolation: isolate">
              <g id="Grupo_1178218" data-name="Grupo 1178218">
                <g id="Grupo_1178217" data-name="Grupo 1178217" clip-path="url(#clip-path-3)">
                  <path id="Trazado_998066" data-name="Trazado 998066" d="M318.142,328.232q-3.456,3.966-7.286,7.587c-5.456.242-11.5.375-17.868.375-24.247,0-43.9-1.958-43.9-4.376s19.654-4.376,43.9-4.376c9.358,0,18.031.291,25.155.789" transform="translate(-249.086 -327.443)" fill="#1454ae"/>
                </g>
              </g>
            </g>
          </g>
        </g>
        <rect id="Rectángulo_455075" data-name="Rectángulo 455075" width="34.289" height="44.971" transform="translate(156.012 45.767) rotate(-7.953)" fill="#bf956f"/>
        <g id="Grupo_1178223" data-name="Grupo 1178223">
          <g id="Grupo_1178222" data-name="Grupo 1178222" clip-path="url(#clip-path)">
            <path id="Trazado_998067" data-name="Trazado 998067" d="M356.135,120.617c-.094-.325-.632-.17-.726-.494s.445-.48.352-.8-.632-.169-.726-.494.488-.892.167-.994c-.484-.153-.495.677-.982.818s-.643-.4-1.13-.258-.332.679-.819.819-.643-.4-1.13-.258-.332.679-.819.819-.643-.4-1.13-.258-.332.679-.819.82-.642-.4-1.13-.258-.332.679-.819.82-.643-.4-1.13-.258-.332.679-.819.82-.642-.4-1.129-.258-.332.679-.819.819-.643-.4-1.13-.257-.332.679-.819.819-.642-.4-1.129-.258-.332.679-.819.82-.939-.557-1.266-.17c-.218.258.577.429.671.753s-.445.48-.351.806.632.17.726.494-.445.48-.351.805.632.17.726.494-.445.48-.351.805.631.17.725.493-.445.48-.351.8.632.169.726.494-.445.48-.351.8.632.17.726.494-.489.892-.167.994c.483.153.494-.677.982-.817s.643.4,1.13.258.332-.679.819-.819.643.4,1.13.257.331-.679.819-.819.642.4,1.13.258.332-.679.819-.819.642.4,1.13.258.332-.679.819-.819.642.4,1.13.258.332-.679.819-.819.643.4,1.13.258.332-.679.819-.819.642.4,1.13.258.332-.679.819-.82.642.4,1.129.258.332-.679.819-.819.939.556,1.266.169c.219-.258-.362-.263-.635-.676-.186-.283.41-.557.316-.883s-.632-.169-.726-.494.445-.48.351-.805-.631-.17-.726-.493.445-.479.352-.8-.632-.169-.726-.494.445-.48.351-.805" transform="translate(-170.913 -59.691)" fill="#fdfefe"/>
            <path id="Trazado_998068" data-name="Trazado 998068" d="M341.726,130.444l-.967-3.353a1.163,1.163,0,0,1,.8-1.44l13.654-3.937a1.163,1.163,0,0,1,1.44.8l.966,3.353a1.163,1.163,0,0,1-.8,1.44l-13.654,3.936a1.163,1.163,0,0,1-1.44-.8" transform="translate(-172.63 -61.646)" fill="#fc6a64"/>
          </g>
        </g>
        <text id="FRAGILE" transform="translate(170.528 67.284) rotate(-16.082)" fill="#fff" font-size="3" font-family="RobotoCondensed-Bold, Roboto Condensed" font-weight="700"><tspan x="0" y="0">F</tspan><tspan y="0" letter-spacing="0.004em">R</tspan><tspan y="0" letter-spacing="-0.015em">A</tspan><tspan y="0">GILE</tspan></text>
        <g id="Grupo_1178273" data-name="Grupo 1178273">
          <g id="Grupo_1178272" data-name="Grupo 1178272" clip-path="url(#clip-path)">
            <path id="Trazado_998069" data-name="Trazado 998069" d="M295.446,137.4l13.447-.078-6.221-44.535-13.2,1.844Z" transform="translate(-146.667 -47.012)" fill="#b28b68"/>
            <g id="Grupo_1178226" data-name="Grupo 1178226" transform="translate(169.968 42.973)" opacity="0.4" style="mix-blend-mode: multiply;isolation: isolate">
              <g id="Grupo_1178225" data-name="Grupo 1178225">
                <g id="Grupo_1178224" data-name="Grupo 1178224" clip-path="url(#clip-path-6)">
                  <rect id="Rectángulo_455077" data-name="Rectángulo 455077" width="6.11" height="13.6" transform="translate(0 0.846) rotate(-7.954)" fill="#bf956f"/>
                </g>
              </g>
            </g>
            <g id="Grupo_1178229" data-name="Grupo 1178229" transform="translate(174.307 74.041)" opacity="0.4" style="mix-blend-mode: multiply;isolation: isolate">
              <g id="Grupo_1178228" data-name="Grupo 1178228">
                <g id="Grupo_1178227" data-name="Grupo 1178227" clip-path="url(#clip-path-6)">
                  <rect id="Rectángulo_455079" data-name="Rectángulo 455079" width="6.11" height="13.6" transform="translate(0 0.845) rotate(-7.954)" fill="#bf956f"/>
                </g>
              </g>
            </g>
            <rect id="Rectángulo_455081" data-name="Rectángulo 455081" width="41.317" height="54.188" transform="translate(164.708 88.254) rotate(-7.953)" fill="#bf956f"/>
            <path id="Trazado_998070" data-name="Trazado 998070" d="M361.792,267.856l-.576-3.9a.486.486,0,0,0-.552-.41l-10.611,1.567a.486.486,0,0,0-.41.552l.575,3.9a.487.487,0,0,0,.553.41l10.611-1.567a.487.487,0,0,0,.41-.553" transform="translate(-177.151 -133.53)" fill="#fff"/>
            <line id="Línea_3217" data-name="Línea 3217" x2="0.593" y2="4.017" transform="translate(183.634 130.431)" fill="none" stroke="#262c4c" stroke-linecap="round" stroke-linejoin="round" stroke-width="0.45"/>
            <line id="Línea_3218" data-name="Línea 3218" x2="0.593" y2="4.017" transform="translate(183.13 130.506)" fill="none" stroke="#262c4c" stroke-linecap="round" stroke-linejoin="round" stroke-width="0.45"/>
            <line id="Línea_3219" data-name="Línea 3219" x2="0.593" y2="4.017" transform="translate(182.836 130.549)" fill="none" stroke="#262c4c" stroke-linecap="round" stroke-linejoin="round" stroke-width="0.45"/>
            <line id="Línea_3220" data-name="Línea 3220" x2="0.593" y2="4.017" transform="translate(182.52 130.596)" fill="none" stroke="#262c4c" stroke-linecap="round" stroke-linejoin="round" stroke-width="0.45"/>
            <line id="Línea_3221" data-name="Línea 3221" x2="0.593" y2="4.017" transform="translate(182.203 130.643)" fill="none" stroke="#262c4c" stroke-linecap="round" stroke-linejoin="round" stroke-width="0.45"/>
            <line id="Línea_3222" data-name="Línea 3222" x2="0.593" y2="4.017" transform="translate(181.699 130.717)" fill="none" stroke="#262c4c" stroke-linecap="round" stroke-linejoin="round" stroke-width="0.46"/>
            <line id="Línea_3223" data-name="Línea 3223" x2="0.593" y2="4.017" transform="translate(181.373 130.766)" fill="none" stroke="#262c4c" stroke-linecap="round" stroke-linejoin="round" stroke-width="0.45"/>
            <line id="Línea_3224" data-name="Línea 3224" x2="0.593" y2="4.017" transform="translate(180.868 130.84)" fill="none" stroke="#262c4c" stroke-linecap="round" stroke-linejoin="round" stroke-width="0.45"/>
            <line id="Línea_3225" data-name="Línea 3225" x2="0.593" y2="4.017" transform="translate(180.088 130.955)" fill="none" stroke="#262c4c" stroke-linecap="round" stroke-linejoin="round" stroke-width="0.45"/>
            <line id="Línea_3226" data-name="Línea 3226" x2="0.593" y2="4.017" transform="translate(179.678 131.016)" fill="none" stroke="#262c4c" stroke-linecap="round" stroke-linejoin="round" stroke-width="0.45"/>
            <line id="Línea_3227" data-name="Línea 3227" x2="0.593" y2="4.017" transform="translate(179.173 131.09)" fill="none" stroke="#262c4c" stroke-linecap="round" stroke-linejoin="round" stroke-width="0.45"/>
            <line id="Línea_3228" data-name="Línea 3228" x2="0.593" y2="4.017" transform="translate(178.88 131.134)" fill="none" stroke="#262c4c" stroke-linecap="round" stroke-linejoin="round" stroke-width="0.45"/>
            <line id="Línea_3229" data-name="Línea 3229" x2="0.593" y2="4.017" transform="translate(178.563 131.18)" fill="none" stroke="#262c4c" stroke-linecap="round" stroke-linejoin="round" stroke-width="0.45"/>
            <line id="Línea_3230" data-name="Línea 3230" x2="0.593" y2="4.017" transform="translate(178.247 131.227)" fill="none" stroke="#262c4c" stroke-linecap="round" stroke-linejoin="round" stroke-width="0.45"/>
            <line id="Línea_3231" data-name="Línea 3231" x2="0.593" y2="4.017" transform="translate(177.742 131.302)" fill="none" stroke="#262c4c" stroke-linecap="round" stroke-linejoin="round" stroke-width="0.46"/>
            <line id="Línea_3232" data-name="Línea 3232" x2="0.593" y2="4.017" transform="translate(177.416 131.35)" fill="none" stroke="#262c4c" stroke-linecap="round" stroke-linejoin="round" stroke-width="0.45"/>
            <line id="Línea_3233" data-name="Línea 3233" x2="0.593" y2="4.017" transform="translate(176.912 131.424)" fill="none" stroke="#262c4c" stroke-linecap="round" stroke-linejoin="round" stroke-width="0.45"/>
            <line id="Línea_3234" data-name="Línea 3234" x2="0.593" y2="4.017" transform="translate(176.131 131.54)" fill="none" stroke="#262c4c" stroke-linecap="round" stroke-linejoin="round" stroke-width="0.45"/>
            <line id="Línea_3235" data-name="Línea 3235" x1="0.593" y1="4.017" transform="translate(172.905 132.016)" fill="none" stroke="#262c4c" stroke-linecap="round" stroke-linejoin="round" stroke-width="0.45"/>
            <line id="Línea_3236" data-name="Línea 3236" x1="0.593" y1="4.017" transform="translate(173.315 131.956)" fill="none" stroke="#262c4c" stroke-linecap="round" stroke-linejoin="round" stroke-width="0.45"/>
            <line id="Línea_3237" data-name="Línea 3237" x1="0.593" y1="4.017" transform="translate(173.819 131.881)" fill="none" stroke="#262c4c" stroke-linecap="round" stroke-linejoin="round" stroke-width="0.45"/>
            <line id="Línea_3238" data-name="Línea 3238" x1="0.593" y1="4.017" transform="translate(174.113 131.838)" fill="none" stroke="#262c4c" stroke-linecap="round" stroke-linejoin="round" stroke-width="0.45"/>
            <line id="Línea_3239" data-name="Línea 3239" x1="0.593" y1="4.017" transform="translate(174.429 131.791)" fill="none" stroke="#262c4c" stroke-linecap="round" stroke-linejoin="round" stroke-width="0.45"/>
            <line id="Línea_3240" data-name="Línea 3240" x1="0.593" y1="4.017" transform="translate(174.746 131.744)" fill="none" stroke="#262c4c" stroke-linecap="round" stroke-linejoin="round" stroke-width="0.45"/>
            <line id="Línea_3241" data-name="Línea 3241" x1="0.593" y1="4.017" transform="translate(175.25 131.67)" fill="none" stroke="#262c4c" stroke-linecap="round" stroke-linejoin="round" stroke-width="0.46"/>
            <line id="Línea_3242" data-name="Línea 3242" x1="0.593" y1="4.017" transform="translate(175.576 131.622)" fill="none" stroke="#262c4c" stroke-linecap="round" stroke-linejoin="round" stroke-width="0.45"/>
            <path id="Trazado_998071" data-name="Trazado 998071" d="M308.81,232.671l16.2-.094-7.5-53.663-15.906,2.222Z" transform="translate(-152.817 -90.65)" fill="#b28b68"/>
            <g id="Grupo_1178232" data-name="Grupo 1178232" transform="translate(181.523 84.888)" opacity="0.4" style="mix-blend-mode: multiply;isolation: isolate">
              <g id="Grupo_1178231" data-name="Grupo 1178231">
                <g id="Grupo_1178230" data-name="Grupo 1178230" clip-path="url(#clip-path-8)">
                  <rect id="Rectángulo_455082" data-name="Rectángulo 455082" width="7.363" height="16.388" transform="translate(0 1.018) rotate(-7.953)" fill="#bf956f"/>
                </g>
              </g>
            </g>
            <path id="Trazado_998072" data-name="Trazado 998072" d="M358.444,167.308l-40.928,5.725-15.906,2.222" transform="translate(-152.817 -84.77)" fill="none" stroke="#b27e52" stroke-linecap="round" stroke-linejoin="round" stroke-width="1.021"/>
            <path id="Trazado_998073" data-name="Trazado 998073" d="M265.489,167.9,250.446,60.111a2.5,2.5,0,0,0-1.237-1.834l-23.7-13.66,3.082-5.348,23.7,13.661a8.634,8.634,0,0,1,4.267,6.328l14.179,101.59,59.61-9.108.932,6.1Z" transform="translate(-114.259 -19.896)" fill="#fc6a64"/>
            <path id="Trazado_998074" data-name="Trazado 998074" d="M239.7,42.327l1.785.96c.942.507.583,3.006-.8,5.583s-3.273,4.253-4.216,3.746l-1.807-.972Z" transform="translate(-118.894 -21.446)" fill="#0b3053"/>
            <path id="Trazado_998075" data-name="Trazado 998075" d="M238.378,47.817c-1.386,2.577-3.273,4.254-4.216,3.747s-.583-3.007.8-5.583,3.273-4.254,4.216-3.746.583,3.006-.8,5.582" transform="translate(-118.377 -21.353)" fill="#072035"/>
            <path id="Trazado_998076" data-name="Trazado 998076" d="M224.21,45.757a12.915,12.915,0,0,0,3.774-7.079l-10.391-5.59a2.418,2.418,0,0,0-3.085.693,13.031,13.031,0,0,0-1.794,3.448,2.422,2.422,0,0,0,1.124,2.949Z" transform="translate(-107.705 -16.619)" fill="#0b3053"/>
            <path id="Trazado_998077" data-name="Trazado 998077" d="M281.908,299.1a12.373,12.373,0,1,1-13.522-11.106A12.374,12.374,0,0,1,281.908,299.1" transform="translate(-130.326 -145.886)" fill="#072035"/>
            <path id="Trazado_998078" data-name="Trazado 998078" d="M276.3,312.808a6.459,6.459,0,1,1,5.8-7.059,6.467,6.467,0,0,1-5.8,7.059" transform="translate(-136.4 -151.961)" fill="#1454ae"/>
            <path id="Trazado_998079" data-name="Trazado 998079" d="M278.818,312.893a3.748,3.748,0,1,1,3.365-4.1,3.753,3.753,0,0,1-3.365,4.1" transform="translate(-139.184 -154.744)" fill="#072035"/>
            <path id="Trazado_998080" data-name="Trazado 998080" d="M280.718,302.472a.594.594,0,1,1,.533-.649.595.595,0,0,1-.533.649" transform="translate(-141.901 -152.653)" fill="#0b3053"/>
            <path id="Trazado_998081" data-name="Trazado 998081" d="M282.782,323.516a.594.594,0,1,1,.533-.649.595.595,0,0,1-.533.649" transform="translate(-142.947 -163.315)" fill="#0b3053"/>
            <path id="Trazado_998082" data-name="Trazado 998082" d="M291.622,311.429a.594.594,0,1,1,.649.533.594.594,0,0,1-.649-.533" transform="translate(-147.755 -157.462)" fill="#0b3053"/>
            <path id="Trazado_998083" data-name="Trazado 998083" d="M270.579,313.493a.594.594,0,1,1,.649.533.595.595,0,0,1-.649-.533" transform="translate(-137.093 -158.507)" fill="#0b3053"/>
            <path id="Trazado_998084" data-name="Trazado 998084" d="M273.981,306.071a.594.594,0,1,1-.082-.836.595.595,0,0,1,.082.836" transform="translate(-138.285 -154.585)" fill="#0b3053"/>
            <path id="Trazado_998085" data-name="Trazado 998085" d="M290.321,319.491a.594.594,0,1,1-.082-.836.595.595,0,0,1,.082.836" transform="translate(-146.564 -161.385)" fill="#0b3053"/>
            <path id="Trazado_998086" data-name="Trazado 998086" d="M288.025,304.692a.594.594,0,1,1,.836-.082.595.595,0,0,1-.836.082" transform="translate(-145.824 -153.845)" fill="#0b3053"/>
            <path id="Trazado_998087" data-name="Trazado 998087" d="M274.605,321.033a.594.594,0,1,1,.836-.082.595.595,0,0,1-.836.082" transform="translate(-139.025 -162.124)" fill="#0b3053"/>
            <path id="Trazado_998088" data-name="Trazado 998088" d="M298.95,253.058l-5.009,31.092,28.5-12.782" transform="translate(-148.931 -128.217)" fill="none" stroke="#fc6a64" stroke-miterlimit="10" stroke-width="6.295"/>
            <path id="Trazado_998089" data-name="Trazado 998089" d="M292.947,302.133a12.373,12.373,0,1,1-13.522-11.106,12.373,12.373,0,0,1,13.522,11.106" transform="translate(-135.919 -147.425)" fill="#0b3053"/>
            <g id="Grupo_1178235" data-name="Grupo 1178235" transform="translate(138.254 149.457)" opacity="0.5">
              <g id="Grupo_1178234" data-name="Grupo 1178234">
                <g id="Grupo_1178233" data-name="Grupo 1178233" clip-path="url(#clip-path-9)">
                  <path id="Trazado_998090" data-name="Trazado 998090" d="M287.338,315.845a6.459,6.459,0,1,1,5.8-7.059,6.466,6.466,0,0,1-5.8,7.059" transform="translate(-280.248 -302.956)" fill="#1454ae"/>
                </g>
              </g>
            </g>
            <path id="Trazado_998091" data-name="Trazado 998091" d="M289.857,315.93a3.748,3.748,0,1,1,3.365-4.1,3.753,3.753,0,0,1-3.365,4.1" transform="translate(-144.777 -156.283)" fill="#072035"/>
            <path id="Trazado_998092" data-name="Trazado 998092" d="M291.757,305.509a.594.594,0,1,1,.533-.649.595.595,0,0,1-.533.649" transform="translate(-147.494 -154.192)" fill="#0b3053"/>
            <path id="Trazado_998093" data-name="Trazado 998093" d="M293.822,326.553a.594.594,0,1,1,.533-.649.595.595,0,0,1-.533.649" transform="translate(-148.541 -164.854)" fill="#0b3053"/>
            <path id="Trazado_998094" data-name="Trazado 998094" d="M302.662,314.465a.594.594,0,1,1,.649.533.595.595,0,0,1-.649-.533" transform="translate(-153.349 -159)" fill="#0b3053"/>
            <path id="Trazado_998095" data-name="Trazado 998095" d="M281.618,316.53a.594.594,0,1,1,.649.533.595.595,0,0,1-.649-.533" transform="translate(-142.686 -160.046)" fill="#0b3053"/>
            <path id="Trazado_998096" data-name="Trazado 998096" d="M285.021,309.107a.594.594,0,1,1-.082-.836.595.595,0,0,1,.082.836" transform="translate(-143.878 -156.123)" fill="#0b3053"/>
            <path id="Trazado_998097" data-name="Trazado 998097" d="M301.361,322.528a.594.594,0,1,1-.082-.836.595.595,0,0,1,.082.836" transform="translate(-152.158 -162.923)" fill="#0b3053"/>
            <path id="Trazado_998098" data-name="Trazado 998098" d="M299.065,307.729a.594.594,0,1,1,.836-.082.595.595,0,0,1-.836.082" transform="translate(-151.418 -155.384)" fill="#0b3053"/>
            <path id="Trazado_998099" data-name="Trazado 998099" d="M285.644,324.069a.594.594,0,1,1,.836-.082.595.595,0,0,1-.836.082" transform="translate(-144.618 -163.663)" fill="#0b3053"/>
            <path id="Trazado_998100" data-name="Trazado 998100" d="M198.108,219.354l-2.585-28.566-11.979-34.4-5.321-11.821c13.42,0,28.213,4.8,34.912,19.448,5.716,12.5,14.579,49.769,13.064,66.241-2.521,12.307-29.421,6.577-28.092-10.9" transform="translate(-90.3 -73.246)" fill="#fcbf38"/>
            <path id="Trazado_998101" data-name="Trazado 998101" d="M278.556,206.924l-18.251-6.9s14.275-29.019,13.743-30.6-3.3-4.368-3.277-8.745a30.407,30.407,0,0,0-1.372-6.85c-.1-.348-.2-.688-.3-1.017-.493-1.651-.955-3.033-1.148-3.6l0-.005a.279.279,0,0,1,.2-.363,3.8,3.8,0,0,1,3.786,1.143,10.969,10.969,0,0,1,2.741,4.715s1,3.4,1.936,3.481c1.234.108,2.04-3.2,2.04-3.2,1.767-5.13,3.677-10.733,5.361-14.553a4.351,4.351,0,0,1,.894-1.466,1.48,1.48,0,0,1,1.586-.362c.759.361.835,1.4.771,2.233-.25,3.216-2.71,12.743-1.965,12.748.831-.008,3.478-11.44,5.951-16.21.324-.622,1.66-1.958,2.8-1.548,1.609.578.937,3.458.731,4.42-1,4.645-4.3,15.059-3.6,15.284s3.919-8.81,5.573-12.542a5.554,5.554,0,0,1,1.106-1.822,1.676,1.676,0,0,1,2.987,1.1,5.509,5.509,0,0,1-.3,1.964c-1.075,3.848-4.739,13.609-3.767,13.705.932.09,3.111-5.178,4.814-7.712.49-.731,1.786-1.72,2.52-1.239a2.418,2.418,0,0,1,.425,2.549,62.882,62.882,0,0,1-2.8,6.434,52.488,52.488,0,0,1-13.349,18.791Z" transform="translate(-131.889 -68.779)" fill="#e3a66c"/>
            <path id="Trazado_998102" data-name="Trazado 998102" d="M278.026,218.045a10.84,10.84,0,0,1,.754-2.4.848.848,0,0,1,1.058-.412c2.277.727,9.358,3.032,18.074,6.295a.758.758,0,0,1,.52.915l-.767,2.335Z" transform="translate(-140.868 -109.028)" fill="#fcbf38"/>
            <g id="Grupo_1178238" data-name="Grupo 1178238" transform="translate(137.158 106.157)" opacity="0.4" style="mix-blend-mode: multiply;isolation: isolate">
              <g id="Grupo_1178237" data-name="Grupo 1178237">
                <g id="Grupo_1178236" data-name="Grupo 1178236" clip-path="url(#clip-path-10)">
                  <path id="Trazado_998103" data-name="Trazado 998103" d="M278.026,218.045a10.84,10.84,0,0,1,.754-2.4.848.848,0,0,1,1.058-.412c2.277.727,9.358,3.032,18.074,6.295a.758.758,0,0,1,.52.915l-.767,2.335Z" transform="translate(-278.026 -215.185)" fill="#fcbf38"/>
                </g>
              </g>
            </g>
            <path id="Trazado_998104" data-name="Trazado 998104" d="M248.69,275.273c12.56.239,19.833-9.99,31.961-48.69l-19.7-7c-6.439,9.04-9.22,15.48-16.733,25.888" transform="translate(-123.737 -111.259)" fill="#fcbf38"/>
            <path id="Trazado_998105" data-name="Trazado 998105" d="M272.176,218.925c-1.863,2.675-4.368,6.423-6.892,10.25" transform="translate(-134.412 -110.923)" fill="none" stroke="#f9a716" stroke-linecap="round" stroke-linejoin="round" stroke-width="1.525"/>
            <path id="Trazado_998106" data-name="Trazado 998106" d="M253.285,282.374c12.56.239,19.47-10.071,31.6-48.771" transform="translate(-128.332 -118.36)" fill="none" stroke="#f9a716" stroke-linecap="round" stroke-linejoin="round" stroke-width="1.525"/>
            <g id="Grupo_1178241" data-name="Grupo 1178241" transform="translate(148.683 89.758)" opacity="0.7" style="mix-blend-mode: multiply;isolation: isolate">
              <g id="Grupo_1178240" data-name="Grupo 1178240">
                <g id="Grupo_1178239" data-name="Grupo 1178239" clip-path="url(#clip-path-11)">
                  <path id="Trazado_998107" data-name="Trazado 998107" d="M315.079,187.686c-3.814-2.865-8.344-5.142-13.114-5.165,0,0,4.848,5.743,4.6,12.852" transform="translate(-301.68 -182.236)" fill="none" stroke="#f7c69e" stroke-linecap="round" stroke-linejoin="round" stroke-width="1.156"/>
                </g>
              </g>
            </g>
            <path id="Trazado_998108" data-name="Trazado 998108" d="M215.054,221.662s-.743,24.211-.153,37.447" transform="translate(-108.769 -112.31)" fill="none" stroke="#f9a716" stroke-linecap="round" stroke-linejoin="round" stroke-width="1.525"/>
            <path id="Trazado_998109" data-name="Trazado 998109" d="M137,275.361l-4.9-37.031-.107-55.519-17.639-38.248-8.178.041c-2.82,6.013-11.609,5.022-11.609,5.022s-8.574,1.309-11.578-5.022l-8.23-.041L57.115,182.811l-.107,55.519-4.9,37.031Z" transform="translate(-26.401 -73.246)" fill="#fcbf38"/>
            <path id="Trazado_998110" data-name="Trazado 998110" d="M50.49,409.7l-1.574,9.885h88.473l-2.009-9.885Z" transform="translate(-24.784 -207.581)" fill="#0b3053"/>
            <g id="Grupo_1178244" data-name="Grupo 1178244" transform="translate(64.735 76.796)" opacity="0.4" style="mix-blend-mode: multiply;isolation: isolate">
              <g id="Grupo_1178243" data-name="Grupo 1178243">
                <g id="Grupo_1178242" data-name="Grupo 1178242" clip-path="url(#clip-path-12)">
                  <rect id="Rectángulo_455087" data-name="Rectángulo 455087" width="7.111" height="30.546" transform="translate(0)" fill="#fcbf38"/>
                </g>
              </g>
            </g>
            <path id="Trazado_998111" data-name="Trazado 998111" d="M138.3,168.378a1.1,1.1,0,1,1-1.1-1.1,1.1,1.1,0,0,1,1.1,1.1" transform="translate(-68.955 -84.754)" fill="#0b3053"/>
            <path id="Trazado_998112" data-name="Trazado 998112" d="M138.3,186.932a1.1,1.1,0,1,1-1.1-1.1,1.1,1.1,0,0,1,1.1,1.1" transform="translate(-68.955 -94.155)" fill="#0b3053"/>
            <path id="Trazado_998113" data-name="Trazado 998113" d="M138.3,205.485a1.1,1.1,0,1,1-1.1-1.1,1.1,1.1,0,0,1,1.1,1.1" transform="translate(-68.955 -103.555)" fill="#0b3053"/>
            <path id="Trazado_998114" data-name="Trazado 998114" d="M185.507,338.3l-49.091-17.538a2.69,2.69,0,0,1-1.628-3.438l23.1-64.657a2.69,2.69,0,0,1,3.438-1.628l49.091,17.538a2.69,2.69,0,0,1,1.628,3.438l-23.1,64.658a2.69,2.69,0,0,1-3.438,1.628" transform="translate(-68.213 -127.115)" fill="#1473fa"/>
            <rect id="Rectángulo_455089" data-name="Rectángulo 455089" width="67.161" height="50.631" transform="matrix(0.336, -0.942, 0.942, 0.336, 70.066, 190.662)" fill="#fdfefe"/>
            <g id="Grupo_1178247" data-name="Grupo 1178247" transform="translate(72.578 129.928)" opacity="0.35">
              <g id="Grupo_1178246" data-name="Grupo 1178246">
                <g id="Grupo_1178245" data-name="Grupo 1178245" clip-path="url(#clip-path-13)">
                  <rect id="Rectángulo_455090" data-name="Rectángulo 455090" width="63.23" height="46.701" transform="matrix(0.336, -0.942, 0.942, 0.336, 0, 59.545)" fill="#d6e6fd"/>
                </g>
              </g>
            </g>
            <line id="Línea_3243" data-name="Línea 3243" x1="22.594" y2="63.246" transform="translate(84.321 132.509)" fill="none" stroke="#fdfefe" stroke-miterlimit="10" stroke-width="2.193"/>
            <line id="Línea_3244" data-name="Línea 3244" x1="46.997" y1="16.789" transform="translate(83.532 152.967)" fill="none" stroke="#fdfefe" stroke-miterlimit="10" stroke-width="2.193"/>
            <line id="Línea_3245" data-name="Línea 3245" x1="46.997" y1="16.789" transform="translate(79.194 165.112)" fill="none" stroke="#fdfefe" stroke-miterlimit="10" stroke-width="2.193"/>
            <line id="Línea_3246" data-name="Línea 3246" x1="46.997" y1="16.789" transform="translate(74.855 177.256)" fill="none" stroke="#fdfefe" stroke-miterlimit="10" stroke-width="2.193"/>
            <line id="Línea_3247" data-name="Línea 3247" x1="46.997" y1="16.789" transform="translate(87.871 140.822)" fill="none" stroke="#fdfefe" stroke-miterlimit="10" stroke-width="2.193"/>
            <path id="Trazado_998115" data-name="Trazado 998115" d="M156.533,374.747l1.036,3.192a10.233,10.233,0,0,1,7.04-3.748" transform="translate(-79.311 -189.592)" fill="none" stroke="#fc6a64" stroke-linecap="round" stroke-linejoin="round" stroke-width="2.988"/>
            <path id="Trazado_998116" data-name="Trazado 998116" d="M165.3,350.217l1.036,3.192a10.234,10.234,0,0,1,7.04-3.748" transform="translate(-83.751 -177.163)" fill="none" stroke="#fc6a64" stroke-linecap="round" stroke-linejoin="round" stroke-width="2.988"/>
            <path id="Trazado_998117" data-name="Trazado 998117" d="M191.585,276.63l1.036,3.192a10.233,10.233,0,0,1,7.04-3.748" transform="translate(-97.071 -139.879)" fill="none" stroke="#fc6a64" stroke-linecap="round" stroke-linejoin="round" stroke-width="2.988"/>
            <path id="Trazado_998118" data-name="Trazado 998118" d="M182.822,301.159l1.036,3.192a10.234,10.234,0,0,1,7.04-3.748" transform="translate(-92.631 -152.307)" fill="none" stroke="#fc6a64" stroke-linecap="round" stroke-linejoin="round" stroke-width="2.988"/>
            <path id="Trazado_998119" data-name="Trazado 998119" d="M174.059,325.688l1.036,3.192a10.235,10.235,0,0,1,7.04-3.748" transform="translate(-88.191 -164.735)" fill="none" stroke="#fc6a64" stroke-linecap="round" stroke-linejoin="round" stroke-width="2.988"/>
            <line id="Línea_3248" data-name="Línea 3248" x2="26.596" y2="9.502" transform="translate(108.144 137.938)" fill="none" stroke="#b7d7fd" stroke-miterlimit="10" stroke-width="1.992"/>
            <line id="Línea_3249" data-name="Línea 3249" x2="26.596" y2="9.502" transform="translate(107.046 141.01)" fill="none" stroke="#b7d7fd" stroke-miterlimit="10" stroke-width="1.992"/>
            <line id="Línea_3250" data-name="Línea 3250" x2="26.596" y2="9.502" transform="translate(105.949 144.082)" fill="none" stroke="#b7d7fd" stroke-miterlimit="10" stroke-width="1.992"/>
            <line id="Línea_3251" data-name="Línea 3251" x2="26.596" y2="9.502" transform="translate(103.81 150.07)" fill="none" stroke="#b7d7fd" stroke-miterlimit="10" stroke-width="1.992"/>
            <line id="Línea_3252" data-name="Línea 3252" x2="26.596" y2="9.502" transform="translate(102.712 153.142)" fill="none" stroke="#b7d7fd" stroke-miterlimit="10" stroke-width="1.992"/>
            <line id="Línea_3253" data-name="Línea 3253" x2="26.596" y2="9.502" transform="translate(101.615 156.214)" fill="none" stroke="#b7d7fd" stroke-miterlimit="10" stroke-width="1.992"/>
            <line id="Línea_3254" data-name="Línea 3254" x2="26.596" y2="9.502" transform="translate(99.476 162.202)" fill="none" stroke="#b7d7fd" stroke-miterlimit="10" stroke-width="1.992"/>
            <line id="Línea_3255" data-name="Línea 3255" x2="26.596" y2="9.502" transform="translate(98.378 165.274)" fill="none" stroke="#b7d7fd" stroke-miterlimit="10" stroke-width="1.992"/>
            <line id="Línea_3256" data-name="Línea 3256" x2="26.596" y2="9.502" transform="translate(97.281 168.346)" fill="none" stroke="#b7d7fd" stroke-miterlimit="10" stroke-width="1.992"/>
            <line id="Línea_3257" data-name="Línea 3257" x2="26.596" y2="9.502" transform="translate(95.142 174.334)" fill="none" stroke="#b7d7fd" stroke-miterlimit="10" stroke-width="1.992"/>
            <line id="Línea_3258" data-name="Línea 3258" x2="26.596" y2="9.502" transform="translate(94.044 177.406)" fill="none" stroke="#b7d7fd" stroke-miterlimit="10" stroke-width="1.992"/>
            <line id="Línea_3259" data-name="Línea 3259" x2="26.596" y2="9.502" transform="translate(92.947 180.478)" fill="none" stroke="#b7d7fd" stroke-miterlimit="10" stroke-width="1.992"/>
            <line id="Línea_3260" data-name="Línea 3260" x2="26.596" y2="9.502" transform="translate(90.808 186.465)" fill="none" stroke="#b7d7fd" stroke-miterlimit="10" stroke-width="1.992"/>
            <line id="Línea_3261" data-name="Línea 3261" x2="26.596" y2="9.502" transform="translate(89.71 189.538)" fill="none" stroke="#b7d7fd" stroke-miterlimit="10" stroke-width="1.992"/>
            <line id="Línea_3262" data-name="Línea 3262" x2="26.596" y2="9.502" transform="translate(88.613 192.61)" fill="none" stroke="#b7d7fd" stroke-miterlimit="10" stroke-width="1.992"/>
            <path id="Trazado_998120" data-name="Trazado 998120" d="M236.339,264.713l-2.523,7.065-4.447-1.589a1.3,1.3,0,0,0-2.456-.877l-3.542-1.264a1.3,1.3,0,0,0-2.456-.877l-4.448-1.589,2.522-7.064a3.385,3.385,0,0,1,4.326-2.049l10.975,3.919a3.384,3.384,0,0,1,2.049,4.325" transform="translate(-109.678 -129.845)" fill="#0b3053"/>
            <g id="Grupo_1178250" data-name="Grupo 1178250" transform="translate(106.789 132.854)" opacity="0.2" style="mix-blend-mode: multiply;isolation: isolate">
              <g id="Grupo_1178249" data-name="Grupo 1178249">
                <g id="Grupo_1178248" data-name="Grupo 1178248" clip-path="url(#clip-path-14)">
                  <path id="Trazado_998121" data-name="Trazado 998121" d="M234.846,275.495l-1.03,2.884-4.447-1.589a1.3,1.3,0,0,0-2.456-.877l-3.542-1.264a1.3,1.3,0,0,0-2.456-.877l-4.448-1.589,1.03-2.884Z" transform="translate(-216.467 -269.299)" fill="#0b3053"/>
                </g>
              </g>
            </g>
            <path id="Trazado_998122" data-name="Trazado 998122" d="M236.1,261.9l2.16-8.985a2.868,2.868,0,1,0-2.249-.8L232,260.43" transform="translate(-117.546 -125.243)" fill="none" stroke="#fdfefe" stroke-miterlimit="10" stroke-width="0.97"/>
            <path id="Trazado_998123" data-name="Trazado 998123" d="M61.577,326.037l2.732-19.32s31.443,7.565,32.865,6.7,3.538-4.181,7.813-5.115a30.388,30.388,0,0,0,6.383-2.841c.318-.173.628-.345.927-.513,1.5-.844,2.75-1.6,3.264-1.911l0,0a.278.278,0,0,1,.4.113,3.8,3.8,0,0,1-.285,3.944,10.967,10.967,0,0,1-4,3.709s-3.1,1.715-2.972,2.652c.166,1.227,3.57,1.289,3.57,1.289,5.392.6,11.278,1.234,15.374,2.039a4.348,4.348,0,0,1,1.626.551,1.48,1.48,0,0,1,.7,1.468c-.186.82-1.178,1.121-2.009,1.242-3.193.461-13.027.15-12.869.878.19.809,11.924.885,17.12,2.252.678.18,2.274,1.19,2.124,2.393-.211,1.7-3.168,1.672-4.152,1.682-4.75.047-15.636-.892-15.7-.163s9.455,1.892,13.459,2.687a5.566,5.566,0,0,1,2.02.679,1.676,1.676,0,0,1-.418,3.155,5.51,5.51,0,0,1-1.982.136c-3.991-.206-14.317-1.64-14.2-.67.116.929,5.734,1.9,8.58,3.006.82.318,2.07,1.366,1.761,2.187-.24.642-1.328,1.052-2.393.974a62.831,62.831,0,0,1-6.892-1.323,52.487,52.487,0,0,1-21.261-8.9Z" transform="translate(-31.199 -153.517)" fill="#e3a66c"/>
            <path id="Trazado_998124" data-name="Trazado 998124" d="M112.634,317.932a10.848,10.848,0,0,1,2.506.209.848.848,0,0,1,.635.942c-.211,2.381-.907,9.795-2.179,19.014a.758.758,0,0,1-.779.708l-2.446-.236Z" transform="translate(-55.921 -161.076)" fill="#fcbf38"/>
            <g id="Grupo_1178253" data-name="Grupo 1178253" transform="translate(54.449 156.835)" opacity="0.4" style="mix-blend-mode: multiply;isolation: isolate">
              <g id="Grupo_1178252" data-name="Grupo 1178252">
                <g id="Grupo_1178251" data-name="Grupo 1178251" clip-path="url(#clip-path-15)">
                  <path id="Trazado_998125" data-name="Trazado 998125" d="M112.634,317.932a10.848,10.848,0,0,1,2.506.209.848.848,0,0,1,.635.942c-.211,2.381-.907,9.795-2.179,19.014a.758.758,0,0,1-.779.708l-2.446-.236Z" transform="translate(-110.37 -317.911)" fill="#fcbf38"/>
                </g>
              </g>
            </g>
            <path id="Trazado_998126" data-name="Trazado 998126" d="M28.678,219.354l2.256-28.566,12.308-34.4,5.321-11.821c-13.42,0-28.213,4.8-34.912,19.448C7.934,176.51-.929,213.78.586,230.252c2.521,12.307,14.1,17.16,54.513,20.507L57.6,230c-10.232-4.3-17.125-5.6-28.927-10.65" transform="translate(-0.21 -73.246)" fill="#fcbf38"/>
            <path id="Trazado_998127" data-name="Trazado 998127" d="M61.894,221.662s.743,24.211.153,37.447" transform="translate(-31.36 -112.31)" fill="none" stroke="#f9a716" stroke-linecap="round" stroke-linejoin="round" stroke-width="1.525"/>
            <path id="Trazado_998128" data-name="Trazado 998128" d="M87.073,282.412c-9.187-3.746-29.367-11.117-29.367-11.117l2.322-24.217" transform="translate(-29.238 -125.187)" fill="none" stroke="#f9a716" stroke-linecap="round" stroke-linejoin="round" stroke-width="1.525"/>
            <path id="Trazado_998129" data-name="Trazado 998129" d="M.762,318.259c2.521,12.307,14.1,16.788,54.513,20.135" transform="translate(-0.386 -161.253)" fill="none" stroke="#f9a716" stroke-linecap="round" stroke-linejoin="round" stroke-width="1.525"/>
            <path id="Trazado_998130" data-name="Trazado 998130" d="M137.784,135.651c-.827-10.173-1.281-17.745-1.36-27.952h-24.8c-.079,10.207-.533,17.778-1.36,27.952l13.876-1.642Z" transform="translate(-55.869 -54.568)" fill="#e3a66c"/>
            <g id="Grupo_1178256" data-name="Grupo 1178256" transform="translate(55.576 54.574)" opacity="0.5" style="mix-blend-mode: multiply;isolation: isolate">
              <g id="Grupo_1178255" data-name="Grupo 1178255">
                <g id="Grupo_1178254" data-name="Grupo 1178254" clip-path="url(#clip-path-16)">
                  <path id="Trazado_998131" data-name="Trazado 998131" d="M137.908,120.518a26.388,26.388,0,0,1-25.252-2.407c.055-1.7.1-3.357.107-5.057l10.163-2.43H137.64c.022,3.323.158,6.582.267,9.894" transform="translate(-112.656 -110.624)" fill="#e3a66c"/>
                </g>
              </g>
            </g>
            <path id="Trazado_998132" data-name="Trazado 998132" d="M86.344,64.675c-.837.687,50.03,1.9,50.03,1.9" transform="translate(-43.743 -32.769)" fill="#3e3649"/>
            <path id="Trazado_998133" data-name="Trazado 998133" d="M137.836,52.664c0,12.152-7.652,23.313-21.4,23.313-12.837,0-21.4-12.188-21.4-23.313,0-32.166,7.046-23.378,21.4-23.378s21.4-7.992,21.4,23.378" transform="translate(-48.154 -14.282)" fill="#e3a66c"/>
            <g id="Grupo_1178259" data-name="Grupo 1178259" transform="translate(66.117 31.731)" opacity="0.7" style="mix-blend-mode: multiply;isolation: isolate">
              <g id="Grupo_1178258" data-name="Grupo 1178258">
                <g id="Grupo_1178257" data-name="Grupo 1178257" clip-path="url(#clip-path-17)">
                  <path id="Trazado_998134" data-name="Trazado 998134" d="M135.858,64.892c1.165,1.754,3.418,5.643,2.827,7.956-.7,2.749-3.836,1.854-4.092.639" transform="translate(-134.311 -64.61)" fill="none" stroke="#e3a66c" stroke-linecap="round" stroke-linejoin="round" stroke-width="1.141"/>
                </g>
              </g>
            </g>
            <path id="Trazado_998135" data-name="Trazado 998135" d="M135.005,28.724c-3.41-3.912-41.715-3.172-44.079,0-1.938,2.6-2.253,10.712-2.253,15.281,0,1.209.211,7.1,1.706,7.1a5.39,5.39,0,0,0,5.3-5.671c-.028-3.331-1.376-11.384,10.23-11.384l16.115.01c4.722,0,11.092-1.216,9.216,7.5-.708,3.288-.388,9.549,2.977,9.549,2.119,0,2.631-6.766,2.661-7.409.217-4.677.838-11.863-1.875-14.975" transform="translate(-44.928 -13.204)" fill="#3e3649"/>
            <path id="Trazado_998136" data-name="Trazado 998136" d="M119.333,68.968a2.586,2.586,0,0,1,.619,2.184,2.279,2.279,0,0,1-1.21,1.725,1.6,1.6,0,0,1-1.811-.42,2.584,2.584,0,0,1-.607-1.967c.173-1.682,1.917-2.6,3.009-1.521" transform="translate(-58.931 -34.708)" fill="#3e3649"/>
            <path id="Trazado_998137" data-name="Trazado 998137" d="M157.014,68.968a2.586,2.586,0,0,1,.619,2.184,2.279,2.279,0,0,1-1.21,1.725,1.6,1.6,0,0,1-1.811-.42,2.584,2.584,0,0,1-.607-1.967c.173-1.682,1.917-2.6,3.009-1.521" transform="translate(-78.023 -34.708)" fill="#3e3649"/>
            <path id="Trazado_998138" data-name="Trazado 998138" d="M84.537,76.512c-5.91.629-9.635-7.447-5.327-13.339a4.972,4.972,0,0,1,7.313-.95c2.487,2.281,3.371,6.781,2.555,10.637-.5,2.355-2.148,3.4-4.541,3.651" transform="translate(-39.188 -30.917)" fill="#e3a66c"/>
            <g id="Grupo_1178262" data-name="Grupo 1178262" transform="translate(40.971 34.937)" opacity="0.7" style="mix-blend-mode: multiply;isolation: isolate">
              <g id="Grupo_1178261" data-name="Grupo 1178261">
                <g id="Grupo_1178260" data-name="Grupo 1178260" clip-path="url(#clip-path-18)">
                  <path id="Trazado_998139" data-name="Trazado 998139" d="M87.928,80.088A9.45,9.45,0,0,0,86.655,76.4a6.158,6.158,0,0,0-2.964-2.521" transform="translate(-83.375 -72.367)" fill="none" stroke="#e3a66c" stroke-linecap="round" stroke-linejoin="round" stroke-width="1.282"/>
                  <path id="Trazado_998140" data-name="Trazado 998140" d="M90.407,71.459a3.738,3.738,0,0,1-.979,3.461" transform="translate(-86.282 -71.143)" fill="none" stroke="#e3a66c" stroke-linecap="round" stroke-linejoin="round" stroke-width="1.282"/>
                </g>
              </g>
            </g>
            <path id="Trazado_998141" data-name="Trazado 998141" d="M179.936,76.512c5.91.629,9.635-7.447,5.327-13.339a4.972,4.972,0,0,0-7.314-.95c-2.487,2.281-3.371,6.781-2.555,10.637.5,2.355,2.148,3.4,4.541,3.651" transform="translate(-88.718 -30.917)" fill="#e3a66c"/>
            <g id="Grupo_1178265" data-name="Grupo 1178265" transform="translate(90.727 34.937)" opacity="0.7" style="mix-blend-mode: multiply;isolation: isolate">
              <g id="Grupo_1178264" data-name="Grupo 1178264">
                <g id="Grupo_1178263" data-name="Grupo 1178263" clip-path="url(#clip-path-18)">
                  <path id="Trazado_998142" data-name="Trazado 998142" d="M184.549,80.088a9.45,9.45,0,0,1,1.273-3.691,6.158,6.158,0,0,1,2.964-2.521" transform="translate(-184.233 -72.367)" fill="none" stroke="#e3a66c" stroke-linecap="round" stroke-linejoin="round" stroke-width="1.282"/>
                  <path id="Trazado_998143" data-name="Trazado 998143" d="M185.315,71.459a3.738,3.738,0,0,0,.979,3.461" transform="translate(-184.571 -71.143)" fill="none" stroke="#e3a66c" stroke-linecap="round" stroke-linejoin="round" stroke-width="1.282"/>
                </g>
              </g>
            </g>
            <path id="Trazado_998144" data-name="Trazado 998144" d="M152.988,62.534c-.712-.17-1.48-.487-1.615-.941-.08-.273.1-.535.393-.714a3.563,3.563,0,0,1,1.079-.372,14.473,14.473,0,0,1,4.735-.181c1.193.146,2.393.525,2.484,1.359.053.481-.255.883-.919,1.075a15.726,15.726,0,0,1-6.158-.224" transform="translate(-76.687 -30.507)" fill="#3e3649"/>
            <path id="Trazado_998145" data-name="Trazado 998145" d="M115.729,62.623c.712-.171,1.485-.492,1.634-.95a.648.648,0,0,0-.365-.721,3.383,3.383,0,0,0-1.057-.375,14.047,14.047,0,0,0-4.687-.18c-1.188.148-2.391.531-2.511,1.371-.069.486.222.89.873,1.084a15.382,15.382,0,0,0,6.112-.23" transform="translate(-55.092 -30.543)" fill="#3e3649"/>
            <path id="Trazado_998146" data-name="Trazado 998146" d="M138.73,91.922c0,2.511-3.153,4.17-5.488,4.17-2.318,0-5.465-1.72-5.465-4.13Z" transform="translate(-64.741 -46.574)" fill="#3e3649"/>
            <path id="Trazado_998147" data-name="Trazado 998147" d="M138.73,91.928a3.071,3.071,0,0,1-.55,1.739h-9.842a3.019,3.019,0,0,1-.556-1.7Z" transform="translate(-64.743 -46.577)" fill="#eef3f3"/>
            <path id="Trazado_998148" data-name="Trazado 998148" d="M138.824,98.957a6.436,6.436,0,0,1-2.267.445,6.24,6.24,0,0,1-2.233-.452,4.554,4.554,0,0,1,2.247-.494,4.484,4.484,0,0,1,2.254.5" transform="translate(-68.058 -49.885)" fill="#e64158"/>
            <path id="Trazado_998149" data-name="Trazado 998149" d="M105.061,138.617,98.3,141.535l5.091,11.355a4.729,4.729,0,0,0,6.942,2l7.819-5.225Z" transform="translate(-49.804 -70.233)" fill="#fcbf38"/>
            <path id="Trazado_998150" data-name="Trazado 998150" d="M151.157,138.617l6.981,2.918-5.091,11.355a4.729,4.729,0,0,1-6.942,2l-7.818-5.225Z" transform="translate(-70.066 -70.233)" fill="#fcbf38"/>
            <g id="Grupo_1178268" data-name="Grupo 1178268" transform="translate(48.493 68.384)" opacity="0.25" style="mix-blend-mode: screen;isolation: isolate">
              <g id="Grupo_1178267" data-name="Grupo 1178267">
                <g id="Grupo_1178266" data-name="Grupo 1178266" clip-path="url(#clip-path-20)">
                  <path id="Trazado_998151" data-name="Trazado 998151" d="M105.061,138.617,98.3,141.535l5.091,11.355a4.729,4.729,0,0,0,6.942,2l7.819-5.225Z" transform="translate(-98.297 -138.617)" fill="#fcbf38"/>
                  <path id="Trazado_998152" data-name="Trazado 998152" d="M151.157,138.617l6.981,2.918-5.091,11.355a4.729,4.729,0,0,1-6.942,2l-7.818-5.225Z" transform="translate(-118.559 -138.617)" fill="#fcbf38"/>
                </g>
              </g>
            </g>
            <path id="Trazado_998153" data-name="Trazado 998153" d="M138.281,1.568a1.669,1.669,0,0,1-3.332,0,1.669,1.669,0,0,1,3.332,0" transform="translate(-68.375 0)" fill="#fcbf38"/>
            <path id="Trazado_998154" data-name="Trazado 998154" d="M137.434,26.78l-2.933.051c-21.451-5.819-45.031.624-45.536.763a.017.017,0,0,1-.01,0c0-10.468,4.653-24.683,25.058-24.683,7.329,0,13.851,2.154,17.881,6.5,3.664,3.958,5.685,9.736,5.541,17.364" transform="translate(-45.071 -1.478)" fill="#fcbf38"/>
            <g id="Grupo_1178271" data-name="Grupo 1178271" transform="translate(43.884 1.439)" opacity="0.4" style="mix-blend-mode: multiply;isolation: isolate">
              <g id="Grupo_1178270" data-name="Grupo 1178270">
                <g id="Grupo_1178269" data-name="Grupo 1178269" clip-path="url(#clip-path-21)">
                  <path id="Trazado_998155" data-name="Trazado 998155" d="M137.434,26.78l-2.933.051c-21.451-5.819-45.031.624-45.536.763a.017.017,0,0,1-.01,0c0-10.468,4.653-24.683,25.058-24.683,7.329,0,13.851,2.154,17.881,6.5,3.664,3.958,5.685,9.736,5.541,17.364" transform="translate(-88.955 -2.917)" fill="#fcbf38"/>
                </g>
              </g>
            </g>
            <path id="Trazado_998156" data-name="Trazado 998156" d="M88.958,37.052s25.957-7.233,48.328.058c0,0,11.259-7.628,5.965-12.921C133.024,13.962,88.958,37.052,88.958,37.052" transform="translate(-45.072 -10.932)" fill="#fcbf38"/>
          </g>
        </g>
      </g>
    </g>
  </g>
</svg>
