<svg xmlns="http://www.w3.org/2000/svg" width="66.333" height="66.333" viewBox="0 0 66.333 66.333">
  <g id="Grupo_1179114" data-name="Grupo 1179114" transform="translate(-915 -4850)">
    <path id="Trazado_998171" data-name="Trazado 998171" d="M64.409,1H33.654A2.928,2.928,0,0,0,30.73,3.924V30.009a2.928,2.928,0,0,0,2.924,2.925H64.409a2.928,2.928,0,0,0,2.924-2.925V3.925A2.928,2.928,0,0,0,64.409,1Zm.843,29.009a.844.844,0,0,1-.843.843H33.654a.844.844,0,0,1-.843-.843V3.925a.844.844,0,0,1,.843-.843h8.755V9.434a1.857,1.857,0,0,0,1.071,1.694,1.858,1.858,0,0,0,1.989-.245l3.562-2.92,3.562,2.92a1.872,1.872,0,0,0,3.061-1.448V3.081h8.755a.844.844,0,0,1,.843.843V30.009ZM17.023,55.95v4.691a1.041,1.041,0,0,1-1.041,1.041H7.693a1.041,1.041,0,0,1-1.041-1.041V55.95A1.041,1.041,0,0,1,7.693,54.91h8.29A1.041,1.041,0,0,1,17.023,55.95Zm29.729-34.4v4.691a1.041,1.041,0,0,1-1.041,1.041h-8.29a1.041,1.041,0,0,1-1.041-1.041V21.55a1.041,1.041,0,0,1,1.041-1.041h8.29A1.041,1.041,0,0,1,46.753,21.55ZM34.68,35.4H3.924A2.928,2.928,0,0,0,1,38.324V64.409a2.928,2.928,0,0,0,2.924,2.925H34.68A2.928,2.928,0,0,0,37.6,64.409V38.324A2.928,2.928,0,0,0,34.68,35.4Zm.843,29.009a.844.844,0,0,1-.843.843H3.924a.844.844,0,0,1-.843-.843V38.324a.844.844,0,0,1,.843-.843H12.68v6.353a1.857,1.857,0,0,0,1.071,1.694,1.859,1.859,0,0,0,1.989-.245l3.562-2.92,3.561,2.92a1.872,1.872,0,0,0,3.061-1.448V37.481h8.755a.844.844,0,0,1,.843.843V64.409ZM8.21,32.583a18.9,18.9,0,0,1,.612-14.189,17.655,17.655,0,0,1,9.37-8.767l-.422-1.606a1.713,1.713,0,0,1,2.326-2.014l7.549,3.2a1.713,1.713,0,0,1,.689,2.623l-5,6.5a1.713,1.713,0,0,1-3.016-.61L20,16.5c-9.069,5.2-9.77,13.311-9.761,15.75a1.041,1.041,0,0,1-.87,1.03,1.057,1.057,0,0,1-.171.014,1.041,1.041,0,0,1-.986-.709Zm51.914,3.168a18.9,18.9,0,0,1-.612,14.189,17.654,17.654,0,0,1-9.37,8.767l.422,1.606a1.716,1.716,0,0,1-1.652,2.152,1.725,1.725,0,0,1-.675-.138l-7.549-3.2A1.713,1.713,0,0,1,40,56.5l5-6.5a1.713,1.713,0,0,1,3.016.61l.321,1.219c9.069-5.2,9.77-13.311,9.761-15.75a1.041,1.041,0,0,1,2.027-.336Z" transform="translate(914 4849)" fill="#1e3a8a"/>
  </g>
</svg>
