<svg xmlns="http://www.w3.org/2000/svg" width="147.479" height="123.888" viewBox="0 0 147.479 123.888">
  <g id="Grupo_1179116" data-name="Grupo 1179116" transform="translate(-250.503 -5784.402)">
    <g id="Grupo_1177088" data-name="Grupo 1177088" transform="translate(-51.759 1329.956)">
      <rect id="Rectángulo_401003" data-name="Rectángulo 401003" width="144.479" height="112.843" rx="29" transform="translate(303.762 4457.924)" fill="none" stroke="#fe8938" stroke-miterlimit="10" stroke-width="3"/>
      <g id="Grupo_1178283" data-name="Grupo 1178283" transform="translate(300.759 4436.901)">
        <g id="Grupo_1178277" data-name="Grupo 1178277" transform="translate(27.417 92.737)">
          <path id="Trazado_998157" data-name="Trazado 998157" d="M87.909,327.581l.6-5.637L102.2,334.42,86.025,345.267l.577-5.419C65.876,337.641,55.56,319.227,61.722,307,63.672,320.326,80.613,326.8,87.909,327.581Z" transform="translate(-59.952 -307)" fill="#8ac9fe" fill-rule="evenodd"/>
          <path id="Trazado_998158" data-name="Trazado 998158" d="M88.236,324.762l.3-2.818,13.689,12.476-1.954,1.311ZM59.988,314.147A16.81,16.81,0,0,1,61.748,307c1.95,13.326,18.891,19.8,26.187,20.581l-.3,2.819c-7.3-.777-24.237-7.255-26.187-20.581a16.39,16.39,0,0,0-1.46,4.328Z" transform="translate(-59.979 -307)" fill="#60b7ff" fill-rule="evenodd"/>
        </g>
        <g id="Grupo_1178278" data-name="Grupo 1178278" transform="translate(87.026 27.973)">
          <path id="Trazado_998159" data-name="Trazado 998159" d="M303.706,75.378l-.6,5.637L289.416,68.539l16.173-10.847-.577,5.419c20.726,2.207,31.042,20.621,24.88,32.848C327.943,82.634,311,76.155,303.706,75.378Z" transform="translate(-289.416 -57.692)" fill="#ffe177" fill-rule="evenodd"/>
          <path id="Trazado_998160" data-name="Trazado 998160" d="M303.405,105.371l-.3,2.819L289.416,95.714,291.37,94.4Zm28.248,10.616a16.808,16.808,0,0,1-1.76,7.146c-1.95-13.326-18.891-19.8-26.187-20.581l.3-2.819c7.3.777,24.237,7.255,26.187,20.581A16.382,16.382,0,0,0,331.653,115.987Z" transform="translate(-289.416 -84.867)" fill="#ffd064" fill-rule="evenodd"/>
        </g>
        <g id="Grupo_1178279" data-name="Grupo 1178279" transform="translate(16 17.544)">
          <path id="Trazado_998161" data-name="Trazado 998161" d="M45.06,17.91,17.329,33.921A2.593,2.593,0,0,0,16,36.22V68.242a2.593,2.593,0,0,0,1.328,2.3L45.06,86.552a2.594,2.594,0,0,0,2.655,0L75.447,70.541a2.594,2.594,0,0,0,1.328-2.3V36.22a2.593,2.593,0,0,0-1.328-2.3L47.715,17.91a2.593,2.593,0,0,0-2.655,0Z" transform="translate(-16.001 -17.544)" fill="#f2d1a5" fill-rule="evenodd"/>
          <path id="Trazado_998162" data-name="Trazado 998162" d="M46.05,17.91,18.318,33.92a2.644,2.644,0,0,0-.98.967l30.04,17.343,30.04-17.343a2.644,2.644,0,0,0-.98-.967L48.7,17.91A2.593,2.593,0,0,0,46.05,17.91Z" transform="translate(-16.99 -17.544)" fill="#e3a76f" fill-rule="evenodd"/>
          <path id="Trazado_998163" data-name="Trazado 998163" d="M16.347,84.308A2.646,2.646,0,0,0,16,85.641v32.022a2.593,2.593,0,0,0,1.328,2.3l27.732,16.011a2.645,2.645,0,0,0,1.328.366V101.651Z" transform="translate(-16 -66.965)" fill="#ecba78" fill-rule="evenodd"/>
          <path id="Trazado_998164" data-name="Trazado 998164" d="M96.726,57.52l-8.812,5.088L57.527,45.064l8.812-5.088Z" transform="translate(-46.739 -34.149)" fill="#c48958" fill-rule="evenodd"/>
          <path id="Trazado_998165" data-name="Trazado 998165" d="M176.493,125.267l5.493-3.171a2.593,2.593,0,0,0,1.328-2.3V107.512L174.5,112.6v11.517a1.328,1.328,0,0,0,1.992,1.15Z" transform="translate(-133.327 -84.141)" fill="#e3a76f" fill-rule="evenodd"/>
        </g>
        <g id="Grupo_1178280" data-name="Grupo 1178280" transform="translate(79.917 72.059)">
          <path id="Trazado_998166" data-name="Trazado 998166" d="M291.108,227.766l-27.732,16.011a2.593,2.593,0,0,0-1.328,2.3V278.1a2.593,2.593,0,0,0,1.328,2.3l27.732,16.011a2.594,2.594,0,0,0,2.655,0L321.495,280.4a2.593,2.593,0,0,0,1.328-2.3V246.077a2.593,2.593,0,0,0-1.328-2.3l-27.731-16.011A2.594,2.594,0,0,0,291.108,227.766Z" transform="translate(-262.049 -227.401)" fill="#f2d1a5" fill-rule="evenodd"/>
          <path id="Trazado_998167" data-name="Trazado 998167" d="M292.1,227.766l-27.732,16.011a2.644,2.644,0,0,0-.98.967l30.039,17.343,30.039-17.343a2.646,2.646,0,0,0-.98-.967l-27.732-16.011A2.594,2.594,0,0,0,292.1,227.766Z" transform="translate(-263.039 -227.401)" fill="#e3a76f" fill-rule="evenodd"/>
          <path id="Trazado_998168" data-name="Trazado 998168" d="M262.4,294.165a2.646,2.646,0,0,0-.347,1.332v32.022a2.593,2.593,0,0,0,1.328,2.3l27.732,16.011a2.645,2.645,0,0,0,1.328.365V311.508Z" transform="translate(-262.049 -276.822)" fill="#ecba78" fill-rule="evenodd"/>
          <path id="Trazado_998169" data-name="Trazado 998169" d="M342.774,267.376l-8.812,5.088L303.575,254.92l8.812-5.088Z" transform="translate(-292.788 -244.005)" fill="#c48958" fill-rule="evenodd"/>
          <path id="Trazado_998170" data-name="Trazado 998170" d="M422.541,335.123l5.493-3.171a2.593,2.593,0,0,0,1.328-2.3V317.368l-8.812,5.088v11.517a1.328,1.328,0,0,0,1.992,1.15Z" transform="translate(-379.375 -293.997)" fill="#e3a76f" fill-rule="evenodd"/>
        </g>
      </g>
    </g>
  </g>
</svg>
