<svg xmlns="http://www.w3.org/2000/svg" xmlns:xlink="http://www.w3.org/1999/xlink" width="147.479" height="175.954" viewBox="0 0 147.479 175.954">
  <defs>
    <clipPath id="clip-path">
      <rect id="Rectángulo_455254" data-name="Rectángulo 455254" width="121.806" height="175.954" fill="none"/>
    </clipPath>
    <clipPath id="clip-path-3">
      <rect id="Rectángulo_455247" data-name="Rectángulo 455247" width="93.76" height="54.132" fill="none"/>
    </clipPath>
    <clipPath id="clip-path-4">
      <path id="Trazado_1000151" data-name="Trazado 1000151" d="M75.547,0a4.972,4.972,0,0,0-2.372.743L24.946,28.588a11.93,11.93,0,0,0-5.408,9.368l.3,104.7a3.8,3.8,0,0,0,1.582,3.481l7.144,4.152a3.8,3.8,0,0,1-1.581-3.482l-.3-104.7a11.931,11.931,0,0,1,5.409-9.367L80.32,4.9a3.825,3.825,0,0,1,3.858-.376L77.034.368A2.781,2.781,0,0,0,75.665,0Z" transform="translate(-19.538 -0.001)" fill="none"/>
    </clipPath>
    <linearGradient id="linear-gradient" x1="0.208" y1="1.268" x2="0.212" y2="1.268" gradientUnits="objectBoundingBox">
      <stop offset="0" stop-color="#bac2d4"/>
      <stop offset="0.145" stop-color="#a9b0c7"/>
      <stop offset="0.174" stop-color="#a9b0c7"/>
      <stop offset="0.598" stop-color="#a9b0c7"/>
      <stop offset="0.616" stop-color="#c8ccd8"/>
      <stop offset="0.633" stop-color="#e0e1e5"/>
      <stop offset="0.644" stop-color="#eaeaeb"/>
      <stop offset="0.65" stop-color="#e5e6e8"/>
      <stop offset="0.657" stop-color="#d9dbe1"/>
      <stop offset="0.664" stop-color="#c4c9d6"/>
      <stop offset="0.667" stop-color="#bac0d1"/>
      <stop offset="1" stop-color="#bdc4d2"/>
    </linearGradient>
    <clipPath id="clip-path-6">
      <rect id="Rectángulo_455250" data-name="Rectángulo 455250" width="22.288" height="12.868" fill="none"/>
    </clipPath>
    <clipPath id="clip-path-7">
      <rect id="Rectángulo_455251" data-name="Rectángulo 455251" width="38.57" height="22.268" fill="none"/>
    </clipPath>
    <clipPath id="clip-path-8">
      <rect id="Rectángulo_455252" data-name="Rectángulo 455252" width="53.773" height="31.046" fill="none"/>
    </clipPath>
  </defs>
  <g id="Grupo_1179117" data-name="Grupo 1179117" transform="translate(-879.827 -8564)">
    <g id="Grupo_1178313" data-name="Grupo 1178313" transform="translate(577.565 4153.834)">
      <rect id="Rectángulo_401003" data-name="Rectángulo 401003" width="144.479" height="152.843" rx="29" transform="translate(303.762 4417.924)" fill="none" stroke="#fe8938" stroke-miterlimit="10" stroke-width="3"/>
      <g id="Grupo_1178835" data-name="Grupo 1178835" transform="translate(326.435 4410.166)">
        <g id="Grupo_1178834" data-name="Grupo 1178834" clip-path="url(#clip-path)">
          <g id="Grupo_1178820" data-name="Grupo 1178820">
            <g id="Grupo_1178819" data-name="Grupo 1178819" clip-path="url(#clip-path)">
              <g id="Grupo_1178818" data-name="Grupo 1178818" transform="translate(0 106.715)" style="mix-blend-mode: multiply;isolation: isolate">
                <g id="Grupo_1178817" data-name="Grupo 1178817">
                  <g id="Grupo_1178816" data-name="Grupo 1178816" clip-path="url(#clip-path-3)">
                    <path id="Trazado_1000146" data-name="Trazado 1000146" d="M20.622,191.213,93.76,148.987,73.138,137.081,0,179.307Z" transform="translate(0 -137.081)" fill="#cdd2d6"/>
                  </g>
                </g>
              </g>
              <path id="Trazado_1000147" data-name="Trazado 1000147" d="M82.353,6.078c3-1.731,5.434-.331,5.443,3.1l.3,104.7a11.912,11.912,0,0,1-5.408,9.367L34.457,151.094c-3,1.731-5.434.345-5.444-3.1l-.3-104.7a11.931,11.931,0,0,1,5.408-9.368Z" transform="translate(-6.361 -1.182)" fill="#d9d4f7"/>
              <path id="Trazado_1000148" data-name="Trazado 1000148" d="M32.217,151.34c-1.44,0-2.3-1.178-2.31-3.151l-.3-104.7a11.167,11.167,0,0,1,5.059-8.765L82.9,6.878a4.312,4.312,0,0,1,2.083-.649c1.444,0,2.309,1.178,2.315,3.151l.3,104.7a11.167,11.167,0,0,1-5.059,8.763L34.306,150.689a4.329,4.329,0,0,1-2.089.651" transform="translate(-6.559 -1.38)" fill="#464469"/>
              <path id="Trazado_1000149" data-name="Trazado 1000149" d="M81.774,10.772c2.427-1.4,4.408-.272,4.416,2.516l.29,102.137a9.68,9.68,0,0,1-4.387,7.6l-45.77,26.426c-2.427,1.4-4.407.273-4.416-2.516L31.618,44.794A9.679,9.679,0,0,1,36,37.2l7.1-4.1,3.245,1.478,25.1-14.493,3.227-5.214Z" transform="translate(-7.004 -2.253)" fill="#3455b3"/>
              <path id="Trazado_1000150" data-name="Trazado 1000150" d="M81.8,10.758c2.409-1.39,4.386-.253,4.394,2.529l.29,102.137a9.679,9.679,0,0,1-4.365,7.586L36.322,149.447c-2.42,1.4-4.407.254-4.416-2.541L31.618,44.818A9.725,9.725,0,0,1,36,37.2l5.828-3.365a2.849,2.849,0,0,1,2.606-.125l.979.446a1.988,1.988,0,0,0,1.816-.088L69.707,21.089a7.992,7.992,0,0,0,2.8-2.718l1.572-2.539a4.5,4.5,0,0,1,1.578-1.53Z" transform="translate(-7.004 -2.252)" fill="#519bf6"/>
            </g>
          </g>
          <g id="Grupo_1178822" data-name="Grupo 1178822" transform="translate(15.21 0.001)">
            <g id="Grupo_1178821" data-name="Grupo 1178821" clip-path="url(#clip-path-4)">
              <rect id="Rectángulo_455249" data-name="Rectángulo 455249" width="162.482" height="131.135" transform="translate(-65.088 112.719) rotate(-60)" fill="url(#linear-gradient)"/>
            </g>
          </g>
          <g id="Grupo_1178833" data-name="Grupo 1178833">
            <g id="Grupo_1178832" data-name="Grupo 1178832" clip-path="url(#clip-path)">
              <path id="Trazado_1000152" data-name="Trazado 1000152" d="M43.14,32.317a1.7,1.7,0,0,1-.592.542.128.128,0,0,1-.024.016l-1.866,1.077-2.8,1.617-1.379.795a3.48,3.48,0,0,1-3.118.128l-.887-.511c-.8-.46-.694-1.271.225-1.8l6.043-3.489a3.479,3.479,0,0,1,3.117-.13l.888.513a1.177,1.177,0,0,1,.394.343.779.779,0,0,1,0,.9" transform="translate(-7.075 -6.702)" fill="#64c95c"/>
              <path id="Trazado_1000153" data-name="Trazado 1000153" d="M32.474,35.98l.063.037c.051-.035.1-.069.161-.1l6.043-3.489a3.478,3.478,0,0,1,3.117-.129l.824.476c.768-.528.81-1.267.063-1.7l-.887-.512a3.476,3.476,0,0,0-3.117.129L32.7,34.18c-.919.53-1.02,1.341-.224,1.8" transform="translate(-7.075 -6.701)" fill="#d8d9dd"/>
              <path id="Trazado_1000154" data-name="Trazado 1000154" d="M43.889,33.4a.107.107,0,0,1-.024.016L42,34.5l-2.8,1.617-.667-.386a.92.92,0,0,1-.538-.773v-.006a1.283,1.283,0,0,1,.761-1.021l1.35-.779a3.484,3.484,0,0,1,3.119-.13Z" transform="translate(-8.416 -7.246)" fill="#d8d9dd"/>
              <path id="Trazado_1000155" data-name="Trazado 1000155" d="M44.482,31.75v.9a1.709,1.709,0,0,1-.592.542.128.128,0,0,1-.024.016L42,34.284l-4.005.458V32.5Z" transform="translate(-8.416 -7.033)" fill="#d8d9dd"/>
              <path id="Trazado_1000156" data-name="Trazado 1000156" d="M39.253,33.256l-.722-.416c-.8-.46-.7-1.27.223-1.8l1.351-.78a3.474,3.474,0,0,1,3.117-.129l.723.416c.795.459.694,1.269-.225,1.8l-1.351.78a3.477,3.477,0,0,1-3.116.129" transform="translate(-8.416 -6.606)" fill="#c8ccd8"/>
              <path id="Trazado_1000157" data-name="Trazado 1000157" d="M81.774,10.774c2.427-1.4,4.408-.272,4.416,2.516l.29,102.136a9.68,9.68,0,0,1-4.387,7.6L36.323,149.448c-2.427,1.4-4.408.273-4.416-2.516L31.618,44.8A9.682,9.682,0,0,1,36,37.2l7.1-4.1,3.245,1.478,25.1-14.492,3.227-5.214Z" transform="translate(-7.004 -2.253)" fill="#3455b3"/>
              <path id="Trazado_1000158" data-name="Trazado 1000158" d="M81.774,10.774c2.427-1.4,4.408-.272,4.416,2.516l.29,102.136a9.68,9.68,0,0,1-4.387,7.6L36.323,149.448c-2.427,1.4-4.408.273-4.416-2.516L31.618,44.8A9.682,9.682,0,0,1,36,37.2l7.1-4.1,3.245,1.478,25.1-14.492,3.227-5.214Z" transform="translate(-7.004 -2.253)" fill="#305aff"/>
              <path id="Trazado_1000159" data-name="Trazado 1000159" d="M82.6,48.89a2.6,2.6,0,0,0-2.634,0l-4.185,2.416v2.226l5.152-2.975a.705.705,0,0,1,1.057.613v7.006l1.927-1.111V51.171A2.6,2.6,0,0,0,82.6,48.89m-.61,31.434v5.168a5.228,5.228,0,0,1-2.609,4.516l-3.6,2.079v2.226l4.564-2.634a7.163,7.163,0,0,0,3.572-6.187v-6.28ZM40.636,111.974a.7.7,0,0,1-.353-.613v-6.954l-1.927,1.111v5.843a2.627,2.627,0,0,0,3.948,2.281l4.188-2.42V109l-5.152,2.975a.693.693,0,0,1-.7,0m1.291-41.122a7.162,7.162,0,0,0-3.572,6.187v6.331l1.927-1.111v-5.22a5.228,5.228,0,0,1,2.609-4.516l3.6-2.079V68.218Z" transform="translate(-8.497 -10.751)" fill="#d9d9d9"/>
              <path id="Trazado_1000160" data-name="Trazado 1000160" d="M80.239,57.5V88.635l-35.283,20.37V77.867Z" transform="translate(-9.959 -12.737)" fill="#d9d9d9"/>
              <path id="Trazado_1000161" data-name="Trazado 1000161" d="M53.254,84.75v21.634l-1.381.8V85.548Z" transform="translate(-11.491 -18.774)" fill="#343343"/>
              <path id="Trazado_1000162" data-name="Trazado 1000162" d="M56.94,82.6v21.634l-1.5.866V83.469Z" transform="translate(-12.281 -18.298)" fill="#343343"/>
              <path id="Trazado_1000163" data-name="Trazado 1000163" d="M62.067,79.5v21.634l-2.346,1.355V80.858Z" transform="translate(-13.229 -17.612)" fill="#343343"/>
              <path id="Trazado_1000164" data-name="Trazado 1000164" d="M65.843,77.492V99.129l-1.32.761V78.255Z" transform="translate(-14.293 -17.166)" fill="#343343"/>
              <path id="Trazado_1000165" data-name="Trazado 1000165" d="M68.733,75.806V97.442l-1.429.824V76.63Z" transform="translate(-14.909 -16.792)" fill="#343343"/>
              <path id="Trazado_1000166" data-name="Trazado 1000166" d="M72.758,73.461V95.1l-1.548.893V74.356Z" transform="translate(-15.774 -16.273)" fill="#343343"/>
              <path id="Trazado_1000167" data-name="Trazado 1000167" d="M75.573,71.89V93.527l-1.218.7V72.594Z" transform="translate(-16.471 -15.925)" fill="#343343"/>
              <path id="Trazado_1000168" data-name="Trazado 1000168" d="M79.687,69.39V91.026L77.708,92.17V70.534Z" transform="translate(-17.214 -15.371)" fill="#343343"/>
              <path id="Trazado_1000169" data-name="Trazado 1000169" d="M83.07,67.593V89.23l-1.031.6V68.19Z" transform="translate(-18.173 -14.973)" fill="#343343"/>
              <g id="Grupo_1178825" data-name="Grupo 1178825" transform="translate(97.273 135.257)" style="mix-blend-mode: multiply;isolation: isolate">
                <g id="Grupo_1178824" data-name="Grupo 1178824">
                  <g id="Grupo_1178823" data-name="Grupo 1178823" clip-path="url(#clip-path-6)">
                    <path id="Trazado_1000170" data-name="Trazado 1000170" d="M144,184.742c-4.339,2.5-11.394,2.492-15.76-.029s-4.388-6.594-.049-9.1,11.394-2.492,15.76.028,4.388,6.595.05,9.1" transform="translate(-124.952 -173.745)" fill="#cdd2d6"/>
                  </g>
                </g>
              </g>
              <path id="Trazado_1000171" data-name="Trazado 1000171" d="M149.3,179.936s.462.075.613.808a2.058,2.058,0,0,1-.04,1.253,5.843,5.843,0,0,1-.933,1.379c-.3.175-.379.155-.379.155a16.126,16.126,0,0,1-1.76,2.876,6.223,6.223,0,0,1-4.032,1.537c-1.722,0-2.114-1.1-2.121-1.266s.086-.848,1.628-1.9,7.023-4.841,7.023-4.841" transform="translate(-31.157 -39.859)" fill="#2e3442"/>
              <path id="Trazado_1000172" data-name="Trazado 1000172" d="M144.62,178.11c-.03.095.149,1.877-.392,2.473a35.944,35.944,0,0,0-3.053,3.871,5.812,5.812,0,0,0-.056,1.529,2.8,2.8,0,0,0,3.105.936c1.894-.47,3.122-2.234,3.787-3.435s1.672-2.237,1.837-2.84a16.382,16.382,0,0,0,.124-2.635c0-.03-5.352.1-5.352.1" transform="translate(-31.255 -39.432)" fill="#40485c"/>
              <path id="Trazado_1000173" data-name="Trazado 1000173" d="M134.784,173.509c.412.314,1.347,1.1,1.359,1.7a2.985,2.985,0,0,1-.1,1.067,11.577,11.577,0,0,1-2.252,1.01c-.442.156-.655-.167-1.136.178s-1.7,1.287-2.314,1.734a5.669,5.669,0,0,1-3.566.67c-1.351-.21-1.485-.68-1.583-1.242a2.34,2.34,0,0,1,.382-1.464,4.551,4.551,0,0,1,2.643-1.056c1.605-.23,6.566-2.595,6.566-2.595" transform="translate(-27.729 -38.436)" fill="#2e3442"/>
              <path id="Trazado_1000174" data-name="Trazado 1000174" d="M131.725,171.7a5.7,5.7,0,0,1-.608,1.45s-4.4,2.157-5.028,2.929a3.013,3.013,0,0,0-.622,1.759s.258.9,1.97.907a4.9,4.9,0,0,0,3.391-1.046,6.2,6.2,0,0,1,2.325-1.34c1.556-.366,2.848-.9,2.827-1.68-.021-.8-.147-2.517-.147-2.517Z" transform="translate(-27.793 -38.035)" fill="#40485c"/>
              <path id="Trazado_1000175" data-name="Trazado 1000175" d="M134.087,91.615c-3.066-.442-4.83,2.269-5.818,6.043-.466,1.78-2.4,8.773-2.624,10.193a2.842,2.842,0,0,0,1.8,2.918c.719.074,1.474.7,2.782-.848s8.43-18.632,3.858-18.306" transform="translate(-27.827 -20.284)" fill="#dbe6ff"/>
              <path id="Trazado_1000176" data-name="Trazado 1000176" d="M124.856,109.957c-1.014.546-3.544,3.937-6.247,5.607-1.5,2.138.123,3.931,1.154,3.931s9.012-4.422,9.272-6.252c-.477-1.61-1.079-3.539-4.18-3.287" transform="translate(-26.14 -24.353)" fill="#e0e9ff"/>
              <path id="Trazado_1000177" data-name="Trazado 1000177" d="M117.86,116.472s-1.032.123-1.437.185a.731.731,0,0,0-.54.307l.049.467s-.406.245-.3.553.614.184.614.184l.737-.454s.663.172.725.307a.844.844,0,0,0,.8.7.861.861,0,0,0,.835-1.241,4.772,4.772,0,0,0-1.486-1.007" transform="translate(-25.612 -25.801)" fill="#ffadb7"/>
              <path id="Trazado_1000178" data-name="Trazado 1000178" d="M131.615,124.134c-.712,3.464-1.843,5.233-1.622,9.532s.119,15.342.8,17.406,4.031.958,5.137.406a3.542,3.542,0,0,0,1.842-2.211c.184-.7,2.58-20.453,2.027-22.406s-8.181-2.727-8.181-2.727" transform="translate(-28.79 -27.498)" fill="#4b7d00"/>
              <path id="Trazado_1000179" data-name="Trazado 1000179" d="M136.27,128.44a31.686,31.686,0,0,0,0,7.039c.489,2.4,2.736,2.616,2.957,3.353s.41,10.41,1.111,12.695,7.439,2.973,7.586.814-.368-3.19.332-7.5a38.118,38.118,0,0,0,.508-12.382,68.8,68.8,0,0,0-1.355-8c-.074-.332-11.139,3.98-11.139,3.98" transform="translate(-30.138 -27.566)" fill="#528700"/>
              <path id="Trazado_1000180" data-name="Trazado 1000180" d="M138.453,155.455c-.066,1.366-.242,6.207-.419,8.916-.087,1.334-.178,2.568-.267,3.443-.787,1.179-5.171,1.018-5.441-.334-.083-.411-.262-1.732-.472-3.372-.48-3.75-1.12-9.164-1.12-9.164s6.363-8.055,6.413-7.81,1.4,6.282,1.306,8.321" transform="translate(-28.96 -32.592)" fill="#4b7d00"/>
              <path id="Trazado_1000181" data-name="Trazado 1000181" d="M150.827,171.2a3.987,3.987,0,0,1-.383,1.8c-.677,1.338-4.96,2.842-5.918.188a21.278,21.278,0,0,0-.346-2.43c-.75-4.068-2.448-10.876-2.623-13.189l6.531-5.755s1-1.022,1.686,4a149.363,149.363,0,0,1,1.053,15.389" transform="translate(-31.358 -33.612)" fill="#528700"/>
              <path id="Trazado_1000182" data-name="Trazado 1000182" d="M151.84,173.03l-1.46-.086c.262-4.391-1.219-16.587-2.215-23.244a6.677,6.677,0,0,1-.045-1.624c1.256-13.142.965-14.2-.648-20.054l-.04-.142,1.41-.388.04.142c1.635,5.935,1.976,7.171.694,20.58a5.25,5.25,0,0,0,.035,1.269c1.005,6.715,2.5,19.046,2.229,23.547" transform="translate(-32.659 -28.242)" fill="#bfc8de"/>
              <path id="Trazado_1000183" data-name="Trazado 1000183" d="M140.839,92.523a27.759,27.759,0,0,1,7.9,4.219c.737.792-2.826,19.973-2.261,23.487-3.562,3.538-9.754,2.433-11.449,2.359a4.532,4.532,0,0,1-3.98-2.85c-.369-1.474.221-9.631-.27-13.979s-.28-7.712.54-10.147c2.211-6.559,6.559-2.235,6.559-2.235Z" transform="translate(-28.912 -20.375)" fill="#d4dff7"/>
              <path id="Trazado_1000184" data-name="Trazado 1000184" d="M138.829,107.234s-.35,4.7-.332,5.27,2.672,1.179,2.672,1.179,2.58-.276,2.708-.829.2-5.141.2-5.141Z" transform="translate(-30.68 -23.754)" fill="#e0e9ff"/>
              <path id="Trazado_1000185" data-name="Trazado 1000185" d="M146.547,118.868c.021,1.005-4.184,2.887-9.041,2.206-.384-.054-.752-.115-1.1-.184v0c-.533-.1-1.024-.22-1.479-.349-3.024-.85-4.367-2.135-4.447-2.365-.1-.286.334-9.5,0-12.247a34.815,34.815,0,0,1,.566-9.785,5.432,5.432,0,0,1,3.873-4.55,10.763,10.763,0,0,1,3.666-.756c-.033.077-3.977,1.473-4.525,5.644a18.039,18.039,0,0,0,1.015,8.432,10.694,10.694,0,0,0,.731,1.564c.265-.43.508-.833.731-1.211,3.073-5.222,2.365-5.809,6.743-10.46.782-.831.938-.821.959-.812a5.245,5.245,0,0,0-2.2-1.268c-.882-.063,1.03-.063,1.03-.063,2.168.995,4.472,2.442,5.186,3.481-2.73.829-4.057,1.822-5.365,5.347s.023,8.137,1.72,8.991,1.951.412,1.9.514.015,6.869.033,7.874" transform="translate(-28.873 -20.117)" fill="#84d600"/>
              <path id="Trazado_1000186" data-name="Trazado 1000186" d="M137.823,110.517c0,.107-.374,9.628-.132,14.382-.532-.1-1.024-.22-1.479-.349-.2-4.872.125-13.5.149-14.077v-1.55a10.576,10.576,0,0,0,.731,1.564c.265-.43.508-.833.731-1.211Z" transform="translate(-30.159 -24.129)" fill="#bfc8de"/>
              <path id="Trazado_1000187" data-name="Trazado 1000187" d="M148.539,116.351a66.329,66.329,0,0,1-.216-11.637c.442-3.872.867-4.909,2.563-6.027,1.7-.678,1.757-.59,1.757-.59.719.346,1.724,1.183,1.945,9.541.149,5.636-.219,7.524-.475,8s-5.574.709-5.574.709" transform="translate(-32.816 -21.73)" fill="#e0e9ff"/>
              <path id="Trazado_1000188" data-name="Trazado 1000188" d="M136.5,89.316s1.627,3.039,1.573,4.077,3.462.163,4.211-1.061,1.245-1.732,1.094-2.565a28.02,28.02,0,0,1-.829-4.029c-.181-1.942-1.456-5.664-2.835-5.215s-3.213,8.793-3.213,8.793" transform="translate(-30.237 -17.829)" fill="#ffadb7"/>
              <path id="Trazado_1000189" data-name="Trazado 1000189" d="M143.438,90.477l.216.812A4.3,4.3,0,0,1,141.6,93.8a11.2,11.2,0,0,1-3.1,1.573l.883,2.616a9.172,9.172,0,0,0,1.437-.754c.74-.479,3.618-2.441,4.011-3.328a1.81,1.81,0,0,0,.215-1.311l-1.084-2.087Z" transform="translate(-30.681 -20.042)" fill="#e0e9ff"/>
              <path id="Trazado_1000190" data-name="Trazado 1000190" d="M137.213,94.993c-.009.327.454.937.784,1.383a5.138,5.138,0,0,1-1.706,1.855s-.118-2.284-.049-2.755.971-.483.971-.483" transform="translate(-30.175 -21.043)" fill="#e0e9ff"/>
              <path id="Trazado_1000191" data-name="Trazado 1000191" d="M119.181,117.423a3.4,3.4,0,0,1,.332,1.413,5.113,5.113,0,0,1-.332,1.707,4.514,4.514,0,0,1-1.2.835,3.185,3.185,0,0,1-1.487,0s-2.174-2.727-2.174-2.85a3.718,3.718,0,0,1,.074-.466l1.671-.958,2.211.123Z" transform="translate(-25.323 -25.941)" fill="#ffadb7"/>
              <path id="Trazado_1000192" data-name="Trazado 1000192" d="M135.359,126.905s-.778.024-1.046.074-.907.245-.907.245a.854.854,0,0,1-.774.369c-.575,0-.578-.326-.578-.486s.774-.564,1.032-.785a8.691,8.691,0,0,1,1.671-.363,8.514,8.514,0,0,1,2.084.381c.395.213.632.367.632.367a4.4,4.4,0,0,1-2.114.2" transform="translate(-29.253 -27.902)" fill="#ffadb7"/>
              <path id="Trazado_1000193" data-name="Trazado 1000193" d="M138.895,135.294l-.517.643c.051-.063.012-.2-.131-.4l.516-.643c.142.2.181.339.132.4" transform="translate(-30.624 -29.881)" fill="#2e3442"/>
              <path id="Trazado_1000194" data-name="Trazado 1000194" d="M111.543,113.279l.516-.643c.076-.1.36-.023.8.232l-.515.643c-.441-.255-.726-.328-.8-.232" transform="translate(-24.709 -24.942)" fill="#2e3442"/>
              <path id="Trazado_1000195" data-name="Trazado 1000195" d="M130.734,124.79l.516-.643,5.848,8.365-.515.643Z" transform="translate(-28.96 -27.501)" fill="#2e3442"/>
              <path id="Trazado_1000196" data-name="Trazado 1000196" d="M112.573,113.588l.516-.643,12.161,7.021-.516.643Z" transform="translate(-24.937 -25.02)" fill="#2e3442"/>
              <path id="Trazado_1000197" data-name="Trazado 1000197" d="M128.2,122.608l.516-.643a7.277,7.277,0,0,1,1.977,1.7l-.516.643a7.276,7.276,0,0,0-1.977-1.7" transform="translate(-28.398 -27.018)" fill="#2e3442"/>
              <path id="Trazado_1000198" data-name="Trazado 1000198" d="M124.5,120.716a7.277,7.277,0,0,1,1.977,1.7l5.849,8.365c.36.516.061.592-.669.171l-12.161-7.022a7.279,7.279,0,0,1-1.977-1.7l-5.848-8.365c-.361-.516-.061-.592.669-.17Z" transform="translate(-24.703 -25.125)" fill="#2e3442"/>
              <path id="Trazado_1000199" data-name="Trazado 1000199" d="M115.046,119.144a4.846,4.846,0,0,1,1.084.154c.128.1.055.424.055.424l.543-.452s.432.278.437.558c.153.2.411.418.429.732l.019.313a.766.766,0,0,1,.138.636c-.119.286-1,.746-1,.746s-1.152-.285-1.3-.507a1.473,1.473,0,0,1-.083-.746l-.111-.24a.714.714,0,0,1-.6-.129c-.3-.221-.175-.774-.175-.774a2.044,2.044,0,0,1-.645-.534c-.166-.276.286-.949.286-.949l.153-.043.234.568Z" transform="translate(-25.209 -26.213)" fill="#ffadb7"/>
              <path id="Trazado_1000200" data-name="Trazado 1000200" d="M138.429,127.659c.517.748.878.672,1.941.411s12.07-5.541,11.286-9.047-4.7-2.1-5.343-1.481a35.6,35.6,0,0,1-4.819,4.189c-2.657,1.9-4.248,2.57-4.426,2.955s1.36,2.974,1.36,2.974" transform="translate(-30.36 -25.859)" fill="#e0e9ff"/>
              <path id="Trazado_1000201" data-name="Trazado 1000201" d="M137.948,126.746a5.823,5.823,0,0,0-1.206-.393,16.946,16.946,0,0,0-2.457.418s-1.486.676-1.511.908-.062.934-.062.934l.1.209a1.634,1.634,0,0,0-.1.688.983.983,0,0,0,.32.43,1.045,1.045,0,0,0,.171.565c.16.16.283.135.283.135a2.276,2.276,0,0,0,.271.6,2.837,2.837,0,0,0,.823.234,5.412,5.412,0,0,0,1.584,0c.467-.147,1.961-1.363,2.256-1.45a1.019,1.019,0,0,0,.479-.332s-.255-2.45-.951-2.948" transform="translate(-29.395 -27.989)" fill="#ffadb7"/>
              <path id="Trazado_1000202" data-name="Trazado 1000202" d="M131.539,81.183a3.038,3.038,0,0,0-.5,2.61,36.643,36.643,0,0,0,1.632,5.721,16.666,16.666,0,0,0,1.748,3.047,3.667,3.667,0,0,0,1.907.337c.561-.021,3.477-2.126,3.86-3.258s.314-5.671-.4-7.164-6.948-1.729-8.25-1.293" transform="translate(-29.009 -17.94)" fill="#ffadb7"/>
              <path id="Trazado_1000203" data-name="Trazado 1000203" d="M132.961,81.811a8.022,8.022,0,0,0,1.312-.014c.513-.047.992-.239,1.5-.28a.818.818,0,0,1,.353.03c.327.122.278.7.342.991a1.917,1.917,0,0,0,.343.9c.433.452,1.494.754,1.762,1.948l.149.975.75-.559a15.75,15.75,0,0,1-.061-2c.061-.632.752-1.725,1.473-.521a3.459,3.459,0,0,0,.508,2.52c.456-2.109.89-2.544.963-5.124s-.552-5.129-3.345-5.486c-2.464-1.261-4.462-.794-6.723,1.315-2.236,2.086-1.843,4.1-1.834,4.143a1.559,1.559,0,0,0,.447.694,4.127,4.127,0,0,0,1.866.457l.193.016" transform="translate(-28.891 -16.502)" fill="#202459"/>
              <path id="Trazado_1000204" data-name="Trazado 1000204" d="M137.542,85.179a1.42,1.42,0,0,1-.5-.081l.207-.551c.635.242,2.2-.47,3.713-1.152l.258-.116c1.947-.877,2.158-2.138,2.158-2.639h.588c0,.616-.244,2.157-2.5,3.175l-.258.116a11.137,11.137,0,0,1-3.659,1.248" transform="translate(-30.357 -17.863)" fill="#d4dff7"/>
              <path id="Trazado_1000205" data-name="Trazado 1000205" d="M142.722,85.838c.11-.729.434-.937.993-.919s.75.332.582,1.53-.626,1.8-1.144,1.861-.461-.525-.437-.877.008-1.594.008-1.594" transform="translate(-31.611 -18.811)" fill="#ffadb7"/>
              <path id="Trazado_1000206" data-name="Trazado 1000206" d="M142.311,78.812c-.139,1.949-4.387,3.935-7.456,4.422s-4.867-.244-5.6-1.393a9.4,9.4,0,0,1,.2-4.4,7.975,7.975,0,0,1,1.218-2.483c2.462-2.384,6.387-2.152,7.221-1.953a6.33,6.33,0,0,1,4.385,5.1,5.369,5.369,0,0,1,.035.708" transform="translate(-28.595 -16.146)" fill="#ffae00"/>
              <path id="Trazado_1000207" data-name="Trazado 1000207" d="M139.932,74.534c.3,1.458-1.555,3.07-4.14,3.6s-4.925-.221-5.224-1.679,1.555-3.07,4.141-3.6,4.925.221,5.224,1.679" transform="translate(-28.916 -16.101)" fill="#ffae00"/>
              <path id="Trazado_1000208" data-name="Trazado 1000208" d="M129.068,83.781a2.183,2.183,0,0,0-.329,2.188c.539,1.153,3.385,1.717,5.3,1.251a6.943,6.943,0,0,0,3.305-2.253s-3.859,1.371-6.649.352c-1.26-.687-1.369-.807-1.625-1.538" transform="translate(-28.479 -18.559)" fill="#ffbb29"/>
              <path id="Trazado_1000209" data-name="Trazado 1000209" d="M138.966,74.808c.216,1.055-1.125,2.222-3,2.606s-3.564-.16-3.78-1.215,1.125-2.222,3-2.606,3.564.16,3.78,1.215" transform="translate(-29.278 -16.275)" fill="#ffbb29"/>
              <path id="Trazado_1000210" data-name="Trazado 1000210" d="M142.311,80.108c-.139,1.949-4.387,3.935-7.456,4.422s-4.867-.244-5.6-1.393a9.4,9.4,0,0,1,.2-4.4c.212,1.98,1.227,3.442,3.917,3.927,2.427.438,7.3-.863,8.907-3.263a5.369,5.369,0,0,1,.035.708" transform="translate(-28.595 -17.442)" fill="#f59200"/>
              <g id="Grupo_1178828" data-name="Grupo 1178828" transform="translate(56.947 153.685)" style="mix-blend-mode: multiply;isolation: isolate">
                <g id="Grupo_1178827" data-name="Grupo 1178827">
                  <g id="Grupo_1178826" data-name="Grupo 1178826" clip-path="url(#clip-path-7)">
                    <path id="Trazado_1000211" data-name="Trazado 1000211" d="M73.151,208.581l19.336-11.163,19.233,11.1L92.384,219.685Z" transform="translate(-73.151 -197.417)" fill="#cdd2d6"/>
                  </g>
                </g>
              </g>
              <g id="Grupo_1178831" data-name="Grupo 1178831" transform="translate(28.434 137.062)" style="mix-blend-mode: multiply;isolation: isolate">
                <g id="Grupo_1178830" data-name="Grupo 1178830">
                  <g id="Grupo_1178829" data-name="Grupo 1178829" clip-path="url(#clip-path-8)">
                    <path id="Trazado_1000212" data-name="Trazado 1000212" d="M36.525,191.628l26.958-15.564L90.3,191.546,63.34,207.11Z" transform="translate(-36.525 -176.064)" fill="#cdd2d6"/>
                  </g>
                </g>
              </g>
              <path id="Trazado_1000213" data-name="Trazado 1000213" d="M41.718,188.982,64.49,202.13V177.266L41.718,164.118Z" transform="translate(-9.241 -36.355)" fill="#ae835b"/>
              <path id="Trazado_1000214" data-name="Trazado 1000214" d="M93.885,188.876,70.97,202.106V177.242l22.915-13.23Z" transform="translate(-15.721 -36.332)" fill="#c99a6b"/>
              <path id="Trazado_1000215" data-name="Trazado 1000215" d="M97.859,197.335V215.9l16.213-9.36V187.975Z" transform="translate(-21.678 -41.64)" fill="#c99a6b"/>
              <path id="Trazado_1000216" data-name="Trazado 1000216" d="M77.162,206.612l16.111,9.3V197.351l-16.111-9.3Z" transform="translate(-17.093 -41.657)" fill="#ae835b"/>
              <path id="Trazado_1000217" data-name="Trazado 1000217" d="M77.162,185.386l16.111,9.3,16.213-9.36-16.111-9.3Z" transform="translate(-17.093 -38.993)" fill="#e8b687"/>
              <path id="Trazado_1000218" data-name="Trazado 1000218" d="M41.718,160.353,64.49,173.5,87.4,160.271,64.634,147.123Z" transform="translate(-9.241 -32.591)" fill="#e8b687"/>
              <path id="Trazado_1000219" data-name="Trazado 1000219" d="M109.237,201.626l-2.7,1.559v-8.641l2.7-1.559Z" transform="translate(-23.6 -42.75)" fill="#f59200"/>
              <path id="Trazado_1000220" data-name="Trazado 1000220" d="M104.653,190.338l-2.7,1.559-16.111-9.3,2.7-1.559Z" transform="translate(-19.015 -40.103)" fill="#ffae00"/>
              <path id="Trazado_1000221" data-name="Trazado 1000221" d="M54.61,182.476l2.7,1.559V173.12l-2.7-1.559Z" transform="translate(-12.097 -38.004)" fill="#d66b00"/>
              <path id="Trazado_1000222" data-name="Trazado 1000222" d="M54.61,167.8l2.7,1.559,22.915-13.23-2.7-1.559Z" transform="translate(-12.097 -34.24)" fill="#ffae00"/>
              <path id="Trazado_1000223" data-name="Trazado 1000223" d="M49.412,158.3l16.212-9.36,16.126,9.31-16.212,9.36Z" transform="translate(-10.946 -32.992)" fill="#ae835b"/>
              <path id="Trazado_1000224" data-name="Trazado 1000224" d="M66.317,148.055v16.078l-13.779-7.955V140.1Z" transform="translate(-11.638 -31.035)" fill="#ae835b"/>
              <path id="Trazado_1000225" data-name="Trazado 1000225" d="M83.931,156.241l-13.693,7.905V148.069l13.693-7.905Z" transform="translate(-15.559 -31.049)" fill="#c99a6b"/>
              <path id="Trazado_1000226" data-name="Trazado 1000226" d="M80.01,137.9,66.317,145.8,52.538,137.85l13.693-7.905Z" transform="translate(-11.638 -28.785)" fill="#e8b687"/>
              <path id="Trazado_1000227" data-name="Trazado 1000227" d="M80,152.17l-2.7,1.559V145.8L80,144.24Z" transform="translate(-17.123 -31.952)" fill="#f59200"/>
              <path id="Trazado_1000228" data-name="Trazado 1000228" d="M76.077,141.976l-2.7,1.559L59.6,135.579l2.7-1.559Z" transform="translate(-13.202 -29.688)" fill="#ffae00"/>
            </g>
          </g>
        </g>
      </g>
    </g>
  </g>
</svg>
