<svg xmlns="http://www.w3.org/2000/svg" xmlns:xlink="http://www.w3.org/1999/xlink" width="160.465" height="155.843" viewBox="0 0 160.465 155.843">
  <defs>
    <clipPath id="clip-path">
      <rect id="Rectángulo_455259" data-name="Rectángulo 455259" width="150.292" height="129.624" fill="none"/>
    </clipPath>
    <clipPath id="clip-path-3">
      <path id="Trazado_1000486" data-name="Trazado 1000486" d="M65.792,36.241,74.727,41.4l6.721-6.46L70.394,29.727Z" fill="none"/>
    </clipPath>
    <clipPath id="clip-path-5">
      <rect id="Rectángulo_455256" data-name="Rectángulo 455256" width="18.479" height="20.26" transform="translate(84.14 18.999)" fill="none"/>
    </clipPath>
    <clipPath id="clip-path-6">
      <rect id="Rectángulo_455257" data-name="Rectángulo 455257" width="5.246" height="5.809" transform="translate(84.455 10.526)" fill="none"/>
    </clipPath>
  </defs>
  <g id="Grupo_1179118" data-name="Grupo 1179118" transform="translate(-1194.827 -8570.259)">
    <g id="Grupo_1178312" data-name="Grupo 1178312" transform="translate(892.565 4153.834)">
      <rect id="Rectángulo_401003" data-name="Rectángulo 401003" width="144.479" height="152.843" rx="29" transform="translate(303.762 4417.924)" fill="none" stroke="#fe8938" stroke-miterlimit="10" stroke-width="3"/>
      <g id="Grupo_1178849" data-name="Grupo 1178849" transform="translate(312.435 4435.166)">
        <g id="Grupo_1178848" data-name="Grupo 1178848" clip-path="url(#clip-path)">
          <path id="Trazado_1000229" data-name="Trazado 1000229" d="M0,98.322l54.216,31.3,89.831-51.865-54.216-31.3Z" fill="#eedfcf"/>
          <path id="Trazado_1000230" data-name="Trazado 1000230" d="M6.245,97.858l54.216,31.3L150.292,77.3l-54.216-31.3Z" fill="#f3f2f2"/>
          <path id="Trazado_1000231" data-name="Trazado 1000231" d="M54.492,97.488l-19.173,11.07L29,104.908,48.171,93.839ZM35.319,108.2,53.874,97.488l-5.7-3.292L29.616,104.908Z" fill="#282752"/>
          <path id="Trazado_1000232" data-name="Trazado 1000232" d="M66.488,90.562,54.183,97.667l-6.321-3.65,12.305-7.1ZM54.183,97.31,65.87,90.562l-5.7-3.292L48.48,94.017Z" fill="#282752"/>
          <path id="Trazado_1000233" data-name="Trazado 1000233" d="M78.484,83.636l-12.305,7.1-6.321-3.65,12.305-7.1ZM66.179,90.384l11.687-6.748-5.7-3.292L60.476,87.091Z" fill="#282752"/>
          <path id="Trazado_1000234" data-name="Trazado 1000234" d="M90.479,76.711l-12.3,7.1-6.321-3.649,12.305-7.105Zm-12.3,6.747L89.86,76.711l-5.7-3.293L72.471,80.166Z" fill="#282752"/>
          <path id="Trazado_1000235" data-name="Trazado 1000235" d="M102.475,69.784,90.17,76.889l-6.321-3.65,12.305-7.1ZM90.17,76.532l11.687-6.748-5.7-3.292L84.467,73.239Z" fill="#282752"/>
          <path id="Trazado_1000236" data-name="Trazado 1000236" d="M114.471,62.858l-12.305,7.1-6.321-3.65,12.305-7.1Zm-12.305,6.748,11.687-6.748-5.7-3.292L96.463,66.313Z" fill="#282752"/>
          <path id="Trazado_1000237" data-name="Trazado 1000237" d="M102.287,55.825,76.842,70.516l-4.551-2.628L97.736,53.2ZM76.842,70.159l24.827-14.334-3.933-2.271L72.909,67.888Z" fill="#282752"/>
          <path id="Trazado_1000238" data-name="Trazado 1000238" d="M58.653,99.891,39.48,110.961l-4.47-2.581L54.183,97.311ZM39.48,110.6,58.035,99.891l-3.852-2.224L35.628,108.38Z" fill="#282752"/>
          <path id="Trazado_1000239" data-name="Trazado 1000239" d="M70.648,92.965l-12.305,7.1-4.47-2.581,12.305-7.1ZM58.343,99.712,70.03,92.965l-3.852-2.224L54.491,97.488Z" fill="#282752"/>
          <path id="Trazado_1000240" data-name="Trazado 1000240" d="M82.644,86.038l-12.305,7.1-4.47-2.581,12.305-7.1ZM70.339,92.786l11.687-6.748-3.852-2.223L66.487,90.562Z" fill="#282752"/>
          <path id="Trazado_1000241" data-name="Trazado 1000241" d="M94.639,79.113l-12.3,7.1-4.47-2.581,12.305-7.1Zm-12.3,6.747,11.686-6.747L90.17,76.889,78.483,83.636Z" fill="#282752"/>
          <path id="Trazado_1000242" data-name="Trazado 1000242" d="M106.636,72.188l-12.305,7.1-4.47-2.581,12.305-7.1ZM94.331,78.935l11.687-6.747-3.852-2.224L90.479,76.711Z" fill="#282752"/>
          <path id="Trazado_1000243" data-name="Trazado 1000243" d="M118.632,65.261l-12.306,7.1-4.47-2.581,12.305-7.1Zm-12.306,6.748,11.687-6.748-3.852-2.223-11.687,6.747Z" fill="#282752"/>
          <path id="Trazado_1000244" data-name="Trazado 1000244" d="M62.813,102.293,43.64,113.363l-4.47-2.581L58.343,99.713ZM43.64,113.006l18.555-10.713-3.852-2.223L39.789,110.782Z" fill="#282752"/>
          <path id="Trazado_1000245" data-name="Trazado 1000245" d="M74.809,95.367l-12.3,7.105-4.47-2.581,12.3-7.1Zm-12.3,6.748,11.687-6.748-3.852-2.223L58.652,99.891Z" fill="#282752"/>
          <path id="Trazado_1000246" data-name="Trazado 1000246" d="M86.805,88.441,74.5,95.546l-4.469-2.581,12.3-7.1ZM74.5,95.189l11.687-6.748-3.852-2.223L70.649,92.965Z" fill="#282752"/>
          <path id="Trazado_1000247" data-name="Trazado 1000247" d="M98.8,81.516,86.5,88.62l-4.47-2.581,12.305-7.1ZM86.5,88.263l11.686-6.747-3.851-2.224L82.644,86.039Z" fill="#282752"/>
          <path id="Trazado_1000248" data-name="Trazado 1000248" d="M110.8,74.589,98.491,81.694l-4.47-2.581,12.3-7.1ZM98.491,81.337l11.687-6.748-3.852-2.223L94.639,79.113Z" fill="#282752"/>
          <path id="Trazado_1000249" data-name="Trazado 1000249" d="M122.792,67.663l-12.305,7.1-4.47-2.581,12.305-7.1Zm-12.305,6.748,11.687-6.748-3.852-2.223-11.686,6.747Z" fill="#282752"/>
          <path id="Trazado_1000250" data-name="Trazado 1000250" d="M66.974,104.695,47.8,115.765l-4.47-2.581L62.5,102.115ZM47.8,115.408l18.555-10.713L62.5,102.471,43.949,113.184Z" fill="#282752"/>
          <path id="Trazado_1000251" data-name="Trazado 1000251" d="M78.97,97.77l-12.305,7.1-4.47-2.581,12.305-7.1Zm-12.305,6.747L78.352,97.77,74.5,95.546l-11.687,6.747Z" fill="#282752"/>
          <path id="Trazado_1000252" data-name="Trazado 1000252" d="M90.966,90.843l-12.305,7.1-4.47-2.581,12.305-7.1ZM78.661,97.591l11.687-6.748L86.5,88.62,74.809,95.367Z" fill="#282752"/>
          <path id="Trazado_1000253" data-name="Trazado 1000253" d="M102.961,83.918l-12.305,7.1-4.47-2.581,12.305-7.1ZM90.656,90.665l11.686-6.747-3.851-2.224L86.8,88.441Z" fill="#282752"/>
          <path id="Trazado_1000254" data-name="Trazado 1000254" d="M114.957,76.992l-12.305,7.1-4.47-2.581,12.305-7.1Zm-12.305,6.747,11.687-6.747-3.852-2.224L98.8,81.515Z" fill="#282752"/>
          <path id="Trazado_1000255" data-name="Trazado 1000255" d="M126.953,70.066l-12.305,7.1-4.47-2.581,12.305-7.1Zm-12.305,6.747,11.687-6.747-3.852-2.224L110.8,74.589Z" fill="#282752"/>
          <path id="Trazado_1000256" data-name="Trazado 1000256" d="M71.135,107.1l-19.173,11.07-4.47-2.581,19.173-11.07ZM51.962,117.81,70.517,107.1l-3.852-2.224L48.11,115.586Z" fill="#282752"/>
          <path id="Trazado_1000257" data-name="Trazado 1000257" d="M83.13,100.171l-12.305,7.105-4.47-2.581,12.305-7.1Zm-12.305,6.748,11.687-6.748L78.66,97.948l-11.687,6.747Z" fill="#282752"/>
          <path id="Trazado_1000258" data-name="Trazado 1000258" d="M95.126,93.245l-12.305,7.1-4.47-2.581,12.305-7.1ZM82.821,99.993l11.687-6.748-3.852-2.223L78.969,97.769Z" fill="#282752"/>
          <path id="Trazado_1000259" data-name="Trazado 1000259" d="M107.122,86.32l-12.305,7.1-4.47-2.581,12.305-7.1ZM94.817,93.067,106.5,86.32,102.652,84.1,90.965,90.843Z" fill="#282752"/>
          <path id="Trazado_1000260" data-name="Trazado 1000260" d="M119.118,79.393l-12.3,7.105-4.47-2.581,12.305-7.1Zm-12.3,6.748L118.5,79.393l-3.852-2.223-11.687,6.747Z" fill="#282752"/>
          <path id="Trazado_1000261" data-name="Trazado 1000261" d="M131.113,72.467l-12.3,7.1-4.47-2.581,12.305-7.1Zm-12.3,6.748,11.686-6.748-3.851-2.223-11.688,6.747Z" fill="#282752"/>
          <path id="Trazado_1000262" data-name="Trazado 1000262" d="M75.3,109.5,56.123,120.57l-4.47-2.581,19.173-11.07ZM56.123,120.213,74.677,109.5l-3.851-2.224L52.271,117.989Z" fill="#282752"/>
          <path id="Trazado_1000263" data-name="Trazado 1000263" d="M87.291,102.573l-12.305,7.105-4.47-2.581,12.305-7.1Zm-12.305,6.748,11.687-6.748-3.852-2.223L71.134,107.1Z" fill="#282752"/>
          <path id="Trazado_1000264" data-name="Trazado 1000264" d="M99.287,95.647l-12.305,7.1-4.47-2.581,12.305-7.1Zm-12.305,6.748,11.687-6.748-3.852-2.223L83.13,100.171Z" fill="#282752"/>
          <path id="Trazado_1000265" data-name="Trazado 1000265" d="M111.282,88.722l-12.3,7.1-4.47-2.581,12.305-7.1Zm-12.3,6.747,11.686-6.747L106.813,86.5,95.126,93.245Z" fill="#282752"/>
          <path id="Trazado_1000266" data-name="Trazado 1000266" d="M123.278,81.8,110.973,88.9,106.5,86.32l12.305-7.1Zm-12.305,6.748L122.66,81.8l-3.852-2.223L107.121,86.32Z" fill="#282752"/>
          <path id="Trazado_1000267" data-name="Trazado 1000267" d="M135.274,74.87l-12.305,7.1-4.47-2.581,12.305-7.1Zm-12.305,6.748,11.687-6.748L130.8,72.647l-11.687,6.747Z" fill="#282752"/>
          <path id="Trazado_1000268" data-name="Trazado 1000268" d="M79.456,111.9l-19.173,11.07-4.47-2.581,19.173-11.069ZM60.283,122.615,78.838,111.9l-3.852-2.224L56.431,120.391Z" fill="#282752"/>
          <path id="Trazado_1000269" data-name="Trazado 1000269" d="M91.452,104.977l-12.305,7.1-4.47-2.581,12.305-7.1Zm-12.305,6.747,11.687-6.747-3.852-2.224L75.295,109.5Z" fill="#282752"/>
          <path id="Trazado_1000270" data-name="Trazado 1000270" d="M103.448,98.05l-12.305,7.1-4.47-2.581,12.305-7.1ZM91.143,104.8,102.83,98.05l-3.852-2.223-11.687,6.747Z" fill="#282752"/>
          <path id="Trazado_1000271" data-name="Trazado 1000271" d="M115.444,91.125l-12.305,7.1-4.47-2.581,12.305-7.1Zm-12.305,6.747,11.687-6.747L110.974,88.9,99.287,95.648Z" fill="#282752"/>
          <path id="Trazado_1000272" data-name="Trazado 1000272" d="M127.439,84.2l-12.305,7.1-4.47-2.581,12.305-7.1Zm-12.305,6.747L126.821,84.2l-3.852-2.224-11.687,6.747Z" fill="#282752"/>
          <path id="Trazado_1000273" data-name="Trazado 1000273" d="M139.435,77.272l-12.305,7.1L122.66,81.8l12.3-7.1ZM127.13,84.02l11.687-6.748-3.852-2.223L123.278,81.8Z" fill="#282752"/>
          <path id="Trazado_1000274" data-name="Trazado 1000274" d="M57.689,84.5,25.822,102.9,25,102.421l31.867-18.4Z" fill="#282752"/>
          <path id="Trazado_1000275" data-name="Trazado 1000275" d="M104.741,57.332,85.878,68.223l-.824-.476,18.863-10.891Z" fill="#282752"/>
          <path id="Trazado_1000276" data-name="Trazado 1000276" d="M33.051,93.648l-11.624,6.711-.824-.476,11.624-6.711Z" fill="#282752"/>
          <path id="Trazado_1000277" data-name="Trazado 1000277" d="M46.271,97.792,34.647,104.5l-.824-.476,11.624-6.711Z" fill="#282752"/>
          <path id="Trazado_1000278" data-name="Trazado 1000278" d="M52.457,101.363l-11.624,6.711-.824-.476,11.624-6.711Z" fill="#282752"/>
          <path id="Trazado_1000279" data-name="Trazado 1000279" d="M52.48,106.154l-7.486,4.322L44.17,110l7.486-4.322Z" fill="#282752"/>
          <path id="Trazado_1000280" data-name="Trazado 1000280" d="M54.967,109.523l-5.812,3.356-.824-.476,5.812-3.356Z" fill="#282752"/>
          <path id="Trazado_1000281" data-name="Trazado 1000281" d="M64.939,108.57l-11.624,6.711-.824-.476,11.624-6.711Z" fill="#282752"/>
          <path id="Trazado_1000282" data-name="Trazado 1000282" d="M69.1,110.972l-11.624,6.711-.824-.476L68.276,110.5Z" fill="#282752"/>
          <path id="Trazado_1000283" data-name="Trazado 1000283" d="M70.239,115.119l-8.6,4.966-.824-.475,8.6-4.967Z" fill="#282752"/>
          <path id="Trazado_1000284" data-name="Trazado 1000284" d="M43.843,101.564,36.7,105.688l-.824-.476,7.143-4.124Z" fill="#282752"/>
          <path id="Trazado_1000285" data-name="Trazado 1000285" d="M59.441,90.188,52.848,94l-.824-.476,6.593-3.807Z" fill="#282752"/>
          <path id="Trazado_1000286" data-name="Trazado 1000286" d="M58.951,92.841,54.9,95.18l-.824-.476,4.051-2.339Z" fill="#282752"/>
          <path id="Trazado_1000287" data-name="Trazado 1000287" d="M64.7,94.3l-4.051,2.339-.825-.476,4.052-2.339Z" fill="#282752"/>
          <path id="Trazado_1000288" data-name="Trazado 1000288" d="M68.859,96.7l-4.051,2.339-.825-.476,4.052-2.339Z" fill="#282752"/>
          <path id="Trazado_1000289" data-name="Trazado 1000289" d="M73.02,99.1l-4.051,2.339-.825-.476L72.2,98.624Z" fill="#282752"/>
          <path id="Trazado_1000290" data-name="Trazado 1000290" d="M77.181,101.5l-4.051,2.339-.825-.476,4.052-2.339Z" fill="#282752"/>
          <path id="Trazado_1000291" data-name="Trazado 1000291" d="M81.342,103.9l-4.051,2.339-.825-.476,4.052-2.339Z" fill="#282752"/>
          <path id="Trazado_1000292" data-name="Trazado 1000292" d="M76.734,87.346l-4.051,2.339-.824-.476L75.91,86.87Z" fill="#282752"/>
          <path id="Trazado_1000293" data-name="Trazado 1000293" d="M80.9,89.748l-4.051,2.339-.824-.476,4.051-2.339Z" fill="#282752"/>
          <path id="Trazado_1000294" data-name="Trazado 1000294" d="M89.217,94.553l-4.051,2.339-.824-.476,4.051-2.339Z" fill="#282752"/>
          <path id="Trazado_1000295" data-name="Trazado 1000295" d="M93.377,96.955l-4.051,2.339-.824-.476,4.051-2.339Z" fill="#282752"/>
          <path id="Trazado_1000296" data-name="Trazado 1000296" d="M97.538,99.357,93.487,101.7l-.824-.476,4.051-2.339Z" fill="#282752"/>
          <path id="Trazado_1000297" data-name="Trazado 1000297" d="M88.771,80.4l-4.051,2.339-.825-.476,4.052-2.339Z" fill="#282752"/>
          <path id="Trazado_1000298" data-name="Trazado 1000298" d="M92.931,82.8,88.88,85.138l-.825-.476,4.052-2.339Z" fill="#282752"/>
          <path id="Trazado_1000299" data-name="Trazado 1000299" d="M97.092,85.2,93.04,87.54l-.824-.476,4.052-2.339Z" fill="#282752"/>
          <path id="Trazado_1000300" data-name="Trazado 1000300" d="M101.253,87.6,97.2,89.943l-.825-.476,4.052-2.339Z" fill="#282752"/>
          <path id="Trazado_1000301" data-name="Trazado 1000301" d="M105.413,90.006l-4.051,2.339-.825-.476,4.052-2.339Z" fill="#282752"/>
          <path id="Trazado_1000302" data-name="Trazado 1000302" d="M109.574,92.408l-4.052,2.339-.824-.476,4.052-2.339Z" fill="#282752"/>
          <path id="Trazado_1000303" data-name="Trazado 1000303" d="M100.806,73.448l-4.051,2.339-.825-.476,4.052-2.339Z" fill="#282752"/>
          <path id="Trazado_1000304" data-name="Trazado 1000304" d="M109.128,78.252l-4.051,2.339-.825-.476,4.052-2.339Z" fill="#282752"/>
          <path id="Trazado_1000305" data-name="Trazado 1000305" d="M113.288,80.655l-4.051,2.339-.825-.476,4.052-2.339Z" fill="#282752"/>
          <path id="Trazado_1000306" data-name="Trazado 1000306" d="M121.61,85.459,117.559,87.8l-.825-.476,4.052-2.339Z" fill="#282752"/>
          <path id="Trazado_1000307" data-name="Trazado 1000307" d="M112.842,66.5l-4.051,2.339-.824-.476,4.051-2.339Z" fill="#282752"/>
          <path id="Trazado_1000308" data-name="Trazado 1000308" d="M117,68.9l-4.051,2.339-.824-.476,4.051-2.339Z" fill="#282752"/>
          <path id="Trazado_1000309" data-name="Trazado 1000309" d="M121.163,71.3l-4.051,2.339-.824-.476,4.051-2.339Z" fill="#282752"/>
          <path id="Trazado_1000310" data-name="Trazado 1000310" d="M125.324,73.706l-4.051,2.339-.824-.476L124.5,73.23Z" fill="#282752"/>
          <path id="Trazado_1000311" data-name="Trazado 1000311" d="M129.485,76.108l-4.051,2.339-.824-.476,4.051-2.339Z" fill="#282752"/>
          <path id="Trazado_1000312" data-name="Trazado 1000312" d="M133.645,78.51l-4.051,2.339-.824-.476,4.051-2.339Z" fill="#282752"/>
          <path id="Trazado_1000313" data-name="Trazado 1000313" d="M71.807,83.048l-6.593,3.807-.824-.476,6.593-3.807Z" fill="#282752"/>
          <path id="Trazado_1000314" data-name="Trazado 1000314" d="M71.318,85.7,67.267,88.04l-.825-.476,4.052-2.339Z" fill="#282752"/>
          <path id="Trazado_1000315" data-name="Trazado 1000315" d="M85.012,76.852l-6.593,3.807-.824-.476,6.593-3.807Z" fill="#282752"/>
          <path id="Trazado_1000316" data-name="Trazado 1000316" d="M93.161,70.719l-4.01,2.316-.825-.476,4.011-2.316Z" fill="#282752"/>
          <path id="Trazado_1000317" data-name="Trazado 1000317" d="M98.236,70.159,91.2,74.219l-.824-.476,7.032-4.06Z" fill="#282752"/>
          <path id="Trazado_1000318" data-name="Trazado 1000318" d="M107.713,62.317l-6.593,3.807-.824-.476,6.593-3.807Z" fill="#282752"/>
          <path id="Trazado_1000319" data-name="Trazado 1000319" d="M109.765,63.5l-6.593,3.807-.824-.476,6.593-3.807Z" fill="#282752"/>
          <path id="Trazado_1000320" data-name="Trazado 1000320" d="M97.962,56.17,86.338,62.881l-.824-.476,11.624-6.711Z" fill="#282752"/>
          <path id="Trazado_1000321" data-name="Trazado 1000321" d="M84.1,64.176l-6.942,4.008-.824-.475L83.272,63.7Z" fill="#282752"/>
          <path id="Trazado_1000322" data-name="Trazado 1000322" d="M38.3,88.318,19.435,99.209,18.2,98.495,37.063,87.6Z" fill="#282752"/>
          <path id="Trazado_1000323" data-name="Trazado 1000323" d="M101.574,92.054l18.835-10.945-.014,4.847L101.56,96.9Z" fill="#9aa651"/>
          <path id="Trazado_1000324" data-name="Trazado 1000324" d="M57.124,66.391,75.959,55.446l44.45,25.663L101.574,92.054Z" fill="#b8ca62"/>
          <path id="Trazado_1000325" data-name="Trazado 1000325" d="M63.049,66.382l12.915-7.5,38.521,22.24-12.915,7.506Z" fill="#a2d96a"/>
          <path id="Trazado_1000326" data-name="Trazado 1000326" d="M101.574,92.054,101.56,96.9,57.11,71.238l.014-4.847Z" fill="#747d3d"/>
          <g id="Grupo_1178837" data-name="Grupo 1178837">
            <g id="Grupo_1178836" data-name="Grupo 1178836" clip-path="url(#clip-path)">
              <path id="Trazado_1000327" data-name="Trazado 1000327" d="M95.6,68.1c3.143,1.814,1.974,5.431-2.61,8.077S82.14,79.5,79,77.688s-1.974-5.431,2.611-8.078S92.455,66.289,95.6,68.1" fill="#b8ca62"/>
              <path id="Trazado_1000328" data-name="Trazado 1000328" d="M101.155,69.988,82.318,80.931l-6.188-3.57-.893-.516s-1.8-1.037-1.8-1.037L92.278,64.86l1.8,1.037.893.517Z" fill="#f3f2f2"/>
              <path id="Trazado_1000329" data-name="Trazado 1000329" d="M82.318,80.931l-.014,4.85L76.13,82.215l-.9-.521-1.805-1.041.013-4.846,1.792,1.038s.9.516.9.516Z" fill="#eedfcf"/>
              <path id="Trazado_1000330" data-name="Trazado 1000330" d="M94.416,66.1,75.579,77.042V81.9l-.9-.521v-4.85S93.522,65.579,93.522,65.579Z" fill="#ea6c78"/>
              <path id="Trazado_1000331" data-name="Trazado 1000331" d="M75.579,77.043V81.9l-.9-.521V76.527s.9.516.9.516" fill="#bf343b"/>
              <path id="Trazado_1000332" data-name="Trazado 1000332" d="M99.8,69.2,80.959,80.148V85l-.9-.52v-4.85S98.9,68.685,98.9,68.685Z" fill="#ea6c78"/>
              <path id="Trazado_1000333" data-name="Trazado 1000333" d="M80.959,80.149V85l-.9-.521V79.633c.005,0,.9.516.9.516" fill="#bf343b"/>
              <path id="Trazado_1000334" data-name="Trazado 1000334" d="M103.062,76.776a1.162,1.162,0,0,1,0,2.2,4.213,4.213,0,0,1-3.813,0,1.162,1.162,0,0,1,0-2.2,4.213,4.213,0,0,1,3.813,0" fill="#b8ca62"/>
              <path id="Trazado_1000335" data-name="Trazado 1000335" d="M79.779,65.316a1.162,1.162,0,0,1,0,2.2,4.216,4.216,0,0,1-3.814,0,1.162,1.162,0,0,1,0-2.2,4.216,4.216,0,0,1,3.814,0" fill="#b8ca62"/>
              <path id="Trazado_1000336" data-name="Trazado 1000336" d="M92.662,77.665l9.157,5.287,1.422-.821-9.157-5.287Z" fill="#b8ca62"/>
              <path id="Trazado_1000337" data-name="Trazado 1000337" d="M91.456,79.171l7.219,4.168,1.12-.648-7.218-4.167Z" fill="#b8ca62"/>
              <path id="Trazado_1000338" data-name="Trazado 1000338" d="M102.743,87.175,121.578,76.23l-.014,4.846L102.729,92.022Z" fill="#9aa651"/>
              <path id="Trazado_1000339" data-name="Trazado 1000339" d="M58.293,61.512,77.128,50.567l44.45,25.663L102.743,87.175Z" fill="#b8ca62"/>
              <path id="Trazado_1000340" data-name="Trazado 1000340" d="M64.217,61.5,77.132,54l38.521,22.24-12.915,7.5Z" fill="#a2d96a"/>
              <path id="Trazado_1000341" data-name="Trazado 1000341" d="M102.743,87.175l-.014,4.847L58.279,66.359l.014-4.847Z" fill="#747d3d"/>
              <path id="Trazado_1000342" data-name="Trazado 1000342" d="M96.767,63.224c3.143,1.814,1.974,5.431-2.61,8.077s-10.848,3.322-13.991,1.507-1.974-5.43,2.611-8.077,10.847-3.321,13.99-1.507" fill="#b8ca62"/>
              <path id="Trazado_1000343" data-name="Trazado 1000343" d="M102.324,65.109,83.487,76.052,77.3,72.482l-.893-.516s-1.8-1.038-1.8-1.038L93.447,59.981l1.8,1.037.893.517Z" fill="#f3f2f2"/>
              <path id="Trazado_1000344" data-name="Trazado 1000344" d="M83.487,76.052l-.014,4.85L77.3,77.336l-.9-.521L74.6,75.774l.013-4.846L76.4,71.966s.9.516.9.516Z" fill="#eedfcf"/>
              <path id="Trazado_1000345" data-name="Trazado 1000345" d="M95.585,61.217,76.748,72.165v4.854l-.9-.521v-4.85S94.691,60.7,94.691,60.7Z" fill="#ea6c78"/>
              <path id="Trazado_1000346" data-name="Trazado 1000346" d="M76.748,72.164v4.854l-.9-.521V71.648c.005,0,.9.516.9.516" fill="#bf343b"/>
              <path id="Trazado_1000347" data-name="Trazado 1000347" d="M100.965,64.322,82.127,75.27v4.854l-.9-.521v-4.85S100.07,63.806,100.07,63.806Z" fill="#ea6c78"/>
              <path id="Trazado_1000348" data-name="Trazado 1000348" d="M82.127,75.27v4.854l-.9-.521V74.754s.9.516.9.516" fill="#bf343b"/>
              <path id="Trazado_1000349" data-name="Trazado 1000349" d="M104.23,71.9a1.162,1.162,0,0,1,0,2.2,4.213,4.213,0,0,1-3.813,0,1.162,1.162,0,0,1,0-2.2,4.213,4.213,0,0,1,3.813,0" fill="#b8ca62"/>
              <path id="Trazado_1000350" data-name="Trazado 1000350" d="M80.948,60.437a1.162,1.162,0,0,1,0,2.2,4.216,4.216,0,0,1-3.814,0,1.162,1.162,0,0,1,0-2.2,4.216,4.216,0,0,1,3.814,0" fill="#b8ca62"/>
              <path id="Trazado_1000351" data-name="Trazado 1000351" d="M93.831,72.786l9.157,5.287,1.422-.821-9.157-5.287Z" fill="#b8ca62"/>
              <path id="Trazado_1000352" data-name="Trazado 1000352" d="M92.625,74.292l7.219,4.168,1.12-.647-7.218-4.168Z" fill="#b8ca62"/>
              <path id="Trazado_1000353" data-name="Trazado 1000353" d="M101.574,80.873l18.835-10.945-.014,4.847L101.56,85.72Z" fill="#9aa651"/>
              <path id="Trazado_1000354" data-name="Trazado 1000354" d="M57.126,55.211l44.448,25.664L120.41,69.926,91.027,52.965l-15.069-8.7-2.5,1.457-2.169,1.258-1.7.988Z" fill="#b8ca62"/>
              <path id="Trazado_1000355" data-name="Trazado 1000355" d="M63.049,55.2l12.915-7.5,38.521,22.24-12.915,7.506Z" fill="#eaf6a8"/>
              <path id="Trazado_1000356" data-name="Trazado 1000356" d="M101.574,80.873l-.014,4.847L57.11,60.057l.014-4.847Z" fill="#747d3d"/>
              <path id="Trazado_1000357" data-name="Trazado 1000357" d="M95.6,56.923c3.143,1.814,1.974,5.431-2.61,8.077S82.14,68.322,79,66.508s-1.974-5.431,2.611-8.078,10.847-3.321,13.99-1.507" fill="#b8ca62"/>
              <path id="Trazado_1000358" data-name="Trazado 1000358" d="M101.155,58.807,82.318,69.75,76.13,66.18l-.893-.516s-1.8-1.038-1.8-1.038L92.278,53.679l1.8,1.037.893.517Z" fill="#f3f2f2"/>
              <path id="Trazado_1000359" data-name="Trazado 1000359" d="M82.318,69.75,82.3,74.6,76.13,71.034l-.9-.521-1.805-1.041.013-4.846,1.792,1.038s.9.516.9.516Z" fill="#eedfcf"/>
              <path id="Trazado_1000360" data-name="Trazado 1000360" d="M94.416,54.915,75.579,65.863v4.854l-.9-.521v-4.85S93.522,54.4,93.522,54.4Z" fill="#ea6c78"/>
              <path id="Trazado_1000361" data-name="Trazado 1000361" d="M75.579,65.863v4.854l-.9-.521V65.347s.9.516.9.516" fill="#bf343b"/>
              <path id="Trazado_1000362" data-name="Trazado 1000362" d="M99.8,58.021,80.959,68.968v4.854l-.9-.52v-4.85S98.9,57.5,98.9,57.5Z" fill="#ea6c78"/>
              <path id="Trazado_1000363" data-name="Trazado 1000363" d="M80.959,68.968v4.854l-.9-.521V68.452c.005,0,.9.516.9.516" fill="#bf343b"/>
              <path id="Trazado_1000364" data-name="Trazado 1000364" d="M103.062,65.6a1.162,1.162,0,0,1,0,2.2,4.213,4.213,0,0,1-3.813,0,1.162,1.162,0,0,1,0-2.2,4.213,4.213,0,0,1,3.813,0" fill="#b8ca62"/>
              <path id="Trazado_1000365" data-name="Trazado 1000365" d="M79.779,54.136a1.162,1.162,0,0,1,0,2.2,4.216,4.216,0,0,1-3.814,0,1.162,1.162,0,0,1,0-2.2,4.216,4.216,0,0,1,3.814,0" fill="#b8ca62"/>
              <path id="Trazado_1000366" data-name="Trazado 1000366" d="M92.662,66.484l9.157,5.287,1.422-.821-9.157-5.287Z" fill="#b8ca62"/>
              <path id="Trazado_1000367" data-name="Trazado 1000367" d="M91.456,67.99l7.219,4.168,1.12-.648-7.218-4.167Z" fill="#b8ca62"/>
              <path id="Trazado_1000368" data-name="Trazado 1000368" d="M101.574,73.928l18.835-10.945L120.4,67.83,101.56,78.775Z" fill="#9aa651"/>
              <path id="Trazado_1000369" data-name="Trazado 1000369" d="M57.124,48.265,75.959,37.32l44.45,25.663L101.574,73.928Z" fill="#b8ca62"/>
              <path id="Trazado_1000370" data-name="Trazado 1000370" d="M63.049,48.256l12.915-7.5,38.521,22.24L101.569,70.5Z" fill="#a2d96a"/>
              <path id="Trazado_1000371" data-name="Trazado 1000371" d="M101.574,73.928l-.014,4.847L57.11,53.112l.014-4.847Z" fill="#747d3d"/>
              <path id="Trazado_1000372" data-name="Trazado 1000372" d="M95.6,49.977c3.143,1.814,1.974,5.432-2.61,8.077S82.14,61.376,79,59.563s-1.974-5.431,2.611-8.079,10.847-3.321,13.99-1.507" fill="#b8ca62"/>
              <path id="Trazado_1000373" data-name="Trazado 1000373" d="M101.155,51.862,82.318,62.805l-6.188-3.57-.893-.516s-1.8-1.037-1.8-1.037L92.278,46.734l1.8,1.037.893.517Z" fill="#f3f2f2"/>
              <path id="Trazado_1000374" data-name="Trazado 1000374" d="M82.318,62.805l-.014,4.85L76.13,64.089l-.9-.521-1.805-1.041.013-4.846,1.792,1.038s.9.516.9.516Z" fill="#eedfcf"/>
              <path id="Trazado_1000375" data-name="Trazado 1000375" d="M94.416,47.97,75.579,58.917v4.854l-.9-.52V58.4S93.522,47.454,93.522,47.454Z" fill="#ea6c78"/>
              <path id="Trazado_1000376" data-name="Trazado 1000376" d="M75.579,58.917v4.854l-.9-.521V58.4s.9.516.9.516" fill="#bf343b"/>
              <path id="Trazado_1000377" data-name="Trazado 1000377" d="M99.8,51.076,80.959,62.023v4.855l-.9-.521v-4.85S98.9,50.56,98.9,50.56Z" fill="#ea6c78"/>
              <path id="Trazado_1000378" data-name="Trazado 1000378" d="M80.959,62.023v4.854l-.9-.521V61.507c.005,0,.9.516.9.516" fill="#bf343b"/>
              <path id="Trazado_1000379" data-name="Trazado 1000379" d="M103.062,58.65a1.162,1.162,0,0,1,0,2.2,4.213,4.213,0,0,1-3.813,0,1.162,1.162,0,0,1,0-2.2,4.213,4.213,0,0,1,3.813,0" fill="#b8ca62"/>
              <path id="Trazado_1000380" data-name="Trazado 1000380" d="M79.779,47.19a1.162,1.162,0,0,1,0,2.2,4.216,4.216,0,0,1-3.814,0,1.162,1.162,0,0,1,0-2.2,4.216,4.216,0,0,1,3.814,0" fill="#b8ca62"/>
              <path id="Trazado_1000381" data-name="Trazado 1000381" d="M92.662,59.539l9.157,5.287,1.422-.821-9.157-5.287Z" fill="#b8ca62"/>
              <path id="Trazado_1000382" data-name="Trazado 1000382" d="M91.456,61.045l7.219,4.168,1.12-.648L92.577,60.4Z" fill="#b8ca62"/>
              <path id="Trazado_1000383" data-name="Trazado 1000383" d="M102.743,69.049,121.578,58.1l-.014,4.847L102.729,73.9Z" fill="#9aa651"/>
              <path id="Trazado_1000384" data-name="Trazado 1000384" d="M58.293,43.386,77.128,32.441,121.578,58.1,102.743,69.049Z" fill="#b8ca62"/>
              <path id="Trazado_1000385" data-name="Trazado 1000385" d="M64.217,43.378l12.915-7.5,38.521,22.24-12.915,7.506Z" fill="#a2d96a"/>
              <path id="Trazado_1000386" data-name="Trazado 1000386" d="M102.743,69.049l-.014,4.847L58.279,48.233l.014-4.847Z" fill="#747d3d"/>
              <path id="Trazado_1000387" data-name="Trazado 1000387" d="M96.767,45.1c3.143,1.814,1.974,5.431-2.61,8.077S83.309,56.5,80.166,54.684s-1.974-5.431,2.611-8.078,10.847-3.321,13.99-1.507" fill="#b8ca62"/>
              <path id="Trazado_1000388" data-name="Trazado 1000388" d="M102.324,46.984,83.487,57.927,77.3,54.357l-.893-.516s-1.8-1.038-1.8-1.038L93.447,41.856l1.8,1.037.893.517Z" fill="#f3f2f2"/>
              <path id="Trazado_1000389" data-name="Trazado 1000389" d="M83.487,57.927l-.014,4.85L77.3,59.211l-.9-.521L74.6,57.648l.013-4.845L76.4,53.841s.9.516.9.516Z" fill="#eedfcf"/>
              <path id="Trazado_1000390" data-name="Trazado 1000390" d="M95.585,43.091,76.748,54.039v4.854l-.9-.521v-4.85S94.691,42.575,94.691,42.575Z" fill="#ea6c78"/>
              <path id="Trazado_1000391" data-name="Trazado 1000391" d="M76.748,54.039v4.854l-.9-.521V53.523c.005,0,.9.516.9.516" fill="#bf343b"/>
              <path id="Trazado_1000392" data-name="Trazado 1000392" d="M100.965,46.2,82.127,57.145V62l-.9-.521v-4.85S100.07,45.681,100.07,45.681Z" fill="#ea6c78"/>
              <path id="Trazado_1000393" data-name="Trazado 1000393" d="M82.127,57.144V62l-.9-.521V56.628s.9.516.9.516" fill="#bf343b"/>
              <path id="Trazado_1000394" data-name="Trazado 1000394" d="M104.23,53.772a1.162,1.162,0,0,1,0,2.2,4.213,4.213,0,0,1-3.813,0,1.162,1.162,0,0,1,0-2.2,4.213,4.213,0,0,1,3.813,0" fill="#b8ca62"/>
              <path id="Trazado_1000395" data-name="Trazado 1000395" d="M80.948,42.312a1.162,1.162,0,0,1,0,2.2,4.216,4.216,0,0,1-3.814,0,1.162,1.162,0,0,1,0-2.2,4.216,4.216,0,0,1,3.814,0" fill="#b8ca62"/>
              <path id="Trazado_1000396" data-name="Trazado 1000396" d="M93.831,54.661l9.157,5.287,1.422-.821L95.253,53.84Z" fill="#b8ca62"/>
              <path id="Trazado_1000397" data-name="Trazado 1000397" d="M92.625,56.166l7.219,4.168,1.12-.647-7.218-4.168Z" fill="#b8ca62"/>
              <path id="Trazado_1000398" data-name="Trazado 1000398" d="M101.574,62.748,120.409,51.8,120.4,56.65,101.56,67.595Z" fill="#9aa651"/>
              <path id="Trazado_1000399" data-name="Trazado 1000399" d="M57.126,37.085l44.448,25.664L120.41,51.8,91.027,34.839l-15.069-8.7-2.5,1.457-2.169,1.259-1.7.987Z" fill="#b8ca62"/>
              <path id="Trazado_1000400" data-name="Trazado 1000400" d="M63.049,37.076l12.915-7.5,38.521,22.24-12.915,7.506Z" fill="#eaf6a8"/>
              <path id="Trazado_1000401" data-name="Trazado 1000401" d="M101.574,62.748l-.014,4.847L57.11,41.932l.014-4.847Z" fill="#747d3d"/>
              <path id="Trazado_1000402" data-name="Trazado 1000402" d="M95.6,38.8c3.143,1.814,1.974,5.431-2.61,8.077S82.14,50.2,79,48.382s-1.974-5.431,2.611-8.078S92.455,36.983,95.6,38.8" fill="#b8ca62"/>
              <path id="Trazado_1000403" data-name="Trazado 1000403" d="M101.155,40.682,82.318,51.625l-6.188-3.57-.893-.516s-1.8-1.037-1.8-1.037L92.278,35.554l1.8,1.037.893.517Z" fill="#f3f2f2"/>
              <path id="Trazado_1000404" data-name="Trazado 1000404" d="M82.318,51.625l-.014,4.85L76.13,52.909l-.9-.521-1.805-1.041L73.44,46.5l1.792,1.038s.9.516.9.516Z" fill="#eedfcf"/>
              <path id="Trazado_1000405" data-name="Trazado 1000405" d="M94.416,36.789,75.579,47.736V52.59l-.9-.52V47.22S93.522,36.273,93.522,36.273Z" fill="#ea6c78"/>
              <path id="Trazado_1000406" data-name="Trazado 1000406" d="M75.579,47.737v4.854l-.9-.521V47.221s.9.516.9.516" fill="#bf343b"/>
              <path id="Trazado_1000407" data-name="Trazado 1000407" d="M99.8,39.9,80.959,50.842V55.7l-.9-.521v-4.85S98.9,39.379,98.9,39.379Z" fill="#ea6c78"/>
              <path id="Trazado_1000408" data-name="Trazado 1000408" d="M80.959,50.843V55.7l-.9-.521V50.327c.005,0,.9.516.9.516" fill="#bf343b"/>
              <path id="Trazado_1000409" data-name="Trazado 1000409" d="M103.062,47.47a1.162,1.162,0,0,1,0,2.2,4.213,4.213,0,0,1-3.813,0,1.162,1.162,0,0,1,0-2.2,4.213,4.213,0,0,1,3.813,0" fill="#b8ca62"/>
              <path id="Trazado_1000410" data-name="Trazado 1000410" d="M79.779,36.01a1.162,1.162,0,0,1,0,2.2,4.216,4.216,0,0,1-3.814,0,1.162,1.162,0,0,1,0-2.2,4.216,4.216,0,0,1,3.814,0" fill="#b8ca62"/>
              <path id="Trazado_1000411" data-name="Trazado 1000411" d="M92.662,48.359l9.157,5.287,1.422-.821-9.157-5.287Z" fill="#b8ca62"/>
              <path id="Trazado_1000412" data-name="Trazado 1000412" d="M91.456,49.865l7.219,4.168,1.12-.648-7.218-4.167Z" fill="#b8ca62"/>
              <path id="Trazado_1000413" data-name="Trazado 1000413" d="M72.983,67.809c.436-1.452-2.036-12.2-2.805-16.192a7.094,7.094,0,0,1,1.968-6.669L86.271,33.169,94.2,31.516a14.845,14.845,0,0,1,.327,10.835c-4.722,3.828-10.8,6.565-18.393,8.214,3.284,5.315,2.464,8.24,2.584,14.588.524,1.394-.707,2.355-1.116,3.093a3.881,3.881,0,0,1-4.622-.437" fill="#1f387d"/>
              <path id="Trazado_1000414" data-name="Trazado 1000414" d="M71.334,69.768c.579-.74,1.206-1.344,1.649-1.959a3.881,3.881,0,0,0,4.622.437c.007.332-.007.667-.031,1.033a7.935,7.935,0,0,1-2.566,3.843c-1.61,1.174-3.189,2.11-4.575,1.576L67.5,73.032Z" fill="#ffb2a3"/>
              <path id="Trazado_1000415" data-name="Trazado 1000415" d="M76.885,66.09a6.724,6.724,0,0,1,.713,5.4c-.838,1.223-2.039,1.662-3.407,3.454l-1.248,1.167c-2.425,1.458-5.117,1.546-6.5.693-.844-1.343-.35-3.757,2.892-5.348-2.091,1.692-.162,2.911,1.824,2.988C72.5,74.289,73.5,72.9,75.1,71.026c1.485-1.976,2.223-3.357,1.783-4.936" fill="#282752"/>
              <path id="Trazado_1000416" data-name="Trazado 1000416" d="M74.628,72.611a9.931,9.931,0,0,0,1.921-3.132,4.855,4.855,0,0,0,4.015-.707c.39,1.267.823,2.1.644,3.207a9.5,9.5,0,0,1-2.97,3.971c-1.743,1.233-3.432,2.224-4.783,1.715l-3.062-1.772Z" fill="#ffb2a3"/>
              <path id="Trazado_1000417" data-name="Trazado 1000417" d="M80.5,68.55a6.72,6.72,0,0,1,.713,5.4c-.838,1.223-2.039,1.662-3.407,3.454l-1.248,1.166c-2.425,1.459-6.346.8-7.735-.051-.843-1.343.88-3.012,4.122-4.6-2.091,1.692-.162,2.911,1.824,2.988,1.347-.159,2.349-1.547,3.948-3.422C80.2,71.51,80.935,70.129,80.5,68.55" fill="#282752"/>
              <path id="Trazado_1000418" data-name="Trazado 1000418" d="M75.964,70.752c.828-2.455.022-10.9-.523-16.553a6.647,6.647,0,0,1,2.753-6.5L94.846,34.885l6.859-1.715c1.327,3.721,2.875,8.4-.722,11.011a46.7,46.7,0,0,1-18.76,8.641c3.21,6.091-.343,13.929.557,16.847-.682,1.687-4.187,2.54-6.816,1.083" fill="#34559c"/>
              <path id="Trazado_1000419" data-name="Trazado 1000419" d="M80.062,24.64c.278-3.2.681-6.586,1.607-12.771.677-4.423,6.318-5.416,5.686.5-.982,6.259-1.493,9.683-2.326,13.3a4.491,4.491,0,0,1-1.137,2.4c-1.854,1.631-3.19,2.779-4.956,4.323l-2.091-3.126Z" fill="#eedfcf"/>
              <path id="Trazado_1000420" data-name="Trazado 1000420" d="M80.63,24.166a4.662,4.662,0,0,0,3.509,3.65,4.6,4.6,0,0,0,.655.141,7.689,7.689,0,0,1,.3,5.556c2.369,4.53,8.131,8.973,17.521,2.477,0,0-1.172-4.242-2.291-7.256-.49-1.321-.159-2.843.19-4.563a13.392,13.392,0,0,0,.168-6.344C99.134,11.93,85.91,8.361,85.91,8.361c-3.5,1.113-3.867,3.981-3.387,7.132a7.842,7.842,0,0,1-.821,4.855,6.856,6.856,0,0,0-1.072,3.818" fill="#eedfcf"/>
              <path id="Trazado_1000421" data-name="Trazado 1000421" d="M64.736,42.5l14.486,8.363,9.072-5.237v-.446L73.808,37.265Z" fill="#282752"/>
              <path id="Trazado_1000422" data-name="Trazado 1000422" d="M64.736,42.057,79.222,50.42l9.072-5.237L73.808,36.819Z" fill="#4977db"/>
              <path id="Trazado_1000423" data-name="Trazado 1000423" d="M66.876,42.4l.93.537.71-.41-.93-.537Z" fill="#f3f2f2"/>
              <path id="Trazado_1000424" data-name="Trazado 1000424" d="M67.958,43.026l.93.537.71-.41-.931-.537Z" fill="#f3f2f2"/>
              <path id="Trazado_1000425" data-name="Trazado 1000425" d="M69.04,43.65l.93.537.71-.41-.93-.537Z" fill="#f3f2f2"/>
              <path id="Trazado_1000426" data-name="Trazado 1000426" d="M70.122,44.275l.93.537.71-.41-.93-.537Z" fill="#f3f2f2"/>
              <path id="Trazado_1000427" data-name="Trazado 1000427" d="M71.2,44.9l.93.537.71-.41-.93-.537Z" fill="#f3f2f2"/>
              <path id="Trazado_1000428" data-name="Trazado 1000428" d="M72.286,45.524l.93.537.71-.41L73,45.114Z" fill="#f3f2f2"/>
              <path id="Trazado_1000429" data-name="Trazado 1000429" d="M73.368,46.149l.93.537.71-.41-.93-.537Z" fill="#f3f2f2"/>
              <path id="Trazado_1000430" data-name="Trazado 1000430" d="M74.45,46.774l.93.537.71-.41-.93-.537Z" fill="#f3f2f2"/>
              <path id="Trazado_1000431" data-name="Trazado 1000431" d="M75.532,47.4l.93.537.71-.41-.93-.537Z" fill="#f3f2f2"/>
              <path id="Trazado_1000432" data-name="Trazado 1000432" d="M76.614,48.023l.93.537.71-.41-.93-.537Z" fill="#f3f2f2"/>
              <path id="Trazado_1000433" data-name="Trazado 1000433" d="M77.7,48.648l.93.537.71-.41-.93-.537Z" fill="#f3f2f2"/>
              <path id="Trazado_1000434" data-name="Trazado 1000434" d="M68.148,41.666l.93.537.71-.41-.931-.537Z" fill="#f3f2f2"/>
              <path id="Trazado_1000435" data-name="Trazado 1000435" d="M69.23,42.291l.93.537.71-.41-.93-.537Z" fill="#f3f2f2"/>
              <path id="Trazado_1000436" data-name="Trazado 1000436" d="M70.312,42.916l.93.537.71-.41-.93-.537Z" fill="#f3f2f2"/>
              <path id="Trazado_1000437" data-name="Trazado 1000437" d="M71.394,43.541l.93.537.71-.41-.93-.537Z" fill="#f3f2f2"/>
              <path id="Trazado_1000438" data-name="Trazado 1000438" d="M72.476,44.165l.93.537.71-.41-.93-.537Z" fill="#f3f2f2"/>
              <path id="Trazado_1000439" data-name="Trazado 1000439" d="M73.559,44.79l.93.537.71-.41-.93-.537Z" fill="#f3f2f2"/>
              <path id="Trazado_1000440" data-name="Trazado 1000440" d="M74.641,45.415l.93.537.71-.41L75.351,45Z" fill="#f3f2f2"/>
              <path id="Trazado_1000441" data-name="Trazado 1000441" d="M75.723,46.039l.93.537.71-.41-.93-.537Z" fill="#f3f2f2"/>
              <path id="Trazado_1000442" data-name="Trazado 1000442" d="M76.8,46.664l.93.537.71-.41-.93-.537Z" fill="#f3f2f2"/>
              <path id="Trazado_1000443" data-name="Trazado 1000443" d="M77.887,47.289l.93.537.71-.41-.93-.537Z" fill="#f3f2f2"/>
              <path id="Trazado_1000444" data-name="Trazado 1000444" d="M78.969,47.913l.93.537.71-.41-.93-.537Z" fill="#f3f2f2"/>
              <path id="Trazado_1000445" data-name="Trazado 1000445" d="M68.962,41.2l.93.537.71-.41-.93-.537Z" fill="#f3f2f2"/>
              <path id="Trazado_1000446" data-name="Trazado 1000446" d="M70.044,41.821l.93.537.71-.41-.93-.537Z" fill="#f3f2f2"/>
              <path id="Trazado_1000447" data-name="Trazado 1000447" d="M71.126,42.446l.93.537.71-.41-.93-.537Z" fill="#f3f2f2"/>
              <path id="Trazado_1000448" data-name="Trazado 1000448" d="M72.208,43.071l.93.537.71-.41-.93-.537Z" fill="#f3f2f2"/>
              <path id="Trazado_1000449" data-name="Trazado 1000449" d="M73.29,43.7l.93.537.71-.41L74,43.286Z" fill="#f3f2f2"/>
              <path id="Trazado_1000450" data-name="Trazado 1000450" d="M74.372,44.32l.93.537.71-.41-.93-.537Z" fill="#f3f2f2"/>
              <path id="Trazado_1000451" data-name="Trazado 1000451" d="M75.454,44.945l.93.537.71-.41-.93-.537Z" fill="#f3f2f2"/>
              <path id="Trazado_1000452" data-name="Trazado 1000452" d="M76.536,45.57l.93.537.71-.41-.93-.537Z" fill="#f3f2f2"/>
              <path id="Trazado_1000453" data-name="Trazado 1000453" d="M77.618,46.194l.93.537.71-.41-.93-.537Z" fill="#f3f2f2"/>
              <path id="Trazado_1000454" data-name="Trazado 1000454" d="M78.7,46.819l.93.537.71-.41-.93-.537Z" fill="#f3f2f2"/>
              <path id="Trazado_1000455" data-name="Trazado 1000455" d="M69.775,40.727l.93.537.71-.41-.93-.537Z" fill="#f3f2f2"/>
              <path id="Trazado_1000456" data-name="Trazado 1000456" d="M70.857,41.352l.93.537.71-.41-.93-.537Z" fill="#f3f2f2"/>
              <path id="Trazado_1000457" data-name="Trazado 1000457" d="M71.939,41.976l.93.537.71-.41-.93-.537Z" fill="#f3f2f2"/>
              <path id="Trazado_1000458" data-name="Trazado 1000458" d="M73.021,42.6l.93.537.71-.41-.93-.537Z" fill="#f3f2f2"/>
              <path id="Trazado_1000459" data-name="Trazado 1000459" d="M74.1,43.226l.93.537.71-.41-.93-.537Z" fill="#f3f2f2"/>
              <path id="Trazado_1000460" data-name="Trazado 1000460" d="M75.186,43.851l.93.537.71-.41-.93-.537Z" fill="#f3f2f2"/>
              <path id="Trazado_1000461" data-name="Trazado 1000461" d="M76.268,44.475l.93.537.71-.41-.93-.537Z" fill="#f3f2f2"/>
              <path id="Trazado_1000462" data-name="Trazado 1000462" d="M77.35,45.1l.93.537.71-.41-.93-.537Z" fill="#f3f2f2"/>
              <path id="Trazado_1000463" data-name="Trazado 1000463" d="M78.432,45.725l.93.537.71-.41-.93-.537Z" fill="#f3f2f2"/>
              <path id="Trazado_1000464" data-name="Trazado 1000464" d="M79.782,47.444l.813-.47-1.082-.624.71-.41,1.082.625.272.156.658.381-.6.348-.105.061-.814.47Z" fill="#f3f2f2"/>
              <path id="Trazado_1000465" data-name="Trazado 1000465" d="M71.954,41.046l-.283-.163-1.082-.625.709-.41,1.082.625.284.163.646.374-.709.409Z" fill="#f3f2f2"/>
              <path id="Trazado_1000466" data-name="Trazado 1000466" d="M72.753,41.507l.93.537.71-.41-.93-.537Z" fill="#f3f2f2"/>
              <path id="Trazado_1000467" data-name="Trazado 1000467" d="M73.835,42.131l.93.537.71-.41-.93-.537Z" fill="#f3f2f2"/>
              <path id="Trazado_1000468" data-name="Trazado 1000468" d="M74.917,42.756l.93.537.71-.41-.931-.537Z" fill="#f3f2f2"/>
              <path id="Trazado_1000469" data-name="Trazado 1000469" d="M76,43.381l.93.537.71-.41-.93-.537Z" fill="#f3f2f2"/>
              <path id="Trazado_1000470" data-name="Trazado 1000470" d="M77.081,44.006l.93.537.71-.41-.93-.537Z" fill="#f3f2f2"/>
              <path id="Trazado_1000471" data-name="Trazado 1000471" d="M78.163,44.63l.93.537.71-.41-.93-.537Z" fill="#f3f2f2"/>
              <path id="Trazado_1000472" data-name="Trazado 1000472" d="M79.245,45.255l.93.537.71-.41-.93-.537Z" fill="#f3f2f2"/>
              <path id="Trazado_1000473" data-name="Trazado 1000473" d="M81.257,46.417l-.159-.092-.771-.445.71-.41.771.445.159.092,1.082.625-.71.41Z" fill="#f3f2f2"/>
              <path id="Trazado_1000474" data-name="Trazado 1000474" d="M71.4,39.788l.93.537.71-.41-.93-.537Z" fill="#f3f2f2"/>
              <path id="Trazado_1000475" data-name="Trazado 1000475" d="M72.484,40.412l.93.537.71-.41L73.194,40Z" fill="#f3f2f2"/>
              <path id="Trazado_1000476" data-name="Trazado 1000476" d="M73.566,41.037l.93.537.71-.41-.93-.537Z" fill="#f3f2f2"/>
              <path id="Trazado_1000477" data-name="Trazado 1000477" d="M79.442,44.429l-.465-.269-.152-.087-.93-.537-.152-.088-.93-.537-.152-.088-.93-.537-1.082-.624.709-.41,1.082.625.93.537.152.087.93.537.152.088.931.537.151.088.466.268.465.269-.71.409Z" fill="#f3f2f2"/>
              <path id="Trazado_1000478" data-name="Trazado 1000478" d="M80.059,44.785l.93.537.71-.41-.93-.537Z" fill="#f3f2f2"/>
              <path id="Trazado_1000479" data-name="Trazado 1000479" d="M81.141,45.41l.93.537.71-.41L81.851,45Z" fill="#f3f2f2"/>
              <path id="Trazado_1000480" data-name="Trazado 1000480" d="M82.223,46.035l.93.537.71-.41-.93-.537Z" fill="#f3f2f2"/>
              <path id="Trazado_1000481" data-name="Trazado 1000481" d="M76.58,41.3l3.951,2.281,2.014-1.162-3.951-2.282Z" fill="#282752"/>
              <path id="Trazado_1000482" data-name="Trazado 1000482" d="M60.241,33.036,74.727,41.4l4.518,9.033L64.759,42.068l-4.794-8.71Z" fill="#282752"/>
              <path id="Trazado_1000483" data-name="Trazado 1000483" d="M59.964,33.358,74.45,41.721l4.518,9.033L64.482,42.39Z" fill="#4977db"/>
              <path id="Trazado_1000484" data-name="Trazado 1000484" d="M86.806,42.67l-1.1.564a5.173,5.173,0,0,1-3.364,1.1l-1.125.751-.849,1.2c-.608.74-.875.266-.586-.342l.459-.775.959-1.145-.362-.226-.813.235-1.165.641-.306.336a.564.564,0,0,1-.66.13l-.055-.026-.116.058a.379.379,0,0,1-.5-.149.6.6,0,0,1,.008-.606l.52-.848.939-.777-.76.12-.613.438-.4.489c-.437.474-.709.046-.525-.427l.477-.721,1.268-.945,1.995-.6,3.834-.04,1.585-.625,1.515-.245c1.158-.742.622,1.757-.258,2.439" fill="#ffb2a3"/>
            </g>
          </g>
          <g id="Grupo_1178839" data-name="Grupo 1178839">
            <g id="Grupo_1178838" data-name="Grupo 1178838" clip-path="url(#clip-path-3)">
              <path id="Trazado_1000485" data-name="Trazado 1000485" d="M75.859,35l-.266.357-.181,1.868-.746,1.233-.4.771-.825.7c-.414.279-.7-.209-.406-.719l.579-.775.092-.877A1.443,1.443,0,0,0,72.2,37.5s-.476,1.032-.491,1.081-.363,1.01-.363,1.01c-.239.835-.891.683-.778-.01l.341-1.239.236-.961-.928,1.108-.527.985c-.326.559-.88.427-.715-.112l.4-.917.46-.886-.883.783-.34.77a.619.619,0,0,1-.546.423.292.292,0,0,1-.169-.477c-.133-.109-.065-.392.022-.54l.8-1.142,2.333-1.9,2.186-1.33,1.82-.943c.873-.7,1.292,1.023.809,1.8" fill="#ffb2a3"/>
            </g>
          </g>
          <g id="Grupo_1178847" data-name="Grupo 1178847">
            <g id="Grupo_1178846" data-name="Grupo 1178846" clip-path="url(#clip-path)">
              <g id="Grupo_1178842" data-name="Grupo 1178842" style="mix-blend-mode: multiply;isolation: isolate">
                <g id="Grupo_1178841" data-name="Grupo 1178841">
                  <g id="Grupo_1178840" data-name="Grupo 1178840" clip-path="url(#clip-path-5)">
                    <path id="Trazado_1000487" data-name="Trazado 1000487" d="M84.795,27.957a7.684,7.684,0,0,1,.3,5.556c2.37,4.53,8.131,8.973,17.522,2.478,0,0-1.173-4.243-2.291-7.257-.49-1.321-.16-2.843.19-4.562L96.922,19c-3.881.948-2.853,10.894-7.356,11.687-4.2.791-3.149-4.118-5.426-2.87a4.567,4.567,0,0,0,.655.141" fill="#e3ccb3"/>
                  </g>
                </g>
              </g>
              <path id="Trazado_1000488" data-name="Trazado 1000488" d="M100.848,21.662c-.982,6.259-1.146,8.256-1.979,11.875a3.946,3.946,0,0,1-1.353,2.177,42.236,42.236,0,0,1-11.707,7.424A2.256,2.256,0,0,0,83.965,41.1l10.069-9.06A78.174,78.174,0,0,1,95.162,19.5c1.354-4.378,6.318-3.746,5.686,2.166" fill="#eedfcf"/>
              <path id="Trazado_1000489" data-name="Trazado 1000489" d="M89.791,6.5l1.96,6.383S87,22.092,85.294,24.716A24.027,24.027,0,0,1,85.1,13.9V7.244Z" fill="#ffb2a3"/>
              <path id="Trazado_1000490" data-name="Trazado 1000490" d="M91.47,9.758,92.7,11.026A5.872,5.872,0,0,1,94.4,15.1l-2.068-.21,1.933,2.65c-3.577.942-6.969,3.882-9.107,7.783,1.519-7.211,6.042-8.756,6.315-15.567" fill="#fff"/>
              <path id="Trazado_1000491" data-name="Trazado 1000491" d="M86.51,9.52C85,11.853,84.444,18.7,85.294,24.716c-1.528-4.547-2.928-9.057-3.107-11.821l1.717-.508-1.464-.6A5.982,5.982,0,0,1,84.8,8.817Z" fill="#fff"/>
              <g id="Grupo_1178845" data-name="Grupo 1178845" style="mix-blend-mode: multiply;isolation: isolate">
                <g id="Grupo_1178844" data-name="Grupo 1178844">
                  <g id="Grupo_1178843" data-name="Grupo 1178843" clip-path="url(#clip-path-6)">
                    <path id="Trazado_1000492" data-name="Trazado 1000492" d="M89.7,10.526s-1.232,6.213-3.512,5.788C84.556,16.009,84.455,11,84.455,11Z" fill="#ffc8b3"/>
                  </g>
                </g>
              </g>
              <path id="Trazado_1000493" data-name="Trazado 1000493" d="M80.616,5.145s-.166,6.724,3.805,8.935c1.763.982,3.372-.812,3.372-.812,1.735-1.835,2.915-3.633,2.788-5.348l-2.287-4.2Z" fill="#ffb2a3"/>
              <path id="Trazado_1000494" data-name="Trazado 1000494" d="M92.434,13.431c-1.9.67-5.362-1.7-5.44-1.268-.068.372.519,1.274.933,2.03-2.073-.271-6.221-3.924-6.478-7.694a4,4,0,0,0-.168,3.213C79.311,9.049,76.354-.079,87.4,0c8.39.06,5.03,13.43,5.03,13.43" fill="#282752"/>
              <path id="Trazado_1000495" data-name="Trazado 1000495" d="M73.579,33.963l3.265-4.7a4.5,4.5,0,0,1,2.091,3.126c-1.1.96-1.683,1.488-3.342,2.967-.2-.867-1.221-1.808-2.014-1.4" fill="#eedfcf"/>
              <path id="Trazado_1000496" data-name="Trazado 1000496" d="M48.461,58.59,31.052,61.7l-.01,3.579-13.39,7.782-.011,3.681,5.924,3.42L40.05,70.583l3.084,1.781L48.451,62.27Z" fill="#282752"/>
              <path id="Trazado_1000497" data-name="Trazado 1000497" d="M48.461,58.59,43.145,68.684,40.061,66.9l-16.486,9.58-5.923-3.42,16.485-9.58L31.052,61.7Z" fill="#34559c"/>
              <path id="Trazado_1000498" data-name="Trazado 1000498" d="M138.973,85.834l-16.485,9.58L119.4,93.633l-5.319,10.092-.011,3.68,17.412-3.11.011-3.579,13.39-7.782.011-3.68Z" fill="#bf343b"/>
              <path id="Trazado_1000499" data-name="Trazado 1000499" d="M144.9,89.254l-16.485,9.58,3.084,1.781-17.412,3.11,5.32-10.092,3.084,1.781,16.485-9.58Z" fill="#ea6c78"/>
            </g>
          </g>
        </g>
      </g>
    </g>
  </g>
</svg>
