<svg xmlns="http://www.w3.org/2000/svg" xmlns:xlink="http://www.w3.org/1999/xlink" width="176.91" height="183" viewBox="0 0 176.91 183">
  <defs>
    <clipPath id="clip-path">
      <rect id="Rectángulo_455148" data-name="Rectángulo 455148" width="149.314" height="183" fill="none"/>
    </clipPath>
  </defs>
  <g id="Grupo_1179119" data-name="Grupo 1179119" transform="translate(-9218.5 6512)">
    <g id="Grupo_1178574" data-name="Grupo 1178574" transform="translate(8515 -11700)">
      <rect id="Rectángulo_401036" data-name="Rectángulo 401036" width="149" height="147" rx="40" transform="translate(705 5206)" fill="none" stroke="#1e3a8a" stroke-miterlimit="10" stroke-width="3"/>
      <g id="Grupo_1178717" data-name="Grupo 1178717" transform="translate(731.095 5188)">
        <g id="Grupo_1178716" data-name="Grupo 1178716" clip-path="url(#clip-path)">
          <path id="Trazado_998677" data-name="Trazado 998677" d="M185,572.216a11.244,11.244,0,1,0,22.112,0Z" transform="translate(-137.353 -425.276)" fill="#dde9fe"/>
          <path id="Trazado_998678" data-name="Trazado 998678" d="M213.214,574.211a11.245,11.245,0,0,1-20.444,6.466,11.247,11.247,0,0,0,18.212-8.475h2.043a11.18,11.18,0,0,1,.189,2.009" transform="translate(-143.268 -425.265)" fill="#c7d8ef"/>
          <path id="Trazado_998679" data-name="Trazado 998679" d="M189.977,490.954l-.022,5.383c-.007,3-1.98,6-5.919,8.292-7.928,4.6-20.83,4.6-28.815,0-4.018-2.323-6.026-5.368-6.019-8.414l.021-5.362c0-3.009,1.973-6.012,5.919-8.306,7.928-4.6,20.83-4.6,28.823.007,4.01,2.316,6.019,5.354,6.012,8.4" transform="translate(-110.888 -356.068)" fill="#b0c4ff"/>
          <path id="Trazado_998680" data-name="Trazado 998680" d="M189.983,524.939l-.018,5.382c-.008,3-1.98,6-5.919,8.287-7.928,4.607-20.835,4.607-28.815,0-4.019-2.321-6.026-5.367-6.017-8.408l.018-5.382c-.009,3.041,2,6.088,6.017,8.408,7.98,4.607,20.887,4.607,28.815,0,3.938-2.289,5.91-5.286,5.919-8.287" transform="translate(-110.897 -390.049)" fill="#7ca2e5"/>
          <path id="Trazado_998681" data-name="Trazado 998681" d="M184.024,482.553c7.98,4.607,8.022,12.084.094,16.691s-20.835,4.607-28.815,0-8.028-12.087-.1-16.694,20.835-4.607,28.821,0" transform="translate(-110.95 -356.067)" fill="#b0c4ff"/>
          <path id="Trazado_998682" data-name="Trazado 998682" d="M189.977,459.953l-.022,5.383c-.007,3-1.98,6-5.919,8.285-7.928,4.6-20.83,4.6-28.815,0-4.018-2.323-6.026-5.368-6.019-8.407l.021-5.368c0-3,1.973-6,5.919-8.3,7.928-4.611,20.83-4.611,28.823,0,4.017,2.323,6.019,5.368,6.012,8.407" transform="translate(-110.888 -333.023)" fill="#b0c4ff"/>
          <path id="Trazado_998683" data-name="Trazado 998683" d="M189.983,493.936l-.018,5.382c-.008,3-1.98,6-5.919,8.287-7.928,4.607-20.835,4.607-28.815,0-4.019-2.321-6.026-5.367-6.017-8.408l.018-5.382c-.009,3.041,2,6.088,6.017,8.408,7.98,4.607,20.887,4.607,28.815,0,3.938-2.289,5.91-5.286,5.919-8.287" transform="translate(-110.897 -367.007)" fill="#7ca2e5"/>
          <path id="Trazado_998684" data-name="Trazado 998684" d="M184.024,451.551c7.98,4.607,8.022,12.084.094,16.691s-20.835,4.607-28.815,0-8.028-12.087-.1-16.694,20.835-4.607,28.821,0" transform="translate(-110.95 -333.027)" fill="#b0c4ff"/>
          <path id="Trazado_998685" data-name="Trazado 998685" d="M59.511.005A58.711,58.711,0,0,0,28.249,108.9,26.083,26.083,0,0,1,39.182,122.08c0,18.08,39.031,18.08,39.031,0a25.823,25.823,0,0,1,10.862-13.13A58.712,58.712,0,0,0,59.511.005" transform="translate(0 0)" fill="#dde9fe"/>
          <path id="Trazado_998686" data-name="Trazado 998686" d="M69.223,66.153a1.046,1.046,0,0,1-.869-1.627,49.53,49.53,0,0,1,26.863-19.92,1.046,1.046,0,1,1,.6,2A47.434,47.434,0,0,0,70.094,65.688a1.043,1.043,0,0,1-.871.465" transform="translate(-50.67 -33.119)" fill="#c7d8ef"/>
          <path id="Trazado_998687" data-name="Trazado 998687" d="M400.785,301.81l-9.889-2.784.264,2.355a5.339,5.339,0,0,1,.423.827,17.329,17.329,0,0,1,.923,2.125c.162.649.646,3.26.936,4.19l7.038-.161,2.23-.242Z" transform="translate(-290.517 -222.239)" fill="#f7b2b2"/>
          <path id="Trazado_998688" data-name="Trazado 998688" d="M420.741,306.329l26.807.79-12.635,10.1-14.886-2.437c-2.724-.23-2.009-8.683.714-8.453" transform="translate(-310.889 -227.663)" fill="#f95070"/>
          <path id="Trazado_998689" data-name="Trazado 998689" d="M439.579,328.577l-4.632,3.709-14.881-2.437c-1.088-.1-1.622-1.49-1.709-3.124a1.012,1.012,0,0,1,.7-.1c.915.2,1.362,1.692,2.273,1.462.327-.084.552-.387.857-.526.963-.43,4.121.884,5.14.657.607-.123,1.034-.768,1.653-.8.852-.039,1.417,1.067,2.269,1.028.8-.032,1.321-1.1,2.123-1.017.378.033.664.319,1.024.43.705.236,1.444-.224,2.189-.312a4.3,4.3,0,0,1,2.318.651c.229.114.457.244.678.382" transform="translate(-310.926 -242.73)" fill="#ea2856"/>
          <path id="Trazado_998690" data-name="Trazado 998690" d="M160.729,90.48c.043,14.311-6.748,30.724-16.834,43.148a71.589,71.589,0,0,1-5.948,6.477,55.087,55.087,0,0,1-10.465,7.963,34.353,34.353,0,0,1-10.473,4.117,22.322,22.322,0,0,1-5.962.408,16.885,16.885,0,0,1-7.649-2.409l-4.6-2.666c-5.99-3.481-9.7-10.873-9.729-21.4-.064-21.167,14.826-46.951,33.247-57.581,9.272-5.354,17.671-5.855,23.733-2.33L151,69.092c-.15-.086-.293-.172-.443-.25C156.8,72.208,160.7,79.707,160.729,90.48" transform="translate(-66.2 -47.537)" fill="#b0c4ff"/>
          <path id="Trazado_998691" data-name="Trazado 998691" d="M150.995,69.092c-6.064-3.528-14.462-3.032-23.731,2.321C108.839,82.048,93.951,107.837,94.012,129c.033,10.518,3.743,17.92,9.732,21.4L98.8,147.522c-5.989-3.481-9.7-10.878-9.732-21.4-.061-21.167,14.827-46.951,33.252-57.586,9.269-5.353,17.667-5.848,23.731-2.325Z" transform="translate(-66.195 -47.539)" fill="#6a95d3"/>
          <path id="Trazado_998692" data-name="Trazado 998692" d="M141.579,79.734C160,69.1,174.983,77.639,175.043,98.8c.041,14.307-6.747,30.724-16.838,43.146a70.652,70.652,0,0,1-5.947,6.474,55.106,55.106,0,0,1-10.462,7.969,34.538,34.538,0,0,1-10.474,4.118,22.285,22.285,0,0,1-5.965.4c-10.129-.749-16.987-9.287-17.027-23.593-.06-21.165,14.827-46.951,33.25-57.587" transform="translate(-80.511 -55.86)" fill="#b0c4ff"/>
          <path id="Trazado_998693" data-name="Trazado 998693" d="M160.811,112.1c14.733-8.506,26.757-1.654,26.8,15.275s-11.9,37.624-26.631,46.129-26.76,1.652-26.808-15.277,11.9-37.622,26.634-46.128" transform="translate(-99.722 -80.598)" fill="#fff"/>
          <path id="Trazado_998694" data-name="Trazado 998694" d="M180.043,144.436c11.071-6.392,20.109-1.241,20.146,11.48s-8.944,28.275-20.015,34.667-20.112,1.246-20.148-11.479,8.944-28.275,20.018-34.668" transform="translate(-118.932 -105.306)" fill="#dde9fe"/>
          <path id="Trazado_998695" data-name="Trazado 998695" d="M199.279,176.764c7.411-4.279,13.462-.831,13.486,7.686s-5.987,18.928-13.4,23.208-13.462.834-13.486-7.686,5.984-18.927,13.4-23.208" transform="translate(-138.148 -130.007)" fill="#fff"/>
          <path id="Trazado_998696" data-name="Trazado 998696" d="M218.517,209.1c3.752-2.166,6.812-.419,6.824,3.892a14.964,14.964,0,0,1-6.78,11.746c-3.752,2.166-6.815.421-6.827-3.89a14.97,14.97,0,0,1,6.783-11.748" transform="translate(-157.363 -154.71)" fill="#dde9fe"/>
          <path id="Trazado_998697" data-name="Trazado 998697" d="M269.906,254.1a1.49,1.49,0,0,0-1.515.148,4.663,4.663,0,0,0-2.118,3.669,1.5,1.5,0,0,0,.619,1.367l-38.079-22.233a1.5,1.5,0,0,1-.619-1.363,4.675,4.675,0,0,1,2.118-3.673,1.489,1.489,0,0,1,1.515-.148Z" transform="translate(-169.596 -172.22)" fill="#5789dc"/>
          <path id="Trazado_998698" data-name="Trazado 998698" d="M378.6,318.6c1.174-.678,2.131-.132,2.135,1.217a4.67,4.67,0,0,1-2.121,3.671c-1.174.678-2.129.137-2.132-1.215A4.675,4.675,0,0,1,378.6,318.6" transform="translate(-279.806 -236.569)" fill="#c7d8ef"/>
          <path id="Trazado_998699" data-name="Trazado 998699" d="M364.042,302.934a7.53,7.53,0,1,1-7.519-7.53,7.524,7.524,0,0,1,7.519,7.53" transform="translate(-259.367 -219.547)" fill="#285294"/>
          <path id="Trazado_998700" data-name="Trazado 998700" d="M361.462,308.848a7.4,7.4,0,0,1-4.953,1.885,7.526,7.526,0,0,1-1.194-14.959,7.525,7.525,0,0,0,4.986,13.174,6.683,6.683,0,0,0,1.16-.1" transform="translate(-259.356 -219.822)" fill="#263966"/>
          <path id="Trazado_998701" data-name="Trazado 998701" d="M440.69,684.562a3.877,3.877,0,0,1-.094.577,1.542,1.542,0,0,1-.569.92,1.844,1.844,0,0,1-.569.242,9.308,9.308,0,0,1-2.744.343,34.132,34.132,0,0,1-5.886-1.2,23.173,23.173,0,0,1-2.6-.686,5.884,5.884,0,0,1-1.053-.437,3.786,3.786,0,0,1-2-2.651,2.063,2.063,0,0,1,.039-.756,1.2,1.2,0,0,1,.273-.46,3.081,3.081,0,0,1,.226-.226,2.368,2.368,0,0,1,.873-.491,9.028,9.028,0,0,1,3.571-.055c.725.039,1.442.016,2.167-.016a9.028,9.028,0,0,0,1.715-.164,14.564,14.564,0,0,0,2.924-1.193,7.159,7.159,0,0,1,1.676-.553,2.325,2.325,0,0,1,1.4.039c.374.226.351.889.4,1.263.023.218.062.421.078.639l.187,3.134a10.666,10.666,0,0,1-.016,1.731" transform="translate(-315.98 -503.646)" fill="#3caf6d"/>
          <path id="Trazado_998702" data-name="Trazado 998702" d="M442.24,684.562a3.868,3.868,0,0,1-.093.577c-.008.008-.023.015-.031.023a1.832,1.832,0,0,1-.569.234,8.814,8.814,0,0,1-2.744.343,34.132,34.132,0,0,1-5.886-1.2,24.966,24.966,0,0,1-2.6-.678,6,6,0,0,1-1.053-.445,3.816,3.816,0,0,1-2.011-2.651,2.094,2.094,0,0,1,.008-.538,2.367,2.367,0,0,1,.873-.491,9.028,9.028,0,0,1,3.571-.055c.725.039,1.442.016,2.167-.016a9.028,9.028,0,0,0,1.715-.164,14.563,14.563,0,0,0,2.924-1.193,7.159,7.159,0,0,1,1.676-.553,2.325,2.325,0,0,1,1.4.039c.374.226.351.889.4,1.263.023.218.062.421.078.639l.187,3.134a10.673,10.673,0,0,1-.016,1.731" transform="translate(-317.529 -503.646)" fill="#54d391"/>
          <path id="Trazado_998703" data-name="Trazado 998703" d="M522.685,632.429c.1.924.263,2.37.349,3.3a4.253,4.253,0,0,1,.028.592,1.913,1.913,0,0,1-.093.739,2.117,2.117,0,0,1-.536.781,3.555,3.555,0,0,1-2.627.977,6.328,6.328,0,0,1-1.931-.536,39.2,39.2,0,0,1-8.051-6.956,2.989,2.989,0,0,1-.658-2.7,2.126,2.126,0,0,1,.171-.489,3,3,0,0,1,2.493-1.83,3.1,3.1,0,0,1,1.385.195l9.171,3.6a6.493,6.493,0,0,1,.3,2.326" transform="translate(-378.352 -465.465)" fill="#3caf6d"/>
          <path id="Trazado_998704" data-name="Trazado 998704" d="M523.407,632.429c.1.924.263,2.37.349,3.3a4.244,4.244,0,0,1,.028.592,2.666,2.666,0,0,1-.388.483,3.554,3.554,0,0,1-2.627.977,6.324,6.324,0,0,1-1.931-.536,39.2,39.2,0,0,1-8.051-6.956,2.9,2.9,0,0,1-.729-2.15,3,3,0,0,1,2.493-1.83,3.1,3.1,0,0,1,1.385.195l9.171,3.6a6.494,6.494,0,0,1,.3,2.326" transform="translate(-379.073 -465.465)" fill="#54d391"/>
          <path id="Trazado_998705" data-name="Trazado 998705" d="M480.969,412.478h-1.8V411l-17.505,1.751-7.774,2.643s0,.044-.005.129c-.064,1.916-.848,24.639-.9,32.439-.06,8.375.454,33.5.454,33.5-.039.67,1.7.946,3.535.9,2.011-.049,4.141-.487,4.185-1.222,0,0,.936-23.064,2.032-30.671,1.442-10.009,3.038-17.6,5.964-24.021-1,12.707.518,26.192,3.943,44.071.363,1.152,1.807,2.114,3.375,2.6,1.939.606,4.067.49,4.564-.879,0,0-2.1-21.13-2.132-28.2-.031-7.026,1.574-25.846,2.075-31.566" transform="translate(-336.652 -305.461)" fill="#285294"/>
          <path id="Trazado_998706" data-name="Trazado 998706" d="M539.872,480.97a1.83,1.83,0,0,1-1.356,1.1,3.979,3.979,0,0,1-.385-.352,7.358,7.358,0,0,1-1.564-3.155,24.116,24.116,0,0,1-.737-9.386,11.448,11.448,0,0,0,.15-3.326c-.257-1.5-1.223-2.771-1.735-4.2-1.5-4.223,1.142-9.236-.806-13.272-.326-.678-.774-1.3-1.03-2a6.676,6.676,0,0,1,.641-4.986,25.178,25.178,0,0,0,2.087-4.714c.779-3.31-.726-7.047.859-10.053.582-1.111,2.226-3.555,3.689-3.881-.608,7.01-1.975,23.544-1.943,30.024.032,7.074,2.13,28.2,2.13,28.2" transform="translate(-395.499 -314.185)" fill="#263966"/>
          <path id="Trazado_998707" data-name="Trazado 998707" d="M483.69,447.5c-2.926,6.428-4.522,14.009-5.963,24.018-1.1,7.608-2.034,30.671-2.034,30.671a.576.576,0,0,1-.256.4,5.327,5.327,0,0,1-2.269-2.178,5.794,5.794,0,0,1-.368-1.815,28.949,28.949,0,0,1-.005-7.6c.229-1.276.63-2.515.784-3.8a33.59,33.59,0,0,0,.069-3.817A52.373,52.373,0,0,1,474.2,477a44.02,44.02,0,0,1,1.751-8.777,6.6,6.6,0,0,0,.427-1.644,11.856,11.856,0,0,0-.288-2.152,12.828,12.828,0,0,1,.742-4.778c1.062-4.084,1.217-8.371,2.429-12.412A5.785,5.785,0,0,1,481.2,444a6.242,6.242,0,0,0,1.506-1.068c.523-.678,1.159-4.3,2.408-3.5,1.127.715-.363,4.095-.566,4.9Z" transform="translate(-351.195 -326.507)" fill="#263966"/>
          <path id="Trazado_998708" data-name="Trazado 998708" d="M366.7,327.761s-2.226-5.751-3.465-4.868.219,2.955.219,2.955l-2.046-1.94a4.066,4.066,0,1,0-4.279,6.738l6.042,2.158c2.571,2.913,3.82-.162,5.12-3a6.5,6.5,0,0,0-1.591-2.04" transform="translate(-263.498 -239.902)" fill="#f7b2b2"/>
          <path id="Trazado_998709" data-name="Trazado 998709" d="M431.777,249.832c-6.523-1.418-14.23,3.711-22.259,10.621-3.554,2.981-6.062,10.325-8.863,18.289a1.184,1.184,0,0,1-1.873.519l-7.114-5.9c1.367.957-2.163,6-3.529,5.042,3.159,4.586,7.32,9.81,14.421,10.286,1.03.069,2.65-2.071,3.456-3.347a.206.206,0,0,1,.377.135l-.953,8.867a5.971,5.971,0,0,0,.434,3.05c3.892,8.817,25.789,5.383,27.122-4.47a6,6,0,0,0-.259-2.631l-2.337-7.284a3.132,3.132,0,0,1,.224-2.445c5.641-10.456,10.291-21.6,4.483-28.666a5.964,5.964,0,0,0-3.33-2.067" transform="translate(-288.468 -185.501)" fill="#fc6c85"/>
          <path id="Trazado_998710" data-name="Trazado 998710" d="M492.855,245.814c.106,2.293-2.794,7.77-7.884,4.508l-.614-3.453,2.016-2.763,5.791-1.005Z" transform="translate(-359.979 -180.675)" fill="#f7b2b2"/>
          <path id="Trazado_998711" data-name="Trazado 998711" d="M454.493,192.894a32.848,32.848,0,0,0,1.52,14.567,4,4,0,0,0,4.27,2.7,21.662,21.662,0,0,0,7.2-2.492l-2.036-11.727-9.394-3.6Z" transform="translate(-337.609 -142.955)" fill="#f7b2b2"/>
          <path id="Trazado_998712" data-name="Trazado 998712" d="M474.51,216.6a21.785,21.785,0,0,1-7.2,2.5,3.975,3.975,0,0,1-3.593-1.475,3.891,3.891,0,0,0,2.156.344,21.6,21.6,0,0,0,7.195-2.495l-1.925-11.107,1.333.514Z" transform="translate(-344.638 -151.881)" fill="#eaa7a7"/>
          <path id="Trazado_998713" data-name="Trazado 998713" d="M489.669,253.66s-2.938,4.654-7.885,4.511l-1.713,3.428c5.507-.8,10.251-3.286,10.837-7.236Z" transform="translate(-356.793 -188.522)" fill="#ea2856"/>
          <path id="Trazado_998714" data-name="Trazado 998714" d="M450.588,166.807a3.209,3.209,0,0,0-3.931,3.426c.178,2.245,1.706,3.585,4.431,4.122a.71.71,0,0,1,.575.629,7.355,7.355,0,0,0,1.408,4.108.727.727,0,0,1,.173.548l-.272,2.332a.622.622,0,0,0,.483.679.628.628,0,0,0,.687-.323c.424-.791.943-1.256,1.614-1.2a1.319,1.319,0,0,1,1.153,1.148l.43,2.923a8.931,8.931,0,0,0,.414,1.731c1.169,3.246,3.265,3.459,6.005,1.734a2.9,2.9,0,0,0,1.178-1.521,26.863,26.863,0,0,1,1.678-3.662,15.051,15.051,0,0,0,1.256-3.132,12.446,12.446,0,0,0,.436-2.834,9.229,9.229,0,0,0-2.654-7.217,3.393,3.393,0,0,1-.735-1.032l-.454-1.032a3.131,3.131,0,0,0-3.546-1.793l-1.568.349a3.178,3.178,0,0,1-1.1.041,18.958,18.958,0,0,0-5.6.189,3.264,3.264,0,0,1-1.3-.031Z" transform="translate(-331.948 -123.643)" fill="#353437"/>
          <path id="Trazado_998715" data-name="Trazado 998715" d="M468.969,177.51a12.241,12.241,0,0,1-.441,2.84,14.8,14.8,0,0,1-1.255,3.128,27.674,27.674,0,0,0-1.677,3.665,2.92,2.92,0,0,1-1.177,1.524,8.805,8.805,0,0,1-1.207.645c.036-.076.066-.15.1-.225a26.133,26.133,0,0,1,1.678-3.658,15.5,15.5,0,0,0,1.254-3.135,12.345,12.345,0,0,0,.435-2.831,9.224,9.224,0,0,0-2.656-7.217,3.37,3.37,0,0,1-.728-1.031l-.457-1.036a3.136,3.136,0,0,0-3.546-1.793l-1.565.352a3.236,3.236,0,0,1-1.1.041,18.9,18.9,0,0,0-5.6.191,3.372,3.372,0,0,1-1.3-.031l-.765-.183a3.217,3.217,0,0,0-1.424-.012,3.2,3.2,0,0,1,3.72-1.934l.757.178a3.147,3.147,0,0,0,1.3.031,18.94,18.94,0,0,1,5.609-.185,3.153,3.153,0,0,0,1.094-.046l1.567-.345a3.13,3.13,0,0,1,3.547,1.793l.455,1.029a3.419,3.419,0,0,0,.737,1.036,9.232,9.232,0,0,1,2.654,7.21" transform="translate(-332.608 -123.644)" fill="#29282b"/>
          <path id="Trazado_998716" data-name="Trazado 998716" d="M412.026,380.554a3.622,3.622,0,0,1-1.429,2.19l-.007.007a.021.021,0,0,0-.013-.007c-.132-.053-.258-.1-.39-.159a1.04,1.04,0,0,1-.152-.066,1.625,1.625,0,0,1-.159-.066c-.066-.026-.126-.06-.192-.093-.1-.046-.192-.092-.285-.139-.053-.033-.106-.06-.153-.086a2.543,2.543,0,0,1-.231-.126h-.007c-.172-.1-.338-.205-.5-.318l-.119-.08c-.139-.093-.271-.192-.4-.285-.007-.013-.013-.013-.02-.02l-.212-.172a.2.2,0,0,1-.053-.053,2.764,2.764,0,0,1-.212-.185c-.046-.04-.086-.079-.126-.119-.073-.066-.146-.139-.205-.205a2.519,2.519,0,0,1-.219-.245.34.34,0,0,1-.066-.073c-.046-.053-.093-.106-.139-.165s-.066-.086-.1-.132c-.06-.079-.119-.159-.172-.238a.17.17,0,0,1-.026-.047,1.522,1.522,0,0,1-.139-.218c-.079-.126-.152-.252-.225-.384s-.133-.265-.2-.4a5.988,5.988,0,0,1-.43-3.044l.953-8.868a.206.206,0,0,0-.377-.139c-.807,1.277-2.429,3.415-3.461,3.349-.219-.013-.437-.033-.649-.06-.113-.007-.219-.026-.331-.04l-.258-.04-.265-.04-.1-.02c-.179-.033-.357-.066-.53-.106-.1-.02-.2-.04-.291-.066-.271-.066-.529-.133-.788-.212-.2-.06-.39-.119-.582-.192-.066-.02-.126-.04-.185-.06-.093-.033-.179-.073-.271-.106s-.166-.06-.245-.093c-.1-.046-.205-.086-.3-.132l-.271-.119-.119-.06a1.3,1.3,0,0,1-.139-.066c-.02,0-.033-.013-.053-.02a2.485,2.485,0,0,1-.258-.139,5.32,5.32,0,0,1-.509-.271l-.04-.02q-.387-.218-.754-.457c-.245-.159-.49-.324-.728-.5,0-.007,0-.007-.007-.007-.238-.172-.47-.351-.7-.536-.146-.112-.285-.225-.417-.344s-.265-.225-.39-.337c-.047-.046-.1-.086-.146-.132-.139-.126-.271-.245-.4-.377-.119-.106-.238-.225-.357-.351-.146-.139-.284-.271-.41-.417-.205-.212-.41-.423-.6-.648-.252-.278-.49-.563-.728-.847s-.463-.576-.695-.867-.443-.576-.655-.867c-.2-.265-.39-.53-.582-.794-.08-.119-.166-.232-.245-.351l-.41-.6c.463.324,1.185-.046,1.873-.721l.007-.007c1.1,1.588,1.985,3.322,3.878,4.269a7.337,7.337,0,0,1,1.125.715c.357.311.622.715.96,1.052a3.376,3.376,0,0,0,3.058.867c1.165-.265,2.138-1.152,3.329-1.31a6.731,6.731,0,0,0,2.005-.245,3.533,3.533,0,0,0,1.264-1.41,13.221,13.221,0,0,1,3.157-3.408c.238-.179.549-.364.827-.245a.851.851,0,0,1,.391.668c.318,1.787-.3,3.594-.695,5.367a14.763,14.763,0,0,0,.721,9.437c.906,1.9,2.4,3.785,1.979,5.844" transform="translate(-288.476 -266.777)" fill="#ea2856"/>
          <path id="Trazado_998717" data-name="Trazado 998717" d="M545.684,291.762a6.01,6.01,0,0,1,.26,2.629c-.354,2.617-2.16,4.783-4.693,6.384a7.047,7.047,0,0,1-.369-7.04c.669-1.24,1.761-2.617,1.135-3.881-.157-.321-.411-.581-.6-.883a4.654,4.654,0,0,1-.527-1.64,13.654,13.654,0,0,1-.215-6.284c.172-.6.427-1.18.544-1.8.17-.88.046-1.8.245-2.674.49-2.172,2.862-3.748,2.762-5.975-.036-.78-.388-1.582-.115-2.314a5.371,5.371,0,0,1,.92-1.249c1.271-1.67.608-4.1-.451-5.915a8.731,8.731,0,0,1-.977-1.933,6.765,6.765,0,0,1,.163-3.352,10.387,10.387,0,0,1,1.842-4.266,6.053,6.053,0,0,1,2.445,1.8c5.809,7.061,1.159,18.21-4.484,28.665a3.13,3.13,0,0,0-.224,2.444Z" transform="translate(-401.415 -186.969)" fill="#ea2856"/>
        </g>
      </g>
    </g>
  </g>
</svg>
