<svg xmlns="http://www.w3.org/2000/svg" xmlns:xlink="http://www.w3.org/1999/xlink" width="158.776" height="166.592" viewBox="0 0 158.776 166.592">
  <defs>
    <clipPath id="clip-path">
      <rect id="Rectángulo_454666" data-name="Rectángulo 454666" width="133.269" height="147.016" fill="none"/>
    </clipPath>
    <clipPath id="clip-path-3">
      <rect id="Rectángulo_454664" data-name="Rectángulo 454664" width="76.249" height="44.023" fill="none"/>
    </clipPath>
  </defs>
  <g id="Grupo_1179117" data-name="Grupo 1179117" transform="translate(-565.493 -4416.424)">
    <g id="Grupo_1176877" data-name="Grupo 1176877" transform="translate(263.231)">
      <rect id="Rectángulo_401003" data-name="Rectángulo 401003" width="144.479" height="152.843" rx="29" transform="translate(303.762 4417.924)" fill="none" stroke="#fe8938" stroke-miterlimit="10" stroke-width="3"/>
      <g id="Grupo_1177188" data-name="Grupo 1177188" transform="translate(327.769 4436)">
        <g id="Grupo_1177187" data-name="Grupo 1177187" clip-path="url(#clip-path)">
          <g id="Grupo_1177186" data-name="Grupo 1177186" transform="translate(0 0)">
            <g id="Grupo_1177185" data-name="Grupo 1177185" clip-path="url(#clip-path)">
              <g id="Grupo_1177184" data-name="Grupo 1177184" transform="translate(11.079 102.994)" style="mix-blend-mode: multiply;isolation: isolate">
                <g id="Grupo_1177183" data-name="Grupo 1177183">
                  <g id="Grupo_1177182" data-name="Grupo 1177182" clip-path="url(#clip-path-3)">
                    <path id="Trazado_992486" data-name="Trazado 992486" d="M12.311,114.23,63.6,84.618C68.143,82,75.483,81.983,80,84.588l1.771,1.023c4.514,2.6,4.491,6.843-.051,9.465L30.427,124.69c-4.541,2.622-11.882,2.635-16.4.029L12.26,123.7c-4.514-2.606-4.49-6.844.051-9.467" transform="translate(-8.889 -82.643)" fill="#e3e5ef"/>
                  </g>
                </g>
              </g>
              <path id="Trazado_992487" data-name="Trazado 992487" d="M100.468,35.539c0,31.835-22.491,70.629-50.234,86.646S0,125.38,0,93.545,22.49,22.916,50.234,6.9s50.234-3.2,50.234,28.64" transform="translate(0 0)" fill="#494440"/>
              <path id="Trazado_992488" data-name="Trazado 992488" d="M92.6,8.063l-9.02-5.207L10.779,124.32l10.174,5.921Z" transform="translate(2.654 0.703)" fill="#494440"/>
              <path id="Trazado_992489" data-name="Trazado 992489" d="M107.692,39.711c0,31.835-22.491,70.629-50.233,86.646s-50.234,3.2-50.234-28.64S29.715,27.088,57.46,11.071s50.233-3.2,50.233,28.64" transform="translate(1.779 1.027)" fill="#57524e"/>
              <path id="Trazado_992490" data-name="Trazado 992490" d="M106.964,40.505c0,31.076-21.955,68.945-49.037,84.582S8.889,128.2,8.889,97.128,30.844,28.183,57.926,12.547s49.037-3.119,49.037,27.958" transform="translate(2.189 1.431)" fill="#65605d"/>
              <path id="Trazado_992491" data-name="Trazado 992491" d="M102.967,41.585c0,28.962-20.461,64.253-45.7,78.825s-45.7,2.906-45.7-26.055S32.028,30.1,57.267,15.529s45.7-2.906,45.7,26.055" transform="translate(2.848 2.278)" fill="#807c79"/>
              <path id="Trazado_992492" data-name="Trazado 992492" d="M102,41.843c0,28.452-20.1,63.119-44.9,77.435-13.374,7.729-25.389,7.942-33.613,2.041-7.011-5.049-11.275-14.54-11.275-27.633,0-.862.022-1.727.056-2.591.045-1.077.112-2.154.224-3.243a86.355,86.355,0,0,1,5.7-23.335c.46-1.157.931-2.323,1.436-3.478A108.877,108.877,0,0,1,32.4,39.027c.751-1.009,1.514-2,2.312-2.972A86.868,86.868,0,0,1,52.188,19.4c.9-.639,1.806-1.245,2.714-1.817.73-.471,1.459-.909,2.2-1.335C68.624,9.6,79.137,8.511,87.08,12.113,96.235,16.253,102,26.619,102,41.843" transform="translate(3.008 2.484)" fill="#b2b0af"/>
              <path id="Trazado_992493" data-name="Trazado 992493" d="M98.389,39.767c0,28.441-20.093,63.108-44.887,77.422-11.544,6.665-22.056,7.742-30.011,4.129-7.013-5.049-11.275-14.539-11.275-27.632,0-.864.022-1.727.056-2.592.045-1.077.112-2.154.224-3.241a86.317,86.317,0,0,1,5.7-23.336c.46-1.155.931-2.323,1.436-3.478A108.868,108.868,0,0,1,32.4,39.027c.751-1.009,1.514-2,2.311-2.974A86.869,86.869,0,0,1,52.189,19.4c.9-.639,1.806-1.246,2.714-1.818.729-.471,1.459-.909,2.2-1.335,11.522-6.652,22.034-7.74,29.977-4.14,7.034,5.026,11.308,14.529,11.308,27.656" transform="translate(3.008 2.483)" fill="#f7fbff"/>
              <path id="Trazado_992494" data-name="Trazado 992494" d="M53.176,53.992l-1.261,2.355L64.176,15.44l-2.013.2-13.21,44.07c-.064.032-.123.05-.187.087a5.247,5.247,0,0,0-.854.636L33.258,45.875l-1.922,2.719L45.987,63.148a6.181,6.181,0,0,0-.53,2.357,2.623,2.623,0,0,0,.583,1.811L23.647,109.139l1.183.525L45.618,70.84l-.52,1.731,2.013-.2,1.467-4.893c.064-.031.123-.049.188-.086a5.368,5.368,0,0,0,.852-.636l2.291,2.277,1.922-2.719L51.544,64.04a6.186,6.186,0,0,0,.53-2.357,2.626,2.626,0,0,0-.583-1.812l2.868-5.355Z" transform="translate(5.823 3.802)" fill="#cbd1d6"/>
              <path id="Trazado_992495" data-name="Trazado 992495" d="M44.449,73.007l-2.013.2L59.5,16.279l2.013-.2Z" transform="translate(10.45 3.959)" fill="#65605d"/>
              <path id="Trazado_992496" data-name="Trazado 992496" d="M54.751,47.012l1.183.525L26.405,102.684l-1.183-.525Z" transform="translate(6.211 11.577)" fill="#ff345d"/>
              <path id="Trazado_992497" data-name="Trazado 992497" d="M53.888,60.936l-1.92,2.719L31.393,43.219,33.314,40.5Z" transform="translate(7.73 9.973)" fill="#65605d"/>
              <path id="Trazado_992498" data-name="Trazado 992498" d="M47.005,16.1V18.91a3.01,3.01,0,0,1-1.357,2.344c-.751.426-1.357.079-1.357-.785V17.922c.9-.639,1.806-1.245,2.714-1.817" transform="translate(10.907 3.966)" fill="#65605d"/>
              <path id="Trazado_992499" data-name="Trazado 992499" d="M16.086,72.252A3.01,3.01,0,0,1,14.729,74.6L12.26,76.022c.045-1.077.112-2.155.224-3.243l2.244-1.3c.74-.426,1.357-.079,1.357.774" transform="translate(3.019 17.557)" fill="#65605d"/>
              <path id="Trazado_992500" data-name="Trazado 992500" d="M45.646,89.238a3,3,0,0,0-1.358,2.344v3.435c0,.861.608,1.209,1.358.775a3,3,0,0,0,1.36-2.344V90.013c0-.861-.609-1.209-1.36-.775" transform="translate(10.906 21.929)" fill="#65605d"/>
              <path id="Trazado_992501" data-name="Trazado 992501" d="M79.782,34.136l-2.993,1.729a3,3,0,0,0-1.358,2.344c0,.861.608,1.208,1.358.775l2.993-1.729a3,3,0,0,0,1.36-2.344c0-.861-.609-1.209-1.36-.775" transform="translate(18.575 8.36)" fill="#65605d"/>
              <path id="Trazado_992502" data-name="Trazado 992502" d="M73.3,23.216,75.888,20a2.28,2.28,0,0,0,.5-2.418c-.375-.53-1.206-.305-1.857.5L71.936,21.3a2.283,2.283,0,0,0-.5,2.418c.375.53,1.206.305,1.857-.5" transform="translate(17.547 4.259)" fill="#65605d"/>
              <path id="Trazado_992503" data-name="Trazado 992503" d="M60.535,17.625h0c.651.055,1.482-.68,1.857-1.644l1.5-3.838c.375-.962.153-1.787-.5-1.843s-1.482.68-1.857,1.644l-1.5,3.838c-.376.963-.153,1.788.5,1.843" transform="translate(14.739 2.536)" fill="#65605d"/>
              <path id="Trazado_992504" data-name="Trazado 992504" d="M30.823,34.176c-.651.808-1.481,1.032-1.851.5L28.41,33.9c.753-1.009,1.515-2,2.312-2.974l.594.842a2.256,2.256,0,0,1-.494,2.411" transform="translate(6.996 7.615)" fill="#65605d"/>
              <path id="Trazado_992505" data-name="Trazado 992505" d="M19.919,52.889c-.37.965-1.2,1.7-1.852,1.649l-1.054-.09c.461-1.155.932-2.322,1.437-3.477l.976.077c.651.057.875.887.494,1.841" transform="translate(4.189 12.552)" fill="#65605d"/>
              <path id="Trazado_992506" data-name="Trazado 992506" d="M18.516,87.553l-2.592,3.215a2.278,2.278,0,0,0-.5,2.416c.375.53,1.206.305,1.857-.5l2.591-3.215a2.28,2.28,0,0,0,.5-2.418c-.375-.528-1.206-.3-1.857.5" transform="translate(3.754 21.366)" fill="#65605d"/>
              <path id="Trazado_992507" data-name="Trazado 992507" d="M31.064,93.258c-.651-.055-1.482.68-1.856,1.644l-1.5,3.838c-.375.963-.152,1.787.5,1.842s1.481-.68,1.856-1.643l1.5-3.84c.375-.962.152-1.787-.5-1.842" transform="translate(6.779 22.964)" fill="#65605d"/>
              <path id="Trazado_992508" data-name="Trazado 992508" d="M62.411,75.539c-.375-.528-1.208-.3-1.857.5a2.28,2.28,0,0,0-.5,2.418l1.5,2.109c.376.528,1.208.3,1.857-.5a2.28,2.28,0,0,0,.5-2.418Z" transform="translate(14.744 18.531)" fill="#65605d"/>
              <path id="Trazado_992509" data-name="Trazado 992509" d="M75.9,55.806l-2.593-.218c-.651-.055-1.482.682-1.856,1.644s-.152,1.787.5,1.842l2.593.218c.651.055,1.482-.682,1.856-1.644s.152-1.787-.5-1.842" transform="translate(17.55 13.688)" fill="#65605d"/>
              <path id="Trazado_992510" data-name="Trazado 992510" d="M49.34,53.647a7.293,7.293,0,0,1-3.309,5.707c-1.827,1.054-3.308.211-3.308-1.887a7.291,7.291,0,0,1,3.308-5.707c1.827-1.054,3.309-.209,3.309,1.887" transform="translate(10.521 12.634)" fill="#65605d"/>
              <path id="Trazado_992511" data-name="Trazado 992511" d="M47.348,54.185A3.624,3.624,0,0,1,45.7,57.021c-.909.525-1.644.1-1.644-.937A3.619,3.619,0,0,1,45.7,53.248c.909-.525,1.645-.1,1.645.937" transform="translate(10.85 13.057)" fill="#8c8886"/>
              <path id="Trazado_992512" data-name="Trazado 992512" d="M106.679,80.187,65.09,108.234c-1.6.923-2.724,4.034-2.724,4.034s-5.036-2.9-5.06-2.924a5.488,5.488,0,0,1-1.518-4.271V86.133c0-4.174,2.537-9.022,5.667-10.829l47.826-27.612a3.587,3.587,0,0,1,3.8-.246c.182.115,4.513,2.493,4.672,2.65.845.832-3.608,2.7-3.608,4.568l-1.8,14.695c0,4.174-2.537,9.022-5.668,10.829" transform="translate(13.738 11.577)" fill="#ffcc54"/>
              <path id="Trazado_992513" data-name="Trazado 992513" d="M112.958,83.823,65.132,111.435c-3.131,1.808-5.668-.111-5.668-4.283V88.211c0-4.174,2.537-9.022,5.668-10.829l47.826-27.613c3.131-1.807,5.668.111,5.668,4.285V72.995c0,4.174-2.537,9.022-5.668,10.829" transform="translate(14.643 12.088)" fill="#ffe254"/>
              <path id="Trazado_992514" data-name="Trazado 992514" d="M63.295,111.553c-1.748,0-2.878-1.732-2.878-4.413V88.345c0-3.971,2.408-8.592,5.366-10.3l47.4-27.365a4.005,4.005,0,0,1,1.975-.606c1.748,0,2.878,1.732,2.878,4.413V73.282c0,3.971-2.408,8.592-5.366,10.3l-47.4,27.365a4,4,0,0,1-1.975.606" transform="translate(14.878 12.331)" fill="#fff887"/>
              <path id="Trazado_992515" data-name="Trazado 992515" d="M71.071,84.994a4.731,4.731,0,0,0,.644-2.055c0-.83-.7-1.474-1.737-.876a3.714,3.714,0,0,0-1.7,2.926L65.135,86.8a10.473,10.473,0,0,1,4.96-8.263c2.85-1.645,4.744.059,4.744,2.726a9.507,9.507,0,0,1-.88,3.524l-2.792,6.048,4.14-2.39v3.476L65.175,97.775Z" transform="translate(16.04 19.181)" fill="#ff345d"/>
              <path id="Trazado_992516" data-name="Trazado 992516" d="M84.16,80.285l2.7-1.555V82.2l-2.7,1.555v3.476l-3.084,1.781V85.54l-6.7,3.867v-3.5l5.9-12.825,3.886-2.243Zm-3.084,1.781V77.389l-2.929,6.368Z" transform="translate(18.316 17.445)" fill="#ff345d"/>
              <path id="Trazado_992517" data-name="Trazado 992517" d="M91.584,66.6l3.436-1.984L88.245,84.924,84.828,86.9Z" transform="translate(20.889 15.912)" fill="#ff345d"/>
              <path id="Trazado_992518" data-name="Trazado 992518" d="M105.271,58.831V62.35L98.632,79.056l-3.553,2.051,6.657-16.738-7.79,4.5v-3.5Z" transform="translate(23.134 14.487)" fill="#ff345d"/>
            </g>
          </g>
        </g>
      </g>
    </g>
  </g>
</svg>
