<svg xmlns="http://www.w3.org/2000/svg" xmlns:xlink="http://www.w3.org/1999/xlink" width="160.5" height="162.343" viewBox="0 0 160.5 162.343">
  <defs>
    <clipPath id="clip-path">
      <rect id="Rectángulo_454744" data-name="Rectángulo 454744" width="145" height="135.243" fill="none"/>
    </clipPath>
    <clipPath id="clip-path-2">
      <path id="Trazado_992925" data-name="Trazado 992925" d="M39.729,49.38l.006,2.916a2.047,2.047,0,0,0,1.2-1.679L40.931,47.7a2.045,2.045,0,0,1-1.2,1.679" transform="translate(-39.729 -47.701)" fill="none"/>
    </clipPath>
    <clipPath id="clip-path-3">
      <path id="Trazado_992929" data-name="Trazado 992929" d="M12.913,55.044A2.015,2.015,0,0,0,14.1,56.695l-.009-2.916a2,2,0,0,1-1.175-1.653Z" transform="translate(-12.911 -52.126)" fill="none"/>
    </clipPath>
    <clipPath id="clip-path-5">
      <path id="Trazado_992935" data-name="Trazado 992935" d="M21.231,57.489,21.24,60.4a6.311,6.311,0,0,0,5.742,0l-.006-2.912a6.33,6.33,0,0,1-5.746,0" transform="translate(-21.231 -57.489)" fill="none"/>
    </clipPath>
    <clipPath id="clip-path-7">
      <path id="Trazado_992942" data-name="Trazado 992942" d="M41.656,0a3.149,3.149,0,0,0-1.53.474L44.491,3a2.437,2.437,0,0,1,2.445-.235L42.569.228A1.789,1.789,0,0,0,41.7,0Z" transform="translate(-40.126)" fill="none"/>
    </clipPath>
    <clipPath id="clip-path-9">
      <path id="Trazado_992945" data-name="Trazado 992945" d="M1.066,53.452l4.365,2.534a2.4,2.4,0,0,1-1-2.2L.068,51.251a2.411,2.411,0,0,0,1,2.2" transform="translate(-0.068 -51.251)" fill="none"/>
    </clipPath>
    <clipPath id="clip-path-11">
      <path id="Trazado_992949" data-name="Trazado 992949" d="M0,28.265,4.357,30.8a7.569,7.569,0,0,1,3.418-5.924L3.42,22.345A7.512,7.512,0,0,0,0,28.265" transform="translate(0 -22.345)" fill="none"/>
    </clipPath>
  </defs>
  <g id="Grupo_1179113" data-name="Grupo 1179113" transform="translate(-314.5 -6167.075)">
    <g id="Grupo_1176884" data-name="Grupo 1176884" transform="translate(12.238 1750.65)">
      <rect id="Rectángulo_401003" data-name="Rectángulo 401003" width="144.479" height="152.843" rx="29" transform="translate(303.762 4417.924)" fill="none" stroke="#fe8938" stroke-miterlimit="10" stroke-width="3"/>
      <g id="Grupo_1177410" data-name="Grupo 1177410" transform="translate(317.762 4443.525)">
        <g id="Grupo_1177387" data-name="Grupo 1177387" transform="translate(0 0)">
          <g id="Grupo_1177386" data-name="Grupo 1177386" clip-path="url(#clip-path)">
            <path id="Trazado_992854" data-name="Trazado 992854" d="M70.647,3.824c-4.446-2.568-8.068.314-8.068,6.424l-1.7-.984c0-7.2,4.381-10.52,9.772-7.409s9.77,11.495,9.77,18.693l-1.7-.985c0-6.111-3.618-13.17-8.066-15.738" transform="translate(51.047 0.577)" fill="#fafbfd"/>
            <path id="Trazado_992855" data-name="Trazado 992855" d="M80.075,14.339l3.4,58.832-6.83,3.969L73.372,18.235Z" transform="translate(61.527 12.024)" fill="#cf4664"/>
            <path id="Trazado_992856" data-name="Trazado 992856" d="M69.722,20.356l6.711-3.9,3.273,58.906L73.121,79.19Z" transform="translate(58.466 13.801)" fill="#ff577b"/>
            <path id="Trazado_992857" data-name="Trazado 992857" d="M85.956,31.506,99.37,23.712,63.772,3.161l-13.41,7.794Z" transform="translate(42.231 2.65)" fill="#ff99af"/>
            <path id="Trazado_992858" data-name="Trazado 992858" d="M96.818,23.253,62.976,3.713l-11.66,6.777L85.156,30.03Z" transform="translate(43.031 3.113)" fill="#cf4664"/>
            <path id="Trazado_992859" data-name="Trazado 992859" d="M52.059,7.4,48.337,62.123,91.053,86.786l-3.4-58.834Z" transform="translate(40.534 6.205)" fill="#ff708f"/>
            <path id="Trazado_992860" data-name="Trazado 992860" d="M64.76,8.386c-4.447-2.567-8.066,3.313-8.066,9.423l-1.7-.985c0-7.2,4.378-13.517,9.77-10.406s9.768,14.493,9.768,21.69l-1.7-.985c0-6.11-3.618-16.168-8.064-18.735" transform="translate(46.112 4.699)" fill="#fafbfd"/>
            <path id="Trazado_992861" data-name="Trazado 992861" d="M64.306,17.606c0-.974.684-1.37,1.526-.883a3.375,3.375,0,0,1,1.528,2.644c0,.974-.684,1.37-1.528.883a3.378,3.378,0,0,1-1.526-2.644" transform="translate(53.925 13.848)" fill="#cf4664"/>
            <path id="Trazado_992862" data-name="Trazado 992862" d="M54.572,12.4c0-.974.682-1.37,1.528-.881a3.378,3.378,0,0,1,1.526,2.644c0,.974-.684,1.37-1.526.883A3.371,3.371,0,0,1,54.572,12.4" transform="translate(45.762 9.482)" fill="#cf4664"/>
            <path id="Trazado_992863" data-name="Trazado 992863" d="M102.311,58.833a1.661,1.661,0,0,1-.971,1.362l-1.708.984-.007-2.166-3.414-1.98-3.344,1.934,1.914,1.116,1.436-.833,1.5.87-1.436.831-3.414-1.984v.12l-1.634-.949a5.457,5.457,0,0,0-.581-1.375l1.087-.627-.009-2.212-3.405-1.98-.77.438v-.886l-3.411-1.978-.761.434v-.883l-3.416-1.982-3.35,1.934.007.537-.469-.27L72.8,51.221v.542l-.467-.276-3.344,1.934,0,.541-.467-.27-3.352,1.932v.533l-.461-.267-3.352,1.936.006.533-.465-.267-3.354,1.93v.537l-.461-.268-3.346,1.93,0,.541-.469-.268-3.346,1.93v.541l-.465-.272-3.352,1.934v.542l-.467-.274L42.3,68.831l0,.535-.461-.268-3.352,1.936v.535l-.458-.268-3.359,1.932.011.535-.465-.265L30.87,75.435v.539L30.4,75.7l-3.354,1.932.011,1.991-1.719-1-3.359,1.94.007,2.03L20.4,81.667a1.648,1.648,0,0,1-.952-1.346l.006,2.219a1.633,1.633,0,0,0,.958,1.344L39.875,95.2a5.207,5.207,0,0,0,4.681,0L101.347,62.41a1.655,1.655,0,0,0,.965-1.361c0-.741,0-1.478,0-2.217" transform="translate(16.306 39.484)" fill="#aebfcf"/>
            <path id="Trazado_992864" data-name="Trazado 992864" d="M101.352,58.158,81.886,46.846a5.142,5.142,0,0,0-4.677,0L20.417,79.631c-1.291.743-1.3,1.96-.018,2.708L39.873,93.654a5.161,5.161,0,0,0,4.675,0L101.34,60.868c1.287-.746,1.293-1.962.013-2.71" transform="translate(16.304 38.811)" fill="#f8f9fc"/>
            <path id="Trazado_992865" data-name="Trazado 992865" d="M53.888,47.086,57.3,49.068,53.956,51,50.54,49.02Z" transform="translate(42.381 39.484)" fill="#114269"/>
            <path id="Trazado_992866" data-name="Trazado 992866" d="M51.817,48.283l3.411,1.984L51.879,52.2l-3.412-1.984Z" transform="translate(40.643 40.488)" fill="#114269"/>
            <path id="Trazado_992867" data-name="Trazado 992867" d="M49.738,49.48l3.414,1.982L49.806,53.4l-3.412-1.984Z" transform="translate(38.904 41.492)" fill="#114269"/>
            <path id="Trazado_992868" data-name="Trazado 992868" d="M54.089,49.6,57.5,51.587l-3.35,1.93-3.412-1.976Z" transform="translate(42.547 41.595)" fill="#114269"/>
            <path id="Trazado_992869" data-name="Trazado 992869" d="M58.436,49.727l3.405,1.98-3.348,1.93L55.084,51.66Z" transform="translate(46.191 41.699)" fill="#114269"/>
            <path id="Trazado_992870" data-name="Trazado 992870" d="M47.67,50.678l3.409,1.98L47.731,54.6l-3.412-1.986Z" transform="translate(37.164 42.497)" fill="#114269"/>
            <path id="Trazado_992871" data-name="Trazado 992871" d="M56.361,50.923l3.405,1.984-3.35,1.93-3.405-1.98Z" transform="translate(44.453 42.702)" fill="#114269"/>
            <path id="Trazado_992872" data-name="Trazado 992872" d="M45.6,51.875l3.416,1.986-3.355,1.929-3.411-1.978Z" transform="translate(35.425 43.5)" fill="#114269"/>
            <path id="Trazado_992873" data-name="Trazado 992873" d="M54.289,52.121,57.7,54.1l-3.357,1.93-3.405-1.98Z" transform="translate(42.713 43.707)" fill="#114269"/>
            <path id="Trazado_992874" data-name="Trazado 992874" d="M43.523,53.072l3.414,1.982L43.583,56.99,40.171,55Z" transform="translate(33.686 44.504)" fill="#114269"/>
            <path id="Trazado_992875" data-name="Trazado 992875" d="M51.79,52.508,55.2,54.492l-9.353,5.4-3.409-1.98Z" transform="translate(35.59 44.031)" fill="#114269"/>
            <path id="Trazado_992876" data-name="Trazado 992876" d="M39.373,55.467l3.412,1.982-3.348,1.93L36.027,57.4Z" transform="translate(30.211 46.512)" fill="#114269"/>
            <path id="Trazado_992877" data-name="Trazado 992877" d="M43.719,55.589l3.405,1.98L43.775,59.5l-3.4-1.978Z" transform="translate(33.855 46.615)" fill="#114269"/>
            <path id="Trazado_992878" data-name="Trazado 992878" d="M51.752,53.924,55.7,56.219l2.271,1.318,1.144.666-5.652,3.26-3.412-1.982,1.739-1-3.951-2.293Z" transform="translate(40.113 45.219)" fill="#114269"/>
            <path id="Trazado_992879" data-name="Trazado 992879" d="M37.3,56.663l3.407,1.986-3.348,1.934L33.95,58.6Z" transform="translate(28.47 47.515)" fill="#114269"/>
            <path id="Trazado_992880" data-name="Trazado 992880" d="M41.647,56.786l3.409,1.984L41.706,60.7,38.3,58.718Z" transform="translate(32.114 47.618)" fill="#114269"/>
            <path id="Trazado_992881" data-name="Trazado 992881" d="M44.594,57.715,48,59.7l-3.348,1.93-3.405-1.984Z" transform="translate(34.588 48.397)" fill="#114269"/>
            <path id="Trazado_992882" data-name="Trazado 992882" d="M35.223,57.861l3.414,1.986-3.344,1.932L31.875,59.8Z" transform="translate(26.729 48.52)" fill="#114269"/>
            <path id="Trazado_992883" data-name="Trazado 992883" d="M39.573,57.984l3.412,1.98L39.632,61.9,36.223,59.92Z" transform="translate(30.375 48.623)" fill="#114269"/>
            <path id="Trazado_992884" data-name="Trazado 992884" d="M42.545,58.9l3.412,1.98L42.6,62.818l-3.4-1.98Z" transform="translate(32.868 49.39)" fill="#114269"/>
            <path id="Trazado_992885" data-name="Trazado 992885" d="M33.155,59.057l3.414,1.98-3.35,1.942L29.8,60.993Z" transform="translate(24.992 49.523)" fill="#114269"/>
            <path id="Trazado_992886" data-name="Trazado 992886" d="M37.5,59.18,40.9,61.164,37.556,63.1l-3.405-1.982Z" transform="translate(28.637 49.626)" fill="#114269"/>
            <path id="Trazado_992887" data-name="Trazado 992887" d="M53.073,58.969l3.405,1.978-6.659,3.844L46.41,62.814Z" transform="translate(38.918 49.449)" fill="#114269"/>
            <path id="Trazado_992888" data-name="Trazado 992888" d="M40.495,60.082l3.411,1.982L40.554,64l-3.407-1.984Z" transform="translate(31.15 50.382)" fill="#114269"/>
            <path id="Trazado_992889" data-name="Trazado 992889" d="M31.086,60.256l3.409,1.982-3.35,1.936-3.418-1.986Z" transform="translate(23.251 50.528)" fill="#114269"/>
            <path id="Trazado_992890" data-name="Trazado 992890" d="M35.432,60.378l3.405,1.98L35.486,64.3,32.073,62.31Z" transform="translate(26.896 50.631)" fill="#114269"/>
            <path id="Trazado_992891" data-name="Trazado 992891" d="M38.442,61.267l3.411,1.98L38.5,65.18,35.1,63.2Z" transform="translate(29.43 51.376)" fill="#114269"/>
            <path id="Trazado_992892" data-name="Trazado 992892" d="M29.007,61.453l3.409,1.986-3.346,1.929-3.411-1.982Z" transform="translate(21.516 51.532)" fill="#114269"/>
            <path id="Trazado_992893" data-name="Trazado 992893" d="M33.353,61.576l3.411,1.98-3.355,1.932L30,63.51Z" transform="translate(25.158 51.635)" fill="#114269"/>
            <path id="Trazado_992894" data-name="Trazado 992894" d="M36.4,62.45l3.409,1.98-3.354,1.936-3.411-1.984Z" transform="translate(27.71 52.368)" fill="#114269"/>
            <path id="Trazado_992895" data-name="Trazado 992895" d="M26.934,62.65l3.414,1.982L27,66.566l-3.416-1.984Z" transform="translate(19.775 52.536)" fill="#114269"/>
            <path id="Trazado_992896" data-name="Trazado 992896" d="M31.279,62.772l3.409,1.982L31.34,66.686l-3.411-1.978Z" transform="translate(23.42 52.638)" fill="#114269"/>
            <path id="Trazado_992897" data-name="Trazado 992897" d="M34.341,63.634l3.411,1.98-3.344,1.934L31,65.568Z" transform="translate(25.994 53.361)" fill="#114269"/>
            <path id="Trazado_992898" data-name="Trazado 992898" d="M24.184,64.238l3.409,1.986-3.352,1.934-3.416-1.98Z" transform="translate(17.463 53.868)" fill="#114269"/>
            <path id="Trazado_992899" data-name="Trazado 992899" d="M32.29,64.818,35.7,66.8l-3.346,1.929L28.95,66.75Z" transform="translate(24.276 54.353)" fill="#114269"/>
            <path id="Trazado_992900" data-name="Trazado 992900" d="M53.656,61.19l3.405,1.982L40.69,72.622l-3.411-1.976Z" transform="translate(31.261 51.312)" fill="#114269"/>
            <path id="Trazado_992901" data-name="Trazado 992901" d="M31.353,64.02l3.407,1.986-8.248,4.762L23.1,68.787Z" transform="translate(19.367 53.684)" fill="#114269"/>
            <path id="Trazado_992902" data-name="Trazado 992902" d="M31.512,66.006l3.407,1.98-6.137,3.547L25.371,69.55Z" transform="translate(21.275 55.35)" fill="#114269"/>
            <path id="Trazado_992903" data-name="Trazado 992903" d="M39.574,66.493l3.411,1.986-5.654,3.263L33.92,69.761Z" transform="translate(28.444 55.759)" fill="#114269"/>
            <path id="Trazado_992904" data-name="Trazado 992904" d="M36.579,68.487l3.411,1.986-6.661,3.841-3.405-1.982Z" transform="translate(25.093 57.431)" fill="#114269"/>
            <path id="Trazado_992905" data-name="Trazado 992905" d="M56.158,48.407l3.411,1.978-3.35,1.93-3.4-1.98Z" transform="translate(44.289 40.592)" fill="#114269"/>
            <path id="Trazado_992906" data-name="Trazado 992906" d="M52.018,50.8l3.409,1.982-3.352,1.932-3.412-1.98Z" transform="translate(40.806 42.6)" fill="#114269"/>
            <path id="Trazado_992907" data-name="Trazado 992907" d="M62.722,52.5l3.414,1.98-3.344,1.938L59.379,54.43Z" transform="translate(49.793 44.021)" fill="#114269"/>
            <path id="Trazado_992908" data-name="Trazado 992908" d="M60.661,53.687l.461.267,2.949,1.714L60.723,57.6l-3.409-1.98.34-.2Z" transform="translate(48.062 45.019)" fill="#114269"/>
            <path id="Trazado_992909" data-name="Trazado 992909" d="M58.66,52.5l.456.263,2.953,1.717L58.72,56.414,55.308,54.43l.349-.2Z" transform="translate(46.379 44.021)" fill="#114269"/>
            <path id="Trazado_992910" data-name="Trazado 992910" d="M41.446,54.269l3.414,1.984-3.35,1.929L38.1,56.2Z" transform="translate(31.949 45.508)" fill="#114269"/>
            <path id="Trazado_992911" data-name="Trazado 992911" d="M58.66,54.842l3.411,1.986-3.355,1.936L55.308,56.78Z" transform="translate(46.379 45.989)" fill="#114269"/>
            <path id="Trazado_992912" data-name="Trazado 992912" d="M48.694,55.348,52.1,57.33l-3.348,1.934-3.405-1.978Z" transform="translate(38.025 46.412)" fill="#114269"/>
            <path id="Trazado_992913" data-name="Trazado 992913" d="M46.641,56.531l3.411,1.982-3.346,1.932L43.3,58.469Z" transform="translate(36.306 47.405)" fill="#114269"/>
            <path id="Trazado_992914" data-name="Trazado 992914" d="M57.316,56.582l3.411,1.98-6.907,3.99-3.411-1.978Z" transform="translate(42.271 47.447)" fill="#114269"/>
            <path id="Trazado_992915" data-name="Trazado 992915" d="M35.732,65.463l3.407,1.986-3.346,1.932L32.377,67.4Z" transform="translate(27.15 54.895)" fill="#114269"/>
            <path id="Trazado_992916" data-name="Trazado 992916" d="M34.405,66.227l3.344-1.932,3.425,1.98L37.82,68.211Z" transform="translate(28.851 53.915)" fill="#114269"/>
            <path id="Trazado_992917" data-name="Trazado 992917" d="M36.454,65.045l3.354-1.934,3.412,1.982-3.355,1.936Z" transform="translate(30.569 52.923)" fill="#114269"/>
            <path id="Trazado_992918" data-name="Trazado 992918" d="M38.478,63.876l3.355-1.934,3.416,1.98L41.9,65.859Z" transform="translate(32.266 51.941)" fill="#114269"/>
            <path id="Trazado_992919" data-name="Trazado 992919" d="M40.6,62.653l3.348-1.934,3.416,1.98-3.348,1.936Z" transform="translate(34.043 50.917)" fill="#114269"/>
            <path id="Trazado_992920" data-name="Trazado 992920" d="M42.625,61.479l3.346-1.93,3.416,1.986-3.348,1.929Z" transform="translate(35.744 49.935)" fill="#114269"/>
            <path id="Trazado_992921" data-name="Trazado 992921" d="M44.676,60.294l3.348-1.929,3.414,1.98-3.352,1.936Z" transform="translate(37.463 48.943)" fill="#114269"/>
            <path id="Trazado_992922" data-name="Trazado 992922" d="M46.7,59.128,50.05,57.2l3.416,1.98-3.35,1.934Z" transform="translate(39.161 47.962)" fill="#114269"/>
            <path id="Trazado_992923" data-name="Trazado 992923" d="M27.642,71.424l8.246-4.764,3.418,1.982L31.052,73.41Z" transform="translate(23.179 55.898)" fill="#114269"/>
          </g>
        </g>
        <g id="Grupo_1177389" data-name="Grupo 1177389" transform="translate(73.044 87.701)">
          <g id="Grupo_1177388" data-name="Grupo 1177388" clip-path="url(#clip-path-2)">
            <path id="Trazado_992924" data-name="Trazado 992924" d="M39.729,49.378l.006,2.916a2.046,2.046,0,0,0,1.2-1.679L40.93,47.7a2.041,2.041,0,0,1-1.2,1.677" transform="translate(-39.729 -47.701)" fill="#999a9c"/>
          </g>
        </g>
        <g id="Grupo_1177391" data-name="Grupo 1177391" transform="translate(23.738 95.837)">
          <g id="Grupo_1177390" data-name="Grupo 1177390" clip-path="url(#clip-path-3)">
            <path id="Trazado_992926" data-name="Trazado 992926" d="M12.911,52.127l0,2.918a1.077,1.077,0,0,0,.033.265l-.011-2.91a1.229,1.229,0,0,1-.024-.272" transform="translate(-12.911 -52.125)" fill="#999a9c"/>
            <path id="Trazado_992927" data-name="Trazado 992927" d="M12.924,52.275l.011,2.91a1.9,1.9,0,0,0,.719,1.1l0-2.916a1.892,1.892,0,0,1-.726-1.09" transform="translate(-12.9 -52.001)" fill="#c0c0c3"/>
            <path id="Trazado_992928" data-name="Trazado 992928" d="M13.318,52.868l.006,2.914a3.486,3.486,0,0,0,.428.291l-.007-2.916a2.926,2.926,0,0,1-.427-.289" transform="translate(-12.57 -51.504)" fill="#e6e7ea"/>
          </g>
        </g>
        <g id="Grupo_1177393" data-name="Grupo 1177393" transform="translate(0 0)">
          <g id="Grupo_1177392" data-name="Grupo 1177392" clip-path="url(#clip-path)">
            <path id="Trazado_992930" data-name="Trazado 992930" d="M13.551,53.025l.007,2.916,14.124,8.205-.009-2.914Z" transform="translate(11.363 44.465)" fill="#d5d6d9"/>
            <path id="Trazado_992931" data-name="Trazado 992931" d="M24.355,64.933l.007,2.912L52.627,51.529l-.007-2.916Z" transform="translate(20.424 40.765)" fill="#7f8082"/>
          </g>
        </g>
        <g id="Grupo_1177395" data-name="Grupo 1177395" transform="translate(39.035 105.697)">
          <g id="Grupo_1177394" data-name="Grupo 1177394" clip-path="url(#clip-path-5)">
            <path id="Trazado_992932" data-name="Trazado 992932" d="M21.231,57.489,21.24,60.4a5.141,5.141,0,0,0,1.747.6l-.009-2.912a5.207,5.207,0,0,1-1.747-.6" transform="translate(-21.231 -57.489)" fill="#e6e7ea"/>
            <path id="Trazado_992933" data-name="Trazado 992933" d="M22.182,57.816l.009,2.912a6.862,6.862,0,0,0,2.044.031l-.009-2.916a6.924,6.924,0,0,1-2.044-.028" transform="translate(-20.434 -57.215)" fill="#c0c0c3"/>
            <path id="Trazado_992934" data-name="Trazado 992934" d="M23.294,58.117l.009,2.914a5.3,5.3,0,0,0,1.951-.629l-.007-2.912a5.3,5.3,0,0,1-1.953.627" transform="translate(-19.501 -57.488)" fill="#999a9c"/>
          </g>
        </g>
        <g id="Grupo_1177397" data-name="Grupo 1177397" transform="translate(0 0)">
          <g id="Grupo_1177396" data-name="Grupo 1177396" clip-path="url(#clip-path)">
            <path id="Trazado_992936" data-name="Trazado 992936" d="M14.109,58.974c-1.6.917-1.6,2.407-.02,3.326l14.122,8.207a6.326,6.326,0,0,0,5.744,0L62.219,54.19c1.594-.921,1.6-2.41.022-3.328L48.117,42.654a6.322,6.322,0,0,0-5.742,0Z" transform="translate(10.823 35.19)" fill="#edf1f4"/>
            <path id="Trazado_992937" data-name="Trazado 992937" d="M23.06,74.786l-5.95-3.453-.125-45.074,5.948,5.374Z" transform="translate(14.243 22.019)" fill="#012738"/>
            <path id="Trazado_992938" data-name="Trazado 992938" d="M22.932,36.927l-5.946-5.374L37.1,19.946l5.946,5.376Z" transform="translate(14.244 16.726)" fill="#0d2d49"/>
            <path id="Trazado_992939" data-name="Trazado 992939" d="M40.329,22.87l.118,43.153-20.1,11.605-.129-43.153Z" transform="translate(16.955 19.178)" fill="#024462"/>
            <path id="Trazado_992940" data-name="Trazado 992940" d="M42.569.23l4.367,2.537A2.441,2.441,0,0,0,44.491,3L40.126.474A2.426,2.426,0,0,1,42.569.23" transform="translate(33.648 0)" fill="#4e4e4f"/>
          </g>
        </g>
        <g id="Grupo_1177399" data-name="Grupo 1177399" transform="translate(73.774)">
          <g id="Grupo_1177398" data-name="Grupo 1177398" clip-path="url(#clip-path-7)">
            <path id="Trazado_992941" data-name="Trazado 992941" d="M44.491,3,40.126.472A2.429,2.429,0,0,1,42.569.23l4.367,2.539A2.444,2.444,0,0,0,44.491,3" transform="translate(-40.126 0)" fill="#024462"/>
          </g>
        </g>
        <g id="Grupo_1177401" data-name="Grupo 1177401" transform="translate(0 0)">
          <g id="Grupo_1177400" data-name="Grupo 1177400" clip-path="url(#clip-path)">
            <path id="Trazado_992943" data-name="Trazado 992943" d="M5.432,55.985,1.067,53.452a2.412,2.412,0,0,1-1-2.2l4.365,2.535a2.4,2.4,0,0,0,1,2.2" transform="translate(0.056 42.977)" fill="#024462"/>
          </g>
        </g>
        <g id="Grupo_1177403" data-name="Grupo 1177403" transform="translate(0.125 94.228)">
          <g id="Grupo_1177402" data-name="Grupo 1177402" clip-path="url(#clip-path-9)">
            <path id="Trazado_992944" data-name="Trazado 992944" d="M5.432,55.985,1.067,53.452a2.412,2.412,0,0,1-1-2.2l4.365,2.535a2.4,2.4,0,0,0,1,2.2" transform="translate(-0.069 -51.251)" fill="#024462"/>
          </g>
        </g>
        <g id="Grupo_1177405" data-name="Grupo 1177405" transform="translate(0 0)">
          <g id="Grupo_1177404" data-name="Grupo 1177404" clip-path="url(#clip-path)">
            <path id="Trazado_992946" data-name="Trazado 992946" d="M4.488,75.324.124,72.789,0,25.566,4.358,28.1Z" transform="translate(0 21.438)" fill="#024462"/>
            <path id="Trazado_992947" data-name="Trazado 992947" d="M6.216,43.4,1.86,40.868,72.213.257l4.365,2.528Z" transform="translate(1.56 0.216)" fill="#024462"/>
          </g>
        </g>
        <g id="Grupo_1177407" data-name="Grupo 1177407" transform="translate(0 41.083)">
          <g id="Grupo_1177406" data-name="Grupo 1177406" clip-path="url(#clip-path-11)">
            <path id="Trazado_992948" data-name="Trazado 992948" d="M4.357,30.8,0,28.264a7.508,7.508,0,0,1,3.42-5.918l4.356,2.532A7.569,7.569,0,0,0,4.357,30.8" transform="translate(0 -22.344)" fill="#024462"/>
          </g>
        </g>
        <g id="Grupo_1177409" data-name="Grupo 1177409" transform="translate(0 0)">
          <g id="Grupo_1177408" data-name="Grupo 1177408" clip-path="url(#clip-path)">
            <path id="Trazado_992950" data-name="Trazado 992950" d="M76.151,1.845c1.894-1.087,3.436-.211,3.44,1.965l.129,47.227A7.525,7.525,0,0,1,76.3,56.956L5.94,97.568c-1.9,1.092-3.436.215-3.44-1.96L2.37,48.382A7.568,7.568,0,0,1,5.79,42.46Z" transform="translate(1.987 1.156)" fill="#025a82"/>
            <path id="Trazado_992951" data-name="Trazado 992951" d="M4.205,46.4a4.277,4.277,0,0,1,1.73-2.991L74.692,3.727l.125,45.348a4.293,4.293,0,0,1-1.734,2.993L4.326,91.754Z" transform="translate(3.526 3.125)" fill="#0dd9d4"/>
            <path id="Trazado_992952" data-name="Trazado 992952" d="M40.011,4.95l0,2.506L53.494,29.594v-2.58Z" transform="translate(33.549 4.151)" fill="#cdced0"/>
            <path id="Trazado_992953" data-name="Trazado 992953" d="M47.343,18.727V21.3l6.742-3.883-.006-2.587Z" transform="translate(39.7 12.439)" fill="#a0a0a1"/>
            <path id="Trazado_992954" data-name="Trazado 992954" d="M40.01,6.453,53.492,28.518l6.736-3.892L45.722,3.157Z" transform="translate(33.551 2.647)" fill="#fafbfd"/>
            <path id="Trazado_992955" data-name="Trazado 992955" d="M36.344,7.066V9.579l13.49,22.133-.006-2.578Z" transform="translate(30.476 5.925)" fill="#c7391c"/>
            <path id="Trazado_992956" data-name="Trazado 992956" d="M43.678,20.843l.006,2.578,6.733-3.89v-2.58Z" transform="translate(36.626 14.214)" fill="#c2556d"/>
            <path id="Trazado_992957" data-name="Trazado 992957" d="M36.344,8.84,49.828,30.908l6.738-3.892L43.084,4.95Z" transform="translate(30.476 4.15)" fill="#ff708f"/>
            <path id="Trazado_992958" data-name="Trazado 992958" d="M33.24,8.859l-.006,2.508L46.722,33.505l0-2.578Z" transform="translate(27.869 7.429)" fill="#cdced0"/>
            <path id="Trazado_992959" data-name="Trazado 992959" d="M40.568,22.638l0,2.578,6.74-3.883L47.3,18.744Z" transform="translate(34.019 15.718)" fill="#a0a0a1"/>
            <path id="Trazado_992960" data-name="Trazado 992960" d="M33.237,10.363,46.716,32.432l6.736-3.894L38.95,7.065Z" transform="translate(27.872 5.924)" fill="#fafbfd"/>
            <path id="Trazado_992961" data-name="Trazado 992961" d="M29.57,10.976V13.49L43.06,35.62l-.006-2.579Z" transform="translate(24.797 9.204)" fill="#c7391c"/>
            <path id="Trazado_992962" data-name="Trazado 992962" d="M36.9,24.752l.006,2.578,6.735-3.89,0-2.578Z" transform="translate(30.947 17.494)" fill="#c2556d"/>
            <path id="Trazado_992963" data-name="Trazado 992963" d="M29.57,12.752,43.054,34.816l6.736-3.889L36.312,8.859Z" transform="translate(24.797 7.429)" fill="#ff708f"/>
            <path id="Trazado_992964" data-name="Trazado 992964" d="M25.907,13.1v2.51L39.395,37.732l-.006-2.578Z" transform="translate(21.725 10.981)" fill="#cdced0"/>
            <path id="Trazado_992965" data-name="Trazado 992965" d="M33.24,26.867l.006,2.58,6.736-3.89-.006-2.578Z" transform="translate(27.874 19.268)" fill="#a0a0a1"/>
            <path id="Trazado_992966" data-name="Trazado 992966" d="M25.907,14.872,39.389,36.931l6.736-3.89L32.642,10.976Z" transform="translate(21.725 9.204)" fill="#fafbfd"/>
            <path id="Trazado_992967" data-name="Trazado 992967" d="M22.244,16.975,35.721,39.043l6.74-3.89L28.979,13.1Z" transform="translate(18.653 10.981)" fill="#ff708f"/>
            <path id="Trazado_992968" data-name="Trazado 992968" d="M22.247,15.206l-.006,2.513,13.49,22.134-.007-2.58Z" transform="translate(18.651 12.751)" fill="#c7391c"/>
            <path id="Trazado_992969" data-name="Trazado 992969" d="M29.574,28.984l.007,2.58,6.738-3.89-.006-2.58Z" transform="translate(24.8 21.042)" fill="#c2556d"/>
            <path id="Trazado_992970" data-name="Trazado 992970" d="M18.615,17.31l-.039,2.541L32.07,41.978,32.059,39.4Z" transform="translate(15.578 14.516)" fill="#cdced0"/>
            <path id="Trazado_992971" data-name="Trazado 992971" d="M25.91,31.1l.011,2.576,6.733-3.889-.007-2.58Z" transform="translate(21.727 22.816)" fill="#a0a0a1"/>
            <path id="Trazado_992972" data-name="Trazado 992972" d="M18.6,19.075,32.041,41.167l6.738-3.892L25.3,15.206Z" transform="translate(15.595 12.751)" fill="#fafbfd"/>
            <path id="Trazado_992973" data-name="Trazado 992973" d="M14.929,19.43l-.017,2.528L28.4,44.091,28.4,41.508Z" transform="translate(12.505 16.293)" fill="#c7391c"/>
            <path id="Trazado_992974" data-name="Trazado 992974" d="M22.246,33.209l.006,2.583,6.742-3.89-.011-2.576Z" transform="translate(18.655 24.592)" fill="#c2556d"/>
            <path id="Trazado_992975" data-name="Trazado 992975" d="M14.922,21.208,28.388,43.286,35.124,39.4,21.68,17.31Z" transform="translate(12.513 14.516)" fill="#ff708f"/>
            <path id="Trazado_992976" data-name="Trazado 992976" d="M11.242,21.554l.011,2.511L24.741,46.2l0-2.58Z" transform="translate(9.427 18.075)" fill="#cdced0"/>
            <path id="Trazado_992977" data-name="Trazado 992977" d="M18.582,35.328l0,2.581,6.738-3.887-.006-2.585Z" transform="translate(15.582 26.362)" fill="#a0a0a1"/>
            <path id="Trazado_992978" data-name="Trazado 992978" d="M11.242,23.335,24.737,45.4l6.736-3.89L18.008,19.43Z" transform="translate(9.427 16.293)" fill="#fafbfd"/>
            <path id="Trazado_992979" data-name="Trazado 992979" d="M7.578,23.67l.006,2.515L21.075,48.314l0-2.578Z" transform="translate(6.355 19.848)" fill="#c7391c"/>
            <path id="Trazado_992980" data-name="Trazado 992980" d="M14.917,37.448l0,2.578,6.738-3.89,0-2.581Z" transform="translate(12.509 28.137)" fill="#c2556d"/>
            <path id="Trazado_992981" data-name="Trazado 992981" d="M7.578,25.443,21.071,47.51l6.738-3.894-13.5-22.061Z" transform="translate(6.355 18.075)" fill="#ff708f"/>
            <path id="Trazado_992982" data-name="Trazado 992982" d="M3.913,25.786,3.922,28.3l13.49,22.138,0-2.585Z" transform="translate(3.281 21.623)" fill="#cdced0"/>
            <path id="Trazado_992983" data-name="Trazado 992983" d="M11.253,39.562l0,2.585,6.736-3.9,0-2.578Z" transform="translate(9.436 29.913)" fill="#a0a0a1"/>
            <path id="Trazado_992984" data-name="Trazado 992984" d="M3.913,27.56l13.5,22.066,6.736-3.89L10.651,23.67Z" transform="translate(3.281 19.848)" fill="#fafbfd"/>
          </g>
        </g>
      </g>
    </g>
  </g>
</svg>
