<svg xmlns="http://www.w3.org/2000/svg" width="84.866" height="88.677" viewBox="0 0 84.866 88.677">
  <g id="Grupo_1179116" data-name="Grupo 1179116" transform="translate(-705 -11064.313)">
    <g id="Grupo_1177585" data-name="Grupo 1177585" transform="translate(694 11064.313)">
      <path id="Trazado_993832" data-name="Trazado 993832" d="M79.952,9.309l-.259.015-5.4,5.4a.68.68,0,0,1-.962,0L63.406,4.805a.681.681,0,0,1,0-.962l1.96-1.96-.05-.2a42.686,42.686,0,0,0-21.606-.568l-.054.191L45.02,2.676a.68.68,0,0,1,0,.962l-10.8,10.8a.681.681,0,0,1-.962,0l-5.54-5.54-.262-.017a42.448,42.448,0,0,0-11.5,53.472l.168.042a13.141,13.141,0,0,1,10.623-9.767,13.1,13.1,0,0,0,11.073.862,3.521,3.521,0,0,0,3.345,2.423h1.7v.028a7.4,7.4,0,0,0,4.08,6.633l.145.074,0,0,.115.053a4.3,4.3,0,0,0,3.958,2.6H55.7a4.3,4.3,0,0,0,3.958-2.6l.107-.049,0,0,.147-.072A7.406,7.406,0,0,0,64,55.938v-.028h1.7a3.52,3.52,0,0,0,3.347-2.42,13.115,13.115,0,0,0,11.072-.864A13.141,13.141,0,0,1,90.74,62.392l.168-.042A42.447,42.447,0,0,0,79.952,9.309Z" transform="translate(0 0)" fill="#62dbfb"/>
      <g id="Grupo_1177584" data-name="Grupo 1177584" transform="translate(15.958 1.121)">
        <path id="Trazado_993833" data-name="Trazado 993833" d="M246.674,35.743a2.567,2.567,0,0,1-1.4.513h-6.907a4.983,4.983,0,0,0-1.871.443l-.435.014a4.617,4.617,0,0,0-1.154.8l-3.314,3.314a2.131,2.131,0,0,0,0,3.01l.177.177a2.134,2.134,0,0,0,3.01,0l3.269-3.269a1.79,1.79,0,0,1,2.521,0l7.266,7.258a1.8,1.8,0,0,1,.35.5l.2.025,5.533-5.534Z" transform="translate(-197.831 -30.673)" fill="#f6a96c"/>
        <g id="Grupo_1177550" data-name="Grupo 1177550" transform="translate(47.075 0.568)">
          <path id="Trazado_993834" data-name="Trazado 993834" d="M313.71,9.75l-2.032,2.032a.854.854,0,0,0,0,1.207L321.6,22.91a.853.853,0,0,0,1.207,0l5.54-5.54A42.309,42.309,0,0,0,313.71,9.75Z" transform="translate(-311.428 -9.75)" fill="#fd6930"/>
        </g>
        <path id="Trazado_993835" data-name="Trazado 993835" d="M316.107,12.99a.854.854,0,0,1,0-1.207l.914-.914c-1.083-.416-2.187-.791-3.311-1.118l-2.032,2.032a.854.854,0,0,0,0,1.207l9.921,9.921a.853.853,0,0,0,1.207,0l1.611-1.611Z" transform="translate(-264.353 -9.183)" fill="#fd5426"/>
        <g id="Grupo_1177556" data-name="Grupo 1177556" transform="translate(0 26.937)">
          <g id="Grupo_1177553" data-name="Grupo 1177553" transform="translate(43.724)">
            <path id="Trazado_993836" data-name="Trazado 993836" d="M312.482,302.8a12.942,12.942,0,0,1-10.978.883l-.169-.063-.057.171a3.347,3.347,0,0,1-3.182,2.3h-1.869v.2a7.23,7.23,0,0,1-3.985,6.478l-.163.083,1.655,2.867h7.857a6.762,6.762,0,0,1,6.755,6.755v6.281a42.63,42.63,0,0,0,14.96-16.051,13.36,13.36,0,0,0-10.823-9.906Z" transform="translate(-292.079 -278.415)" fill="#08a9f1"/>
            <g id="Grupo_1177551" data-name="Grupo 1177551" transform="translate(0.241 25.431)">
              <path id="Trazado_993837" data-name="Trazado 993837" d="M302.6,308.834a3.526,3.526,0,0,1-3.347,2.42h-1.7v.028a7.431,7.431,0,0,1-4.08,6.633l1.514,2.622h3.407a13.33,13.33,0,0,1,6.559-11.064A13.033,13.033,0,0,1,302.6,308.834Z" transform="translate(-293.473 -308.834)" fill="#0290cf"/>
            </g>
            <g id="Grupo_1177552" data-name="Grupo 1177552" transform="translate(2.608)">
              <path id="Trazado_993838" data-name="Trazado 993838" d="M318.513,162a13.125,13.125,0,0,0-11.374,6.57,8.1,8.1,0,0,1,4.773,7.375v6.164l.1.047a3.33,3.33,0,0,1,1.892,3.014v1.154a3.337,3.337,0,0,1-.168,1.042A13.134,13.134,0,1,0,318.513,162Z" transform="translate(-307.139 -162)" fill="#01c0fa"/>
            </g>
          </g>
          <g id="Grupo_1177555" data-name="Grupo 1177555">
            <path id="Trazado_993839" data-name="Trazado 993839" d="M70.69,312.772a7.23,7.23,0,0,1-3.985-6.478v-.2H64.836a3.356,3.356,0,0,1-3.247-2.531.346.346,0,0,0-.082.09A12.932,12.932,0,0,1,50.45,302.8a13.36,13.36,0,0,0-10.823,9.906,42.63,42.63,0,0,0,14.959,16.051v-6.281a6.762,6.762,0,0,1,6.755-6.755H69.2l1.655-2.867Z" transform="translate(-39.627 -278.414)" fill="#08a9f1"/>
            <path id="Trazado_993840" data-name="Trazado 993840" d="M50.174,303.068a13.363,13.363,0,0,0-10.547,9.859A42.589,42.589,0,0,0,48.444,324.3v-8.1a13.33,13.33,0,0,1,6.48-11.439A13.04,13.04,0,0,1,50.174,303.068Z" transform="translate(-39.627 -278.636)" fill="#0290cf"/>
            <path id="Trazado_993841" data-name="Trazado 993841" d="M81.268,187.367a3.337,3.337,0,0,1-.168-1.042v-1.154a3.331,3.331,0,0,1,1.892-3.014l.1-.047v-14a1.962,1.962,0,0,1,1.96-1.96h1.014a13.133,13.133,0,1,0-4.8,21.218Z" transform="translate(-59.244 -162)" fill="#01c0fa"/>
            <path id="Trazado_993842" data-name="Trazado 993842" d="M70.338,175.135a13.137,13.137,0,0,1,9.641-12.661,13.134,13.134,0,1,0,0,25.322A13.138,13.138,0,0,1,70.338,175.135Z" transform="translate(-59.245 -162.001)" fill="#08a9f1"/>
            <g id="Grupo_1177554" data-name="Grupo 1177554" transform="translate(46.332 0)">
              <path id="Trazado_993843" data-name="Trazado 993843" d="M312.363,175.135A13.137,13.137,0,0,1,322,162.474a13.128,13.128,0,0,0-14.865,6.1,8.1,8.1,0,0,1,4.773,7.375v6.164l.1.047a3.33,3.33,0,0,1,1.892,3.014v1.154a3.336,3.336,0,0,1-.168,1.042A13.123,13.123,0,0,0,322,187.8a13.138,13.138,0,0,1-9.642-12.661Z" transform="translate(-307.139 -162.001)" fill="#08a9f1"/>
            </g>
          </g>
        </g>
        <g id="Grupo_1177562" data-name="Grupo 1177562" transform="translate(11.502)">
          <g id="Grupo_1177561" data-name="Grupo 1177561">
            <path id="Trazado_993844" data-name="Trazado 993844" d="M193.027,50.343l-.01-.01-7.266-7.258a1.963,1.963,0,0,0-2.766,0l-3.269,3.269a1.961,1.961,0,0,1-2.765,0l-.177-.177a1.961,1.961,0,0,1,0-2.765l3.314-3.314a4.831,4.831,0,0,1,1.467-.94,4.329,4.329,0,0,0-1.9-.443h-6.8c-.014.016-.025.034-.04.049l-8.29,8.29,2.648,2.648.662-.662a1.788,1.788,0,0,1,2.52,0l.177.177a1.788,1.788,0,0,1,0,2.52l.245.245a1.788,1.788,0,0,1,2.52,0l.177.177a1.784,1.784,0,0,1,0,2.52l.245.245a1.788,1.788,0,0,1,2.52,0l.177.177a1.784,1.784,0,0,1,0,2.52l-.159.159.2.277a1.8,1.8,0,0,1,.808-.191,1.767,1.767,0,0,1,1.259.519l.177.177a1.784,1.784,0,0,1,0,2.52l-.074.074.415.415.125.125a1.961,1.961,0,0,0,2.765,0l.386-.386a1.961,1.961,0,0,0,0-2.765l1.259,1.259a1.961,1.961,0,0,0,2.765,0l.386-.386a1.961,1.961,0,0,0,0-2.765,1.961,1.961,0,0,0,2.765,0l.386-.386a1.961,1.961,0,0,0,0-2.765,1.961,1.961,0,0,0,2.765,0l.386-.386a1.96,1.96,0,0,0,0-2.765Z" transform="translate(-154.391 -33.124)" fill="#fed2a4"/>
            <path id="Trazado_993845" data-name="Trazado 993845" d="M171.463,48.937a2.6,2.6,0,0,1,0-3.674l6.555-6.555H172.85c-.014.016-.025.034-.04.049l-8.29,8.29,2.648,2.648.662-.662a1.788,1.788,0,0,1,2.52,0l.177.177a1.788,1.788,0,0,1,0,2.52l.245.245a1.788,1.788,0,0,1,2.52,0l.177.177a1.784,1.784,0,0,1,0,2.52l.245.245a1.788,1.788,0,0,1,2.52,0l.177.177a1.784,1.784,0,0,1,0,2.52l-.159.159.2.277a1.8,1.8,0,0,1,.808-.191,1.768,1.768,0,0,1,1.259.519l.177.177a1.784,1.784,0,0,1,0,2.52l-.074.074.415.415.125.125a1.961,1.961,0,0,0,2.765,0l.386-.386a1.935,1.935,0,0,0,.527-.987Z" transform="translate(-154.392 -33.125)" fill="#ffbd86"/>
            <g id="Grupo_1177557" data-name="Grupo 1177557" transform="translate(11.418 15.215)">
              <path id="Trazado_993846" data-name="Trazado 993846" d="M184.977,104.413l-.177-.177a1.962,1.962,0,0,0-2.267-.36l.159-.159a1.961,1.961,0,0,0,0-2.765l-.177-.177a1.961,1.961,0,0,0-2.765,0,1.961,1.961,0,0,0,0-2.765l-.177-.177a1.961,1.961,0,0,0-2.765,0,1.961,1.961,0,0,0,0-2.765l-.177-.177a1.961,1.961,0,0,0-2.765,0l-1.328,1.328a1.961,1.961,0,0,0,0,2.765l.177.177a1.961,1.961,0,0,0,2.765,0,1.961,1.961,0,0,0,0,2.765l.177.177a1.961,1.961,0,0,0,2.765,0,1.961,1.961,0,0,0,0,2.765l.177.177a1.961,1.961,0,0,0,2.765,0l.159-.159a1.962,1.962,0,0,0,.36,2.267l.177.177a1.961,1.961,0,0,0,2.765,0l.152-.152A1.961,1.961,0,0,0,184.977,104.413Z" transform="translate(-171.968 -94.32)" fill="#f6a96c"/>
            </g>
            <path id="Trazado_993847" data-name="Trazado 993847" d="M183,110.984l-.177-.177a1.96,1.96,0,0,1-.448-2.062.043.043,0,0,0-.07-.045,1.961,1.961,0,0,1-2.765,0l-.177-.177a1.963,1.963,0,0,1-.253-2.454.042.042,0,0,0-.058-.058,1.963,1.963,0,0,1-2.454-.253l-.177-.177a1.963,1.963,0,0,1-.253-2.454.042.042,0,0,0-.058-.058,1.963,1.963,0,0,1-2.454-.253l-.177-.177a1.961,1.961,0,0,1,0-2.765l-.937.937a1.961,1.961,0,0,0,0,2.765l.177.177a1.961,1.961,0,0,0,2.765,0,1.961,1.961,0,0,0,0,2.765l.177.177a1.961,1.961,0,0,0,2.765,0,1.961,1.961,0,0,0,0,2.765l.177.177a1.961,1.961,0,0,0,2.765,0l.159-.159a1.962,1.962,0,0,0,.36,2.267l.177.177a1.961,1.961,0,0,0,2.765,0l.152-.152a1.937,1.937,0,0,0,.331-.448A1.961,1.961,0,0,1,183,110.984Z" transform="translate(-160.547 -83.695)" fill="#ea9b58"/>
            <g id="Grupo_1177560" data-name="Grupo 1177560">
              <g id="Grupo_1177558" data-name="Grupo 1177558" transform="translate(7.251 3.005)">
                <path id="Trazado_993848" data-name="Trazado 993848" d="M159.2,25.293l-1.469-1.469-9.82,9.82,1.469,1.469a.908.908,0,0,0,1.28,0l8.541-8.541A.908.908,0,0,0,159.2,25.293Z" transform="translate(-147.907 -23.824)" fill="#fff"/>
              </g>
              <path id="Trazado_993849" data-name="Trazado 993849" d="M159.08,31.636l-7.023,7.023a.908.908,0,0,1-1.28,0l-.713-.713L147.906,40.1l1.469,1.469a.908.908,0,0,0,1.28,0l8.541-8.541a.908.908,0,0,0,0-1.28Z" transform="translate(-140.655 -27.278)" fill="#f2fbff"/>
              <g id="Grupo_1177559" data-name="Grupo 1177559">
                <path id="Trazado_993850" data-name="Trazado 993850" d="M111.719,19.907a.854.854,0,0,0,1.207,0l10.8-10.8a.854.854,0,0,0,0-1.207l-1.433-1.433a42.259,42.259,0,0,0-16.249,7.757Z" transform="translate(-106.04 -6.471)" fill="#6e61b6"/>
              </g>
              <path id="Trazado_993851" data-name="Trazado 993851" d="M122.5,7.7l-9.328,9.328a.854.854,0,0,1-1.207,0l-3.516-3.516q-1.235.826-2.41,1.733l5.679,5.679a.854.854,0,0,0,1.207,0l10.8-10.8a.854.854,0,0,0,0-1.207Z" transform="translate(-106.041 -7.485)" fill="#6354b1"/>
            </g>
          </g>
        </g>
        <g id="Grupo_1177583" data-name="Grupo 1177583" transform="translate(14.786 30.913)">
          <g id="Grupo_1177565" data-name="Grupo 1177565" transform="translate(8.886)">
            <path id="Trazado_993852" data-name="Trazado 993852" d="M287,199.388v4.1a3.559,3.559,0,0,1,3.317,3.545v1.914h1.869a3.328,3.328,0,0,1,1.537.376v-6.249a8.262,8.262,0,0,0-8.262-8.262h-.53A6.1,6.1,0,0,1,287,199.388Z" transform="translate(-266.117 -193.105)" fill="#554e56"/>
            <path id="Trazado_993853" data-name="Trazado 993853" d="M177.842,200.8h1.869v-1.914a3.561,3.561,0,0,1,3.557-3.557h13.679a3.571,3.571,0,0,1,.413.026v-4.113a6.283,6.283,0,0,0-6.283-6.283H178.438a2.133,2.133,0,0,0-2.133,2.133v14.084A3.329,3.329,0,0,1,177.842,200.8Z" transform="translate(-176.305 -184.959)" fill="#685e68"/>
            <g id="Grupo_1177563" data-name="Grupo 1177563" transform="translate(0)">
              <path id="Trazado_993854" data-name="Trazado 993854" d="M182.142,187.092a2.133,2.133,0,0,1,2.133-2.133h-5.836a2.133,2.133,0,0,0-2.133,2.133v14.085a3.328,3.328,0,0,1,1.537-.376h1.869v-1.914a3.561,3.561,0,0,1,2.429-3.371Z" transform="translate(-176.306 -184.959)" fill="#554e56"/>
            </g>
            <g id="Grupo_1177564" data-name="Grupo 1177564" transform="translate(0 12.372)">
              <path id="Trazado_993855" data-name="Trazado 993855" d="M314.293,257.946v1.914h1.87a3.328,3.328,0,0,1,1.537.376V256.39H313.93A3.529,3.529,0,0,1,314.293,257.946Z" transform="translate(-290.094 -256.39)" fill="#918291"/>
              <path id="Trazado_993856" data-name="Trazado 993856" d="M177.843,259.86h1.869v-1.914a3.528,3.528,0,0,1,.363-1.556h-3.769v3.846A3.328,3.328,0,0,1,177.843,259.86Z" transform="translate(-176.306 -256.39)" fill="#918291"/>
            </g>
          </g>
          <g id="Grupo_1177570" data-name="Grupo 1177570" transform="translate(0 30.384)">
            <g id="Grupo_1177566" data-name="Grupo 1177566" transform="translate(0 2.774)">
              <path id="Trazado_993857" data-name="Trazado 993857" d="M163.45,376.405H131.928A6.928,6.928,0,0,0,125,383.333v13.093a3.464,3.464,0,0,0,3.464,3.464h38.45a3.464,3.464,0,0,0,3.464-3.464V383.333A6.928,6.928,0,0,0,163.45,376.405Z" transform="translate(-125 -376.405)" fill="#554e56"/>
            </g>
            <path id="Trazado_993858" data-name="Trazado 993858" d="M132.1,396.511V383.283a7,7,0,0,1,5.7-6.878h-5.877A6.928,6.928,0,0,0,125,383.333v13.093a3.464,3.464,0,0,0,3.464,3.464H134.7A3.5,3.5,0,0,1,132.1,396.511Z" transform="translate(-125 -373.631)" fill="#433f43"/>
            <path id="Trazado_993859" data-name="Trazado 993859" d="M211.751,369.328l-5.16-8.938c-.1.051-.2.1-.308.145a4.146,4.146,0,0,1-3.825,2.558H197.92a4.146,4.146,0,0,1-3.825-2.558c-.1-.047-.207-.094-.308-.145l-5.16,8.938a.962.962,0,0,0,.262,1.255l3.232,2.383h-2.259a.962.962,0,0,0-.833,1.442l7.067,12.24h8.185l7.067-12.24a.961.961,0,0,0-.833-1.442h-2.259l3.232-2.383A.961.961,0,0,0,211.751,369.328Z" transform="translate(-177.499 -360.39)" fill="#685e68"/>
            <path id="Trazado_993860" data-name="Trazado 993860" d="M238.52,414.98l-3.738-3.141a.693.693,0,0,0-.892,0l-3.738,3.141-.354.524,2.232,9.331.176-.009.922-7.172.523.584a.92.92,0,0,0,1.371,0l.523-.585.919,7.181h.178l2.232-9.331Z" transform="translate(-211.647 -402.793)" fill="#f2fbff"/>
            <g id="Grupo_1177567" data-name="Grupo 1177567" transform="translate(20.383 14.462)">
              <path id="Trazado_993861" data-name="Trazado 993861" d="M245.55,444.757a.747.747,0,0,1-1.113,0l-.775-.867-.974,7.579,1.009,4.218h2.593l1.009-4.218-.974-7.579Z" transform="translate(-242.688 -443.89)" fill="#01d0fb"/>
            </g>
            <path id="Trazado_993862" data-name="Trazado 993862" d="M244.936,446.258a.911.911,0,0,1-.629-.3l-.675-.755-.945,7.352,1.009,4.217h1.44l-1.009-4.218Z" transform="translate(-222.304 -430.513)" fill="#01c0fa"/>
            <g id="Grupo_1177568" data-name="Grupo 1177568" transform="translate(18.838 8.883)">
              <path id="Trazado_993863" data-name="Trazado 993863" d="M238.065,411.839a.693.693,0,0,0-.892,0l-3.4,2.861,3.165,3.538a.92.92,0,0,0,1.371,0l3.165-3.538Z" transform="translate(-233.769 -411.676)" fill="#01c0fa"/>
            </g>
            <g id="Grupo_1177569" data-name="Grupo 1177569" transform="translate(18.838 10.628)">
              <path id="Trazado_993864" data-name="Trazado 993864" d="M235.289,421.755l-1.52,1.278,3.165,3.538a.92.92,0,0,0,1.371,0l.7-.778a.912.912,0,0,1-.293-.216Z" transform="translate(-233.769 -421.755)" fill="#08a9f1"/>
            </g>
            <path id="Trazado_993865" data-name="Trazado 993865" d="M231.826,375.9l-2.119-1.613a4.116,4.116,0,0,1-1.538.3h-4.537a4.116,4.116,0,0,1-1.538-.3l-2.119,1.613a.962.962,0,0,0-.379.765l1.767,7.925,4.2-3.532a.519.519,0,0,1,.669,0l4.2,3.532,1.767-7.925A.961.961,0,0,0,231.826,375.9Z" transform="translate(-203.211 -371.876)" fill="#fff"/>
            <path id="Trazado_993866" data-name="Trazado 993866" d="M237.8,373.482h-4.537a4.114,4.114,0,0,1-2.019-.528V374.9a.64.64,0,0,0,.187.453L235.081,379a.64.64,0,0,0,.9,0l3.647-3.648a.64.64,0,0,0,.187-.453v-1.947a4.114,4.114,0,0,1-2.019.528Z" transform="translate(-212.845 -370.778)" fill="#ffbd86"/>
          </g>
          <g id="Grupo_1177571" data-name="Grupo 1177571" transform="translate(6.896 15.668)">
            <path id="Trazado_993867" data-name="Trazado 993867" d="M170.214,275.423h-1.869a3.526,3.526,0,0,0-3.526,3.526V280.1a3.526,3.526,0,0,0,3.526,3.526h1.869Z" transform="translate(-164.818 -275.423)" fill="#f6a96c"/>
            <path id="Trazado_993868" data-name="Trazado 993868" d="M317.9,275.423h-1.87v8.207h1.87a3.526,3.526,0,0,0,3.526-3.526v-1.154A3.526,3.526,0,0,0,317.9,275.423Z" transform="translate(-289.838 -275.423)" fill="#ffbd86"/>
          </g>
          <g id="Grupo_1177573" data-name="Grupo 1177573" transform="translate(12.119 10.197)">
            <g id="Grupo_1177572" data-name="Grupo 1177572">
              <path id="Trazado_993869" data-name="Trazado 993869" d="M208.68,264.972h-6.274a7.433,7.433,0,0,1-7.433-7.433v-9.976a3.73,3.73,0,0,1,3.73-3.73h13.678a3.73,3.73,0,0,1,3.73,3.73v9.976A7.433,7.433,0,0,1,208.68,264.972Z" transform="translate(-194.973 -243.833)" fill="#fed2a4"/>
            </g>
          </g>
          <g id="Grupo_1177574" data-name="Grupo 1177574" transform="translate(12.119 10.197)">
            <path id="Trazado_993870" data-name="Trazado 993870" d="M198.961,262.584v-4.953a2.164,2.164,0,0,1,1.9-2.146v-7.921a3.73,3.73,0,0,1,3.73-3.73H198.7a3.73,3.73,0,0,0-3.73,3.73v9.976a7.432,7.432,0,0,0,4.344,6.76A4.3,4.3,0,0,1,198.961,262.584Z" transform="translate(-194.973 -243.833)" fill="#ffbd86"/>
          </g>
          <g id="Grupo_1177575" data-name="Grupo 1177575" transform="translate(16.107 21.83)">
            <path id="Trazado_993871" data-name="Trazado 993871" d="M229,311h-1.992a1.039,1.039,0,0,0,0,2.078h.693a.866.866,0,0,1,.866.866v2.209a3.16,3.16,0,0,1-3.16,3.16h-1.646a3.16,3.16,0,0,1-3.16-3.16v-2.209a.866.866,0,0,1,.866-.866h.693a1.039,1.039,0,0,0,0-2.078h-1.992A2.165,2.165,0,0,0,218,313.165v4.953a4.313,4.313,0,0,0,4.313,4.313h4.537a4.313,4.313,0,0,0,4.313-4.313v-4.953A2.165,2.165,0,0,0,229,311Z" transform="translate(-218 -311)" fill="#685e68"/>
          </g>
          <g id="Grupo_1177576" data-name="Grupo 1177576" transform="translate(16.107 21.83)">
            <path id="Trazado_993872" data-name="Trazado 993872" d="M219.905,318.119v-4.953A2.165,2.165,0,0,1,222.07,311h-1.905A2.165,2.165,0,0,0,218,313.166v4.953a4.313,4.313,0,0,0,4.313,4.313h1.905A4.313,4.313,0,0,1,219.905,318.119Z" transform="translate(-218 -311.001)" fill="#554e56"/>
          </g>
          <g id="Grupo_1177581" data-name="Grupo 1177581" transform="translate(15.566 14.686)">
            <g id="Grupo_1177577" data-name="Grupo 1177577" transform="translate(3.572 10.053)">
              <path id="Trazado_993873" data-name="Trazado 993873" d="M239.05,331.206a4.823,4.823,0,0,1-3.08-1.107,1.3,1.3,0,0,1,1.656-2,2.236,2.236,0,0,0,2.847,0,1.3,1.3,0,0,1,1.656,2A4.823,4.823,0,0,1,239.05,331.206Z" transform="translate(-235.5 -327.798)" fill="#d88a55"/>
            </g>
            <g id="Grupo_1177580" data-name="Grupo 1177580">
              <g id="Grupo_1177578" data-name="Grupo 1177578">
                <path id="Trazado_993874" data-name="Trazado 993874" d="M216.173,273.985a1.3,1.3,0,0,1-1.3-1.3v-1.634a1.3,1.3,0,0,1,2.6,0v1.634A1.3,1.3,0,0,1,216.173,273.985Z" transform="translate(-214.874 -269.753)" fill="#d88a55"/>
              </g>
              <g id="Grupo_1177579" data-name="Grupo 1177579" transform="translate(11.648)">
                <path id="Trazado_993875" data-name="Trazado 993875" d="M283.424,273.985a1.3,1.3,0,0,1-1.3-1.3v-1.634a1.3,1.3,0,0,1,2.6,0v1.634A1.3,1.3,0,0,1,283.424,273.985Z" transform="translate(-282.125 -269.753)" fill="#d88a55"/>
              </g>
            </g>
          </g>
          <g id="Grupo_1177582" data-name="Grupo 1177582" transform="translate(19.311 15.478)">
            <path id="Trazado_993876" data-name="Trazado 993876" d="M239.876,281.1a1.294,1.294,0,0,1-.717-.217l-2.078-1.379a1.3,1.3,0,0,1-.325-1.856l2.078-2.8a1.3,1.3,0,0,1,2.087,1.548l-1.263,1.7.938.622a1.3,1.3,0,0,1-.719,2.382Z" transform="translate(-236.499 -274.324)" fill="#d88a55"/>
          </g>
        </g>
      </g>
    </g>
  </g>
</svg>
