<svg xmlns="http://www.w3.org/2000/svg" width="85" height="85" viewBox="0 0 85 85">
  <g id="Grupo_1179115" data-name="Grupo 1179115" transform="translate(-705 -1349.42)">
    <g id="Grupo_1177133" data-name="Grupo 1177133">
      <rect id="Rectángulo_402006" data-name="Rectángulo 402006" width="85" height="85" rx="5" transform="translate(705 1349.42)" fill="#1e3a8a"/>
      <g id="Grupo_1177132" data-name="Grupo 1177132" transform="translate(714 1358.42)">
        <g id="Grupo_1177131" data-name="Grupo 1177131" transform="translate(0 0)">
          <path id="Trazado_992390" data-name="Trazado 992390" d="M188.024,177.789a10.235,10.235,0,1,0,10.235,10.235A10.246,10.246,0,0,0,188.024,177.789Zm0,18.506a8.272,8.272,0,1,1,8.272-8.272A8.281,8.281,0,0,1,188.024,196.3Z" transform="translate(-154.524 -154.524)" fill="#38ce65"/>
          <path id="Trazado_992391" data-name="Trazado 992391" d="M231.048,233.391l-3.336,3.336-1.565-1.565a.981.981,0,0,0-1.388,1.388l2.259,2.259a.981.981,0,0,0,1.388,0l4.03-4.03a.981.981,0,0,0-1.388-1.388Z" transform="translate(-195.098 -202.6)" fill="#38ce65"/>
          <path id="Trazado_992392" data-name="Trazado 992392" d="M350.479,14.892a.981.981,0,0,0,.981-.981V8.748a3.082,3.082,0,0,0-1.425-2.607L341.365.583a3.68,3.68,0,0,0-.949-.432A3.643,3.643,0,0,0,339.375,0a3.689,3.689,0,0,0-1.991.583l-8.67,5.558a3.084,3.084,0,0,0-1.425,2.607v13.12a2.306,2.306,0,0,0,2.3,2.3h19.565a2.306,2.306,0,0,0,2.3-2.3V18.5a.981.981,0,0,0-1.963,0v3.364a.341.341,0,0,1-.34.34H347.23v-9.33a2.041,2.041,0,0,0-2.039-2.039H333.558a2.041,2.041,0,0,0-2.039,2.039v9.33h-1.927a.341.341,0,0,1-.34-.34V8.748a1.129,1.129,0,0,1,.522-.955l8.669-5.557a1.732,1.732,0,0,1,1.863,0l8.67,5.558a1.127,1.127,0,0,1,.521.954V13.91a.981.981,0,0,0,.981.981Zm-17-2.013a.076.076,0,0,1,.076-.076h11.633a.076.076,0,0,1,.076.076v9.33H333.482Z" transform="translate(-284.46 0)" fill="#38ce65"/>
          <path id="Trazado_992393" data-name="Trazado 992393" d="M2.3,24.171H21.868a2.306,2.306,0,0,0,2.3-2.3V19.426a.981.981,0,1,0-1.963,0v2.442a.341.341,0,0,1-.34.34H2.3a.341.341,0,0,1-.34-.34V12.895a.34.34,0,0,1,.186-.3L7.4,9.911v2.174a.981.981,0,0,0,1.427.874l5.975-3.048v2.174a.981.981,0,0,0,1.427.874l5.975-3.048v4.922a.981.981,0,0,0,1.963,0V9.6a1.775,1.775,0,0,0-2.582-1.581l-4.821,2.459V9.6a1.775,1.775,0,0,0-2.582-1.581L9.366,10.482V9.6a1.759,1.759,0,0,0-.623-1.348l-.635-6.65A1.768,1.768,0,0,0,6.341,0h-2A1.768,1.768,0,0,0,2.58,1.607l-.86,9-.465.237A2.3,2.3,0,0,0,0,12.895v8.973a2.306,2.306,0,0,0,2.3,2.3ZM4.518,1.963H6.17L6.75,8.04,3.793,9.549Z" transform="translate(0 0)" fill="#38ce65"/>
          <path id="Trazado_992394" data-name="Trazado 992394" d="M396.964,50.508a.981.981,0,1,0,0,1.963h4.23a.981.981,0,1,0,0-1.963Z" transform="translate(-344.165 -43.899)" fill="#38ce65"/>
          <path id="Trazado_992395" data-name="Trazado 992395" d="M349.159,349.52h-2.526a.981.981,0,0,0,0,1.963h2.526a.341.341,0,0,1,.34.34v14.353h-.817a3.624,3.624,0,0,0-6.978,0h-4.519V351.823a.341.341,0,0,1,.34-.34h4.515a.981.981,0,0,0,0-1.963h-4.515a2.306,2.306,0,0,0-2.3,2.3v1.662H333.16a2.55,2.55,0,0,0-1.815.752l-3.3,3.3a2.551,2.551,0,0,0-.752,1.815v7.01a1.776,1.776,0,0,0,1.774,1.774h1.006a3.624,3.624,0,0,0,6.978,0H341.7a3.624,3.624,0,0,0,6.978,0h1.006a1.776,1.776,0,0,0,1.774-1.774V351.823A2.306,2.306,0,0,0,349.159,349.52Zm-19.9,9.834a.6.6,0,0,1,.177-.428l3.3-3.3a.6.6,0,0,1,.427-.177h2.062v8.489a3.621,3.621,0,0,0-5.151,2.239h-.817Zm4.306,9.465a1.662,1.662,0,1,1,1.662-1.662A1.664,1.664,0,0,1,333.56,368.819Zm11.633,0a1.662,1.662,0,1,1,1.662-1.662A1.664,1.664,0,0,1,345.193,368.819Z" transform="translate(-284.462 -303.782)" fill="#38ce65"/>
          <path id="Trazado_992396" data-name="Trazado 992396" d="M12.085,327.292a12.085,12.085,0,1,0,12.085,12.085A12.1,12.1,0,0,0,12.085,327.292Zm0,22.208a10.122,10.122,0,1,1,10.122-10.122A10.134,10.134,0,0,1,12.085,349.5Z" transform="translate(0 -284.463)" fill="#38ce65"/>
          <path id="Trazado_992397" data-name="Trazado 992397" d="M68.046,366.485a10.784,10.784,0,0,1-2.752-1.282,1.367,1.367,0,0,1-.46-1.25,1.262,1.262,0,0,1,.925-.986,2.461,2.461,0,0,1,2.317.513.981.981,0,0,0,1.331-1.443,4.87,4.87,0,0,0-1.881-1.007V360.6a.981.981,0,1,0-1.963,0v.384a4.127,4.127,0,0,0-.468.137,3.215,3.215,0,0,0-2.2,2.521,3.319,3.319,0,0,0,1.186,3.108,11.546,11.546,0,0,0,3.309,1.588,1.533,1.533,0,0,1,1.107,1.8,1.976,1.976,0,0,1-1.961,1.667,3.176,3.176,0,0,1-2.282-.6.981.981,0,0,0-1.075,1.643,4.754,4.754,0,0,0,2.382.892v.61a.981.981,0,1,0,1.963,0v-.7a3.993,3.993,0,0,0,2.908-3.181A3.513,3.513,0,0,0,68.046,366.485Z" transform="translate(-54.527 -312.558)" fill="#38ce65"/>
          <path id="Trazado_992398" data-name="Trazado 992398" d="M203.014,86.817h12.161a.981.981,0,1,0,0-1.963H203.014a.981.981,0,1,0,0,1.963Z" transform="translate(-175.595 -73.75)" fill="#38ce65"/>
          <path id="Trazado_992399" data-name="Trazado 992399" d="M414.109,215.175V203.013a.981.981,0,0,0-1.963,0v12.161a.981.981,0,0,0,1.963,0Z" transform="translate(-358.213 -175.594)" fill="#38ce65"/>
          <path id="Trazado_992400" data-name="Trazado 992400" d="M215.176,412.146H203.014a.981.981,0,0,0,0,1.963h12.161a.981.981,0,0,0,0-1.963Z" transform="translate(-175.595 -358.213)" fill="#38ce65"/>
          <path id="Trazado_992401" data-name="Trazado 992401" d="M84.854,203.014v12.161a.981.981,0,1,0,1.963,0V203.014a.981.981,0,1,0-1.963,0Z" transform="translate(-73.75 -175.595)" fill="#38ce65"/>
        </g>
      </g>
    </g>
  </g>
</svg>
