<svg xmlns="http://www.w3.org/2000/svg" xmlns:xlink="http://www.w3.org/1999/xlink" width="191.499" height="170.532" viewBox="0 0 191.499 170.532">
  <defs>
    <clipPath id="clip-path">
      <rect id="Rectángulo_455147" data-name="Rectángulo 455147" width="171.755" height="170.532" fill="none"/>
    </clipPath>
  </defs>
  <g id="Grupo_1179121" data-name="Grupo 1179121" transform="translate(-9218.5 5876.378)">
    <g id="Grupo_1178576" data-name="Grupo 1178576" transform="translate(8515 -11070)">
      <rect id="Rectángulo_401036" data-name="Rectángulo 401036" width="149" height="147" rx="40" transform="translate(705 5206)" fill="none" stroke="#1e3a8a" stroke-miterlimit="10" stroke-width="3"/>
      <g id="Grupo_1178715" data-name="Grupo 1178715" transform="translate(723.244 5193.622)">
        <g id="Grupo_1178714" data-name="Grupo 1178714" clip-path="url(#clip-path)">
          <path id="Trazado_998623" data-name="Trazado 998623" d="M376.226,121.709c.336-.837-.052-1.753-1.172-2.4L363.7,112.727a6.816,6.816,0,0,0-6.206,0l-14.016,8.179a2.17,2.17,0,0,0-1.273,1.813s0-.01,0-.015v.08l-.161,74.163a2.184,2.184,0,0,0,1.295,1.825l11.359,6.575a4.694,4.694,0,0,0,1.141.476,6.836,6.836,0,0,0,5.052-.476l14.022-8.172a2.194,2.194,0,0,0,1.268-1.8l.168-74.257a1.553,1.553,0,0,1-.123.589m-.014.034a1.923,1.923,0,0,1-.184.336,1.918,1.918,0,0,0,.184-.336" transform="translate(-259.608 -84.991)" fill="#dde9fe"/>
          <path id="Trazado_998624" data-name="Trazado 998624" d="M376.356,149.9l-.17,74.258a2.194,2.194,0,0,1-1.264,1.8L360.9,234.131a6.78,6.78,0,0,1-6.195,0l-11.355-6.577a2.184,2.184,0,0,1-1.293-1.826l.156-74.244A2.193,2.193,0,0,0,343.5,153.3l11.355,6.577a6.81,6.81,0,0,0,6.209,0l14.01-8.174a2.184,2.184,0,0,0,1.279-1.8" transform="translate(-259.615 -113.773)" fill="#c7d8ef"/>
          <path id="Trazado_998625" data-name="Trazado 998625" d="M358.411,165.581a6.5,6.5,0,0,1-3.552-.724L343.5,158.279a2.193,2.193,0,0,1-1.293-1.811l-.156,74.244a2.184,2.184,0,0,0,1.293,1.826l11.355,6.577a6.526,6.526,0,0,0,3.708.715Z" transform="translate(-259.615 -118.757)" fill="#b3c9e2"/>
          <path id="Trazado_998626" data-name="Trazado 998626" d="M375.557,119.315c1.715.994,1.724,2.614.02,3.607L361.562,131.1a6.808,6.808,0,0,1-6.2,0l-11.352-6.58c-1.723-1-1.733-2.608-.02-3.607L358,112.735a6.808,6.808,0,0,1,6.2,0Z" transform="translate(-260.111 -84.997)" fill="#dde9fe"/>
          <path id="Trazado_998627" data-name="Trazado 998627" d="M262.346,255.8l-.168,57.847a2.193,2.193,0,0,1-1.268,1.8l-14.022,8.178a6.385,6.385,0,0,1-3.363.731h-.016a7.285,7.285,0,0,1-.861-.08,4.749,4.749,0,0,1-.617-.121,2.835,2.835,0,0,1-.282-.081,4.661,4.661,0,0,1-1.053-.45l-11.358-6.582a2.161,2.161,0,0,1-1.288-1.825l.154-57.84a2.183,2.183,0,0,1,1.275-1.791l14.016-8.179a6.816,6.816,0,0,1,6.206,0l11.352,6.582a2.193,2.193,0,0,1,1.295,1.811" transform="translate(-173.086 -187.209)" fill="#b0c4ff"/>
          <path id="Trazado_998628" data-name="Trazado 998628" d="M262.339,284.57l-.17,57.852a2.194,2.194,0,0,1-1.264,1.8l-14.024,8.174a6.78,6.78,0,0,1-6.195,0l-11.355-6.577a2.184,2.184,0,0,1-1.293-1.826l.156-57.838a2.193,2.193,0,0,0,1.293,1.812l11.354,6.577a6.81,6.81,0,0,0,6.209,0l14.01-8.174a2.184,2.184,0,0,0,1.279-1.8" transform="translate(-173.077 -215.985)" fill="#92b2f9"/>
          <path id="Trazado_998629" data-name="Trazado 998629" d="M244.393,300.25a6.5,6.5,0,0,1-3.552-.724l-11.354-6.577a2.193,2.193,0,0,1-1.293-1.811l-.156,57.838a2.184,2.184,0,0,0,1.293,1.826l11.355,6.577a6.526,6.526,0,0,0,3.708.715Z" transform="translate(-173.077 -220.969)" fill="#7ca2e5"/>
          <path id="Trazado_998630" data-name="Trazado 998630" d="M261.538,253.983c1.715.994,1.723,2.613.02,3.607l-14.015,8.177a6.809,6.809,0,0,1-6.2,0l-11.352-6.58c-1.724-1-1.733-2.608-.02-3.607l14.015-8.177a6.808,6.808,0,0,1,6.2,0Z" transform="translate(-173.573 -187.209)" fill="#b0c4ff"/>
          <path id="Trazado_998631" data-name="Trazado 998631" d="M148.325,384.685l-.168,42.818a2.193,2.193,0,0,1-1.268,1.8l-14.022,8.172a6.837,6.837,0,0,1-5.052.476,4.7,4.7,0,0,1-1.14-.476L115.316,430.9a2.175,2.175,0,0,1-1.288-1.825l.154-42.8a2.193,2.193,0,0,1,1.281-1.8l14.016-8.178a6.8,6.8,0,0,1,6.2,0l11.352,6.582a2.193,2.193,0,0,1,1.295,1.811" transform="translate(-86.545 -285.034)" fill="#dde9fe"/>
          <path id="Trazado_998632" data-name="Trazado 998632" d="M148.32,413.46l-.17,42.821a2.195,2.195,0,0,1-1.264,1.8l-14.024,8.174a6.781,6.781,0,0,1-6.195,0l-11.355-6.577a2.184,2.184,0,0,1-1.293-1.826l.156-42.807a2.193,2.193,0,0,0,1.293,1.812l11.354,6.577a6.81,6.81,0,0,0,6.209,0l14.01-8.174a2.184,2.184,0,0,0,1.279-1.8" transform="translate(-86.539 -313.811)" fill="#c7d8ef"/>
          <path id="Trazado_998633" data-name="Trazado 998633" d="M130.375,429.14a6.5,6.5,0,0,1-3.552-.724l-11.354-6.577a2.194,2.194,0,0,1-1.294-1.811l-.156,42.806a2.183,2.183,0,0,0,1.293,1.826l11.355,6.577a6.522,6.522,0,0,0,3.708.715Z" transform="translate(-86.539 -318.795)" fill="#b3c9e2"/>
          <path id="Trazado_998634" data-name="Trazado 998634" d="M147.52,382.873c1.715.994,1.724,2.614.02,3.607l-14.015,8.177a6.809,6.809,0,0,1-6.2,0l-11.352-6.58c-1.723-1-1.733-2.608-.02-3.607l14.015-8.177a6.809,6.809,0,0,1,6.2,0Z" transform="translate(-87.034 -285.035)" fill="#dde9fe"/>
          <path id="Trazado_998635" data-name="Trazado 998635" d="M34.3,488.964l-.168,33.72a2.193,2.193,0,0,1-1.261,1.8l-14.029,8.172a6.834,6.834,0,0,1-5.052.476,4.693,4.693,0,0,1-1.14-.476L1.3,526.079a2.188,2.188,0,0,1-1.295-1.825L.16,490.541a2.193,2.193,0,0,1,1.281-1.791l14.015-8.178a6.8,6.8,0,0,1,6.2,0l11.352,6.582a2.193,2.193,0,0,1,1.295,1.811" transform="translate(-0.004 -364.18)" fill="#b0c4ff"/>
          <path id="Trazado_998636" data-name="Trazado 998636" d="M34.3,517.736l-.17,33.722a2.195,2.195,0,0,1-1.264,1.8L18.843,561.43a6.78,6.78,0,0,1-6.195,0L1.293,554.852A2.184,2.184,0,0,1,0,553.026l.156-33.708a2.193,2.193,0,0,0,1.293,1.811L12.8,527.707a6.81,6.81,0,0,0,6.209,0l14.01-8.174a2.184,2.184,0,0,0,1.279-1.8" transform="translate(0 -392.955)" fill="#92b2f9"/>
          <path id="Trazado_998637" data-name="Trazado 998637" d="M16.356,533.415a6.5,6.5,0,0,1-3.552-.724L1.449,526.114A2.193,2.193,0,0,1,.156,524.3L0,558.01a2.184,2.184,0,0,0,1.293,1.826l11.355,6.577a6.527,6.527,0,0,0,3.708.715Z" transform="translate(0 -397.939)" fill="#7ca2e5"/>
          <path id="Trazado_998638" data-name="Trazado 998638" d="M33.5,487.15c1.715.994,1.723,2.614.02,3.607l-14.015,8.177a6.809,6.809,0,0,1-6.2,0l-11.352-6.58c-1.723-1-1.733-2.608-.02-3.607l14.015-8.177a6.809,6.809,0,0,1,6.2,0Z" transform="translate(-0.496 -364.179)" fill="#b0c4ff"/>
          <path id="Trazado_998639" data-name="Trazado 998639" d="M141.489,2.191,140.57,16.9a1.277,1.277,0,0,1-.57.946.448.448,0,0,1-.362.054l-3.147-1.087a.462.462,0,0,0-.362.067,1.227,1.227,0,0,0-.476.563c-21.811,49.6-55.914,85.589-91.3,112.144l-3.039-1.764L41.261,109.5c38.665-27.373,66.877-58.705,87.588-95.2a1.475,1.475,0,0,0,.141-.369l-.248-.1c-.013-.007-.02-.007-.027-.013l-3.046-1.771c-.3-.181-.174-.865.255-1.248L137.712.165c.268-.168.463-.194.59-.121L141.315,1.8c.007,0,.013,0,.013.007a.371.371,0,0,1,.161.389" transform="translate(-31.317 -0.004)" fill="#5789dc"/>
          <path id="Trazado_998640" data-name="Trazado 998640" d="M406.643,1.806c-.129-.072-.331-.043-.59.122l-11.79,10.633c-.431.381-.561,1.071-.252,1.251l-3.041-1.768c-.3-.18-.18-.863.252-1.251L403.012.16c.266-.165.46-.194.589-.122Z" transform="translate(-296.615 0)" fill="#4075c1"/>
          <path id="Trazado_998641" data-name="Trazado 998641" d="M128.846,55.469l3.04,1.767c.219.127.226.542,0,.927C111.176,94.656,82.967,125.988,44.3,153.358l-3.04-1.767c38.666-27.369,66.875-58.7,87.589-95.195.222-.385.215-.8,0-.927" transform="translate(-31.317 -42.1)" fill="#3168aa"/>
          <path id="Trazado_998642" data-name="Trazado 998642" d="M44.353,474.394l-3.04-1.767-.052-18.334,3.04,1.767Z" transform="translate(-31.316 -344.804)" fill="#4075c1"/>
          <path id="Trazado_998643" data-name="Trazado 998643" d="M150.33,7.491c.483-.3.758-.147.732.264l-.914,14.707a1.276,1.276,0,0,1-.574.946.435.435,0,0,1-.361.059l-3.148-1.088a.449.449,0,0,0-.359.064,1.225,1.225,0,0,0-.476.566c-21.817,49.6-55.916,85.588-91.3,112.146l-.052-18.333c38.666-27.369,66.875-58.7,87.589-95.195.233-.4.214-.842-.04-.944l-3.107-1.291c-.345-.149-.223-.87.217-1.267Z" transform="translate(-40.89 -5.565)" fill="#5789dc"/>
          <path id="Trazado_998644" data-name="Trazado 998644" d="M67.735,114.394a11.2,11.2,0,0,1-5.052,8.789L55.7,127.236a1.954,1.954,0,0,0-.731.792l-7.32,13.66a1,1,0,0,1-.389.423.346.346,0,0,1-.4.02L43.353,140.1a.422.422,0,0,1-.147-.4l.322-5.421-10.8,6.266a3.535,3.535,0,0,1-3.6.349l-.1-.06-3.408-1.992a3.579,3.579,0,0,1-1.5-3.274l-.067-31.137a11.218,11.218,0,0,1,5.059-8.776L59.06,78.285a3.608,3.608,0,0,1,3.623-.355l3.462,2.033a3.527,3.527,0,0,1,1.516,3.281Z" transform="translate(-18.26 -58.89)" fill="#c7d8ef"/>
          <path id="Trazado_998645" data-name="Trazado 998645" d="M107.012,308.686c0,.2.054.327.162.381l-3.525-2.043a.417.417,0,0,1-.149-.4l.5-8.39a.772.772,0,0,0-.285-.722l3.512,2.057a.731.731,0,0,1,.285.722Z" transform="translate(-78.554 -225.812)" fill="#c7d8ef"/>
          <path id="Trazado_998646" data-name="Trazado 998646" d="M66.2,79.986a3.544,3.544,0,0,0-3.606.354L32.635,97.719a11.158,11.158,0,0,0-5.043,8.771l.067,31.143a3.567,3.567,0,0,0,1.478,3.269l-3.512-2.057a3.574,3.574,0,0,1-1.491-3.269l-.068-31.143a11.209,11.209,0,0,1,5.057-8.772L59.067,78.283a3.6,3.6,0,0,1,3.62-.354Z" transform="translate(-18.267 -58.888)" fill="#c7d8ef"/>
          <path id="Trazado_998647" data-name="Trazado 998647" d="M73.674,86.809c2.8-1.626,5.072-.327,5.081,2.9l.07,31.155a11.185,11.185,0,0,1-5.048,8.784L66.79,133.7a2.027,2.027,0,0,0-.731.792l-7.321,13.663a1.073,1.073,0,0,1-.385.425c-.285.165-.56.056-.54-.355l.5-8.391c.04-.674-.407-.979-.98-.647L43.822,147.02c-2.792,1.62-5.072.315-5.081-2.921l-.07-31.143a11.181,11.181,0,0,1,5.048-8.772Z" transform="translate(-29.351 -65.355)" fill="#dde9fe"/>
          <path id="Trazado_998648" data-name="Trazado 998648" d="M66.3,146.014a2.729,2.729,0,0,0-.7-2.066,2.4,2.4,0,0,0-1.766-.757,2.781,2.781,0,0,0-1.406.395l-13.509,7.836a2.786,2.786,0,0,1-1.3.435c-.769,0-.887-1.062-.888-1.7l-.07-31.144a9.349,9.349,0,0,1,4.089-7.1L80.706,94.544a2.827,2.827,0,0,1,1.313-.441c.757,0,.873,1.051.875,1.677l.069,31.155a9.357,9.357,0,0,1-4.089,7.112L71.889,138.1a3.945,3.945,0,0,0-1.465,1.555l-4.214,7.864Z" transform="translate(-35.417 -71.423)" fill="#fff"/>
          <path id="Trazado_998649" data-name="Trazado 998649" d="M128.169,150.41c5.633-2.923,10.145-.252,10.312,6.172L128.2,162.517Z" transform="translate(-97.279 -113.264)" fill="#b0c4ff"/>
          <path id="Trazado_998650" data-name="Trazado 998650" d="M83.232,170.764l.038,13.385,11.363-6.56c-.408,6.681-5.066,14.445-10.774,17.74-5.981,3.453-10.849.679-10.869-6.2-.019-6.659,4.52-14.73,10.242-18.365" transform="translate(-55.398 -129.608)" fill="#dde9fe"/>
          <path id="Trazado_998651" data-name="Trazado 998651" d="M501.218,617.755l-.755,1.485a55.535,55.535,0,0,1-7.266,10.773c-2.207,2.594-3.481,4.839-2.847,6.582.63,2.159,2.41,3.039,5.236,2.754a11.648,11.648,0,0,0,7.124-3.514l2.928-3,3.205-3.537a5.807,5.807,0,0,0,1.484-3.305,57.883,57.883,0,0,0,.207-8.238Z" transform="translate(-372.046 -468.869)" fill="#54d391"/>
          <path id="Trazado_998652" data-name="Trazado 998652" d="M512.061,625.995a5.787,5.787,0,0,1-1.482,3.3l-3.206,3.534-2.93,3a11.669,11.669,0,0,1-7.12,3.514c-2.38.236-4.019-.347-4.851-1.823a6.191,6.191,0,0,0,3.376.426,11.6,11.6,0,0,0,7.119-3.514l2.93-3,3.205-3.54a5.786,5.786,0,0,0,1.482-3.3,56.4,56.4,0,0,0,.256-6.844h1.429a58.357,58.357,0,0,1-.21,8.24" transform="translate(-373.781 -468.868)" fill="#46c17e"/>
          <path id="Trazado_998653" data-name="Trazado 998653" d="M402.663,586.12l.592,6.331a3.865,3.865,0,0,1-1.977,3.767,13.152,13.152,0,0,1-2.582,1.008,24.639,24.639,0,0,0-3.664,1.409c-1.915.906-3.75,1.811-5.25,2.712A14.46,14.46,0,0,1,381,603.422c-3.042-.287-4.74-1.435-4.269-3.97a5.418,5.418,0,0,1,2.755-3.7c5.728-3.164,10.834-6.352,13.471-9.629Z" transform="translate(-285.875 -444.858)" fill="#54d391"/>
          <path id="Trazado_998654" data-name="Trazado 998654" d="M403.27,614.626a3.847,3.847,0,0,1-1.993,3.225,12.769,12.769,0,0,1-2.583,1.01,25.216,25.216,0,0,0-3.658,1.409c-1.914.9-3.75,1.809-5.251,2.714A14.438,14.438,0,0,1,381,625.056c-3.042-.289-4.74-1.436-4.268-3.966a5.1,5.1,0,0,1,.688-1.757c-.236,2.268,1.429,3.317,4.32,3.593a14.426,14.426,0,0,0,8.785-2.072c1.5-.9,3.337-1.81,5.251-2.714a25.336,25.336,0,0,1,3.665-1.41,12.926,12.926,0,0,0,2.583-1.009,3.725,3.725,0,0,0,1.246-1.095" transform="translate(-285.876 -466.494)" fill="#46c17e"/>
          <path id="Trazado_998655" data-name="Trazado 998655" d="M539.366,387.435v.081L539.3,410.7a2.721,2.721,0,0,1-1.583,2.207L518.99,423.8a8.346,8.346,0,0,1-5.276.794c-.206-.032-.409-.07-.608-.116a7.929,7.929,0,0,1-.933-.275,6.628,6.628,0,0,1-.852-.4l-25.367-14.653a2.706,2.706,0,0,1-1.6-2.234l.081-23.261a2.684,2.684,0,0,1,1.576-2.207l18.725-10.889a8.484,8.484,0,0,1,7.669,0l25.367,14.653a2.685,2.685,0,0,1,1.595,2.247c0-.007,0-.013,0-.019" transform="translate(-367.617 -280.551)" fill="#dde9fe"/>
          <path id="Trazado_998656" data-name="Trazado 998656" d="M539.371,431.555l-.072,23.265a2.711,2.711,0,0,1-1.579,2.206l-18.728,10.888a8.474,8.474,0,0,1-7.666,0l-25.369-14.653a2.71,2.71,0,0,1-1.6-2.23l.08-23.265a2.726,2.726,0,0,0,1.6,2.238l25.377,14.645a8.474,8.474,0,0,0,7.666,0L537.8,433.761a2.683,2.683,0,0,0,1.571-2.206" transform="translate(-367.619 -324.669)" fill="#c7d8ef"/>
          <path id="Trazado_998657" data-name="Trazado 998657" d="M515.558,445.548a7.989,7.989,0,0,1-4.152-.9L486.029,430a2.725,2.725,0,0,1-1.6-2.238l-.08,23.265a2.71,2.71,0,0,0,1.6,2.23l25.369,14.653a8.023,8.023,0,0,0,4.232.895Z" transform="translate(-367.619 -324.669)" fill="#b3c9e2"/>
          <path id="Trazado_998658" data-name="Trazado 998658" d="M538.023,385.2c2.123,1.226,2.134,3.215.025,4.441l-18.73,10.885a8.451,8.451,0,0,1-7.666,0l-25.37-14.647c-2.123-1.226-2.134-3.215-.025-4.44l18.73-10.885a8.451,8.451,0,0,1,7.666,0Z" transform="translate(-367.868 -280.548)" fill="#dde9fe"/>
          <path id="Trazado_998659" data-name="Trazado 998659" d="M459.5,372.462s-23.585,10.956-27.337,18.309c-3.96,7.761,1.817,32.894,1.817,32.894.407,3.634,9.923,3.12,9.837-.25l2.846-23.523a2.859,2.859,0,0,1,2.011-2.393l30.106-9.109s-1.165-12.941-2.256-13.784-17.024-2.143-17.024-2.143" transform="translate(-326.952 -282.694)" fill="#353437"/>
          <path id="Trazado_998660" data-name="Trazado 998660" d="M501.71,424.142l-30.1,9.106a2.865,2.865,0,0,0-2.013,2.393l-2.845,23.522c.033,1.377-1.528,2.281-3.422,2.616a4.155,4.155,0,0,1-1.023-.6,2.454,2.454,0,0,1-.708-.865,2.868,2.868,0,0,1-.2-1.18,10.376,10.376,0,0,1,.787-4.1c.19-.446.4-.983.131-1.383-.19-.282-.564-.387-.76-.662-.354-.5.046-1.18.511-1.56s1.062-.708,1.226-1.291c.079-.275.04-.57.092-.859.17-1,1.37-1.685,1.3-2.7a4.94,4.94,0,0,0-.328-1.042c-.446-1.514.813-2.93,1.717-4.229a2.238,2.238,0,0,0,.479-1.134c.039-.872-.806-1.495-1.534-1.98a25.784,25.784,0,0,1-3.422-2.78,1.88,1.88,0,0,1-.577-.832,1.939,1.939,0,0,1,.518-1.495q.9-1.269,1.8-2.531c.3-.426.61-1,.308-1.422-.157-.216-.433-.321-.59-.531a1.2,1.2,0,0,1,.118-1.3,4.873,4.873,0,0,1,4.11-2.373c.9-.007,1.894.223,2.655-.256.4-.249.715-.682,1.18-.747a2.349,2.349,0,0,1,1.141.308,2.9,2.9,0,0,0,2.871-.492c.308-.262.61-.61,1.016-.61.361.007.643.3.938.5a3.308,3.308,0,0,0,3.114.144,12.686,12.686,0,0,0,2.7-1.8,1.426,1.426,0,0,1,.964-.4,2.327,2.327,0,0,1,.754.354,3.088,3.088,0,0,0,2.806-.269,20.862,20.862,0,0,1,2.557-1.436,4.291,4.291,0,0,1,3.527.308,3.123,3.123,0,0,0,1.37.6c.774.02,1.318-.715,1.96-1.134,1.442-.951,3.435-.229,4.57,1.108v.007c.19,1.763.3,3.029.3,3.029" transform="translate(-349.886 -318.445)" fill="#29282b"/>
          <path id="Trazado_998661" data-name="Trazado 998661" d="M523.6,400.684s-14.053,10.849-15.674,16.5c-2.18,7.6,6.266,30.764,6.266,30.764.9,4.167,9.4,3.759,9.774-.251,1.2-9.291.7-17.372-1.821-25.449a1.072,1.072,0,0,1,.633-1.323c7.872-3.046,15.1-6.341,19.862-10.587a14.512,14.512,0,0,0,4.923-9.806,9.3,9.3,0,0,0-1.23-5.654Z" transform="translate(-385.239 -299.705)" fill="#353437"/>
          <path id="Trazado_998662" data-name="Trazado 998662" d="M579.076,400.528a14.5,14.5,0,0,1-4.924,9.8c-4.759,4.248-11.99,7.546-19.863,10.587a1.074,1.074,0,0,0-.63,1.324c2.524,8.077,3.022,16.16,1.823,25.449-.21,2.183-2.825,3.3-5.31,3.186-.511-2.327,1-5.146.059-7.461-.348-.859-1.036-1.711-.793-2.6.2-.728.97-1.18,1.239-1.888.465-1.233-.774-2.59-.433-3.861.242-.9,1.232-1.652.957-2.544a4.09,4.09,0,0,0-.557-.872c-1.062-1.645.485-4.242-.891-5.632a3.091,3.091,0,0,1-.57-.6,1.731,1.731,0,0,1-.046-1c.289-2.255-.4-4.707.656-6.726.937-1.816,3-2.7,4.89-3.448,1.154-.459,2.308-.911,3.448-1.4,1.645-.7,3.271-1.462,4.864-2.281a13.351,13.351,0,0,0,3.409-2.275,9.913,9.913,0,0,1,.931-.892,5.418,5.418,0,0,1,1.088-.577c1.042-.459,2.085-.911,3.127-1.37.373-.164.786-.374.891-.767.171-.682-.688-1.154-.918-1.816-.328-.944.7-1.783,1.606-2.2s2.013-1.016,1.967-2.013c-.053-1.068-1.39-1.567-1.882-2.517a.316.316,0,0,1-.033-.066l4.668-1.193a9.318,9.318,0,0,1,1.226,5.658" transform="translate(-416.749 -299.702)" fill="#29282b"/>
          <path id="Trazado_998663" data-name="Trazado 998663" d="M445.86,201.918c-6.06,2.114-10.151,11.888-12.818,22.218a2.035,2.035,0,0,1-.8,1.16l-21.189,14.857,5.138,5.013s18.734-6.988,23.5-11.591c5.016-4.85,13.1-24.436,13.1-24.436Z" transform="translate(-311.983 -153.253)" fill="#f95070"/>
          <path id="Trazado_998664" data-name="Trazado 998664" d="M462.1,219.972S454.023,239.554,449,244.4c-4.759,4.6-23.5,11.591-23.5,11.591l-2.176-2.124a9.655,9.655,0,0,0,2.294-1.776c.924-1.056,1.514-2.531,2.819-3.035,1.16-.446,2.472.046,3.7-.151,1.849-.3,3.133-2.078,4.93-2.629,1.068-.321,2.334-.229,3.14-1,.374-.367.583-.872.931-1.265a6.278,6.278,0,0,1,1.567-1.127,19.94,19.94,0,0,0,5.435-5.743,6.327,6.327,0,0,1,1.849-1.947c.5-.288,1.128-.465,1.442-.964.446-.708.007-1.646.1-2.478.184-1.619,2.288-2.5,2.465-4.117a11.334,11.334,0,0,0-.125-1.554,4.009,4.009,0,0,1,1.665-3.153,3.524,3.524,0,0,0,1.069-3.416,2.747,2.747,0,0,1,.229-1.868,3.163,3.163,0,0,1,1.632-1.462Z" transform="translate(-321.302 -164.085)" fill="#ea2856"/>
          <path id="Trazado_998665" data-name="Trazado 998665" d="M573.2,204.624c-9.4-8.143-18.866-9.244-28.365-6.942a4.06,4.06,0,0,0-2.926,2.692c-2.267,7.124-1.358,14.66.772,22.354a35.091,35.091,0,0,1,.395,12.155l-.395,7.018c-1.016,11.634,27.7,14.14,28.715,2.506L574.6,208.08a4.1,4.1,0,0,0-1.4-3.456" transform="translate(-410.301 -149.237)" fill="#fc6c85"/>
          <path id="Trazado_998666" data-name="Trazado 998666" d="M566.779,401.857c-2.653,4.612-6.707,6.721-12.71,5.253a1.82,1.82,0,0,1-.863-.5,1.846,1.846,0,0,1,1.147-3.131,5.951,5.951,0,0,0,5.2-3.3.326.326,0,0,0-.325-.469l-2.165.228a.79.79,0,0,1-.254-1.556l6.42-1.424Z" transform="translate(-419.475 -301.285)" fill="#f7b2b2"/>
          <path id="Trazado_998667" data-name="Trazado 998667" d="M609.952,228.236a5.009,5.009,0,0,1,6.887,2.7c2.507,6.543,7.108,20.707,5.512,25.228-2.4,6.8-22.494,17.011-22.494,17.011-1.884,1.369-5.55-3.674-3.666-5.044l13.895-13.372a2.8,2.8,0,0,0,.814-2.515l-3.69-18.731a5.011,5.011,0,0,1,2.742-5.279" transform="translate(-452.105 -172.838)" fill="#f95070"/>
          <path id="Trazado_998668" data-name="Trazado 998668" d="M623.573,256.6c-2.4,6.8-22.492,17.012-22.492,17.012-1.167.839-3-.754-3.8-2.419,1.416-1.632,4.405-.951,6.1-2.373.662-.557,1.095-1.416,1.895-1.75.433-.184.924-.184,1.35-.38,1.01-.452,1.285-1.744,1.96-2.629a6.844,6.844,0,0,1,2.406-1.717,39.343,39.343,0,0,0,5.382-3.455,3.465,3.465,0,0,0,1.534-2.013c.1-.669-.184-1.357-.059-2.019.2-1.075,1.442-1.934,1.141-2.989-.184-.675-.938-1.029-1.278-1.639-.76-1.351.767-3.035.361-4.53-.229-.833-1.036-1.468-1.075-2.334-.052-1.108,1.18-1.973,1.115-3.075-.092-1.468-2.229-1.908-2.773-3.271-.5-1.272.551-2.924-.289-4.012a7.787,7.787,0,0,0-.8-.728c-1.311-1.3-.839-2.812.3-3.986a5.02,5.02,0,0,1,3.507,3.075c2.511,6.549,7.107,20.709,5.513,25.233" transform="translate(-453.327 -173.272)" fill="#ea2856"/>
          <path id="Trazado_998669" data-name="Trazado 998669" d="M393.284,299.307,403.3,304.14a1.523,1.523,0,0,1,.817,1.007l4.921,19.9a1.22,1.22,0,0,1-1.7,1.4L397.281,321.8a1.524,1.524,0,0,1-.842-1.025l-4.871-20.085a1.22,1.22,0,0,1,1.716-1.386" transform="translate(-297.168 -227.076)" fill="#5789dc"/>
          <path id="Trazado_998670" data-name="Trazado 998670" d="M392.668,327.831s.795,4.788,5.159,5.725c1.368.294,2.339,1.448,1.809,2.743l-1.026,2.51A1.993,1.993,0,0,1,396.337,340l-2.7-.594a3.04,3.04,0,0,1-2.377-3.165c.256-3.978.415-6.877,1.4-8.412" transform="translate(-296.96 -248.82)" fill="#f7b2b2"/>
          <path id="Trazado_998671" data-name="Trazado 998671" d="M577.672,190.174a4.163,4.163,0,0,0,4.28,3.5,9.241,9.241,0,0,0,1.281-.037,11.485,11.485,0,0,0,7.18-3.528l.507-.525a4.411,4.411,0,0,0,1-1.667,46.088,46.088,0,0,0-11.874-5.528l-1.112,1.086-1.106,4.036a5.787,5.787,0,0,0-.154,2.663" transform="translate(-438.378 -138.431)" fill="#f95070"/>
          <path id="Trazado_998672" data-name="Trazado 998672" d="M585.39,174.4l-1,3.619a4.3,4.3,0,0,0-.122,1.94c.353,1.843,1.833,2.36,3.841,2.175a9.9,9.9,0,0,0,6.18-3.05l.5-.523a2.735,2.735,0,0,0,.765-1.9l-.006-4.175.94-1.432-.01-1.728s-6.442,1.086-6.77,1.162a31.274,31.274,0,0,0-2.909,2.537Z" transform="translate(-443.409 -128.52)" fill="#f7b2b2"/>
          <path id="Trazado_998673" data-name="Trazado 998673" d="M567.733,107.268c-1.014,10.051-1.006,20.416,3.993,21.736,3.884.421,7.695-1.5,11.227-3.876a10.119,10.119,0,0,0,3.593-4.315l2.447-5.549s-.2-4.68-.687-5.5-10.292-5.461-10.556-5.475-10.017,2.976-10.017,2.976" transform="translate(-430.5 -79.157)" fill="#f7b2b2"/>
          <path id="Trazado_998674" data-name="Trazado 998674" d="M594.927,128.827l-2.448,5.553a10.183,10.183,0,0,1-3.589,4.317c-3.538,2.38-7.348,4.29-11.233,3.87a4.414,4.414,0,0,1-2.636-2.114,3,3,0,0,0,.653.25c3.885.42,7.7-1.5,11.224-3.881a10.09,10.09,0,0,0,3.6-4.306l2.448-5.552a41.37,41.37,0,0,0-.465-4.8,7.586,7.586,0,0,1,1.765,1.164c.483.819.683,5.5.683,5.5" transform="translate(-436.434 -92.723)" fill="#eaa7a7"/>
          <path id="Trazado_998675" data-name="Trazado 998675" d="M590.55,92.978a2.261,2.261,0,0,1-.156.489c-.36.817-.671,1.654-.964,2.5a17.873,17.873,0,0,1-.9,2.122c-.234.481-.491.954-.761,1.411a33.946,33.946,0,0,1-4,5.475c1-3.276,2.8-7.123,2.8-8.888a1.6,1.6,0,0,0-1.642-1.641c-.931.056-1.592.7-1.992,1.923a1.214,1.214,0,0,1-1.217.819l-.1-.005a1.215,1.215,0,0,1-1.034-1.392l.432-2.842a1.216,1.216,0,0,0-.463-1.161,5.372,5.372,0,0,0-3.714-.754,16.335,16.335,0,0,1-2.418.046,16.513,16.513,0,0,1-5.642-1.371c-2.086-.907-3.081-2.089-2.59-3.551a3.26,3.26,0,0,0,.183-1.308c0-.028,0-.055-.006-.083a2.645,2.645,0,0,1,.8-2.366c.847-.614,2.045-.208,3.067-.446,1.167-.283,1.948-1.357,3.009-1.922a3.688,3.688,0,0,1,2.545-.339,13.321,13.321,0,0,1,1.367.467,4.172,4.172,0,0,0,.982.246,4.378,4.378,0,0,0,1.391-.137c.189-.043.386-.092.575-.135,1.423-.337,3.09-.467,4.176.509.5.452.818,1.1,1.365,1.507a4.712,4.712,0,0,1,.457.263c.519.236,1.12.32,1.654.542A3.669,3.669,0,0,1,590,86.571v.008a5.586,5.586,0,0,0,.088,1.619,12.18,12.18,0,0,1,.246,2.462,5.782,5.782,0,0,0,.173,1.3,2.447,2.447,0,0,1,.043,1.021" transform="translate(-429.643 -60.416)" fill="#353437"/>
          <path id="Trazado_998676" data-name="Trazado 998676" d="M591.511,92.975a2.151,2.151,0,0,1-.156.489c-.358.818-.672,1.655-.963,2.5a18.568,18.568,0,0,1-.9,2.124c-.234.481-.492.955-.762,1.41a34.163,34.163,0,0,1-4,5.476c.013-.047.029-.091.045-.138.845-1.156,1.68-2.436,2.179-3.273.271-.459.529-.932.763-1.414a18.517,18.517,0,0,0,.9-2.12c.291-.845.605-1.679.963-2.5a2.253,2.253,0,0,0,.156-.489,2.428,2.428,0,0,0-.043-1.02,5.707,5.707,0,0,1-.172-1.3,12.326,12.326,0,0,0-.245-2.464,5.525,5.525,0,0,1-.087-1.616v-.01a3.671,3.671,0,0,0-2.242-3.617c-.537-.22-1.136-.306-1.655-.542a4.6,4.6,0,0,0-.456-.26c-.548-.412-.867-1.056-1.368-1.508-1.084-.979-2.75-.846-4.173-.509-.191.041-.388.089-.576.134a4.429,4.429,0,0,1-1.392.137,4.354,4.354,0,0,1-.981-.247,13.393,13.393,0,0,0-1.367-.469,3.7,3.7,0,0,0-2.544.341c-1.061.565-1.844,1.639-3.007,1.921a16.951,16.951,0,0,1-2.083.107,2.218,2.218,0,0,1,.793-1.724c.848-.614,2.044-.206,3.067-.444,1.163-.286,1.946-1.359,3.007-1.924a3.681,3.681,0,0,1,2.544-.337,13.374,13.374,0,0,1,1.367.465,4.022,4.022,0,0,0,.981.247,4.333,4.333,0,0,0,1.392-.137c.187-.042.385-.093.576-.134,1.423-.337,3.089-.467,4.177.509a20.3,20.3,0,0,0,1.365,1.508c.15.076.3.167.456.264.519.236,1.122.319,1.655.542a3.671,3.671,0,0,1,2.242,3.617v.007a5.563,5.563,0,0,0,.087,1.619,12.305,12.305,0,0,1,.246,2.46,5.69,5.69,0,0,0,.172,1.3,2.428,2.428,0,0,1,.043,1.02" transform="translate(-430.605 -60.415)" fill="#29282b"/>
        </g>
      </g>
    </g>
  </g>
</svg>
