<svg xmlns="http://www.w3.org/2000/svg" xmlns:xlink="http://www.w3.org/1999/xlink" width="191.499" height="154.397" viewBox="0 0 191.499 154.397">
  <defs>
    <clipPath id="clip-path">
      <rect id="Rectángulo_455149" data-name="Rectángulo 455149" width="171.755" height="152.898" fill="none"/>
    </clipPath>
  </defs>
  <g id="Grupo_1179122" data-name="Grupo 1179122" transform="translate(-9218.5 5567.5)">
    <g id="Grupo_1178577" data-name="Grupo 1178577" transform="translate(8515 -10772)">
      <rect id="Rectángulo_401036" data-name="Rectángulo 401036" width="149" height="147" rx="40" transform="translate(705 5206)" fill="none" stroke="#1e3a8a" stroke-miterlimit="10" stroke-width="3"/>
      <g id="Grupo_1178719" data-name="Grupo 1178719" transform="translate(723.244 5206)">
        <g id="Grupo_1178718" data-name="Grupo 1178718" clip-path="url(#clip-path)">
          <path id="Trazado_998718" data-name="Trazado 998718" d="M203.756,512.567c-3.027.091-4.817,1.33-5.687,3.423a.808.808,0,0,1-.686.5c-6.269.416-8.245,6.272-1.4,8.268a.848.848,0,0,1,.621.894c-.256,2.224,1.075,3.232,3.94,2.869a.839.839,0,0,1,.931.658c.648,3.031,5.471,3.124,7.888.147a.817.817,0,0,1,.859-.271c3.47,1.009,5.4.519,5.769-1.5a.83.83,0,0,1,.906-.675c3.774.405,6.085-.4,5.4-3.7a.827.827,0,0,1,.558-.968c6.483-1.979,7.778-3.977,2.581-8.006-3.208-3.117-6.826-3.384-10.761-1.278a.829.829,0,0,1-.944-.133,4.025,4.025,0,0,0-2.709-1.083.839.839,0,0,1-.782-.548l-4.365-12.132-2.312-.2,1.02,12.837a.836.836,0,0,1-.818.9" transform="translate(-145.485 -378.609)" fill="#c7d8ef"/>
          <path id="Trazado_998719" data-name="Trazado 998719" d="M203.756,505.306c-3.027.092-4.817,1.33-5.687,3.423a.809.809,0,0,1-.686.5c-6.269.416-8.245,6.272-1.4,8.267a.848.848,0,0,1,.621.894c-.256,2.224,1.075,3.232,3.94,2.869a.839.839,0,0,1,.931.658c.648,3.031,5.471,3.124,7.888.147a.818.818,0,0,1,.859-.271c3.47,1.009,5.4.519,5.769-1.5a.83.83,0,0,1,.906-.675c3.774.4,6.085-.4,5.4-3.7a.827.827,0,0,1,.558-.968c6.483-1.979,7.778-3.977,2.581-8.006-3.208-3.117-6.826-3.384-10.761-1.278a.829.829,0,0,1-.944-.133,4.025,4.025,0,0,0-2.709-1.083.839.839,0,0,1-.782-.548l-4.365-12.132-2.312-.2,1.02,12.837a.836.836,0,0,1-.818.9" transform="translate(-145.485 -373.098)" fill="#dde9fe"/>
          <path id="Trazado_998720" data-name="Trazado 998720" d="M119.5,17.633c-.087-.054-.168-.1-.255-.147l-4.361-2.536a10.169,10.169,0,0,0-5.327-1.315c-.6-4.649-2.616-7.957-5.569-9.648-.074-.047-.147-.087-.215-.127L99.416,1.33C95.853-.743,90.922-.448,85.474,2.692a33.666,33.666,0,0,0-7.4,5.931c-.221-.154-.449-.3-.684-.436a1.08,1.08,0,0,0-.121-.067L72.787,5.51c-4.166-2.422-9.936-2.08-16.3,1.6a40.04,40.04,0,0,0-9.393,7.736c-4.609-1.248-10.305-.275-16.464,3.281C15.316,26.966,2.938,48.4,2.991,65.993c.013,5.3,1.154,9.654,3.167,12.9C2.327,85.832-.007,93.521.013,100.492c.02,7.226,2.57,12.3,6.682,14.7l4.616,2.684c-.152-.088-.3-.186-.445-.282,4.2,2.722,10.152,2.5,16.755-1.314,5.636-3.261,10.795-8.574,14.774-14.76,3.751,2.4,9.064,2.187,14.948-1.208,7.024-4.059,13.217-11.7,16.887-20.02,3.509,1.7,8.185,1.268,13.324-1.7A38.612,38.612,0,0,0,99.932,66.376a20.7,20.7,0,0,0,5.75-2.335c10.829-6.253,19.571-21.4,19.537-33.841-.013-6.179-2.194-10.527-5.716-12.566M10.023,116.99q.389.308.8.577c-.274-.181-.543-.37-.8-.577" transform="translate(-0.009 -0.005)" fill="#dde9fe"/>
          <path id="Trazado_998721" data-name="Trazado 998721" d="M445.925,57.845l4.615,2.682c-2.623-1.525-5.99-1.768-9.757-.534l-4.615-2.682c3.767-1.234,7.133-.991,9.757.534" transform="translate(-331.046 -42.9)" fill="#b3c9e2"/>
          <path id="Trazado_998722" data-name="Trazado 998722" d="M341.884,1.323,346.5,4.005c-3.564-2.071-8.5-1.779-13.945,1.366a34.586,34.586,0,0,0-8.466,7.1l-4.615-2.682a34.591,34.591,0,0,1,8.466-7.1c5.446-3.144,10.382-3.437,13.945-1.366" transform="translate(-242.476 -0.001)" fill="#c7d8ef"/>
          <path id="Trazado_998723" data-name="Trazado 998723" d="M221.045,17.967l4.615,2.682c-4.167-2.421-9.937-2.081-16.306,1.6a40.063,40.063,0,0,0-9.392,7.736L195.347,27.3a40.059,40.059,0,0,1,9.392-7.736c6.369-3.677,12.139-4.018,16.306-1.6" transform="translate(-148.266 -12.463)" fill="#b3c9e2"/>
          <path id="Trazado_998724" data-name="Trazado 998724" d="M11.3,366.293l-4.615-2.682C2.573,361.22.021,356.135,0,348.91c-.02-6.966,2.316-14.663,6.153-21.6l4.615,2.682c-3.836,6.935-6.172,14.632-6.153,21.6.02,7.226,2.572,12.31,6.687,14.7" transform="translate(0 -248.426)" fill="#b3c9e2"/>
          <path id="Trazado_998725" data-name="Trazado 998725" d="M61.089,62.614c-4.608-1.25-10.31-.27-16.463,3.28-15.309,8.844-27.686,30.27-27.638,47.868.018,5.305,1.159,9.655,3.172,12.9l-4.616-2.68c-2.013-3.245-3.154-7.6-3.166-12.9-.054-17.6,12.323-39.03,27.632-47.868,6.158-3.557,11.854-4.53,16.463-3.281Z" transform="translate(-9.396 -45.095)" fill="#c7d8ef"/>
          <path id="Trazado_998726" data-name="Trazado 998726" d="M49.765,29.248c6.155-3.554,11.852-4.529,16.465-3.283a40.063,40.063,0,0,1,9.392-7.736c8.957-5.172,16.731-3.744,20.524,2.686a34.586,34.586,0,0,1,8.466-7.1c10.822-6.248,19.626-1.235,19.661,11.2,0,.172,0,.346,0,.518,8.818-2.889,15.444,2.32,15.474,13.105.035,12.435-8.712,27.586-19.538,33.836a20.658,20.658,0,0,1-5.753,2.335,38.594,38.594,0,0,1-12.377,12.219c-5.136,2.965-9.817,3.4-13.322,1.7-3.675,8.321-9.867,15.964-16.891,20.02-5.88,3.395-11.194,3.61-14.943,1.208-3.98,6.185-9.138,11.5-14.775,14.758-12.658,7.308-22.955,1.44-23-13.1-.02-6.966,2.316-14.663,6.153-21.6-2.014-3.245-3.157-7.6-3.172-12.9-.05-17.6,12.325-39.027,27.635-47.867" transform="translate(-14.533 -8.447)" fill="#dde9fe"/>
          <path id="Trazado_998727" data-name="Trazado 998727" d="M231.657,447.514c.429,4.885-2.738,9.468-4.945,12.025a3.162,3.162,0,0,1-4.384.385c-2.619-2.133-6.535-6.1-6.963-10.98-.65-7.408,2.477-13.731,6.97-14.125s8.673,5.288,9.323,12.7" transform="translate(-163.394 -330.007)" fill="#7ca2e5"/>
          <path id="Trazado_998728" data-name="Trazado 998728" d="M235.439,443.809c.3,3.452-1.935,6.692-3.495,8.5a2.235,2.235,0,0,1-3.1.272c-1.851-1.508-4.618-4.308-4.921-7.76-.459-5.236,1.751-9.7,4.926-9.983s6.129,3.737,6.589,8.973" transform="translate(-169.91 -330.025)" fill="#5789dc"/>
          <path id="Trazado_998729" data-name="Trazado 998729" d="M292.224,304.438l-4.512-2.118-1.156-12.759,4.512,2.118Z" transform="translate(-217.493 -219.773)" fill="#5789dc"/>
          <path id="Trazado_998730" data-name="Trazado 998730" d="M212.988,417.928c-5.066,3.569-13.734,4.334-19.369,1.711-2.838-1.322-4.368-3.254-4.542-5.3l-.389-4.542c.009.089.023.178.036.267-.3-2.1.835-4.344,3.466-6.2,5.052-3.563,13.727-4.321,19.376-1.691,2.844,1.328,4.374,3.261,4.529,5.314l.382,4.515c.174,2.02-.98,4.153-3.489,5.924" transform="translate(-143.202 -304.056)" fill="#5789dc"/>
          <path id="Trazado_998731" data-name="Trazado 998731" d="M216.138,429.035l.386,4.545c.171,2.018-.979,4.15-3.494,5.922-5.066,3.571-13.732,4.338-19.365,1.713-2.841-1.324-4.371-3.254-4.545-5.3l-.386-4.545c.174,2.046,1.7,3.976,4.545,5.3,5.633,2.625,14.3,1.858,19.365-1.713,2.514-1.772,3.665-3.9,3.494-5.922" transform="translate(-143.247 -325.632)" fill="#4075c1"/>
          <path id="Trazado_998732" data-name="Trazado 998732" d="M211.557,402.177c5.633,2.625,6.09,7.644,1.035,11.207s-13.732,4.338-19.365,1.712-6.114-7.655-1.048-11.226,13.733-4.324,19.379-1.693" transform="translate(-143.195 -304.058)" fill="#5789dc"/>
          <path id="Trazado_998733" data-name="Trazado 998733" d="M307.127,297.782l-5.689,21.328a3.035,3.035,0,0,1-1.08,1.65,1.336,1.336,0,0,1-.349.181.749.749,0,0,1-.691-.034l-.013.074-1.811-1.865a1.233,1.233,0,0,1-.342-.872l-.536-9.305-3.294,1.335-1.154-12.754-2.449-1.154,13.868-2.08a.956.956,0,0,1,.557.06L306.6,295.5a.1.1,0,0,0-.047-.013c.611.248.866,1.167.57,2.295" transform="translate(-219.892 -223.346)" fill="#7ca2e5"/>
          <path id="Trazado_998734" data-name="Trazado 998734" d="M306.592,295.5a1.035,1.035,0,0,0-.571-.073l-13.86,2.087-2.457-1.152,13.873-2.076a.916.916,0,0,1,.558.062Z" transform="translate(-219.882 -223.347)" fill="#6a95d3"/>
          <path id="Trazado_998735" data-name="Trazado 998735" d="M322.4,342.755,320.357,356l-1.806-1.864a1.223,1.223,0,0,1-.344-.871l-.748-12.86Z" transform="translate(-240.947 -258.362)" fill="#6a95d3"/>
          <path id="Trazado_998736" data-name="Trazado 998736" d="M299.876,301.141l13.867-2.085c.968-.146,1.467.939,1.093,2.351l-5.685,21.324a3.04,3.04,0,0,1-1.079,1.652,1.481,1.481,0,0,1-.349.185c-.615.231-1.074-.159-1.12-.917l-.548-9.954c-.055-1.044-.706-1.548-1.539-1.212l-3.484,1.414Z" transform="translate(-227.602 -226.97)" fill="#7ca2e5"/>
          <path id="Trazado_998737" data-name="Trazado 998737" d="M178.042,194.917c4.047-10.107,5.451-30,4.424-41.7-1.5-17.073-17.317-26.775-22.867-29.673a3.371,3.371,0,0,0-3.632.319c-4.961,3.82-18.85,16.128-17.352,33.2,1.026,11.7,5.872,31.049,11.618,40.3,4.159,10.126,25.7,7.288,27.809-2.439" transform="translate(-105.122 -93.471)" fill="#b0c4ff"/>
          <path id="Trazado_998738" data-name="Trazado 998738" d="M190.638,134.423a52.468,52.468,0,0,0-14.262-10.9,3.346,3.346,0,0,0-3.6.316,52.46,52.46,0,0,0-12.146,13.221c1.191,13.579,31.2,10.946,30.012-2.633" transform="translate(-121.913 -93.458)" fill="#7ca2e5"/>
          <path id="Trazado_998739" data-name="Trazado 998739" d="M206.723,256.846a12.467,12.467,0,1,1-13.5-11.321,12.468,12.468,0,0,1,13.5,11.321" transform="translate(-138.012 -186.313)" fill="#dde9fe"/>
          <path id="Trazado_998740" data-name="Trazado 998740" d="M216.266,271.193a8.036,8.036,0,1,1-8.7-7.3,8.036,8.036,0,0,1,8.7,7.3" transform="translate(-151.968 -200.27)" fill="#5789dc"/>
          <path id="Trazado_998741" data-name="Trazado 998741" d="M226.779,272.431a8.019,8.019,0,0,1-7.284,8.7,7.924,7.924,0,0,1-5.412-1.5,8.024,8.024,0,0,0,7.194-14.144,8.018,8.018,0,0,1,5.5,6.94" transform="translate(-162.486 -201.504)" fill="#4075c1"/>
          <path id="Trazado_998742" data-name="Trazado 998742" d="M132.111,396.477a3.051,3.051,0,0,1-.825,2.281,2.681,2.681,0,0,1-.342.295c-.476.336-.953.329-1.228-.033h-.007l-2.258-1.067a.844.844,0,0,1-.308-.249l-8.517-11.123c-.564-.745-.315-2.362.563-3.509l12.566-16.437,2.449,1.154,1.154,12.761-3.308,3.341a4.057,4.057,0,0,0-1.147,3.093Z" transform="translate(-89.806 -278.272)" fill="#7ca2e5"/>
          <path id="Trazado_998743" data-name="Trazado 998743" d="M121.074,387.742l8.637,11.285-2.26-1.066a.842.842,0,0,1-.309-.249l-8.513-11.122c-.569-.748-.318-2.366.563-3.511l12.565-16.434L134.2,367.8l-12.554,16.421c-.893,1.159-1.143,2.776-.575,3.524" transform="translate(-89.807 -278.278)" fill="#6a95d3"/>
          <path id="Trazado_998744" data-name="Trazado 998744" d="M141.9,371.421l1.156,12.759-3.309,3.344a4.079,4.079,0,0,0-1.149,3.095l1.213,9.488a3.053,3.053,0,0,1-.83,2.282,2.2,2.2,0,0,1-.339.3c-.474.332-.951.33-1.231-.034l-8.639-11.289c-.57-.75-.316-2.363.569-3.515Z" transform="translate(-97.508 -281.904)" fill="#7ca2e5"/>
          <path id="Trazado_998745" data-name="Trazado 998745" d="M669.7,434.3s4.84-6.925,8.716-6.631c3.38.257-3.143,8.957-4.868,11.179a1.67,1.67,0,0,1-1.178.648,4.6,4.6,0,0,1-3.561-1.6Z" transform="translate(-507.617 -324.592)" fill="#dde9fe"/>
          <path id="Trazado_998746" data-name="Trazado 998746" d="M673.54,438.843a1.679,1.679,0,0,1-1.175.651,4.6,4.6,0,0,1-3.565-1.6l.046-.184a3.591,3.591,0,0,0,2.338.634,1.691,1.691,0,0,0,1.181-.651c1.365-1.757,5.719-7.556,5.817-10.038.075,0,.15.006.225.012,3.381.259-3.139,8.956-4.867,11.179" transform="translate(-507.611 -324.583)" fill="#c7d8ef"/>
          <path id="Trazado_998747" data-name="Trazado 998747" d="M462.954,344.057s15.525,8.782,20.373,12.211c7.293,5.158,11.456,9.194,21.647,13.665,1.77.563.826,5.11-.7,4.923,0,0-12.023-1.342-15.9-2.4-4.677-1.269-3.376-3.411-7.935-5.79-6.642-3.467-28.765-8.412-28.765-8.412l.3-11.866Z" transform="translate(-342.813 -261.135)" fill="#353437"/>
          <path id="Trazado_998748" data-name="Trazado 998748" d="M505.844,395.851c-.219,1.146-.824,2.183-1.567,2.091,0,0-12.02-1.342-15.9-2.4-4.676-1.273-3.375-3.41-7.936-5.794-6.641-3.467-28.762-8.408-28.762-8.408l.173-6.871a4.67,4.67,0,0,1,2.252,1.33c.668.657,1.135,1.549,1.952,2.016,1.889,1.071,4.435-.714,6.387.247,1.428.7,2,2.661,3.513,3.151,1.071.351,2.275-.167,3.352.15.979.288,1.641,1.186,2.494,1.745,2.183,1.417,5.322.432,7.481,1.872.985.657,1.624,1.734,2.6,2.407,1.86,1.3,4.619.9,6.266,2.459.771.726,1.2,1.8,2.119,2.338.951.559,2.148.363,3.243.547,1.785.294,3.237,1.584,4.959,2.16,2.356.795,5.028.173,7.378.956" transform="translate(-342.818 -284.22)" fill="#29282b"/>
          <path id="Trazado_998749" data-name="Trazado 998749" d="M644.145,464.932h0a1.867,1.867,0,0,1,1.062,2.567l-3.493,8.061a2.636,2.636,0,0,1-2.394,1.489,16.324,16.324,0,0,1-5.307-1.286l1.658-4.414,1.622-.26a2.275,2.275,0,0,0,1.5-.932l3.292-4.651a1.866,1.866,0,0,1,2.062-.573" transform="translate(-481.209 -352.797)" fill="#dde9fe"/>
          <path id="Trazado_998750" data-name="Trazado 998750" d="M645.2,467.967l-3.49,8.063a2.647,2.647,0,0,1-2.4,1.492,16.4,16.4,0,0,1-5.31-1.29l.161-.432a13.414,13.414,0,0,0,4.233.9,2.631,2.631,0,0,0,2.4-1.492l3.5-8.057a1.846,1.846,0,0,0-.057-1.71,1.861,1.861,0,0,1,.967,2.522" transform="translate(-481.201 -353.267)" fill="#c7d8ef"/>
          <path id="Trazado_998751" data-name="Trazado 998751" d="M398.509,369.8c-.707,5.9,1.435,11,7.447,15.018a80.2,80.2,0,0,0,24.733,10.567,8.457,8.457,0,0,1,2.711,1.143c8.518,5.472,11.825,6.586,21.507,7.12,1.615.2,3.1-4.138,1.54-4.7,0,0-11.833-6-16.835-10.034-6.653-5.362-26.078-16.216-26.068-15.348Z" transform="translate(-302.365 -280.677)" fill="#353437"/>
          <path id="Trazado_998752" data-name="Trazado 998752" d="M456.582,402.279c-.42.829-1.037,1.457-1.676,1.382-9.681-.536-12.993-1.647-21.511-7.118a8.451,8.451,0,0,0-2.707-1.146,80.245,80.245,0,0,1-24.736-10.568c-6.013-4.014-8.155-9.117-7.447-15.014l4.009,1a1.635,1.635,0,0,1,.069.179,17.514,17.514,0,0,1,.409,3.018,3.256,3.256,0,0,0,1.469,2.546c.484.248,1.106.322,1.417.766.461.668-.115,1.578-.029,2.39.109,1,1.192,1.6,2.183,1.78a8.925,8.925,0,0,1,2.937.639c1.215.7,1.71,2.24,2.868,3.035,1.659,1.14,4.049.368,5.817,1.319,1.336.72,2.073,2.3,3.467,2.9,1.238.524,2.678.144,3.991.438,2.5.559,4.2,3.461,6.761,3.386a17.936,17.936,0,0,1,2.068-.207c1.895.161,2.857,2.419,4.573,3.231,1.664.789,3.709.092,5.419.766.985.392,1.757,1.2,2.747,1.59.732.288,1.543.322,2.3.547a9.607,9.607,0,0,1,2.286,1.129c1.106.674,2.206,1.348,3.312,2.016" transform="translate(-302.363 -280.684)" fill="#29282b"/>
          <path id="Trazado_998753" data-name="Trazado 998753" d="M557.076,262.679s2.7-3.819,5.313-3.38c1.281.215-1.218,2.3-1.218,2.3s7.267-3.17,6.964.057-9.918,5.823-9.918,5.823l-3.4-2.149Z" transform="translate(-421.103 -196.778)" fill="#f7b2b2"/>
          <path id="Trazado_998754" data-name="Trazado 998754" d="M472.652,203.609l.059,3.02.284,13.771s3.6,11.4,6.9,12.455c3.969,1.264,17.447-7.913,17.762-8.175-.2.117-1.29-.688-1.662-1.122-.779-.9-1.709-2.867-1.289-3.135l-11.19,4.37a1.519,1.519,0,0,1-2.036-1.193l-1.958-12.4c-.7-4.994-2.767-7.871-6.874-7.591" transform="translate(-358.737 -154.523)" fill="#46c17e"/>
          <path id="Trazado_998755" data-name="Trazado 998755" d="M472.9,216.2l.283,13.771s3.6,11.4,6.9,12.455c3.969,1.264,17.447-7.913,17.762-8.175-.2.117-1.29-.688-1.662-1.122a59.659,59.659,0,0,0-7.795,3.576,6.361,6.361,0,0,1-2.073.86,7.313,7.313,0,0,0-1.233.185,7.667,7.667,0,0,0-1.806,1.321c-.616.44-1.626.571-2-.079-.3-.5-.026-1.134-.084-1.712-.149-1.365-1.954-1.839-2.661-3.013-.542-.9-.345-2.034-.483-3.079-.36-2.758-3.016-4.749-3.592-7.474a17.423,17.423,0,0,1-.209-2.492,18.547,18.547,0,0,0-1.35-5.021" transform="translate(-358.923 -164.092)" fill="#3caf6d"/>
          <path id="Trazado_998756" data-name="Trazado 998756" d="M413.039,203.6c-6.515-.155-13.326,2.659-19.513,7.738l1.222,31.729a2.365,2.365,0,0,0,.077.586c2.344,8.453,23.627,4.271,24.454-3.987a3.785,3.785,0,0,0-.44-2.19c-1.842-3.354-2.081-8.009-1.611-13.24,1.413-7.951,1.519-15.055-2.2-19.681a2.625,2.625,0,0,0-1.987-.956" transform="translate(-298.681 -154.522)" fill="#54d391"/>
          <path id="Trazado_998757" data-name="Trazado 998757" d="M451.341,224.4l2.061,1.663-.7,1.478a.661.661,0,0,1-.864.324l-1.756-.769Z" transform="translate(-341.61 -170.314)" fill="#fc6c85"/>
          <path id="Trazado_998758" data-name="Trazado 998758" d="M457.9,233.329a46.347,46.347,0,0,1,4.292,16.3c.343,6.545-2.131,6.015-3.364,5.363a1.213,1.213,0,0,1-.633-1.137,82.394,82.394,0,0,0-1.327-20.139l.545-1.265Z" transform="translate(-346.757 -176.427)" fill="#fc6c85"/>
          <path id="Trazado_998759" data-name="Trazado 998759" d="M425.935,187.692l-.7,4.315.816,3.689,8.678-1.362c1.126-2.682.919-2.695-.279-4.746l-6.865-4.406Z" transform="translate(-322.746 -140.551)" fill="#f7b2b2"/>
          <path id="Trazado_998760" data-name="Trazado 998760" d="M457.263,203.463c.963,2.626.1,4.627-1.97,5.045l1.68,1.472a.85.85,0,0,0,1.345-.315,10.616,10.616,0,0,0,1.12-4.368.682.682,0,0,0-.3-.548Z" transform="translate(-345.562 -154.426)" fill="#f1f3f2"/>
          <path id="Trazado_998761" data-name="Trazado 998761" d="M419.642,215.281c.851,2,3.566,3.039,7.161,3.4a.648.648,0,0,0,.677-.459l.656-2.238c-3.842.426-6.383-.37-7.239-2.668l-.982.424a.413.413,0,0,0-.124.1,1.393,1.393,0,0,0-.148,1.444" transform="translate(-318.403 -161.905)" fill="#f1f3f2"/>
          <path id="Trazado_998762" data-name="Trazado 998762" d="M418.265,168.761c2.734,3.139,5.861,4.853,9.458,4.547a3.052,3.052,0,0,0,2.606-2.031c1.227-3.449,1.442-7.394.932-12.056L419.6,160.1l-3.192,2.134.265,3.5.346.929Z" transform="translate(-316.052 -120.847)" fill="#f7b2b2"/>
          <path id="Trazado_998763" data-name="Trazado 998763" d="M431.1,171.283a3.06,3.06,0,0,1-2.608,2.031c-3.594.3-6.72-1.411-9.455-4.544l-1.241-2.1-.347-.927-.021-.275.881,1.484c2.735,3.139,5.861,4.853,9.461,4.55a3.051,3.051,0,0,0,2.6-2.03,25,25,0,0,0,1.1-10.2l.556-.042c.507,4.662.295,8.6-.933,12.054" transform="translate(-316.819 -120.853)" fill="#eaa7a7"/>
          <path id="Trazado_998764" data-name="Trazado 998764" d="M425.37,135.268c-1.533-3.718-4.272-5.711-8-5.745a8.772,8.772,0,0,0-6.5,2.706c-3.536,3.763-2.436,8.791,1.57,13.991A6.553,6.553,0,0,1,411.168,142a.53.53,0,0,1,.619-.452c.7.16,1.315.794,1.866,1.855a.463.463,0,0,0,.5.247.455.455,0,0,0,.352-.577c-.639-2.068-.3-3.557,1.329-4.279a4.109,4.109,0,0,1,2.514-.046,6.185,6.185,0,0,0,1.808.162c2.165-.151,3.913-.494,4.855-1.483a2.014,2.014,0,0,0,.363-2.156" transform="translate(-310.232 -98.306)" fill="#353437"/>
          <path id="Trazado_998765" data-name="Trazado 998765" d="M437.416,367.2l.1,1.331a1.394,1.394,0,0,0,.9,1.08l13.77,6.72a4.373,4.373,0,0,0,3.955-.287l18.291-12.408a1.4,1.4,0,0,0,.743-1.215l-.1-1.328a1.4,1.4,0,0,1-.742,1.212L456,371.368c-1.049.712-3.246-.663-4.382-1.216l-10.77-3.5c.016-1.211-2.908.163-3.436.549" transform="translate(-331.993 -274.065)" fill="#9db6ce"/>
          <path id="Trazado_998766" data-name="Trazado 998766" d="M438.148,340.337a1.214,1.214,0,0,0,.154,2.292l13.771,6.72a4.369,4.369,0,0,0,3.955-.287l18.29-12.408a1.214,1.214,0,0,0-.152-2.293l-13.771-6.72a4.373,4.373,0,0,0-3.957.287Z" transform="translate(-331.984 -248.416)" fill="#dde9fe"/>
          <path id="Trazado_998767" data-name="Trazado 998767" d="M502.571,321.286l1.184.909c-.2-.155-.279-.471-.192-.934l2.451-13.02a5.925,5.925,0,0,1,2.267-3.231L526.571,292.6c.6-.406,1.08-.487,1.344-.283l-1.185-.909c-.266-.2-.746-.125-1.344.281L507.1,304.1a5.917,5.917,0,0,0-2.267,3.231l-2.452,13.02c-.086.463-.009.781.193.935" transform="translate(-381.273 -221.095)" fill="#b0c4ff"/>
          <path id="Trazado_998768" data-name="Trazado 998768" d="M512.013,307.876a5.925,5.925,0,0,0-2.266,3.232l-2.451,13.02c-.2,1.073.486,1.366,1.535.654l18.291-12.408a5.928,5.928,0,0,0,2.268-3.233l2.451-13.02c.2-1.073-.486-1.365-1.536-.652Z" transform="translate(-385.005 -223.961)" fill="#285294"/>
          <path id="Trazado_998769" data-name="Trazado 998769" d="M555.765,352.832c-.874.593-1.646.225-1.725-.823a3.639,3.639,0,0,1,1.439-2.971c.874-.593,1.646-.224,1.725.824a3.636,3.636,0,0,1-1.439,2.97" transform="translate(-420.504 -264.701)" fill="#b0c4ff"/>
          <path id="Trazado_998770" data-name="Trazado 998770" d="M457.912,342.426s6.553-.856,5.3.7c-.571.709-1.982.55-1.982.55s4.186,1.978,3.758,4.032c-.523,2.511-9.211-.517-9.211-.517-.962-1.557-.7-3.111.434-4.934Z" transform="translate(-345.483 -259.719)" fill="#f7b2b2"/>
          <path id="Trazado_998771" data-name="Trazado 998771" d="M398.912,261l-13.246-2.626a1.561,1.561,0,0,1-1.292-1.734l1.762-13.888a12.16,12.16,0,0,0,.007-3.248c-.339-2.363-1.265-3.925-2.923-4.457a2.827,2.827,0,0,0-1.741-.007,2.5,2.5,0,0,0-1.154.718c-1.126,1.223-1.741,3.31-1.969,6.06,0,0-1.955,17.806-.111,21.558,1.886,3.828,18.533,2.386,18.533,2.386a3.2,3.2,0,0,1,.353-2.315Z" transform="translate(-286.482 -178.293)" fill="#46c17e"/>
          <path id="Trazado_998772" data-name="Trazado 998772" d="M378.245,263.8c1.886,3.828,18.533,2.386,18.533,2.386a3.2,3.2,0,0,1,.352-2.315c-.981-.117-3.525-.658-4.506-.686-3.206-.09-6.488.041-9.535-.974a3.264,3.264,0,0,1-1.5-.878c-.795-.946-.449-2.349-.394-3.579.131-2.971-1.693-5.887-1.064-8.8a20.347,20.347,0,0,1,1.617-3.78,12.107,12.107,0,0,0-.269-9.708,2.5,2.5,0,0,0-1.154.718c-1.126,1.223-1.741,3.31-1.969,6.06,0,0-1.956,17.806-.111,21.558" transform="translate(-286.482 -178.715)" fill="#3caf6d"/>
        </g>
      </g>
    </g>
  </g>
</svg>
