<svg xmlns="http://www.w3.org/2000/svg" width="96" height="96" viewBox="0 0 96 96">
  <g id="Grupo_1179120" data-name="Grupo 1179120" transform="translate(-1200.746 -4221.635)">
    <g id="Grupo_154427" data-name="Grupo 154427" transform="translate(406.707 1301.555)">
      <path id="Elipse_5729" data-name="Elipse 5729" d="M48,0A48,48,0,1,1,0,48,48,48,0,0,1,48,0Z" transform="translate(794.039 2920.081)" fill="#1e3a8a"/>
      <g id="Grupo_1178806" data-name="Grupo 1178806" transform="translate(805.799 2933.028)">
        <path id="Trazado_999000" data-name="Trazado 999000" d="M59.507,37.824a.86.86,0,0,1-.4-.1L45.819,31.321A.919.919,0,0,1,45.3,30.5V16.165a.927.927,0,0,1,.43-.779.912.912,0,0,1,.83-.044l13.347,6.4a.919.919,0,0,1,.519.823V36.9a.919.919,0,0,1-.43.741A.964.964,0,0,1,59.507,37.824ZM47.109,29.9l11.478,5.524V23.158L47.109,17.626Z" transform="translate(-9.806 -2.632)" fill="#fff"/>
        <path id="Trazado_999001" data-name="Trazado 999001" d="M59.507,21.247a.956.956,0,0,1-.4-.089L45.819,14.751a.918.918,0,0,1,0-1.654L59.166,6.7a.927.927,0,0,1,.793,0l13.347,6.406a.919.919,0,0,1,.519.83.9.9,0,0,1-.571.823l-13.347,6.4A.957.957,0,0,1,59.507,21.247Zm-11.2-7.326,11.2,5.391,11.2-5.376-11.2-5.391Z" transform="translate(-9.806 -0.394)" fill="#fff"/>
        <path id="Trazado_999002" data-name="Trazado 999002" d="M64.139,37.819a.964.964,0,0,1-.489-.141.919.919,0,0,1-.43-.741V22.574a.912.912,0,0,1,.519-.823l13.347-6.414a.912.912,0,0,1,.882.044.927.927,0,0,1,.43.779V30.493a.919.919,0,0,1-.519.823L64.54,37.723a.86.86,0,0,1-.4.1Zm.919-14.666V35.439l11.478-5.546V17.621Z" transform="translate(-14.439 -2.627)" fill="#fff"/>
        <path id="Trazado_999003" data-name="Trazado 999003" d="M55.19,19.159a.919.919,0,0,1-.356-1.72l13.347-6.4a.919.919,0,0,1,.741,1.653l-13.347,6.4a.979.979,0,0,1-.386.067Z" transform="translate(-12.148 -1.532)" fill="#fff"/>
        <path id="Trazado_999004" data-name="Trazado 999004" d="M56.177,29.2a.979.979,0,0,1-.4-.089l-3.93-1.891a.919.919,0,1,1,.793-1.653l3.937,1.891a.919.919,0,0,1-.4,1.742Z" transform="translate(-11.348 -5.264)" fill="#fff"/>
        <path id="Trazado_999005" data-name="Trazado 999005" d="M34.012,18.531H22.89a.912.912,0,0,1-.89-.9V9.315a.919.919,0,0,1,.919-.919h4.167a6.814,6.814,0,0,1,11.967.512.919.919,0,0,1-1.646.816,4.983,4.983,0,0,0-8.964,0,.9.9,0,0,1-.823.512H23.839v6.458H34.012a.919.919,0,1,1,0,1.839Z" transform="translate(-3.782 0)" fill="#fff"/>
        <path id="Trazado_999006" data-name="Trazado 999006" d="M48.744,67.326H8.282a.912.912,0,0,1-.912-.912V14.94A.912.912,0,0,1,8.282,14H19.137a.919.919,0,1,1,0,1.831H9.2V65.509H48.744a3.789,3.789,0,0,0,3.789-3.789V40.254a.919.919,0,1,1,1.831,0V61.705a5.628,5.628,0,0,1-5.62,5.62Z" transform="translate(0 -2.304)" fill="#fff"/>
        <path id="Trazado_999007" data-name="Trazado 999007" d="M20.446,47.722h-.037a.912.912,0,0,1-.741-.4l-2-2.907a.919.919,0,1,1,1.483-1.038l1.3,1.9L24.776,40a.919.919,0,1,1,1.416,1.164l-5.035,6.221a.942.942,0,0,1-.712.334Z" transform="translate(-2.592 -8.926)" fill="#fff"/>
        <path id="Trazado_999008" data-name="Trazado 999008" d="M20.448,60.051h-.037a.934.934,0,0,1-.741-.4l-2-2.9a.919.919,0,1,1,1.483-1.045l1.3,1.9,4.323-5.279a.932.932,0,1,1,1.468,1.149L21.16,59.7a.927.927,0,0,1-.712.356Z" transform="translate(-2.594 -12.121)" fill="#fff"/>
        <path id="Trazado_999009" data-name="Trazado 999009" d="M20.448,72.362h-.037a.9.9,0,0,1-.741-.393l-2-2.9a.919.919,0,1,1,1.483-1.045l1.3,1.9,4.323-5.279a.919.919,0,1,1,1.416,1.164l-5.087,6.221a.927.927,0,0,1-.66.334Z" transform="translate(-2.594 -15.296)" fill="#fff"/>
        <path id="Trazado_999010" data-name="Trazado 999010" d="M46.688,49.911H33.838a.919.919,0,0,1,0-1.831h12.85a.919.919,0,0,1,0,1.831Z" transform="translate(-6.626 -11.116)" fill="#fff"/>
        <path id="Trazado_999011" data-name="Trazado 999011" d="M52.917,61.109H33.809a.919.919,0,0,1,0-1.839H52.917a.919.919,0,0,1,0,1.839Z" transform="translate(-6.598 -14.008)" fill="#fff"/>
        <path id="Trazado_999012" data-name="Trazado 999012" d="M52.946,72.3H33.838a.919.919,0,0,1,0-1.831H52.946a.919.919,0,1,1,0,1.831Z" transform="translate(-6.626 -16.903)" fill="#fff"/>
      </g>
    </g>
  </g>
</svg>
