<svg xmlns="http://www.w3.org/2000/svg" xmlns:xlink="http://www.w3.org/1999/xlink" width="147.479" height="162.823" viewBox="0 0 147.479 162.823">
  <defs>
    <clipPath id="clip-path">
      <rect id="Rectángulo_455304" data-name="Rectángulo 455304" width="113.372" height="162.823" fill="none"/>
    </clipPath>
  </defs>
  <g id="Grupo_1179125" data-name="Grupo 1179125" transform="translate(-249.827 -7939.215)">
    <g id="Grupo_1177109" data-name="Grupo 1177109" transform="translate(-52.435 3526.281)">
      <rect id="Rectángulo_401003" data-name="Rectángulo 401003" width="144.479" height="152.843" rx="29" transform="translate(303.762 4417.924)" fill="none" stroke="#fe8938" stroke-miterlimit="10" stroke-width="3"/>
      <g id="Grupo_1178946" data-name="Grupo 1178946" transform="translate(322.605 4412.931)">
        <g id="Grupo_1178945" data-name="Grupo 1178945" transform="translate(0 0.004)" clip-path="url(#clip-path)">
          <path id="Trazado_1000828" data-name="Trazado 1000828" d="M323.863,320.9c-.132.6-.306,1.22-.495,1.8-.165.009-.2.028-.019.066-.368,1.14-.768,2.125-.924,2.5-.047.108-.071.165-.071.165a3.873,3.873,0,0,1-1.678.4,17.873,17.873,0,0,1-4.4-.273,3.265,3.265,0,0,1-1.448-.623,7.292,7.292,0,0,1-2.776-3.817s-.523-.118-1.074-.278a6.256,6.256,0,0,1-.942-.349,4.12,4.12,0,0,1-1.989-3.421,1.2,1.2,0,0,1,.828-1.2,1.5,1.5,0,0,1,1.474.39,8.837,8.837,0,0,1,2.1,3.2l.224-.022-.072-1.716a2.045,2.045,0,0,1,.629-1.563l.7-.667a2.045,2.045,0,0,0,.63-1.507l-.029-1.974s5.381,2.54,9.335-1.225c0,0,.467,7.978,0,10.112" transform="translate(-297.79 -300.451)" fill="#ffcaa4"/>
          <path id="Trazado_1000829" data-name="Trazado 1000829" d="M324.324,625.332c-6.489.528-7.8-5.023-7.8-5.023l2.356-2.464v-3.732l.3-.961c.551.16,1.074.278,1.074.278a6.821,6.821,0,0,0,2.252,3.393A4.913,4.913,0,0,0,325,617.953a16.879,16.879,0,0,0,3.883.188V621.2s1.258,3.661-4.557,4.133" transform="translate(-305.994 -592.752)" fill="#fdb594"/>
          <path id="Trazado_1000830" data-name="Trazado 1000830" d="M397.343,618.141v1.885c-6.121.165-8.831-3.039-10-5.5v-.41l.3-.961c.551.16,1.074.278,1.074.278a6.821,6.821,0,0,0,2.252,3.393,4.913,4.913,0,0,0,2.493,1.131,16.879,16.879,0,0,0,3.883.188" transform="translate(-374.457 -592.752)" fill="#fca27e"/>
          <path id="Trazado_1000831" data-name="Trazado 1000831" d="M21.452,1510.565v1.211a9.8,9.8,0,0,1-8.223,1.15,8.1,8.1,0,0,1-1.866-.8s-.028-.452-.066-1.206a11.51,11.51,0,0,0,1.932.8,9.8,9.8,0,0,0,8.223-1.15" transform="translate(-10.921 -1460.31)" fill="#ccdbf2"/>
          <path id="Trazado_1000832" data-name="Trazado 1000832" d="M10.531,1028.507a9.8,9.8,0,0,1-8.223,1.15,11.51,11.51,0,0,1-1.932-.8c-.174-3.341-.613-12.586-.212-14.014A8.932,8.932,0,0,1,2.4,1011.92s6.5-.405,8.755,8.548a27.733,27.733,0,0,1,.853,5.791.04.04,0,0,1,0,.033c.151,5.061-1.48,7.577-1.48,7.577Z" transform="translate(-0.001 -978.251)" fill="#ecf3fb"/>
          <path id="Trazado_1000833" data-name="Trazado 1000833" d="M964.151,1055.1a1.3,1.3,0,0,1-1.032.787,5.615,5.615,0,0,1-2.351-.179c-.066-.377-.137-.773-.217-1.183a7.057,7.057,0,0,0,2.568.151,1.433,1.433,0,0,0,.853-.471c.122.561.179.9.179.9" transform="translate(-928.594 -1019.136)" fill="#ccdbf2"/>
          <path id="Trazado_1000834" data-name="Trazado 1000834" d="M778.027,681.515a1.433,1.433,0,0,1-.853.471,7.053,7.053,0,0,1-2.568-.151c-.179-.947-.4-1.974-.65-3.02a.112.112,0,0,0-.009-.038c-1.107-4.533-2.94-9.438-5.74-10.013,0-.019.014-.042.019-.066.33-.024,1.2,0,1.875.028.495.019.881.038.881.038,4.166.792,6.423,9.839,7.045,12.751" transform="translate(-742.649 -646.442)" fill="#ecf3fb"/>
          <path id="Trazado_1000835" data-name="Trazado 1000835" d="M970.309,1103.8l-2.228,1.03h0l-.429-1.71a.074.074,0,0,0,0-.019c-.019-.174-.184-1.645-.537-3.676a5.619,5.619,0,0,0,2.351.179,11.187,11.187,0,0,1,.852,4.2" transform="translate(-934.931 -1062.851)" fill="#ffcaa4"/>
          <path id="Trazado_1000836" data-name="Trazado 1000836" d="M174.391,758.338l-1.282.7-11.682,6.38-.028.014-1.461.8c-.08-.57-.174-1.117-.273-1.64-.16-.82-.349-1.588-.561-2.3-.038-.127-.075-.259-.113-.382-.094-.3-.188-.589-.292-.867-.042-.118-.085-.231-.127-.344-.052-.141-.108-.278-.165-.415s-.108-.268-.17-.4c-.066-.156-.132-.306-.2-.452-.047-.108-.1-.207-.151-.311a13.753,13.753,0,0,0-2.186-3.247c-.057-.066-.118-.127-.179-.188a.628.628,0,0,0-.094-.1c-.075-.075-.146-.151-.221-.221a10.2,10.2,0,0,0-2.79-1.932c-.123-.057-.245-.108-.368-.16-.075-.033-.151-.061-.221-.09-.052-.019-.1-.038-.151-.052q-.247-.092-.467-.155a1.046,1.046,0,0,0-.151-.042c-.1-.028-.193-.052-.283-.075-.047-.009-.09-.024-.132-.028s-.085-.019-.123-.028-.08-.019-.118-.024a4.884,4.884,0,0,0-.726-.089c.264-.358.523-.683.782-.975a9.153,9.153,0,0,1,2.945-2.318c1.15,2.728,6.743,9.062,13.609,4.962,3.19-1.908,2.446-4.816,1.056-7.257-.075-.141-.156-.273-.236-.41a3.456,3.456,0,0,0,1.428-.372s.024-.057.071-.165c2.215.589,5.061,12.19,5.061,12.19" transform="translate(-144.696 -721.324)" fill="#ecf3fb"/>
          <path id="Trazado_1000837" data-name="Trazado 1000837" d="M105.427,700.432l-21.1,11.851c-.655-.443-1.282-.843-1.866-1.183a11.828,11.828,0,0,0-2.13-1.037v-5.829a5.807,5.807,0,0,0,.377-.749,10.534,10.534,0,0,0,.382-1.027c.66-2.064,1.3-5.937-.132-11.625-2.252-8.953-8.755-8.548-8.755-8.548.353-.353.712-.688,1.046-.985.853-.778,1.531-1.324,1.531-1.324s7.681.127,9.99,11.9a1.207,1.207,0,0,0,1.762.829l11.681-6.38a1.848,1.848,0,0,0,.966-1.513,1.668,1.668,0,0,0-.057-.608c-.843-3.12-2.959-10.306-4.689-10.767.08-.193.226-.551.4-1.008q.113-.3.24-.65c0-.009,0-.019.009-.024.094-.259.188-.532.278-.82.009,0,.014,0,.024,0,3.718.8,5.721,9.231,6.592,14.25.353,2.031.518,3.5.537,3.675a.074.074,0,0,1,0,.019l.429,1.711h0l2.3,9.132Z" transform="translate(-69.799 -648.616)" fill="#38ce65"/>
          <path id="Trazado_1000838" data-name="Trazado 1000838" d="M174.076,919.1a1.848,1.848,0,0,1-.966,1.513l-11.682,6.38L161.4,927a1.205,1.205,0,0,1-1.734-.844c-.16-.82-.349-1.588-.561-2.3-.033-.127-.075-.254-.113-.382-.094-.3-.188-.589-.292-.867-.042-.118-.085-.231-.127-.344-.052-.141-.108-.278-.165-.415s-.108-.273-.17-.4c-.066-.156-.132-.306-.2-.452-.047-.1-.1-.207-.151-.311a13.752,13.752,0,0,0-2.186-3.247c-.057-.066-.118-.127-.179-.188a.625.625,0,0,0-.094-.1c-.075-.075-.146-.151-.221-.221a10.2,10.2,0,0,0-2.79-1.932c-.123-.057-.245-.108-.368-.16-.075-.033-.151-.061-.221-.09-.052-.019-.1-.038-.151-.052q-.247-.092-.467-.155l-.151-.042c-.1-.028-.193-.052-.283-.075l-.132-.028c-.042-.014-.085-.019-.122-.028s-.08-.014-.118-.024a4.9,4.9,0,0,0-.726-.09c.264-.358.523-.683.782-.975,1.612.221,7.6,1.72,9.585,11.865a1.207,1.207,0,0,0,1.762.829l11.682-6.375a1.853,1.853,0,0,0,.589-.5" transform="translate(-144.696 -882.897)" fill="#dde6f5"/>
          <path id="Trazado_1000839" data-name="Trazado 1000839" d="M403.513,1221.432l-21.1,11.851c-.655-.443-1.282-.844-1.866-1.183v-10.522l20.05-11.71a.075.075,0,0,1,0,.019l.429,1.711h0Z" transform="translate(-367.885 -1169.617)" fill="#259d49"/>
          <path id="Trazado_1000840" data-name="Trazado 1000840" d="M275.321,769.962c-6.866,4.1-12.459-2.234-13.609-4.962a4.58,4.58,0,0,1,1.824-.509s1.31,5.551,7.8,5.023c5.815-.471,4.557-4.133,4.557-4.133v-3.058l.25-.028c.08.137.16.269.236.41,1.39,2.441,2.135,5.348-1.056,7.257" transform="translate(-253.005 -736.934)" fill="#ccdbf2"/>
          <path id="Trazado_1000841" data-name="Trazado 1000841" d="M230.227,3884.711a2.288,2.288,0,0,1-1.31,1.456c-4.891,2.219-7.978-.287-9.033-1.4l-.024-.023a.057.057,0,0,1-.019-.019,4.677,4.677,0,0,1-.368-.438,39.4,39.4,0,0,1-.4-4.123c.137.174.561.712.763.928a.056.056,0,0,0,.019.019l.024.023c1.055,1.117,4.142,3.624,9.033,1.4a2.289,2.289,0,0,0,1.31-1.456c.028-.08.052-.165.075-.255l.009,1.923a3.961,3.961,0,0,1-.085,1.965" transform="translate(-211.789 -3751.069)" fill="#556d77"/>
          <path id="Trazado_1000842" data-name="Trazado 1000842" d="M225.02,2056.375A5.612,5.612,0,0,1,222.3,2058l-.4,2.436-.4,2.413c-1.91,15.657-4.1,29.649-4.241,43.7-.024.09-.047.174-.075.254a2.288,2.288,0,0,1-1.31,1.456c-4.891,2.219-7.978-.287-9.033-1.4l-.024-.024a.055.055,0,0,1-.019-.019c-.2-.217-.627-.754-.763-.928-.2-3.214-.333-7.5-.424-11.113a76.9,76.9,0,0,1,.424-10.334c.183-1.666-.015-7.556-.01-9.455.024-17.765.405-30.158.405-30.158a8.581,8.581,0,0,0,2.846,1.828l11.988,6.182s.877.617,1.72,1.3a6.657,6.657,0,0,1,1.475,1.489,4.912,4.912,0,0,0,.561.754" transform="translate(-198.746 -1976.791)" fill="#38ce65"/>
          <path id="Trazado_1000843" data-name="Trazado 1000843" d="M749.763,3525.389l-.047,3.71a4.523,4.523,0,0,1-.514.8c-.872,1.1-2.912,2.813-6.672,1.574a3.462,3.462,0,0,1-2.926-2.62,6.749,6.749,0,0,1-.287-1.706v-3.633a6.751,6.751,0,0,0,.287,1.706,3.462,3.462,0,0,0,2.926,2.62c3.76,1.24,5.8-.476,6.672-1.574a5.506,5.506,0,0,0,.56-.878" transform="translate(-714.72 -3406.29)" fill="#556d77"/>
          <path id="Trazado_1000844" data-name="Trazado 1000844" d="M697.313,2401.968a44.03,44.03,0,0,1-.324,4.9,65.85,65.85,0,0,0-.6,8.257l-.174,16.5a5.514,5.514,0,0,1-.56.878c-.872,1.1-2.912,2.813-6.672,1.574a3.461,3.461,0,0,1-2.926-2.62,6.757,6.757,0,0,1-.287-1.706v-6.979s-.045-11.793-.134-13.094c0-.036-.005-.073-.008-.11v0c-.217-3.148-.721-8.562-1.7-10.984l.4-2.412.264-1.6.137-.833a5.614,5.614,0,0,0,2.724-1.621h0a28.811,28.811,0,0,0,3.93,3.8c.284.22.566.426.84.608h0a4.136,4.136,0,0,0,2,.837s1.48.377,1.48-.3v.405l1.4-.81s.156,2.347.207,5.311" transform="translate(-661.176 -2312.531)" fill="#38ce65"/>
          <path id="Trazado_1000845" data-name="Trazado 1000845" d="M404.026,1905.012l-12.723-7.4-10.527-6.122-.082-4.885-.144-8.547,0,0c.586.343,1.213.745,1.863,1.186a123.755,123.755,0,0,1,10.56,8.463c4.988-.122,6.615.707,7.1,1.431a.631.631,0,0,1-.591.959l-3.087-.228s3.421,4.26,4.6,5.584,1.225,3.7,1.4,4.538a.541.541,0,0,1,.014.118c0,.012,0,.024,0,.035v.369l1.4-.811s.156,2.347.207,5.311" transform="translate(-367.889 -1815.574)" fill="#259d49"/>
          <path id="Trazado_1000846" data-name="Trazado 1000846" d="M436.819,1605.2,415.9,1593.045l-.06-21.33,20.923,12.159Z" transform="translate(-402.001 -1519.425)" fill="#b77336"/>
          <path id="Trazado_1000847" data-name="Trazado 1000847" d="M436.759,1148.845l-20.923-12.159,25.931-14.971,20.923,12.159Z" transform="translate(-402.001 -1084.396)" fill="#fdc67d"/>
          <path id="Trazado_1000848" data-name="Trazado 1000848" d="M653.9,1275.036l-5.445-3.164,25.931-14.971,5.445,3.164Z" transform="translate(-626.885 -1215.084)" fill="#ecf3fb"/>
          <path id="Trazado_1000849" data-name="Trazado 1000849" d="M1070.667,1487.192l.06,21.33-25.931,14.971-.06-21.33Z" transform="translate(-1009.978 -1437.714)" fill="#eca25f"/>
          <path id="Trazado_1000850" data-name="Trazado 1000850" d="M1560.639,1910.934l.018,6.415-7.8,4.5-.018-6.415Z" transform="translate(-1501.178 -1847.359)" fill="#ecf3fb"/>
          <path id="Trazado_1000851" data-name="Trazado 1000851" d="M1590.1,1967.139v.436l-5.717,3.3v-.436Z" transform="translate(-1531.673 -1901.694)" fill="#3f434c"/>
          <path id="Trazado_1000852" data-name="Trazado 1000852" d="M1590.1,2010.511v.436l-5.717,3.3v-.436Z" transform="translate(-1531.673 -1943.623)" fill="#3f434c"/>
          <path id="Trazado_1000853" data-name="Trazado 1000853" d="M1587.919,2091.75v.436l-3.534,2.04v-.436Z" transform="translate(-1531.673 -2022.159)" fill="#3f434c"/>
          <path id="Trazado_1000854" data-name="Trazado 1000854" d="M101.623,1580.069c0,.012,0,.024,0,.035-.05.631-1.478.267-1.478.267a4.136,4.136,0,0,1-2-.838h0c-.274-.182-.556-.387-.84-.608a28.811,28.811,0,0,1-3.93-3.8h0a4.9,4.9,0,0,1-.559-.753c-.42-.839-3.195-2.79-3.195-2.79l-9.716-5.011-2.272-1.172a8.576,8.576,0,0,1-2.846-1.828A24.094,24.094,0,0,1,71.451,1560c-.669-1.056-2.045-11.851-2.045-11.851a9.8,9.8,0,0,0,8.223-1.15v9.98a12.058,12.058,0,0,1,2.133,1.033c.586.343,1.213.745,1.863,1.186a123.753,123.753,0,0,1,10.56,8.463c4.988-.122,6.615.707,7.1,1.431a.631.631,0,0,1-.591.959l-3.087-.228s3.421,4.26,4.6,5.584,1.225,3.7,1.4,4.538a.539.539,0,0,1,.014.118" transform="translate(-67.097 -1495.536)" fill="#ffcaa4"/>
          <path id="Trazado_1000855" data-name="Trazado 1000855" d="M252.572,4094.225a7.171,7.171,0,0,1-1.649.052,9.586,9.586,0,0,1-5.094-2l-8.242-6.3c-.287-.169-.349-1.07-.33-2,.019.688.108,1.268.33,1.4l8.242,6.3a9.624,9.624,0,0,0,5.094,2,7.441,7.441,0,0,0,1.649-.052,2.514,2.514,0,0,0,2.182-2.163,2.494,2.494,0,0,1-2.182,2.766" transform="translate(-229.361 -3948.105)" fill="#6f828c"/>
          <path id="Trazado_1000856" data-name="Trazado 1000856" d="M254.845,4026.966a2.514,2.514,0,0,1-2.182,2.163,7.441,7.441,0,0,1-1.649.052,9.624,9.624,0,0,1-5.094-2l-8.242-6.3c-.221-.132-.311-.712-.33-1.4v-.146c.033-1.046.156-2.073.156-2.073a.057.057,0,0,0,.019.019l.024.023c.523.617,6.272,7.328,10.838,9.6,4.792,2.38,5.706.415,5.867,0a1.9,1.9,0,0,0,.071-.9,3.686,3.686,0,0,0-.127-.627c.052.075.1.151.146.226a4.16,4.16,0,0,1,.349.73.264.264,0,0,1,.019.057,3.027,3.027,0,0,1,.137.58" transform="translate(-229.453 -3883.612)" fill="#bdceec"/>
          <path id="Trazado_1000857" data-name="Trazado 1000857" d="M260.044,4026.668c-.16.415-1.074,2.38-5.867,0-4.566-2.271-10.315-8.981-10.838-9.6,1.056,1.117,4.142,3.624,9.033,1.4a2.288,2.288,0,0,0,1.31-1.456c-.4,1.612,2.172,3.944,2.172,3.944l3.44,3.346a5.349,5.349,0,0,1,.693.829,2.492,2.492,0,0,1,.057,1.531" transform="translate(-235.243 -3883.374)" fill="#ecf3fb"/>
          <path id="Trazado_1000858" data-name="Trazado 1000858" d="M766.533,3814.932c-.481.985-1.772,1.23-3.035,1.211a8.861,8.861,0,0,1-4.4-1.31l-10.155-6.107a2.05,2.05,0,0,1-.994-1.758v-.6a2.051,2.051,0,0,0,.994,1.758l10.155,6.107a8.864,8.864,0,0,0,4.4,1.31c1.263.019,2.554-.226,3.035-1.211a3.215,3.215,0,0,0,.306-1.1,3.129,3.129,0,0,1-.306,1.7" transform="translate(-723.069 -3679.73)" fill="#6f828c"/>
          <path id="Trazado_1000859" data-name="Trazado 1000859" d="M766.839,3768.594a3.215,3.215,0,0,1-.306,1.1c-.481.985-1.772,1.23-3.035,1.211a8.864,8.864,0,0,1-4.4-1.31l-10.155-6.107a2.051,2.051,0,0,1-.994-1.758v-1.536s10.15,7.893,13.6,8.553,4.5,0,4.816-1.682a4.152,4.152,0,0,1,.467,1.531" transform="translate(-723.068 -3635.093)" fill="#bdceec"/>
          <path id="Trazado_1000860" data-name="Trazado 1000860" d="M766.413,3693.428v0c-.311,1.682-1.362,2.342-4.816,1.682s-13.6-8.553-13.6-8.553v-2.535a3.462,3.462,0,0,0,2.926,2.62c3.76,1.239,5.8-.476,6.672-1.574.024,1.39,3.379,3.685,3.379,3.685l4.317,3.333a3.97,3.97,0,0,1,1.117,1.32l.009.018" transform="translate(-723.108 -3561.462)" fill="#ecf3fb"/>
          <path id="Trazado_1000861" data-name="Trazado 1000861" d="M653.768,1710.065v9.057l-5.449-3.146,0-9.075Z" transform="translate(-626.749 -1650.113)" fill="#bdceec"/>
          <path id="Trazado_1000862" data-name="Trazado 1000862" d="M431.136,4082.94a.236.236,0,0,1-.156-.412,9.967,9.967,0,0,1,3.939-2.155.236.236,0,1,1,.125.455,9.493,9.493,0,0,0-3.751,2.053.237.237,0,0,1-.156.059" transform="translate(-416.565 -3944.615)" fill="#a2d0e0"/>
          <path id="Trazado_1000863" data-name="Trazado 1000863" d="M467.447,4123.808a.236.236,0,0,1-.156-.413,9.987,9.987,0,0,1,3.775-2.088.236.236,0,1,1,.131.453,9.521,9.521,0,0,0-3.595,1.989.236.236,0,0,1-.156.059" transform="translate(-451.668 -3984.185)" fill="#a2d0e0"/>
          <path id="Trazado_1000864" data-name="Trazado 1000864" d="M506.088,4160.58a.236.236,0,0,1-.153-.415,9.859,9.859,0,0,1,3.646-1.995.236.236,0,0,1,.133.452,9.4,9.4,0,0,0-3.472,1.9.235.235,0,0,1-.153.057" transform="translate(-489.023 -4019.822)" fill="#a2d0e0"/>
          <path id="Trazado_1000865" data-name="Trazado 1000865" d="M927.214,3758.48a.233.233,0,0,1-.145-.05.235.235,0,0,1-.041-.33,9.959,9.959,0,0,1,3.477-2.841.235.235,0,1,1,.206.423,9.5,9.5,0,0,0-3.311,2.706.235.235,0,0,1-.186.091" transform="translate(-896.138 -3630.301)" fill="#a2d0e0"/>
          <path id="Trazado_1000866" data-name="Trazado 1000866" d="M970.049,3792.878a.235.235,0,0,1-.185-.381,9.993,9.993,0,0,1,3.328-2.744.235.235,0,0,1,.212.421,9.512,9.512,0,0,0-3.169,2.614.235.235,0,0,1-.185.09" transform="translate(-937.548 -3663.646)" fill="#a2d0e0"/>
          <path id="Trazado_1000867" data-name="Trazado 1000867" d="M1014.283,3822.647a.236.236,0,0,1-.183-.384,9.87,9.87,0,0,1,3.219-2.629.236.236,0,0,1,.214.421,9.4,9.4,0,0,0-3.066,2.5.235.235,0,0,1-.183.087" transform="translate(-980.31 -3692.533)" fill="#a2d0e0"/>
          <path id="Trazado_1000868" data-name="Trazado 1000868" d="M431.767,151.708q-.17.177-.339.339c-3.954,3.765-9.335,1.225-9.335,1.225l.028,1.965a2.075,2.075,0,0,1-.636,1.527l-.683.65a2.076,2.076,0,0,0-.636,1.579l.071,1.711-.221.019a7.769,7.769,0,0,0-.7-1.428l.056,0-.071-1.706a2.086,2.086,0,0,1,.636-1.583l.683-.65a2.075,2.075,0,0,0,.636-1.527l-.028-1.96s5.381,2.54,9.335-1.225q.17-.163.339-.339a3.3,3.3,0,0,0,.834-3.713c1.192,1.456,1.758,3.27.028,5.122" transform="translate(-405.352 -141.709)" fill="#5a353e"/>
          <path id="Trazado_1000869" data-name="Trazado 1000869" d="M402.286,123.6q-.17.177-.339.339c-3.953,3.765-9.335,1.225-9.335,1.225l.028,1.96a2.075,2.075,0,0,1-.636,1.527l-.683.65a2.086,2.086,0,0,0-.636,1.583l.071,1.706-.056,0a8.236,8.236,0,0,0-.481-.707v0c-.137-.184-.283-.368-.448-.551l-.071-1.673a2.086,2.086,0,0,1,.636-1.583l.683-.65a2.075,2.075,0,0,0,.636-1.527l-.028-1.96s5.381,2.54,9.335-1.225q.17-.163.339-.339a3.319,3.319,0,0,0,.942-3.407,9.492,9.492,0,0,1,.876.919,3.3,3.3,0,0,1-.834,3.713" transform="translate(-376.733 -115.009)" fill="#512e36"/>
          <path id="Trazado_1000870" data-name="Trazado 1000870" d="M278.728,427.146a2.887,2.887,0,0,1-.193-1.225c.1-1.673,1.847-1.22,1.847-1.22a8.609,8.609,0,0,1,1.381,1.465v0c.094.123.179.245.259.363q-.122-.128-.256-.254a1.444,1.444,0,0,0-1.38-.348,1.192,1.192,0,0,0-.866,1.214,2.889,2.889,0,0,0,.193,1.225,3.952,3.952,0,0,0,.273.589,4.6,4.6,0,0,1-1.258-1.814" transform="translate(-269.263 -410.517)" fill="#512e36"/>
          <path id="Trazado_1000871" data-name="Trazado 1000871" d="M310.28,578.361l-.3.961a2.23,2.23,0,0,1-1.428-.688,8.14,8.14,0,0,1-1.112-1.3c-.042-.057-.085-.118-.127-.174.085.085.17.17.254.245A2.229,2.229,0,0,0,309,578.1l.076-.25c.019.014.038.024.056.038a1.54,1.54,0,0,0,.207.127,6.258,6.258,0,0,0,.942.349" transform="translate(-297.092 -557.962)" fill="#512e36"/>
          <path id="Trazado_1000872" data-name="Trazado 1000872" d="M211.674,7.369q-.17.177-.339.339C207.381,11.474,202,8.934,202,8.934l.028,1.96a2.075,2.075,0,0,1-.636,1.527l-.683.65a2.086,2.086,0,0,0-.636,1.583l.071,1.673c-.085-.1-.179-.2-.273-.3l0,0c-.08-.118-.165-.24-.259-.363v0a8.606,8.606,0,0,0-1.381-1.465s-1.743-.452-1.847,1.22a2.888,2.888,0,0,0,.193,1.225,4.6,4.6,0,0,0,1.258,1.814,4.655,4.655,0,0,0,1.258,1.442l-.075.25a2.229,2.229,0,0,1-1.428-.688c-.085-.075-.17-.16-.254-.245A30.313,30.313,0,0,1,195.6,16.53c-2.573-4.514-2.144-7.167-1.762-9.528.518-3.171,3.143-2.865,3.143-2.865-.419-2.37,3.072-3.7,3.072-3.7,4.745-1.465,9.283,1.258,9.283,1.258a15.87,15.87,0,0,1,3.284,2.267,3.319,3.319,0,0,1-.942,3.407" transform="translate(-187.106 -0.005)" fill="#5a353e"/>
          <path id="Trazado_1000873" data-name="Trazado 1000873" d="M2547,778.437a.5.5,0,0,1-.209.152c-.111.042-.292.108-.526.18-1.065.322-3.226.78-4.781-.229,0,0-1.74-1.1-1.839-1.492s-.05-3.387-.05-3.387-.792-2.186-2.235-.948a5.244,5.244,0,0,0-.749,2.044l-.545-.7s-1.523-6.137-2.91-7.53a1,1,0,0,0-.31-.229,2.169,2.169,0,0,1-1.046-1.369,4.34,4.34,0,0,1,1.468-4.681c2.291-1.858,6.564-4.651,9.363-2.409,0,0,4.781-.607,5.177,1.486a8.117,8.117,0,0,1,3.387,7.468s1.078,5.22-4.194,11.644" transform="translate(-2447.376 -731.821)" fill="#5a353e"/>
          <path id="Trazado_1000874" data-name="Trazado 1000874" d="M2589.787,1058.121a7.94,7.94,0,0,1-.854-1.424c-.31-.625-.563-1.214-.588-1.282-1.065.322-3.226.78-4.781-.229,0,0-1.74-1.1-1.839-1.492s-.05-3.387-.05-3.387-.792-2.186-2.235-.948a5.249,5.249,0,0,0-.749,2.044l-.545-.7s-1.523-6.137-2.91-7.53c0,0-.378,9.425.272,11.165,0,0-.1,2.489,2.885,2.143l1.627.026a.317.317,0,0,1,.312.317v4.952a6.466,6.466,0,0,0,6.62,1.369c4.815-1.652,2.836-5.022,2.836-5.022" transform="translate(-2489.453 -1008.467)" fill="#ffcaa4"/>
          <path id="Trazado_1000875" data-name="Trazado 1000875" d="M2423.775,1459.05a1.156,1.156,0,0,1-.113.094c-.056.052-.126.113-.22.188-.689.534-2.324,1.635-3.846,1.382,0,0-.2,6.966-1.658,11.609a13.412,13.412,0,0,0-.384,1.537,24.673,24.673,0,0,0-.342,5.486,32.7,32.7,0,0,0,.4,3.992s-.089.145-.258.394c-.061.084-.126.183-.206.291v0a14.884,14.884,0,0,1-15.517,5.866c-.661-.15-1.335-.253-2.005-.347a7.9,7.9,0,0,1-5.467-3.387c-.136-.2-.272-.412-.4-.632v-4.657a4.219,4.219,0,0,0,3.017-.782c2.347-1.513,3-6.9,3.191-10.073,0-.1.009-.2.019-.3.066-1.251.052-2.085.052-2.085a15.555,15.555,0,0,1-6.381-1.832c-.136-.075-.267-.155-.4-.244l-.159-4.352-.052-1.246a7.24,7.24,0,0,1,3.27-6.325l6.32-4.141,1.3-.853.365-.173a1.44,1.44,0,0,0,.956,1.359,18.269,18.269,0,0,0,5.664.97,2.6,2.6,0,0,0,2.942-2.15,5.972,5.972,0,0,0,.042-2.089v-.014a2.97,2.97,0,0,0-.44-1.171c-.183-.291-.379-.665-.562-1.021l.389-.183H2418s3.785.956,4.113,3.547a49.254,49.254,0,0,1,1.659,11.342" transform="translate(-2313.422 -1396.115)" fill="#ffc258"/>
          <path id="Trazado_1000876" data-name="Trazado 1000876" d="M2692.134,1451.095c-3.12,2.169-8.381.253-10.691-1.607l1.3-.853.365-.173a1.44,1.44,0,0,0,.956,1.359,11.44,11.44,0,0,0,4.606.875c1.935.042,4.518-2.008,4.042-4.145v-.014a2.97,2.97,0,0,0-.44-1.171c-.183-.291-.379-.665-.562-1.021l.389-.183h.689c.768,1.5,2.136,5-.656,6.934" transform="translate(-2592.233 -1396.115)" fill="#ffa20e"/>
          <path id="Trazado_1000877" data-name="Trazado 1000877" d="M3136.13,1911.433s-1.183,3.183-6.223,3.208a13.586,13.586,0,0,1,.384-1.536c1.461-4.644,1.66-11.611,1.66-11.611,1.523.254,3.158-.848,3.845-1.381Z" transform="translate(-3025.777 -1836.898)" fill="#ffcaa4"/>
          <path id="Trazado_1000878" data-name="Trazado 1000878" d="M1859.272,2043.233c-.161,3.121-.786,8.806-3.208,10.372a4.21,4.21,0,0,1-3.016.78,3.855,3.855,0,0,1-2.359-1.443l-6.434-6.037a13.547,13.547,0,0,1-10.286-2.192s-.991-.663,1-.929,6.5-.892,4.979-2.638-4.118-3-3.715-3.6,5.041,1,6.1,1.79c0,0,3.715,1.79,4.644,3.517s4.911,4.248,4.911,4.248l1.059-7.79a15.582,15.582,0,0,0,6.384,1.833s.012.836-.056,2.087" transform="translate(-1772.716 -1969.632)" fill="#ffcaa4"/>
          <path id="Trazado_1000879" data-name="Trazado 1000879" d="M2396.032,2706.5s-1.406,3.951-7.84.167a2.657,2.657,0,0,1-1.034-.836,6.55,6.55,0,0,1-1.09-1.883,6.045,6.045,0,0,0,.415-2.074,11.613,11.613,0,0,0,.019-1.251,18.039,18.039,0,0,0-.434-3.226c-1-4.533-4.972-15.977-4.972-15.977s-2.787-3.641-2.687-6.05l-2.235-10.471-.087-.4c-.118.477-.167.768-.167.768-1.728,7.7-3.084,21.128-2.886,21.729.972,2.948-.644,20.063-.786,21.587-.006.074-.012.112-.012.112-.229.105-.452.2-.669.285l-.006.006c-6.843,2.712-8.88-4.3-8.88-4.3a114.956,114.956,0,0,0-.694-22.565c-1.325-8.663.471-26.857,1.307-34.3.235-2.05.39-3.288.39-3.288a7.9,7.9,0,0,0,5.468,3.387c.669.093,1.344.2,2.006.347a14.868,14.868,0,0,0,15.512-5.864c.019.118.266,1.622.576,4.335a238.629,238.629,0,0,1,1.4,24.852,8.71,8.71,0,0,0,1.008,4.007c1.955,3.693,6.118,13.458,6.364,30.006.006.3.012.595.012.9" transform="translate(-2282.948 -2554.488)" fill="#3e76ef"/>
          <path id="Trazado_1000880" data-name="Trazado 1000880" d="M2438.944,2646.734c-12.67,11.2-21.82,5.127-23.952,1.084.235-2.05.39-3.288.39-3.288a7.9,7.9,0,0,0,5.468,3.387c.669.093,1.344.2,2.006.347a14.868,14.868,0,0,0,15.512-5.864c.019.118.266,1.622.576,4.335" transform="translate(-2334.647 -2554.488)" fill="#3971d3"/>
          <path id="Trazado_1000881" data-name="Trazado 1000881" d="M2088.693,4532.4a2.605,2.605,0,0,1-.787,1.344c-1.591,1.394-5.418-.254-5.418-.254l-10.405-4.409a6.1,6.1,0,0,1-3.1-2.96c-.062-.143-.118-.272-.155-.378-.644-1.808-.421-3.016.111-3.821a4.966,4.966,0,0,0,.285,2.923,3.993,3.993,0,0,0,.161.378,6.065,6.065,0,0,0,3.1,2.96l10.405,4.409s3.827,1.647,5.418.254a2.053,2.053,0,0,0,.39-.446" transform="translate(-1999.617 -4371.484)" fill="#3f434c"/>
          <path id="Trazado_1000882" data-name="Trazado 1000882" d="M2100.185,4493.6a2.053,2.053,0,0,1-.39.446c-1.592,1.394-5.418-.254-5.418-.254l-10.405-4.409a6.065,6.065,0,0,1-3.1-2.96,3.993,3.993,0,0,1-.161-.378,4.966,4.966,0,0,1-.285-2.923,2.681,2.681,0,0,1,.427-.514,3.223,3.223,0,0,1,3.319-.613c.805.291,1.592.539,2.335.755.47.13.923.254,1.356.359a6.236,6.236,0,0,0-3.307,1.641,2.066,2.066,0,0,0-.019,2.489c1.393,2.434,15.322,7.537,15.6,3.6a6.406,6.406,0,0,1,.043,2.762" transform="translate(-2011.108 -4332.676)" fill="#ccdbf2"/>
          <path id="Trazado_1000883" data-name="Trazado 1000883" d="M2211.209,4528.748c-.006.173-.012.347-.031.533-.279,3.938-14.207-1.165-15.6-3.6-1.814-3.17,3.109-4.093,3.325-4.13h.006c.05.019.334.136.743.266-1.659.359-4.427,1.307-3.1,3.629,1.257,2.2,12.065,5.438,14.653,3.3" transform="translate(-2122.145 -4371.123)" fill="#96beed"/>
          <path id="Trazado_1000884" data-name="Trazado 1000884" d="M2241.084,4536.486c-2.588,2.137-13.4-1.1-14.653-3.3-1.331-2.322,1.437-3.27,3.1-3.629a6.071,6.071,0,0,0,2.178.208l-.034.411s-.91,4.081,3.765,5.375a5.535,5.535,0,0,0,3.443-.006,3.952,3.952,0,0,0,1.43-.929v-.006a3.3,3.3,0,0,0,.372-.434,5.662,5.662,0,0,1,.186.576,6.251,6.251,0,0,1,.217,1.734" transform="translate(-2152.02 -4378.861)" fill="#a5c3ef"/>
          <path id="Trazado_1000885" data-name="Trazado 1000885" d="M2894.1,4397.508a2.029,2.029,0,0,1-.861,1.338c-.656.489-3.988.613-5.548-.842a11.556,11.556,0,0,0-1.393-1.108,10.708,10.708,0,0,0-3.691-1.647,9.788,9.788,0,0,1-5.53-3.418,4.389,4.389,0,0,1,.006-4.279,4.428,4.428,0,0,0,.39,3.381,9.788,9.788,0,0,0,5.53,3.418,10.708,10.708,0,0,1,3.691,1.647,11.537,11.537,0,0,1,1.393,1.108c1.561,1.455,4.892,1.332,5.548.842a2.455,2.455,0,0,0,.465-.44" transform="translate(-2780.823 -4241.58)" fill="#3f434c"/>
          <path id="Trazado_1000886" data-name="Trazado 1000886" d="M2401.7,4518.5s-.1.724-.17,1.185a.961.961,0,0,1-.384.651,6.581,6.581,0,0,1-5.317.653c-4.675-1.294-3.765-5.375-3.765-5.375s.037-.4.081-1.121c0,0,2.167,7.468,9.555,4.006" transform="translate(-2312.417 -4364.298)" fill="#366bc9"/>
          <path id="Trazado_1000887" data-name="Trazado 1000887" d="M2905.808,4366.518a6.568,6.568,0,0,1-.087,1.065,2.455,2.455,0,0,1-.465.44c-.656.489-3.988.613-5.548-.842a11.537,11.537,0,0,0-1.393-1.108,10.708,10.708,0,0,0-3.691-1.647,9.788,9.788,0,0,1-5.53-3.418,4.428,4.428,0,0,1-.39-3.381,2.3,2.3,0,0,1,1.988-1.028,9.578,9.578,0,0,1,3.115.465,10.253,10.253,0,0,1,1.115.433s-2.471.452-3.517,1.9v.006a2.371,2.371,0,0,0-.4.892,1.145,1.145,0,0,0,.57,1.189c1.852,1.09,7.592,4.359,10.49,4.774,2.384.34,3.276-.861,3.6-1.647a7.206,7.206,0,0,1,.136,1.914" transform="translate(-2792.445 -4211.655)" fill="#ccdbf2"/>
          <path id="Trazado_1000888" data-name="Trazado 1000888" d="M2976.684,4390.751c-.328.787-1.22,1.988-3.6,1.647-2.9-.415-8.638-3.685-10.49-4.774a1.145,1.145,0,0,1-.57-1.189c.452-2.161,3.914-2.793,3.914-2.793s.353.062.663.143h.006a1.951,1.951,0,0,1,.409.148c.006.248.012.489,0,.706a8.677,8.677,0,0,1-.149,1.6,3.363,3.363,0,0,0,.557,2.588,3.016,3.016,0,0,0,1.282,1.146c6.434,3.784,7.84-.167,7.84-.167Z" transform="translate(-2863.457 -4237.801)" fill="#96beed"/>
          <path id="Trazado_1000889" data-name="Trazado 1000889" d="M2985.042,4393.515c-1.777-.91-3.375-1.833-4.143-2.285a.534.534,0,0,1-.279-.539c.285-1.375,3.041-2.483,3.969-2.768h.006a1.951,1.951,0,0,1,.409.148c.006.248.012.489,0,.706a9.367,9.367,0,0,0-.756,1.492,3.993,3.993,0,0,0,.663,3.059c.043.068.087.124.13.186" transform="translate(-2881.45 -4241.939)" fill="#a5c3ef"/>
          <path id="Trazado_1000890" data-name="Trazado 1000890" d="M2438.473,2623.9s-.155.26-.464.681v.006a14.868,14.868,0,0,1-15.512,5.864c-.662-.148-1.337-.254-2.006-.347a7.9,7.9,0,0,1-5.468-3.387c-.136-.2-.272-.409-.4-.632v-2.39c.13.223.266.433.4.632a7.9,7.9,0,0,0,5.468,3.387c.669.093,1.344.2,2.006.347a15.056,15.056,0,0,0,15.62-5.8c0-.006.294-.434.356-.521a11.443,11.443,0,0,1,0,2.158" transform="translate(-2334.287 -2534.515)" fill="#ffa20e"/>
          <path id="Trazado_1000891" data-name="Trazado 1000891" d="M3117.1,4434.616s-1.406,3.951-7.84.167a2.212,2.212,0,0,1-.714-.488,3.8,3.8,0,0,1-1.1-3.4c.042-.257.079-.559.1-.906l.056.148s1.994,7.233,9.481,3.58c.006.3.012.594.012.9" transform="translate(-3004.012 -4282.607)" fill="#366bc9"/>
          <path id="Trazado_1000892" data-name="Trazado 1000892" d="M2670.735,3076.453c-2.415,1.79-3.833,5.92-4.013,7.654-.118.477-.167.768-.167.768-1.728,7.7-3.084,21.129-2.885,21.729.972,2.948-.644,20.063-.786,21.587l-.681.4-.006.006s-.1-13.128,0-20.6,2.558-19,2.558-19c.13-9.691,5.982-12.54,5.982-12.54" transform="translate(-2573.584 -2974.101)" fill="#3971d3"/>
          <path id="Trazado_1000893" data-name="Trazado 1000893" d="M2813.407,3296.274a9.484,9.484,0,0,1-.279,1.907,6.556,6.556,0,0,1-1.09-1.883,6.045,6.045,0,0,0,.415-2.074,11.613,11.613,0,0,0,.019-1.251,18.039,18.039,0,0,0-.434-3.226c-.733-3.334-3.078-10.406-4.267-13.914a16.339,16.339,0,0,0-1.633-3.422,10.774,10.774,0,0,1-1.754-4.32,5.248,5.248,0,0,0-.083-.732l-2.158-10.109.285-2.112s11.623,31.092,10.979,41.136" transform="translate(-2708.917 -3146.842)" fill="#3971d3"/>
          <path id="Trazado_1000894" data-name="Trazado 1000894" d="M2397.326,2087.174l-.075,1.6a.944.944,0,0,0,.377.8c1.025.765,3.846,2.595,6.423,1.762l.056-2.087a16.258,16.258,0,0,1-6.78-2.074" transform="translate(-2317.495 -2017.735)" fill="#ffa20e"/>
          <path id="Trazado_1000895" data-name="Trazado 1000895" d="M3192.8,1891.738v1.313a1.008,1.008,0,0,1-.487.864,8.332,8.332,0,0,1-3.786,1.278l.093-1.8a8.043,8.043,0,0,0,4.18-1.66" transform="translate(-3082.45 -1828.801)" fill="#ffa20e"/>
          <path id="Trazado_1000896" data-name="Trazado 1000896" d="M2594.412,1943.666c.553,2.245.049,6.641-.056,8.936l-.252-2.123a32.552,32.552,0,0,0,.308-6.812" transform="translate(-2507.8 -1879.002)" fill="#ffa20e"/>
          <path id="Trazado_1000897" data-name="Trazado 1000897" d="M3160.122,1723.66c.113-2.486.2-7.073-.978-9.358a5.1,5.1,0,0,1,.781,1.771,23.4,23.4,0,0,1,.6,5.81l-.4,1.778" transform="translate(-3054.041 -1657.268)" fill="#ffa20e"/>
        </g>
      </g>
    </g>
  </g>
</svg>
