<svg xmlns="http://www.w3.org/2000/svg" width="96" height="96" viewBox="0 0 96 96">
  <g id="Grupo_1179121" data-name="Grupo 1179121" transform="translate(-4405.746 7450.365)">
    <g id="Grupo_154427" data-name="Grupo 154427" transform="translate(3611.707 -10370.445)">
      <path id="Elipse_5729" data-name="Elipse 5729" d="M48,0A48,48,0,1,1,0,48,48,48,0,0,1,48,0Z" transform="translate(794.039 2920.081)" fill="#1e3a8a"/>
      <g id="Grupo_1178808" data-name="Grupo 1178808" transform="translate(807.403 2913.176)">
        <g id="Grupo_1178807" data-name="Grupo 1178807" transform="translate(0 23.936)">
          <path id="Trazado_999013" data-name="Trazado 999013" d="M122.535,134.239a1.015,1.015,0,1,0-2.029,0v1.5a1.015,1.015,0,0,0,2.029,0Z" transform="translate(-104.202 -118.438)" fill="#fff"/>
          <path id="Trazado_999014" data-name="Trazado 999014" d="M185.932,133.224a1.015,1.015,0,0,0-1.015,1.015v1.5a1.015,1.015,0,0,0,2.029,0v-1.5A1.015,1.015,0,0,0,185.932,133.224Z" transform="translate(-159.898 -118.438)" fill="#fff"/>
          <path id="Trazado_999015" data-name="Trazado 999015" d="M139.239,192.379a2.6,2.6,0,0,1-3.673,0,1.015,1.015,0,0,0-1.435,1.435,4.632,4.632,0,0,0,6.543,0,1.015,1.015,0,0,0-1.435-1.435Z" transform="translate(-115.726 -169.332)" fill="#fff"/>
          <path id="Trazado_999016" data-name="Trazado 999016" d="M142.317,147.9l1.2.9a1.015,1.015,0,0,0,1.218-1.624l-.991-.743,1.194-1.592a1.015,1.015,0,1,0-1.624-1.218l-1.352,1.8A1.768,1.768,0,0,0,142.317,147.9Z" transform="translate(-122.452 -127.08)" fill="#fff"/>
          <path id="Trazado_999017" data-name="Trazado 999017" d="M41.807,45.109a1.015,1.015,0,1,0,0,2.029H67.851a1.422,1.422,0,0,0,1.421-1.421V43.039a1.422,1.422,0,0,0-1.421-1.421H65.28V36.2a1.423,1.423,0,0,0-1.422-1.422H57.133A1.423,1.423,0,0,0,55.711,36.2v5.42H52.526V36.2A1.423,1.423,0,0,0,51.1,34.777H44.378A1.423,1.423,0,0,0,42.956,36.2v5.42H39.771V36.2a1.423,1.423,0,0,0-1.422-1.422H34.11v-2.6A5.653,5.653,0,0,0,25.432,27.4,9.063,9.063,0,0,0,9.242,33v6.225a4.023,4.023,0,0,0-1.2,2.87v1.483a4.023,4.023,0,0,0,1.2,2.87v4.075a3.048,3.048,0,0,0,3.044,3.044h2.093a1.417,1.417,0,0,0-.147.625v.051h-.106a9.414,9.414,0,0,0-9.17,7.34H3.448A1.422,1.422,0,0,0,2.028,63v9.4A2.369,2.369,0,0,0,0,74.74v4.653a2.369,2.369,0,0,0,2.028,2.34V85.31a1.422,1.422,0,0,0,1.421,1.421h18.2a1.422,1.422,0,0,0,1.421-1.421V81.672H36.936a1.693,1.693,0,0,0,1.691-1.691V76.9H55.2a1.015,1.015,0,0,0,0-2.029H38.627V73.409H67.242V74.87H59.936a1.015,1.015,0,0,0,0,2.029h7.915a1.422,1.422,0,0,0,1.421-1.421V72.8a1.422,1.422,0,0,0-1.421-1.421H65.28V65.96a1.423,1.423,0,0,0-1.422-1.422H57.133a1.423,1.423,0,0,0-1.422,1.422v5.42H52.526V65.96A1.423,1.423,0,0,0,51.1,64.538H44.378a1.423,1.423,0,0,0-1.422,1.422v5.42H38.627V63.644a9.416,9.416,0,0,0-.143-1.625H67.851A1.422,1.422,0,0,0,69.272,60.6V57.92A1.422,1.422,0,0,0,67.851,56.5H65.28v-5.42a1.423,1.423,0,0,0-1.422-1.422H57.133a1.423,1.423,0,0,0-1.422,1.422V56.5H52.526v-5.42A1.423,1.423,0,0,0,51.1,49.658H44.378a1.423,1.423,0,0,0-1.422,1.422V56.5h-7.63a9.358,9.358,0,0,0-6.1-2.257h-.106v-.051a1.417,1.417,0,0,0-.147-.625h2.093a3.048,3.048,0,0,0,3.044-3.044V47.139h2.962a1.015,1.015,0,1,0,0-2.029H35.009a4.011,4.011,0,0,0,.3-1.461H67.242v1.461ZM57.741,66.567h5.51v4.812h-5.51Zm-12.755,0H50.5v4.812h-5.51ZM11.272,33a7.033,7.033,0,0,1,12.849-3.956,1.42,1.42,0,0,0,2.064.311,3.582,3.582,0,0,1,2.271-.8,3.629,3.629,0,0,1,3.625,3.625v5.961a4.042,4.042,0,0,0-.8-.081h-.252A4.764,4.764,0,0,0,27.9,33.746a3.628,3.628,0,0,0-2.749.129L20.41,36.022a1.008,1.008,0,0,1-.419.091H15.367a3.049,3.049,0,0,0-2.838,1.946h-.452a4.031,4.031,0,0,0-.8.081Zm10.4,18.795a7.332,7.332,0,0,1-7.324-7.324V39.157a1.016,1.016,0,0,1,1.015-1.015h4.625a3.023,3.023,0,0,0,1.257-.272l4.739-2.148a1.634,1.634,0,0,1,1.219-.069A2.731,2.731,0,0,1,29,38.213V44.47a7.332,7.332,0,0,1-7.324,7.324Zm5.414,2.735v5.349l-2.628-2.1.239-.2a3.04,3.04,0,0,0,1.067-2.315V53.7Zm-3.351-.938v1.663a1.013,1.013,0,0,1-.356.771l-1.707,1.459-1.707-1.458a1.014,1.014,0,0,1-.356-.772V53.591a9.287,9.287,0,0,0,4.126,0ZM18.65,57.569l.239.2-2.628,2.1V54.529l1.322-.825v1.55A3.04,3.04,0,0,0,18.65,57.569ZM10.07,43.577V42.094a2.009,2.009,0,0,1,2.006-2.006h.246V44.47a9.367,9.367,0,0,0,.067,1.113h-.313a2.008,2.008,0,0,1-2.006-2.006Zm2.217,7.959a1.016,1.016,0,0,1-1.015-1.015v-2.99a4.042,4.042,0,0,0,.8.081h.791a9.389,9.389,0,0,0,2.693,3.924Zm4,10.442v1.832H8.81V61.978Zm-2.159-5.707h.106v3.677H8.2a1.413,1.413,0,0,0-.5.093,7.374,7.374,0,0,1,6.428-3.771ZM2.368,79.731a.343.343,0,0,1-.338-.338V74.74a.343.343,0,0,1,.338-.338H5.385a.343.343,0,0,1,.338.338v4.653a.343.343,0,0,1-.338.338ZM67.242,59.99H37.888a9.382,9.382,0,0,0-.78-1.461H67.242Zm-9.5-8.3h5.51V56.5h-5.51Zm-12.755,0H50.5V56.5h-5.51ZM29.12,61.145V56.272h.106A7.38,7.38,0,0,1,36.6,63.644v16H23.067V72.651a1.015,1.015,0,1,0-2.029,0V84.7H4.057V81.76H5.385a2.37,2.37,0,0,0,2.368-2.368V74.74a2.37,2.37,0,0,0-2.368-2.368H4.057v-8.76H6.78v.807A1.422,1.422,0,0,0,8.2,65.84h8.693a1.422,1.422,0,0,0,1.421-1.421v-.807h2.723v4.3a1.015,1.015,0,1,0,2.029,0V63a1.422,1.422,0,0,0-1.421-1.421H18.314V61.37a1.412,1.412,0,0,0-.082-.47l2.228-1.784.3.256a1.4,1.4,0,0,0,1.831,0l.3-.256,3.92,3.139a1.421,1.421,0,0,0,2.309-1.109ZM32.08,50.522a1.016,1.016,0,0,1-1.015,1.015H27.792a9.389,9.389,0,0,0,2.693-3.924h.791a4.042,4.042,0,0,0,.8-.081v2.99Zm1.2-6.945a2.009,2.009,0,0,1-2.006,2.006h-.313a9.4,9.4,0,0,0,.067-1.113V40.088h.246a2.009,2.009,0,0,1,2.006,2.006v1.483Zm4.459-1.958H35.283a4.026,4.026,0,0,0-1.173-2.395V36.806h3.632Zm20-4.812h5.51v4.812h-5.51Zm-12.755,0H50.5v4.812h-5.51Z" transform="translate(0 -23.936)" fill="#fff"/>
        </g>
      </g>
    </g>
  </g>
</svg>
