<svg xmlns="http://www.w3.org/2000/svg" width="146.559" height="129.374" viewBox="0 0 146.559 129.374">
  <g id="Grupo_1179118" data-name="Grupo 1179118" transform="translate(-1147.535 -3758.958)">
    <g id="Grupo_1176875" data-name="Grupo 1176875" transform="translate(837.074)">
      <g id="Grupo_1100241" data-name="Grupo 1100241" transform="translate(265.521 3743.979)">
        <rect id="Rectángulo_401023" data-name="Rectángulo 401023" width="126.094" height="129.373" rx="20" transform="translate(44.941 14.978)" fill="#1e3a8a"/>
        <rect id="Rectángulo_401024" data-name="Rectángulo 401024" width="123.264" height="61.816" rx="20" transform="translate(66.736 70.047)" fill="none" stroke="#fe8938" stroke-miterlimit="10" stroke-width="3"/>
      </g>
      <g id="Grupo_1177181" data-name="Grupo 1177181" transform="translate(325.816 3775.08)">
        <path id="Trazado_992444" data-name="Trazado 992444" d="M75.609,10.646v87.3c0,4.829-3.26,8.742-7.27,8.742H13.394c-4.024,0-7.284-3.913-7.284-8.742v-87.3c0-4.813,3.26-8.726,7.284-8.726H68.339c4.01,0,7.27,3.913,7.27,8.726Z" transform="translate(1.456 0)" fill="#31718e"/>
        <path id="Trazado_992445" data-name="Trazado 992445" d="M71.609,10.646v87.3c0,4.829-3.26,8.742-7.27,8.742H9.394c-4.024,0-7.284-3.913-7.284-8.742v-87.3c0-4.813,3.26-8.726,7.284-8.726H64.339c4.01,0,7.27,3.913,7.27,8.726Z" transform="translate(0 0)" fill="#53bced"/>
        <path id="Trazado_992446" data-name="Trazado 992446" d="M8.3,94.953c-1.76,0-3.192-1.718-3.192-3.83V8.73c0-2.1,1.432-3.814,3.192-3.814H63.25c1.752,0,3.178,1.711,3.178,3.814V91.123c0,2.112-1.426,3.83-3.178,3.83H8.3Z" transform="translate(1.093 1.908)" fill="#fff"/>
        <path id="Trazado_992447" data-name="Trazado 992447" d="M21.5,63.91a15.722,15.722,0,0,1,4.149-1.283,24.4,24.4,0,0,1,4.149-.353,23.912,23.912,0,0,1,4.149.349A15.493,15.493,0,0,1,38.1,63.91,15.493,15.493,0,0,1,33.952,65.2a23.913,23.913,0,0,1-4.149.349,24.4,24.4,0,0,1-4.149-.353A15.721,15.721,0,0,1,21.5,63.91Z" transform="translate(7.061 38.448)" fill="#3a3a3a"/>
        <g id="Grupo_1177144" data-name="Grupo 1177144" transform="translate(9.858 13.305)">
          <g id="Grupo_1177139" data-name="Grupo 1177139" transform="translate(0 0.074)">
            <g id="Grupo_1177138" data-name="Grupo 1177138">
              <g id="Grupo_1177137" data-name="Grupo 1177137">
                <g id="Grupo_1177136" data-name="Grupo 1177136">
                  <path id="Trazado_992448" data-name="Trazado 992448" d="M25.85,11.752V26.093A2.613,2.613,0,0,1,23.5,28.908H10.15a2.623,2.623,0,0,1-2.36-2.815V11.752A2.639,2.639,0,0,1,10.15,8.92H23.5A2.63,2.63,0,0,1,25.85,11.752Z" transform="translate(-7.79 -8.92)" fill="#fbad3e"/>
                  <g id="Grupo_1177135" data-name="Grupo 1177135" transform="translate(2.1 0.014)">
                    <path id="Trazado_992449" data-name="Trazado 992449" d="M17.621,8.928V13.8c0,.562-.512.888-.9.58l-1.347-1.09a.5.5,0,0,0-.651.009l-1.266,1.054c-.381.317-.908-.009-.908-.571V8.928Z" transform="translate(-8.158 -8.928)" fill="#fa990e"/>
                    <path id="Trazado_992450" data-name="Trazado 992450" d="M15.735,17.981a5.682,5.682,0,0,1-1.6.518,8.208,8.208,0,0,1-1.6.141,9,9,0,0,1-1.6-.141,5.682,5.682,0,0,1-1.6-.518,5.656,5.656,0,0,1,1.6-.51,8.97,8.97,0,0,1,1.6-.149,8.223,8.223,0,0,1,1.6.149A5.656,5.656,0,0,1,15.735,17.981Z" transform="translate(-9.33 -3.581)" fill="#fa990e"/>
                    <path id="Trazado_992451" data-name="Trazado 992451" d="M12.155,19.009a2.528,2.528,0,0,1,.944.518,2.5,2.5,0,0,1-.944.51,2.941,2.941,0,0,1-.944.149,3.152,3.152,0,0,1-.937-.149,2.5,2.5,0,0,1-.944-.51,2.528,2.528,0,0,1,.944-.518,3.153,3.153,0,0,1,.937-.141A2.93,2.93,0,0,1,12.155,19.009Z" transform="translate(-9.33 -2.596)" fill="#fa990e"/>
                  </g>
                </g>
              </g>
            </g>
          </g>
          <g id="Grupo_1177143" data-name="Grupo 1177143" transform="translate(22.099)">
            <g id="Grupo_1177142" data-name="Grupo 1177142" transform="translate(0 6.768)">
              <g id="Grupo_1177141" data-name="Grupo 1177141">
                <g id="Grupo_1177140" data-name="Grupo 1177140">
                  <path id="Trazado_992452" data-name="Trazado 992452" d="M23.991,14.029a108.364,108.364,0,0,1,15.761-1.02c2.627.018,5.254.061,7.88.224a76.266,76.266,0,0,1,7.88.8,76.477,76.477,0,0,1-7.88.8c-2.627.162-5.254.206-7.88.224A108.472,108.472,0,0,1,23.991,14.029Z" transform="translate(-23.991 -13.009)" fill="#d1dafe"/>
                  <path id="Trazado_992453" data-name="Trazado 992453" d="M23.991,17.492a108.363,108.363,0,0,1,15.761-1.019c2.627.018,5.254.061,7.88.223a76.477,76.477,0,0,1,7.88.8,76.478,76.478,0,0,1-7.88.8c-2.627.162-5.254.205-7.88.224A108.365,108.365,0,0,1,23.991,17.492Z" transform="translate(-23.991 -10.802)" fill="#d1dafe"/>
                  <path id="Trazado_992454" data-name="Trazado 992454" d="M23.991,20.957a51.075,51.075,0,0,1,10.78-1.019c1.8.018,3.593.061,5.389.223a36.415,36.415,0,0,1,5.39.8,36.415,36.415,0,0,1-5.39.8c-1.8.162-3.593.205-5.389.223A51.075,51.075,0,0,1,23.991,20.957Z" transform="translate(-23.991 -8.595)" fill="#d1dafe"/>
                </g>
              </g>
            </g>
            <path id="Trazado_992455" data-name="Trazado 992455" d="M45.153,10.594a1.6,1.6,0,0,1-1.446,1.735H25.633a1.611,1.611,0,0,1-1.446-1.735,1.606,1.606,0,0,1,1.446-1.719H43.707a1.6,1.6,0,0,1,1.446,1.719Z" transform="translate(-23.919 -8.875)" fill="#8a9bea"/>
          </g>
        </g>
        <g id="Grupo_1177154" data-name="Grupo 1177154" transform="translate(9.858 41.959)">
          <g id="Grupo_1177149" data-name="Grupo 1177149" transform="translate(0 0.085)">
            <g id="Grupo_1177148" data-name="Grupo 1177148">
              <g id="Grupo_1177147" data-name="Grupo 1177147">
                <g id="Grupo_1177146" data-name="Grupo 1177146">
                  <path id="Trazado_992456" data-name="Trazado 992456" d="M25.85,29.263V43.6A2.613,2.613,0,0,1,23.5,46.418H10.15A2.622,2.622,0,0,1,7.79,43.6V29.263a2.64,2.64,0,0,1,2.36-2.833H23.5A2.63,2.63,0,0,1,25.85,29.263Z" transform="translate(-7.79 -26.43)" fill="#fbad3e"/>
                  <g id="Grupo_1177145" data-name="Grupo 1177145" transform="translate(2.1 0.003)">
                    <path id="Trazado_992457" data-name="Trazado 992457" d="M17.621,26.432v4.876c0,.562-.512.888-.9.58L15.374,30.8a.5.5,0,0,0-.651.009l-1.266,1.054c-.381.317-.908-.009-.908-.571V26.432Z" transform="translate(-8.158 -26.432)" fill="#fa990e"/>
                    <path id="Trazado_992458" data-name="Trazado 992458" d="M15.735,35.485a5.682,5.682,0,0,1-1.6.518,8.208,8.208,0,0,1-1.6.141,9,9,0,0,1-1.6-.141,5.682,5.682,0,0,1-1.6-.518,5.656,5.656,0,0,1,1.6-.51,8.97,8.97,0,0,1,1.6-.149,8.223,8.223,0,0,1,1.6.149A5.656,5.656,0,0,1,15.735,35.485Z" transform="translate(-9.33 -21.084)" fill="#fa990e"/>
                    <path id="Trazado_992459" data-name="Trazado 992459" d="M12.155,36.512a2.528,2.528,0,0,1,.944.518,2.5,2.5,0,0,1-.944.51,2.941,2.941,0,0,1-.944.149,3.152,3.152,0,0,1-.937-.149,2.5,2.5,0,0,1-.944-.51,2.528,2.528,0,0,1,.944-.518,3.153,3.153,0,0,1,.937-.141A2.929,2.929,0,0,1,12.155,36.512Z" transform="translate(-9.33 -20.1)" fill="#fa990e"/>
                  </g>
                </g>
              </g>
            </g>
          </g>
          <g id="Grupo_1177153" data-name="Grupo 1177153" transform="translate(22.099)">
            <g id="Grupo_1177152" data-name="Grupo 1177152" transform="translate(0 6.768)">
              <g id="Grupo_1177151" data-name="Grupo 1177151">
                <g id="Grupo_1177150" data-name="Grupo 1177150">
                  <path id="Trazado_992460" data-name="Trazado 992460" d="M23.991,31.532a108.364,108.364,0,0,1,15.761-1.02c2.627.018,5.254.061,7.88.224a76.266,76.266,0,0,1,7.88.8,76.473,76.473,0,0,1-7.88.8c-2.627.162-5.254.206-7.88.224A108.472,108.472,0,0,1,23.991,31.532Z" transform="translate(-23.991 -30.512)" fill="#d1dafe"/>
                  <path id="Trazado_992461" data-name="Trazado 992461" d="M23.991,35a108.362,108.362,0,0,1,15.761-1.019c2.627.018,5.254.061,7.88.223a76.476,76.476,0,0,1,7.88.8,76.481,76.481,0,0,1-7.88.8c-2.627.162-5.254.205-7.88.224A108.365,108.365,0,0,1,23.991,35Z" transform="translate(-23.991 -28.305)" fill="#d1dafe"/>
                  <path id="Trazado_992462" data-name="Trazado 992462" d="M23.991,38.46a51.076,51.076,0,0,1,10.78-1.019c1.8.018,3.593.061,5.389.223a36.415,36.415,0,0,1,5.39.8,36.415,36.415,0,0,1-5.39.8c-1.8.162-3.593.205-5.389.223A51.076,51.076,0,0,1,23.991,38.46Z" transform="translate(-23.991 -26.098)" fill="#d1dafe"/>
                </g>
              </g>
            </g>
            <path id="Trazado_992463" data-name="Trazado 992463" d="M45.153,28.1a1.6,1.6,0,0,1-1.446,1.735H25.633a1.755,1.755,0,0,1,0-3.455H43.707A1.6,1.6,0,0,1,45.153,28.1Z" transform="translate(-23.919 -26.378)" fill="#8a9bea"/>
          </g>
        </g>
        <g id="Grupo_1177164" data-name="Grupo 1177164" transform="translate(9.858 70.509)">
          <g id="Grupo_1177159" data-name="Grupo 1177159" transform="translate(0 0.086)">
            <g id="Grupo_1177158" data-name="Grupo 1177158">
              <g id="Grupo_1177157" data-name="Grupo 1177157">
                <g id="Grupo_1177156" data-name="Grupo 1177156">
                  <path id="Trazado_992464" data-name="Trazado 992464" d="M25.85,46.7v14.34A2.613,2.613,0,0,1,23.5,63.858H10.15a2.623,2.623,0,0,1-2.36-2.816V46.7a2.639,2.639,0,0,1,2.36-2.832H23.5A2.629,2.629,0,0,1,25.85,46.7Z" transform="translate(-7.79 -43.87)" fill="#fbad3e"/>
                  <g id="Grupo_1177155" data-name="Grupo 1177155" transform="translate(2.1 0.002)">
                    <path id="Trazado_992465" data-name="Trazado 992465" d="M17.621,43.871v4.876c0,.562-.512.888-.9.58l-1.347-1.09a.5.5,0,0,0-.651.009L13.456,49.3c-.381.317-.908-.009-.908-.571V43.871Z" transform="translate(-8.158 -43.871)" fill="#fa990e"/>
                    <path id="Trazado_992466" data-name="Trazado 992466" d="M15.735,52.924a5.682,5.682,0,0,1-1.6.518,8.208,8.208,0,0,1-1.6.141,9,9,0,0,1-1.6-.141,5.682,5.682,0,0,1-1.6-.518,5.656,5.656,0,0,1,1.6-.51,8.969,8.969,0,0,1,1.6-.149,8.223,8.223,0,0,1,1.6.149A5.656,5.656,0,0,1,15.735,52.924Z" transform="translate(-9.33 -38.524)" fill="#fa990e"/>
                    <path id="Trazado_992467" data-name="Trazado 992467" d="M12.155,53.952a2.527,2.527,0,0,1,.944.518,2.5,2.5,0,0,1-.944.51,2.941,2.941,0,0,1-.944.149,3.152,3.152,0,0,1-.937-.149,2.5,2.5,0,0,1-.944-.51,2.527,2.527,0,0,1,.944-.518,3.153,3.153,0,0,1,.937-.141A2.929,2.929,0,0,1,12.155,53.952Z" transform="translate(-9.33 -37.539)" fill="#fa990e"/>
                  </g>
                </g>
              </g>
            </g>
          </g>
          <g id="Grupo_1177163" data-name="Grupo 1177163" transform="translate(22.099)">
            <g id="Grupo_1177162" data-name="Grupo 1177162" transform="translate(0 6.768)">
              <g id="Grupo_1177161" data-name="Grupo 1177161">
                <g id="Grupo_1177160" data-name="Grupo 1177160">
                  <path id="Trazado_992468" data-name="Trazado 992468" d="M23.991,48.972a108.365,108.365,0,0,1,15.761-1.02c2.627.018,5.254.061,7.88.224a76.265,76.265,0,0,1,7.88.8,76.476,76.476,0,0,1-7.88.8c-2.627.162-5.254.206-7.88.224A108.472,108.472,0,0,1,23.991,48.972Z" transform="translate(-23.991 -47.952)" fill="#d1dafe"/>
                  <path id="Trazado_992469" data-name="Trazado 992469" d="M23.991,52.435a108.364,108.364,0,0,1,15.761-1.019c2.627.018,5.254.061,7.88.223a76.481,76.481,0,0,1,7.88.8,76.485,76.485,0,0,1-7.88.8c-2.627.162-5.254.205-7.88.224A108.367,108.367,0,0,1,23.991,52.435Z" transform="translate(-23.991 -45.745)" fill="#d1dafe"/>
                  <path id="Trazado_992470" data-name="Trazado 992470" d="M23.991,55.9a51.076,51.076,0,0,1,10.78-1.019c1.8.018,3.593.061,5.389.223a36.415,36.415,0,0,1,5.39.8,36.414,36.414,0,0,1-5.39.8c-1.8.162-3.593.205-5.389.223A51.075,51.075,0,0,1,23.991,55.9Z" transform="translate(-23.991 -43.538)" fill="#d1dafe"/>
                </g>
              </g>
            </g>
            <path id="Trazado_992471" data-name="Trazado 992471" d="M45.153,45.537a1.6,1.6,0,0,1-1.446,1.735H25.633a1.755,1.755,0,0,1,0-3.455H43.707A1.6,1.6,0,0,1,45.153,45.537Z" transform="translate(-23.919 -43.818)" fill="#8a9bea"/>
          </g>
        </g>
        <path id="Trazado_992472" data-name="Trazado 992472" d="M46.988,26.487l-.525,2.185c-.327,1.362.807,2.571,1.9,2.022l1.878-.948a1.212,1.212,0,0,1,1.18.056,12.135,12.135,0,0,0,6.144,1.663A12.507,12.507,0,1,0,45.224,18.96a12.565,12.565,0,0,0,1.56,6.085A2.034,2.034,0,0,1,46.988,26.487Z" transform="translate(15.696 2.889)" fill="#985221"/>
        <path id="Trazado_992473" data-name="Trazado 992473" d="M45.728,26.487,45.2,28.673c-.327,1.362.807,2.571,1.9,2.022l1.878-.948a1.212,1.212,0,0,1,1.18.056A12.135,12.135,0,0,0,56.3,31.465,12.507,12.507,0,1,0,43.964,18.96a12.565,12.565,0,0,0,1.56,6.085,2.034,2.034,0,0,1,.2,1.443Z" transform="translate(15.238 2.889)" fill="#fe8938"/>
        <path id="Trazado_992474" data-name="Trazado 992474" d="M45.205,24.589c-.328,1.363.807,2.565,1.889,2.023l1.88-.947a1.171,1.171,0,0,1,1.179.053A12.236,12.236,0,0,0,66.7,21.6a17.9,17.9,0,0,1-7.627,1.65c-7.609,0-13.914-4.513-14.952-10.377a12.367,12.367,0,0,0-.16,2,12.553,12.553,0,0,0,1.561,6.087,2.063,2.063,0,0,1,.2,1.437Z" transform="translate(15.238 6.976)" fill="#d46011"/>
        <path id="Trazado_992475" data-name="Trazado 992475" d="M59.883,11.006a17.224,17.224,0,0,1-1.327,2.861A24.627,24.627,0,0,1,56.948,16.4a29.331,29.331,0,0,1-3.816,4.341l-.176.155a.767.767,0,0,1-1.186-.155c-.517-.747-.986-1.55-1.456-2.353a22.537,22.537,0,0,1-1.28-2.565,17.4,17.4,0,0,1,2.137,1.537c.376.324.752.634,1.128.972a28.729,28.729,0,0,1,3.088-3.805A23.328,23.328,0,0,1,57.5,12.585a13.618,13.618,0,0,1,2.384-1.579Z" transform="translate(17.083 5.788)" fill="#fff"/>
        <g id="Grupo_1177172" data-name="Grupo 1177172" transform="translate(55.118 74.622)">
          <g id="Grupo_1177171" data-name="Grupo 1177171">
            <g id="Grupo_1177170" data-name="Grupo 1177170">
              <g id="Grupo_1177169" data-name="Grupo 1177169">
                <g id="Grupo_1177168" data-name="Grupo 1177168">
                  <g id="Grupo_1177167" data-name="Grupo 1177167">
                    <g id="Grupo_1177166" data-name="Grupo 1177166">
                      <path id="Trazado_992476" data-name="Trazado 992476" d="M67.3,46.33V78.662H43.862a3.223,3.223,0,0,1-2.892-3.471V49.784a3.217,3.217,0,0,1,2.892-3.454Z" transform="translate(-40.97 -46.33)" fill="#38ce65"/>
                      <g id="Grupo_1177165" data-name="Grupo 1177165" transform="translate(4.846 0.003)">
                        <path id="Trazado_992477" data-name="Trazado 992477" d="M67.936,49.795v25.39a3.223,3.223,0,0,1-2.892,3.471H60.27V46.34h4.774a3.207,3.207,0,0,1,2.892,3.455Z" transform="translate(-38.789 -46.327)" fill="#076a25"/>
                        <path id="Trazado_992478" data-name="Trazado 992478" d="M56.477,46.332v7.886c0,.91-.829,1.435-1.456.938l-2.179-1.762a.8.8,0,0,0-1.054.015l-2.048,1.7c-.616.512-1.468-.014-1.468-.923V46.332Z" transform="translate(-43.157 -46.332)" fill="#076a25"/>
                        <path id="Trazado_992479" data-name="Trazado 992479" d="M54.882,61.484a9.189,9.189,0,0,1-2.593.838,13.275,13.275,0,0,1-2.581.228,14.549,14.549,0,0,1-2.593-.228,9.189,9.189,0,0,1-2.593-.838,9.147,9.147,0,0,1,2.593-.824,14.505,14.505,0,0,1,2.593-.241,13.3,13.3,0,0,1,2.581.241A9.147,9.147,0,0,1,54.882,61.484Z" transform="translate(-44.522 -37.358)" fill="#076a25"/>
                        <path id="Trazado_992480" data-name="Trazado 992480" d="M49.092,63.146a4.088,4.088,0,0,1,1.527.838,4.042,4.042,0,0,1-1.527.824,4.757,4.757,0,0,1-1.527.241,5.1,5.1,0,0,1-1.515-.241,4.042,4.042,0,0,1-1.527-.824,4.088,4.088,0,0,1,1.527-.838,5.1,5.1,0,0,1,1.515-.228A4.738,4.738,0,0,1,49.092,63.146Z" transform="translate(-44.522 -35.766)" fill="#076a25"/>
                      </g>
                    </g>
                  </g>
                </g>
              </g>
            </g>
          </g>
        </g>
        <g id="Grupo_1177180" data-name="Grupo 1177180" transform="translate(62.948 49.738)">
          <g id="Grupo_1177179" data-name="Grupo 1177179">
            <g id="Grupo_1177178" data-name="Grupo 1177178">
              <g id="Grupo_1177177" data-name="Grupo 1177177">
                <g id="Grupo_1177176" data-name="Grupo 1177176">
                  <g id="Grupo_1177175" data-name="Grupo 1177175">
                    <g id="Grupo_1177174" data-name="Grupo 1177174">
                      <path id="Trazado_992481" data-name="Trazado 992481" d="M66.98,31.13v24.9H48.933a2.477,2.477,0,0,1-2.223-2.668V33.8a2.477,2.477,0,0,1,2.223-2.668Z" transform="translate(-46.71 -31.13)" fill="#38ce65"/>
                      <g id="Grupo_1177173" data-name="Grupo 1177173" transform="translate(3.724 0.009)">
                        <path id="Trazado_992482" data-name="Trazado 992482" d="M67.466,33.792V53.355a2.477,2.477,0,0,1-2.224,2.668H61.56V31.14h3.683A2.472,2.472,0,0,1,67.466,33.792Z" transform="translate(-45.028 -31.132)" fill="#076a25"/>
                        <path id="Trazado_992483" data-name="Trazado 992483" d="M58.643,31.135v6.07c0,.7-.638,1.105-1.121.722l-1.677-1.357a.618.618,0,0,0-.811.011l-1.577,1.312c-.474.394-1.13-.011-1.13-.711V31.135Z" transform="translate(-48.389 -31.135)" fill="#076a25"/>
                        <path id="Trazado_992484" data-name="Trazado 992484" d="M57.415,42.8a7.074,7.074,0,0,1-2,.645,10.219,10.219,0,0,1-1.987.175,11.2,11.2,0,0,1-2-.175,7.074,7.074,0,0,1-2-.645,7.042,7.042,0,0,1,2-.634,11.167,11.167,0,0,1,2-.186,10.237,10.237,0,0,1,1.987.186A7.042,7.042,0,0,1,57.415,42.8Z" transform="translate(-49.44 -24.227)" fill="#076a25"/>
                        <path id="Trazado_992485" data-name="Trazado 992485" d="M52.958,44.079a3.147,3.147,0,0,1,1.176.645,3.112,3.112,0,0,1-1.176.634,3.662,3.662,0,0,1-1.176.186,3.924,3.924,0,0,1-1.167-.186,3.112,3.112,0,0,1-1.176-.634,3.147,3.147,0,0,1,1.176-.645,3.925,3.925,0,0,1,1.167-.175A3.647,3.647,0,0,1,52.958,44.079Z" transform="translate(-49.44 -23.001)" fill="#076a25"/>
                      </g>
                    </g>
                  </g>
                </g>
              </g>
            </g>
          </g>
        </g>
      </g>
    </g>
  </g>
</svg>
