<svg xmlns="http://www.w3.org/2000/svg" xmlns:xlink="http://www.w3.org/1999/xlink" width="163.673" height="161.287" viewBox="0 0 163.673 161.287">
  <defs>
    <clipPath id="clip-path">
      <rect id="Rectángulo_455338" data-name="Rectángulo 455338" width="145.5" height="148.047" fill="none"/>
    </clipPath>
    <clipPath id="clip-path-3">
      <rect id="Rectángulo_455320" data-name="Rectángulo 455320" width="129.466" height="64.5" fill="none"/>
    </clipPath>
    <clipPath id="clip-path-5">
      <rect id="Rectángulo_455322" data-name="Rectángulo 455322" width="10.503" height="16.486" fill="none"/>
    </clipPath>
    <clipPath id="clip-path-7">
      <rect id="Rectángulo_455324" data-name="Rectángulo 455324" width="63.965" height="38.684" fill="none"/>
    </clipPath>
    <clipPath id="clip-path-8">
      <rect id="Rectángulo_455325" data-name="Rectángulo 455325" width="53.238" height="50.995" fill="none"/>
    </clipPath>
    <clipPath id="clip-path-9">
      <rect id="Rectángulo_455327" data-name="Rectángulo 455327" width="53.442" height="34.601" fill="none"/>
    </clipPath>
    <clipPath id="clip-path-10">
      <rect id="Rectángulo_455330" data-name="Rectángulo 455330" width="54.249" height="34.378" fill="none"/>
    </clipPath>
    <clipPath id="clip-path-11">
      <rect id="Rectángulo_455332" data-name="Rectángulo 455332" width="1.36" height="50.895" fill="none"/>
    </clipPath>
    <clipPath id="clip-path-13">
      <rect id="Rectángulo_455334" data-name="Rectángulo 455334" width="64.758" height="65.683" fill="none"/>
    </clipPath>
    <clipPath id="clip-path-14">
      <rect id="Rectángulo_455335" data-name="Rectángulo 455335" width="32.308" height="29.546" fill="none"/>
    </clipPath>
    <clipPath id="clip-path-15">
      <rect id="Rectángulo_455336" data-name="Rectángulo 455336" width="8.842" height="10.012" fill="none"/>
    </clipPath>
  </defs>
  <g id="Grupo_1179126" data-name="Grupo 1179126" transform="translate(-564.827 -7942.705)">
    <g id="Grupo_1177110" data-name="Grupo 1177110" transform="translate(262.565 3526.281)">
      <rect id="Rectángulo_401003" data-name="Rectángulo 401003" width="144.479" height="152.843" rx="29" transform="translate(303.762 4417.924)" fill="none" stroke="#fe8938" stroke-miterlimit="10" stroke-width="3"/>
      <g id="Grupo_1179000" data-name="Grupo 1179000" transform="translate(320.435 4429.665)">
        <g id="Grupo_1178999" data-name="Grupo 1178999" clip-path="url(#clip-path)">
          <g id="Grupo_1178965" data-name="Grupo 1178965">
            <g id="Grupo_1178964" data-name="Grupo 1178964" clip-path="url(#clip-path)">
              <g id="Grupo_1178963" data-name="Grupo 1178963" transform="translate(3.436 83.547)" opacity="0.1" style="mix-blend-mode: multiply;isolation: isolate">
                <g id="Grupo_1178962" data-name="Grupo 1178962">
                  <g id="Grupo_1178961" data-name="Grupo 1178961" clip-path="url(#clip-path-3)">
                    <path id="Trazado_1001337" data-name="Trazado 1001337" d="M135.506,212.479c-4.425,13.473-36.768,14.952-72.24,3.3S2.624,183.766,7.049,170.294s36.767-14.952,72.239-3.3,60.642,32.015,56.217,45.488" transform="translate(-6.544 -159.136)"/>
                  </g>
                </g>
              </g>
            </g>
          </g>
          <path id="Trazado_1001338" data-name="Trazado 1001338" d="M54.059,85.617,1.024,53.352v51.757L54.314,137.7Z" transform="translate(-0.487 -25.342)" fill="#a67d48"/>
          <path id="Trazado_1001339" data-name="Trazado 1001339" d="M142.631,77.955l-40.1,21.469.1,50.031,40.1-21.469Z" transform="translate(-48.7 -37.028)" fill="#a67d48"/>
          <path id="Trazado_1001340" data-name="Trazado 1001340" d="M142.631,75.982l-40.1,21.469.1,50.031,40.1-21.469Z" transform="translate(-48.7 -36.091)" fill="#b88a4d"/>
          <g id="Grupo_1178970" data-name="Grupo 1178970">
            <g id="Grupo_1178969" data-name="Grupo 1178969" clip-path="url(#clip-path)">
              <g id="Grupo_1178968" data-name="Grupo 1178968" transform="translate(69.571 47.309)" opacity="0.21" style="mix-blend-mode: multiply;isolation: isolate">
                <g id="Grupo_1178967" data-name="Grupo 1178967">
                  <g id="Grupo_1178966" data-name="Grupo 1178966" clip-path="url(#clip-path-5)">
                    <path id="Trazado_1001341" data-name="Trazado 1001341" d="M143.019,90.111l-10.5,5.623V106.6l3.077-2.4.732.363,2.38-2.054.885.306,2.41-2.087,1.019.251Z" transform="translate(-132.516 -90.111)" fill="#b88a4d"/>
                  </g>
                </g>
              </g>
            </g>
          </g>
          <path id="Trazado_1001342" data-name="Trazado 1001342" d="M54.262,85.5,1.024,53.351v51l53.237,32.149Z" transform="translate(-0.487 -25.342)" fill="#e6b273"/>
          <path id="Trazado_1001343" data-name="Trazado 1001343" d="M.683,34.747,54.214,67.969,94.255,46.327,41.043,13.55Z" transform="translate(-0.324 -6.436)" fill="#e8be8b"/>
          <g id="Grupo_1178987" data-name="Grupo 1178987">
            <g id="Grupo_1178986" data-name="Grupo 1178986" clip-path="url(#clip-path)">
              <g id="Grupo_1178973" data-name="Grupo 1178973" transform="translate(16.153 14.334)" opacity="0.21" style="mix-blend-mode: multiply;isolation: isolate">
                <g id="Grupo_1178972" data-name="Grupo 1178972">
                  <g id="Grupo_1178971" data-name="Grupo 1178971" clip-path="url(#clip-path-7)">
                    <path id="Trazado_1001344" data-name="Trazado 1001344" d="M83.943,65.986,94.732,60.08,41.521,27.3,30.767,32.985Z" transform="translate(-30.767 -27.302)" fill="#b88a4d"/>
                  </g>
                </g>
              </g>
              <g id="Grupo_1178976" data-name="Grupo 1178976" transform="translate(0.538 60.158)" opacity="0.07" style="mix-blend-mode: multiply;isolation: isolate">
                <g id="Grupo_1178975" data-name="Grupo 1178975">
                  <g id="Grupo_1178974" data-name="Grupo 1178974" clip-path="url(#clip-path-8)">
                    <path id="Trazado_1001345" data-name="Trazado 1001345" d="M54.261,114.586h0c-3.066,30.255-19.723,38.882-42.839,22.842l-10.4-4,53.237,32.149Z" transform="translate(-1.024 -114.586)" fill="#8f775a"/>
                  </g>
                </g>
              </g>
              <path id="Trazado_1001346" data-name="Trazado 1001346" d="M12.285,83.471v.108a.953.953,0,0,0,.393.745c.216.131.393.009.393-.27V80.847a5.612,5.612,0,0,1,.479.349l.076.062c.131.11.263.229.392.356l.037.036.012,0a2.048,2.048,0,0,1,1,.61,4.511,4.511,0,0,0-2-3.491l-.249-.151a2.216,2.216,0,0,0-.78-.271L12,78.344c-.67-.064-1.163.347-1.185,1.282,0,.022,0,.043,0,.065a2.024,2.024,0,0,1,1,.6l.012.013.037.008c.044.01.088.021.133.034.067.018.133.039.2.063a3.6,3.6,0,0,1,.393.164l.089.044c.049.025.1.052.147.08V83.9c0,.1-.065.146-.144.1a.348.348,0,0,1-.144-.273v-.108Z" transform="translate(-5.135 -37.21)" fill="#454545"/>
              <path id="Trazado_1001347" data-name="Trazado 1001347" d="M23.073,87.6h0a2.547,2.547,0,0,1-1.051-1.991V83.332l2.1,1.269v2.274c0,.75-.47,1.073-1.051.723" transform="translate(-10.46 -39.582)" fill="#454545"/>
              <path id="Trazado_1001348" data-name="Trazado 1001348" d="M24.035,93.482l-.249-.15V91.017l.249.151Z" transform="translate(-11.298 -43.233)" fill="#454545"/>
              <path id="Trazado_1001349" data-name="Trazado 1001349" d="M22.316,94.248v-.322l1.792,1.083v.321Z" transform="translate(-10.6 -44.615)" fill="#454545"/>
              <path id="Trazado_1001350" data-name="Trazado 1001350" d="M30.194,93.246l-.249-.15V88.529l.249.151Z" transform="translate(-14.224 -42.051)" fill="#454545"/>
              <path id="Trazado_1001351" data-name="Trazado 1001351" d="M29.237,89l-.176-.334.589-.405.176.334Z" transform="translate(-13.804 -41.923)" fill="#454545"/>
              <path id="Trazado_1001352" data-name="Trazado 1001352" d="M30.445,89.5l.176-.121-.589-1.117-.176.121Z" transform="translate(-14.182 -41.926)" fill="#454545"/>
              <path id="Trazado_1001353" data-name="Trazado 1001353" d="M33.215,95.071l-.249-.15V90.354l.249.151Z" transform="translate(-15.659 -42.918)" fill="#454545"/>
              <path id="Trazado_1001354" data-name="Trazado 1001354" d="M32.257,90.823l-.176-.334.59-.405.176.334Z" transform="translate(-15.238 -42.79)" fill="#454545"/>
              <path id="Trazado_1001355" data-name="Trazado 1001355" d="M33.467,91.327l.176-.121-.589-1.117-.176.121Z" transform="translate(-15.617 -42.792)" fill="#454545"/>
              <path id="Trazado_1001356" data-name="Trazado 1001356" d="M29.06,98.321V98l2.769,1.672v.322Z" transform="translate(-13.803 -46.549)" fill="#454545"/>
              <path id="Trazado_1001357" data-name="Trazado 1001357" d="M84.646,126.18l-11.114-6.712v-9.818l11.114,6.711Z" transform="translate(-34.927 -52.084)" fill="#fff"/>
              <path id="Trazado_1001358" data-name="Trazado 1001358" d="M84.5,122.279l-8.068-4.872v-.71l8.068,4.872Z" transform="translate(-36.305 -55.43)" fill="#b5b5b5"/>
              <path id="Trazado_1001359" data-name="Trazado 1001359" d="M84.5,125.448l-8.068-4.872v-.71l8.068,4.872Z" transform="translate(-36.305 -56.936)" fill="#b5b5b5"/>
              <path id="Trazado_1001360" data-name="Trazado 1001360" d="M80,125.9l-3.563-2.152v-.71L80,125.187Z" transform="translate(-36.305 -58.442)" fill="#b5b5b5"/>
              <path id="Trazado_1001361" data-name="Trazado 1001361" d="M81.731,184.458l-15.4-9.3v-4.909l15.4,9.3Z" transform="translate(-31.508 -80.868)" fill="#fff"/>
              <path id="Trazado_1001362" data-name="Trazado 1001362" d="M68.6,176.445v-3.2l1.885,1.139v3.2Z" transform="translate(-32.583 -82.291)" fill="#b5b5b5"/>
              <path id="Trazado_1001363" data-name="Trazado 1001363" d="M69.462,176.967v-3.2l.138.083v3.2Z" transform="translate(-32.994 -82.539)" fill="#b5b5b5"/>
              <path id="Trazado_1001364" data-name="Trazado 1001364" d="M70.326,177.49v-3.2l.2.119v3.2Z" transform="translate(-33.405 -82.787)" fill="#b5b5b5"/>
              <path id="Trazado_1001365" data-name="Trazado 1001365" d="M71.191,178.012v-3.2l.275.166v3.2Z" transform="translate(-33.816 -83.035)" fill="#b5b5b5"/>
              <path id="Trazado_1001366" data-name="Trazado 1001366" d="M72.057,178.534v-3.2l.138.083v3.2Z" transform="translate(-34.227 -83.283)" fill="#b5b5b5"/>
              <path id="Trazado_1001367" data-name="Trazado 1001367" d="M72.922,179.057v-3.2l1.1.662v3.2Z" transform="translate(-34.637 -83.531)" fill="#b5b5b5"/>
              <path id="Trazado_1001368" data-name="Trazado 1001368" d="M73.786,179.579v-3.2l.188.113v3.2Z" transform="translate(-35.048 -83.779)" fill="#b5b5b5"/>
              <path id="Trazado_1001369" data-name="Trazado 1001369" d="M74.652,180.1v-3.2l.187.113v3.2Z" transform="translate(-35.459 -84.027)" fill="#b5b5b5"/>
              <path id="Trazado_1001370" data-name="Trazado 1001370" d="M75.517,180.624v-3.2l.221.133v3.2Z" transform="translate(-35.87 -84.276)" fill="#b5b5b5"/>
              <path id="Trazado_1001371" data-name="Trazado 1001371" d="M76.382,181.146v-3.2l1.58.954v3.2Z" transform="translate(-36.281 -84.524)" fill="#b5b5b5"/>
              <path id="Trazado_1001372" data-name="Trazado 1001372" d="M77.247,181.669v-3.2l.275.166v3.2Z" transform="translate(-36.692 -84.772)" fill="#b5b5b5"/>
              <path id="Trazado_1001373" data-name="Trazado 1001373" d="M78.29,182.3v-3.2l.181.11v3.2Z" transform="translate(-37.188 -85.071)" fill="#b5b5b5"/>
              <path id="Trazado_1001374" data-name="Trazado 1001374" d="M78.977,182.713v-3.2l.275.166v3.2Z" transform="translate(-37.514 -85.268)" fill="#b5b5b5"/>
              <path id="Trazado_1001375" data-name="Trazado 1001375" d="M88.139,186.358l-5.812-3.51v-.71l5.812,3.51Z" transform="translate(-39.105 -86.515)" fill="#b5b5b5"/>
              <path id="Trazado_1001376" data-name="Trazado 1001376" d="M85.67,188.036l-3.343-2.019v-.711l3.343,2.019Z" transform="translate(-39.105 -88.02)" fill="#b5b5b5"/>
              <g id="Grupo_1178979" data-name="Grupo 1178979" transform="translate(21.565 16.436)" opacity="0.12">
                <g id="Grupo_1178978" data-name="Grupo 1178978">
                  <g id="Grupo_1178977" data-name="Grupo 1178977" clip-path="url(#clip-path-9)">
                    <line id="Línea_3266" data-name="Línea 3266" x2="52.756" y2="33.521" transform="translate(0.343 0.539)" fill="#5c3d13"/>
                    <rect id="Rectángulo_455326" data-name="Rectángulo 455326" width="1.279" height="62.505" transform="translate(0 1.079) rotate(-57.568)" fill="#7a3d23"/>
                  </g>
                </g>
              </g>
              <rect id="Rectángulo_455328" data-name="Rectángulo 455328" width="44.414" height="0.907" transform="translate(54.564 61.367) rotate(-28.182)" fill="#a37a44"/>
              <g id="Grupo_1178982" data-name="Grupo 1178982" transform="translate(0 27.733)" opacity="0.23">
                <g id="Grupo_1178981" data-name="Grupo 1178981">
                  <g id="Grupo_1178980" data-name="Grupo 1178980" clip-path="url(#clip-path-10)">
                    <rect id="Rectángulo_455329" data-name="Rectángulo 455329" width="1.361" height="63.002" transform="matrix(0.527, -0.85, 0.85, 0.527, 0, 1.157)" fill="#fff"/>
                  </g>
                </g>
              </g>
              <g id="Grupo_1178985" data-name="Grupo 1178985" transform="translate(53.21 61.533)" opacity="0.28">
                <g id="Grupo_1178984" data-name="Grupo 1178984">
                  <g id="Grupo_1178983" data-name="Grupo 1178983" clip-path="url(#clip-path-11)">
                    <line id="Línea_3267" data-name="Línea 3267" y2="50.894" transform="translate(0.68 0)" fill="#a67d48"/>
                    <rect id="Rectángulo_455331" data-name="Rectángulo 455331" width="1.361" height="50.894" transform="translate(-0.001 0.001)" fill="#fff"/>
                  </g>
                </g>
              </g>
            </g>
          </g>
          <g id="Grupo_1178998" data-name="Grupo 1178998">
            <g id="Grupo_1178997" data-name="Grupo 1178997" clip-path="url(#clip-path)">
              <path id="Trazado_1001377" data-name="Trazado 1001377" d="M58.6,15.867c-15.381,17.379-14.332,43.6,2.341,58.564s42.658,13.006,58.039-4.373,14.333-43.6-2.341-58.564S73.976-1.513,58.6,15.867m6.776,6.088C77.226,8.548,97.06,6.865,109.672,18.2s13.225,31.388,1.37,44.795-31.689,15.09-44.3,3.758-13.225-31.387-1.37-44.795" transform="translate(-22.663 -0.682)" fill="#20803d"/>
              <path id="Trazado_1001378" data-name="Trazado 1001378" d="M173.154,131.124l11.892,11.086,6.414-7.38-11.892-11.086Z" transform="translate(-82.247 -58.777)" fill="#383838"/>
              <path id="Trazado_1001379" data-name="Trazado 1001379" d="M183.235,143.873a2.546,2.546,0,0,0,.763,2.55l34.283,30.805a8.421,8.421,0,0,0,11.924-1.012,8.585,8.585,0,0,0-.369-12.058L195.594,133.39a2.63,2.63,0,0,0-2.718-.485,15.886,15.886,0,0,0-9.563,10.675Z" transform="translate(-86.995 -63.042)" fill="#38ce65"/>
              <g id="Grupo_1178990" data-name="Grupo 1178990" transform="translate(30.383 8.299)" opacity="0.51">
                <g id="Grupo_1178989" data-name="Grupo 1178989">
                  <g id="Grupo_1178988" data-name="Grupo 1178988" clip-path="url(#clip-path-13)">
                    <path id="Trazado_1001380" data-name="Trazado 1001380" d="M122.613,45.9c.553,18.073-13.488,33.954-31.362,35.47S58.44,69.467,57.887,51.394s13.488-33.954,31.362-35.47S122.061,27.83,122.613,45.9" transform="translate(-57.871 -15.807)" fill="#ffecad"/>
                  </g>
                </g>
              </g>
              <path id="Trazado_1001381" data-name="Trazado 1001381" d="M53.87,14.612C38.5,32,39.293,58.005,55.647,72.7s42.073,12.513,57.446-4.873,14.577-43.393-1.777-58.087S69.243-2.774,53.87,14.612M60.646,20.7c11.855-13.408,31.689-15.09,44.3-3.758s13.225,31.388,1.37,44.795-31.689,15.09-44.3,3.758S48.792,34.108,60.646,20.7" transform="translate(-20.349 0)" fill="#38ce65"/>
              <path id="Trazado_1001382" data-name="Trazado 1001382" d="M76.748,72.66a1.449,1.449,0,0,0-.1-1.055,21.758,21.758,0,0,1-1.5-15.885,20.61,20.61,0,0,1,9.575-12.389,1.428,1.428,0,0,0,.536-1.877,1.274,1.274,0,0,0-1.776-.561A23.344,23.344,0,0,0,72.632,54.927a24.644,24.644,0,0,0,1.7,18,1.275,1.275,0,0,0,1.776.56,1.373,1.373,0,0,0,.636-.822" transform="translate(-34.042 -19.345)" fill="#fff"/>
              <g id="Grupo_1178993" data-name="Grupo 1178993" transform="translate(105.326 73.697)" opacity="0.34" style="mix-blend-mode: overlay;isolation: isolate">
                <g id="Grupo_1178992" data-name="Grupo 1178992">
                  <g id="Grupo_1178991" data-name="Grupo 1178991" clip-path="url(#clip-path-14)">
                    <line id="Línea_3268" data-name="Línea 3268" x1="18.269" y1="16.492" transform="translate(12.87 11.885)" fill="#fff"/>
                    <path id="Trazado_1001383" data-name="Trazado 1001383" d="M242.344,179.614a1.163,1.163,0,0,1-.783-.3L223.292,162.82a1.169,1.169,0,0,1,1.567-1.736l18.269,16.492a1.169,1.169,0,0,1-.784,2.038" transform="translate(-211.205 -150.068)" fill="#fff"/>
                    <line id="Línea_3269" data-name="Línea 3269" x1="8.294" y1="7.487" transform="translate(1.169 1.17)" fill="#fff"/>
                    <path id="Trazado_1001384" data-name="Trazado 1001384" d="M210.083,150.2a1.163,1.163,0,0,1-.783-.3l-8.294-7.488a1.169,1.169,0,0,1,1.567-1.736l8.294,7.488a1.169,1.169,0,0,1-.784,2.038" transform="translate(-200.619 -140.374)" fill="#fff"/>
                  </g>
                </g>
              </g>
              <g id="Grupo_1178996" data-name="Grupo 1178996" transform="translate(136.601 106.166)" opacity="0.32" style="mix-blend-mode: multiply;isolation: isolate">
                <g id="Grupo_1178995" data-name="Grupo 1178995">
                  <g id="Grupo_1178994" data-name="Grupo 1178994" clip-path="url(#clip-path-15)">
                    <path id="Trazado_1001385" data-name="Trazado 1001385" d="M266.473,208.8c2.214-2.625,3.176-5.455,2.148-6.322s-3.656.558-5.87,3.182-3.176,5.455-2.148,6.322,3.656-.558,5.87-3.182" transform="translate(-260.191 -202.22)" fill="#212121"/>
                  </g>
                </g>
              </g>
            </g>
          </g>
        </g>
      </g>
    </g>
  </g>
</svg>
