<svg xmlns="http://www.w3.org/2000/svg" xmlns:xlink="http://www.w3.org/1999/xlink" width="147.479" height="164.355" viewBox="0 0 147.479 164.355">
  <defs>
    <clipPath id="clip-path">
      <rect id="Rectángulo_454682" data-name="Rectángulo 454682" width="119" height="164.355" fill="none"/>
    </clipPath>
    <clipPath id="clip-path-3">
      <rect id="Rectángulo_454672" data-name="Rectángulo 454672" width="103.416" height="59.708" fill="none"/>
    </clipPath>
    <clipPath id="clip-path-4">
      <path id="Trazado_992552" data-name="Trazado 992552" d="M17.464,128.032a2.883,2.883,0,0,0,.958,2.126l1.227.46L17.6,119.981l-.635-.161Z" transform="translate(-16.963 -119.82)" fill="none"/>
    </clipPath>
    <linearGradient id="linear-gradient" x1="-6.512" y1="3.782" x2="-6.128" y2="3.782" gradientUnits="objectBoundingBox">
      <stop offset="0" stop-color="#d4d4dd"/>
      <stop offset="0.111" stop-color="#d4d4dd"/>
      <stop offset="0.268" stop-color="#d4d4dd"/>
      <stop offset="0.528" stop-color="#d4d4dd"/>
      <stop offset="0.534" stop-color="#d1d1da"/>
      <stop offset="0.565" stop-color="#c9cbd4"/>
      <stop offset="0.62" stop-color="#c7c9d3"/>
      <stop offset="0.757" stop-color="#c7c9d3"/>
      <stop offset="0.77" stop-color="#bbbecb"/>
      <stop offset="0.788" stop-color="#b4b7c6"/>
      <stop offset="0.837" stop-color="#b3b6c5"/>
      <stop offset="1" stop-color="#b3b6c5"/>
    </linearGradient>
    <clipPath id="clip-path-5">
      <path id="Trazado_992553" data-name="Trazado 992553" d="M54.8,103.175l-8.2,21.988,1.8,4.239,1.589-.206L60.83,139.307a8.223,8.223,0,0,0,9.806,1.058l14.834-8.809a2.606,2.606,0,0,0-.341-4.651L71.2,121.182,65.168,118.7a2.308,2.308,0,0,1-1.031-2.147l2.481-10.5,7.109-8.845-2.781-3.624Z" transform="translate(-46.6 -93.587)" fill="none"/>
    </clipPath>
    <linearGradient id="linear-gradient-2" x1="-0.648" y1="1.196" x2="-0.631" y2="1.196" gradientUnits="objectBoundingBox">
      <stop offset="0" stop-color="#e7e7f0"/>
      <stop offset="0.111" stop-color="#e7e7f0"/>
      <stop offset="0.268" stop-color="#e7e7f0"/>
      <stop offset="0.528" stop-color="#e7e7f0"/>
      <stop offset="0.536" stop-color="#e3e3ed"/>
      <stop offset="0.566" stop-color="#dbdde7"/>
      <stop offset="0.62" stop-color="#d9dbe6"/>
      <stop offset="0.757" stop-color="#d9dbe6"/>
      <stop offset="0.758" stop-color="#d8dae5"/>
      <stop offset="0.77" stop-color="#cccfdd"/>
      <stop offset="0.788" stop-color="#c5c9d9"/>
      <stop offset="0.837" stop-color="#c4c8d8"/>
      <stop offset="1" stop-color="#c4c8d8"/>
    </linearGradient>
    <clipPath id="clip-path-6">
      <path id="Trazado_992554" data-name="Trazado 992554" d="M54.759,103.175,57.54,106.8l-7.109,8.845-2.481,10.5a2.312,2.312,0,0,0,1.031,2.148l5.651,5.272,6.157,5.744a8.223,8.223,0,0,0,9.806,1.058l14.834-8.809a2.609,2.609,0,0,0,.283-.2c.025-.019.049-.038.072-.058a2.63,2.63,0,0,0,.221-.206c.023-.024.043-.049.064-.074.048-.056.094-.113.137-.172.029-.039.058-.079.084-.121s.051-.085.075-.128a2.46,2.46,0,0,0,.129-.262c.011-.026.022-.051.031-.076.025-.064.047-.128.066-.192a2.6,2.6,0,0,0-1.5-3.165l-13.927-5.723L65.127,118.7a2.308,2.308,0,0,1-1.031-2.147l2.481-10.5,7.109-8.845L70.9,93.587Z" transform="translate(-47.92 -93.587)" fill="none"/>
    </clipPath>
    <linearGradient id="linear-gradient-3" x1="-0.682" y1="1.205" x2="-0.665" y2="1.205" gradientUnits="objectBoundingBox">
      <stop offset="0" stop-color="#f1f1f6"/>
      <stop offset="0.111" stop-color="#f1f1f6"/>
      <stop offset="0.268" stop-color="#f1f1f6"/>
      <stop offset="0.528" stop-color="#e7e7f0"/>
      <stop offset="0.536" stop-color="#e3e3ed"/>
      <stop offset="0.566" stop-color="#dbdde7"/>
      <stop offset="0.62" stop-color="#d9dbe6"/>
      <stop offset="0.757" stop-color="#d9dbe6"/>
      <stop offset="0.758" stop-color="#d8dae5"/>
      <stop offset="0.77" stop-color="#cccfdd"/>
      <stop offset="0.788" stop-color="#c5c9d9"/>
      <stop offset="0.837" stop-color="#c4c8d8"/>
      <stop offset="1" stop-color="#c4c8d8"/>
    </linearGradient>
    <clipPath id="clip-path-7">
      <path id="Trazado_992555" data-name="Trazado 992555" d="M55.952,108.321l-5.521,6.87-2.481,10.5a2.312,2.312,0,0,0,1.031,2.148l5.651,5.272,6.157,5.744a8.223,8.223,0,0,0,9.806,1.058L85.429,131.1a2.609,2.609,0,0,0,.283-.2c.025-.019.049-.038.072-.058a2.63,2.63,0,0,0,.221-.206c.023-.024.043-.049.064-.074.048-.056.094-.113.137-.172.029-.039.058-.079.084-.121s.051-.085.075-.128a2.46,2.46,0,0,0,.129-.262c.011-.026.022-.051.031-.076.025-.064.047-.128.066-.192a2.6,2.6,0,0,0-1.353-3.1,2.363,2.363,0,0,1,1.107,2.736,1.7,1.7,0,0,1-.06.172c-.009.024-.019.045-.028.066a2.137,2.137,0,0,1-.116.239c-.027.047-.045.081-.067.114s-.051.073-.075.109c-.038.052-.078.1-.123.153,0,0-.045.055-.058.068a2.489,2.489,0,0,1-.2.185l-.066.053a2.439,2.439,0,0,1-.257.179L70.465,139.4a7.964,7.964,0,0,1-9.5-1.025L49.137,127.345l-.022-.013a2.063,2.063,0,0,1-.915-1.869l2.468-10.444,5.4-6.717-.115.019" transform="translate(-47.92 -108.302)" fill="none"/>
    </clipPath>
    <linearGradient id="linear-gradient-4" x1="-0.859" y1="1.24" x2="-0.839" y2="1.24" xlink:href="#linear-gradient"/>
    <clipPath id="clip-path-9">
      <rect id="Rectángulo_454678" data-name="Rectángulo 454678" width="94.243" height="69.517" fill="none"/>
    </clipPath>
    <clipPath id="clip-path-10">
      <rect id="Rectángulo_454679" data-name="Rectángulo 454679" width="92.233" height="55.29" fill="none"/>
    </clipPath>
    <clipPath id="clip-path-11">
      <rect id="Rectángulo_454680" data-name="Rectángulo 454680" width="66.691" height="55.72" fill="none"/>
    </clipPath>
  </defs>
  <g id="Grupo_1179118" data-name="Grupo 1179118" transform="translate(-880.541 -4414.627)">
    <g id="Grupo_1176878" data-name="Grupo 1176878" transform="translate(578.279)">
      <rect id="Rectángulo_401003" data-name="Rectángulo 401003" width="144.479" height="152.843" rx="29" transform="translate(303.762 4417.924)" fill="none" stroke="#fe8938" stroke-miterlimit="10" stroke-width="3"/>
      <g id="Grupo_1177226" data-name="Grupo 1177226" transform="translate(316.72 4414.627)">
        <g id="Grupo_1177225" data-name="Grupo 1177225" clip-path="url(#clip-path)">
          <g id="Grupo_1177205" data-name="Grupo 1177205">
            <g id="Grupo_1177204" data-name="Grupo 1177204" clip-path="url(#clip-path)">
              <g id="Grupo_1177203" data-name="Grupo 1177203" transform="translate(14.442 104.648)" style="mix-blend-mode: multiply;isolation: isolate">
                <g id="Grupo_1177202" data-name="Grupo 1177202">
                  <g id="Grupo_1177201" data-name="Grupo 1177201" clip-path="url(#clip-path-3)">
                    <path id="Trazado_992547" data-name="Trazado 992547" d="M17.562,140.888,82.2,103.567c4.717-2.722,12.34-2.737,17.028-.03l14.7,8.484c4.687,2.706,4.664,7.108-.054,9.831l-64.64,37.32c-4.717,2.723-12.34,2.737-17.028.031l-14.7-8.484c-4.687-2.707-4.664-7.108.054-9.831" transform="translate(-14.009 -101.516)" fill="#e3e5ef"/>
                  </g>
                </g>
              </g>
              <path id="Trazado_992548" data-name="Trazado 992548" d="M112.078,74.9l-.515-8.428L107.635,2.238a3.7,3.7,0,0,0-.064-.487l2.166-.721L106.3.086v0A2.334,2.334,0,0,0,104.4.4L13.07,53.128a6.248,6.248,0,0,0-2.8,5.323L14.2,122.684l.469,8.033c.121,1.978,1.569,2.8,3.237,1.839l91.374-52.334a6.252,6.252,0,0,0,2.8-5.323" transform="translate(0.317 0)" fill="#b7bbc9"/>
              <path id="Trazado_992549" data-name="Trazado 992549" d="M113.073,75.341l-.515-8.428L108.63,2.68c0-.037-.008-.072-.011-.108l1.049-1.557-1.7-.468a1.6,1.6,0,0,0-1.348.295L15.29,53.57a6.248,6.248,0,0,0-2.8,5.323l4.419,72.463a2.421,2.421,0,0,0,1.543,2.4l1.333.54,1.535-2.276,88.953-51.357a6.253,6.253,0,0,0,2.8-5.323" transform="translate(0.385 0.016)" fill="#534046"/>
              <path id="Trazado_992550" data-name="Trazado 992550" d="M113.744,75.689l-.515-8.428L109.3,3.027c0-.037-.008-.072-.011-.108l.357-1.911-.856-.235a2.072,2.072,0,0,0-1.5.416L15.961,53.917a6.248,6.248,0,0,0-2.8,5.323l4.316,70.769a14.77,14.77,0,0,1,8.362.138l85.1-49.135a6.253,6.253,0,0,0,2.8-5.323" transform="translate(0.406 0.023)" fill="#5e4c52"/>
              <path id="Trazado_992551" data-name="Trazado 992551" d="M17.631,119.989l-1.739-.44L15.87,129.2l3.812,1.43Z" transform="translate(0.49 3.688)" fill="#b7bbc9"/>
            </g>
          </g>
          <g id="Grupo_1177207" data-name="Grupo 1177207" transform="translate(17.486 123.516)">
            <g id="Grupo_1177206" data-name="Grupo 1177206" clip-path="url(#clip-path-4)">
              <rect id="Rectángulo_454674" data-name="Rectángulo 454674" width="2.685" height="10.797" transform="translate(0 0)" fill="url(#linear-gradient)"/>
            </g>
          </g>
          <g id="Grupo_1177209" data-name="Grupo 1177209" transform="translate(48.037 96.474)">
            <g id="Grupo_1177208" data-name="Grupo 1177208" clip-path="url(#clip-path-5)">
              <rect id="Rectángulo_454675" data-name="Rectángulo 454675" width="59.584" height="62.484" transform="translate(-21.063 12.161) rotate(-30)" fill="url(#linear-gradient-2)"/>
            </g>
          </g>
          <g id="Grupo_1177211" data-name="Grupo 1177211" transform="translate(49.398 96.474)">
            <g id="Grupo_1177210" data-name="Grupo 1177210" clip-path="url(#clip-path-6)">
              <rect id="Rectángulo_454676" data-name="Rectángulo 454676" width="58.235" height="61.706" transform="matrix(0.866, -0.5, 0.5, 0.866, -21.193, 12.161)" fill="url(#linear-gradient-3)"/>
            </g>
          </g>
          <g id="Grupo_1177213" data-name="Grupo 1177213" transform="translate(49.398 111.643)">
            <g id="Grupo_1177212" data-name="Grupo 1177212" clip-path="url(#clip-path-7)">
              <rect id="Rectángulo_454677" data-name="Rectángulo 454677" width="50.638" height="48.562" transform="translate(-14.625 8.368) rotate(-30)" fill="url(#linear-gradient-4)"/>
            </g>
          </g>
          <g id="Grupo_1177224" data-name="Grupo 1177224">
            <g id="Grupo_1177223" data-name="Grupo 1177223" clip-path="url(#clip-path)">
              <path id="Trazado_992556" data-name="Trazado 992556" d="M86.677,129.783a2.557,2.557,0,0,1-1.163,1.486l-14.833,8.809a8.223,8.223,0,0,1-9.806-1.058l-2.648-2.47L49.066,128a2.311,2.311,0,0,1-1.031-2.147l2.481-10.5,7.109-8.845-2.78-3.624-7.009,9.624-.121.165-.036.179L45.2,125.062a4.477,4.477,0,0,0,2.058,4.109l13.613,11.349a8.221,8.221,0,0,0,9.806,1.057l14.833-8.809a2.587,2.587,0,0,0,1.163-2.984" transform="translate(1.393 3.174)" fill="#b7bbc9"/>
              <path id="Trazado_992557" data-name="Trazado 992557" d="M115.458,73.873l-.515-8.428L17.579,121.658l.515,8.428c.121,1.978,1.569,2.8,3.237,1.838L112.659,79.2a6.253,6.253,0,0,0,2.8-5.323" transform="translate(0.542 2.019)" fill="#eff0f5"/>
              <path id="Trazado_992558" data-name="Trazado 992558" d="M107.9,1.363,16.568,54.091a6.253,6.253,0,0,0-2.8,5.323L17.7,123.647,115.06,67.434,111.133,3.2c-.121-1.979-1.569-2.8-3.237-1.839" transform="translate(0.424 0.03)" fill="#68575c"/>
              <path id="Trazado_992559" data-name="Trazado 992559" d="M107.094,6.04,17.653,57.678l3.771,61.656L110.864,67.7Z" transform="translate(0.545 0.186)" fill="#b8c1ff"/>
              <path id="Trazado_992560" data-name="Trazado 992560" d="M106.986,6.04l-2.559,1.477,3.611,59.064L21.157,116.743l.159,2.592L110.756,67.7Z" transform="translate(0.653 0.186)" fill="#b8c1ff"/>
              <path id="Trazado_992561" data-name="Trazado 992561" d="M66.089,96.49,64.16,97.6a2.093,2.093,0,0,0-.938,1.783l.137,2.231c.04.664.525.939,1.084.616l1.929-1.113a2.1,2.1,0,0,0,.937-1.783l-.136-2.231c-.041-.664-.529-.937-1.084-.616" transform="translate(1.95 2.972)" fill="#d9dbe6"/>
              <g id="Grupo_1177216" data-name="Grupo 1177216" transform="translate(17.04 9.002)" style="mix-blend-mode: multiply;isolation: isolate">
                <g id="Grupo_1177215" data-name="Grupo 1177215">
                  <g id="Grupo_1177214" data-name="Grupo 1177214" clip-path="url(#clip-path-9)">
                    <path id="Trazado_992562" data-name="Trazado 992562" d="M35.848,64.533c-1.476-10.329-7.316-14.9-7.316-14.9l9.233-5.332s7.419,4.724,8.4,16.736A3.9,3.9,0,0,1,44.1,64.787l-3.664,1.954a3.163,3.163,0,0,1-4.588-2.208" transform="translate(-16.16 -7.636)" fill="#a3c7c5"/>
                    <path id="Trazado_992563" data-name="Trazado 992563" d="M27.01,69.125c-1.467-10.206-7.13-14.493-7.13-14.493L29.124,49.3s7.221,4.288,8.231,16.436a3.9,3.9,0,0,1-2.064,3.745l-3.664,1.954a3.174,3.174,0,0,1-4.617-2.306" transform="translate(-16.427 -7.482)" fill="#a3c7c5"/>
                    <path id="Trazado_992564" data-name="Trazado 992564" d="M53.626,54.392C52.149,44.063,46.31,39.5,46.31,39.5l9.232-5.332s7.42,4.724,8.4,16.736a3.906,3.906,0,0,1-2.065,3.745L58.214,56.6a3.163,3.163,0,0,1-4.588-2.208" transform="translate(-15.611 -7.948)" fill="#a3c7c5"/>
                    <path id="Trazado_992565" data-name="Trazado 992565" d="M44.787,58.984c-1.467-10.206-7.13-14.493-7.13-14.493L46.9,39.155s7.221,4.288,8.231,16.436a3.9,3.9,0,0,1-2.064,3.745L49.4,61.29a3.174,3.174,0,0,1-4.617-2.306" transform="translate(-15.878 -7.795)" fill="#a3c7c5"/>
                    <path id="Trazado_992566" data-name="Trazado 992566" d="M71.4,44.252c-1.476-10.329-7.316-14.9-7.316-14.9l9.233-5.332s7.419,4.724,8.4,16.736a3.9,3.9,0,0,1-2.064,3.745L75.991,46.46A3.163,3.163,0,0,1,71.4,44.252" transform="translate(-15.063 -8.261)" fill="#a3c7c5"/>
                    <path id="Trazado_992567" data-name="Trazado 992567" d="M62.564,48.844c-1.467-10.206-7.13-14.493-7.13-14.493l9.244-5.337S71.9,33.3,72.909,45.451A3.9,3.9,0,0,1,70.845,49.2L67.182,51.15a3.174,3.174,0,0,1-4.617-2.306" transform="translate(-15.33 -8.107)" fill="#a3c7c5"/>
                    <path id="Trazado_992568" data-name="Trazado 992568" d="M89.18,34.111c-1.476-10.329-7.316-14.9-7.316-14.9L91.1,13.884s7.419,4.724,8.4,16.736a3.9,3.9,0,0,1-2.064,3.745l-3.664,1.954a3.163,3.163,0,0,1-4.588-2.208" transform="translate(-14.515 -8.574)" fill="#a3c7c5"/>
                    <path id="Trazado_992569" data-name="Trazado 992569" d="M80.341,38.7c-1.467-10.206-7.13-14.493-7.13-14.493l9.244-5.337s7.221,4.288,8.231,16.436a3.9,3.9,0,0,1-2.064,3.745l-3.664,1.954A3.174,3.174,0,0,1,80.341,38.7" transform="translate(-14.781 -8.42)" fill="#a3c7c5"/>
                    <path id="Trazado_992570" data-name="Trazado 992570" d="M98.118,28.562c-1.467-10.206-7.13-14.493-7.13-14.493l9.244-5.337s7.221,4.288,8.231,16.436a3.9,3.9,0,0,1-2.064,3.745l-3.664,1.954a3.174,3.174,0,0,1-4.617-2.306" transform="translate(-14.233 -8.733)" fill="#a3c7c5"/>
                    <path id="Trazado_992571" data-name="Trazado 992571" d="M17.357,74.008c-.707-4.889-.364-10.46-.76-13.3a6.02,6.02,0,0,1,1.092-4.573s9.653,1.948,10.693,14.231a3.9,3.9,0,0,1-2.064,3.746L22,76.412a3.187,3.187,0,0,1-4.646-2.4" transform="translate(-16.53 -7.271)" fill="#a3c7c5"/>
                  </g>
                </g>
              </g>
              <path id="Trazado_992572" data-name="Trazado 992572" d="M115.366,18.907C114.23,7.874,104.691,7,104.691,7l-9.162,5.29s8.6-.375,10.506,10.757a3.17,3.17,0,0,0,4.437,1.377l2.955-1.706a3.934,3.934,0,0,0,1.938-3.812" transform="translate(2.947 0.216)" fill="#ed3e3e"/>
              <path id="Trazado_992573" data-name="Trazado 992573" d="M97.361,27.941c-1.9-11.009-10.485-10.654-10.485-10.654l9.172-5.3s9.5.739,10.674,11.906a3.93,3.93,0,0,1-1.938,3.812l-2.956,1.706a3.156,3.156,0,0,1-4.468-1.474" transform="translate(2.68 0.37)" fill="#d9591e"/>
              <path id="Trazado_992574" data-name="Trazado 992574" d="M88.686,32.834C86.8,21.948,78.224,22.283,78.224,22.283l9.182-5.3s9.468.6,10.674,11.906A3.923,3.923,0,0,1,96.142,32.7l-2.955,1.707a3.151,3.151,0,0,1-4.5-1.571" transform="translate(2.413 0.524)" fill="#ed3e3e"/>
              <path id="Trazado_992575" data-name="Trazado 992575" d="M80.157,37.728C78.285,26.964,69.57,27.279,69.57,27.279l9.193-5.307s9.433.47,10.674,11.905A3.921,3.921,0,0,1,87.5,37.689L84.543,39.4a3,3,0,0,1-4.386-1.668" transform="translate(2.146 0.678)" fill="#d9591e"/>
              <path id="Trazado_992576" data-name="Trazado 992576" d="M71.482,42.622C69.623,31.98,60.917,32.275,60.917,32.275l9.2-5.314s9.4.336,10.673,11.906a3.916,3.916,0,0,1-1.937,3.812L75.9,44.385a3.005,3.005,0,0,1-4.418-1.764" transform="translate(1.879 0.832)" fill="#ed3e3e"/>
              <path id="Trazado_992577" data-name="Trazado 992577" d="M62.662,47.515C60.816,37,52.265,37.27,52.265,37.27l9.213-5.319s9.364.2,10.674,11.906a3.913,3.913,0,0,1-1.938,3.812l-2.956,1.706a3.148,3.148,0,0,1-4.6-1.861" transform="translate(1.612 0.986)" fill="#d9591e"/>
              <path id="Trazado_992578" data-name="Trazado 992578" d="M53.987,52.409c-1.833-10.4-10.375-10.143-10.375-10.143l9.223-5.325s9.329.068,10.674,11.906a3.907,3.907,0,0,1-1.938,3.812l-2.956,1.707a3.154,3.154,0,0,1-4.627-1.958" transform="translate(1.345 1.14)" fill="#ed3e3e"/>
              <path id="Trazado_992579" data-name="Trazado 992579" d="M45.313,57.3C43.493,47.028,34.959,47.263,34.959,47.263l9.233-5.332s9.294-.066,10.674,11.906a3.905,3.905,0,0,1-1.938,3.812l-2.956,1.706A3.162,3.162,0,0,1,45.313,57.3" transform="translate(1.078 1.293)" fill="#d9791e"/>
              <path id="Trazado_992580" data-name="Trazado 992580" d="M36.638,62.2c-1.807-10.152-10.332-9.937-10.332-9.937l9.244-5.337s9.259-.2,10.674,11.906a3.9,3.9,0,0,1-1.938,3.811L41.33,64.345a3.174,3.174,0,0,1-4.691-2.15" transform="translate(0.811 1.447)" fill="#ed3e3e"/>
              <path id="Trazado_992581" data-name="Trazado 992581" d="M30.088,69.447l-11.945-5.3L17.694,56.8s14.2-4.016,12.394,12.647" transform="translate(0.546 1.739)" fill="#eb8638"/>
              <path id="Trazado_992582" data-name="Trazado 992582" d="M27.964,67.089c-1.81-9.567-10.269-10.151-10.269-10.151l-.041-.675,9.254-4.352s9.225-.334,10.674,11.906a3.9,3.9,0,0,1-1.938,3.812l-2.956,1.707a3.194,3.194,0,0,1-4.723-2.247" transform="translate(0.545 1.601)" fill="#f5a13a"/>
              <path id="Trazado_992583" data-name="Trazado 992583" d="M116.032,18.937C114.9,7.9,104.691,6.04,104.691,6.04l-9.162,5.29s9.261.615,11.172,11.748a3.17,3.17,0,0,0,4.437,1.377l2.955-1.706a3.934,3.934,0,0,0,1.938-3.812" transform="translate(2.947 0.186)" fill="#ff8154"/>
              <path id="Trazado_992584" data-name="Trazado 992584" d="M98.027,27.971c-1.9-11.009-11.151-11.644-11.151-11.644l9.172-5.3a14.35,14.35,0,0,1,11.34,12.9,3.93,3.93,0,0,1-1.938,3.812L102.5,29.445a3.157,3.157,0,0,1-4.469-1.474" transform="translate(2.68 0.34)" fill="#ffb754"/>
              <path id="Trazado_992585" data-name="Trazado 992585" d="M89.353,32.864c-1.886-10.887-11.13-11.542-11.13-11.542l9.184-5.3a14.19,14.19,0,0,1,11.339,12.9,3.923,3.923,0,0,1-1.938,3.811l-2.955,1.707a3.149,3.149,0,0,1-4.5-1.571" transform="translate(2.413 0.494)" fill="#ff8154"/>
              <path id="Trazado_992586" data-name="Trazado 992586" d="M80.678,37.758C78.806,26.994,69.571,26.319,69.571,26.319l9.193-5.308s10.1,1.461,11.34,12.9a3.921,3.921,0,0,1-1.938,3.812L85.21,39.426a3.146,3.146,0,0,1-4.532-1.668" transform="translate(2.146 0.648)" fill="#ffb754"/>
              <path id="Trazado_992587" data-name="Trazado 992587" d="M72,42.651C70.144,32.01,60.918,31.314,60.918,31.314L70.121,26s10.064,1.327,11.34,12.9a3.917,3.917,0,0,1-1.938,3.812l-2.956,1.706A3.145,3.145,0,0,1,72,42.651" transform="translate(1.879 0.802)" fill="#ff8154"/>
              <path id="Trazado_992588" data-name="Trazado 992588" d="M63.329,47.544C61.483,37.026,52.266,36.309,52.266,36.309l9.213-5.319s10.03,1.193,11.34,12.9A3.913,3.913,0,0,1,70.881,47.7l-2.956,1.706a3.148,3.148,0,0,1-4.6-1.861" transform="translate(1.612 0.956)" fill="#ffb754"/>
              <path id="Trazado_992589" data-name="Trazado 992589" d="M54.654,52.438c-1.833-10.4-11.041-11.132-11.041-11.132l9.223-5.325s10,1.058,11.34,12.9a3.907,3.907,0,0,1-1.938,3.812L59.282,54.4a3.154,3.154,0,0,1-4.627-1.958" transform="translate(1.345 1.11)" fill="#ff8154"/>
              <path id="Trazado_992590" data-name="Trazado 992590" d="M45.98,57.332C44.16,47.057,34.96,46.3,34.96,46.3l9.233-5.332s9.96.925,11.34,12.9A3.905,3.905,0,0,1,53.6,57.679l-2.956,1.706a3.162,3.162,0,0,1-4.659-2.053" transform="translate(1.078 1.264)" fill="#ffcc54"/>
              <path id="Trazado_992591" data-name="Trazado 992591" d="M37.305,62.225a12.775,12.775,0,0,0-11-10.928l9.244-5.337s9.925.79,11.34,12.9a3.9,3.9,0,0,1-1.938,3.811L42,64.375a3.174,3.174,0,0,1-4.691-2.15" transform="translate(0.812 1.418)" fill="#ff8154"/>
              <path id="Trazado_992592" data-name="Trazado 992592" d="M28.63,67.119A12.755,12.755,0,0,0,17.654,56.293l9.254-5.342s9.891.656,11.34,12.9a3.9,3.9,0,0,1-1.938,3.812l-2.955,1.707a3.188,3.188,0,0,1-4.724-2.247" transform="translate(0.545 1.572)" fill="#ffe254"/>
              <g id="Grupo_1177219" data-name="Grupo 1177219" transform="translate(24.926 9.424)" style="mix-blend-mode: screen;isolation: isolate">
                <g id="Grupo_1177218" data-name="Grupo 1177218">
                  <g id="Grupo_1177217" data-name="Grupo 1177217" clip-path="url(#clip-path-10)">
                    <path id="Trazado_992593" data-name="Trazado 992593" d="M116.413,12.891l-9.066,5.234L36.317,59.133l-9.168,5.3a11.962,11.962,0,0,0-2.97-3.842l9.216-5.318,71.019-41.008,8.881-5.122a13.2,13.2,0,0,1,3.118,3.749" transform="translate(-24.18 -9.142)" fill="#c76214"/>
                  </g>
                </g>
              </g>
              <g id="Grupo_1177222" data-name="Grupo 1177222" transform="translate(31.11 47.217)" style="mix-blend-mode: multiply;isolation: isolate">
                <g id="Grupo_1177221" data-name="Grupo 1177221">
                  <g id="Grupo_1177220" data-name="Grupo 1177220" clip-path="url(#clip-path-11)">
                    <path id="Trazado_992594" data-name="Trazado 992594" d="M33.622,101.524c-1.605,0-2.683-1.329-2.814-3.469L30.193,88a10.573,10.573,0,0,1,4.718-8.991L91.321,46.445a4.249,4.249,0,0,1,2.106-.641c1.606,0,2.684,1.329,2.815,3.468l.615,10.052a10.571,10.571,0,0,1-4.719,8.991L35.73,100.882a4.251,4.251,0,0,1-2.108.642" transform="translate(-30.179 -45.804)" fill="#a3c7c5"/>
                  </g>
                </g>
              </g>
              <path id="Trazado_992595" data-name="Trazado 992595" d="M92.794,43.88,37.66,75.712a10.937,10.937,0,0,0-4.894,9.314l.5,8.119c.119,1.943.969,3.25,2.209,3.725.2.076,2.064.813,2.283.845.839.124.155-.766,1.168-1.351L94.057,64.533a10.941,10.941,0,0,0,4.894-9.315l-.5-8.119c-.107-1.75,1.025-2.334-.021-2.907-.148-.082-2.139-.8-2.3-.857a4.083,4.083,0,0,0-3.339.544" transform="translate(1.01 1.332)" fill="#e7e7f0"/>
              <path id="Trazado_992596" data-name="Trazado 992596" d="M94.863,44.649,39.729,76.481a10.937,10.937,0,0,0-4.894,9.314l.5,8.119c.211,3.462,2.744,4.9,5.66,3.219L96.126,65.3a10.941,10.941,0,0,0,4.894-9.315l-.5-8.119c-.212-3.461-2.748-4.9-5.661-3.219" transform="translate(1.074 1.356)" fill="#d9dbe6"/>
              <path id="Trazado_992597" data-name="Trazado 992597" d="M39.781,77.628a8.422,8.422,0,0,0-3.767,7.163l.5,8.118c.163,2.659,2.115,3.768,4.355,2.474l41.46-23.936L81.241,53.692Z" transform="translate(1.111 1.656)" fill="#fff"/>
              <path id="Trazado_992598" data-name="Trazado 992598" d="M98.517,55.983,98.09,49a4.554,4.554,0,0,0-.543-2c-.684-1.51-2.259-1.963-4-.956l-.322.187L81.4,53.058l-.928.536,1.085,17.755,13.067-7.544a8.431,8.431,0,0,0,3.618-5.357,7.847,7.847,0,0,0,.27-2.465" transform="translate(2.482 1.404)" fill="#fff"/>
              <path id="Trazado_992599" data-name="Trazado 992599" d="M91.392,58.241c.015-.036.03-.071.044-.107a6.4,6.4,0,0,0,.462-3.661c-.424-2-2.1-2.636-3.889-1.6a5.128,5.128,0,0,0-.582.394,7.6,7.6,0,0,0-2.78,6.822A2.423,2.423,0,0,0,86.31,62.1a2.932,2.932,0,0,0,2.227-.413,5.728,5.728,0,0,0,.584-.392,6.946,6.946,0,0,0,1.316-1.37l2.72,1.854.954-1.682Zm-2.585,1.564a3.329,3.329,0,0,1-.372.252,1.84,1.84,0,0,1-1.4.259,1.517,1.517,0,0,1-1.043-1.271,4.769,4.769,0,0,1,1.747-4.29,2.819,2.819,0,0,1,.364-.245,1.507,1.507,0,0,1,2.449,1.006,4.038,4.038,0,0,1-.291,2.3,4.787,4.787,0,0,1-1.457,1.985" transform="translate(2.608 1.616)" fill="#5b8cce"/>
              <path id="Trazado_992600" data-name="Trazado 992600" d="M40.485,79.843l-.811.468.673,11.007.811-.468Z" transform="translate(1.224 2.463)" fill="#5b8cce"/>
              <path id="Trazado_992601" data-name="Trazado 992601" d="M26.667,27.813l-3.273-1.891h0a3.031,3.031,0,0,0-3.045.3,9.466,9.466,0,0,0-4.3,7.409c0,2.722,1.924,3.818,4.3,2.449a9.547,9.547,0,0,0,4.277-7l.606.247Z" transform="translate(0.495 0.791)" fill="#de004e"/>
              <path id="Trazado_992602" data-name="Trazado 992602" d="M20.844,35.912a3.391,3.391,0,0,1-2.537.507l1.835-3.273L16.91,31.28l-12.6,7.277A9.487,9.487,0,0,0,0,45.983V56.426a3,3,0,0,0,1.245,2.754h0l3.249,1.876,1.895-3.38L17.784,51.1a9.486,9.486,0,0,0,4.3-7.426V34.98a7.026,7.026,0,0,1-1.245.932" transform="translate(0 0.965)" fill="#975197"/>
              <path id="Trazado_992603" data-name="Trazado 992603" d="M23.979,37.722c-2.372,1.37-4.3.273-4.3-2.449a7.388,7.388,0,0,1,.362-2.182l-12.6,7.277a9.487,9.487,0,0,0-4.306,7.426V58.236c0,2.729,1.928,3.828,4.306,2.454l13.478-7.782a9.486,9.486,0,0,0,4.3-7.426V36.79a7.026,7.026,0,0,1-1.245.932" transform="translate(0.097 1.021)" fill="#e777d1"/>
              <path id="Trazado_992604" data-name="Trazado 992604" d="M23.812,37.943a6.6,6.6,0,0,0,.905-.636v-.628a6.921,6.921,0,0,1-1.245.931c-1.292.746-3.123-.049-3.911-.632.951,2.044,2.754,1.829,4.251.965" transform="translate(0.603 1.131)" fill="#b862b8"/>
              <path id="Trazado_992605" data-name="Trazado 992605" d="M3.584,58.461V48.072a9.435,9.435,0,0,1,4.282-7.386l12-6.928c.051-.223.107-.445.177-.668L7.44,40.367a9.488,9.488,0,0,0-4.3,7.426V58.236c0,1.568.638,2.594,1.631,2.926a3.018,3.018,0,0,1-1.181-2.7" transform="translate(0.097 1.021)" fill="#b862b8"/>
              <path id="Trazado_992606" data-name="Trazado 992606" d="M18.428,50.572,9.337,55.821l.5-9.257,8.092-4.673Z" transform="translate(0.288 1.292)" fill="#fff"/>
              <path id="Trazado_992607" data-name="Trazado 992607" d="M13.118,50.849l-.38-.1c-.145-.038-.177-.254-.071-.481l2.317-4.981c.106-.229.31-.382.456-.344l.38.1c.145.037.177.253.071.481L13.574,50.5c-.106.228-.31.382-.456.344" transform="translate(0.389 1.386)" fill="#e777d1"/>
              <path id="Trazado_992608" data-name="Trazado 992608" d="M13.5,50.488l.342-.568c.13-.218.136-.458.012-.537l-1.308-.831c-.124-.078-.33.034-.461.252l-.342.568c-.131.218-.136.458-.012.537l1.308.831c.124.078.33-.034.461-.252" transform="translate(0.359 1.497)" fill="#e777d1"/>
              <path id="Trazado_992609" data-name="Trazado 992609" d="M16.579,41.78l-.947.547V41.106c0-1.059-.75-1.486-1.673-.954a3.69,3.69,0,0,0-1.673,2.885v1.221l-.946.547V43.584a5.782,5.782,0,0,1,2.619-4.519c1.445-.834,2.62-.164,2.62,1.494Z" transform="translate(0.35 1.194)" fill="#fff"/>
              <path id="Trazado_992610" data-name="Trazado 992610" d="M27.778,30.487a9.463,9.463,0,0,1-4.3,7.409c-2.372,1.369-4.295.273-4.295-2.449a9.466,9.466,0,0,1,4.295-7.409c2.373-1.369,4.3-.273,4.3,2.449" transform="translate(0.592 0.847)" fill="#f72a54"/>
              <path id="Trazado_992611" data-name="Trazado 992611" d="M27.638,30.84A8.9,8.9,0,0,1,23.6,37.8c-2.231,1.288-4.039.257-4.039-2.3A8.9,8.9,0,0,1,23.6,28.537c2.23-1.288,4.038-.257,4.038,2.3" transform="translate(0.603 0.863)" fill="#ff345d"/>
              <path id="Trazado_992612" data-name="Trazado 992612" d="M22.731,33.821l1.1-2.8.942-.544L24,32.441c.6-.235,1.066.1,1.066.818A2.8,2.8,0,0,1,23.8,35.443c-.7.4-1.266.078-1.266-.722a2.456,2.456,0,0,1,.195-.9m1.071.687a.994.994,0,0,0,.45-.777c0-.282-.2-.4-.45-.258a1,1,0,0,0-.45.778c0,.288.2.4.45.257" transform="translate(0.695 0.94)" fill="#fff"/>
            </g>
          </g>
        </g>
      </g>
    </g>
  </g>
</svg>
