<svg xmlns="http://www.w3.org/2000/svg" width="96" height="96" viewBox="0 0 96 96">
  <g id="Grupo_1179128" data-name="Grupo 1179128" transform="translate(-721 -4381.635)">
    <g id="Grupo_154427" data-name="Grupo 154427" transform="translate(-73.039 1461.555)">
      <path id="Elipse_5729" data-name="Elipse 5729" d="M48,0A48,48,0,1,1,0,48,48,48,0,0,1,48,0Z" transform="translate(794.039 2920.081)" fill="#1e3a8a"/>
      <g id="Grupo_1177832" data-name="Grupo 1177832" transform="translate(812.966 2941.112)">
        <g id="Grupo_1177831" data-name="Grupo 1177831" transform="translate(0.782 0)">
          <path id="Trazado_996559" data-name="Trazado 996559" d="M56.246,0H1.9A1.119,1.119,0,0,0,.782,1.118V18.6a1.12,1.12,0,0,0,.855,1.087V55.742a1.015,1.015,0,0,0,1.013,1.013H55.5a1.015,1.015,0,0,0,1.013-1.013V19.684a1.12,1.12,0,0,0,.855-1.087V1.118A1.119,1.119,0,0,0,56.246,0ZM2.445,1.663H55.7v16.39H54.426a17.332,17.332,0,0,0-.043-2.314,50.774,50.774,0,0,0-1.355-4.965A1.8,1.8,0,0,0,51.3,9.467H6.845a1.8,1.8,0,0,0-1.727,1.308c-1.374,4.881-1.3,4.568-1.356,4.968a17.207,17.207,0,0,0-.043,2.31H2.445ZM17.327,31.682h1.2v2.955h-1.2Zm2.86,0h1.2v2.955h-1.2Zm2.86,0h1.2v2.955h-1.2Zm16.325-3.124H35.386V27.45h3.986Zm-2.557,1.663h1.128v1.128H36.815ZM40.7,33.012A1.484,1.484,0,0,0,42.187,31.5h3.842v3.141H34.074V33.012ZM37.46,48.587v-3.57h2.373v3.57Zm-4.036,0v-3.57H35.8v3.57Zm-4.036,0v-3.57h2.373v3.57Zm-6.849-5.232v-3.57h2.373v3.57Zm-4.036,0v-3.57h2.373v3.57Zm-4.036,0v-3.57H16.84v3.57Zm12.108-3.57h2.373v3.57H26.575Zm17.295,0v3.57H30.611v-3.57ZM41.5,45.017h2.373v3.57H41.5ZM43.869,36.3v1.822h-29.4V36.3ZM15.664,34.637h-1.2V31.682h1.2ZM12.8,51.643H10.366a.063.063,0,0,1-.063-.063V36.363a.063.063,0,0,1,.063-.063H12.8Zm1.663-1.393h3.2a.831.831,0,1,0,0-1.663h-3.2v-3.57H27.725v3.57H21.551a.831.831,0,1,0,0,1.663H43.869v1.393h-29.4ZM46.31,53.306h1.659A1.728,1.728,0,0,0,49.7,51.58V43.716a.831.831,0,1,0-1.663,0V51.58a.064.064,0,0,1-.063.063H45.532V36.3h2.437a.063.063,0,0,1,.063.063v3.473a.831.831,0,0,0,1.663,0V36.363a1.728,1.728,0,0,0-1.726-1.726h-.277v-3.5a1.3,1.3,0,0,0-1.3-1.3H41.826a1.3,1.3,0,0,0-1.3,1.3v.213h-.918V30.221h.249a1.181,1.181,0,0,0,1.18-1.18V26.967a1.181,1.181,0,0,0-1.18-1.18H34.9a1.181,1.181,0,0,0-1.18,1.18v2.074a1.181,1.181,0,0,0,1.18,1.18h.249v1.128H33.714a1.3,1.3,0,0,0-1.3,1.3v1.986h-6.5V31.209a1.191,1.191,0,0,0-1.19-1.19H22.574a1.184,1.184,0,0,0-.359.055,1.185,1.185,0,0,0-.359-.055H19.714a1.184,1.184,0,0,0-.359.055A1.185,1.185,0,0,0,19,30.019H16.854a1.184,1.184,0,0,0-.359.055,1.185,1.185,0,0,0-.359-.055H13.994a1.191,1.191,0,0,0-1.19,1.19v3.428H10.366A1.728,1.728,0,0,0,8.64,36.363V51.58a1.728,1.728,0,0,0,1.726,1.726h1.659v1.787H6.673V23.039a4.289,4.289,0,0,0,4.866-1.587,4.331,4.331,0,0,0,7.025.026,4.331,4.331,0,0,0,7.006,0,4.331,4.331,0,0,0,7.006,0,4.331,4.331,0,0,0,7.006,0,4.331,4.331,0,0,0,7.025-.026,4.289,4.289,0,0,0,4.866,1.587V55.092H46.31V53.306Zm6.453-36.617v2.239a2.671,2.671,0,0,1-2.77,2.67,2.738,2.738,0,0,1-2.573-2.754V16.689Zm-40.374,0h5.343v2.239a2.672,2.672,0,1,1-5.343,0Zm7.006,0h5.343v2.239a2.672,2.672,0,1,1-5.343,0Zm7.006,0h5.343v2.239a2.672,2.672,0,1,1-5.343,0V16.689Zm7.006,0h5.343v2.239a2.672,2.672,0,1,1-5.343,0Zm7.006,0h5.343v2.239a2.672,2.672,0,1,1-5.343,0Zm7.006-1.663v-3.9H51.3a.131.131,0,0,1,.126.1l1.07,3.8Zm-1.663,0H40.413v-3.9h5.343Zm-7.006,0H33.407v-3.9h5.343Zm-7.006,0H26.4v-3.9h5.343Zm-7.006,0H19.395v-3.9h5.343Zm-7.006,0H12.389v-3.9h5.343Zm-7.006,0H5.649l1.07-3.8a.132.132,0,0,1,.126-.1h3.881v3.9Zm0,1.663v2.155A2.738,2.738,0,0,1,8.153,21.6,2.659,2.659,0,0,1,6.38,21.01l-.027-.022a2.655,2.655,0,0,1-.97-2.06V16.689ZM3.3,19.716h.491a4.293,4.293,0,0,0,1.219,2.3V55.092H3.3ZM13.688,55.092V53.306H44.647v1.787Zm39.447,0V22.013a4.292,4.292,0,0,0,1.219-2.3h.491V55.092Z" transform="translate(-0.782 0)" fill="#e8ebf3"/>
          <path id="Trazado_996560" data-name="Trazado 996560" d="M58.356,30.586h1.728a.831.831,0,0,0,0-1.663H59.017V26.662H99.9v2.261H63.964a.831.831,0,1,0,0,1.663h36.6a1,1,0,0,0,1-1V26a1,1,0,0,0-1-1H58.356a1,1,0,0,0-1,1v3.584a1,1,0,0,0,1,1Z" transform="translate(-51.083 -22.228)" fill="#e8ebf3"/>
        </g>
      </g>
    </g>
  </g>
</svg>
