<svg xmlns="http://www.w3.org/2000/svg" width="96" height="96" viewBox="0 0 96 96">
  <g id="Grupo_1179129" data-name="Grupo 1179129" transform="translate(-961 -4381.635)">
    <g id="Grupo_154427" data-name="Grupo 154427" transform="translate(166.961 1461.555)">
      <path id="Elipse_5729" data-name="Elipse 5729" d="M48,0A48,48,0,1,1,0,48,48,48,0,0,1,48,0Z" transform="translate(794.039 2920.081)" fill="#1e3a8a"/>
      <g id="Grupo_1177833" data-name="Grupo 1177833" transform="translate(811.039 2932.875)">
        <path id="Trazado_996561" data-name="Trazado 996561" d="M233.376,93.173h1.941a.908.908,0,1,0,0-1.816h-1.941a.908.908,0,1,0,0,1.816Z" transform="translate(-204.318 -76.088)" fill="#e8ebf3"/>
        <path id="Trazado_996562" data-name="Trazado 996562" d="M61.092,24.985H57.07l.878-2.449a4.8,4.8,0,0,0-1.067-4.951l2.927-3.305a.908.908,0,1,0-1.36-1.2l-2.072,2.34,2.176-6.069a.908.908,0,0,0-1.71-.613L54.667,14.8l-.113-3.123a.908.908,0,1,0-1.815.066l.16,4.414a4.808,4.808,0,0,0-3.518,2.213V16.981a2.831,2.831,0,0,0-.835-2.015l-.8-.8a1.027,1.027,0,0,1-.3-.731V10.353a1.881,1.881,0,0,0-1.879-1.879H43.619a1.881,1.881,0,0,0-1.879,1.879v3.079a1.026,1.026,0,0,1-.3.731l-.8.8a2.908,2.908,0,0,0-.263.3h-4.58V12.294a.908.908,0,0,0-.908-.908H25.729l-.852-4.557,0-.013a2.534,2.534,0,0,0-5.009.71l.351,4.281a24.328,24.328,0,0,0-.877,2.678l-1.463-3.109a2.534,2.534,0,0,0-4.7,1.88l1.358,4.075a22.318,22.318,0,0,0,.244,7.653H10.327L8.535,20.3a4.818,4.818,0,0,0-4.475-3.08H.908a.908.908,0,0,0,0,1.816H4.06a2.991,2.991,0,0,1,2.778,1.912L9.6,28.171a.908.908,0,0,0,1.7-.649l-.276-.721H60.184V41.084a3.962,3.962,0,0,1-3.4,3.907L25.346,49.378a6.826,6.826,0,0,1-7.353-4.343L12.777,31.392a.908.908,0,0,0-1.7.649L16.3,45.684a8.672,8.672,0,0,0,2.9,3.853L16.44,56.143a4.791,4.791,0,1,0,3.732,5.6H49.443a.908.908,0,1,0,0-1.816H20.172a4.8,4.8,0,0,0-2.057-3.083l2.654-6.37a8.635,8.635,0,0,0,3.605.787,8.854,8.854,0,0,0,1.222-.085L57.035,46.79A5.786,5.786,0,0,0,62,41.084V25.893a.908.908,0,0,0-.908-.908Zm-6.649-6.867a2.977,2.977,0,0,1,1.969,2.9l-.84-.3a.908.908,0,0,0-.613,1.71l.973.349-.792,2.208H49.381V23.42L50,21.683l.973.349a.908.908,0,1,0,.613-1.71l-.973-.349.021-.059a2.978,2.978,0,0,1,3.8-1.8ZM43.619,10.29H45.56a.063.063,0,0,1,.063.062v2H43.557v-2A.063.063,0,0,1,43.619,10.29Zm-1.7,5.96.8-.8a2.832,2.832,0,0,0,.737-1.273h2.262a2.833,2.833,0,0,0,.737,1.273l.8.8a1.027,1.027,0,0,1,.3.731v8H45.5V22a2.853,2.853,0,0,0-2.85-2.85H41.615v-2.17a1.027,1.027,0,0,1,.3-.731Zm-.3,4.717h1.033A1.034,1.034,0,0,1,43.682,22v2.984H41.615ZM39.8,17.085v7.9H35.791v-7.9ZM26.084,20.968h7.891v4.017H26.084ZM33.975,13.2v5.949H26.084V13.2ZM22.332,6.6a.717.717,0,0,1,.761.567l.269,1.44L21.8,8.884l-.124-1.506a.718.718,0,0,1,.656-.774Zm-6.975,5.171a.717.717,0,0,1,.876.375l.622,1.321-1.473.645L14.9,12.682a.718.718,0,0,1,.454-.907ZM16.365,17.4a.908.908,0,0,0-.034-.436l-.373-1.118,1.67-.731L21.055,22.4a.908.908,0,1,0,1.643-.773l-2.077-4.413a22.655,22.655,0,0,1,1.352-4.9.908.908,0,0,0,.07-.432l-.1-1.174L23.7,10.4l.572,3.056V24.985H16.659A20.506,20.506,0,0,1,16.365,17.4Zm-.9,46.409a2.975,2.975,0,1,1,2.975-2.975,2.978,2.978,0,0,1-2.975,2.975Z" fill="#e8ebf3"/>
        <path id="Trazado_996563" data-name="Trazado 996563" d="M121.2,460.15h-.01a.913.913,0,1,0,.01,0Z" transform="translate(-105.717 -400.223)" fill="#e8ebf3"/>
        <path id="Trazado_996564" data-name="Trazado 996564" d="M437.663,428.086a4.791,4.791,0,1,0,4.791,4.791A4.8,4.8,0,0,0,437.663,428.086Zm0,7.766a2.975,2.975,0,1,1,2.975-2.975A2.978,2.978,0,0,1,437.663,435.852Z" transform="translate(-380.454 -372.042)" fill="#e8ebf3"/>
        <path id="Trazado_996565" data-name="Trazado 996565" d="M465.889,460.15h-.01a.913.913,0,1,0,.01,0Z" transform="translate(-408.67 -400.223)" fill="#e8ebf3"/>
        <path id="Trazado_996566" data-name="Trazado 996566" d="M158.57,222.137a.909.909,0,0,0,.876-1.149l-4.573-16.665a.908.908,0,1,0-1.752.481l4.573,16.665A.908.908,0,0,0,158.57,222.137Z" transform="translate(-134.551 -174.788)" fill="#e8ebf3"/>
        <path id="Trazado_996567" data-name="Trazado 996567" d="M401.62,217.8V204.566a.908.908,0,1,0-1.816,0V217.8a.908.908,0,0,0,1.816,0Z" transform="translate(-351.39 -174.79)" fill="#e8ebf3"/>
        <path id="Trazado_996568" data-name="Trazado 996568" d="M225.309,221.366a.909.909,0,0,0,.9-1.057l-2.64-15.893a.908.908,0,0,0-1.792.3l2.64,15.893A.908.908,0,0,0,225.309,221.366Z" transform="translate(-194.907 -174.789)" fill="#e8ebf3"/>
        <path id="Trazado_996569" data-name="Trazado 996569" d="M350.518,218.615V204.566a.908.908,0,0,0-1.816,0v14.049a.908.908,0,1,0,1.816,0Z" transform="translate(-306.476 -174.79)" fill="#e8ebf3"/>
        <path id="Trazado_996570" data-name="Trazado 996570" d="M292.206,220.454l.053,0a.908.908,0,0,0,.854-.959l-.865-14.98a.908.908,0,1,0-1.813.1l.865,14.98A.908.908,0,0,0,292.206,220.454Z" transform="translate(-255.264 -174.789)" fill="#e8ebf3"/>
        <path id="Trazado_996571" data-name="Trazado 996571" d="M450.719,216.711V204.542a.908.908,0,0,0-1.816,0v12.168a.908.908,0,0,0,1.816,0Z" transform="translate(-394.544 -174.769)" fill="#e8ebf3"/>
      </g>
    </g>
  </g>
</svg>
