<svg xmlns="http://www.w3.org/2000/svg" xmlns:xlink="http://www.w3.org/1999/xlink" width="153.846" height="155.843" viewBox="0 0 153.846 155.843">
  <defs>
    <linearGradient id="linear-gradient" x1="0.362" y1="0.571" x2="0.902" y2="1.142" gradientUnits="objectBoundingBox">
      <stop offset="0.122" stop-color="#fca4b5"/>
      <stop offset="0.99" stop-color="#ffadb7"/>
    </linearGradient>
    <linearGradient id="linear-gradient-2" x1="2836.2" y1="0.684" x2="2837.576" y2="0.188" gradientUnits="objectBoundingBox">
      <stop offset="0.122" stop-color="#feb9b8"/>
      <stop offset="1" stop-color="#ffdede"/>
    </linearGradient>
    <linearGradient id="linear-gradient-3" x1="5209.811" y1="0.207" x2="5209.103" y2="0.871" xlink:href="#linear-gradient"/>
    <linearGradient id="linear-gradient-4" x1="0.1" y1="1.027" x2="0.872" y2="-0.042" gradientUnits="objectBoundingBox">
      <stop offset="0.014" stop-color="#a0a6c0"/>
      <stop offset="0.402" stop-color="#a0a6c0"/>
      <stop offset="0.402" stop-color="#a2a8c1"/>
      <stop offset="0.408" stop-color="#b7bcd0"/>
      <stop offset="0.413" stop-color="#c4c7d9"/>
      <stop offset="0.418" stop-color="#c9ccdc"/>
      <stop offset="0.427" stop-color="#d7d8e5"/>
      <stop offset="0.435" stop-color="#e7e7f0"/>
    </linearGradient>
  </defs>
  <g id="Grupo_1179126" data-name="Grupo 1179126" transform="translate(-564.827 -8711.964)">
    <g id="Grupo_1177115" data-name="Grupo 1177115" transform="translate(262.565 4295.54)">
      <rect id="Rectángulo_401003" data-name="Rectángulo 401003" width="144.479" height="152.843" rx="29" transform="translate(303.762 4417.924)" fill="none" stroke="#fe8938" stroke-miterlimit="10" stroke-width="3"/>
      <g id="Grupo_66458" data-name="Grupo 66458" transform="translate(309.36 4437.695)">
        <g id="Grupo_66437" data-name="Grupo 66437" transform="translate(61.426)">
          <path id="Trazado_146131" data-name="Trazado 146131" d="M243.79,5843.7s0-3.573-3.548-2.5c-2.014.609-4.574,3.481-3.067,9.014,1.533,5.63-3.047,9.459-3.047,9.459s3.476.035,4.877-.9,1.182-1.995,1.615-5.539S243.79,5843.7,243.79,5843.7Z" transform="translate(-232.526 -5837.024)" fill="#5e2638"/>
          <g id="Grupo_66434" data-name="Grupo 66434" transform="translate(13.728 16.758)">
            <path id="Trazado_146132" data-name="Trazado 146132" d="M251.958,5856.2s1.656-.935,3.072,2.515,2.946,11.26,3.638,12.4.028,2.459-3.76,3.421S251.958,5856.2,251.958,5856.2Z" transform="translate(-248.405 -5855.61)" fill="#febfbf"/>
            <path id="Trazado_146133" data-name="Trazado 146133" d="M256.649,5865.371a1.882,1.882,0,0,1-1.622.756c-1.171.007-8.571-9.67-6.84-10.311a6.344,6.344,0,0,1,4.312.288C253.754,5856.635,255.1,5858.619,256.649,5865.371Z" transform="translate(-247.926 -5855.545)" fill="#ffdc6e"/>
          </g>
          <path id="Trazado_146134" data-name="Trazado 146134" d="M256.661,5937.885c-2.922-1.943-4.275-1.771-4.275-1.771s-2.331.188-3.066-.877v-.015a1.335,1.335,0,0,1-.172-.979c.345-2.159.907-3.354.878-4.159-.187-4.678-2.317-12.292-1.756-15.962.835-5.585-1.886-12.407-1.526-16.667a5.751,5.751,0,0,1,.187-1.151c1.108-4.088,8.679-5.34,8.679-5.34a39.778,39.778,0,0,1-.244,11.99c-1.771,10.305-2.087,24.987-2.1,28.269,0,1.353,1.829,2.446,2.664,2.922,1.194.662,3.512,2.144,3.512,2.144S259.6,5939.843,256.661,5937.885Z" transform="translate(-234.051 -5843.082)" fill="#7282b5"/>
          <path id="Trazado_146135" data-name="Trazado 146135" d="M249.651,5920.752c.46,3.685,1.2,8.895.993,10.09s-1.367,3.612-1.324,5.181a1.336,1.336,0,0,1-.172-.979c.345-2.158.907-3.353.878-4.158-.187-4.679-2.317-12.292-1.756-15.963.835-5.585-1.886-12.407-1.526-16.668a10.563,10.563,0,0,1,4.332-.69,3.684,3.684,0,0,1-.878,2.648l-1.109,1.568a74.479,74.479,0,0,1,.562,10.465C249.522,5917.455,249.2,5917.053,249.651,5920.752Z" transform="translate(-234.051 -5843.881)" fill="#e8d0c8" style="mix-blend-mode: multiply;isolation: isolate"/>
          <path id="Trazado_146136" data-name="Trazado 146136" d="M250.13,5897.232a3.925,3.925,0,0,1-2.461,2.173s-.518,14.408-1.742,17.517-2.087,14.508-2.044,14.969a8.158,8.158,0,0,0,2.4,5.4c2.231,2.131,3.2,2.519,3.181,2.85a2.718,2.718,0,0,1-3.066,1.7c-2.086-.3-2.663-.446-3.685-1.5-.388-.388-.777-.733-1.122-1.065a3.311,3.311,0,0,1-1.151-1.525c-.159-.834.518-2.475.057-4.045-.446-1.555-1.6-11.313-1.353-13.917.547-5.744,1.209-5.168.993-6.794s-2.785-10.068-2.785-19.423a1.2,1.2,0,0,1,.086-.462c.993-2.893,12.616.151,12.616.151A7.2,7.2,0,0,1,250.13,5897.232Z" transform="translate(-232.917 -5843.19)" fill="#7282b5"/>
          <path id="Trazado_146137" data-name="Trazado 146137" d="M241.594,5939.447a3.312,3.312,0,0,1-1.151-1.526c-.159-.834.518-2.475.057-4.044-.446-1.555-1.6-11.313-1.353-13.918.547-5.744,1.209-5.168.993-6.793s-2.785-10.068-2.785-19.423a1.208,1.208,0,0,1,.086-.462,3.537,3.537,0,0,1,1.008.317,34.3,34.3,0,0,0,0,7.816c.5,4.418,2.468,11.563,2.468,12.472,0,.892-1.151,3.513-1.108,8.364s1.468,11.7,1.381,12.678C241.134,5935.619,240.255,5937.288,241.594,5939.447Z" transform="translate(-232.917 -5843.362)" fill="#e8d0c8" style="mix-blend-mode: multiply;isolation: isolate"/>
          <path id="Trazado_146138" data-name="Trazado 146138" d="M254.37,5868.765a12.153,12.153,0,0,1-.158,2.13v.014c-.014.072-.014.158-.029.231a13.524,13.524,0,0,1-.533,2.26c-.057.2-.115.375-.158.49-.691,1.885.735,12.205.518,13.025s-.749,1.641-4.246,2.763a17.851,17.851,0,0,1-3.238.691c-.288.043-.576.072-.879.1a24.665,24.665,0,0,1-3.065.116c-.187,0-.36,0-.547-.015-.294-.012-.581-.03-.862-.053a12.5,12.5,0,0,1-3.053-.538,3.638,3.638,0,0,1-.95-.46,1.367,1.367,0,0,1-.388-.359s.417-7.715.173-10.709c-.144-1.843-1.209-4.246-2.2-6.622-.446-1.05-.864-2.1-1.2-3.094-.129-.4-.244-.792-.345-1.166-1.6-6.175.763-6.952,2.62-8.405a19.52,19.52,0,0,1,5.916-3.369,17.531,17.531,0,0,1,6.592-.043c.85.072,2.793.576,3.872,4.246s1.987,6.146,2.131,7.959A7.6,7.6,0,0,1,254.37,5868.765Z" transform="translate(-232.351 -5838.775)" fill="#fdd249"/>
          <path id="Trazado_146139" data-name="Trazado 146139" d="M254.656,5870.544a12.151,12.151,0,0,1-.158,2.13v.014c-.014.072-.014.158-.029.23-.187.864-.388,1.7-.533,2.26-.057.2-.115.375-.158.49-.691,1.885.735,12.206.518,13.026s-.749,1.641-4.246,2.763a17.809,17.809,0,0,1-3.238.692c-.288.042-.576.072-.879.1a24.572,24.572,0,0,1-3.065.116c-.187,0-.36,0-.547-.015a10.693,10.693,0,0,1-4.865-1.051,1.353,1.353,0,0,1-.388-.359s.417-7.714.173-10.708c-.144-1.843-1.209-4.246-2.2-6.622,1.9-2.647,3.627-4.245,3.41-3.137-.489,2.591-.5,6.2,2.865,6.275,4.75.13,5.93-1.727,8.19-2.547C252.67,5873.048,254.066,5871.523,254.656,5870.544Z" transform="translate(-232.636 -5840.554)" fill="#ffeecf" style="mix-blend-mode: multiply;isolation: isolate"/>
          <path id="Trazado_146140" data-name="Trazado 146140" d="M248.242,5874.8s-7.1,3.822-9.735,0h0c-.055-2.687-.18-5.59-.18-5.59a8.137,8.137,0,0,0-4.649,1.2c.331.993.749,2.044,1.2,3.094.993,2.375,2.058,4.778,2.2,6.622.244,2.994-.166,10.7-.166,10.7a2.75,2.75,0,0,0,1.338.819,37.164,37.164,0,0,1-.59-4.994c-.245-5.11.77-5.867.857-8.5.016-.511.019-1.161.014-1.875C239.806,5876.942,243.014,5877.891,248.242,5874.8Z" transform="translate(-232.471 -5840.443)" fill="#dedede" style="mix-blend-mode: multiply;isolation: isolate"/>
          <g id="Grupo_66436" data-name="Grupo 66436" transform="translate(0.255 22.367)">
            <g id="Grupo_66435" data-name="Grupo 66435">
              <path id="Trazado_146141" data-name="Trazado 146141" d="M237.189,5879.908s1.533-11.259.8-14.721-3.062-3.51-4.1-3.06-1.548,1.6-1.19,6.821.966,11.863,1.122,12.785S237.189,5879.908,237.189,5879.908Z" transform="translate(-232.594 -5861.928)" fill="#febfbf"/>
            </g>
          </g>
          <path id="Trazado_146142" data-name="Trazado 146142" d="M247.5,5849.718a54.887,54.887,0,0,0,.186,5.561c.231,1.516.734,2.414-.975,2.967-.977.316-4.642-.69-6.172-2.4-.135-.21.271-.475.614-1.668a10.77,10.77,0,0,0,.59-4.1c-.01-2.352.107-4.506.107-4.506Z" transform="translate(-233.3 -5837.578)" fill="#ffadb7"/>
          <path id="Trazado_146143" data-name="Trazado 146143" d="M247.717,5855.877a3.327,3.327,0,0,1-1.166-.144c-2.331-.591-2.965-.706-3.671,0-.7.69-.446,1.467.346,2.3a7.294,7.294,0,0,1-2.692-1.727c-.13-.2.273-.476.619-1.67a10.927,10.927,0,0,0,.591-4.1v-1.123l5.843,5.341c.029.388.058.733.1.993A.437.437,0,0,0,247.717,5855.877Z" transform="translate(-233.299 -5838.044)" fill="url(#linear-gradient)"/>
          <path id="Trazado_146144" data-name="Trazado 146144" d="M244.866,5837.539s3.871.813,4.88,3.774.845,3.091.78,4.278a20.444,20.444,0,0,1-.138,4.778c-.456,1.93-.9,3.566-1.781,3.858s-5.888-.715-7.709-4.131-3.541-6.542-2.148-9.716C239.726,5838.157,242.914,5837.051,244.866,5837.539Z" transform="translate(-233.024 -5836.59)" fill="#febfbf"/>
          <path id="Trazado_146145" data-name="Trazado 146145" d="M238.417,5840.564c.732-1.937,1.676-2.311,1.676-2.311s.907-.988,3.464-.991a8.032,8.032,0,0,1,5.551,2.341c1.378,1.5.808,2.314.808,2.314l-.01-.023a.56.56,0,0,0-.745-.3c-.654.262-.925.772-1.46.961-3.759,1.327-4.514.32-4.824,2.059s-.479,2.376-1.265,2.1c-1.265-.441-1.209-.166-1.824.687a21.908,21.908,0,0,0,.85,2.466s-.033.793-1.479-2.394C238.6,5846.16,237.2,5844.393,238.417,5840.564Z" transform="translate(-232.987 -5836.571)" fill="#754554"/>
          <path id="Trazado_146146" data-name="Trazado 146146" d="M241.216,5848.392a1.539,1.539,0,0,0-1.789-.813c-1.244.338-1.009,1.756.325,3.024s1.659-.227,1.724-.325S240.89,5849.271,241.216,5848.392Z" transform="translate(-233.069 -5837.814)" fill="url(#linear-gradient-2)"/>
          <path id="Trazado_146147" data-name="Trazado 146147" d="M240.872,5848.648s-.548-.648-1.083-.366c-.822.434.366,1.776.481,1.948s.721.1.789-.309S240.453,5849.167,240.872,5848.648Z" transform="translate(-233.177 -5837.898)" fill="url(#linear-gradient-3)"/>
          <path id="Trazado_146148" data-name="Trazado 146148" d="M234.553,5861.749s-1.754-.091-2.136,2.406.337,8.343.337,8.343a19.14,19.14,0,0,1,2.991-.248,9.153,9.153,0,0,1,2.409.248,46.691,46.691,0,0,0,0-7.309C237.792,5862.963,236.96,5861.5,234.553,5861.749Z" transform="translate(-232.305 -5839.536)" fill="#ffdc6e"/>
          <path id="Trazado_146149" data-name="Trazado 146149" d="M251.075,5841.8l-.274.36s-5.987,1.553-6.534,1.684c-.316.085-.5.288-1.122.489h-.015a8.334,8.334,0,0,1-1.972.345,15.434,15.434,0,0,1-3.627-.158,13.509,13.509,0,0,1-.043-3.4,6.262,6.262,0,0,1,4.635-4.36,7.728,7.728,0,0,1,1.309-.246c2.908-.3,5.614.936,6.534,2.347A7.45,7.45,0,0,1,251.075,5841.8Z" transform="translate(-232.92 -5836.475)" fill="#fecb4c"/>
          <path id="Trazado_146150" data-name="Trazado 146150" d="M243.129,5844.377a8.334,8.334,0,0,1-1.972.345,15.434,15.434,0,0,1-3.627-.158,13.509,13.509,0,0,1-.043-3.4,6.262,6.262,0,0,1,4.635-4.36,2.561,2.561,0,0,0-1.569,2.043C240.452,5840.333,240.438,5843.758,243.129,5844.377Z" transform="translate(-232.92 -5836.516)" fill="#fcf5e8" style="mix-blend-mode: multiply;isolation: isolate"/>
          <path id="Trazado_146151" data-name="Trazado 146151" d="M243.816,5844.96s4.7,2.963,6.339,1.738c2.095-1.561,3.569-1.587,4.679-1.258l1.109.33a.273.273,0,0,0,.206-.317,44.246,44.246,0,0,0-4.288-2.969S249.45,5840.689,243.816,5844.96Z" transform="translate(-233.7 -5837.158)" fill="#725e6d"/>
          <path id="Trazado_146152" data-name="Trazado 146152" d="M246.424,5942.5a2.227,2.227,0,0,0-1.133.018,6.182,6.182,0,0,0-1.287.456c-.41.188-.423.348-.4.737-.53-.262-2.188-1.1-2.417-1.659a5.05,5.05,0,0,1-.12-1.439s-.027.167-.093.847-.222,2.406-.2,2.863,2.452,2.428,3.126,2.9c1.739,1.22,2.316,1.677,4.747,1.755s2.294-1.585,2.27-1.98-2.425-2.441-3.089-2.938a4.842,4.842,0,0,1-.938-1.2A.913.913,0,0,0,246.424,5942.5Z" transform="translate(-233.332 -5849.1)" fill="#5c6467"/>
          <path id="Trazado_146153" data-name="Trazado 146153" d="M254.641,5938.712c.679-.2,1.348.761,1.822,1.184a37.3,37.3,0,0,1,3.762,2.425,2.7,2.7,0,0,1,.155,1.3,3,3,0,0,1-3.22.721c-1.83-.666-2.489-1.29-3.711-1.591s-3.625-.794-3.938-1.459a8.476,8.476,0,0,1,.034-2.888s.383-.146.536.126a3.614,3.614,0,0,0,1.685,1.313,4.032,4.032,0,0,0,1.832.071c-.038-.17-.1-.337.023-.491a1.449,1.449,0,0,1,.341-.252c.164-.11.3-.253.47-.362A.775.775,0,0,1,254.641,5938.712Z" transform="translate(-234.375 -5848.828)" fill="#5c6467"/>
        </g>
        <g id="Grupo_66443" data-name="Grupo 66443" transform="translate(0 11.741)">
          <g id="Grupo_66438" data-name="Grupo 66438" transform="translate(0 3.01)">
            <path id="Trazado_146154" data-name="Trazado 146154" d="M201.966,5971.947l-39.561-22.84,25.175-14.531,7.6,9.684,25.891,27.688Z" transform="translate(-162.404 -5863.12)" fill="#becdd4" style="mix-blend-mode: multiply;isolation: isolate"/>
            <path id="Trazado_146155" data-name="Trazado 146155" d="M188.124,5942.036v-39.19l36.061,20.819,38.894-34.392v-29.688l45.69,15.263v39.19l-84.584,48.817Z" transform="translate(-165.523 -5854.028)" fill="#ebe7e3"/>
            <path id="Trazado_146156" data-name="Trazado 146156" d="M188.124,5942.036v-39.19l36.061,20.819,38.894-34.392v-29.688l45.69,15.263v8.549l-84.584,48.817Z" transform="translate(-165.523 -5854.028)" fill="#d9d3cc"/>
            <path id="Trazado_146157" data-name="Trazado 146157" d="M188.124,5902.08l9.631-5.557,12.147,7.014,65.321-37.705-12.143-7.013,9.629-5.556,36.061,20.819-14.259,8.229L224.185,5922.9Z" transform="translate(-165.523 -5853.262)" fill="#e8b687"/>
            <path id="Trazado_146158" data-name="Trazado 146158" d="M188.124,5908.814l36.061,20.819v39.191L188.124,5948Z" transform="translate(-165.523 -5859.997)" fill="#ded8d1"/>
          </g>
          <g id="Grupo_66439" data-name="Grupo 66439" transform="translate(94.055)">
            <path id="Trazado_146159" data-name="Trazado 146159" d="M327.582,5875.83v5.149l-13.13,7.575V5883.4Z" transform="translate(-274.893 -5852.987)" fill="#c99a6b"/>
            <path id="Trazado_146160" data-name="Trazado 146160" d="M308.994,5881.3v5.149l-39.558-22.839v-5.149Z" transform="translate(-269.435 -5850.881)" fill="#ae835b"/>
            <path id="Trazado_146161" data-name="Trazado 146161" d="M309,5880.255l-39.561-22.84,13.131-7.579,39.561,22.84Z" transform="translate(-269.435 -5849.836)" fill="#e8b687"/>
          </g>
          <g id="Grupo_66440" data-name="Grupo 66440" transform="translate(44.38 14.589)">
            <path id="Trazado_146162" data-name="Trazado 146162" d="M305.926,5884.451v5.149L244.1,5925.284v-5.15Z" transform="translate(-216.689 -5868.622)" fill="#c99a6b"/>
            <path id="Trazado_146163" data-name="Trazado 146163" d="M240.321,5922.873v5.149L212.907,5912.2v-5.149Z" transform="translate(-212.907 -5871.361)" fill="#ae835b"/>
            <path id="Trazado_146164" data-name="Trazado 146164" d="M240.324,5917.951l-27.417-15.828,61.823-35.686,27.417,15.828Z" transform="translate(-212.907 -5866.438)" fill="#e8b687"/>
          </g>
          <g id="Grupo_66442" data-name="Grupo 66442" transform="translate(19.101 43.261)">
            <g id="Grupo_66441" data-name="Grupo 66441">
              <path id="Trazado_146165" data-name="Trazado 146165" d="M242.287,5925.057v5.151l-13.13,7.575v-5.151Z" transform="translate(-189.599 -5902.217)" fill="#c99a6b"/>
              <path id="Trazado_146166" data-name="Trazado 146166" d="M223.7,5930.526v5.151l-39.558-22.84v-5.149Z" transform="translate(-184.141 -5900.111)" fill="#ae835b"/>
              <path id="Trazado_146167" data-name="Trazado 146167" d="M223.7,5929.484l-39.561-22.841,13.131-7.578,39.561,22.84Z" transform="translate(-184.141 -5899.065)" fill="#e8b687"/>
            </g>
          </g>
        </g>
        <g id="Grupo_66455" data-name="Grupo 66455" transform="translate(62.925 19.881)">
          <path id="Trazado_146168" data-name="Trazado 146168" d="M256.524,5877.354a30.839,30.839,0,0,0,4.615,3.4s.165.208.385.445l0,.006a.016.016,0,0,1,.009.011,2.947,2.947,0,0,0,.708.575c.464.219,1.4,1.4,1.624,1.456s.439-.186.681-.125a.209.209,0,0,0,.141-.02l.005,0a.327.327,0,0,0,.057-.038s.008-.007.013-.012a.4.4,0,0,0,.04-.04c.016-.019.032-.037.047-.058a.007.007,0,0,0,0-.006.112.112,0,0,0,.024-.029,1.211,1.211,0,0,0,.1-.182l.157-.1.25-.159a.2.2,0,0,0,.03.029l0,0a.056.056,0,0,0,.022.019.439.439,0,0,0,.072.044.183.183,0,0,0,.04.015.165.165,0,0,0,.046.016.355.355,0,0,0,.077.009.293.293,0,0,0,.083,0,.7.7,0,0,0,.308-.143,9.041,9.041,0,0,0,1.1-1.144.513.513,0,0,0,.047-.6,3.453,3.453,0,0,1-.206-.461l0-.012a.138.138,0,0,1-.028-.058,3.518,3.518,0,0,0-.666-.892.344.344,0,0,1-.027-.033c-.286-.32-.595-.643-.787-.844-.03-.029-.06-.059-.083-.083-.007-.005-.011-.014-.018-.02a.532.532,0,0,1-.046-.049c-.011-.01-.018-.018-.025-.023a.053.053,0,0,0-.011-.011l0-.005-.494.079a2.388,2.388,0,0,0-.692-.3c-.244-.041-.728.356-1.188.336h0a.643.643,0,0,1-.315-.093c-.54-.326-2.652-4.192-3.235-4.489s-1.483.408-1.483.408C255.976,5875.308,255.517,5876.191,256.524,5877.354Z" transform="translate(-236.677 -5860.869)" fill="#febfbf"/>
          <g id="Grupo_66453" data-name="Grupo 66453" transform="translate(11.088)">
            <g id="Grupo_66447" data-name="Grupo 66447" transform="translate(5.752 17.12)">
              <path id="Trazado_146169" data-name="Trazado 146169" d="M275.974,5882.587l-6.082-3.517a.806.806,0,0,0-.728,0l-15.3,8.895-.691.168v.342h0a.248.248,0,0,0,.149.228l6.217,3.594a.8.8,0,0,0,.728,0l15.841-9.209a.26.26,0,0,0,.148-.2h0v-.369Z" transform="translate(-253.174 -5878.63)" fill="#c5c9d8"/>
              <g id="Grupo_66446" data-name="Grupo 66446">
                <path id="Trazado_146170" data-name="Trazado 146170" d="M253.326,5888.3l6.217,3.595a.8.8,0,0,0,.728,0l15.841-9.21a.223.223,0,0,0,0-.422l-6.217-3.595a.8.8,0,0,0-.728,0l-15.841,9.21A.223.223,0,0,0,253.326,5888.3Z" transform="translate(-253.174 -5878.582)" fill="#dadae8"/>
                <g id="Grupo_66444" data-name="Grupo 66444" transform="translate(0.777 0.51)">
                  <path id="Trazado_146171" data-name="Trazado 146171" d="M277.262,5882.588v-.083h-.068l-.689-.4a.28.28,0,0,0-.254,0l-.692.4h-.06v.079h0v.005h0a.092.092,0,0,0,.052.069l.7.406a.285.285,0,0,0,.255,0l.7-.406A.09.09,0,0,0,277.262,5882.588Z" transform="translate(-256.658 -5879.516)" fill="#e7e7f0"/>
                  <path id="Trazado_146172" data-name="Trazado 146172" d="M272.212,5879.672v-.081h-.068l-.689-.4a.283.283,0,0,0-.254,0l-.692.4h-.06v.078h0v.006h0a.091.091,0,0,0,.052.068l.7.406a.279.279,0,0,0,.255,0l.7-.406A.087.087,0,0,0,272.212,5879.672Z" transform="translate(-256.045 -5879.162)" fill="#e7e7f0"/>
                  <path id="Trazado_146173" data-name="Trazado 146173" d="M270.966,5880.4v-.081H270.9l-.689-.4a.283.283,0,0,0-.254,0l-.692.4h-.06v.077h0v.006h0a.09.09,0,0,0,.052.068l.7.406a.282.282,0,0,0,.255,0l.7-.407A.089.089,0,0,0,270.966,5880.4Z" transform="translate(-255.894 -5879.249)" fill="#e7e7f0"/>
                  <path id="Trazado_146174" data-name="Trazado 146174" d="M269.72,5881.121v-.082h-.068l-.689-.4a.282.282,0,0,0-.255,0l-.691.4h-.06v.077h0v0h0a.088.088,0,0,0,.052.069l.7.406a.279.279,0,0,0,.255,0l.7-.407A.09.09,0,0,0,269.72,5881.121Z" transform="translate(-255.743 -5879.337)" fill="#e7e7f0"/>
                  <path id="Trazado_146175" data-name="Trazado 146175" d="M268.474,5881.845v-.082h-.068l-.689-.4a.279.279,0,0,0-.255,0l-.691.4h-.061v.078h0v0h0a.091.091,0,0,0,.053.069l.7.406a.285.285,0,0,0,.255,0l.7-.406A.091.091,0,0,0,268.474,5881.845Z" transform="translate(-255.592 -5879.425)" fill="#e7e7f0"/>
                  <path id="Trazado_146176" data-name="Trazado 146176" d="M276.016,5883.312v-.081h-.068l-.689-.4a.283.283,0,0,0-.254,0l-.692.4h-.06v.077h0v.006h0a.091.091,0,0,0,.052.068l.7.406a.279.279,0,0,0,.255,0l.7-.406A.087.087,0,0,0,276.016,5883.312Z" transform="translate(-256.507 -5879.603)" fill="#e7e7f0"/>
                  <path id="Trazado_146177" data-name="Trazado 146177" d="M274.058,5883v-.082h-.068l-.689-.4a.282.282,0,0,0-.255,0l-.691.4h-.061V5883h0V5883h0a.093.093,0,0,0,.053.068l.7.406a.279.279,0,0,0,.255,0l.7-.406A.089.089,0,0,0,274.058,5883Z" transform="translate(-256.269 -5879.565)" fill="#e7e7f0"/>
                  <path id="Trazado_146178" data-name="Trazado 146178" d="M272.811,5883.721v-.082h-.067l-.689-.4a.282.282,0,0,0-.255,0l-.691.4h-.061v.077h0v0h0a.094.094,0,0,0,.053.069l.7.406a.276.276,0,0,0,.255,0l.7-.406A.086.086,0,0,0,272.811,5883.721Z" transform="translate(-256.118 -5879.652)" fill="#e7e7f0"/>
                  <path id="Trazado_146179" data-name="Trazado 146179" d="M272.164,5882.625v-.082H272.1l-.689-.4a.279.279,0,0,0-.254,0l-.692.4h-.06v.079h0v0h0a.092.092,0,0,0,.052.069l.7.406a.281.281,0,0,0,.255,0l.7-.406A.09.09,0,0,0,272.164,5882.625Z" transform="translate(-256.039 -5879.52)" fill="#e7e7f0"/>
                  <path id="Trazado_146180" data-name="Trazado 146180" d="M270.893,5881.892v-.082h-.068l-.689-.4a.28.28,0,0,0-.254,0l-.692.4h-.06v.078h0v0h0a.088.088,0,0,0,.052.069l.7.406a.279.279,0,0,0,.255,0l.7-.406A.089.089,0,0,0,270.893,5881.892Z" transform="translate(-255.885 -5879.431)" fill="#e7e7f0"/>
                  <path id="Trazado_146181" data-name="Trazado 146181" d="M269.647,5882.617v-.083h-.068l-.689-.4a.28.28,0,0,0-.254,0l-.692.4h-.06v.079h0v0h0a.09.09,0,0,0,.052.068l.7.406a.285.285,0,0,0,.255,0l.7-.406A.09.09,0,0,0,269.647,5882.617Z" transform="translate(-255.734 -5879.519)" fill="#e7e7f0"/>
                  <path id="Trazado_146182" data-name="Trazado 146182" d="M268.4,5883.34v-.082h-.068l-.689-.4a.282.282,0,0,0-.255,0l-.691.4h-.06v.079h0v0h0a.1.1,0,0,0,.053.069l.7.406a.282.282,0,0,0,.255,0l.7-.406A.09.09,0,0,0,268.4,5883.34Z" transform="translate(-255.583 -5879.606)" fill="#e7e7f0"/>
                  <path id="Trazado_146183" data-name="Trazado 146183" d="M267.155,5884.063v-.081h-.068l-.689-.4a.282.282,0,0,0-.255,0l-.691.4h-.061v.077h0v.006h0a.1.1,0,0,0,.053.069l.7.406a.279.279,0,0,0,.255,0l.7-.406A.091.091,0,0,0,267.155,5884.063Z" transform="translate(-255.432 -5879.694)" fill="#e7e7f0"/>
                  <path id="Trazado_146184" data-name="Trazado 146184" d="M265.909,5884.789v-.082h-.068l-.689-.4a.282.282,0,0,0-.255,0l-.691.4h-.061v.077h0v.005h0a.093.093,0,0,0,.053.068l.7.406a.276.276,0,0,0,.255,0l.7-.407A.088.088,0,0,0,265.909,5884.789Z" transform="translate(-255.281 -5879.782)" fill="#e7e7f0"/>
                  <path id="Trazado_146185" data-name="Trazado 146185" d="M264.662,5885.512v-.082H264.6l-.689-.4a.285.285,0,0,0-.255,0l-.691.4H262.9v.077h0v0h0a.088.088,0,0,0,.053.068l.7.406a.279.279,0,0,0,.255,0l.7-.407A.085.085,0,0,0,264.662,5885.512Z" transform="translate(-255.13 -5879.869)" fill="#e7e7f0"/>
                  <path id="Trazado_146186" data-name="Trazado 146186" d="M263.416,5886.236v-.082h-.067l-.689-.4a.274.274,0,0,0-.255,0l-.692.4h-.06v.078h0v0h0a.094.094,0,0,0,.053.07l.7.405a.285.285,0,0,0,.255,0l.7-.405A.089.089,0,0,0,263.416,5886.236Z" transform="translate(-254.979 -5879.958)" fill="#e7e7f0"/>
                  <path id="Trazado_146187" data-name="Trazado 146187" d="M262.17,5886.962v-.083H262.1l-.689-.4a.281.281,0,0,0-.255,0l-.692.4h-.06v.079h0v0h0a.092.092,0,0,0,.053.068l.7.406a.285.285,0,0,0,.255,0l.7-.406A.087.087,0,0,0,262.17,5886.962Z" transform="translate(-254.828 -5880.045)" fill="#e7e7f0"/>
                  <path id="Trazado_146188" data-name="Trazado 146188" d="M259.162,5887.685v.082h.068l.689.4a.277.277,0,0,0,.254,0l.692-.4h.06v-.079h0v-.005h0a.094.094,0,0,0-.052-.068l-.7-.406a.285.285,0,0,0-.255,0l-.7.406A.089.089,0,0,0,259.162,5887.685Z" transform="translate(-254.677 -5880.133)" fill="#e7e7f0"/>
                  <path id="Trazado_146189" data-name="Trazado 146189" d="M259.589,5887.007v-.081h-.067l-.689-.4a.273.273,0,0,0-.255,0l-.691.4h-.061v.079h0v0h0a.091.091,0,0,0,.053.068l.7.406a.282.282,0,0,0,.255,0l.7-.407A.086.086,0,0,0,259.589,5887.007Z" transform="translate(-254.515 -5880.051)" fill="#e7e7f0"/>
                  <path id="Trazado_146190" data-name="Trazado 146190" d="M258.343,5887.731v-.082h-.067l-.689-.4a.282.282,0,0,0-.255,0l-.691.4h-.061v.078h0v0h0a.1.1,0,0,0,.053.069l.7.406a.282.282,0,0,0,.255,0l.7-.406A.088.088,0,0,0,258.343,5887.731Z" transform="translate(-254.364 -5880.139)" fill="#e7e7f0"/>
                  <path id="Trazado_146191" data-name="Trazado 146191" d="M255.82,5889.2v-.083h-.067l-.689-.4a.276.276,0,0,0-.255,0l-.691.4h-.061v.078h0v0h0a.094.094,0,0,0,.053.069l.7.405a.279.279,0,0,0,.255,0l.7-.405A.088.088,0,0,0,255.82,5889.2Z" transform="translate(-254.058 -5880.316)" fill="#e7e7f0"/>
                  <path id="Trazado_146192" data-name="Trazado 146192" d="M257.1,5889.776l-.689-.4a.28.28,0,0,0-.254,0l-.1.057h0l-.593.346h-.06v.034l-.038.021h-.061v.079h0v.005h0a.094.094,0,0,0,.053.068l.7.406a.282.282,0,0,0,.255,0l.8-.463a.088.088,0,0,0,.052-.073v-.082Z" transform="translate(-254.21 -5880.396)" fill="#e7e7f0"/>
                  <path id="Trazado_146193" data-name="Trazado 146193" d="M259.678,5888.409v-.081h-.068l-.689-.4a.28.28,0,0,0-.254,0l-.692.4h-.06v.078h0v.005h0a.093.093,0,0,0,.052.069l.7.406a.284.284,0,0,0,.256,0l.7-.406A.089.089,0,0,0,259.678,5888.409Z" transform="translate(-254.526 -5880.221)" fill="#e7e7f0"/>
                  <path id="Trazado_146194" data-name="Trazado 146194" d="M258.432,5889.133v-.082h-.068l-.689-.4a.277.277,0,0,0-.254,0l-.692.4h-.06v.077h0v.005h0a.093.093,0,0,0,.052.069l.7.406a.276.276,0,0,0,.255,0l.7-.406A.09.09,0,0,0,258.432,5889.133Z" transform="translate(-254.375 -5880.309)" fill="#e7e7f0"/>
                  <path id="Trazado_146195" data-name="Trazado 146195" d="M270.918,5883.351v-.083h-.068l-.689-.4a.279.279,0,0,0-.254,0l-.692.4h-.06v.079h0v0h0a.09.09,0,0,0,.052.069l.7.406a.282.282,0,0,0,.255,0l.7-.406A.088.088,0,0,0,270.918,5883.351Z" transform="translate(-255.888 -5879.608)" fill="#e7e7f0"/>
                  <path id="Trazado_146196" data-name="Trazado 146196" d="M269.672,5884.074v-.083H269.6l-.689-.4a.279.279,0,0,0-.254,0l-.692.4h-.06v.078h0v.005h0a.091.091,0,0,0,.052.069l.7.406a.282.282,0,0,0,.255,0l.7-.406A.091.091,0,0,0,269.672,5884.074Z" transform="translate(-255.737 -5879.695)" fill="#e7e7f0"/>
                  <path id="Trazado_146197" data-name="Trazado 146197" d="M268.426,5884.8v-.082h-.068l-.689-.4a.279.279,0,0,0-.255,0l-.691.4h-.06v.078h0v.006h0a.091.091,0,0,0,.052.068l.7.406a.285.285,0,0,0,.255,0l.7-.406A.092.092,0,0,0,268.426,5884.8Z" transform="translate(-255.586 -5879.783)" fill="#e7e7f0"/>
                  <path id="Trazado_146198" data-name="Trazado 146198" d="M267.18,5885.522v-.082h-.068l-.689-.4a.282.282,0,0,0-.255,0l-.691.4h-.061v.078h0v.005h0a.093.093,0,0,0,.053.068l.7.406a.276.276,0,0,0,.255,0l.7-.406A.089.089,0,0,0,267.18,5885.522Z" transform="translate(-255.435 -5879.871)" fill="#e7e7f0"/>
                  <path id="Trazado_146199" data-name="Trazado 146199" d="M265.934,5886.247v-.082h-.068l-.689-.4a.282.282,0,0,0-.255,0l-.691.4h-.061v.078h0v.005h0a.091.091,0,0,0,.053.068l.7.406a.279.279,0,0,0,.255,0l.7-.407A.088.088,0,0,0,265.934,5886.247Z" transform="translate(-255.284 -5879.959)" fill="#e7e7f0"/>
                  <path id="Trazado_146200" data-name="Trazado 146200" d="M264.687,5886.97v-.081h-.067l-.689-.4a.279.279,0,0,0-.255,0l-.691.4h-.061v.077h0v0h0a.09.09,0,0,0,.053.069l.7.406a.282.282,0,0,0,.255,0l.7-.407A.086.086,0,0,0,264.687,5886.97Z" transform="translate(-255.133 -5880.047)" fill="#e7e7f0"/>
                  <path id="Trazado_146201" data-name="Trazado 146201" d="M263.441,5887.694v-.082h-.067l-.689-.4a.274.274,0,0,0-.255,0l-.691.4h-.061v.079h0v0h0a.094.094,0,0,0,.053.069l.7.405a.282.282,0,0,0,.255,0l.7-.406A.087.087,0,0,0,263.441,5887.694Z" transform="translate(-254.982 -5880.135)" fill="#e7e7f0"/>
                  <path id="Trazado_146202" data-name="Trazado 146202" d="M262.195,5888.419v-.083h-.067l-.69-.4a.28.28,0,0,0-.254,0l-.692.4h-.06v.078h0v0h0a.1.1,0,0,0,.052.07l.7.406a.282.282,0,0,0,.255,0l.7-.406A.088.088,0,0,0,262.195,5888.419Z" transform="translate(-254.831 -5880.222)" fill="#e7e7f0"/>
                  <path id="Trazado_146203" data-name="Trazado 146203" d="M260.949,5889.143v-.081h-.067l-.689-.4a.285.285,0,0,0-.255,0l-.692.4h-.06v.077h0v.006h0a.093.093,0,0,0,.053.068l.7.406a.285.285,0,0,0,.255,0l.7-.406A.087.087,0,0,0,260.949,5889.143Z" transform="translate(-254.68 -5880.31)" fill="#e7e7f0"/>
                  <path id="Trazado_146204" data-name="Trazado 146204" d="M271.565,5884.446v-.082H271.5l-.689-.4a.279.279,0,0,0-.255,0l-.691.4H269.8v.077h0v.005h0a.094.094,0,0,0,.053.068l.7.406a.281.281,0,0,0,.255,0l.7-.407A.086.086,0,0,0,271.565,5884.446Z" transform="translate(-255.967 -5879.741)" fill="#e7e7f0"/>
                  <path id="Trazado_146205" data-name="Trazado 146205" d="M270.319,5885.169v-.082h-.067l-.689-.4a.279.279,0,0,0-.255,0l-.692.4h-.06v.079h0v0h0a.1.1,0,0,0,.053.07l.7.4a.282.282,0,0,0,.255,0l.7-.406A.089.089,0,0,0,270.319,5885.169Z" transform="translate(-255.816 -5879.829)" fill="#e7e7f0"/>
                  <path id="Trazado_146206" data-name="Trazado 146206" d="M269.073,5885.894v-.083h-.067l-.69-.4a.28.28,0,0,0-.254,0l-.692.4h-.06v.078h0v0h0a.093.093,0,0,0,.052.069l.7.406a.282.282,0,0,0,.255,0l.7-.406A.087.087,0,0,0,269.073,5885.894Z" transform="translate(-255.665 -5879.916)" fill="#e7e7f0"/>
                  <path id="Trazado_146207" data-name="Trazado 146207" d="M267.827,5886.618v-.083l-.067,0-.69-.4a.277.277,0,0,0-.254,0l-.692.4h-.06v.078h0v0h0a.093.093,0,0,0,.052.07l.7.405a.279.279,0,0,0,.255,0l.7-.405A.088.088,0,0,0,267.827,5886.618Z" transform="translate(-255.514 -5880.004)" fill="#e7e7f0"/>
                  <path id="Trazado_146208" data-name="Trazado 146208" d="M266.581,5887.342v-.082h-.068l-.689-.4a.28.28,0,0,0-.254,0l-.692.4h-.06v.078h0v.005h0a.092.092,0,0,0,.052.068l.7.406a.284.284,0,0,0,.256,0l.7-.406A.089.089,0,0,0,266.581,5887.342Z" transform="translate(-255.363 -5880.091)" fill="#e7e7f0"/>
                  <path id="Trazado_146209" data-name="Trazado 146209" d="M265.335,5888.066v-.082h-.068l-.689-.4a.28.28,0,0,0-.254,0l-.692.4h-.06v.079h0v.005h0a.094.094,0,0,0,.052.069l.7.406a.285.285,0,0,0,.255,0l.7-.406A.09.09,0,0,0,265.335,5888.066Z" transform="translate(-255.212 -5880.179)" fill="#e7e7f0"/>
                  <path id="Trazado_146210" data-name="Trazado 146210" d="M264.089,5888.79v-.081h-.068l-.689-.4a.283.283,0,0,0-.254,0l-.692.4h-.06v.077h0v.006h0a.091.091,0,0,0,.052.068l.7.406a.279.279,0,0,0,.255,0l.7-.406A.089.089,0,0,0,264.089,5888.79Z" transform="translate(-255.061 -5880.268)" fill="#e7e7f0"/>
                  <path id="Trazado_146211" data-name="Trazado 146211" d="M262.843,5889.514v-.081h-.068l-.689-.4a.277.277,0,0,0-.254,0l-.692.4h-.06v.077h0v.005h0a.088.088,0,0,0,.052.069l.7.406a.279.279,0,0,0,.255,0l.7-.407A.089.089,0,0,0,262.843,5889.514Z" transform="translate(-254.909 -5880.355)" fill="#e7e7f0"/>
                  <path id="Trazado_146212" data-name="Trazado 146212" d="M261.6,5890.238v-.082h-.068l-.689-.4a.276.276,0,0,0-.255,0l-.691.4h-.06v.077h0v0h0a.091.091,0,0,0,.052.069l.7.4a.279.279,0,0,0,.255,0l.7-.406A.092.092,0,0,0,261.6,5890.238Z" transform="translate(-254.758 -5880.443)" fill="#e7e7f0"/>
                  <path id="Trazado_146213" data-name="Trazado 146213" d="M274.77,5884.036v-.081H274.7l-.689-.4a.283.283,0,0,0-.254,0l-.692.4h-.06v.077h0v.005h0a.09.09,0,0,0,.052.068l.7.406a.276.276,0,0,0,.255,0l.7-.406A.088.088,0,0,0,274.77,5884.036Z" transform="translate(-256.355 -5879.691)" fill="#e7e7f0"/>
                  <path id="Trazado_146214" data-name="Trazado 146214" d="M273.524,5884.76v-.082h-.068l-.689-.4a.282.282,0,0,0-.255,0l-.691.4h-.06v.077h0v0h0a.09.09,0,0,0,.052.069l.7.406a.279.279,0,0,0,.255,0l.7-.407A.09.09,0,0,0,273.524,5884.76Z" transform="translate(-256.204 -5879.778)" fill="#e7e7f0"/>
                  <path id="Trazado_146215" data-name="Trazado 146215" d="M272.278,5885.484v-.082h-.068l-.689-.4a.282.282,0,0,0-.255,0l-.691.4h-.061v.078h0v.005h0a.092.092,0,0,0,.053.069l.7.406a.281.281,0,0,0,.255,0l.7-.406A.09.09,0,0,0,272.278,5885.484Z" transform="translate(-256.053 -5879.866)" fill="#e7e7f0"/>
                  <path id="Trazado_146216" data-name="Trazado 146216" d="M271.032,5886.208v-.082h-.068l-.689-.4a.279.279,0,0,0-.255,0l-.691.4h-.061v.079h0v0h0a.094.094,0,0,0,.053.069l.7.406a.282.282,0,0,0,.255,0l.7-.406A.091.091,0,0,0,271.032,5886.208Z" transform="translate(-255.902 -5879.955)" fill="#e7e7f0"/>
                  <path id="Trazado_146217" data-name="Trazado 146217" d="M269.786,5886.933v-.082h-.068l-.689-.4a.281.281,0,0,0-.255,0l-.691.4h-.061v.078h0v0h0a.094.094,0,0,0,.053.069l.7.406a.282.282,0,0,0,.255,0l.7-.406A.09.09,0,0,0,269.786,5886.933Z" transform="translate(-255.751 -5880.042)" fill="#e7e7f0"/>
                  <path id="Trazado_146218" data-name="Trazado 146218" d="M268.539,5887.657v-.083h-.067l-.689-.4a.281.281,0,0,0-.255,0l-.691.4h-.061v.078h0v.005h0a.1.1,0,0,0,.053.069l.7.406a.282.282,0,0,0,.255,0l.7-.406A.087.087,0,0,0,268.539,5887.657Z" transform="translate(-255.6 -5880.13)" fill="#e7e7f0"/>
                  <path id="Trazado_146219" data-name="Trazado 146219" d="M267.293,5888.381v-.081h-.067l-.689-.4a.279.279,0,0,0-.255,0l-.692.4h-.06v.078h0v.006h0a.094.094,0,0,0,.053.068l.7.406a.285.285,0,0,0,.255,0l.7-.406A.088.088,0,0,0,267.293,5888.381Z" transform="translate(-255.449 -5880.217)" fill="#e7e7f0"/>
                  <path id="Trazado_146220" data-name="Trazado 146220" d="M266.047,5889.1v-.082h-.067l-.689-.4a.282.282,0,0,0-.255,0l-.692.4h-.06v.078h0v.005h0a.093.093,0,0,0,.053.068l.7.406a.276.276,0,0,0,.255,0l.7-.406A.087.087,0,0,0,266.047,5889.1Z" transform="translate(-255.298 -5880.305)" fill="#e7e7f0"/>
                  <path id="Trazado_146221" data-name="Trazado 146221" d="M264.8,5889.829v-.082h-.067l-.69-.4a.28.28,0,0,0-.254,0l-.692.4h-.06v.077h0v.005h0a.088.088,0,0,0,.053.068l.7.406a.276.276,0,0,0,.255,0l.7-.406A.085.085,0,0,0,264.8,5889.829Z" transform="translate(-255.147 -5880.394)" fill="#e7e7f0"/>
                  <path id="Trazado_146222" data-name="Trazado 146222" d="M263.555,5890.554v-.082h-.067l-.69-.4a.277.277,0,0,0-.254,0l-.692.4h-.06v.078h0v0h0a.09.09,0,0,0,.052.069l.7.406a.284.284,0,0,0,.255,0l.7-.407A.086.086,0,0,0,263.555,5890.554Z" transform="translate(-254.996 -5880.481)" fill="#e7e7f0"/>
                  <path id="Trazado_146223" data-name="Trazado 146223" d="M262.309,5891.277v-.082h-.068l-.689-.4a.276.276,0,0,0-.254,0l-.692.4h-.06v.079h0v0h0a.094.094,0,0,0,.052.069l.7.406a.285.285,0,0,0,.255,0l.7-.406A.09.09,0,0,0,262.309,5891.277Z" transform="translate(-254.845 -5880.569)" fill="#e7e7f0"/>
                  <path id="Trazado_146224" data-name="Trazado 146224" d="M261.039,5891.915l-.069,0-.688-.4a.281.281,0,0,0-.255,0l-.851.494-.069,0v.088h0a.094.094,0,0,0,.052.065l.7.406a.282.282,0,0,0,.255,0l.867-.5a.089.089,0,0,0,.052-.078h0Z" transform="translate(-254.67 -5880.656)" fill="#e7e7f0"/>
                  <path id="Trazado_146225" data-name="Trazado 146225" d="M266.453,5882.567v-.08h-.067l-.69-.4a.28.28,0,0,0-.2-.023.224.224,0,0,0-.06.023l-.691.4h-.061v.036l-4.866,2.828h0l-.691.4h-.061v.077h0v0h0v0l0,.016,0,0,.008.014.007.008.009.01a.129.129,0,0,0,.022.015h0l.7.406a.21.21,0,0,0,.06.024.313.313,0,0,0,.068.007.262.262,0,0,0,.127-.03l.7-.407h0l5.617-3.264A.087.087,0,0,0,266.453,5882.567Z" transform="translate(-254.666 -5879.513)" fill="#e7e7f0"/>
                  <path id="Trazado_146226" data-name="Trazado 146226" d="M276.564,5883.853v-.08l-.045.011-.009,0-.189-.109a.282.282,0,0,0-.255,0l-.647.376-.1.024v.084a.094.094,0,0,0,.054.069l.189.108a.279.279,0,0,0,.255,0l.7-.406a.091.091,0,0,0,.052-.072h0Z" transform="translate(-256.635 -5879.704)" fill="#e7e7f0"/>
                  <path id="Trazado_146227" data-name="Trazado 146227" d="M275.318,5884.577v-.08l-.045.011-.009-.006-.189-.109a.279.279,0,0,0-.255,0l-.647.376-.1.024v.083a.091.091,0,0,0,.053.069l.19.11a.279.279,0,0,0,.255,0l.7-.406a.09.09,0,0,0,.052-.072h0Z" transform="translate(-256.484 -5879.792)" fill="#e7e7f0"/>
                  <path id="Trazado_146228" data-name="Trazado 146228" d="M274.072,5885.3h0v-.078l-.046.011-.008-.006-.189-.109a.282.282,0,0,0-.255,0l-.647.376-.1.024v.083a.092.092,0,0,0,.053.069l.19.11a.281.281,0,0,0,.255,0l.7-.406a.09.09,0,0,0,.052-.072h0Z" transform="translate(-256.333 -5879.88)" fill="#e7e7f0"/>
                  <path id="Trazado_146229" data-name="Trazado 146229" d="M272.826,5886.026v-.081l-.046.011-.008-.006-.189-.109a.276.276,0,0,0-.255,0l-.647.375-.1.024v.083a.093.093,0,0,0,.053.07l.19.109a.281.281,0,0,0,.255,0l.7-.406a.09.09,0,0,0,.052-.072Z" transform="translate(-256.182 -5879.968)" fill="#e7e7f0"/>
                  <path id="Trazado_146230" data-name="Trazado 146230" d="M271.58,5886.75v-.08l-.046.011-.008-.006-.189-.109a.284.284,0,0,0-.256,0l-.646.375-.1.024v.084a.094.094,0,0,0,.053.07l.189.109a.278.278,0,0,0,.256,0l.7-.406a.09.09,0,0,0,.053-.071h0Z" transform="translate(-256.031 -5880.056)" fill="#e7e7f0"/>
                  <path id="Trazado_146231" data-name="Trazado 146231" d="M270.334,5887.474v-.08l-.046.011-.008-.005-.19-.11a.279.279,0,0,0-.254,0l-.647.375-.1.025v.083a.093.093,0,0,0,.053.07l.189.109a.276.276,0,0,0,.255,0l.7-.405a.092.092,0,0,0,.053-.072h0Z" transform="translate(-255.88 -5880.143)" fill="#e7e7f0"/>
                  <path id="Trazado_146232" data-name="Trazado 146232" d="M269.088,5888.2h0v-.078l-.046.01-.008,0-.19-.11a.282.282,0,0,0-.255,0l-.646.376-.1.024v.083a.094.094,0,0,0,.053.071l.189.109a.282.282,0,0,0,.255,0l.7-.406a.09.09,0,0,0,.052-.072h0Z" transform="translate(-255.729 -5880.231)" fill="#e7e7f0"/>
                  <path id="Trazado_146233" data-name="Trazado 146233" d="M267.841,5888.922v-.08l-.045.01-.008,0-.19-.11a.282.282,0,0,0-.255,0l-.646.376-.1.025v.083a.091.091,0,0,0,.053.069l.189.109a.281.281,0,0,0,.255,0l.7-.406a.088.088,0,0,0,.052-.072h0Z" transform="translate(-255.578 -5880.319)" fill="#e7e7f0"/>
                  <path id="Trazado_146234" data-name="Trazado 146234" d="M266.595,5889.646h0v-.079l-.045.011-.008-.006-.19-.108a.281.281,0,0,0-.255,0l-.646.376-.1.025v.083a.093.093,0,0,0,.053.069l.189.11a.282.282,0,0,0,.255,0l.7-.406a.088.088,0,0,0,.052-.072h0Z" transform="translate(-255.427 -5880.407)" fill="#e7e7f0"/>
                  <path id="Trazado_146235" data-name="Trazado 146235" d="M265.349,5890.371v-.081l-.045.011-.008-.006-.19-.108a.279.279,0,0,0-.255,0l-.647.375-.1.024v.084a.092.092,0,0,0,.053.069l.189.109a.279.279,0,0,0,.255,0l.7-.405a.091.091,0,0,0,.052-.072Z" transform="translate(-255.276 -5880.495)" fill="#e7e7f0"/>
                  <path id="Trazado_146236" data-name="Trazado 146236" d="M264.1,5891.095h0v-.078l-.045.01-.009-.006-.189-.109a.279.279,0,0,0-.255,0l-.647.375-.1.025v.083a.092.092,0,0,0,.053.07l.189.109a.282.282,0,0,0,.255,0l.7-.406a.09.09,0,0,0,.052-.072Z" transform="translate(-255.125 -5880.582)" fill="#e7e7f0"/>
                  <path id="Trazado_146237" data-name="Trazado 146237" d="M262.857,5891.819v-.08l-.045.011-.009-.006-.189-.109a.278.278,0,0,0-.255,0l-.647.375-.1.024v.083a.1.1,0,0,0,.054.071l.189.109a.282.282,0,0,0,.255,0l.7-.406a.089.089,0,0,0,.052-.071Z" transform="translate(-254.973 -5880.67)" fill="#e7e7f0"/>
                  <path id="Trazado_146238" data-name="Trazado 146238" d="M261.611,5892.543v-.08l-.045.011-.009,0-.189-.11a.282.282,0,0,0-.255,0l-.647.375-.1.025v.083a.093.093,0,0,0,.054.07l.189.109a.279.279,0,0,0,.255,0l.7-.405a.092.092,0,0,0,.052-.072h0Z" transform="translate(-254.822 -5880.758)" fill="#e7e7f0"/>
                  <path id="Trazado_146239" data-name="Trazado 146239" d="M275.914,5881.78l-.049.008,0,0-.7-.407a.283.283,0,0,0-.254,0l-1.3.756-.071.01v.077h0a.091.091,0,0,0,.052.07l.7.406a.277.277,0,0,0,.254,0l1.318-.765a.09.09,0,0,0,.052-.074h0Z" transform="translate(-256.419 -5879.426)" fill="#e7e7f0"/>
                  <path id="Trazado_146240" data-name="Trazado 146240" d="M274.576,5881.049l-.048.012-.005,0-.7-.406a.282.282,0,0,0-.255,0l-1.823,1.06-.094.022v.077h0a.091.091,0,0,0,.053.072l.7.406a.282.282,0,0,0,.255,0l1.865-1.083a.09.09,0,0,0,.053-.075h0Z" transform="translate(-256.19 -5879.339)" fill="#e7e7f0"/>
                  <path id="Trazado_146241" data-name="Trazado 146241" d="M273.3,5880.314l-.048.012-.005,0-.7-.406a.285.285,0,0,0-.255,0l-1.823,1.06-.094.022v.078h0a.091.091,0,0,0,.053.071l.7.406a.279.279,0,0,0,.255,0l1.865-1.084a.09.09,0,0,0,.053-.074h0Z" transform="translate(-256.036 -5879.249)" fill="#e7e7f0"/>
                  <path id="Trazado_146242" data-name="Trazado 146242" d="M260.253,5890.877l-.051.008h0l-.7-.406a.283.283,0,0,0-.256,0l-1.321.768-.075.011v.079h0a.09.09,0,0,0,.052.069l.7.407a.283.283,0,0,0,.254,0l1.344-.782a.086.086,0,0,0,.052-.075h0Z" transform="translate(-254.517 -5880.53)" fill="#e7e7f0"/>
                  <path id="Trazado_146243" data-name="Trazado 146243" d="M259.486,5889.793l-.7-.406a.281.281,0,0,0-.256,0l-1.891,1.1c-.07.04-.069.106,0,.147l.7.406a.282.282,0,0,0,.255,0l1.891-1.1a.078.078,0,0,0,0-.148Z" transform="translate(-254.364 -5880.398)" fill="#e7e7f0"/>
                  <path id="Trazado_146244" data-name="Trazado 146244" d="M257.168,5888.5v-.08l-.045.011-.009-.006-.189-.109a.279.279,0,0,0-.255,0l-.647.375-.1.024v.083a.093.093,0,0,0,.053.07l.189.109a.279.279,0,0,0,.255,0l.7-.406a.088.088,0,0,0,.052-.072Z" transform="translate(-254.284 -5880.268)" fill="#e7e7f0"/>
                  <path id="Trazado_146245" data-name="Trazado 146245" d="M256.584,5888.161v-.08l-.046.011-.008-.005-.19-.11a.282.282,0,0,0-.255,0l-.646.376-.1.024v.084a.094.094,0,0,0,.053.069l.189.109a.279.279,0,0,0,.255,0l.7-.406a.088.088,0,0,0,.052-.072h0Z" transform="translate(-254.213 -5880.227)" fill="#e7e7f0"/>
                </g>
                <path id="Trazado_146246" data-name="Trazado 146246" d="M277.979,5883.013h0v-.084l-.051.015,0,0-.189-.11a.282.282,0,0,0-.255,0l-.806.469-.114.033v.085h0a.094.094,0,0,0,.052.066l.19.109a.284.284,0,0,0,.255,0l.868-.5A.087.087,0,0,0,277.979,5883.013Z" transform="translate(-256.009 -5879.093)" fill="#e7e7f0"/>
                <g id="Grupo_66445" data-name="Grupo 66445" transform="translate(0.777 0.444)">
                  <path id="Trazado_146247" data-name="Trazado 146247" d="M275.554,5882.586l.7.406a.283.283,0,0,0,.254,0l.7-.406a.078.078,0,0,0,0-.147l-.7-.406a.279.279,0,0,0-.255,0l-.7.406c-.069.04-.069.106,0,.147Z" transform="translate(-256.658 -5879.44)" fill="#f4f5fa"/>
                  <path id="Trazado_146248" data-name="Trazado 146248" d="M274.307,5883.31l.7.406a.28.28,0,0,0,.254,0l.7-.406a.078.078,0,0,0,0-.147l-.7-.406a.282.282,0,0,0-.255,0l-.7.406a.078.078,0,0,0,0,.147Z" transform="translate(-256.507 -5879.528)" fill="#f4f5fa"/>
                  <path id="Trazado_146249" data-name="Trazado 146249" d="M273.061,5884.034l.7.406a.282.282,0,0,0,.255,0l.7-.406c.07-.04.07-.106,0-.148l-.7-.405a.279.279,0,0,0-.255,0l-.7.405a.079.079,0,0,0,0,.148Z" transform="translate(-256.355 -5879.615)" fill="#f4f5fa"/>
                  <path id="Trazado_146250" data-name="Trazado 146250" d="M271.815,5884.758l.7.406a.279.279,0,0,0,.255,0l.7-.406a.078.078,0,0,0,0-.147l-.7-.406a.285.285,0,0,0-.255,0l-.7.406a.078.078,0,0,0,0,.147Z" transform="translate(-256.204 -5879.704)" fill="#f4f5fa"/>
                  <path id="Trazado_146251" data-name="Trazado 146251" d="M270.569,5885.482l.7.406a.281.281,0,0,0,.255,0l.7-.406c.07-.04.07-.106,0-.147l-.7-.406a.282.282,0,0,0-.255,0l-.7.406a.078.078,0,0,0,0,.147Z" transform="translate(-256.053 -5879.792)" fill="#f4f5fa"/>
                  <path id="Trazado_146252" data-name="Trazado 146252" d="M269.323,5886.206l.7.406a.279.279,0,0,0,.255,0l.7-.406a.077.077,0,0,0,0-.146l-.7-.406a.282.282,0,0,0-.255,0l-.7.406a.078.078,0,0,0,0,.147Z" transform="translate(-255.902 -5879.879)" fill="#f4f5fa"/>
                  <path id="Trazado_146253" data-name="Trazado 146253" d="M268.077,5886.931l.7.406a.282.282,0,0,0,.255,0l.7-.406a.077.077,0,0,0,0-.147l-.7-.406a.279.279,0,0,0-.255,0l-.7.406a.079.079,0,0,0,0,.149Z" transform="translate(-255.751 -5879.966)" fill="#f4f5fa"/>
                  <path id="Trazado_146254" data-name="Trazado 146254" d="M266.831,5887.655l.7.405a.276.276,0,0,0,.255,0l.7-.405a.078.078,0,0,0,0-.148l-.7-.406a.279.279,0,0,0-.255,0l-.7.405a.079.079,0,0,0,0,.148Z" transform="translate(-255.6 -5880.054)" fill="#f4f5fa"/>
                  <path id="Trazado_146255" data-name="Trazado 146255" d="M265.585,5888.379l.7.405a.279.279,0,0,0,.255,0l.7-.405a.078.078,0,0,0,0-.148l-.7-.406a.282.282,0,0,0-.255,0l-.7.406c-.07.04-.069.106,0,.148Z" transform="translate(-255.449 -5880.142)" fill="#f4f5fa"/>
                  <path id="Trazado_146256" data-name="Trazado 146256" d="M264.339,5889.1l.7.406a.285.285,0,0,0,.255,0l.7-.406c.07-.041.069-.106,0-.147l-.7-.406a.279.279,0,0,0-.255,0l-.7.406c-.07.04-.069.106,0,.147Z" transform="translate(-255.298 -5880.23)" fill="#f4f5fa"/>
                  <path id="Trazado_146257" data-name="Trazado 146257" d="M263.093,5889.827l.7.406a.285.285,0,0,0,.255,0l.7-.406c.07-.041.069-.106,0-.147l-.7-.406a.282.282,0,0,0-.255,0l-.7.406a.078.078,0,0,0,0,.147Z" transform="translate(-255.147 -5880.318)" fill="#f4f5fa"/>
                  <path id="Trazado_146258" data-name="Trazado 146258" d="M271.1,5883.719l.7.407a.285.285,0,0,0,.255,0l.7-.407c.069-.04.07-.105,0-.147l-.7-.406a.282.282,0,0,0-.255,0l-.7.406a.078.078,0,0,0,0,.147Z" transform="translate(-256.118 -5879.577)" fill="#f4f5fa"/>
                  <path id="Trazado_146259" data-name="Trazado 146259" d="M269.857,5884.443l.7.406a.276.276,0,0,0,.254,0l.7-.406c.069-.04.069-.106,0-.147l-.7-.406a.285.285,0,0,0-.255,0l-.7.406a.078.078,0,0,0,0,.147Z" transform="translate(-255.967 -5879.666)" fill="#f4f5fa"/>
                  <path id="Trazado_146260" data-name="Trazado 146260" d="M268.611,5885.167l.7.406a.279.279,0,0,0,.255,0l.7-.406a.078.078,0,0,0,0-.148l-.7-.4a.276.276,0,0,0-.255,0l-.7.406a.078.078,0,0,0,0,.148Z" transform="translate(-255.816 -5879.752)" fill="#f4f5fa"/>
                  <path id="Trazado_146261" data-name="Trazado 146261" d="M267.365,5885.892l.7.405a.279.279,0,0,0,.255,0l.7-.406a.077.077,0,0,0,0-.146l-.7-.406a.282.282,0,0,0-.255,0l-.7.406a.078.078,0,0,0,0,.148Z" transform="translate(-255.665 -5879.84)" fill="#f4f5fa"/>
                  <path id="Trazado_146262" data-name="Trazado 146262" d="M266.119,5886.616l.7.406a.282.282,0,0,0,.255,0l.7-.407c.07-.04.069-.105,0-.146l-.7-.406a.279.279,0,0,0-.255,0l-.7.406a.079.079,0,0,0,0,.149Z" transform="translate(-255.514 -5879.928)" fill="#f4f5fa"/>
                  <path id="Trazado_146263" data-name="Trazado 146263" d="M264.873,5887.34l.7.406a.279.279,0,0,0,.255,0l.7-.406c.07-.041.069-.106,0-.147l-.7-.405a.273.273,0,0,0-.255,0l-.7.405a.078.078,0,0,0,0,.147Z" transform="translate(-255.363 -5880.017)" fill="#f4f5fa"/>
                  <path id="Trazado_146264" data-name="Trazado 146264" d="M263.627,5888.064l.7.406a.285.285,0,0,0,.255,0l.7-.406a.078.078,0,0,0,0-.147l-.7-.406a.278.278,0,0,0-.255,0l-.7.406c-.07.041-.07.106,0,.147Z" transform="translate(-255.212 -5880.104)" fill="#f4f5fa"/>
                  <path id="Trazado_146265" data-name="Trazado 146265" d="M262.381,5888.788l.7.406a.282.282,0,0,0,.255,0l.7-.406c.07-.042.07-.106,0-.147l-.7-.407a.282.282,0,0,0-.255,0l-.7.407c-.07.04-.069.106,0,.147Z" transform="translate(-255.061 -5880.192)" fill="#f4f5fa"/>
                  <path id="Trazado_146266" data-name="Trazado 146266" d="M261.135,5889.512l.7.406a.28.28,0,0,0,.254,0l.7-.406c.07-.041.07-.106,0-.148l-.7-.406a.282.282,0,0,0-.255,0l-.7.406c-.07.041-.069.107,0,.148Z" transform="translate(-254.909 -5880.279)" fill="#f4f5fa"/>
                  <path id="Trazado_146267" data-name="Trazado 146267" d="M259.889,5890.236l.7.405a.277.277,0,0,0,.254,0l.7-.405a.078.078,0,0,0,0-.148l-.7-.405a.279.279,0,0,0-.255,0l-.7.405c-.07.041-.069.107,0,.148Z" transform="translate(-254.758 -5880.367)" fill="#f4f5fa"/>
                  <path id="Trazado_146268" data-name="Trazado 146268" d="M261.847,5890.551l.7.406a.279.279,0,0,0,.255,0l.7-.406c.069-.041.07-.106,0-.148l-.7-.406a.287.287,0,0,0-.256,0l-.7.406a.078.078,0,0,0,0,.148Z" transform="translate(-254.996 -5880.405)" fill="#f4f5fa"/>
                  <path id="Trazado_146269" data-name="Trazado 146269" d="M260.6,5891.275l.7.406a.279.279,0,0,0,.255,0l.7-.406a.078.078,0,0,0,0-.148l-.7-.406a.284.284,0,0,0-.256,0l-.7.406a.078.078,0,0,0,0,.148Z" transform="translate(-254.845 -5880.493)" fill="#f4f5fa"/>
                  <path id="Trazado_146270" data-name="Trazado 146270" d="M270.5,5879.67l.7.406a.282.282,0,0,0,.255,0l.7-.406a.078.078,0,0,0,0-.148l-.7-.406a.282.282,0,0,0-.255,0l-.7.406a.078.078,0,0,0,0,.148Z" transform="translate(-256.045 -5879.086)" fill="#f4f5fa"/>
                  <path id="Trazado_146271" data-name="Trazado 146271" d="M269.257,5880.395l.7.406a.285.285,0,0,0,.255,0l.7-.406a.078.078,0,0,0,0-.147l-.7-.406a.279.279,0,0,0-.255,0l-.7.406a.078.078,0,0,0,0,.147Z" transform="translate(-255.894 -5879.174)" fill="#f4f5fa"/>
                  <path id="Trazado_146272" data-name="Trazado 146272" d="M268.011,5881.118l.7.406a.285.285,0,0,0,.255,0l.7-.406c.07-.04.069-.106,0-.147l-.7-.406a.282.282,0,0,0-.255,0l-.7.406a.078.078,0,0,0,0,.147Z" transform="translate(-255.743 -5879.263)" fill="#f4f5fa"/>
                  <path id="Trazado_146273" data-name="Trazado 146273" d="M266.765,5881.842l.7.406a.274.274,0,0,0,.255,0l.7-.406a.077.077,0,0,0,0-.146l-.7-.406a.279.279,0,0,0-.255,0l-.7.406a.078.078,0,0,0,0,.147Z" transform="translate(-255.592 -5879.35)" fill="#f4f5fa"/>
                  <path id="Trazado_146274" data-name="Trazado 146274" d="M272.349,5883l.7.406a.282.282,0,0,0,.255,0l.7-.406c.07-.042.07-.107,0-.147l-.7-.406a.282.282,0,0,0-.255,0l-.7.406c-.07.04-.069.106,0,.147Z" transform="translate(-256.269 -5879.49)" fill="#f4f5fa"/>
                  <path id="Trazado_146275" data-name="Trazado 146275" d="M259.162,5892.1l.7.405a.273.273,0,0,0,.255,0l.867-.5a.078.078,0,0,0,0-.147l-.7-.406a.287.287,0,0,0-.256,0l-.867.5a.078.078,0,0,0,0,.147Z" transform="translate(-254.67 -5880.581)" fill="#f4f5fa"/>
                  <path id="Trazado_146276" data-name="Trazado 146276" d="M259.126,5885.831l.7.407a.281.281,0,0,0,.255,0l6.316-3.67a.077.077,0,0,0,0-.146l-.7-.406a.279.279,0,0,0-.255,0l-6.317,3.67a.079.079,0,0,0,0,.148Z" transform="translate(-254.666 -5879.437)" fill="#f4f5fa"/>
                  <path id="Trazado_146277" data-name="Trazado 146277" d="M275.369,5884.146l.19.109a.279.279,0,0,0,.255,0l.7-.406a.078.078,0,0,0,0-.147l-.189-.11a.278.278,0,0,0-.255,0l-.7.406c-.07.041-.069.106,0,.147Z" transform="translate(-256.635 -5879.629)" fill="#f4f5fa"/>
                  <path id="Trazado_146278" data-name="Trazado 146278" d="M274.123,5884.87l.19.109a.282.282,0,0,0,.255,0l.7-.406c.071-.042.07-.107,0-.148l-.189-.11a.285.285,0,0,0-.255,0l-.7.407a.078.078,0,0,0,0,.147Z" transform="translate(-256.484 -5879.717)" fill="#f4f5fa"/>
                  <path id="Trazado_146279" data-name="Trazado 146279" d="M272.877,5885.594l.189.109a.28.28,0,0,0,.256,0l.7-.406a.078.078,0,0,0,0-.147l-.189-.11a.284.284,0,0,0-.256,0l-.7.406a.078.078,0,0,0,0,.147Z" transform="translate(-256.333 -5879.805)" fill="#f4f5fa"/>
                  <path id="Trazado_146280" data-name="Trazado 146280" d="M271.631,5886.318l.189.11a.281.281,0,0,0,.255,0l.7-.406a.078.078,0,0,0,0-.147l-.189-.11a.284.284,0,0,0-.256,0l-.7.406a.078.078,0,0,0,0,.148Z" transform="translate(-256.182 -5879.892)" fill="#f4f5fa"/>
                  <path id="Trazado_146281" data-name="Trazado 146281" d="M270.385,5887.042l.189.109a.282.282,0,0,0,.255,0l.7-.406a.078.078,0,0,0,0-.147l-.189-.11a.281.281,0,0,0-.256,0l-.7.406a.078.078,0,0,0,0,.148Z" transform="translate(-256.031 -5879.98)" fill="#f4f5fa"/>
                  <path id="Trazado_146282" data-name="Trazado 146282" d="M269.139,5887.768l.189.109a.285.285,0,0,0,.255,0l.7-.406a.078.078,0,0,0,0-.148l-.189-.109a.281.281,0,0,0-.256,0l-.7.406c-.069.041-.069.106,0,.148Z" transform="translate(-255.88 -5880.068)" fill="#f4f5fa"/>
                  <path id="Trazado_146283" data-name="Trazado 146283" d="M267.893,5888.491l.189.109a.274.274,0,0,0,.255,0l.7-.406c.07-.041.07-.106,0-.147l-.189-.109a.278.278,0,0,0-.256,0l-.7.406c-.069.041-.069.106,0,.147Z" transform="translate(-255.729 -5880.156)" fill="#f4f5fa"/>
                  <path id="Trazado_146284" data-name="Trazado 146284" d="M266.647,5889.215l.189.109a.279.279,0,0,0,.255,0l.7-.407c.069-.04.069-.106,0-.147l-.189-.109a.276.276,0,0,0-.255,0l-.7.406c-.069.04-.069.106,0,.147Z" transform="translate(-255.578 -5880.243)" fill="#f4f5fa"/>
                  <path id="Trazado_146285" data-name="Trazado 146285" d="M265.4,5889.939l.189.109a.284.284,0,0,0,.255,0l.7-.407c.07-.04.069-.106,0-.147l-.189-.109a.282.282,0,0,0-.255,0l-.7.406a.078.078,0,0,0,0,.147Z" transform="translate(-255.427 -5880.332)" fill="#f4f5fa"/>
                  <path id="Trazado_146286" data-name="Trazado 146286" d="M264.155,5890.664l.189.11a.285.285,0,0,0,.255,0l.7-.406a.078.078,0,0,0,0-.148l-.189-.11a.284.284,0,0,0-.256,0l-.7.406c-.069.04-.069.107,0,.148Z" transform="translate(-255.276 -5880.419)" fill="#f4f5fa"/>
                  <path id="Trazado_146287" data-name="Trazado 146287" d="M262.908,5891.387l.19.11a.279.279,0,0,0,.255,0l.7-.406a.078.078,0,0,0,0-.147l-.19-.109a.279.279,0,0,0-.255,0l-.7.405a.078.078,0,0,0,0,.147Z" transform="translate(-255.125 -5880.507)" fill="#f4f5fa"/>
                  <path id="Trazado_146288" data-name="Trazado 146288" d="M261.662,5892.111l.19.11a.282.282,0,0,0,.255,0l.7-.406a.078.078,0,0,0,0-.148l-.19-.109a.282.282,0,0,0-.255,0l-.7.407a.078.078,0,0,0,0,.147Z" transform="translate(-254.973 -5880.595)" fill="#f4f5fa"/>
                  <path id="Trazado_146289" data-name="Trazado 146289" d="M260.416,5892.836l.19.109a.282.282,0,0,0,.255,0l.7-.406c.07-.041.069-.106,0-.147l-.19-.109a.279.279,0,0,0-.255,0l-.7.406c-.07.041-.069.107,0,.148Z" transform="translate(-254.822 -5880.683)" fill="#f4f5fa"/>
                  <path id="Trazado_146290" data-name="Trazado 146290" d="M276.615,5883.408l.19.109a.276.276,0,0,0,.255,0l.868-.5c.069-.041.069-.106,0-.148l-.189-.109a.282.282,0,0,0-.255,0l-.868.5c-.07.041-.069.106,0,.147Z" transform="translate(-256.786 -5879.528)" fill="#f4f5fa"/>
                  <path id="Trazado_146291" data-name="Trazado 146291" d="M273.586,5882.217l.7.406a.285.285,0,0,0,.255,0l1.317-.766a.079.079,0,0,0,0-.148l-.7-.405a.285.285,0,0,0-.255,0l-1.317.766a.078.078,0,0,0,0,.147Z" transform="translate(-256.419 -5879.352)" fill="#f4f5fa"/>
                  <path id="Trazado_146292" data-name="Trazado 146292" d="M271.7,5881.806l.7.406a.279.279,0,0,0,.255,0l1.866-1.084c.069-.04.069-.106,0-.147l-.7-.405a.274.274,0,0,0-.254,0l-1.866,1.083a.078.078,0,0,0,0,.147Z" transform="translate(-256.191 -5879.263)" fill="#f4f5fa"/>
                  <path id="Trazado_146293" data-name="Trazado 146293" d="M270.43,5881.071l.7.406a.272.272,0,0,0,.254,0l1.866-1.083a.078.078,0,0,0,0-.147l-.7-.406a.279.279,0,0,0-.255,0l-1.865,1.084a.077.077,0,0,0,0,.146Z" transform="translate(-256.037 -5879.174)" fill="#f4f5fa"/>
                  <path id="Trazado_146294" data-name="Trazado 146294" d="M257.9,5891.33l.7.406a.279.279,0,0,0,.255,0l1.344-.78a.078.078,0,0,0,0-.147l-.7-.406a.277.277,0,0,0-.254,0l-1.344.78a.078.078,0,0,0,0,.147Z" transform="translate(-254.517 -5880.455)" fill="#f4f5fa"/>
                  <path id="Trazado_146295" data-name="Trazado 146295" d="M256.637,5890.559l.7.405a.279.279,0,0,0,.255,0l1.892-1.1a.078.078,0,0,0,0-.147l-.7-.406a.277.277,0,0,0-.254,0l-1.892,1.1a.078.078,0,0,0,0,.148Z" transform="translate(-254.364 -5880.323)" fill="#f4f5fa"/>
                  <path id="Trazado_146296" data-name="Trazado 146296" d="M255.973,5888.791l.19.11a.283.283,0,0,0,.254,0l.7-.406a.078.078,0,0,0,0-.147l-.19-.11a.283.283,0,0,0-.254,0l-.7.406a.078.078,0,0,0,0,.147Z" transform="translate(-254.284 -5880.192)" fill="#f4f5fa"/>
                  <path id="Trazado_146297" data-name="Trazado 146297" d="M255.389,5888.455l.189.108a.276.276,0,0,0,.255,0l.7-.4a.079.079,0,0,0,0-.149l-.19-.109a.281.281,0,0,0-.255,0l-.7.406c-.07.041-.069.106,0,.148Z" transform="translate(-254.213 -5880.151)" fill="#f4f5fa"/>
                  <path id="Trazado_146298" data-name="Trazado 146298" d="M260.487,5888.416l.7.406a.282.282,0,0,0,.255,0l.7-.406c.07-.04.069-.106,0-.147l-.7-.405a.277.277,0,0,0-.254,0l-.7.405a.078.078,0,0,0,0,.147Z" transform="translate(-254.831 -5880.147)" fill="#f4f5fa"/>
                  <path id="Trazado_146299" data-name="Trazado 146299" d="M259.241,5889.14l.7.406a.276.276,0,0,0,.255,0l.7-.4c.07-.042.069-.107,0-.149l-.7-.405a.277.277,0,0,0-.254,0l-.7.406c-.07.041-.07.106,0,.146Z" transform="translate(-254.68 -5880.235)" fill="#f4f5fa"/>
                  <path id="Trazado_146300" data-name="Trazado 146300" d="M259.216,5887.683l.7.406a.282.282,0,0,0,.255,0l.7-.406a.078.078,0,0,0,0-.147l-.7-.406a.277.277,0,0,0-.254,0l-.7.405a.078.078,0,0,0,0,.148Z" transform="translate(-254.677 -5880.058)" fill="#f4f5fa"/>
                  <path id="Trazado_146301" data-name="Trazado 146301" d="M257.97,5888.406l.7.407a.282.282,0,0,0,.255,0l.7-.406a.078.078,0,0,0,0-.148l-.7-.406a.279.279,0,0,0-.255,0l-.7.406a.078.078,0,0,0,0,.147Z" transform="translate(-254.526 -5880.146)" fill="#f4f5fa"/>
                  <path id="Trazado_146302" data-name="Trazado 146302" d="M256.723,5889.131l.7.406a.282.282,0,0,0,.255,0l.7-.406a.078.078,0,0,0,0-.147l-.7-.406a.279.279,0,0,0-.255,0l-.7.406c-.07.041-.069.106,0,.147Z" transform="translate(-254.375 -5880.233)" fill="#f4f5fa"/>
                  <path id="Trazado_146303" data-name="Trazado 146303" d="M255.365,5889.912l.7.406a.285.285,0,0,0,.255,0l.8-.464a.077.077,0,0,0,0-.146l-.7-.406a.279.279,0,0,0-.255,0l-.8.463a.078.078,0,0,0,0,.147Z" transform="translate(-254.21 -5880.321)" fill="#f4f5fa"/>
                  <path id="Trazado_146304" data-name="Trazado 146304" d="M262.979,5886.968l.7.406a.282.282,0,0,0,.255,0l.7-.406a.078.078,0,0,0,0-.147l-.7-.406a.283.283,0,0,0-.254,0l-.7.406a.078.078,0,0,0,0,.147Z" transform="translate(-255.133 -5879.971)" fill="#f4f5fa"/>
                  <path id="Trazado_146305" data-name="Trazado 146305" d="M261.733,5887.692l.7.406a.282.282,0,0,0,.255,0l.7-.406c.07-.04.069-.106,0-.148l-.7-.405a.277.277,0,0,0-.254,0l-.7.405a.078.078,0,0,0,0,.148Z" transform="translate(-254.982 -5880.059)" fill="#f4f5fa"/>
                  <path id="Trazado_146306" data-name="Trazado 146306" d="M261.708,5886.234l.7.406a.275.275,0,0,0,.254,0l.7-.406a.077.077,0,0,0,0-.146l-.7-.407a.283.283,0,0,0-.254,0l-.7.406a.078.078,0,0,0,0,.147Z" transform="translate(-254.979 -5879.883)" fill="#f4f5fa"/>
                  <path id="Trazado_146307" data-name="Trazado 146307" d="M260.462,5886.958l.7.406a.281.281,0,0,0,.255,0l.7-.406a.077.077,0,0,0,0-.146l-.7-.407a.28.28,0,0,0-.254,0l-.7.406a.078.078,0,0,0,0,.148Z" transform="translate(-254.828 -5879.97)" fill="#f4f5fa"/>
                  <path id="Trazado_146308" data-name="Trazado 146308" d="M265.471,5885.52l.7.406a.282.282,0,0,0,.255,0l.7-.406a.078.078,0,0,0,0-.147l-.7-.406a.274.274,0,0,0-.255,0l-.7.406c-.07.041-.07.106,0,.147Z" transform="translate(-255.435 -5879.796)" fill="#f4f5fa"/>
                  <path id="Trazado_146309" data-name="Trazado 146309" d="M264.224,5886.244l.7.406a.285.285,0,0,0,.255,0l.7-.406a.078.078,0,0,0,0-.147l-.7-.406a.275.275,0,0,0-.254,0l-.7.406c-.07.04-.07.106,0,.147Z" transform="translate(-255.284 -5879.883)" fill="#f4f5fa"/>
                  <path id="Trazado_146310" data-name="Trazado 146310" d="M264.2,5884.786l.7.406a.285.285,0,0,0,.255,0l.7-.406a.078.078,0,0,0,0-.147l-.7-.406a.285.285,0,0,0-.255,0l-.7.406a.078.078,0,0,0,0,.147Z" transform="translate(-255.281 -5879.707)" fill="#f4f5fa"/>
                  <path id="Trazado_146311" data-name="Trazado 146311" d="M262.953,5885.51l.7.406a.285.285,0,0,0,.255,0l.7-.406c.07-.041.069-.106,0-.147l-.7-.406a.283.283,0,0,0-.254,0l-.7.406a.078.078,0,0,0,0,.147Z" transform="translate(-255.13 -5879.795)" fill="#f4f5fa"/>
                  <path id="Trazado_146312" data-name="Trazado 146312" d="M267.963,5884.071l.7.406a.276.276,0,0,0,.255,0l.7-.406c.07-.041.069-.106,0-.147l-.7-.405a.276.276,0,0,0-.255,0l-.7.405a.078.078,0,0,0,0,.147Z" transform="translate(-255.737 -5879.62)" fill="#f4f5fa"/>
                  <path id="Trazado_146313" data-name="Trazado 146313" d="M266.717,5884.8l.7.406a.282.282,0,0,0,.255,0l.7-.406a.078.078,0,0,0,0-.148l-.7-.406a.276.276,0,0,0-.255,0l-.7.406c-.07.041-.07.106,0,.148Z" transform="translate(-255.586 -5879.708)" fill="#f4f5fa"/>
                  <path id="Trazado_146314" data-name="Trazado 146314" d="M266.692,5883.338l.7.406a.281.281,0,0,0,.255,0l.7-.405a.078.078,0,0,0,0-.147l-.7-.406a.282.282,0,0,0-.255,0l-.7.406a.078.078,0,0,0,0,.147Z" transform="translate(-255.583 -5879.531)" fill="#f4f5fa"/>
                  <path id="Trazado_146315" data-name="Trazado 146315" d="M265.446,5884.063l.7.406a.282.282,0,0,0,.255,0l.7-.406a.078.078,0,0,0,0-.148l-.7-.406a.278.278,0,0,0-.255,0l-.7.406a.078.078,0,0,0,0,.148Z" transform="translate(-255.432 -5879.619)" fill="#f4f5fa"/>
                  <path id="Trazado_146316" data-name="Trazado 146316" d="M270.455,5882.623l.7.406a.278.278,0,0,0,.256,0l.7-.406c.07-.041.069-.106,0-.147l-.7-.406a.282.282,0,0,0-.255,0l-.7.406c-.07.042-.071.107,0,.147Z" transform="translate(-256.04 -5879.444)" fill="#f4f5fa"/>
                  <path id="Trazado_146317" data-name="Trazado 146317" d="M269.209,5883.347l.7.406a.281.281,0,0,0,.256,0l.7-.406c.07-.041.069-.107,0-.148l-.7-.406a.282.282,0,0,0-.255,0l-.7.406a.078.078,0,0,0,0,.148Z" transform="translate(-255.888 -5879.532)" fill="#f4f5fa"/>
                  <path id="Trazado_146318" data-name="Trazado 146318" d="M269.184,5881.889l.7.407a.283.283,0,0,0,.256,0l.7-.406c.07-.041.069-.106,0-.146l-.7-.407a.282.282,0,0,0-.255,0l-.7.406a.078.078,0,0,0,0,.148Z" transform="translate(-255.885 -5879.355)" fill="#f4f5fa"/>
                  <path id="Trazado_146319" data-name="Trazado 146319" d="M267.938,5882.614l.7.406a.281.281,0,0,0,.255,0l.7-.406c.07-.041.069-.106,0-.146l-.7-.406a.276.276,0,0,0-.255,0l-.7.406c-.07.041-.069.106,0,.147Z" transform="translate(-255.734 -5879.443)" fill="#f4f5fa"/>
                  <path id="Trazado_146320" data-name="Trazado 146320" d="M257.88,5887.005l.7.406a.281.281,0,0,0,.256,0l.7-.406a.077.077,0,0,0,0-.146l-.7-.406a.276.276,0,0,0-.255,0l-.7.4a.079.079,0,0,0,0,.148Z" transform="translate(-254.515 -5879.975)" fill="#f4f5fa"/>
                  <path id="Trazado_146321" data-name="Trazado 146321" d="M256.635,5887.73l.7.405a.277.277,0,0,0,.254,0l.7-.405a.078.078,0,0,0,0-.148l-.7-.406a.276.276,0,0,0-.255,0l-.7.406c-.07.041-.069.107,0,.148Z" transform="translate(-254.364 -5880.064)" fill="#f4f5fa"/>
                  <path id="Trazado_146322" data-name="Trazado 146322" d="M254.112,5889.2l.7.406a.278.278,0,0,0,.255,0l.7-.406a.077.077,0,0,0,0-.146l-.7-.406a.279.279,0,0,0-.255,0l-.7.405a.078.078,0,0,0,0,.148Z" transform="translate(-254.058 -5880.241)" fill="#f4f5fa"/>
                </g>
              </g>
            </g>
            <g id="Grupo_66449" data-name="Grupo 66449" transform="translate(0 29.408)">
              <path id="Trazado_146323" data-name="Trazado 146323" d="M254.645,5899.922l4.724-2.728c.333-.191.291-.527-.093-.749l-6.4-3.7a1.447,1.447,0,0,0-1.3-.054l-4.724,2.728c-.332.193-.291.527.093.75l6.4,3.7A1.442,1.442,0,0,0,254.645,5899.922Z" transform="translate(-246.628 -5892.565)" fill="#57565e"/>
              <g id="Grupo_66448" data-name="Grupo 66448" transform="translate(3.99 1.75)">
                <path id="Trazado_146324" data-name="Trazado 146324" d="M253.835,5897.956s-2.164-1.272-2.352-1.415c-.441-.338-.344-.515-.16-.755a2.859,2.859,0,0,1,2.434-.74,3.931,3.931,0,0,1,2.367,1.844c.086.3,0,.519-.453.761A2.029,2.029,0,0,1,253.835,5897.956Z" transform="translate(-251.169 -5894.612)" fill="#c5c9d8"/>
                <path id="Trazado_146325" data-name="Trazado 146325" d="M253.835,5897.51s-2.164-1.271-2.352-1.415c-.441-.338-.344-.514-.16-.756a2.859,2.859,0,0,1,2.434-.739,3.934,3.934,0,0,1,2.367,1.843c.086.3,0,.52-.453.761A2.029,2.029,0,0,1,253.835,5897.51Z" transform="translate(-251.169 -5894.558)" fill="#e5e8f5"/>
              </g>
            </g>
            <g id="Grupo_66452" data-name="Grupo 66452" transform="translate(19.015)">
              <path id="Trazado_146326" data-name="Trazado 146326" d="M292.972,5889.668l-5.3-3.081a1.3,1.3,0,0,0-1.168,0l-.378.218-.375-.218a1.3,1.3,0,0,0-1.168,0l-14.777,8.5a.356.356,0,0,0,0,.675l5.3,3.081a.952.952,0,0,0,.673.069,7.888,7.888,0,0,0,2.1-.069l15.091-8.685A.261.261,0,0,0,292.972,5889.668Z" transform="translate(-268.423 -5862.416)" fill="#becdd4" style="mix-blend-mode: multiply;isolation: isolate"/>
              <g id="Grupo_66451" data-name="Grupo 66451">
                <path id="Trazado_146327" data-name="Trazado 146327" d="M289.618,5890.1l-3.468-10.2-2.878,1.663v.017l-.02,6.142a1.744,1.744,0,0,0-.2-.029,2.335,2.335,0,0,0-1.431.3l-4.575,2.5a.81.81,0,0,0-.279.263l-.134-.039,0,.5a.822.822,0,0,0,.417.72l4.754,2.744.035.021a2.734,2.734,0,0,0,.642.269l.027.009c.053.014.106.025.157.035a2.4,2.4,0,0,0,.367.05,2.717,2.717,0,0,0,1.373-.256l.083-.04c.041-.021.083-.044.125-.068l1.969-1.136,2.213-1.276a1.782,1.782,0,0,0,.388-.3,1.86,1.86,0,0,0,.344-.485,1.534,1.534,0,0,0,.09-.22,1.631,1.631,0,0,0,.061-.229A1.833,1.833,0,0,0,289.618,5890.1Z" transform="translate(-269.28 -5861.622)" fill="#c5c9d8"/>
                <path id="Trazado_146328" data-name="Trazado 146328" d="M292.763,5859.7l-.8-.555h0a.549.549,0,0,0-.552.069l-20.81,12.014a1.953,1.953,0,0,0-.884,1.34l-1.442,15.952a.668.668,0,0,0,.238.669h0l.764.527.866-1.107,19.3-11.144a2.763,2.763,0,0,0,1.25-1.892l1.352-14.956Z" transform="translate(-268.266 -5859.1)" fill="url(#linear-gradient-4)"/>
                <g id="Grupo_66450" data-name="Grupo 66450" transform="translate(0.781 0.538)">
                  <path id="Trazado_146329" data-name="Trazado 146329" d="M293.021,5860.239l-1.44,15.951a2.763,2.763,0,0,1-1.251,1.892l-20.142,11.631c-.629.364-1.09.1-1.027-.578l1.441-15.952a1.66,1.66,0,0,1,.261-.706,1.894,1.894,0,0,1,.623-.633l20.81-12.016a.527.527,0,0,1,.576-.053A.487.487,0,0,1,293.021,5860.239Z" transform="translate(-269.155 -5859.712)" fill="#c5c9d8"/>
                </g>
                <path id="Trazado_146330" data-name="Trazado 146330" d="M289.137,5889.641,286.218,5880l-2.8,1.614-.47,5.714a2.285,2.285,0,0,0-1.582.264l-4.328,2.5a.809.809,0,0,0,0,1.4l4.536,2.619a2.7,2.7,0,0,0,2.7,0l4.063-2.347A1.786,1.786,0,0,0,289.137,5889.641Z" transform="translate(-269.28 -5861.634)" fill="#e7e7f0"/>
                <path id="Trazado_146331" data-name="Trazado 146331" d="M283.381,5876.846c-5.533,3.68-9.639-.042-12.283-4.369a1.894,1.894,0,0,1,.623-.633l20.81-12.016a.527.527,0,0,1,.576-.053S293.85,5869.88,283.381,5876.846Z" transform="translate(-268.609 -5859.174)" fill="#d3d3e3"/>
                <path id="Trazado_146332" data-name="Trazado 146332" d="M290.654,5891.047a1.579,1.579,0,0,1-.061.229,1.538,1.538,0,0,1-.09.22,1.76,1.76,0,0,1-.344.485,1.8,1.8,0,0,1-.388.3l-2.214,1.276-1.969,1.136c-.041.024-.083.047-.125.068l-.083.04a2.974,2.974,0,0,1-1.368.252,2.789,2.789,0,0,1-.372-.046c-.051-.01-.1-.021-.156-.035a.2.2,0,0,1-.028-.008v-.377c.408.057.752-.126.752-.905v-.005l.038-12.1v-.017l2.878-1.663,3.468,10.2A1.824,1.824,0,0,1,290.654,5891.047Z" transform="translate(-270.107 -5861.622)" fill="#eff0f5"/>
                <path id="Trazado_146333" data-name="Trazado 146333" d="M284.077,5893.918v.919c0,.181-.223.342-.344.453l0,0a2.4,2.4,0,0,1-.367-.05c-.051-.01-.1-.021-.157-.036a.14.14,0,0,1-.027-.007h0a2.734,2.734,0,0,1-.642-.269l-.035-.021c-.1-.205-.257-.592.085-.423.9.444,1.043-.29,1.043-.29l.016-6.458v-2.188l.47-3.715Z" transform="translate(-269.976 -5861.856)" fill="#c5c9d8"/>
              </g>
            </g>
          </g>
          <path id="Trazado_146334" data-name="Trazado 146334" d="M234.072,5884.476c1.523,3.093,16.145,1.834,17.14,1.893s1.27.7,2.069,1.133a8.679,8.679,0,0,0,2.234.634s1.1-.317,1.621-.505a1.344,1.344,0,0,0,.716-.809l.538.2.864-.15.44-.638-1.184-.493-2.154-1.819a14.229,14.229,0,0,0,1.7,1.008c.374.12,1.275.084,1.294-.125s.013-.374-.836-.745-1.187-.85-1.929-.875-2.131.071-4.9.321-14.112-2.037-14.112-2.037-3.5.894-3.562,2.633A.979.979,0,0,0,234.072,5884.476Z" transform="translate(-234.01 -5861.812)" fill="#febfbf"/>
          <path id="Trazado_146335" data-name="Trazado 146335" d="M234.072,5884.839c1.523,3.093,16.145,1.834,17.14,1.893s1.27.705,2.069,1.134a8.657,8.657,0,0,0,2.234.634s1.1-.317,1.621-.506a1.342,1.342,0,0,0,.716-.808l-1.154-.819-.542-.276s.145.725.394.855,1.013.464,1.013.464l-.537.478s-1.354.441-1.64.47a11.637,11.637,0,0,1-2.733-1.169,3.887,3.887,0,0,0-1.149-.646c-1.17.132-8.934.15-10.6.079a25.931,25.931,0,0,1-4.874-.638,2.839,2.839,0,0,1-2.022-1.521A.978.978,0,0,0,234.072,5884.839Z" transform="translate(-234.01 -5862.175)" fill="#fa9698"/>
          <g id="Grupo_66454" data-name="Grupo 66454" transform="translate(24.445 17.136)">
            <path id="Trazado_146336" data-name="Trazado 146336" d="M261.879,5880.956a5.767,5.767,0,0,0,.352.838l0,.006a.017.017,0,0,1,.009.011,2.97,2.97,0,0,0,.708.575c.464.219,1.4,1.4,1.624,1.456s.439-.186.681-.125a.209.209,0,0,0,.141-.02l.005,0a.324.324,0,0,0,.057-.038s.008-.007.013-.012a.4.4,0,0,0,.04-.04c.016-.019.032-.037.047-.058a.007.007,0,0,0,0-.006.111.111,0,0,0,.024-.029,1.211,1.211,0,0,0,.1-.182l.157-.1.25-.159a.187.187,0,0,0,.03.03l0,0a.056.056,0,0,0,.022.019.437.437,0,0,0,.072.044.185.185,0,0,0,.04.015.182.182,0,0,0,.046.015.327.327,0,0,0,.077.009.31.31,0,0,0,.083,0,.711.711,0,0,0,.308-.143,9.041,9.041,0,0,0,1.1-1.144.512.512,0,0,0,.047-.6,3.488,3.488,0,0,1-.206-.461l0-.011c-.01-.021-.019-.038-.028-.058a5.609,5.609,0,0,0-.666-.892.4.4,0,0,1-.027-.033c-.286-.32-.595-.644-.787-.844-.03-.029-.06-.059-.083-.083-.007-.005-.011-.014-.018-.02a.532.532,0,0,1-.046-.049c-.011-.01-.018-.018-.025-.023l-.011-.011,0,0-.494.079a2.388,2.388,0,0,0-.692-.3c-.244-.041-.728.356-1.188.336h0c-.484.338-.959.283-1.209.558S261.664,5880.342,261.879,5880.956Z" transform="translate(-261.828 -5878.6)" fill="#febfbf"/>
            <path id="Trazado_146337" data-name="Trazado 146337" d="M264.9,5883.443a3.463,3.463,0,0,0-.354-1.064c-.243-.377-.793-1.046-.793-1.046s-.217-1.021-.074-1.188.515-.525.515-.525.743,1.054.833,1.208a4.106,4.106,0,0,1,.024,1.039,1.567,1.567,0,0,0-.083,1.018,6.929,6.929,0,0,1,.289.968Z" transform="translate(-262.047 -5878.724)" fill="#fa9698"/>
            <path id="Trazado_146338" data-name="Trazado 146338" d="M267.283,5882.583a6.026,6.026,0,0,1-.57.692.348.348,0,0,0,.138.081c.059-.179.815-.979.874-1.1a7.58,7.58,0,0,0,.517-1.167,4.233,4.233,0,0,0-.634-1.021.407.407,0,0,1-.027-.033,7.271,7.271,0,0,1,.419.934A5.768,5.768,0,0,1,267.283,5882.583Z" transform="translate(-262.42 -5878.774)" fill="#fa9698"/>
            <path id="Trazado_146339" data-name="Trazado 146339" d="M266.054,5883.592a1.194,1.194,0,0,0,.1-.182l.157-.1c-.1,0-.125-.074-.091-.176.044-.135.293-.944.293-.944a8.423,8.423,0,0,0,.471-1.368,2.87,2.87,0,0,0-1.291-1.549,5.291,5.291,0,0,1,.963,1.3,13.661,13.661,0,0,1-.59,2.4C266.057,5883.031,266.142,5883.44,266.054,5883.592Z" transform="translate(-262.296 -5878.682)" fill="#fa9698"/>
          </g>
        </g>
        <g id="Grupo_66457" data-name="Grupo 66457" transform="translate(49.842 54.296)">
          <g id="Grupo_66456" data-name="Grupo 66456">
            <path id="Trazado_146340" data-name="Trazado 146340" d="M231.117,5921.9l-11.994-6.924,11.994-6.925L235.1,5921.9Z" transform="translate(-219.123 -5899.448)" fill="#becdd4" style="mix-blend-mode: multiply;isolation: isolate"/>
            <path id="Trazado_146341" data-name="Trazado 146341" d="M237.3,5921.667l11.994-6.924v-8.6l-11.994,6.924Z" transform="translate(-221.327 -5899.217)" fill="#ebe7e3"/>
            <path id="Trazado_146342" data-name="Trazado 146342" d="M235.649,5921.667l-11.994-6.924v-8.6l11.994,6.924Z" transform="translate(-219.673 -5899.217)" fill="#ded8d1"/>
            <path id="Trazado_146343" data-name="Trazado 146343" d="M223.655,5906.142l11.994,6.924-6.472-3.462Z" transform="translate(-219.673 -5899.217)" fill="#a0978f"/>
            <path id="Trazado_146344" data-name="Trazado 146344" d="M235.649,5912.111l-11.994-6.924,11.994-6.925,11.994,6.925Z" transform="translate(-219.673 -5898.262)" fill="#fcfbfa"/>
            <path id="Trazado_146345" data-name="Trazado 146345" d="M231.175,5915.92l-1.927-1.113v-5.437l1.927,1.113Z" transform="translate(-220.351 -5899.608)" fill="#9c754e"/>
            <path id="Trazado_146346" data-name="Trazado 146346" d="M231.175,5909.528l11.994-6.925-1.927-1.113-11.994,6.925Z" transform="translate(-220.351 -5898.653)" fill="#f1d6bc"/>
          </g>
          <path id="Trazado_146347" data-name="Trazado 146347" d="M230.408,5909.086l11.994-6.925-.133-.077-11.994,6.925Z" transform="translate(-220.475 -5898.725)" fill="#d1a986"/>
        </g>
      </g>
    </g>
  </g>
</svg>
