<svg xmlns="http://www.w3.org/2000/svg" width="295" height="217" viewBox="0 0 295 217">
  <g id="Grupo_1179112" data-name="Grupo 1179112" transform="translate(-600 -948)">
    <g id="Grupo_1177866" data-name="Grupo 1177866">
      <rect id="Rectángulo_454903" data-name="Rectángulo 454903" width="295" height="217" rx="20" transform="translate(600 948)" fill="#1e3a8a"/>
      <g id="Grupo_1177862" data-name="Grupo 1177862" transform="translate(660.309 953.333)">
        <g id="Grupo_1177863" data-name="Grupo 1177863">
          <path id="Trazado_996629" data-name="Trazado 996629" d="M211.662,105.833A105.831,105.831,0,1,1,105.831,0,105.832,105.832,0,0,1,211.662,105.833" fill="#bae4f8"/>
          <path id="Trazado_996630" data-name="Trazado 996630" d="M489.337,514.5l-4.454-1.559a43.708,43.708,0,0,0,.518-6.922l4.632-.88-2.975-15.711-4.643.882a44.272,44.272,0,0,0-3.008-6.249l3.581-3.089-10.421-12.117L469,471.938a43.567,43.567,0,0,0-5.73-3.906l1.556-4.461L449.748,458.3l-1.556,4.46a43.507,43.507,0,0,0-6.912-.519L440.4,457.6l-15.688,2.98.88,4.65a44.137,44.137,0,0,0-6.239,3.012l-3.084-3.586-12.1,10.436,3.077,3.578a43.64,43.64,0,0,0-3.9,5.739l-4.454-1.558h0l-5.267,15.1,4.454,1.559a43.717,43.717,0,0,0-.518,6.922l-4.632.88,2.975,15.711,4.643-.882a44.286,44.286,0,0,0,3.008,6.249l-3.581,3.089,10.42,12.117h0l3.572-3.082a43.575,43.575,0,0,0,5.73,3.905l-1.556,4.461,15.074,5.275,1.556-4.461a43.514,43.514,0,0,0,6.912.519l.878,4.639h0l15.688-2.98-.88-4.65a44.157,44.157,0,0,0,6.239-3.013l3.084,3.586,12.1-10.436-3.077-3.578a43.677,43.677,0,0,0,3.9-5.739l4.454,1.559Zm-22.466,1.552a27.225,27.225,0,1,1-17.255-35.845,27.307,27.307,0,0,1,17.255,35.845" transform="translate(-347.483 -404.671)" fill="#edf8fd"/>
          <path id="Trazado_996631" data-name="Trazado 996631" d="M544.616,644.694a35.1,35.1,0,1,1,6.471-69.6.116.116,0,0,1-.043.227,34.862,34.862,0,1,0,22.484,53.7.116.116,0,0,1,.192.129,35.008,35.008,0,0,1-29.1,15.546" transform="translate(-450.61 -508.04)" fill="#bae4f8"/>
          <g id="Grupo_1177865" data-name="Grupo 1177865">
            <path id="Trazado_996632" data-name="Trazado 996632" d="M1423.609,1055.718v-5.6l-1.092-1.093v-4.418l-2.555-2.559v4.658l-1.54,1.542-2.457-2.46,2.228-2.231-3.931-3.937-8.517,8.529h-2.621l-3.769,3.774c-.059,4.47-.12,11.316.057,11.316h6.551v-2.274h4.892v3.324h2.358v3.587l3.1,3.106,8.823-8.836v-6.43Z" transform="translate(-1237.447 -919.374)" fill="#53bced"/>
            <path id="Trazado_996633" data-name="Trazado 996633" d="M160.831,364.1c0-.787-.524-11.548,0-11.548H154.28v-6.036h8.91l3.276,3.281v-6.43l6.748-6.758h6.748v-4.79h8.91V317.644l-3.407-3.412-7.075,7.086-3.145-3.149,7.075-7.086,1.7,1.706,3.931-3.937,4.979,4.986,2.752-2.756v-6.036H182.844l3.145-3.149H167.645l-5.176-5.183h-7.141L139.769,312.3h6.387l4.275-4.281,4.373,4.38-4.586,4.593v7.742l-5.388,5.4v21.11Z" transform="translate(-123.603 -262.395)" fill="#53bced"/>
            <path id="Trazado_996634" data-name="Trazado 996634" d="M330.479,879.279h9.04l12.615,12.634,3.186,1.208,2.083,7.293-3.832,3.838v9.254s-3.044,2.263-3.044,3.049v21.058l3.438,3.444V944.5L338.6,929.119V916.947l-4.622-4.629v-6.59l-6.862-6.872V885.694Z" transform="translate(-289.285 -777.577)" fill="#53bced"/>
            <path id="Trazado_996635" data-name="Trazado 996635" d="M687.482,364.781v16.336s11.792-1.575,11.792,0,7.075,7.086,7.075,7.086v15.943c0,.787,4.964,4.972,4.964,4.972v7.625h6.631l6.341-6.351V399.618l4.214-4.22v-9.951l6.318-6.327-3.055-3.059h-4.581l-3.863-3.869V360.647l5.862,5.871-3.571,3.577,3.243,3.248,6.092-6.1v-2.657h5.6l5.11,5.117v4.133l4.225,4.232,8.942-8.955,2.653,2.657v7.775h4.815l-2.358-2.362v-3.346l2.616,2.62,2,2.006,5.11-5.117-4.429-4.436,7.665-7.676-7.068-7.079,11.748-11.765-8.156-8.168,7.883-7.895v5l6.939,6.949v-6.359l-4.037-4.043,8.186-8.2h-4.482v-3.5H753.319l-6.289-6.3-7.665,7.676,1.965,1.968-7.37,7.381-2.948-2.952-4.324,4.33-6.584-6.594L709.2,332.6l2.948,2.952v2.657l2.014-2.018v-4.084h3.783v1.454l-6.218,6.227-2.483-2.487-7.207,7.217v2.209l-1.5,1.5h-3.5v1.914l-1.878,1.881,2.806,2.81h3.177v-3.248l2.588-2.592,2.227,2.231s1.146-2.46,1.8-1.8,2.817,2.493,2.817,2.821.328,2.034,0,2.034,1.31-1.312,1.31-1.312V350.8l-2.031-2.034.819-.82,2.228,2.231V352.9l1.753,1.755v-1.558l1.531-1.534,3.669-3.674v-2.206h2.383v2.493a5.452,5.452,0,0,1,1.638,0l1.671,1.673v1.673h-3.7v-1.312h-2.555L716.9,352.6v1.476l1.621,1.624h3.718v2.969h-6.879l-1.933-1.936-2.784,2.788-2.457-2.46v-2.2H703.3l-2.26,2.264h-4.881l-6.1,6.107v1.471Z" transform="translate(-607.965 -274.026)" fill="#53bced"/>
          </g>
          <path id="Trazado_996636" data-name="Trazado 996636" d="M1015.2,187.941a9.733,9.733,0,0,1,9.726,9.74c0,5.379-9.726,17.25-9.726,17.25s-9.726-11.871-9.726-17.25a9.733,9.733,0,0,1,9.726-9.74" transform="translate(-889.179 -166.203)" fill="#1e3a8a"/>
          <path id="Trazado_996637" data-name="Trazado 996637" d="M1045.336,221.2a6.655,6.655,0,1,1-6.655-6.665,6.66,6.66,0,0,1,6.655,6.665" transform="translate(-912.658 -189.717)" fill="#a5b0d0"/>
          <path id="Trazado_996638" data-name="Trazado 996638" d="M188.448,102.826a21.322,21.322,0,0,0-21.306,21.338c0,11.785,21.306,37.79,21.306,37.79s21.306-26.005,21.306-37.79a21.322,21.322,0,0,0-21.306-21.338m0,35.938a14.6,14.6,0,1,1,14.578-14.6,14.589,14.589,0,0,1-14.578,14.6" transform="translate(-147.81 -90.933)" fill="#fe8938"/>
          <path id="Trazado_996639" data-name="Trazado 996639" d="M1388.692,2.015a21.322,21.322,0,0,0-21.306,21.338c0,11.785,21.306,37.79,21.306,37.79S1410,35.137,1410,23.353a21.322,21.322,0,0,0-21.306-21.338m0,35.938a14.6,14.6,0,1,1,14.579-14.6,14.589,14.589,0,0,1-14.579,14.6" transform="translate(-1209.227 -1.782)" fill="#fe8938"/>
          <path id="Trazado_996640" data-name="Trazado 996640" d="M1138.334,502.072h-.84a.116.116,0,1,1,0-.231h.609v-.548a.116.116,0,1,1,.231,0Zm-2.228,0h-1.388a.116.116,0,0,1,0-.231h1.388a.116.116,0,1,1,0,.231m-2.776,0h-1.388a.116.116,0,0,1,0-.231h1.388a.116.116,0,0,1,0,.231m-2.776,0h-1.388a.116.116,0,0,1,0-.231h1.388a.116.116,0,0,1,0,.231m-2.776,0h-1.388a.116.116,0,1,1,0-.231h1.388a.116.116,0,0,1,0,.231m-2.776,0h-1.388a.116.116,0,1,1,0-.231H1125a.116.116,0,1,1,0,.231m-2.776,0h-1.388a.116.116,0,1,1,0-.231h1.388a.116.116,0,0,1,0,.231m-2.776,0h-1.388a.116.116,0,1,1,0-.231h1.388a.116.116,0,1,1,0,.231m-2.776,0h-1.388a.116.116,0,0,1,0-.231h1.388a.116.116,0,1,1,0,.231m-2.776,0h-1.388a.116.116,0,0,1,0-.231h1.388a.116.116,0,0,1,0,.231m-2.776,0h-1.388a.116.116,0,0,1,0-.231h1.388a.116.116,0,0,1,0,.231m-2.776,0h-1.388a.116.116,0,1,1,0-.231h1.388a.116.116,0,1,1,0,.231m-2.776,0h-1.388a.116.116,0,1,1,0-.231h1.388a.116.116,0,1,1,0,.231m-2.776,0h-1.388a.116.116,0,1,1,0-.231h1.388a.116.116,0,1,1,0,.231m-2.776,0h-1.388a.116.116,0,0,1,0-.231h1.388a.116.116,0,1,1,0,.231m-2.776,0h-1.388a.116.116,0,0,1,0-.231h1.388a.116.116,0,1,1,0,.231m-2.776,0h-1.388a.116.116,0,0,1,0-.231h1.388a.116.116,0,0,1,0,.231m-2.776,0H1090.3a.116.116,0,1,1,0-.231h1.388a.116.116,0,1,1,0,.231m-2.776,0h-1.388a.116.116,0,1,1,0-.231h1.388a.116.116,0,0,1,0,.231m-2.776,0h-1.388a.116.116,0,1,1,0-.231h1.388a.116.116,0,1,1,0,.231m-1.871-.9a.116.116,0,0,1-.116-.116v-1.388a.116.116,0,0,1,.231,0v1.388a.116.116,0,0,1-.116.116m53.951-1.147a.116.116,0,0,1-.116-.116v-1.388a.116.116,0,1,1,.231,0V499.9a.115.115,0,0,1-.116.116m-53.951-1.629a.116.116,0,0,1-.116-.116v-1.388a.116.116,0,0,1,.231,0v1.388a.116.116,0,0,1-.116.116m53.951-1.147a.116.116,0,0,1-.116-.116v-1.388a.116.116,0,1,1,.231,0v1.388a.116.116,0,0,1-.116.116m-53.951-1.629a.116.116,0,0,1-.116-.116v-1.388a.116.116,0,0,1,.231,0V495.5a.116.116,0,0,1-.116.116m53.951-1.147a.116.116,0,0,1-.116-.116v-1.388a.116.116,0,1,1,.231,0v1.388a.116.116,0,0,1-.116.116m-53.951-1.629a.116.116,0,0,1-.116-.116v-1.388a.116.116,0,0,1,.231,0v1.388a.116.116,0,0,1-.116.116m53.951-1.147a.116.116,0,0,1-.116-.116v-.1a.116.116,0,1,1,.231,0v.1a.115.115,0,0,1-.116.116m-53.951-1.629a.116.116,0,0,1-.116-.116V488.56a.116.116,0,0,1,.231,0v1.388a.116.116,0,0,1-.116.116m0-2.776a.116.116,0,0,1-.116-.116v-1.388a.116.116,0,0,1,.231,0v1.388a.116.116,0,0,1-.116.116" transform="translate(-958.754 -429.493)" fill="#363e44"/>
          <path id="Trazado_996641" data-name="Trazado 996641" d="M386.544,498.917H385.2a.116.116,0,1,1,0-.231h1.108v-.048a.116.116,0,1,1,.231,0Zm-2.728,0h-1.388a.116.116,0,0,1,0-.231h1.388a.116.116,0,1,1,0,.231m-2.776,0h-1.388a.116.116,0,1,1,0-.231h1.388a.116.116,0,1,1,0,.231m-2.776,0h-1.388a.116.116,0,1,1,0-.231h1.388a.116.116,0,0,1,0,.231m-2.776,0H374.1a.116.116,0,1,1,0-.231h1.388a.116.116,0,1,1,0,.231m-2.776,0h-1.388a.116.116,0,1,1,0-.231h1.388a.116.116,0,1,1,0,.231m-2.776,0h-1.388a.116.116,0,0,1,0-.231h1.388a.116.116,0,1,1,0,.231m-2.776,0h-1.388a.116.116,0,1,1,0-.231h1.388a.116.116,0,1,1,0,.231m-2.776,0H363a.116.116,0,1,1,0-.231h1.388a.116.116,0,1,1,0,.231m-2.776,0h-1.388a.116.116,0,1,1,0-.231h1.388a.116.116,0,1,1,0,.231m-2.776,0h-1.388a.116.116,0,1,1,0-.231h1.388a.116.116,0,1,1,0,.231m-2.776,0h-1.388a.116.116,0,1,1,0-.231h1.388a.116.116,0,1,1,0,.231m-2.776,0h-1.388a.116.116,0,1,1,0-.231h1.388a.116.116,0,1,1,0,.231m-2.776,0h-.159v-1.461a.116.116,0,1,1,.231,0v1.255a.116.116,0,0,1-.073.206m35.923-1.552a.116.116,0,0,1-.116-.116v-1.388a.116.116,0,1,1,.231,0v1.388a.116.116,0,0,1-.116.116m-35.966-1.181a.116.116,0,0,1-.116-.116v-1.388a.116.116,0,1,1,.231,0v1.388a.116.116,0,0,1-.116.116m35.966-1.6a.116.116,0,0,1-.116-.116v-1.388a.116.116,0,1,1,.231,0v1.388a.116.116,0,0,1-.116.116m-35.966-1.181a.116.116,0,0,1-.116-.116V491.9a.116.116,0,1,1,.231,0v1.388a.116.116,0,0,1-.116.116m35.966-1.6a.116.116,0,0,1-.116-.116V490.31a.116.116,0,0,1,.231,0V491.7a.116.116,0,0,1-.116.116m-35.966-1.181a.116.116,0,0,1-.116-.116v-1.388a.116.116,0,0,1,.231,0v1.388a.116.116,0,0,1-.116.116m35.966-1.6a.116.116,0,0,1-.116-.116v-1.388a.116.116,0,1,1,.231,0v1.388a.116.116,0,0,1-.116.116m-35.966-1.181a.116.116,0,0,1-.116-.116v-1.388a.116.116,0,1,1,.231,0v1.388a.116.116,0,0,1-.116.116m35.966-1.6a.116.116,0,0,1-.116-.116v-1.388a.116.116,0,1,1,.231,0v1.388a.116.116,0,0,1-.116.116m-35.966-1.181a.116.116,0,0,1-.116-.116v-1.388a.116.116,0,1,1,.231,0v1.388a.116.116,0,0,1-.116.116m35.966-1.6a.116.116,0,0,1-.116-.116v-1.388a.116.116,0,1,1,.231,0v1.388a.116.116,0,0,1-.116.116M350.462,482.3a.116.116,0,0,1-.116-.116V480.8a.116.116,0,1,1,.231,0v1.388a.116.116,0,0,1-.116.116m35.966-1.6a.116.116,0,0,1-.116-.116v-1.388a.116.116,0,1,1,.231,0v1.388a.116.116,0,0,1-.116.116m0-2.776a.116.116,0,0,1-.116-.116V476.43a.116.116,0,0,1,.231,0v1.388a.116.116,0,0,1-.116.116m0-2.776a.116.116,0,0,1-.116-.116v-1.388a.116.116,0,1,1,.231,0v1.388a.116.116,0,0,1-.116.116m0-2.776a.116.116,0,0,1-.116-.116v-1.388a.116.116,0,1,1,.231,0v1.388a.116.116,0,0,1-.116.116m0-2.776a.116.116,0,0,1-.116-.116V468.1a.116.116,0,1,1,.231,0v1.388a.116.116,0,0,1-.116.116m0-2.776a.116.116,0,0,1-.116-.116v-1.388a.116.116,0,1,1,.231,0v1.388a.116.116,0,0,1-.116.116m0-2.776a.116.116,0,0,1-.116-.116V462.55a.116.116,0,0,1,.231,0v1.388a.116.116,0,0,1-.116.116m48.912-2.443h-1.388a.116.116,0,0,1,0-.231h1.388a.116.116,0,1,1,0,.231m-2.776,0h-1.388a.116.116,0,0,1,0-.231h1.388a.116.116,0,0,1,0,.231m-2.776,0H428.4a.116.116,0,1,1,0-.231h1.388a.116.116,0,0,1,0,.231m-2.776,0h-1.388a.116.116,0,0,1,0-.231h1.388a.116.116,0,1,1,0,.231m-2.776,0h-1.388a.116.116,0,0,1,0-.231h1.388a.116.116,0,0,1,0,.231m-2.776,0h-1.388a.116.116,0,0,1,0-.231h1.388a.116.116,0,1,1,0,.231m-2.776,0H417.3a.116.116,0,0,1,0-.231h1.388a.116.116,0,0,1,0,.231m-2.776,0H414.52a.116.116,0,1,1,0-.231h1.388a.116.116,0,0,1,0,.231m-2.776,0h-1.388a.116.116,0,0,1,0-.231h1.388a.116.116,0,0,1,0,.231m-2.776,0h-1.388a.116.116,0,0,1,0-.231h1.388a.116.116,0,0,1,0,.231m-2.776,0h-1.388a.116.116,0,0,1,0-.231h1.388a.116.116,0,1,1,0,.231m-2.776,0h-1.388a.116.116,0,0,1,0-.231H404.8a.116.116,0,0,1,0,.231m-2.776,0h-1.388a.116.116,0,1,1,0-.231h1.388a.116.116,0,0,1,0,.231m-2.776,0h-1.388a.116.116,0,0,1,0-.231h1.388a.116.116,0,1,1,0,.231m-2.776,0h-1.388a.116.116,0,0,1,0-.231h1.388a.116.116,0,0,1,0,.231m-2.776,0h-1.388a.116.116,0,0,1,0-.231H393.7a.116.116,0,0,1,0,.231m-2.776,0h-1.388a.116.116,0,0,1,0-.231h1.388a.116.116,0,0,1,0,.231m-2.776,0h-1.388a.116.116,0,1,1,0-.231h1.388a.116.116,0,1,1,0,.231" transform="translate(-309.823 -408.014)" fill="#363e44"/>
          <path id="Trazado_996642" data-name="Trazado 996642" d="M938.889,1316.854a15.994,15.994,0,1,0,15.993-16.017,16.005,16.005,0,0,0-15.993,16.017" transform="translate(-830.292 -1150.375)" fill="#fff"/>
          <path id="Trazado_996643" data-name="Trazado 996643" d="M991.907,1329.632a16.133,16.133,0,1,1,16.109-16.133,16.139,16.139,0,0,1-16.109,16.133m0-32.035a15.9,15.9,0,1,0,15.878,15.9,15.908,15.908,0,0,0-15.878-15.9" transform="translate(-862.932 -1147.306)" fill="#1e3a8a"/>
          <path id="Trazado_996644" data-name="Trazado 996644" d="M1036.725,1404.969H1015.2a.116.116,0,0,1-.116-.116v-14.148a.116.116,0,1,1,.231,0v14.032h21.41a.116.116,0,1,1,0,.231" transform="translate(-897.673 -1229.747)" fill="#122253"/>
          <path id="Trazado_996645" data-name="Trazado 996645" d="M1134.615,1418.927a.116.116,0,0,1-.06-.215l2.557-1.531a.116.116,0,0,1,.119.2l-2.557,1.53a.115.115,0,0,1-.059.016" transform="translate(-1003.277 -1253.249)" fill="#122253"/>
          <path id="Trazado_996646" data-name="Trazado 996646" d="M1094.131,1386.705a.115.115,0,0,1-.1-.052l-3.464-5.282a.116.116,0,1,1,.193-.127l3.464,5.282a.116.116,0,0,1-.1.179" transform="translate(-964.412 -1221.436)" fill="#122253"/>
          <path id="Trazado_996647" data-name="Trazado 996647" d="M1054.352,1381.528a.116.116,0,0,1-.071-.207l2.691-2.082a.116.116,0,1,1,.142.183l-2.691,2.082a.114.114,0,0,1-.071.024" transform="translate(-932.298 -1219.688)" fill="#122253"/>
          <path id="Trazado_996648" data-name="Trazado 996648" d="M1040.315,1395.735a1.11,1.11,0,1,1-1.11-1.112,1.111,1.111,0,0,1,1.11,1.112" transform="translate(-918.024 -1233.314)" fill="#1e3a8a"/>
          <path id="Trazado_996649" data-name="Trazado 996649" d="M1079,1365.839a1.11,1.11,0,1,1-1.11-1.111,1.111,1.111,0,0,1,1.11,1.111" transform="translate(-952.234 -1206.877)" fill="#1e3a8a"/>
          <path id="Trazado_996650" data-name="Trazado 996650" d="M1119.673,1427.494a1.11,1.11,0,1,1-1.11-1.111,1.111,1.111,0,0,1,1.11,1.111" transform="translate(-988.203 -1261.401)" fill="#1e3a8a"/>
          <path id="Trazado_996651" data-name="Trazado 996651" d="M1158.664,1405.082a1.11,1.11,0,1,1-1.11-1.111,1.111,1.111,0,0,1,1.11,1.111" transform="translate(-1022.685 -1241.581)" fill="#1e3a8a"/>
          <rect id="Rectángulo_454905" data-name="Rectángulo 454905" width="2.76" height="7.579" transform="translate(119.87 165.298)" fill="#a5b0d0"/>
          <rect id="Rectángulo_454906" data-name="Rectángulo 454906" width="2.76" height="9.089" transform="translate(124.424 163.788)" fill="#a5b0d0"/>
          <rect id="Rectángulo_454907" data-name="Rectángulo 454907" width="2.76" height="4.898" transform="translate(128.979 167.979)" fill="#a5b0d0"/>
          <rect id="Rectángulo_454908" data-name="Rectángulo 454908" width="2.76" height="6.304" transform="translate(133.534 166.572)" fill="#a5b0d0"/>
          <rect id="Rectángulo_454909" data-name="Rectángulo 454909" width="63.899" height="47.382" transform="translate(142.551 164.188)" fill="#efbc73"/>
          <path id="Trazado_996652" data-name="Trazado 996652" d="M1368.257,1484.415a.116.116,0,0,1-.116-.116v-41.88a.116.116,0,0,1,.231,0v41.88a.116.116,0,0,1-.116.116" transform="translate(-1209.895 -1275.479)" fill="#e0aa63"/>
          <path id="Trazado_996653" data-name="Trazado 996653" d="M1614.934,1591.592a.116.116,0,0,1-.116-.116v-27.862a.116.116,0,1,1,.231,0v27.862a.116.116,0,0,1-.116.116" transform="translate(-1428.04 -1382.656)" fill="#e0aa63"/>
          <path id="Trazado_996654" data-name="Trazado 996654" d="M1574.691,1438.635a.116.116,0,0,1-.082-.034l-3.2-3.2-2.669,2.672a.12.12,0,0,1-.164,0l-2.755-2.759-3.163,3.167a.116.116,0,0,1-.2-.082v-14.337a.116.116,0,0,1,.231,0v14.057l3.047-3.052a.12.12,0,0,1,.164,0l2.755,2.759,2.668-2.672a.119.119,0,0,1,.164,0l3.082,3.086v-14.179a.116.116,0,0,1,.231,0v14.458a.116.116,0,0,1-.071.107.114.114,0,0,1-.044.009" transform="translate(-1381.742 -1259.244)" fill="#f7f1eb"/>
          <rect id="Rectángulo_454910" data-name="Rectángulo 454910" width="41.284" height="30.613" transform="translate(159.941 133.562)" fill="#e0aa63"/>
          <path id="Trazado_996655" data-name="Trazado 996655" d="M1470.226,1196.385a.116.116,0,0,1-.116-.116v-27.058a.116.116,0,1,1,.231,0v27.058a.115.115,0,0,1-.116.116" transform="translate(-1300.07 -1033.873)" fill="#efbc73"/>
          <path id="Trazado_996656" data-name="Trazado 996656" d="M1629.6,1265.632a.116.116,0,0,1-.116-.116v-18a.116.116,0,1,1,.231,0v18a.116.116,0,0,1-.116.116" transform="translate(-1441.011 -1103.119)" fill="#efbc73"/>
          <path id="Trazado_996657" data-name="Trazado 996657" d="M1603.6,1166.808a.116.116,0,0,1-.082-.034l-2.037-2.04-1.7,1.7a.119.119,0,0,1-.164,0l-1.751-1.754-2.014,2.018a.116.116,0,0,1-.2-.082v-9.263a.116.116,0,1,1,.231,0v8.983l1.9-1.9a.116.116,0,0,1,.164,0l1.751,1.754,1.7-1.7a.116.116,0,0,1,.164,0l1.921,1.924v-9.062a.116.116,0,1,1,.231,0v9.341a.116.116,0,0,1-.071.107.112.112,0,0,1-.044.009" transform="translate(-1411.098 -1023.383)" fill="#f7f1eb"/>
          <path id="Trazado_996658" data-name="Trazado 996658" d="M1381.582,1109.505a9.039,9.039,0,0,0-9.032,9.046c0,5,9.032,16.02,9.032,16.02s9.032-11.024,9.032-16.02a9.039,9.039,0,0,0-9.032-9.046m0,15.235a6.189,6.189,0,1,1,6.18-6.189,6.185,6.185,0,0,1-6.18,6.189" transform="translate(-1213.794 -981.174)" fill="#985221"/>
          <path id="Trazado_996659" data-name="Trazado 996659" d="M1323.124,744.157h-60.282a.116.116,0,0,1-.116-.116V710.189a.116.116,0,0,1,.116-.116h60.282a.116.116,0,0,1,.116.116v33.853a.116.116,0,0,1-.116.116m-60.166-.231h60.05V710.3h-60.05Z" transform="translate(-1116.674 -627.942)" fill="#8b865c"/>
          <rect id="Rectángulo_454911" data-name="Rectángulo 454911" width="24.392" height="4.443" transform="translate(173.883 85.812)" fill="#e8ebf3"/>
          <rect id="Rectángulo_454912" data-name="Rectángulo 454912" width="9.793" height="4.443" transform="translate(173.883 92.954)" fill="#e8ebf3"/>
          <rect id="Rectángulo_454913" data-name="Rectángulo 454913" width="19.586" height="4.443" transform="translate(173.883 100.095)" fill="#e8ebf3"/>
          <rect id="Rectángulo_454914" data-name="Rectángulo 454914" width="28.78" height="4.443" transform="translate(173.883 107.237)" fill="#e8ebf3"/>
          <path id="Trazado_996660" data-name="Trazado 996660" d="M1321.03,767.31h-8.217l.393-6.178,2.05-2.348-1.751-2.348.259-4.078h6.316l.259,4.078-1.751,2.348,2.05,2.348Z" transform="translate(-1160.967 -665.337)" fill="#1e3a8a"/>
          <path id="Trazado_996661" data-name="Trazado 996661" d="M1316.208,792.307h7.432l-.3-4.7h-6.835Z" transform="translate(-1163.969 -696.513)" fill="#122253"/>
          <path id="Trazado_996662" data-name="Trazado 996662" d="M1387.426,820.619v-5.3l-3.176,5.3v-5.3l-3.176,5.3v5.061h9.529V815.318Z" transform="translate(-1221.331 -721.014)" fill="#122253"/>
          <rect id="Rectángulo_454915" data-name="Rectángulo 454915" width="17.425" height="8.528" transform="translate(151.846 101.875)" fill="#1e3a8a"/>
          <rect id="Rectángulo_454916" data-name="Rectángulo 454916" width="3.953" height="2" transform="translate(163.85 103.394)" fill="#122253"/>
          <rect id="Rectángulo_454917" data-name="Rectángulo 454917" width="3.953" height="2" transform="translate(163.85 106.884)" fill="#122253"/>
          <rect id="Rectángulo_454918" data-name="Rectángulo 454918" width="3.953" height="2" transform="translate(158.414 103.394)" fill="#122253"/>
          <rect id="Rectángulo_454919" data-name="Rectángulo 454919" width="3.953" height="2" transform="translate(158.414 106.884)" fill="#122253"/>
          <rect id="Rectángulo_454920" data-name="Rectángulo 454920" width="3.953" height="2" transform="translate(152.978 103.394)" fill="#122253"/>
          <rect id="Rectángulo_454921" data-name="Rectángulo 454921" width="3.953" height="2" transform="translate(152.978 106.884)" fill="#122253"/>
          <path id="Trazado_996663" data-name="Trazado 996663" d="M621.123,113H575.672a.116.116,0,0,1-.116-.116V88.835a.116.116,0,0,1,.116-.116h45.452a.116.116,0,0,1,.116.116v24.047a.116.116,0,0,1-.116.116m-45.336-.231h45.221V88.95H575.787Z" transform="translate(-508.984 -78.457)" fill="#1e3a8a"/>
          <rect id="Rectángulo_454922" data-name="Rectángulo 454922" width="13.813" height="3.156" transform="translate(93.33 12.911)" fill="#e8ebf3"/>
          <rect id="Rectángulo_454923" data-name="Rectángulo 454923" width="5.546" height="3.156" transform="translate(93.33 17.983)" fill="#e8ebf3"/>
          <rect id="Rectángulo_454924" data-name="Rectángulo 454924" width="11.091" height="3.156" transform="translate(93.33 23.056)" fill="#e8ebf3"/>
          <rect id="Rectángulo_454925" data-name="Rectángulo 454925" width="16.298" height="3.156" transform="translate(93.33 28.129)" fill="#e8ebf3"/>
          <path id="Trazado_996664" data-name="Trazado 996664" d="M617.486,139.05v-1.4l-.266.887-8.753-1.969v-1.782a3.891,3.891,0,0,0-1.863-3.339l-.445-.268-.444.268a3.891,3.891,0,0,0-1.863,3.339v1.782l-8.753,1.969-.266-.887v1.4h9.081a18.382,18.382,0,0,0,.813,4.1l-2.883.734v.409h3.433l.352.555h1.063l.352-.555h3.433v-.409l-2.883-.734a18.389,18.389,0,0,0,.813-4.1Z" transform="translate(-526.032 -116.008)" fill="#a5b0d0"/>
          <path id="Trazado_996665" data-name="Trazado 996665" d="M628.108,180.581a.706.706,0,1,1-.706-.725.715.715,0,0,1,.706.725" transform="translate(-554.21 -159.053)" fill="#e8ebf3"/>
          <rect id="Rectángulo_454926" data-name="Rectángulo 454926" width="0.229" height="1.244" transform="translate(74.985 22.53)" fill="#fff"/>
          <rect id="Rectángulo_454927" data-name="Rectángulo 454927" width="0.457" height="1.08" transform="translate(74.437 23.258)" fill="#363e44"/>
          <rect id="Rectángulo_454928" data-name="Rectángulo 454928" width="0.457" height="1.08" transform="translate(75.305 23.258)" fill="#363e44"/>
          <path id="Trazado_996666" data-name="Trazado 996666" d="M746.618,180.581a.706.706,0,1,0,.706-.725.715.715,0,0,0-.706.725" transform="translate(-660.26 -159.053)" fill="#e8ebf3"/>
          <rect id="Rectángulo_454929" data-name="Rectángulo 454929" width="0.229" height="1.244" transform="translate(85.042 22.53)" fill="#fff"/>
          <rect id="Rectángulo_454930" data-name="Rectángulo 454930" width="0.457" height="1.08" transform="translate(85.362 23.258)" fill="#363e44"/>
          <rect id="Rectángulo_454931" data-name="Rectángulo 454931" width="0.457" height="1.08" transform="translate(84.493 23.258)" fill="#363e44"/>
          <rect id="Rectángulo_454932" data-name="Rectángulo 454932" width="0.229" height="1.244" transform="translate(80.014 18.727)" fill="#fff"/>
          <rect id="Rectángulo_454933" data-name="Rectángulo 454933" width="0.457" height="1.08" transform="translate(79.465 19.455)" fill="#363e44"/>
          <rect id="Rectángulo_454934" data-name="Rectángulo 454934" width="0.457" height="1.08" transform="translate(80.333 19.455)" fill="#363e44"/>
          <path id="Trazado_996679" data-name="Trazado 996679" d="M219.944,693.664a.116.116,0,0,1-.113-.094,9.031,9.031,0,0,1,.145-4.049.116.116,0,0,1,.223.06,8.8,8.8,0,0,0-.141,3.946.116.116,0,0,1-.092.135l-.022,0" transform="translate(-194.259 -609.692)" fill="#363e44"/>
          <path id="Trazado_996680" data-name="Trazado 996680" d="M194.56,686.746a.116.116,0,0,1-.113-.094,9.033,9.033,0,0,1,.145-4.049.116.116,0,1,1,.223.06,8.8,8.8,0,0,0-.141,3.946.116.116,0,0,1-.092.135l-.022,0" transform="translate(-171.812 -603.574)" fill="#363e44"/>
          <path id="Trazado_996681" data-name="Trazado 996681" d="M163.933,696.04a.116.116,0,0,1-.114-.094,9.034,9.034,0,0,1,.145-4.049.116.116,0,0,1,.223.06,8.8,8.8,0,0,0-.141,3.946.116.116,0,0,1-.092.135l-.022,0" transform="translate(-144.727 -611.793)" fill="#363e44"/>
          <g id="Grupo_1177864" data-name="Grupo 1177864">
            <path id="Trazado_996667" data-name="Trazado 996667" d="M195.776,1333.621H97.544V1268.7h39.243a58.989,58.989,0,0,1,58.989,58.989Z" transform="translate(-124.261 -1121.954)" fill="#a5b0d0"/>
            <path id="Trazado_996668" data-name="Trazado 996668" d="M357.668,1551.046l-9.549-36.485-48.425,1.921-2.15,34.565h27.874l.479-9.116,6.753,9.116Z" transform="translate(-301.128 -1339.38)" fill="#363e44"/>
            <path id="Trazado_996669" data-name="Trazado 996669" d="M507.387,1697.188a.116.116,0,0,1-.1-.053l-4.5-6.962a.116.116,0,0,1,.194-.126l4.5,6.962a.115.115,0,0,1-.1.178" transform="translate(-482.618 -1494.521)" fill="#e6d0be"/>
            <path id="Trazado_996670" data-name="Trazado 996670" d="M579.891,817.791a2.183,2.183,0,0,1-.759-.144,4.02,4.02,0,0,1-2.1-2.128c-.786-1.714-.456-3.554.736-4.1a1.914,1.914,0,0,1,1.489-.014,4.021,4.021,0,0,1,2.1,2.128c.786,1.714.456,3.554-.736,4.1a1.735,1.735,0,0,1-.73.157m-1.39-6.3a1.505,1.505,0,0,0-.634.136c-1.076.495-1.355,2.2-.622,3.8a3.787,3.787,0,0,0,1.968,2.007,1.688,1.688,0,0,0,1.312-.007c1.076-.495,1.355-2.2.622-3.8a3.787,3.787,0,0,0-1.968-2.007,1.955,1.955,0,0,0-.678-.129" transform="translate(-547.914 -717.426)" fill="#363e44"/>
            <path id="Trazado_996671" data-name="Trazado 996671" d="M442.944,770.66c-2.143-4.685-3.805-7.227-6.753-8.308-3.961-1.453-7.849,1.093-8.25,1.365a9.15,9.15,0,0,0-4.33,6.857,12.218,12.218,0,0,0,5.454,11.066l.842,9.658a5.63,5.63,0,0,0,6.1,5.124l.7-.061a5.633,5.633,0,0,0,5.116-6.1l-.563-6.452c1.95-.336,3.454-1.042,3.99-2.093.96-1.882.221-5.534-2.3-11.051" transform="translate(-412.593 -673.78)" fill="#9e6c5a"/>
            <path id="Trazado_996672" data-name="Trazado 996672" d="M538.751,835.424a.116.116,0,0,1-.034-.226l8.908-2.754a.116.116,0,0,1,.068.221l-8.908,2.754a.114.114,0,0,1-.034.005" transform="translate(-514.333 -736.155)" fill="#363e44"/>
            <path id="Trazado_996673" data-name="Trazado 996673" d="M574.079,931.049a.116.116,0,0,1-.115-.1l-.269-2.357a.116.116,0,1,1,.23-.026l.269,2.357a.115.115,0,0,1-.1.128h-.013" transform="translate(-545.338 -821.071)" fill="#363e44"/>
            <path id="Trazado_996674" data-name="Trazado 996674" d="M525.509,876.527a.115.115,0,0,1-.078-.031c-.583-.536-.946-.884-1.21-1.139-.129-.124-.236-.226-.334-.318a.116.116,0,1,1,.158-.169c.1.092.206.2.336.32.264.253.625.6,1.207,1.135a.116.116,0,0,1-.078.2" transform="translate(-501.258 -773.651)" fill="#363e44"/>
            <path id="Trazado_996675" data-name="Trazado 996675" d="M418.791,751.892c-3.549-2.941-11.686-.356-14.526,4.177-3.84,6.131-.928,14.656,4.317,17.188,1.759.849,4.66,1.825,7.5.186,1.66-.957,1.1-3.479.948-4.085a3.338,3.338,0,0,1-3.039-3.02,3.285,3.285,0,0,1,2.356-3.366,3.147,3.147,0,0,1,2.037.2c2.327-4.788,2.933-9.187.4-11.282" transform="translate(-393.952 -663.817)" fill="#363e44"/>
            <path id="Trazado_996676" data-name="Trazado 996676" d="M46.09,998.06c-9.153-3.479-36.181-11.9-32.526-23.225,3.023-9.368,28.984,0,38.3,2.861L46.09,998.06" transform="translate(-49.697 -858.486)" fill="#9e6c5a"/>
            <path id="Trazado_996677" data-name="Trazado 996677" d="M20.3,694.725h0c8.205-15.8,14.329-26.85,16.086-30.336a7.194,7.194,0,0,0,.7-1.928c.681-3.409-1.7-5.158-2.621-9.069-1.04-4.438.883-7.527-.154-8.054-.721-.366-1.774.594-3.034,3.177h0c.732-2.073,1.6-4.927.458-5.329-1.347-.393-2.763,2.84-3.524,4.838.921-2.419.689-3.981-.005-4.045-1.093-.1-2.243,1.607-3.337,4.85h0c.131-2.451-.2-3.065-.83-2.972-1.146.169-2,2.853-2.383,5.34a14.555,14.555,0,0,0,.628,6.58h0c-6.892,10.468-8.7,12.922-14.081,21.5-6.115,9.744,3.282,19.616,12.1,15.449" transform="translate(-43.518 -568.763)" fill="#9e6c5a"/>
            <path id="Trazado_996678" data-name="Trazado 996678" d="M250.253,730.343c2.329-3.86,3.986-4.758,4.586-4.369,1.008.655.366,4.766-2.329,10.837-.79-1.745-1.467-4.722-2.257-6.468" transform="translate(-259.307 -641.931)" fill="#9e6c5a"/>
            <path id="Trazado_996682" data-name="Trazado 996682" d="M833.413,1077.5c20.049,4.27,35.793,8.6,34.073,15.038-3.64,13.636-18.764,6.628-32.208,6.508-.506-5.53-1.4-14.842-1.866-21.546" transform="translate(-775.016 -952.87)" fill="#9e6c5a"/>
            <path id="Trazado_996683" data-name="Trazado 996683" d="M898,874.423s-5.062-13.637-7.236-21.055c-2.283-7.791-4.522-19.626-2.865-19.918.944-.167,1.582,1.384,3.014,5.643a1.978,1.978,0,0,1,1.615-1.051,1.9,1.9,0,0,1,1.789,1.128c.04-.1.507-1.183,1.4-1.345a2.09,2.09,0,0,1,2.2.95,2.171,2.171,0,0,1,1.461-1.256,1.947,1.947,0,0,1,2.156,1.271c.458,1.654,1.726,6.594,2.636,8.923,1.79,4.583,10.327,20,11.166,27.313-6.2-1.408-17.332-.6-17.332-.6" transform="translate(-822.694 -737.039)" fill="#9e6c5a"/>
            <path id="Trazado_996684" data-name="Trazado 996684" d="M993.47,896.924a.116.116,0,0,1-.017-.23l1.433-.209a.116.116,0,1,1,.033.229l-1.433.209h-.017" transform="translate(-916.458 -792.792)" fill="#363e44"/>
            <path id="Trazado_996685" data-name="Trazado 996685" d="M961.984,901.8a.116.116,0,0,1-.013-.231l1.627-.185a.116.116,0,1,1,.026.23L962,901.8h-.013" transform="translate(-888.614 -797.125)" fill="#363e44"/>
            <path id="Trazado_996686" data-name="Trazado 996686" d="M931.414,904.824a.116.116,0,0,1-.017-.23c.269-.04.512-.073.756-.107s.48-.067.745-.105a.116.116,0,1,1,.033.229c-.266.039-.507.072-.747.106s-.485.067-.754.107h-.017" transform="translate(-861.58 -799.775)" fill="#363e44"/>
            <path id="Trazado_996687" data-name="Trazado 996687" d="M906.471,909.9a.116.116,0,0,1-.025-.229l1.4-.312a.116.116,0,0,1,.05.226l-1.4.312-.025,0" transform="translate(-839.521 -804.175)" fill="#363e44"/>
            <path id="Trazado_996688" data-name="Trazado 996688" d="M199.717,1020.16l-13.2-4.859,5.289-25.632s41.235-2.683,73.74,9.984l-.677,24.895-10.688.894,7.183,31.977c-26.094,3.333-47.282,2.947-65.092,0Z" transform="translate(-202.941 -874.989)" fill="#38ce65"/>
            <path id="Trazado_996689" data-name="Trazado 996689" d="M308.065,1179.537h-.018a.116.116,0,0,1-.1-.132l1.311-8.426a.116.116,0,0,1,.229.035l-1.311,8.425a.116.116,0,0,1-.114.1" transform="translate(-310.33 -1035.45)" fill="#363e44"/>
          </g>
        </g>
      </g>
    </g>
  </g>
</svg>
