<svg xmlns="http://www.w3.org/2000/svg" xmlns:xlink="http://www.w3.org/1999/xlink" width="161.3" height="157.036" viewBox="0 0 161.3 157.036">
  <defs>
    <clipPath id="clip-path">
      <rect id="Rectángulo_455354" data-name="Rectángulo 455354" width="147.127" height="138.063" fill="none"/>
    </clipPath>
    <clipPath id="clip-path-2">
      <rect id="Rectángulo_455342" data-name="Rectángulo 455342" width="147.127" height="138.062" fill="none"/>
    </clipPath>
    <clipPath id="clip-path-3">
      <rect id="Rectángulo_455341" data-name="Rectángulo 455341" width="147.127" height="84.96" fill="none"/>
    </clipPath>
    <clipPath id="clip-path-5">
      <rect id="Rectángulo_455343" data-name="Rectángulo 455343" width="5.284" height="6.789" fill="none"/>
    </clipPath>
    <clipPath id="clip-path-6">
      <rect id="Rectángulo_455344" data-name="Rectángulo 455344" width="3.68" height="8.854" fill="none"/>
    </clipPath>
    <clipPath id="clip-path-7">
      <rect id="Rectángulo_455345" data-name="Rectángulo 455345" width="4.364" height="3.837" fill="none"/>
    </clipPath>
    <clipPath id="clip-path-9">
      <rect id="Rectángulo_455347" data-name="Rectángulo 455347" width="3.679" height="8.854" fill="none"/>
    </clipPath>
    <clipPath id="clip-path-10">
      <rect id="Rectángulo_455348" data-name="Rectángulo 455348" width="17.343" height="46.668" fill="none"/>
    </clipPath>
    <clipPath id="clip-path-11">
      <rect id="Rectángulo_455349" data-name="Rectángulo 455349" width="18.471" height="20.296" fill="none"/>
    </clipPath>
    <clipPath id="clip-path-12">
      <rect id="Rectángulo_455350" data-name="Rectángulo 455350" width="2.452" height="3.867" fill="none"/>
    </clipPath>
    <clipPath id="clip-path-13">
      <rect id="Rectángulo_455351" data-name="Rectángulo 455351" width="16.688" height="20.351" fill="none"/>
    </clipPath>
    <clipPath id="clip-path-14">
      <rect id="Rectángulo_455352" data-name="Rectángulo 455352" width="7.003" height="5.174" fill="none"/>
    </clipPath>
  </defs>
  <g id="Grupo_1179127" data-name="Grupo 1179127" transform="translate(-879.827 -8711.964)">
    <g id="Grupo_1177116" data-name="Grupo 1177116" transform="translate(577.565 4295.54)">
      <rect id="Rectángulo_401003" data-name="Rectángulo 401003" width="144.479" height="152.843" rx="29" transform="translate(303.762 4417.924)" fill="none" stroke="#fe8938" stroke-miterlimit="10" stroke-width="3"/>
      <g id="Grupo_1179044" data-name="Grupo 1179044" transform="translate(316.435 4435.398)">
        <g id="Grupo_1179043" data-name="Grupo 1179043" clip-path="url(#clip-path)">
          <g id="Grupo_1179010" data-name="Grupo 1179010" transform="translate(0 0)">
            <g id="Grupo_1179009" data-name="Grupo 1179009" clip-path="url(#clip-path-2)">
              <g id="Grupo_1179008" data-name="Grupo 1179008" transform="translate(0 53.102)" style="mix-blend-mode: multiply;isolation: isolate">
                <g id="Grupo_1179007" data-name="Grupo 1179007">
                  <g id="Grupo_1179006" data-name="Grupo 1179006" clip-path="url(#clip-path-3)">
                    <path id="Trazado_1001559" data-name="Trazado 1001559" d="M37.162,39.961l109.965,63.5L109.964,124.92,0,61.417Z" transform="translate(0 -39.961)" fill="#bfb5bf"/>
                  </g>
                </g>
              </g>
            </g>
          </g>
          <path id="Trazado_1001560" data-name="Trazado 1001560" d="M16.162,63.467l4.983-3.846L38.824,72.054l42.505,29.037,5.535-3.326,14.75,9.365L94.787,88.174,16.374,49.241Z" transform="translate(5.315 16.194)" fill="#0f0e1b"/>
          <g id="Grupo_1179042" data-name="Grupo 1179042" transform="translate(0 0)">
            <g id="Grupo_1179041" data-name="Grupo 1179041" clip-path="url(#clip-path-2)">
              <path id="Trazado_1001561" data-name="Trazado 1001561" d="M86.636,96.113A16.763,16.763,0,0,0,79.03,82.994c-2.094-1.208-3.991-1.332-5.366-.555h0l-.031.017-4.8,2.775v3.721l10.788,14.809,4.5-2.618a3.512,3.512,0,0,0,.6-.351h0c1.187-.853,1.91-2.461,1.91-4.679" transform="translate(22.635 26.951)" fill="#23222d"/>
              <path id="Trazado_1001562" data-name="Trazado 1001562" d="M37.22,67.56a16.758,16.758,0,0,0-7.605-13.119c-2.222-1.282-4.22-1.343-5.61-.4L19.25,56.79l3.22,5.25a17.893,17.893,0,0,0,5.152,8.4l2.833,4.619,4.177-2.436a3.617,3.617,0,0,0,.756-.441A5.57,5.57,0,0,0,37.22,67.56" transform="translate(6.331 17.56)" fill="#23222d"/>
              <path id="Trazado_1001563" data-name="Trazado 1001563" d="M133.474,92.627V106.06l-5.737-3.312a20.911,20.911,0,0,0-9.007-11.626c-5.415-3.125-6.157.513-9.2,5.937a12.372,12.372,0,0,0-.6,1.515L63.325,72.243q.014-.875.015-1.85c0-6.214-4.391-17.148-9.8-20.275s-9.806-.622-9.806,5.591q0,.985.035,1.879l-14.542-8.4V.895l88.857,51.3,5.24,28.091Z" transform="translate(9.61 0.294)" fill="#e4dfd9"/>
              <path id="Trazado_1001564" data-name="Trazado 1001564" d="M106.461,84.3c0,4.82-3.4,6.761-7.605,4.336a16.76,16.76,0,0,1-7.606-13.119c0-4.82,3.406-6.761,7.606-4.336A16.758,16.758,0,0,1,106.461,84.3" transform="translate(30.009 23.065)" fill="#2d2c37"/>
              <path id="Trazado_1001565" data-name="Trazado 1001565" d="M57.006,56.576c0,4.82-3.4,6.761-7.605,4.336s-7.606-11.661-7.606-16.481S45.2,37.67,49.4,40.1s7.605,11.661,7.605,16.481" transform="translate(13.745 12.843)" fill="#2d2c37"/>
              <path id="Trazado_1001566" data-name="Trazado 1001566" d="M54.109,54.5c0,3.349-2.365,4.7-5.284,3.013s-5.285-9.127-5.285-12.475,2.365-4.7,5.285-3.014,5.284,9.128,5.284,12.477" transform="translate(14.319 13.581)" fill="#504f58"/>
              <path id="Trazado_1001567" data-name="Trazado 1001567" d="M53.49,54.052c0,3.034-2.143,4.256-4.788,2.729s-4.788-8.586-4.788-11.62,2.143-4.256,4.788-2.729,4.788,8.586,4.788,11.62" transform="translate(14.442 13.738)" fill="#c2c7d6"/>
              <path id="Trazado_1001568" data-name="Trazado 1001568" d="M52.89,53.622c0,2.729-1.928,3.828-4.307,2.456s-4.307-8.061-4.307-10.79,1.928-3.828,4.307-2.456,4.307,8.061,4.307,10.79" transform="translate(14.561 13.891)" fill="#a5acc2"/>
              <path id="Trazado_1001569" data-name="Trazado 1001569" d="M50.814,48.77c0,1.674-1.184,5.71-2.643,4.868s-2.643-6.244-2.643-7.919,1.184-2.348,2.643-1.506a5.822,5.822,0,0,1,2.643,4.557" transform="translate(14.973 14.421)" fill="#cfd9e7"/>
              <path id="Trazado_1001570" data-name="Trazado 1001570" d="M103.564,82.218c0,3.349-2.365,4.7-5.285,3.013A11.644,11.644,0,0,1,93,76.116c0-3.349,2.365-4.7,5.284-3.013a11.642,11.642,0,0,1,5.285,9.115" transform="translate(30.583 23.803)" fill="#504f58"/>
              <path id="Trazado_1001571" data-name="Trazado 1001571" d="M102.945,81.773c0,3.034-2.143,4.256-4.788,2.729a10.549,10.549,0,0,1-4.788-8.258c0-3.035,2.143-4.256,4.788-2.729a10.547,10.547,0,0,1,4.788,8.258" transform="translate(30.706 23.96)" fill="#b5bbcd"/>
              <path id="Trazado_1001572" data-name="Trazado 1001572" d="M101.552,80.775c0,2.327-1.644,3.264-3.672,2.093a8.089,8.089,0,0,1-3.672-6.333c0-2.326,1.644-3.264,3.672-2.093a8.091,8.091,0,0,1,3.672,6.333" transform="translate(30.982 24.316)" fill="#cfd9e7"/>
              <path id="Trazado_1001573" data-name="Trazado 1001573" d="M99.472,79.281c0,1.269-.9,1.781-2,1.143a4.415,4.415,0,0,1-2-3.456c0-1.269.9-1.781,2-1.141a4.416,4.416,0,0,1,2,3.455" transform="translate(31.395 24.846)" fill="#e1e7ef"/>
              <path id="Trazado_1001574" data-name="Trazado 1001574" d="M98.33,78.462c0,.69-.488.967-1.088.621A2.4,2.4,0,0,1,96.153,77.2c0-.69.488-.967,1.088-.619a2.4,2.4,0,0,1,1.088,1.876" transform="translate(31.621 25.137)" fill="#c2c7d6"/>
              <path id="Trazado_1001575" data-name="Trazado 1001575" d="M118.923,86.306,86.881,100.355l-5.358-1.836-3.347-1.933,34.161-19.723,5.253,3.032,1.333,1.961Z" transform="translate(25.709 25.277)" fill="#6b6164"/>
              <path id="Trazado_1001576" data-name="Trazado 1001576" d="M117.49,50.539,29.955,0,29.221,1.19l88.859,51.3Z" transform="translate(9.61 0)" fill="#f3f1ee"/>
              <path id="Trazado_1001577" data-name="Trazado 1001577" d="M93.705,62.147,30.244,25.507v-1.84L93.705,60.306Z" transform="translate(9.946 7.783)" fill="#98979d"/>
              <path id="Trazado_1001578" data-name="Trazado 1001578" d="M78.644,77.877V33.543l18.3,10.563V73.615L90.923,84.966Z" transform="translate(25.863 11.031)" fill="#cdc6bc"/>
              <path id="Trazado_1001579" data-name="Trazado 1001579" d="M97.409,44.378,93.285,42v23.34l6.109,3.527,1.726-2.811Z" transform="translate(30.678 13.811)" fill="#2d2c37"/>
              <path id="Trazado_1001580" data-name="Trazado 1001580" d="M93.7,64.789V42.711l3.149,1.818L100.4,65.4l-1.475,2.4Z" transform="translate(30.814 14.046)" fill="#7572a4"/>
              <path id="Trazado_1001581" data-name="Trazado 1001581" d="M92.89,75.553,78,66.957v1.3l14.89,8.6Z" transform="translate(25.651 22.02)" fill="#9b897f"/>
              <path id="Trazado_1001582" data-name="Trazado 1001582" d="M30.512,37.009,25.3,34v1.3l5.216,3.011Z" transform="translate(8.319 11.181)" fill="#9b897f"/>
              <path id="Trazado_1001583" data-name="Trazado 1001583" d="M106.979,74.536,104.8,73.275V70.769l2.183,1.261Z" transform="translate(34.464 23.273)" fill="#504f58"/>
              <path id="Trazado_1001584" data-name="Trazado 1001584" d="M106.748,74.137l-1.813-1.047V71.01l1.813,1.046Z" transform="translate(34.51 23.353)" fill="#ff9a2e"/>
              <path id="Trazado_1001585" data-name="Trazado 1001585" d="M33.359,30.432c0,.775-.547,1.087-1.223.7a2.694,2.694,0,0,1-1.221-2.108c0-.775.547-1.086,1.221-.7a2.692,2.692,0,0,1,1.223,2.108" transform="translate(10.167 9.26)" fill="#504f58"/>
              <path id="Trazado_1001586" data-name="Trazado 1001586" d="M33.042,30.2c0,.614-.435.86-.969.551a2.129,2.129,0,0,1-.969-1.669c0-.614.433-.86.969-.551a2.132,2.132,0,0,1,.969,1.669" transform="translate(10.229 9.34)" fill="#ff512e"/>
              <path id="Trazado_1001587" data-name="Trazado 1001587" d="M32.767,33.6c0,.526-.372.739-.831.473a1.83,1.83,0,0,1-.831-1.433c0-.526.372-.738.831-.473a1.83,1.83,0,0,1,.831,1.433" transform="translate(10.23 10.54)" fill="#f9f1ec"/>
              <path id="Trazado_1001588" data-name="Trazado 1001588" d="M32.61,33.485c0,.446-.315.626-.7.4a1.55,1.55,0,0,1-.7-1.215c0-.446.315-.626.7-.4a1.55,1.55,0,0,1,.7,1.215" transform="translate(10.261 10.581)" fill="#ff9a2e"/>
              <path id="Trazado_1001589" data-name="Trazado 1001589" d="M58.255,51.65c0,.526-.372.739-.831.473a1.83,1.83,0,0,1-.831-1.433c0-.526.372-4.1.831-3.835s.831,4.268.831,4.795" transform="translate(18.612 15.405)" fill="#f9f1ec"/>
              <path id="Trazado_1001590" data-name="Trazado 1001590" d="M58.1,50.73c0,.447-.315.626-.7.4a1.55,1.55,0,0,1-.7-1.215c0-.446.315-.626.7-.4a1.55,1.55,0,0,1,.7,1.215" transform="translate(18.643 16.252)" fill="#ff9a2e"/>
              <path id="Trazado_1001591" data-name="Trazado 1001591" d="M76.989,59.129c0,.526-.372.738-.831.473a1.83,1.83,0,0,1-.831-1.433c0-.526.372-.738.831-.473a1.83,1.83,0,0,1,.831,1.433" transform="translate(24.773 18.937)" fill="#f9f1ec"/>
              <path id="Trazado_1001592" data-name="Trazado 1001592" d="M76.832,59.016c0,.446-.315.626-.7.4a1.55,1.55,0,0,1-.7-1.215c0-.446.315-.626.7-.4a1.55,1.55,0,0,1,.7,1.215" transform="translate(24.804 18.977)" fill="#ff9a2e"/>
              <path id="Trazado_1001593" data-name="Trazado 1001593" d="M33.947,5.465l-2.841-1.64V2.563L33.947,4.2Z" transform="translate(10.229 0.843)" fill="#cdc6bc"/>
              <path id="Trazado_1001594" data-name="Trazado 1001594" d="M33.633,5.034,31.3,3.684V2.751L33.633,4.1Z" transform="translate(10.292 0.905)" fill="#ff9a2e"/>
              <path id="Trazado_1001595" data-name="Trazado 1001595" d="M60.59,20.848l-2.841-1.64V17.945l2.841,1.64Z" transform="translate(18.992 5.902)" fill="#cdc6bc"/>
              <path id="Trazado_1001596" data-name="Trazado 1001596" d="M60.276,20.417l-2.337-1.35v-.933l2.337,1.35Z" transform="translate(19.054 5.964)" fill="#ff9a2e"/>
              <path id="Trazado_1001597" data-name="Trazado 1001597" d="M94.184,40.243,91.343,38.6V37.341l2.841,1.641Z" transform="translate(30.039 12.28)" fill="#cdc6bc"/>
              <path id="Trazado_1001598" data-name="Trazado 1001598" d="M93.87,39.812l-2.337-1.35v-.933l2.337,1.35Z" transform="translate(30.102 12.342)" fill="#ff9a2e"/>
              <path id="Trazado_1001599" data-name="Trazado 1001599" d="M53.608,37.389a2.852,2.852,0,0,1-1.41-.42L34.3,26.635a7.937,7.937,0,0,1-3.325-6.324V10.1a3.1,3.1,0,0,1,1.245-2.824,2.322,2.322,0,0,1,2.373.167L52.492,17.777A7.938,7.938,0,0,1,55.815,24.1v10.21a3.109,3.109,0,0,1-1.245,2.825,1.9,1.9,0,0,1-.962.252m-1.116-.93a1.768,1.768,0,0,0,1.785.167,2.565,2.565,0,0,0,.951-2.315V24.1a7.3,7.3,0,0,0-3.03-5.815L34.3,7.954a1.767,1.767,0,0,0-1.785-.166,2.558,2.558,0,0,0-.951,2.314v10.21a7.3,7.3,0,0,0,3.03,5.815Z" transform="translate(10.188 2.31)" fill="#cdc6bc"/>
              <path id="Trazado_1001600" data-name="Trazado 1001600" d="M74.562,49.487a2.833,2.833,0,0,1-1.41-.421l-17.9-10.332a7.942,7.942,0,0,1-3.323-6.324V22.2a3.11,3.11,0,0,1,1.244-2.824,2.327,2.327,0,0,1,2.373.167l17.9,10.332A7.941,7.941,0,0,1,76.768,36.2V46.409a3.1,3.1,0,0,1-1.244,2.824,1.907,1.907,0,0,1-.962.254M54.143,19.712a1.317,1.317,0,0,0-.67.173A2.564,2.564,0,0,0,52.52,22.2V32.409a7.294,7.294,0,0,0,3.03,5.814l17.9,10.332a1.772,1.772,0,0,0,1.785.169,2.569,2.569,0,0,0,.95-2.315V36.2a7.291,7.291,0,0,0-3.028-5.814l-17.9-10.332a2.267,2.267,0,0,0-1.114-.34" transform="translate(17.079 6.289)" fill="#cdc6bc"/>
              <path id="Trazado_1001601" data-name="Trazado 1001601" d="M91.825,63.894l-9.835-9.04a4.518,4.518,0,0,1-1.886-3.6V37.862c0-1.389.844-2.028,1.886-1.426l9.835,5.678a4.516,4.516,0,0,1,1.886,3.6v16.75c0,1.389-.844,2.027-1.886,1.426" transform="translate(26.343 11.908)" fill="#2d2c37"/>
              <path id="Trazado_1001602" data-name="Trazado 1001602" d="M80.517,51.5V37.9c0-.985.6-1.437,1.337-1.01l9.835,5.678a3.2,3.2,0,0,1,1.336,2.553V62.08c0,.985-.6,1.437-1.336,1.01l-9.835-9.04A3.2,3.2,0,0,1,80.517,51.5" transform="translate(26.479 12.08)" fill="#7572a4"/>
              <path id="Trazado_1001603" data-name="Trazado 1001603" d="M85.021,70.312l-3.031-1.75c-1.042-.6-1.887-5.577-1.887-6.966V53.07c0-1.389.845-2.027,1.887-1.426l3.031,1.75A4.518,4.518,0,0,1,86.907,57V68.886c0,1.389-.844,2.027-1.886,1.426" transform="translate(26.343 16.91)" fill="#2d2c37"/>
              <path id="Trazado_1001604" data-name="Trazado 1001604" d="M80.517,61.843V53.113c0-.983.6-1.435,1.337-1.01l3.031,1.75a3.2,3.2,0,0,1,1.337,2.554V68.5c0,.985-.6,1.437-1.337,1.01l-3.031-1.75c-.739-.425-1.337-4.931-1.337-5.915" transform="translate(26.479 17.082)" fill="#7572a4"/>
              <path id="Trazado_1001605" data-name="Trazado 1001605" d="M95.558,77.652a4.174,4.174,0,0,0,.925,1.639.814.814,0,0,1,.229.655c-.054.171-.3.121-.533-.149a6.621,6.621,0,0,1-1.228-2.174c-.109-.332-.017-.562.161-.513a.843.843,0,0,1,.447.542" transform="translate(31.211 25.357)" fill="#504f58"/>
              <path id="Trazado_1001606" data-name="Trazado 1001606" d="M98.838,78.051a4.175,4.175,0,0,0-.925-1.638.814.814,0,0,1-.229-.655c.054-.171.3-.121.533.149a6.621,6.621,0,0,1,1.228,2.174c.109.332.017.561-.161.513a.843.843,0,0,1-.446-.542" transform="translate(32.12 24.881)" fill="#504f58"/>
              <path id="Trazado_1001607" data-name="Trazado 1001607" d="M97.855,79.923a.887.887,0,0,0,.962-.5c.09-.146.279-.165.456,0a.616.616,0,0,1,.14.692,1.369,1.369,0,0,1-1.277.671.649.649,0,0,1-.528-.489c-.048-.233.07-.376.247-.369" transform="translate(32.096 26.079)" fill="#504f58"/>
              <path id="Trazado_1001608" data-name="Trazado 1001608" d="M96.553,75.419a.887.887,0,0,0-.962.5c-.09.146-.279.165-.456,0a.616.616,0,0,1-.14-.692,1.369,1.369,0,0,1,1.277-.671.649.649,0,0,1,.528.489c.048.233-.07.376-.247.369" transform="translate(31.222 24.519)" fill="#504f58"/>
              <path id="Trazado_1001609" data-name="Trazado 1001609" d="M98.866,73.535h-.294l.011-8.438,1.791-4.5.272.109-1.781,4.472Z" transform="translate(32.417 19.929)" fill="#c9c3b9"/>
              <path id="Trazado_1001610" data-name="Trazado 1001610" d="M110.326,74.762,99.275,62.455l.218-.2,11.051,12.307Z" transform="translate(32.648 20.475)" fill="#c9c3b9"/>
              <path id="Trazado_1001611" data-name="Trazado 1001611" d="M6.509,54.556,1.294,51.544l6.2-3.577,5.216,3.011Z" transform="translate(0.425 15.775)" fill="#6b6164"/>
              <path id="Trazado_1001612" data-name="Trazado 1001612" d="M109.471,106.485v13.434l-5.737-3.312a20.915,20.915,0,0,0-9.007-11.626c-5.415-3.125-6.157.513-9.2,5.937a12.374,12.374,0,0,0-.6,1.515L39.322,86.1q.014-.875.015-1.85c0-6.214-4.391-13.786-9.806-16.912s-9.8-.622-9.8,5.591q0,.985.035,1.879l-14.542-8.4V14.753l88.857,51.3,5.24,28.091Z" transform="translate(1.716 4.852)" fill="#ded8d1"/>
              <path id="Trazado_1001613" data-name="Trazado 1001613" d="M8.87,47.3c0,.614-.433.86-.967.551a2.131,2.131,0,0,1-.969-1.669c0-.614.433-.861.969-.551A2.131,2.131,0,0,1,8.87,47.3" transform="translate(2.28 14.962)" fill="#cdc6bc"/>
              <path id="Trazado_1001614" data-name="Trazado 1001614" d="M69.09,79.467,5.629,42.828v-1.84l.813-.933L69.09,77.627l.815.908Z" transform="translate(1.851 13.173)" fill="#cdc6bc"/>
              <path id="Trazado_1001615" data-name="Trazado 1001615" d="M82.071,88.7l-1.458-.843V86.183l.424-1.316L82.85,88Z" transform="translate(26.511 27.91)" fill="#b5aa9c"/>
              <path id="Trazado_1001616" data-name="Trazado 1001616" d="M82.458,98.155c0,4.82-3.4,6.761-7.605,4.336a16.76,16.76,0,0,1-7.606-13.119c0-4.82,3.406-6.761,7.606-4.336a16.759,16.759,0,0,1,7.605,13.119" transform="translate(22.115 27.622)" fill="#2d2c37"/>
              <path id="Trazado_1001617" data-name="Trazado 1001617" d="M82.458,98.155c0,4.82-3.4,6.761-7.605,4.336a16.76,16.76,0,0,1-7.606-13.119c0-4.82,3.406-6.761,7.606-4.336a16.759,16.759,0,0,1,7.605,13.119" transform="translate(22.115 27.622)" fill="#393843"/>
              <path id="Trazado_1001618" data-name="Trazado 1001618" d="M81.957,97.956c0,4.636-3.276,6.5-7.317,4.171a16.123,16.123,0,0,1-7.315-12.619c0-4.636,3.276-6.5,7.315-4.171a16.119,16.119,0,0,1,7.317,12.619" transform="translate(22.141 27.734)" fill="#2d2c37"/>
              <path id="Trazado_1001619" data-name="Trazado 1001619" d="M33,69.6c0,4.82-3.406,6.761-7.605,4.336A16.76,16.76,0,0,1,17.791,60.82c0-4.82,3.406-6.761,7.606-4.336A16.762,16.762,0,0,1,33,69.6" transform="translate(5.851 18.232)" fill="#393843"/>
              <path id="Trazado_1001620" data-name="Trazado 1001620" d="M32.284,69.4c0,4.636-3.276,6.5-7.317,4.171a16.123,16.123,0,0,1-7.315-12.619c0-4.636,3.276-6.5,7.315-4.171A16.119,16.119,0,0,1,32.284,69.4" transform="translate(5.805 18.344)" fill="#2d2c37"/>
              <path id="Trazado_1001621" data-name="Trazado 1001621" d="M30,67.6c0,3.349-2.365,4.7-5.284,3.013A11.642,11.642,0,0,1,19.432,61.5c0-3.349,2.365-4.7,5.285-3.013A11.644,11.644,0,0,1,30,67.6" transform="translate(6.391 18.996)" fill="#504f58"/>
              <path id="Trazado_1001622" data-name="Trazado 1001622" d="M29.487,67.078c0,3.034-2.143,4.256-4.788,2.729a10.549,10.549,0,0,1-4.788-8.258c0-3.035,2.143-4.256,4.788-2.731a10.552,10.552,0,0,1,4.788,8.259" transform="translate(6.548 19.128)" fill="#c4c2bb"/>
              <path id="Trazado_1001623" data-name="Trazado 1001623" d="M28.888,66.649c0,2.728-1.928,3.828-4.307,2.454a9.488,9.488,0,0,1-4.307-7.427c0-2.731,1.928-3.83,4.307-2.456a6.187,6.187,0,0,1,.639.424,9.841,9.841,0,0,1,3.616,6.208,6.5,6.5,0,0,1,.052.8" transform="translate(6.667 19.281)" fill="#b0ac9e"/>
              <path id="Trazado_1001624" data-name="Trazado 1001624" d="M26.135,67.993a8.982,8.982,0,0,1-4.077-7.031,3.153,3.153,0,0,1,.8-2.324c-1.523-.117-2.587,1.01-2.587,3.038A9.486,9.486,0,0,0,24.58,69.1c1.733,1,3.226.688,3.91-.61a3.273,3.273,0,0,1-2.355-.5" transform="translate(6.667 19.281)" fill="#b7b4a9"/>
              <g id="Grupo_1179013" data-name="Grupo 1179013" transform="translate(30.018 80.529)" style="mix-blend-mode: multiply;isolation: isolate">
                <g id="Grupo_1179012" data-name="Grupo 1179012">
                  <g id="Grupo_1179011" data-name="Grupo 1179011" clip-path="url(#clip-path-5)">
                    <path id="Trazado_1001625" data-name="Trazado 1001625" d="M27.874,65.52c0,1.674-1.183,2.349-2.642,1.507a5.823,5.823,0,0,1-2.642-4.558c0-1.674,1.183-2.348,2.642-1.506a5.821,5.821,0,0,1,2.642,4.557" transform="translate(-22.589 -60.599)" fill="#cdc6bc"/>
                  </g>
                </g>
              </g>
              <path id="Trazado_1001626" data-name="Trazado 1001626" d="M27.94,65.6c-.453.656-1.313.781-2.3.211A5.821,5.821,0,0,1,23,61.256c0-1.126.533-1.8,1.325-1.863A9.841,9.841,0,0,1,27.94,65.6" transform="translate(7.564 19.532)" fill="#9d9783"/>
              <path id="Trazado_1001627" data-name="Trazado 1001627" d="M24,59.559l-1.981,1.147,3.9,6.339,1.955-1.128-1.334-3.188Z" transform="translate(7.243 19.587)" fill="#9d9783"/>
              <path id="Trazado_1001628" data-name="Trazado 1001628" d="M26.811,65.158c0,1.674-1.183,2.349-2.642,1.506a5.82,5.82,0,0,1-2.643-4.557c0-1.674,1.184-2.348,2.643-1.506a5.821,5.821,0,0,1,2.642,4.557" transform="translate(7.079 19.81)" fill="#b7b4a9"/>
              <path id="Trazado_1001629" data-name="Trazado 1001629" d="M26.559,65.073c0,1.6-1.131,2.246-2.526,1.44a5.565,5.565,0,0,1-2.526-4.357c0-1.6,1.131-2.246,2.526-1.44a5.565,5.565,0,0,1,2.526,4.357" transform="translate(7.073 19.853)" fill="#d5d2c9"/>
              <path id="Trazado_1001630" data-name="Trazado 1001630" d="M79.455,96.156c0,3.349-2.365,4.7-5.284,3.013a11.642,11.642,0,0,1-5.285-9.115c0-3.349,2.365-4.7,5.285-3.013a11.644,11.644,0,0,1,5.284,9.115" transform="translate(22.655 28.386)" fill="#504f58"/>
              <path id="Trazado_1001631" data-name="Trazado 1001631" d="M78.943,95.631c0,3.034-2.143,4.256-4.788,2.729A10.549,10.549,0,0,1,69.367,90.1c0-3.035,2.143-4.256,4.788-2.729a10.547,10.547,0,0,1,4.788,8.258" transform="translate(22.812 28.518)" fill="#c4c2bb"/>
              <path id="Trazado_1001632" data-name="Trazado 1001632" d="M78.2,95.1c0,2.655-1.875,3.725-4.189,2.388a9.23,9.23,0,0,1-4.19-7.225c0-2.655,1.876-3.723,4.19-2.388A9.228,9.228,0,0,1,78.2,95.1" transform="translate(22.96 28.708)" fill="#b7b4a9"/>
              <path id="Trazado_1001633" data-name="Trazado 1001633" d="M77.55,94.633c0,2.327-1.644,3.264-3.672,2.093a8.088,8.088,0,0,1-3.672-6.332c0-2.327,1.644-3.265,3.672-2.094a8.091,8.091,0,0,1,3.672,6.333" transform="translate(23.089 28.873)" fill="#d5d2c9"/>
              <path id="Trazado_1001634" data-name="Trazado 1001634" d="M75.477,93.518c0,1.391-.982,1.951-2.194,1.252a4.834,4.834,0,0,1-2.2-3.786c0-1.391.982-1.951,2.2-1.25a4.832,4.832,0,0,1,2.194,3.785" transform="translate(23.378 29.411)" fill="#cac6bc"/>
              <path id="Trazado_1001635" data-name="Trazado 1001635" d="M71.555,91.51a4.184,4.184,0,0,0,.925,1.638.814.814,0,0,1,.229.655c-.054.171-.3.121-.533-.149a6.621,6.621,0,0,1-1.228-2.174c-.109-.332-.017-.562.161-.513a.843.843,0,0,1,.446.542" transform="translate(23.317 29.914)" fill="#504f58"/>
              <path id="Trazado_1001636" data-name="Trazado 1001636" d="M74.953,93.295c0,1.225-.865,1.718-1.932,1.1a4.256,4.256,0,0,1-1.934-3.334c0-1.224.865-1.718,1.934-1.1a4.26,4.26,0,0,1,1.932,3.334" transform="translate(23.378 29.498)" fill="#dddddb"/>
              <path id="Trazado_1001637" data-name="Trazado 1001637" d="M73.852,92.5c0,.666-.47.933-1.05.6a2.309,2.309,0,0,1-1.05-1.81c0-.666.469-.934,1.05-.6a2.315,2.315,0,0,1,1.05,1.811" transform="translate(23.597 29.778)" fill="#b7b4a9"/>
              <path id="Trazado_1001638" data-name="Trazado 1001638" d="M86.881,99.925l-5.545-.611-2.565-1.482-.6-6.127,3.347,1.933,5.358,1.836Z" transform="translate(25.709 30.158)" fill="#493f41"/>
              <path id="Trazado_1001639" data-name="Trazado 1001639" d="M93.487,64.4,5.952,13.859l-.734,1.189,88.859,51.3Z" transform="translate(1.716 4.558)" fill="#f3f1ee"/>
              <path id="Trazado_1001640" data-name="Trazado 1001640" d="M69.254,77.038,5.793,40.4l.6-.344L69.85,76.694Z" transform="translate(1.905 13.173)" fill="#6b6164"/>
              <path id="Trazado_1001641" data-name="Trazado 1001641" d="M53.549,67.971v1.84l.6-.344v-1.84Z" transform="translate(17.61 22.24)" fill="#554d4e"/>
              <path id="Trazado_1001642" data-name="Trazado 1001642" d="M54.641,90.9V49.931l18.3,10.563V86.641L66.92,97.992Z" transform="translate(17.97 16.421)" fill="#cdc6bc"/>
              <path id="Trazado_1001643" data-name="Trazado 1001643" d="M73.406,58.236l-4.123-2.381v23.34l6.109,3.527,1.726-2.811Z" transform="translate(22.785 18.369)" fill="#2d2c37"/>
              <path id="Trazado_1001644" data-name="Trazado 1001644" d="M69.7,78.647V56.569l3.149,1.818L76.4,79.262l-1.475,2.4Z" transform="translate(22.921 18.604)" fill="#573f3f"/>
              <path id="Trazado_1001645" data-name="Trazado 1001645" d="M6.509,53.67,1.294,50.659v.934L6.509,54.6Z" transform="translate(0.425 16.66)" fill="#493f41"/>
              <path id="Trazado_1001646" data-name="Trazado 1001646" d="M82.976,88.394l-2.183-1.261V84.627l2.183,1.261Z" transform="translate(26.57 27.831)" fill="#504f58"/>
              <path id="Trazado_1001647" data-name="Trazado 1001647" d="M82.89,87.995l-2.4-2.381.586-.745,1.813,1.046Z" transform="translate(26.471 27.91)" fill="#ff9a2e"/>
              <path id="Trazado_1001648" data-name="Trazado 1001648" d="M81.949,87.945,80.492,87.1V85.429l1.458.842Z" transform="translate(26.471 28.095)" fill="#e06f2e"/>
              <path id="Trazado_1001649" data-name="Trazado 1001649" d="M9.356,46.819c0,.775-.547,1.087-1.221.7a2.692,2.692,0,0,1-1.223-2.108c0-.775.547-1.086,1.223-.7a2.694,2.694,0,0,1,1.221,2.108" transform="translate(2.273 14.649)" fill="#504f58"/>
              <path id="Trazado_1001650" data-name="Trazado 1001650" d="M9.039,46.592c0,.614-.433.861-.967.551A2.129,2.129,0,0,1,7.1,45.474c0-.614.433-.86.969-.551a2.133,2.133,0,0,1,.967,1.669" transform="translate(2.336 14.73)" fill="#d83b2e"/>
              <path id="Trazado_1001651" data-name="Trazado 1001651" d="M7.4,44.875a3.439,3.439,0,0,0-.529.674c-.092.225,1.031,1.8,1.031,1.8a2.5,2.5,0,0,0,.925-.153c.352-.167-1.427-2.318-1.427-2.318" transform="translate(2.256 14.758)" fill="#d83b2e"/>
              <path id="Trazado_1001652" data-name="Trazado 1001652" d="M8.832,50.241c0,.526-.372.739-.831.473a1.83,1.83,0,0,1-.831-1.433c0-.526.372-.738.831-.473a1.83,1.83,0,0,1,.831,1.433" transform="translate(2.358 16.014)" fill="#b5aa9c"/>
              <path id="Trazado_1001653" data-name="Trazado 1001653" d="M34.32,64.957c0,.526-.372.738-.831.473A1.83,1.83,0,0,1,32.659,64c0-.526.372-.738.831-.473a1.83,1.83,0,0,1,.831,1.433" transform="translate(10.74 20.853)" fill="#b5aa9c"/>
              <path id="Trazado_1001654" data-name="Trazado 1001654" d="M53.055,75.773c0,.526-.372.739-.831.473a1.83,1.83,0,0,1-.831-1.431c0-.528.372-.739.831-.474a1.83,1.83,0,0,1,.831,1.433" transform="translate(16.902 24.41)" fill="#b5aa9c"/>
              <path id="Trazado_1001655" data-name="Trazado 1001655" d="M8.308,46.68c0,.482-.34.676-.761.433a1.674,1.674,0,0,1-.76-1.312c0-.482.34-.676.76-.433a1.672,1.672,0,0,1,.761,1.312" transform="translate(2.232 14.885)" fill="#ff512e"/>
              <path id="Trazado_1001656" data-name="Trazado 1001656" d="M8.9,49.925c0,.526-.372.738-.831.473a1.83,1.83,0,0,1-.831-1.433c0-.526.372-.738.831-.473A1.83,1.83,0,0,1,8.9,49.925" transform="translate(2.381 15.91)" fill="#9da1bf"/>
              <path id="Trazado_1001657" data-name="Trazado 1001657" d="M34.388,64.641c0,.526-.372.739-.831.473a1.83,1.83,0,0,1-.831-1.433c0-.526.372-.738.831-.473a1.83,1.83,0,0,1,.831,1.433" transform="translate(10.763 20.75)" fill="#9da1bf"/>
              <path id="Trazado_1001658" data-name="Trazado 1001658" d="M53.122,75.457c0,.526-.372.738-.831.473a1.83,1.83,0,0,1-.831-1.433c0-.526.372-.738.831-.473a1.83,1.83,0,0,1,.831,1.433" transform="translate(16.924 24.307)" fill="#9da1bf"/>
              <path id="Trazado_1001659" data-name="Trazado 1001659" d="M8.764,49.985c0,.526-.372.739-.831.473A1.83,1.83,0,0,1,7.1,49.025c0-.526.372-.738.831-.473a1.83,1.83,0,0,1,.831,1.433" transform="translate(2.336 15.93)" fill="#f9f1ec"/>
              <path id="Trazado_1001660" data-name="Trazado 1001660" d="M8.607,49.872c0,.446-.315.626-.7.4a1.55,1.55,0,0,1-.7-1.215c0-.447.315-.626.7-.4a1.55,1.55,0,0,1,.7,1.215" transform="translate(2.367 15.97)" fill="#e06f2e"/>
              <path id="Trazado_1001661" data-name="Trazado 1001661" d="M34.252,64.7c0,.526-.372.739-.831.473a1.83,1.83,0,0,1-.831-1.431c0-.528.372-.739.831-.474a1.83,1.83,0,0,1,.831,1.433" transform="translate(10.718 20.769)" fill="#f9f1ec"/>
              <path id="Trazado_1001662" data-name="Trazado 1001662" d="M34.095,64.588c0,.446-.315.626-.7.4a1.55,1.55,0,0,1-.7-1.215c0-.447.315-.626.7-.4a1.55,1.55,0,0,1,.7,1.215" transform="translate(10.749 20.809)" fill="#e06f2e"/>
              <path id="Trazado_1001663" data-name="Trazado 1001663" d="M52.987,75.517c0,.526-.373.738-.831.473a1.827,1.827,0,0,1-.831-1.433c0-.526.371-.738.831-.473a1.834,1.834,0,0,1,.831,1.433" transform="translate(16.879 24.326)" fill="#f9f1ec"/>
              <path id="Trazado_1001664" data-name="Trazado 1001664" d="M52.83,75.4c0,.447-.315.626-.7.4a1.55,1.55,0,0,1-.7-1.215c0-.447.315-.626.7-.4a1.55,1.55,0,0,1,.7,1.215" transform="translate(16.911 24.366)" fill="#e06f2e"/>
              <path id="Trazado_1001665" data-name="Trazado 1001665" d="M9.944,19.323,7.1,17.683V16.421l2.841,1.64Z" transform="translate(2.336 5.4)" fill="#cdc6bc"/>
              <path id="Trazado_1001666" data-name="Trazado 1001666" d="M9.63,18.892l-2.337-1.35V16.61L9.63,17.96Z" transform="translate(2.398 5.462)" fill="#e06f2e"/>
              <path id="Trazado_1001667" data-name="Trazado 1001667" d="M36.587,34.706l-2.841-1.64V31.8l2.841,1.64Z" transform="translate(11.098 10.459)" fill="#cdc6bc"/>
              <path id="Trazado_1001668" data-name="Trazado 1001668" d="M36.273,34.275l-2.337-1.35v-.933l2.337,1.35Z" transform="translate(11.16 10.521)" fill="#e06f2e"/>
              <path id="Trazado_1001669" data-name="Trazado 1001669" d="M70.181,54.1l-2.841-1.64V51.2l2.841,1.641Z" transform="translate(22.146 16.838)" fill="#cdc6bc"/>
              <path id="Trazado_1001670" data-name="Trazado 1001670" d="M69.867,53.67,67.53,52.32v-.933l2.337,1.35Z" transform="translate(22.208 16.9)" fill="#e06f2e"/>
              <path id="Trazado_1001671" data-name="Trazado 1001671" d="M67.822,76.92l-9.835-5.678a4.519,4.519,0,0,1-1.887-3.6V54.25c0-1.39.845-2.028,1.887-1.426L67.822,58.5a4.516,4.516,0,0,1,1.886,3.6V75.495c0,1.389-.844,2.028-1.886,1.426" transform="translate(18.449 17.297)" fill="#2d2c37"/>
              <path id="Trazado_1001672" data-name="Trazado 1001672" d="M56.514,67.885V54.292c0-.985.6-1.437,1.337-1.01l9.835,5.678a3.2,3.2,0,0,1,1.336,2.553V75.106c0,.985-.6,1.437-1.336,1.01l-9.835-5.678a3.2,3.2,0,0,1-1.337-2.553" transform="translate(18.586 17.47)" fill="#573f3f"/>
              <path id="Trazado_1001673" data-name="Trazado 1001673" d="M61.018,83.338l-3.031-1.75a4.519,4.519,0,0,1-1.887-3.6V69.458c0-1.389.845-2.027,1.887-1.426l3.031,1.75a4.518,4.518,0,0,1,1.886,3.6v8.526c0,1.389-.844,2.028-1.886,1.426" transform="translate(18.449 22.299)" fill="#2d2c37"/>
              <path id="Trazado_1001674" data-name="Trazado 1001674" d="M56.514,78.23V69.5c0-.983.6-1.435,1.337-1.01l3.031,1.75a3.2,3.2,0,0,1,1.336,2.554v8.729c0,.985-.6,1.437-1.336,1.01l-3.031-1.75a3.2,3.2,0,0,1-1.337-2.553" transform="translate(18.586 22.471)" fill="#573f3f"/>
              <path id="Trazado_1001675" data-name="Trazado 1001675" d="M74.835,91.909a4.174,4.174,0,0,0-.925-1.638.814.814,0,0,1-.229-.655c.054-.171.3-.121.533.149a6.621,6.621,0,0,1,1.228,2.174c.109.332.017.562-.161.513a.843.843,0,0,1-.447-.542" transform="translate(24.227 29.439)" fill="#504f58"/>
              <path id="Trazado_1001676" data-name="Trazado 1001676" d="M73.852,93.781a.887.887,0,0,0,.962-.5c.09-.146.279-.165.456,0a.616.616,0,0,1,.14.692,1.369,1.369,0,0,1-1.277.671.649.649,0,0,1-.528-.489c-.048-.233.07-.376.247-.369" transform="translate(24.203 30.637)" fill="#504f58"/>
              <path id="Trazado_1001677" data-name="Trazado 1001677" d="M72.55,89.277a.887.887,0,0,0-.962.5c-.09.146-.279.165-.456,0a.616.616,0,0,1-.14-.692,1.369,1.369,0,0,1,1.277-.671.649.649,0,0,1,.528.489c.048.233-.07.376-.247.369" transform="translate(23.329 29.077)" fill="#504f58"/>
              <path id="Trazado_1001678" data-name="Trazado 1001678" d="M72.343,93.429a6.621,6.621,0,0,1-1.228-2.174.787.787,0,0,1-.04-.286c-.153-.009-.229.2-.126.508a6.6,6.6,0,0,0,1.227,2.175c.23.268.48.319.533.148.012-.036-.009-.089-.012-.133a.636.636,0,0,1-.353-.238" transform="translate(23.317 29.916)" fill="#b7b4a9"/>
              <path id="Trazado_1001679" data-name="Trazado 1001679" d="M75.449,92.227A.843.843,0,0,1,75,91.685a4.183,4.183,0,0,0-.924-1.637.914.914,0,0,1-.218-.524.143.143,0,0,0-.179.09.82.82,0,0,0,.23.656,4.183,4.183,0,0,1,.924,1.637.847.847,0,0,0,.447.542c.118.032.193-.065.2-.227-.012,0-.02.008-.033,0" transform="translate(24.227 29.44)" fill="#b7b4a9"/>
              <path id="Trazado_1001680" data-name="Trazado 1001680" d="M74.3,94.255a.649.649,0,0,1-.528-.489c-.009-.049.013-.076.017-.117a.258.258,0,0,0-.185.34.649.649,0,0,0,.528.489,1.367,1.367,0,0,0,1.277-.671l.005-.015a1.375,1.375,0,0,1-1.115.462" transform="translate(24.203 30.798)" fill="#b7b4a9"/>
              <path id="Trazado_1001681" data-name="Trazado 1001681" d="M71.3,89.444a.618.618,0,0,1-.144-.678,1.23,1.23,0,0,0-.163.209.619.619,0,0,0,.14.692c.177.165.367.146.456,0a1.668,1.668,0,0,1,.153-.209c-.094.129-.272.142-.441-.015" transform="translate(23.329 29.192)" fill="#b7b4a9"/>
              <path id="Trazado_1001682" data-name="Trazado 1001682" d="M72.508,88.9a.878.878,0,0,0-.933.465.881.881,0,0,1,.765-.242c.138.005.215-.1.231-.252-.024.007-.037.031-.064.029" transform="translate(23.539 29.228)" fill="#b7b4a9"/>
              <path id="Trazado_1001683" data-name="Trazado 1001683" d="M74.863,87.394h-.294l.011-8.438,1.793-4.5.272.11-1.782,4.472Z" transform="translate(24.523 24.486)" fill="#c9c3b9"/>
              <path id="Trazado_1001684" data-name="Trazado 1001684" d="M86.324,88.619,75.272,76.314l.218-.2L86.542,88.423Z" transform="translate(24.754 25.032)" fill="#c9c3b9"/>
              <path id="Trazado_1001685" data-name="Trazado 1001685" d="M115.568,69.925l-31.9,18.415v13.434l31.9-18.415Z" transform="translate(27.516 22.996)" fill="#e4dfd9"/>
              <path id="Trazado_1001686" data-name="Trazado 1001686" d="M106.962,73.442l-18.1,10.45V97.15l18.1-10.449Z" transform="translate(29.224 24.152)" fill="#ebe7e3"/>
              <path id="Trazado_1001687" data-name="Trazado 1001687" d="M105.818,75.083,89.553,84.474v3.3l16.265-9.391Z" transform="translate(29.451 24.692)" fill="#554d4e"/>
              <path id="Trazado_1001688" data-name="Trazado 1001688" d="M105.818,79.5,89.553,88.889v4.865l16.265-9.391Z" transform="translate(29.451 26.144)" fill="#554d4e"/>
              <path id="Trazado_1001689" data-name="Trazado 1001689" d="M104.873,77.84,89.552,86.685v1.092l16.265-9.391v-3.3l-.945.546Z" transform="translate(29.451 24.692)" fill="#cdc6bc"/>
              <path id="Trazado_1001690" data-name="Trazado 1001690" d="M104.873,80.044v3.774L89.552,92.663v1.092l16.265-9.391V79.5Z" transform="translate(29.451 26.144)" fill="#cdc6bc"/>
              <path id="Trazado_1001691" data-name="Trazado 1001691" d="M86.184,91.394l31.9-18.415L107.924,60.64l-31.9,18.415Z" transform="translate(25.003 19.943)" fill="#f3f1ee"/>
              <path id="Trazado_1001692" data-name="Trazado 1001692" d="M76.029,79.056,86.262,90.788l5.993-3.246L117.643,72.8l-9.718-12.164,10.155,12.339-31.9,18.415Z" transform="translate(25.003 19.943)" fill="#faf8f5"/>
              <path id="Trazado_1001693" data-name="Trazado 1001693" d="M90.449,85.75l18.1-10.45-6.416-7.508-18.1,10.45Z" transform="translate(27.636 22.294)" fill="#f3f1ee"/>
              <path id="Trazado_1001694" data-name="Trazado 1001694" d="M72.086,57.917l31.9-18.415,5.238,28.091-31.9,18.415Z" transform="translate(23.707 12.991)" fill="#ebe7e3"/>
              <path id="Trazado_1001695" data-name="Trazado 1001695" d="M93.1,71.327l.116.544L77.3,81.057l-3.753-21.57L89.37,50.355l.114.545Z" transform="translate(24.189 16.56)" fill="#554d4e"/>
              <path id="Trazado_1001696" data-name="Trazado 1001696" d="M92.471,71.4l-5.783,3.339-9.16,5.289L76.7,75.2,74.1,60.125l-.1-.574,8.844-5.105,6.012-3.471,2.329,13.154.473,2.68Z" transform="translate(24.336 16.764)" fill="#b08480"/>
              <path id="Trazado_1001697" data-name="Trazado 1001697" d="M103.782,65.529l-14.035,8.1-.114-.544L86.016,52.661l-.116-.545,14.13-8.157Z" transform="translate(28.25 14.457)" fill="#554d4e"/>
              <path id="Trazado_1001698" data-name="Trazado 1001698" d="M103.038,65.058l-4.792,2.767-6.513,3.761-1.767,1.021-.684-3.867-.125-.7-2.4-13.546-.409-2.312,8.15-4.7,5.011-2.893,1.876,10.89,1.467,8.522Z" transform="translate(28.398 14.661)" fill="#b08480"/>
              <path id="Trazado_1001699" data-name="Trazado 1001699" d="M100.4,64.772l-.377.615-2.1,1.209L93.7,64.157V46.522l3.276-1.891Z" transform="translate(30.814 14.678)" fill="#d6b6b2"/>
              <path id="Trazado_1001700" data-name="Trazado 1001700" d="M72.232,58.4l31.9-18.415-.59-1.953-31.9,18.415Z" transform="translate(23.561 12.507)" fill="#f3f1ee"/>
              <path id="Trazado_1001701" data-name="Trazado 1001701" d="M125.2,50.539,37.667,0,5.77,18.416,93.305,68.954Z" transform="translate(1.898 0)" fill="#fcfbfa"/>
              <path id="Trazado_1001702" data-name="Trazado 1001702" d="M116.768,80.621,84.727,99.12v4.45l32.042-18.5Z" transform="translate(27.864 26.513)" fill="#554d4e"/>
              <path id="Trazado_1001703" data-name="Trazado 1001703" d="M82.529,85.655l-.941.542V87.87l.941-.134Z" transform="translate(26.832 28.169)" fill="#e07427"/>
              <path id="Trazado_1001704" data-name="Trazado 1001704" d="M88.385,81.062V94.5l.634.149V81.386Z" transform="translate(29.067 26.658)" fill="#ded8d1"/>
              <path id="Trazado_1001705" data-name="Trazado 1001705" d="M69.254,78.793,5.793,42.154v-1.84L69.254,76.953Z" transform="translate(1.905 13.258)" fill="#493f41"/>
              <path id="Trazado_1001706" data-name="Trazado 1001706" d="M102.866,82.41l4.364-2.52-3.992.6-.372.6Z" transform="translate(33.829 26.273)" fill="#b5aa9c"/>
              <path id="Trazado_1001707" data-name="Trazado 1001707" d="M103.237,73.956l3.367-1.591c.331-.191.6-.039.6.34V79.73a1.317,1.317,0,0,1-.6,1.031l-3.367,1.944c-.331.191-.6.039-.6-.34V75.341a2.073,2.073,0,0,1,.6-1.385" transform="translate(33.754 23.771)" fill="#b5aa9c"/>
              <path id="Trazado_1001708" data-name="Trazado 1001708" d="M107.57,72.034l-.342-.2-.008,0h0a.422.422,0,0,0-.416.047l-3.369,1.944a1.321,1.321,0,0,0-.6,1.031v7.024a.428.428,0,0,0,.155.369h0a.407.407,0,0,0,.041.023l.331.19.106-.263L106.8,80.27a1.318,1.318,0,0,0,.6-1.031V72.456Z" transform="translate(33.819 23.61)" fill="#393843"/>
              <path id="Trazado_1001709" data-name="Trazado 1001709" d="M103.669,73.955l3.367-1.944c.331-.191.6-.039.6.34v7.024a1.315,1.315,0,0,1-.6,1.031l-3.367,1.944c-.331.191-.6.039-.6-.34V74.986a1.315,1.315,0,0,1,.6-1.031" transform="translate(33.896 23.655)" fill="#5c5b64"/>
              <path id="Trazado_1001710" data-name="Trazado 1001710" d="M103.749,74.207l3.028-1.749c.225-.129.407-.027.407.229v6.458a.89.89,0,0,1-.407.7l-3.028,1.749c-.225.13-.407.028-.407-.229V74.9a.89.89,0,0,1,.407-.7" transform="translate(33.986 23.811)" fill="#cfcedf"/>
              <path id="Trazado_1001711" data-name="Trazado 1001711" d="M107.756,73.007l-.7-.573-3.6,9.189.853.178Z" transform="translate(34.023 23.821)" fill="#cfcedf"/>
              <path id="Trazado_1001712" data-name="Trazado 1001712" d="M104.373,74.557l2.9-1.674c.215-.125.389-.027.389.218v6.185a.852.852,0,0,1-.389.668l-2.9,1.674c-.215.125-.389.027-.389-.218V75.225a.852.852,0,0,1,.389-.668" transform="translate(34.197 23.951)" fill="#f3f1ee"/>
              <g id="Grupo_1179016" data-name="Grupo 1179016" transform="translate(137.495 96.512)" style="mix-blend-mode: multiply;isolation: isolate">
                <g id="Grupo_1179015" data-name="Grupo 1179015">
                  <g id="Grupo_1179014" data-name="Grupo 1179014" clip-path="url(#clip-path-6)">
                    <path id="Trazado_1001713" data-name="Trazado 1001713" d="M103.857,74.357l2.9-1.674c.215-.125.389-.027.389.218v6.185a.852.852,0,0,1-.389.668l-2.9,1.674c-.215.125-.389.027-.389-.218V75.025a.852.852,0,0,1,.389-.668" transform="translate(-103.468 -72.628)" fill="#eefaf9"/>
                  </g>
                </g>
              </g>
              <path id="Trazado_1001714" data-name="Trazado 1001714" d="M103.553,82.519,107.917,80V78.681l-4.364,2.52Z" transform="translate(34.055 25.876)" fill="#e07427"/>
              <path id="Trazado_1001715" data-name="Trazado 1001715" d="M103.687,81.279l-.541-.312,4.364-2.52.541.312Z" transform="translate(33.921 25.798)" fill="#ff9a2e"/>
              <path id="Trazado_1001716" data-name="Trazado 1001716" d="M103.687,80.655l-.541-.312V81.66l.541.314Z" transform="translate(33.921 26.422)" fill="#e06f2e"/>
              <path id="Trazado_1001717" data-name="Trazado 1001717" d="M84.414,93.082l4.364-2.52-3.992.6-.372.6Z" transform="translate(27.761 29.783)" fill="#b5aa9c"/>
              <path id="Trazado_1001718" data-name="Trazado 1001718" d="M84.785,84.629l3.367-1.591c.331-.191.6-.039.6.34V90.4a1.317,1.317,0,0,1-.6,1.031l-3.367,1.944c-.331.191-.6.039-.6-.34V86.014a2.073,2.073,0,0,1,.6-1.385" transform="translate(27.686 27.281)" fill="#b5aa9c"/>
              <path id="Trazado_1001719" data-name="Trazado 1001719" d="M89.118,82.706l-.342-.2L88.77,82.5h0a.425.425,0,0,0-.416.047L84.981,84.49a1.321,1.321,0,0,0-.6,1.031v7.024a.431.431,0,0,0,.155.371.249.249,0,0,0,.041.023l.331.19.106-.263,3.333-1.924a1.319,1.319,0,0,0,.6-1.031V83.128Z" transform="translate(27.751 27.12)" fill="#393843"/>
              <path id="Trazado_1001720" data-name="Trazado 1001720" d="M85.216,84.627l3.367-1.944c.331-.191.6-.039.6.34v7.024a1.315,1.315,0,0,1-.6,1.031l-3.367,1.944c-.33.191-.6.039-.6-.34V85.658a1.318,1.318,0,0,1,.6-1.031" transform="translate(27.828 27.164)" fill="#5c5b64"/>
              <path id="Trazado_1001721" data-name="Trazado 1001721" d="M85.3,84.88l3.028-1.749c.225-.13.407-.028.407.229v6.457a.89.89,0,0,1-.407.7L85.3,92.263c-.225.13-.405.028-.405-.229V85.577a.889.889,0,0,1,.405-.7" transform="translate(27.918 27.32)" fill="#cfcedf"/>
              <path id="Trazado_1001722" data-name="Trazado 1001722" d="M89.3,83.679l-.7-.573L85,92.3l.853.178Z" transform="translate(27.954 27.331)" fill="#cfcedf"/>
              <path id="Trazado_1001723" data-name="Trazado 1001723" d="M85.921,85.229l2.9-1.674c.215-.125.389-.027.389.218v6.185a.852.852,0,0,1-.389.668l-2.9,1.674c-.214.125-.388.027-.388-.218V85.9a.854.854,0,0,1,.388-.668" transform="translate(28.129 27.46)" fill="#f3f1ee"/>
              <path id="Trazado_1001724" data-name="Trazado 1001724" d="M85.1,93.191l4.364-2.52V89.354L85.1,91.873Z" transform="translate(27.987 29.385)" fill="#e07427"/>
              <g id="Grupo_1179019" data-name="Grupo 1179019" transform="translate(137.159 104.31)" style="mix-blend-mode: multiply;isolation: isolate">
                <g id="Grupo_1179018" data-name="Grupo 1179018">
                  <g id="Grupo_1179017" data-name="Grupo 1179017" clip-path="url(#clip-path-7)">
                    <path id="Trazado_1001725" data-name="Trazado 1001725" d="M103.215,82.333l4.364-2.52V78.5l-4.364,2.52Z" transform="translate(-103.215 -78.496)" fill="#f5ec73"/>
                  </g>
                </g>
              </g>
              <g id="Grupo_1179022" data-name="Grupo 1179022" transform="translate(112.638 118.493)" style="mix-blend-mode: multiply;isolation: isolate">
                <g id="Grupo_1179021" data-name="Grupo 1179021">
                  <g id="Grupo_1179020" data-name="Grupo 1179020" clip-path="url(#clip-path-7)">
                    <path id="Trazado_1001726" data-name="Trazado 1001726" d="M84.763,93.006l4.364-2.52V89.168l-4.364,2.52Z" transform="translate(-84.763 -89.168)" fill="#f5ec73"/>
                  </g>
                </g>
              </g>
              <path id="Trazado_1001727" data-name="Trazado 1001727" d="M85.235,91.951l-.541-.312,4.364-2.52.541.312Z" transform="translate(27.853 29.308)" fill="#ff9a2e"/>
              <path id="Trazado_1001728" data-name="Trazado 1001728" d="M85.235,91.327l-.541-.312v1.318l.541.312Z" transform="translate(27.853 29.932)" fill="#e06f2e"/>
              <path id="Trazado_1001729" data-name="Trazado 1001729" d="M55.594,90.353V50.481l-.953-.55V90.9L66.92,97.992l.446-.843Z" transform="translate(17.97 16.421)" fill="#9b897f"/>
              <path id="Trazado_1001730" data-name="Trazado 1001730" d="M90.991,62.89l.813,4.593L76.86,76.112l-.831-4.829Z" transform="translate(25.003 20.682)" fill="#997a77"/>
              <path id="Trazado_1001731" data-name="Trazado 1001731" d="M102.344,60.517,89.272,68.065l-.809-4.57,9.108-5.109,4.59,1.066Z" transform="translate(29.092 19.201)" fill="#997a77"/>
              <path id="Trazado_1001732" data-name="Trazado 1001732" d="M55.594,80.349l-.953.55L66.92,87.989l.446-.843Z" transform="translate(17.97 26.424)" fill="#f3f1ee"/>
              <path id="Trazado_1001733" data-name="Trazado 1001733" d="M67.115,90.707l-14.89-8.6v.934l14.89,8.6Z" transform="translate(17.175 27.003)" fill="#493f41"/>
              <path id="Trazado_1001734" data-name="Trazado 1001734" d="M63.43,88.916l2.353-1.359v.934L63.43,89.85Z" transform="translate(20.86 28.794)" fill="#554d4e"/>
              <path id="Trazado_1001735" data-name="Trazado 1001735" d="M67.115,91.043l2.353-1.359-14.889-8.6-2.355,1.359Z" transform="translate(17.175 26.667)" fill="#6b6164"/>
              <g id="Grupo_1179025" data-name="Grupo 1179025" transform="translate(112.957 110.59)" style="mix-blend-mode: multiply;isolation: isolate">
                <g id="Grupo_1179024" data-name="Grupo 1179024">
                  <g id="Grupo_1179023" data-name="Grupo 1179023" clip-path="url(#clip-path-9)">
                    <path id="Trazado_1001736" data-name="Trazado 1001736" d="M85.391,84.95l2.9-1.674c.215-.125.389-.027.389.218v6.185a.852.852,0,0,1-.389.668l-2.9,1.674c-.215.125-.389.027-.389-.218V85.618a.852.852,0,0,1,.389-.668" transform="translate(-85.003 -83.221)" fill="#eefaf9"/>
                  </g>
                </g>
              </g>
              <g id="Grupo_1179028" data-name="Grupo 1179028" transform="translate(73.563 66.902)" style="mix-blend-mode: multiply;isolation: isolate">
                <g id="Grupo_1179027" data-name="Grupo 1179027">
                  <g id="Grupo_1179026" data-name="Grupo 1179026" clip-path="url(#clip-path-10)">
                    <path id="Trazado_1001737" data-name="Trazado 1001737" d="M55.358,50.345v.836L71.533,60.7V86.413L66.338,96.557l.792.457L72.7,86.505V60.358Z" transform="translate(-55.358 -50.345)" fill="#f2f1f0"/>
                  </g>
                </g>
              </g>
              <path id="Trazado_1001738" data-name="Trazado 1001738" d="M90.5,83.632,81.959,73.247l9.173,10.709Z" transform="translate(26.953 24.088)" fill="#ded8d1"/>
              <path id="Trazado_1001739" data-name="Trazado 1001739" d="M104.873,77.158l.945.546L89.552,87.095V86Z" transform="translate(29.451 25.375)" fill="#f3f1ee"/>
              <path id="Trazado_1001740" data-name="Trazado 1001740" d="M104.873,82.748l.945.546L89.552,92.686V91.593Z" transform="translate(29.451 27.213)" fill="#f3f1ee"/>
              <path id="Trazado_1001741" data-name="Trazado 1001741" d="M85.652,50.974l.6,3.414-2.514-2.311Z" transform="translate(27.54 16.764)" fill="#cbcadd"/>
              <path id="Trazado_1001742" data-name="Trazado 1001742" d="M91.106,48.231V58.3c0,.983-.6,1.435-1.337,1.01l-2.322-2.135-1.1-6.2Z" transform="translate(28.398 15.862)" fill="#cbcadd"/>
              <path id="Trazado_1001743" data-name="Trazado 1001743" d="M86.256,54.388l-2.514-2.312,1.91-1.1Z" transform="translate(27.54 16.764)" fill="#d6b6b2"/>
              <path id="Trazado_1001744" data-name="Trazado 1001744" d="M86.35,50.976l4.756-2.745V58.3c0,.983-.6,1.435-1.337,1.009l-2.322-2.134Z" transform="translate(28.398 15.862)" fill="#d6b6b2"/>
              <path id="Trazado_1001745" data-name="Trazado 1001745" d="M92.445,62.793l-85.1-49.2.6-.344L92.652,62.793Z" transform="translate(2.417 4.357)" fill="#ebe7e3"/>
              <path id="Trazado_1001746" data-name="Trazado 1001746" d="M92.6,62.646,7.5,13.446l.6-.344L93.2,62.3Z" transform="translate(2.468 4.309)" fill="#fcfbfa"/>
              <path id="Trazado_1001747" data-name="Trazado 1001747" d="M71.541,50.47v.2l.6-.344v-.2Z" transform="translate(23.527 16.485)" fill="#ebe7e3"/>
              <path id="Trazado_1001748" data-name="Trazado 1001748" d="M92.6,62.756,7.5,13.557v-.2l85.1,49.2Z" transform="translate(2.468 4.394)" fill="#cdc6bc"/>
              <path id="Trazado_1001749" data-name="Trazado 1001749" d="M95.391,61.092l-85.1-49.2.6-.344L95.6,61.092Z" transform="translate(3.386 3.798)" fill="#ebe7e3"/>
              <path id="Trazado_1001750" data-name="Trazado 1001750" d="M95.547,60.945l-85.1-49.2.6-.344,85.1,49.2Z" transform="translate(3.437 3.749)" fill="#fcfbfa"/>
              <path id="Trazado_1001751" data-name="Trazado 1001751" d="M74.488,48.769v.2l.6-.344v-.2Z" transform="translate(24.496 15.925)" fill="#ebe7e3"/>
              <path id="Trazado_1001752" data-name="Trazado 1001752" d="M95.547,61.055l-85.1-49.2v-.2l85.1,49.2Z" transform="translate(3.437 3.834)" fill="#cdc6bc"/>
              <path id="Trazado_1001753" data-name="Trazado 1001753" d="M98.338,59.391l-85.1-49.2.6-.344L98.546,59.391Z" transform="translate(4.355 3.238)" fill="#ebe7e3"/>
              <path id="Trazado_1001754" data-name="Trazado 1001754" d="M98.494,59.243l-85.1-49.2.6-.344,85.1,49.2Z" transform="translate(4.406 3.19)" fill="#fcfbfa"/>
              <path id="Trazado_1001755" data-name="Trazado 1001755" d="M77.435,47.068v.2l.6-.344v-.2Z" transform="translate(25.466 15.366)" fill="#ebe7e3"/>
              <path id="Trazado_1001756" data-name="Trazado 1001756" d="M98.494,59.354l-85.1-49.2v-.2l85.1,49.2Z" transform="translate(4.406 3.275)" fill="#cdc6bc"/>
              <path id="Trazado_1001757" data-name="Trazado 1001757" d="M101.285,57.689l-85.1-49.2.6-.344,84.707,49.544Z" transform="translate(5.324 2.679)" fill="#ebe7e3"/>
              <path id="Trazado_1001758" data-name="Trazado 1001758" d="M101.441,57.542l-85.1-49.2.6-.344,85.1,49.2Z" transform="translate(5.375 2.63)" fill="#fcfbfa"/>
              <path id="Trazado_1001759" data-name="Trazado 1001759" d="M80.381,45.366v.2l.6-.344v-.2Z" transform="translate(26.435 14.806)" fill="#ebe7e3"/>
              <path id="Trazado_1001760" data-name="Trazado 1001760" d="M101.441,57.652l-85.1-49.2v-.2l85.1,49.2Z" transform="translate(5.375 2.715)" fill="#cdc6bc"/>
              <path id="Trazado_1001761" data-name="Trazado 1001761" d="M104.232,55.988l-85.1-49.2.6-.344,84.707,49.544Z" transform="translate(6.293 2.119)" fill="#ebe7e3"/>
              <path id="Trazado_1001762" data-name="Trazado 1001762" d="M104.387,55.841l-85.1-49.2.6-.344,85.1,49.2Z" transform="translate(6.345 2.071)" fill="#fcfbfa"/>
              <path id="Trazado_1001763" data-name="Trazado 1001763" d="M83.328,43.665v.2l.6-.344v-.2Z" transform="translate(27.404 14.247)" fill="#ebe7e3"/>
              <path id="Trazado_1001764" data-name="Trazado 1001764" d="M104.387,55.951l-85.1-49.2v-.2l85.1,49.2Z" transform="translate(6.345 2.156)" fill="#cdc6bc"/>
              <path id="Trazado_1001765" data-name="Trazado 1001765" d="M107.179,54.287l-85.1-49.2.6-.344,84.707,49.544Z" transform="translate(7.263 1.56)" fill="#ebe7e3"/>
              <path id="Trazado_1001766" data-name="Trazado 1001766" d="M107.334,54.139l-85.1-49.2.6-.344,85.1,49.2Z" transform="translate(7.314 1.511)" fill="#fcfbfa"/>
              <path id="Trazado_1001767" data-name="Trazado 1001767" d="M86.275,41.964v.2l.6-.344v-.2Z" transform="translate(28.373 13.687)" fill="#ebe7e3"/>
              <path id="Trazado_1001768" data-name="Trazado 1001768" d="M107.334,54.25l-85.1-49.2v-.2l85.1,49.2Z" transform="translate(7.314 1.596)" fill="#cdc6bc"/>
              <path id="Trazado_1001769" data-name="Trazado 1001769" d="M110.126,52.585l-85.1-49.2.6-.344,84.707,49.544Z" transform="translate(8.232 1)" fill="#ebe7e3"/>
              <path id="Trazado_1001770" data-name="Trazado 1001770" d="M110.281,52.438l-85.1-49.2.6-.344,85.1,49.2Z" transform="translate(8.283 0.952)" fill="#fcfbfa"/>
              <path id="Trazado_1001771" data-name="Trazado 1001771" d="M89.222,40.262v.2l.6-.344v-.2Z" transform="translate(29.342 13.128)" fill="#ebe7e3"/>
              <path id="Trazado_1001772" data-name="Trazado 1001772" d="M110.281,52.548l-85.1-49.2v-.2l85.1,49.2Z" transform="translate(8.283 1.037)" fill="#cdc6bc"/>
              <path id="Trazado_1001773" data-name="Trazado 1001773" d="M113.072,50.884l-85.1-49.2.6-.344L113.28,50.884Z" transform="translate(9.201 0.441)" fill="#ebe7e3"/>
              <path id="Trazado_1001774" data-name="Trazado 1001774" d="M113.228,50.737l-85.1-49.2.6-.344,85.1,49.2Z" transform="translate(9.252 0.392)" fill="#fcfbfa"/>
              <path id="Trazado_1001775" data-name="Trazado 1001775" d="M92.169,38.561v.2l.6-.344v-.2Z" transform="translate(30.311 12.568)" fill="#ebe7e3"/>
              <path id="Trazado_1001776" data-name="Trazado 1001776" d="M113.228,50.847l-85.1-49.2v-.2l85.1,49.2Z" transform="translate(9.252 0.477)" fill="#cdc6bc"/>
              <path id="Trazado_1001777" data-name="Trazado 1001777" d="M77.974,48.094l-1.4-.8,1.11-.66,1.091,1.463Z" transform="translate(25.182 15.335)" fill="#ebe7e3"/>
              <path id="Trazado_1001778" data-name="Trazado 1001778" d="M78.227,48.032l1.11-.66v-.55l-1.11.66Z" transform="translate(25.726 15.398)" fill="#e07427"/>
              <path id="Trazado_1001779" data-name="Trazado 1001779" d="M78.574,47.681l-1.4-.8,1.11-.66,1.4.8Z" transform="translate(25.379 15.199)" fill="#ff9a2e"/>
              <path id="Trazado_1001780" data-name="Trazado 1001780" d="M78.574,47.517l-1.4-.8v.549l1.4.8Z" transform="translate(25.379 15.363)" fill="#e06f2e"/>
              <path id="Trazado_1001781" data-name="Trazado 1001781" d="M82.149,45.61l-1.4-.8,1.11-.659,1.091,1.463Z" transform="translate(26.554 14.518)" fill="#ebe7e3"/>
              <path id="Trazado_1001782" data-name="Trazado 1001782" d="M82.4,45.548l1.11-.66v-.55L82.4,45Z" transform="translate(27.099 14.581)" fill="#e07427"/>
              <path id="Trazado_1001783" data-name="Trazado 1001783" d="M82.749,45.2l-1.4-.8,1.11-.66,1.4.8Z" transform="translate(26.752 14.382)" fill="#ff9a2e"/>
              <path id="Trazado_1001784" data-name="Trazado 1001784" d="M82.749,45.033l-1.4-.8v.549l1.4.8Z" transform="translate(26.752 14.546)" fill="#e06f2e"/>
              <path id="Trazado_1001785" data-name="Trazado 1001785" d="M86.324,43.126l-1.4-.8,1.11-.66,1.091,1.463Z" transform="translate(27.927 13.701)" fill="#ebe7e3"/>
              <path id="Trazado_1001786" data-name="Trazado 1001786" d="M86.576,43.063l1.11-.66v-.55l-1.11.66Z" transform="translate(28.472 13.764)" fill="#e07427"/>
              <path id="Trazado_1001787" data-name="Trazado 1001787" d="M86.923,42.712l-1.4-.8,1.11-.66,1.4.8Z" transform="translate(28.125 13.565)" fill="#ff9a2e"/>
              <path id="Trazado_1001788" data-name="Trazado 1001788" d="M86.923,42.549l-1.4-.8v.549l1.4.8Z" transform="translate(28.125 13.729)" fill="#e06f2e"/>
              <path id="Trazado_1001789" data-name="Trazado 1001789" d="M84.3,73.859l7.277-4.2-1.411-1.726-7.277,4.2Z" transform="translate(27.258 22.34)" fill="#cdc6bc"/>
              <path id="Trazado_1001790" data-name="Trazado 1001790" d="M91.943,69.415l7.277-4.2-1.411-1.726-7.277,4.2Z" transform="translate(29.773 20.879)" fill="#cdc6bc"/>
              <path id="Trazado_1001791" data-name="Trazado 1001791" d="M86.3,68.532a.326.326,0,0,0,.524-.064.532.532,0,0,0-.047-.645.327.327,0,0,0-.524.062.534.534,0,0,0,.047.646" transform="translate(28.338 22.271)" fill="#493f41"/>
              <path id="Trazado_1001792" data-name="Trazado 1001792" d="M86.32,68.473a.285.285,0,0,0,.457-.056.465.465,0,0,0-.041-.563.3.3,0,0,0-.457.056.466.466,0,0,0,.041.563" transform="translate(28.349 22.285)" fill="#493f41"/>
              <path id="Trazado_1001793" data-name="Trazado 1001793" d="M86.465,67.763a1.765,1.765,0,0,1,.334.054c.081.035.048.6.048.6a1.357,1.357,0,0,1-.353.138c-.158.028-.028-.8-.028-.8" transform="translate(28.419 22.285)" fill="#493f41"/>
              <path id="Trazado_1001794" data-name="Trazado 1001794" d="M86.572,68.359a.224.224,0,0,0,.359-.044.367.367,0,0,0-.032-.443.224.224,0,0,0-.359.044.367.367,0,0,0,.032.443" transform="translate(28.44 22.298)" fill="#5c504e"/>
              <g id="Grupo_1179031" data-name="Grupo 1179031" transform="translate(98.336 71.208)" style="mix-blend-mode: screen;isolation: isolate">
                <g id="Grupo_1179030" data-name="Grupo 1179030">
                  <g id="Grupo_1179029" data-name="Grupo 1179029" clip-path="url(#clip-path-11)">
                    <path id="Trazado_1001795" data-name="Trazado 1001795" d="M91.658,65.949l.813,4.593-5.785,3.339L74.1,59.265l-.1-.573,8.844-5.107,8.34,9.683Z" transform="translate(-74 -53.586)" fill="#383838"/>
                  </g>
                </g>
              </g>
              <g id="Grupo_1179034" data-name="Grupo 1179034" transform="translate(117.68 83.399)" style="mix-blend-mode: screen;isolation: isolate">
                <g id="Grupo_1179033" data-name="Grupo 1179033">
                  <g id="Grupo_1179032" data-name="Grupo 1179032" clip-path="url(#clip-path-12)">
                    <path id="Trazado_1001796" data-name="Trazado 1001796" d="M91.008,65.606,89.24,66.627l-.683-3.867Z" transform="translate(-88.557 -62.76)" fill="#383838"/>
                  </g>
                </g>
              </g>
              <g id="Grupo_1179037" data-name="Grupo 1179037" transform="translate(114.748 62.134)" style="mix-blend-mode: screen;isolation: isolate">
                <g id="Grupo_1179036" data-name="Grupo 1179036">
                  <g id="Grupo_1179035" data-name="Grupo 1179035" clip-path="url(#clip-path-13)">
                    <path id="Trazado_1001797" data-name="Trazado 1001797" d="M103.038,64.342l-4.792,2.767L86.76,53.773l-.409-2.312,8.15-4.7,6.888,8,1.467,8.522Z" transform="translate(-86.35 -46.757)" fill="#383838"/>
                  </g>
                </g>
              </g>
              <path id="Trazado_1001798" data-name="Trazado 1001798" d="M92.38,92.152l-2.032,1.173v-.9L92.38,91.25Z" transform="translate(29.712 30.009)" fill="#493f41"/>
              <path id="Trazado_1001799" data-name="Trazado 1001799" d="M92.155,92.052l-1.672.965v-.667l1.672-.965Z" transform="translate(29.757 30.053)" fill="#e06f2e"/>
              <path id="Trazado_1001800" data-name="Trazado 1001800" d="M103.17,85.523l-1.672.965V85.82l1.672-.965Z" transform="translate(33.379 27.906)" fill="#e06f2e"/>
              <path id="Trazado_1001801" data-name="Trazado 1001801" d="M83.987,68.337l-.46.435,3.864-.392-.043-.546Z" transform="translate(27.469 22.308)" fill="#493f41"/>
              <path id="Trazado_1001802" data-name="Trazado 1001802" d="M89.389,67.111c-.04,0-10.953,5.665-10.953,5.665l-.117-.346,10.635-5.75Z" transform="translate(25.757 21.929)" fill="#5c504e"/>
              <path id="Trazado_1001803" data-name="Trazado 1001803" d="M50.652,66.74a3.188,3.188,0,0,1-1.581-.468L31.177,55.94a8.192,8.192,0,0,1-3.494-6.619V39.111A3.429,3.429,0,0,1,29.1,35.992a2.649,2.649,0,0,1,2.715.167L49.706,46.492A8.193,8.193,0,0,1,53.2,53.111V63.322a3.426,3.426,0,0,1-1.415,3.118,2.228,2.228,0,0,1-1.132.3m-.946-1.567a1.478,1.478,0,0,0,1.444.167,2.289,2.289,0,0,0,.78-2.019V53.111a7.029,7.029,0,0,0-2.86-5.52L31.177,37.259a1.479,1.479,0,0,0-1.444-.167,2.285,2.285,0,0,0-.78,2.02v10.21a7.027,7.027,0,0,0,2.86,5.52Z" transform="translate(9.104 11.738)" fill="#e9e5e1"/>
              <path id="Trazado_1001804" data-name="Trazado 1001804" d="M50.643,66.3a3.172,3.172,0,0,1-1.581-.466L31.166,55.5a8.192,8.192,0,0,1-3.492-6.619V38.671a3.43,3.43,0,0,1,1.415-3.119,2.649,2.649,0,0,1,2.714.167L49.7,46.053a8.191,8.191,0,0,1,3.494,6.618V62.882A3.431,3.431,0,0,1,51.777,66a2.256,2.256,0,0,1-1.134.3M30.225,36.522a.989.989,0,0,0-.5.13,2.286,2.286,0,0,0-.781,2.019V48.882A7.033,7.033,0,0,0,31.8,54.4L49.7,64.734a1.472,1.472,0,0,0,1.443.166,2.286,2.286,0,0,0,.781-2.019V52.671a7.028,7.028,0,0,0-2.861-5.519l-17.9-10.333a1.98,1.98,0,0,0-.941-.3" transform="translate(9.101 11.593)" fill="#d9d3cc"/>
              <path id="Trazado_1001805" data-name="Trazado 1001805" d="M29.7,54.642a3.188,3.188,0,0,1-1.581-.468L10.223,43.842a8.189,8.189,0,0,1-3.494-6.618V27.013a3.431,3.431,0,0,1,1.414-3.119,2.649,2.649,0,0,1,2.715.167L28.752,34.394a8.192,8.192,0,0,1,3.494,6.619V51.224a3.426,3.426,0,0,1-1.415,3.118,2.232,2.232,0,0,1-1.132.3m-.946-1.567a1.469,1.469,0,0,0,1.443.167,2.283,2.283,0,0,0,.781-2.019V41.013a7.029,7.029,0,0,0-2.86-5.52L10.223,25.161a1.478,1.478,0,0,0-1.443-.167A2.284,2.284,0,0,0,8,27.013V37.224a7.027,7.027,0,0,0,2.86,5.519Z" transform="translate(2.213 7.759)" fill="#e9e5e1"/>
              <path id="Trazado_1001806" data-name="Trazado 1001806" d="M29.689,54.2a3.17,3.17,0,0,1-1.58-.468L10.212,43.4A8.194,8.194,0,0,1,6.72,36.784V26.573a3.434,3.434,0,0,1,1.414-3.119,2.652,2.652,0,0,1,2.715.167l17.9,10.332a8.2,8.2,0,0,1,3.494,6.619V50.784A3.431,3.431,0,0,1,30.822,53.9a2.24,2.24,0,0,1-1.132.3M9.273,24.424a.987.987,0,0,0-.5.13,2.286,2.286,0,0,0-.781,2.019V36.784A7.024,7.024,0,0,0,10.849,42.3l17.9,10.332a1.469,1.469,0,0,0,1.442.167,2.286,2.286,0,0,0,.781-2.019V40.573a7.028,7.028,0,0,0-2.86-5.52l-17.9-10.331a1.966,1.966,0,0,0-.94-.3" transform="translate(2.21 7.615)" fill="#d9d3cc"/>
              <path id="Trazado_1001807" data-name="Trazado 1001807" d="M68.68,75.39,5.219,38.751V36.91L68.68,73.55Z" transform="translate(1.716 12.139)" fill="#f5b53d"/>
              <path id="Trazado_1001808" data-name="Trazado 1001808" d="M12.389,30.336v3.719a.913.913,0,0,0,1.365.793L16.995,33a.912.912,0,0,0,0-1.583l-3.241-1.872a.913.913,0,0,0-1.369.791" transform="translate(4.074 9.676)" fill="#de4037"/>
              <path id="Trazado_1001809" data-name="Trazado 1001809" d="M20.875,41.352V37.632a.912.912,0,0,0-1.365-.792l-3.241,1.847a.912.912,0,0,0,0,1.583l3.241,1.872a.913.913,0,0,0,1.369-.791" transform="translate(5.199 12.075)" fill="#de4037"/>
              <path id="Trazado_1001810" data-name="Trazado 1001810" d="M12.846,38.57l2.571,1.484a.912.912,0,0,0,1.245-1.248l-2.571-4.434a.912.912,0,0,0-1.7.457v2.95a.911.911,0,0,0,.456.791" transform="translate(4.075 11.153)" fill="#f5b53d"/>
              <path id="Trazado_1001811" data-name="Trazado 1001811" d="M20.254,33.3l-2.571-1.484a.912.912,0,0,0-1.245,1.248L19.009,37.5a.912.912,0,0,0,1.7-.458v-2.95a.914.914,0,0,0-.456-.791" transform="translate(5.364 10.42)" fill="#f5b53d"/>
              <path id="Trazado_1001812" data-name="Trazado 1001812" d="M25.814,39.531c0,1.338-.836,1.722-2.133.973l-1.664-.961v-4.4l1.712.989a4.061,4.061,0,0,1,2.085,3.4m-1.3-.736a1.794,1.794,0,0,0-.816-1.551L23.287,37v2.142l.476.274c.46.266.755.021.755-.626" transform="translate(7.241 11.556)" fill="#493f41"/>
              <path id="Trazado_1001813" data-name="Trazado 1001813" d="M28.389,38.819v1.106l-1.976-1.14v.541l1.794,1.035v1.106l-1.794-1.037v.547l2.024,1.168V43.25l-3.294-1.9v-4.4Z" transform="translate(8.269 12.15)" fill="#493f41"/>
              <path id="Trazado_1001814" data-name="Trazado 1001814" d="M29.255,39.32V42.51l1.6.922v1.212l-2.868-1.656v-4.4Z" transform="translate(9.203 12.69)" fill="#493f41"/>
              <path id="Trazado_1001815" data-name="Trazado 1001815" d="M31.661,40.708v4.4l-1.27-.732v-4.4Z" transform="translate(9.995 13.146)" fill="#493f41"/>
              <path id="Trazado_1001816" data-name="Trazado 1001816" d="M32.89,41.417l.793,3.347.788-2.434,1.3.748L34.3,46.635l-1.313-.757-1.456-5.244Z" transform="translate(10.37 13.363)" fill="#493f41"/>
              <path id="Trazado_1001817" data-name="Trazado 1001817" d="M38.15,44.455V45.56l-1.975-1.14v.541L37.969,46V47.1l-1.794-1.037v.547L38.2,47.781v1.106l-3.294-1.9v-4.4Z" transform="translate(11.479 14.003)" fill="#493f41"/>
              <path id="Trazado_1001818" data-name="Trazado 1001818" d="M39.954,49.9l-.46-1.409-.476-.274v1.143l-1.27-.734v-4.4L39.6,45.294a2.953,2.953,0,0,1,1.635,2.521c0,.641-.213,1-.606,1.043l.755,1.868Zm-.936-2.788.586.338c.272.158.432.054.432-.284A.862.862,0,0,0,39.6,46.4l-.586-.338Z" transform="translate(12.414 14.543)" fill="#493f41"/>
              <path id="Trazado_1001819" data-name="Trazado 1001819" d="M43.138,50.368v1.369L41.869,51V49.666l-1.4-3.874,1.265.73.772,2.141.743-1.266,1.264.73Z" transform="translate(13.308 15.06)" fill="#493f41"/>
              <path id="Trazado_1001820" data-name="Trazado 1001820" d="M23.111,41.4c-.1-.058-.169-.061-.169.033,0,.395,1.421.969,1.421,2.106,0,.7-.536.7-1.153.343a4.563,4.563,0,0,1-1.374-1.3L22.17,42a4.188,4.188,0,0,0,1.046,1.092c.134.077.219.077.219-.035,0-.408-1.421-.959-1.421-2.062,0-.627.462-.756,1.176-.344a4.391,4.391,0,0,1,1.193,1.062l-.33.6a4.952,4.952,0,0,0-.943-.913" transform="translate(7.181 13.289)" fill="#493f41"/>
              <path id="Trazado_1001821" data-name="Trazado 1001821" d="M26.233,42.573v.789l-1.414-.816v.385l1.285.742v.789l-1.285-.742v.389l1.45.837v.789l-2.357-1.361V41.234Z" transform="translate(7.864 13.56)" fill="#493f41"/>
              <path id="Trazado_1001822" data-name="Trazado 1001822" d="M27.52,46.459l-.33-1.006-.34-.2v.816l-.909-.525V42.405l1.328.767a2.111,2.111,0,0,1,1.172,1.8c0,.457-.154.71-.436.745l.541,1.334Zm-.67-1.992.419.242c.2.113.31.04.31-.2a.616.616,0,0,0-.31-.547l-.419-.241Z" transform="translate(8.531 13.946)" fill="#493f41"/>
              <path id="Trazado_1001823" data-name="Trazado 1001823" d="M28.869,44.1l.567,2.391L30,44.749l.929.536-1.05,2.537-.94-.542L27.9,43.534Z" transform="translate(9.175 14.317)" fill="#493f41"/>
              <path id="Trazado_1001824" data-name="Trazado 1001824" d="M31.216,45.45v3.143l-.908-.524V44.926Z" transform="translate(9.967 14.775)" fill="#493f41"/>
              <path id="Trazado_1001825" data-name="Trazado 1001825" d="M32.681,46.983c-.33-.19-.567-.027-.567.389a1.269,1.269,0,0,0,.567,1.055.612.612,0,0,0,.623,0l.524.943a1.154,1.154,0,0,1-1.193-.061,3.034,3.034,0,0,1-1.454-2.462c0-.925.626-1.235,1.488-.738a3.433,3.433,0,0,1,1.159,1.242l-.524.411a1.883,1.883,0,0,0-.623-.781" transform="translate(10.254 15.087)" fill="#493f41"/>
              <path id="Trazado_1001826" data-name="Trazado 1001826" d="M35.629,48v.789l-1.414-.816v.385L35.5,49.1v.789l-1.285-.742v.389l1.45.837v.789L33.309,49.8V46.658Z" transform="translate(10.954 15.344)" fill="#493f41"/>
              <path id="Trazado_1001827" data-name="Trazado 1001827" d="M97.242,62.194a.326.326,0,0,0,.524-.064.534.534,0,0,0-.046-.645.327.327,0,0,0-.524.062.532.532,0,0,0,.047.646" transform="translate(31.936 20.186)" fill="#493f41"/>
              <path id="Trazado_1001828" data-name="Trazado 1001828" d="M97.26,62.136a.285.285,0,0,0,.457-.056.465.465,0,0,0-.041-.563.28.28,0,0,0-.428.019.4.4,0,0,0-.029.037.466.466,0,0,0,.041.563" transform="translate(31.947 20.201)" fill="#493f41"/>
              <path id="Trazado_1001829" data-name="Trazado 1001829" d="M97.405,61.426a1.765,1.765,0,0,1,.334.054c.081.035.048.6.048.6a1.357,1.357,0,0,1-.353.138c-.158.028-.028-.8-.028-.8" transform="translate(32.017 20.201)" fill="#493f41"/>
              <path id="Trazado_1001830" data-name="Trazado 1001830" d="M97.512,62.021a.225.225,0,0,0,.36-.044.369.369,0,0,0-.033-.443.224.224,0,0,0-.359.044.367.367,0,0,0,.032.443" transform="translate(32.038 20.213)" fill="#5c504e"/>
              <path id="Trazado_1001831" data-name="Trazado 1001831" d="M94.927,62l-.46.435,3.864-.392-.043-.546Z" transform="translate(31.067 20.224)" fill="#493f41"/>
              <path id="Trazado_1001832" data-name="Trazado 1001832" d="M100.329,60.774c-.04,0-10.952,5.665-10.952,5.665l-.117-.346,10.635-5.75Z" transform="translate(29.355 19.845)" fill="#5c504e"/>
              <path id="Trazado_1001833" data-name="Trazado 1001833" d="M102.817,67.791l5.935,7.4L91.224,85.331,81.959,75.041l9.173,10.708,18.1-10.45Z" transform="translate(26.954 22.294)" fill="#faf8f5"/>
              <path id="Trazado_1001834" data-name="Trazado 1001834" d="M93.749,96.264l5.164-2.982a2.2,2.2,0,0,0,.917-1.751V88.585c0-.675-.411-.985-.917-.692l-5.164,2.981a2.2,2.2,0,0,0-.917,1.751v2.947c0,.674.411.985.917.692" transform="translate(30.529 28.869)" fill="#faf8f5"/>
              <path id="Trazado_1001835" data-name="Trazado 1001835" d="M100.043,88.675v2.95a2.2,2.2,0,0,1-.925,1.749l-5.167,2.975c-.506.291-.912-.012-.912-.683V92.715a2.187,2.187,0,0,1,.912-1.747l5.167-2.989c.508-.291.925.025.925.7" transform="translate(30.598 28.898)" fill="#ebe7e3"/>
              <g id="Grupo_1179040" data-name="Grupo 1179040" transform="translate(123.637 116.767)" style="mix-blend-mode: multiply;isolation: isolate">
                <g id="Grupo_1179039" data-name="Grupo 1179039">
                  <g id="Grupo_1179038" data-name="Grupo 1179038" clip-path="url(#clip-path-14)">
                    <path id="Trazado_1001836" data-name="Trazado 1001836" d="M100.043,88.675V89l-7,4.041v-.33a2.187,2.187,0,0,1,.912-1.747l5.167-2.989c.508-.291.925.025.925.7" transform="translate(-93.039 -87.869)" fill="#ff8e8c"/>
                  </g>
                </g>
              </g>
              <path id="Trazado_1001837" data-name="Trazado 1001837" d="M3.417,53.6c0-.077-.021-5.971-.016-9.5-.65-.311-1.333-.646-1.718-.852l-.357-.191.1-.48a3.683,3.683,0,0,1,2.458-1.363.569.569,0,0,1,.481.578c-.007.323-.011.932-.013,1.712.639.3,1.152.545,1.164.549a1.194,1.194,0,0,0,1.313.04l.651-.416.512.8-.65.417a2.1,2.1,0,0,1-2.287-.013c-.016-.005-.3-.137-.7-.327-.005,3.547.015,8.97.015,9.044ZM2.642,42.673c.23.116.492.243.763.375,0-.3,0-.563,0-.787a6.051,6.051,0,0,0-.767.412" transform="translate(0.436 13.551)" fill="#d5d2c9"/>
              <path id="Trazado_1001838" data-name="Trazado 1001838" d="M3.708,50.407a.742.742,0,0,0-.671,0,.2.2,0,0,0,0,.388.745.745,0,0,0,.672,0,.2.2,0,0,0,0-.388" transform="translate(0.953 16.551)" fill="#d5d2c9"/>
              <path id="Trazado_1001839" data-name="Trazado 1001839" d="M5.9,43.286a.741.741,0,0,0,.346.575c.187.1.335.013.331-.2a.742.742,0,0,0-.346-.575c-.187-.1-.335-.013-.331.2" transform="translate(1.939 14.155)" fill="#d5d2c9"/>
            </g>
          </g>
        </g>
      </g>
    </g>
  </g>
</svg>
