<svg xmlns="http://www.w3.org/2000/svg" xmlns:xlink="http://www.w3.org/1999/xlink" width="147.479" height="119.333" viewBox="0 0 147.479 119.333">
  <defs>
    <clipPath id="clip-path">
      <rect id="Rectángulo_455110" data-name="Rectángulo 455110" width="98.775" height="119.333" fill="none"/>
    </clipPath>
    <clipPath id="clip-path-2">
      <rect id="Rectángulo_455109" data-name="Rectángulo 455109" width="98.774" height="119.335" fill="none"/>
    </clipPath>
    <clipPath id="clip-path-3">
      <rect id="Rectángulo_455108" data-name="Rectángulo 455108" width="51.836" height="74.385" fill="none"/>
    </clipPath>
    <clipPath id="clip-path-4">
      <rect id="Rectángulo_455107" data-name="Rectángulo 455107" width="24.401" height="31.389" fill="none"/>
    </clipPath>
  </defs>
  <g id="Grupo_1179117" data-name="Grupo 1179117" transform="translate(-568.736 -5784.636)">
    <g id="Grupo_1178297" data-name="Grupo 1178297" transform="translate(266.474 1329.956)">
      <rect id="Rectángulo_401003" data-name="Rectángulo 401003" width="144.479" height="112.843" rx="29" transform="translate(303.762 4457.924)" fill="none" stroke="#fe8938" stroke-miterlimit="10" stroke-width="3"/>
      <g id="Grupo_1178307" data-name="Grupo 1178307" transform="translate(326.614 4454.68)">
        <g id="Grupo_1178306" data-name="Grupo 1178306" clip-path="url(#clip-path)">
          <path id="Trazado_998331" data-name="Trazado 998331" d="M24.2,48.285l-.135,47.08L69.77,68.807,69.9,21.719Z" transform="translate(26.556 23.968)" fill="#b98347"/>
          <path id="Trazado_998332" data-name="Trazado 998332" d="M1.168,35.028l45.7-26.566L95.172,36.349,49.466,62.915Z" transform="translate(1.289 9.339)" fill="#baa366"/>
          <path id="Trazado_998333" data-name="Trazado 998333" d="M1.1,68.171,49.4,96.058l.135-47.08L1.239,21.092Z" transform="translate(1.219 23.276)" fill="#e0b171"/>
          <path id="Trazado_998334" data-name="Trazado 998334" d="M24.129,47.13l-.023,8.341L72.151,27.548l.021-8.334Z" transform="translate(26.603 21.203)" fill="#ddae6e"/>
          <path id="Trazado_998335" data-name="Trazado 998335" d="M.011,33.211,50.719,62.488,98.764,34.57,48.062,5.3Z" transform="translate(0.012 5.845)" fill="#ffe1a3"/>
          <path id="Trazado_998336" data-name="Trazado 998336" d="M0,26.91,50.71,56.185l.021-8.343L.023,18.567Z" transform="translate(0 20.49)" fill="#edc989"/>
          <path id="Trazado_998337" data-name="Trazado 998337" d="M16.1,39.593l1.733,1,.015-6.386-1.735-1Z" transform="translate(17.772 36.648)" fill="#553819"/>
          <path id="Trazado_998338" data-name="Trazado 998338" d="M14.078,31.5l-.029,8.58,16.46,9.5L30.53,41Zm2.911,9.178-1.731-1,.015-6.386,1.74,1Zm3.115,1.8-1.733-1,.015-6.384,1.733,1Zm3.218,1.86-1.731-1,.013-6.386,1.742,1ZM26.3,46.055l-1.731-1,.015-6.386,1.74,1Zm3.01,1.733-1.771-1.022.017-6.38L29.321,41.4Z" transform="translate(15.504 34.763)" fill="#fff"/>
          <path id="Trazado_998339" data-name="Trazado 998339" d="M20.461,42.1l1.769,1.024.017-6.386-1.771-1.016Z" transform="translate(22.579 39.425)" fill="#553819"/>
          <path id="Trazado_998340" data-name="Trazado 998340" d="M19.048,41.3l1.731,1L20.8,35.91l-1.74-1Z" transform="translate(21.02 38.524)" fill="#553819"/>
          <path id="Trazado_998341" data-name="Trazado 998341" d="M17.635,40.479l1.733,1,.021-6.384-1.74-1Z" transform="translate(19.461 37.623)" fill="#553819"/>
          <path id="Trazado_998342" data-name="Trazado 998342" d="M14.624,38.739l1.733,1,.021-6.384-1.742-1Z" transform="translate(16.138 35.703)" fill="#553819"/>
          <g id="Grupo_1178305" data-name="Grupo 1178305" transform="translate(0 -0.001)">
            <g id="Grupo_1178304" data-name="Grupo 1178304" clip-path="url(#clip-path-2)">
              <g id="Grupo_1178303" data-name="Grupo 1178303" transform="translate(41.512 0.001)" style="isolation: isolate">
                <g id="Grupo_1178302" data-name="Grupo 1178302" transform="translate(0 0)">
                  <g id="Grupo_1178301" data-name="Grupo 1178301" clip-path="url(#clip-path-3)">
                    <path id="Trazado_998343" data-name="Trazado 998343" d="M37.351,26.795l3.218-1.87L36.8,18.4l-3.221,1.87Z" transform="translate(-4.454 20.3)" fill="#b7c2cc"/>
                    <path id="Trazado_998344" data-name="Trazado 998344" d="M35.689,19.285a7.842,7.842,0,0,1-4.018,2.291l3.77,6.527,4.018-2.289Z" transform="translate(-6.562 21.282)" fill="#f8f9fc"/>
                    <path id="Trazado_998345" data-name="Trazado 998345" d="M40.41,21.868l-1.921,1.1-4.02,2.289-1.921,1.1,13.808,23.9,7.85-4.485Z" transform="translate(-5.592 24.132)" fill="#f2402d"/>
                    <path id="Trazado_998346" data-name="Trazado 998346" d="M50.084,46.749l3.221-1.87-13.8-23.9-3.218,1.87Z" transform="translate(-1.468 23.151)" fill="#9e2212"/>
                    <path id="Trazado_998347" data-name="Trazado 998347" d="M34.581,37.243l3.221-1.87a7.966,7.966,0,0,0,1.769-1.409c4.377-4.657,3.8-14.952-1.763-24.569a38.1,38.1,0,0,0-3.515-5.105l-3.221,1.87a38.106,38.106,0,0,1,3.517,5.105c5.558,9.617,6.138,19.912,1.761,24.569a7.755,7.755,0,0,1-1.769,1.409" transform="translate(-7.223 4.733)" fill="#9e2212"/>
                    <path id="Trazado_998348" data-name="Trazado 998348" d="M37.721,10.762l3.221-1.87a29.218,29.218,0,0,0-7.789-6.826A16.79,16.79,0,0,0,28.265.118L25.047,1.99a16.735,16.735,0,0,1,4.884,1.946,29.186,29.186,0,0,1,7.789,6.826" transform="translate(-13.871 0.13)" fill="#9e2212"/>
                    <path id="Trazado_998349" data-name="Trazado 998349" d="M28.43,2.12,31.649.248a9.036,9.036,0,0,0-6.449.806L21.981,2.926A9.025,9.025,0,0,1,28.43,2.12" transform="translate(-17.255 0)" fill="#9e2212"/>
                    <path id="Trazado_998350" data-name="Trazado 998350" d="M35.8,3.084A32.525,32.525,0,0,1,47.1,15.016c5.558,9.617,6.14,19.912,1.761,24.569a7.749,7.749,0,0,1-1.834,1.447,7.861,7.861,0,0,1-2.183.844c-2.745.614-5.951-.135-9.153-1.984a32.525,32.525,0,0,1-11.3-11.931c-6.231-10.791-6.2-22.443.074-26.017C27.594.152,31.7.718,35.8,3.084M27.088,26.421A24.813,24.813,0,0,0,35.7,35.508c3.124,1.8,6.25,2.236,8.639.875,4.779-2.724,4.8-11.6.057-19.828a24.83,24.83,0,0,0-8.616-9.087c-3.124-1.8-6.25-2.236-8.639-.875-4.779,2.724-4.8,11.6-.057,19.828" transform="translate(-19.734 0.982)" fill="#f2402d"/>
                    <g id="Grupo_1178300" data-name="Grupo 1178300" transform="translate(3.808 6.775)" opacity="0.65">
                      <g id="Grupo_1178299" data-name="Grupo 1178299">
                        <g id="Grupo_1178298" data-name="Grupo 1178298" clip-path="url(#clip-path-4)">
                          <path id="Trazado_998351" data-name="Trazado 998351" d="M33.785,4.9c-3.124-1.8-6.25-2.238-8.639-.877-4.779,2.724-4.8,11.605-.057,19.83a24.823,24.823,0,0,0,8.616,9.085c3.124,1.8,6.25,2.238,8.639.875,4.779-2.722,4.8-11.6.057-19.826A24.8,24.8,0,0,0,33.785,4.9" transform="translate(-21.544 -3.221)" fill="#fff"/>
                        </g>
                      </g>
                    </g>
                  </g>
                </g>
              </g>
            </g>
          </g>
        </g>
      </g>
    </g>
  </g>
</svg>
