<svg xmlns="http://www.w3.org/2000/svg" xmlns:xlink="http://www.w3.org/1999/xlink" width="157.702" height="155.843" viewBox="0 0 157.702 155.843">
  <defs>
    <clipPath id="clip-path">
      <rect id="Rectángulo_455378" data-name="Rectángulo 455378" width="157.702" height="148.973" fill="none"/>
    </clipPath>
    <clipPath id="clip-path-3">
      <rect id="Rectángulo_455355" data-name="Rectángulo 455355" width="36.539" height="18.292" fill="none"/>
    </clipPath>
    <clipPath id="clip-path-4">
      <rect id="Rectángulo_455356" data-name="Rectángulo 455356" width="3.347" height="30.66" fill="none"/>
    </clipPath>
    <clipPath id="clip-path-5">
      <rect id="Rectángulo_455357" data-name="Rectángulo 455357" width="2.696" height="36.115" fill="none"/>
    </clipPath>
    <clipPath id="clip-path-6">
      <rect id="Rectángulo_455358" data-name="Rectángulo 455358" width="8.889" height="22.426" fill="none"/>
    </clipPath>
    <clipPath id="clip-path-7">
      <rect id="Rectángulo_455359" data-name="Rectángulo 455359" width="10.367" height="5.985" fill="none"/>
    </clipPath>
    <clipPath id="clip-path-8">
      <path id="Trazado_1001876" data-name="Trazado 1001876" d="M144.511,28.791a6.951,6.951,0,0,1-1.127,2.219,1.174,1.174,0,0,0,.159.635,3.647,3.647,0,0,0,1.677,1.689,2.4,2.4,0,0,1,.18-2.32c.456-.911,1.642-.4,2.987,0a1.871,1.871,0,0,0,.615.1c.011-.414.042-.943.064-1.484a8.945,8.945,0,0,0-4.523-3.494,7.74,7.74,0,0,1-.032,2.658" transform="translate(-143.383 -26.133)" fill="none"/>
    </clipPath>
    <linearGradient id="linear-gradient" x1="-15.285" y1="13.581" x2="-15.178" y2="13.581" gradientUnits="objectBoundingBox">
      <stop offset="0" stop-color="#fca4b5"/>
      <stop offset="0.122" stop-color="#fca4b5"/>
      <stop offset="0.99" stop-color="#ffadb7"/>
      <stop offset="1" stop-color="#ffadb7"/>
    </linearGradient>
    <clipPath id="clip-path-10">
      <path id="Trazado_1001879" data-name="Trazado 1001879" d="M144.257,24.4c-.874.442.38,2.724.947,2.755s.461-.552.461-.552-.61-.96-.1-1.5c0,0-.305-.8-.918-.8a.866.866,0,0,0-.391.1" transform="translate(-143.957 -24.294)" fill="none"/>
    </clipPath>
    <linearGradient id="linear-gradient-2" x1="-48.738" y1="38.75" x2="-48.398" y2="38.75" gradientUnits="objectBoundingBox">
      <stop offset="0" stop-color="#feb9b8"/>
      <stop offset="0.122" stop-color="#feb9b8"/>
      <stop offset="1" stop-color="#ffdede"/>
    </linearGradient>
    <clipPath id="clip-path-12">
      <rect id="Rectángulo_455364" data-name="Rectángulo 455364" width="4.339" height="6.036" fill="none"/>
    </clipPath>
    <clipPath id="clip-path-13">
      <rect id="Rectángulo_455365" data-name="Rectángulo 455365" width="141.236" height="81.543" fill="none"/>
    </clipPath>
    <clipPath id="clip-path-14">
      <path id="Trazado_1001884" data-name="Trazado 1001884" d="M42.835,66.9,2.565,90.149,0,89.057v4.536h.01C.042,95,1.069,96.472,3.059,97.62L85.867,145.43c3.694,2.133,9.336,2.368,12.536.519l40.675-23.484a3.732,3.732,0,0,0,2.154-3.079l0,0v-4.626l-2.6.762c-.15-.1-.3-.2-.46-.291L55.37,67.419a14.6,14.6,0,0,0-7.1-1.766,11.094,11.094,0,0,0-5.44,1.246" transform="translate(0 -65.653)" fill="none"/>
    </clipPath>
    <linearGradient id="linear-gradient-3" y1="1.042" x2="0.007" y2="1.042" gradientUnits="objectBoundingBox">
      <stop offset="0" stop-color="#c4c8d8"/>
      <stop offset="0.283" stop-color="#c4c8d8"/>
      <stop offset="0.304" stop-color="#c0c4d5"/>
      <stop offset="0.323" stop-color="#b5bace"/>
      <stop offset="0.341" stop-color="#a3a8c2"/>
      <stop offset="0.344" stop-color="#a0a6c0"/>
      <stop offset="0.986" stop-color="#a0a6c0"/>
      <stop offset="0.991" stop-color="#b4b8cd"/>
      <stop offset="0.995" stop-color="#c0c4d5"/>
      <stop offset="1" stop-color="#c4c8d8"/>
    </linearGradient>
    <clipPath id="clip-path-16">
      <rect id="Rectángulo_455368" data-name="Rectángulo 455368" width="77.122" height="44.526" fill="none"/>
    </clipPath>
    <clipPath id="clip-path-17">
      <path id="Trazado_1001905" data-name="Trazado 1001905" d="M34.237,76.909A42.212,42.212,0,1,0,76.449,34.7,42.212,42.212,0,0,0,34.237,76.909" transform="translate(-34.237 -34.697)" fill="none"/>
    </clipPath>
    <linearGradient id="linear-gradient-4" x1="-0.132" y1="1.116" x2="-0.124" y2="1.116" gradientUnits="objectBoundingBox">
      <stop offset="0" stop-color="#379ed6"/>
      <stop offset="0.086" stop-color="#379ed6"/>
      <stop offset="0.3" stop-color="#57ade5"/>
      <stop offset="0.543" stop-color="#75bcf3"/>
      <stop offset="0.751" stop-color="#88c5fb"/>
      <stop offset="0.898" stop-color="#8fc9ff"/>
      <stop offset="1" stop-color="#8fc9ff"/>
    </linearGradient>
    <clipPath id="clip-path-18">
      <path id="Trazado_1001906" data-name="Trazado 1001906" d="M37.97,77.039A38.609,38.609,0,1,0,76.579,38.43,38.608,38.608,0,0,0,37.97,77.039" transform="translate(-37.97 -38.43)" fill="none"/>
    </clipPath>
    <linearGradient id="linear-gradient-5" x1="-0.192" y1="1.173" x2="-0.183" y2="1.173" gradientUnits="objectBoundingBox">
      <stop offset="0" stop-color="#7282b5"/>
      <stop offset="0.086" stop-color="#7282b5"/>
      <stop offset="0.232" stop-color="#7389c8"/>
      <stop offset="0.502" stop-color="#7594e6"/>
      <stop offset="0.734" stop-color="#779bf8"/>
      <stop offset="0.898" stop-color="#789eff"/>
      <stop offset="1" stop-color="#789eff"/>
    </linearGradient>
    <clipPath id="clip-path-20">
      <path id="Trazado_1001908" data-name="Trazado 1001908" d="M44.724,78.443l-.037.2-.294.066-.109.2-.2.247-.338-.012-.185-.132-.223.107.061.271-.083.07-.212-.135h-.114l-.2.216-.229.192-.1.673.061.284.017.125-.2.024-.282.181-.091.317-.259.11-.042.114-.042.126.132.162.048.216-.151.139s-.2.108-.151-.115l.048-.222-.1-.3-.284-.385L41,80.866l-.373-.114-.241.042-.066-.066.029-.134-.228-.016-.174-.047s-.013-.025-.072.131l-.061.156L39.7,80.9l-.277.042-.083.162-.265.2h-.2l-.054-.2-.152-.054a.734.734,0,0,1-.167.023l-.169.018-.042-.151s.15-.006,0-.144l-.135-.125q.055.575.124,1.144l.023.008.1.169.162.084.162-.047-.063.156-.077.171-.085-.028-.04.121-.007.169.141.089.148-.052,0-.213.245-.01s-.173.15-.053.253l.12.1.373.018.121-.043.108-.181.048-.107-.062-.165s-.251-.142-.184-.214l.066-.071-.136-.151.113-.078.132-.016.191-.02.175-.559.194-.027.215.051.088.2.153.084-.007.33-.017.373.408.5.175.343.028.37L41.1,83.6l.024.186.148.148-.01.208h-.12l-.071.115.053.24a1.258,1.258,0,0,1,.1.337l.066.289-.187.121.013.228-.108.036-.145-.071s-.066-.025-.017.209c.025.126-.023.113-.051.1s-.034-.024.033.053.056.095.056.095a.67.67,0,0,1,.064.032l.156.084.151-.114.091.066-.379.445s-.071.037-.047.2l.023.162-.18.114-.222.114-.2.115-.053.24.044.256-.117.093-.138.054-.024.037.012.2.135.134-.039.161-.324.139-.1.113-.008.068a38.719,38.719,0,0,0,21.429,23.844,3.883,3.883,0,0,0-.006-.595l-.167-2.068-.818-.819-1.2-.769-.5-.626,1.131-.721.223-1.009-.863-.845-.491-.166.89-1.635-.529-2.694.144-1.684-.768-.336L57.914,98l-.192-1.347-.173-1.014H56.471l-.336-1.006.336-1.011L57,92.8l-1.105-.626-.433-.673c-.721-2.646-.721-1.491-.721-1.491V88.857l.626-2.069.1-1.587-.769-1.106-1.106-.529-.577-.29-.644-1.46-.9-.44.288-.489.218-.279-.385-.506-.5.048-.39,0-.236-.31.65-.481-.65-.337h-.384l-.507.072-.311.265.367.451-.3.435h-.341l-.66-.573-.335.119-.654.066-.161-.245.161-.373-.626-.243-.435-.124-.049-.21s.229.126.114-.132l-.114-.258s-.037-.241-.2-.031l-.161.21v.2l.12.258-.018.163-.18.072-.32.03-.108.258-.151-.252-.1.259-.174-.121-.03-.277.3-.017.2-.24.078-.325-.2-.3-.41-.095ZM60.8,42.193l-.464.446-.381.793c-.381.8-.641.354-.641.354l-.609-.128-.674-.353v-.127A38.681,38.681,0,0,0,39.1,67.752l.116-.012v-.209c0-.208.292-.016.292-.016l-.113.408.27.089.251-.166.342.1.038-.158.429.158.083.278.2.395.289-.047.015-.241-.015-.192.24-.176.16.289.395.465.246.047-.01.6-.23.654-.065.3a.625.625,0,0,0,.2.539l.024.327v.369l.241.291.176.543.273.226.309-.125.027-.422.353-.384.24-.513-.24-.305-.048-.658.1-.448-.24-.273.144-.337-.1-.656-.127-.626.224-.417a4.429,4.429,0,0,0,.177-.737c.177-.8.481-.465.481-.465l.882-.529.318-.536L45.665,65l.4-.064.16-.353.272-.24.29-.016.272-.289.064-.32.257.112.244-.292-.019-.413.464-.224-.038-.576c-.025-.361-.146-.426-.233-.424-.027-.062-.068-.147-.13-.266a2,2,0,0,0-.116-.2c.071.051.235.058.367-.6.251-1.25.122.042.122.042l.141.284c.143.286,0,0-.189.446s.048.332.048.332l.331-.417.321-.389.237-.389-.268-.357-.112-.45.239.192.273.45.112-.385.674-.32.048-.77.576-.032.4-.224-.465-.273.193-.384.818-.08.128.064.3.177.272-.016.417-.112.241-.209-.071-.424-.49.167-.337-.432.42-.095-.083-.354.481-.738c.482-.737.642-.514.642-.514l.5.079.853-.265.55-.256s-.048.114.359-.313.446.133.446.133l-.18.461-.834.385-.033.481h.62l.72-.5.265-.456.64.093.989-.16.209-.405.724-.172.214-.587-.237-.275c-.237-.275.473-.774.473-.774h-.706l-.232.765-.617.408-.2.142-.72-.36-.51-.633.065-.577.8-.513.514-.737-.395-.108-.792-.02-.417.064-.514.128-.544.289-.577.545-.834.7h-.93l.93-.7L54.339,52l.32-.609,1.378-.224.475-.4.68-.4,1.349.126.126.387,1.186.064.261-.347L61.157,50l.4.038.456-.491a1.077,1.077,0,0,1,1.115-.246l-.149-.513.493-.834-.632-.225-.065-.353.2-.435-.132-.35-.815-.275-.09-.381-.578-.128-.32-.641.8-.8-.382-.5-.387-.588.417-1.315Zm29.775-.418-.15.264-.24.091L90,42.075l-.076-.1-.215.08-.048.123-.213.1-.172.09s.043.074,0,.328l-.044.256-.164.354.03.361.09.313-.128.128-.088.3s.121.2.225.08l.1-.121.153.072-.136.209-.112.008-.049.209.233.041-.1.192s-.057-.192-.2.033l-.145.224-.159-.065-.041-.12-.066-.172s-.04-.082-.167.017l-.128.1-.145-.016-.127.041-.062.14-.219.052-.24-.056s.106.026,0-.091l-.1-.118-.3.064-.142.167-.051.075-.272.119-.023.075-.008.157-.089.24-.259.234-.174.223-.122.121-.216.064-.167-.022-.386.223-.216.184-.209-.033-.224-.052-.192.229.135.128-.1.234-.121.127-.336.233-.152-.047-.254.007-.109.032-.17.153.012.158v.129l-.209.008L83.03,48.2l-.159-.079-.209.008-.042-.1.029-.047.075-.084-.022-.118-.109-.054-.147-.043-.1-.09-.024-.106-.086-.086v.086l-.046.128-.048.125.056.195.012.131.09.058-.028.1-.029.139.008.088-.055.068-.01.085-.076.073-.124-.049-.256-.1-.171.06-.06.014-.024-.111.024-.075-.164-.1-.17-.017-.119.013-.109.06H80.72l-.19-.048-.107.006-.165.056-.059.075.059.146s-.027.018.064.069l.091.049-.107.075-.024.119.059.042-.086.185.112.057h.145l.11-.035.064.042.113.014.181.139.051.1.089.022s0,.011.028.1l.036.114.113.015.154-.056-.022.09-.069.068,0,.115.075.082.151.057.032.091-.086.081-.069.138.016.148.077.1.084.085.009.123.11.026.129.1.05.141-.084.094-.11.2.076.153-.037.118-.1.208-.029.245-.14.123-.089.324-.03.259-.2.3-.092.246-.081.118-.168.022-.068-.045s-.032-.016-.131.01l-.1.027-.126-.072-.08-.156-.082-.026-.073.083-.1.027-.2-.181h-.216l-.158-.034h-.272l-.186-.059-.095-.081-.09-.077-.2-.027-.164,0-.216-.03-.127-.11L78,52.677l-.153.026-.19.006-.023-.1s.167-.048-.054-.133l-.222-.085-.171.008-.11.076-.1.1.01.1s0,.027-.064.036l-.063.009-.17-.045-.264.109-.111.147.037.216.114.077.015.142.066.042-.1.073-.145.335-.072.3v.462l-.036.194-.086.422-.146.43-.164.137-.263.384-.248.307-.189.426.108.421.217.039.131.079,0,.108-.127.154-.172.236,0,.267-.113.172,0,.175-.178.241.069.086.141-.092.267-.1.09.053.085.081.313.049.1-.15.161-.056.038.056.017.117.343.164.024.127-.024.18.047.19,0,.146.084.124.05.067.014.181.122.09.163.023.151-.085.168-.042.13-.158.163-.158.163.044.191.036.3-.035.421.014.236.153.211-.037.161.006.094.006.083-.126.063-.074.081-.258.4-.176.132.066.086.065.13.014.022-.086s0,.011,0-.107v-.117l.024-.114.132-.208.1-.133.121-.058.1-.03.187-.017.014-.15.2-.068,0-.117-.15-.15-.138-.094v-.435l.132-.172.237-.2L82,56.551l.039-.234.058-.132.15-.037.306,0s.049.072.182-.052l.132-.124.263-.029.167-.072.095-.134.313-.1.1-.113,0-.256.05-.229-.045-.177.113-.26.118-.129.127-.145.148-.01.061-.072s-.027-.036.076,0l.1.037.15.091.259.115.2.026.176.136.246.135.2.085.325-.09.087-.131.135.027.073.08s.014.09.081.073l.067-.016.11-.033.113-.207.09-.126.152-.178.07-.119.192-.043.044-.018.09-.092.29-.045.072.034.068.131.087.1s-.178.072-.014.191l.163.117.113-.01.095.127-.082.267.072.231.123.1-.064.168-.07.091-.1.026-.106-.006-.084.132.045.086.118.068.154.05.121-.237.06.057.064.13.123.131-.033.222.033.141a.356.356,0,0,1,.226,0l.108.042-.072.13.082.122.091.125.071-.011.006.3.172.166.253.068,0,.136.19.055.128.149.149.309.14.113.173.081-.137.2.116.02.166.022.113.1-.027.236.162.127-.028.149.212.07.11.034.05.263.041.349-.1.172.087.217-.069.14-.095.032-.068.277-.114.041-.2,0-.119.1L90.3,60.6l-.145-.068-.226.126s.04.049-.241-.037l-.28-.086s.158-.122-.095-.2l-.254-.081-.086.068s.068-.209-.131-.054l-.2.154.024.287.016.242.312.1.191.221.207.178.187.194.117.091.123.273.19.1.213.025.074-.225.175-.251-.105-.212.028-.253.14-.22.12-.131.094.106v.1l.126.068.141.073.031-.159.022-.159.155-.095.08.069.1-.041.027-.114s-.181-.006-.017-.224l.164-.218.121-.028.042.076.048.033.113-.109-.023-.181.151-.258-.027-.15-.177-.045-.2-.131-.027-.18-.026-.124.3-.4.064-.08.137.007-.044.11.045.1.212.055,0,.062.093.038.069-.063.032.244.045.249.163.09.125-.172.025-.276-.063-.283-.237-.436-.331-.213-.076-.212-.258-.086-.259-.1-.14-.222-.009-.113.2.032.024-.114.035-.216-.153-.114-.3-.014-.114-.036L91,57l-.09-.1-.434-.769-.027-.344-.092-.249.042-.2-.214-.366-.275-.109-.137-.244-.1-.131.042-.26-.02-.216L89.9,54l.05-.054-.026-.249-.1-.027v-.14l.054-.1.154,0,.095.014.136-.2.09.014.109-.033.059.064-.016.145s-.241.072-.06.158l.181.086.064.068-.021.213-.106.113.144.191.1.021.077-.151.055.128-.013.11.04.1.128.026.076-.01.04-.283.168.281.1.184-.109.123-.086.117-.013.128.053.095.306.136.155.212-.046.134.06.148.062.087.02.125.165.013s.143-.139.1.046,0,.12-.045.186l-.043.066.075.07.271.077.113-.072.276.077s.114-.006.177.168l.063.173.282.306s.165-.116.185.158l.02.275.02.16.18.073.074.008a1,1,0,0,1-.194.286l-.08.045.033.166-.044.4-.087.194-.071.3.127.072.037.14h.176l.032.163-.009.072-.15.018-.018-.086-.1.131s-.068-.018-.017.131.045.123.045.123l.15.158.253.059.059.158.2.217,0,.1s-.209-.168-.1.184.11.334.11.334l.031.151.249.077.031-.113.293.113.265.126.167-.013.072.107.185.019.1-.059,0,.276-.014.152.191.115.126.01.146.275.2-.053-.105-.232-.108-.14,0-.174.053-.043.109.236.245.118.108-.15.063-.054-.023-.218-.292-.036-.043-.063-.044-.25-.118-.14-.113-.15.009-.126-.162-.118-.154-.6-.152-.141-.08-.243-.067-.259.059-.2h.071s.04-.015.064.059l.024.075.181.2.067.089.222-.006.118-.1.084-.082.106-.161.172-.076.041-.163.173-.076h.231l.107.142.139.079.129.119.276-.069.023.155s-.292-.056-.047.122l.244.176.16,0,0,.055-.054.176-.059.068-.109.082-.075-.1-.161.037-.03.11-.008.234.021.177-.031.144-.092.039-.083.016-.148.124.076.091.059.086.179.078.121-.014.058.045.113-.1-.076-.187.137-.183.1-.01.1.062-.086.217-.1.2.109.139-.131.109-.14.059-.141-.077-.106.051-.111-.014-.086-.082-.091.123-.022.158s-.082.2.013.227l.095.028.1.018.06-.151.092-.067.062.139.022.225s.015.122.095.089l.081-.032.164-.006.19.159L98,62.486l-.086.05-.208-.095-.121.048-.035.173.01.141.091.077.15-.069.036.05-.018.19.154.064-.123.081s.062.053-.023.129l-.086.076-.13.043-.039.173-.116.171.236-.014.091-.157.08-.066.1-.2.25-.037s.306-.04.194.05l-.111.09-.133.014-.1.146.072.1.209-.032-.042.185s.026-.125-.12.053-.146.151-.146.151l-.014.132.009.113.124.084.261-.129-.032-.1.1-.181.019-.253.189-.076,0,.19.15.123.068-.041.135-.1v.194l-.1.153.069.213.212.134.189.07.119.076.177-.023.115-.185.117-.173-.033-.282.175-.151.192.042.108.147.469.233.008.2.178.285.48.223.189-.091.146.086.244.1.107-.308.105-.12.226-.183.115.251.2.078.21.06.078-.145.15-.169.1.042.152.067-.042.163-.211.061-.054.209.007.157-.181.306-.054.247.217.42-.2.167.015.151.086.17-.192.163-.3.626-.078.36-.2.275-.479,1.348-.3.241-.258.006s.042-.151-.439-.048l-.481.1-.289-.6-.294-.1-.229-.169-.44.045-.244.185-.36.141-.212.206-.276-.024-.162-.294-.355-.067-.793-.579-1.066-.22-.452-.736-.876-.322-.48-.805-.816.2-.748.125.023.867-.1.809-.577.123-.446-.53-.393-.643L90,67.354l-.513-.768.1-.65-.665-.291-.662-.092L87.111,65l-.509-.989.461-.815.325-.351-.142-.767.531-.948-.45-.241-.313.191-.12-.395s.264-.35-.626-.062l-.889.29-.73-.293-1.05-.309-2.125.119-1.507.416-.787.408-.9-.246-.574-.5-.393.266-.305-.386h-.425l-.324.645-.481.623-1.02.532-1.092.7-.475,1.306.138.81-.746,1.01-1.032.512-1.213.427-.517.819-.94.431-.4,1.356-1.02.833-.622,1.327-.7.837.1.66.6.206-.354.685-.143.512.076.958-.407,1.137-.322.663-.123.456-.683.909.346,1.077-.346.79-.151.767.351.655.388-.115.2.758.427,1.052.245.114-.128,1.63.866,1.467.826,1.128.762,1.421.818.793.865-.216.375-.422,1.456.1.6.7.722.216.321-.494.328.207.844-.586.72.057,1.687-.209.814.256.146,1.089-.05.836.588.255.285-.152,1.052.075.625.567.133.988-.23,1.441-.367.426-.057.693-.515.637-.264,1.274,1.178,3.367.506.986-.61.578.689,1.8-.378.95.427,1.869-.449,1.379-.679.276-.828.75-.214,1.544-.428,1.371-.188,1.131.284,1.043.075.514a38.4,38.4,0,0,0,19.778-6.9l-.019-1.2.475-.305-.361-.824.938-1.686.682-1.375.663-.446.531-.455.439-1.067,1.314-.867L104.76,99.4l1.355-1.062,1.1-1.44.673-.909.815-1.622.692-1.089.284-.777.483-.285.232-.469-.353-.184.227-.8.2-.126-.512-.139-.138-.2-.156.405-.3.138-.449.1-.322.01-.626-.2-.745.048-.432.553-.626-.506-.432.338-.7-.192.014-.567-.208-.3H104.4l.125-.347.289-.093.228-.212-.089-.262.115-.611-.368-.166-.348-.306.024-.433-.285-.492-.077-.375-.376-.346-.465-.23-.36-.626.046-1.043-.215-.351.167-.854-.431-.325-.362.072-.673-3.463.037-3.521-1.1-2.349-.48-2.6.543-.276,1.194,1.7.388.891a12.032,12.032,0,0,1,.788,3.071l.262,1.92.941,2.8,1.656,2.877-.547,2.26.547,2.358,2.191-.264,2.52-.815,1.166-.588v-.9l1.743.093.78-.51.278-.328a38.683,38.683,0,0,0,.924-7.76l-.849,1.194-.962.608-1.379-.513.214-.8.107-1.185-.335-.209-.274.427s-.514,1.033-.514.232v-.8l.237-.5L111,75.371l-.541-1.089-.018-1.119.274-.1.13-.509.385.513.348-.421.71,2.3.639.715.488.63.436.5.585.535.4-.544.357.444c0-.062,0-.125,0-.189A38.579,38.579,0,0,0,96.942,44.232l-.57.378-.36.786-.446.218-.5.416-.545-.512s.563-.348-.127-.254l-.691.094-1.522.513-.16-.1-.023-.851-.586-.078-.665.438-.361.139.136-.313.18-.129,0-.264H90.43l-.209.056-.1-.125.1-.172-.166-.289-.032-.3.167-.232.317-.366.1-.275s-.108.023-.068-.241l.04-.264.194-.119.129-.279.007-.271-.122-.1ZM65.687,39.993c-.5.757-.484.748-.341.74s.433-.018.433.821c0,1.7.072,1.032.072,1.032l.384.669v.85l.216.7.337.7v.577l-.072.486.216.547.29.7.625-.152.337-.212.479.06.195.4.216.212.65-.031.216-.394.626-1.945.986-1.46.674-1.547.987-.877,1.105-.672.265-.79v-.9l1.105-.865-.134-.193a38.553,38.553,0,0,0-9.866,1.547" transform="translate(-38.148 -38.446)" fill="none"/>
    </clipPath>
    <linearGradient id="linear-gradient-6" x1="-0.192" y1="1.173" x2="-0.183" y2="1.173" gradientUnits="objectBoundingBox">
      <stop offset="0" stop-color="#7cab71"/>
      <stop offset="0.086" stop-color="#7cab71"/>
      <stop offset="0.231" stop-color="#85be78"/>
      <stop offset="0.502" stop-color="#95dc84"/>
      <stop offset="0.734" stop-color="#9eee8b"/>
      <stop offset="0.898" stop-color="#a2f58e"/>
      <stop offset="1" stop-color="#a2f58e"/>
    </linearGradient>
    <clipPath id="clip-path-22">
      <rect id="Rectángulo_455374" data-name="Rectángulo 455374" width="16.013" height="14.077" fill="none"/>
    </clipPath>
    <clipPath id="clip-path-23">
      <rect id="Rectángulo_455375" data-name="Rectángulo 455375" width="77.217" height="77.217" fill="none"/>
    </clipPath>
    <clipPath id="clip-path-24">
      <rect id="Rectángulo_455376" data-name="Rectángulo 455376" width="16.52" height="9.538" fill="none"/>
    </clipPath>
  </defs>
  <g id="Grupo_1179128" data-name="Grupo 1179128" transform="translate(-1189.715 -8711.964)">
    <g id="Grupo_1177117" data-name="Grupo 1177117" transform="translate(892.565 4295.54)">
      <rect id="Rectángulo_401003" data-name="Rectángulo 401003" width="144.479" height="152.843" rx="29" transform="translate(303.762 4417.924)" fill="none" stroke="#fe8938" stroke-miterlimit="10" stroke-width="3"/>
      <g id="Grupo_1179103" data-name="Grupo 1179103" transform="translate(297.15 4421.794)">
        <g id="Grupo_1179102" data-name="Grupo 1179102" clip-path="url(#clip-path)">
          <g id="Grupo_1179061" data-name="Grupo 1179061">
            <g id="Grupo_1179060" data-name="Grupo 1179060" clip-path="url(#clip-path)">
              <g id="Grupo_1179047" data-name="Grupo 1179047" transform="translate(121.162 87.918)" style="mix-blend-mode: multiply;isolation: isolate">
                <g id="Grupo_1179046" data-name="Grupo 1179046">
                  <g id="Grupo_1179045" data-name="Grupo 1179045" clip-path="url(#clip-path-3)">
                    <path id="Trazado_1001840" data-name="Trazado 1001840" d="M158.022,93.405c-5.4-3.118-14.184-3.1-19.619.036a8.229,8.229,0,0,0-3.725,3.892l-9.163,5.29L137.2,109.37l5.185-2.994c5.109,1.339,11.352.8,15.575-1.643,5.435-3.137,5.463-8.209.062-11.327" transform="translate(-125.516 -91.077)" fill="#becdd4"/>
                  </g>
                </g>
              </g>
              <path id="Trazado_1001841" data-name="Trazado 1001841" d="M151.357,31.025s.391,4.021.8,7.995c.365,3.5.741,6.958.877,7.616.292,1.4,3.585,8.712,3.867,9.552a3.269,3.269,0,0,1,.12.638,10.186,10.186,0,0,1-.017,2.2c-.08.614-.233,1.088-.475,1.127-.625.105-.592.314-.585.4s.733.1.733.1-.822.3-.908.535.375.269.375.269-.369.435-.222.512a4.037,4.037,0,0,0,.937.028,1.341,1.341,0,0,0-.269.376c-.02.076.041.149.131.2a.61.61,0,0,0,.282.08,5.845,5.845,0,0,0,1.465-.6,19.641,19.641,0,0,0,.765-2.252,12.643,12.643,0,0,0-.373-2.351,27.645,27.645,0,0,1-.6-4.183c-.4-3.07-1.824-9.16-2.181-9.623s-1.018-5.723-1.8-9.184-2.92-3.437-2.92-3.437" transform="translate(-5.25 -1.076)" fill="#febfbf"/>
              <path id="Trazado_1001842" data-name="Trazado 1001842" d="M157.61,60.7a3.924,3.924,0,0,0-.186,1.039c.016.4-.037,1.034-.321,1.111s-.522-.017-.53-.423a11.044,11.044,0,0,1,.095-1.4c.046-.294-.163-1.352-.116-1.824s.294-1.418.877-1.528.78.473.81.937a5.535,5.535,0,0,1-.378,1.69c-.077.129-.249.4-.249.4" transform="translate(-5.43 -2)" fill="#fec7c6"/>
              <path id="Trazado_1001843" data-name="Trazado 1001843" d="M156.3,62.457s-.368.435-.222.512a4.046,4.046,0,0,0,.938.028,1.322,1.322,0,0,0-.269.376c-.021.076.04.149.131.2a.967.967,0,0,1,.222-.3c.17-.1.322-.044.544-.152a1.594,1.594,0,0,0,.453-.451l.369-1.011s-.181-.364-.389-.831a2.628,2.628,0,0,1-.209-.934,5.5,5.5,0,0,0-.707.135c-.079.614-.233,1.088-.475,1.127-.624.105-.592.314-.584.4s.732.1.732.1-.821.3-.907.535.374.269.374.269" transform="translate(-5.408 -2.077)" fill="#fa9698"/>
              <path id="Trazado_1001844" data-name="Trazado 1001844" d="M152.186,39.307c.364,3.5.74,6.958.876,7.616.293,1.4,3.586,8.712,3.868,9.552a3.207,3.207,0,0,1,.119.638,3.282,3.282,0,0,0,.348-1.382c-.062-.736-2.582-6.5-3.075-8.287s-1.773-7.921-1.773-7.921a2.877,2.877,0,0,0-.363-.215" transform="translate(-5.279 -1.363)" fill="#fa9698"/>
              <path id="Trazado_1001845" data-name="Trazado 1001845" d="M150.532,30.188A3.334,3.334,0,0,1,153.7,31.94c1.168,2.012,2.119,8.939,2.119,8.939s-.955,1.573-4.19,1.824-1.092-12.515-1.092-12.515" transform="translate(-5.197 -1.047)" fill="#ffdc6e"/>
              <path id="Trazado_1001846" data-name="Trazado 1001846" d="M152.668,93.913s2.433,1.466,2.881,1.679a13.244,13.244,0,0,1,2.756,1.988,1.2,1.2,0,0,1,.158,1.125,1.845,1.845,0,0,1-1.11.783,8.5,8.5,0,0,1-3.416-.728,3.363,3.363,0,0,1-1.125-.855c-.145-.05-1.071-.278-1.071-.278a.742.742,0,0,1-.648.06c-.432-.116-1.739-.489-1.846-.834a5.5,5.5,0,0,1,.008-2.151c.174-.587,3.411-.788,3.411-.788" transform="translate(-5.173 -3.257)" fill="#5c6467"/>
              <path id="Trazado_1001847" data-name="Trazado 1001847" d="M153.133,94.316s1.559.927,1.362,1.445-1.919.5-2.617.249c-.848-.3-1.2-.575-1.321-1.122s.589-.637.589-.637Z" transform="translate(-5.222 -3.269)" fill="#febfbf"/>
              <path id="Trazado_1001848" data-name="Trazado 1001848" d="M154.689,68.312c-.72,5.7-.7,6.545-.784,7.89s-.816,16.766-.805,16.966a2.909,2.909,0,0,1-2.1,1.016,1.7,1.7,0,0,1-.328,0c-1.2-.095-1.589-.243-1.653-.741s-.963-13.122-.878-15.462c-.626-2.722-.5-11.057-.424-14.4.021-.879.042-1.419.042-1.419l7.148-3.464a42.2,42.2,0,0,1-.222,9.616" transform="translate(-5.121 -2.036)" fill="#7282b5"/>
              <g id="Grupo_1179050" data-name="Grupo 1179050" transform="translate(142.536 61.498)" style="mix-blend-mode: multiply;isolation: isolate">
                <g id="Grupo_1179049" data-name="Grupo 1179049">
                  <g id="Grupo_1179048" data-name="Grupo 1179048" clip-path="url(#clip-path-4)">
                    <path id="Trazado_1001849" data-name="Trazado 1001849" d="M151,94.361a1.7,1.7,0,0,1-.328,0c-1.2-.1-1.589-.243-1.653-.741s-.963-13.122-.878-15.462c-.626-2.722-.5-11.058-.424-14.4,1.027-.255,2.033.529,2.722,3.516,0,0-1.546,1.091-1.346,5.55s.519,5.741.551,7.234.021,11.342.4,12.815A3.8,3.8,0,0,0,151,94.361" transform="translate(-147.657 -63.708)" fill="#e8d0c8"/>
                  </g>
                </g>
              </g>
              <path id="Trazado_1001850" data-name="Trazado 1001850" d="M146.088,98.1a2.866,2.866,0,0,1,.226.282c.382.5,1.16,1.559,1.648,2.144a12.487,12.487,0,0,1,1.854,3.279.977.977,0,0,1-.184.884,2.5,2.5,0,0,1-2.046.539,4.444,4.444,0,0,1-2.8-1.648c-.661-.805-1.8-2.55-2.045-2.862s-1.086-.956-1.223-1.257a3.5,3.5,0,0,1,.23-1.979c.257-.361,4.414.576,4.414.576Z" transform="translate(-4.906 -3.378)" fill="#5c6467"/>
              <path id="Trazado_1001851" data-name="Trazado 1001851" d="M145.71,97.544s1.135,1.485,1.051,1.946-1.17.735-1.846.576-2.366-1.344-2.23-1.848,3.024-.675,3.024-.675" transform="translate(-4.949 -3.383)" fill="#febfbf"/>
              <path id="Trazado_1001852" data-name="Trazado 1001852" d="M151.08,65.754c-.371,1.345-2.764,3.061-2.764,3.061s-.361,3.464-.826,10.665c-.17,2.712-.5,9.616-1.239,17.645a2.833,2.833,0,0,1-3.187.593,4.236,4.236,0,0,1-.615-.307,3.381,3.381,0,0,1-.6-.445,97.266,97.266,0,0,1-.678-10.782c.011-2.033.477-6.778.5-7.721.562-3.093-2.308-7.371-1.822-15.866.032-.656.858-1.059,2.045-1.3,3.272-.656,9.309-.085,9.309-.085a19.542,19.542,0,0,1-.117,4.544" transform="translate(-4.849 -2.115)" fill="#7282b5"/>
              <path id="Trazado_1001853" data-name="Trazado 1001853" d="M142.76,97.608c-1.337-7.051-.248-15.329.111-18.05.035-.271.063-.483.079-.626.145-1.273-.432-4.436-1.043-7.783-.122-.669-.247-1.351-.369-2.037a23.837,23.837,0,0,1-.195-7.443l.261.045a23.636,23.636,0,0,0,.195,7.351c.122.684.246,1.367.368,2.036.641,3.513,1.2,6.548,1.045,7.861-.016.145-.044.357-.08.63-.356,2.711-1.442,10.958-.112,17.966Z" transform="translate(-4.896 -2.139)" fill="#a0abcd"/>
              <g id="Grupo_1179053" data-name="Grupo 1179053" transform="translate(134.939 59.181)" style="mix-blend-mode: multiply;isolation: isolate">
                <g id="Grupo_1179052" data-name="Grupo 1179052">
                  <g id="Grupo_1179051" data-name="Grupo 1179051" clip-path="url(#clip-path-5)">
                    <path id="Trazado_1001854" data-name="Trazado 1001854" d="M142.131,90.941c.127,2.182.19,4.638.318,6.482a3.381,3.381,0,0,1-.6-.445,97.286,97.286,0,0,1-.678-10.782c.011-2.034.476-6.778.5-7.722.562-3.092-2.309-7.371-1.822-15.865.032-.656.858-1.059,2.045-1.3.222.656-.922,1.123-.7,1.917,0,0-.265,5.7.2,7.879s1.4,6.525,1,8.378a52.943,52.943,0,0,0-.254,11.459" transform="translate(-139.787 -61.307)" fill="#e8d0c8"/>
                  </g>
                </g>
              </g>
              <path id="Trazado_1001855" data-name="Trazado 1001855" d="M155.1,57.137s-.318,2.235-4.522,4.088a15.344,15.344,0,0,1-8.155,1.176,7.834,7.834,0,0,1-1.345-.307c-1.387-.5-1.525-.657-1.568-1.314s.042-4.48-.339-8.716a49.413,49.413,0,0,0-2.235-9.553c0-.042-.212-.826-.4-1.748a17.3,17.3,0,0,1-.434-2.5c-.011-.974.275-2.012,2.139-3.632s3.517-2.965,4.364-3.559,5.454-1.313,6.9-1.123c3.506.434,3.824,3.887,4.046,4.968a51.465,51.465,0,0,1,.688,7.647c-.053,2.118-.286,3.993-.275,6.449a64.826,64.826,0,0,0,1.133,8.123" transform="translate(-4.721 -1.038)" fill="#fdd249"/>
              <g id="Grupo_1179056" data-name="Grupo 1179056" transform="translate(131.818 38.937)" style="mix-blend-mode: multiply;isolation: isolate">
                <g id="Grupo_1179055" data-name="Grupo 1179055">
                  <g id="Grupo_1179054" data-name="Grupo 1179054" clip-path="url(#clip-path-6)">
                    <path id="Trazado_1001856" data-name="Trazado 1001856" d="M144.9,58.854c-.805,1.811-2.1,1.451-2.139,2.7a4.026,4.026,0,0,1-.318,1.207,7.827,7.827,0,0,1-1.346-.307c-1.387-.5-1.525-.656-1.567-1.313s.042-4.48-.339-8.717a49.483,49.483,0,0,0-2.236-9.553c0-.042-.211-.826-.4-1.748a8.039,8.039,0,0,1,4.924-.678,24.381,24.381,0,0,0-1.048,3.5l.053.487s4.278,2.2,4.628,2.732.594,9.882-.211,11.693" transform="translate(-136.554 -40.336)" fill="#dedede"/>
                  </g>
                </g>
              </g>
              <path id="Trazado_1001857" data-name="Trazado 1001857" d="M135.948,63.477l8.931-5.157V48.072l-8.931,5.157Z" transform="translate(-4.715 -1.667)" fill="#c99a6b"/>
              <path id="Trazado_1001858" data-name="Trazado 1001858" d="M144.879,48.072l-8.931,5.157,4.819-2.578Z" transform="translate(-4.715 -1.667)" fill="#87623f"/>
              <path id="Trazado_1001859" data-name="Trazado 1001859" d="M135.627,63.477,126.7,58.32V48.072l8.931,5.157Z" transform="translate(-4.394 -1.667)" fill="#ae835b"/>
              <path id="Trazado_1001860" data-name="Trazado 1001860" d="M135.627,53.043,126.7,47.886l8.931-5.157,8.931,5.157Z" transform="translate(-4.394 -1.482)" fill="#e8b687"/>
              <path id="Trazado_1001861" data-name="Trazado 1001861" d="M140.117,55.025l1.435-.828V50.149l-1.435.828Z" transform="translate(-4.86 -1.739)" fill="#d9af84"/>
              <path id="Trazado_1001862" data-name="Trazado 1001862" d="M139.8,50.791l-8.931-5.157,1.434-.828,8.932,5.157Z" transform="translate(-4.539 -1.554)" fill="#ebcbab"/>
              <path id="Trazado_1001863" data-name="Trazado 1001863" d="M126.7,48.072l8.931,5.157-4.819-2.578Z" transform="translate(-4.394 -1.667)" fill="#87623f"/>
              <path id="Trazado_1001864" data-name="Trazado 1001864" d="M131.883,55.115l-1.435-.828V50.238l1.435.829Z" transform="translate(-4.525 -1.742)" fill="#9c754e"/>
              <g id="Grupo_1179059" data-name="Grupo 1179059" transform="translate(125.923 43.339)" style="mix-blend-mode: screen;isolation: isolate">
                <g id="Grupo_1179058" data-name="Grupo 1179058">
                  <g id="Grupo_1179057" data-name="Grupo 1179057" clip-path="url(#clip-path-7)">
                    <path id="Trazado_1001865" data-name="Trazado 1001865" d="M131.883,50.881l8.931-5.157L139.38,44.9l-8.932,5.157Z" transform="translate(-130.448 -44.896)" fill="#54493e"/>
                  </g>
                </g>
              </g>
              <path id="Trazado_1001866" data-name="Trazado 1001866" d="M131.244,50.512l8.931-5.157-.1-.057-8.931,5.157Z" transform="translate(-4.549 -1.571)" fill="#d1a986"/>
              <path id="Trazado_1001867" data-name="Trazado 1001867" d="M131.883,51.067v.167l-.875-.468-.561-.351v-.176Z" transform="translate(-4.525 -1.743)" fill="#ae835b"/>
              <path id="Trazado_1001868" data-name="Trazado 1001868" d="M140.912,50.722l-.794.425v-.17l1.435-.829v.173Z" transform="translate(-4.86 -1.739)" fill="#ae835b"/>
              <path id="Trazado_1001869" data-name="Trazado 1001869" d="M136.947,36.18s-10.6,10.6-10.664,11.369,3.229,12.032,3.437,12.94a3.654,3.654,0,0,0,1.229,2.041c.523.405,3.244,2.1,3.822,2.035a1.628,1.628,0,0,0,.848-.3,8.385,8.385,0,0,0,1.584-.834c.217-.256.605-.831.54-1.143s-2.083.876-2.24.888-1.559-1.4-2.352-2.025-.984-.381-1.2-1.659-1.267-10.252-1.149-10.738,4.343-3.114,6.759-5.221,3.152-3.437,2.512-5.4-1.93-2.827-3.127-1.961" transform="translate(-4.38 -1.243)" fill="#febfbf"/>
              <path id="Trazado_1001870" data-name="Trazado 1001870" d="M132.686,61.815s-.4.417.265,1.116a2.579,2.579,0,0,0,1.931.791,4.179,4.179,0,0,1,1.1.238s.657.644,1.071.624.458-.447.327-.74-1.029-.761-1.156-.855a19.014,19.014,0,0,0-1.6-1.071c-.246-.1-1.546-.466-1.939-.1" transform="translate(-4.598 -2.139)" fill="#fec7c6"/>
              <path id="Trazado_1001871" data-name="Trazado 1001871" d="M131.046,42.1a50.022,50.022,0,0,0,4.462,3.79c.809.391,4.835-3.683,5.231-4.3a3.87,3.87,0,0,0-1.271-5.5,2.489,2.489,0,0,0-3.358.545c-.562.453-5.063,5.468-5.063,5.468" transform="translate(-4.545 -1.236)" fill="#ffdc6e"/>
              <path id="Trazado_1001872" data-name="Trazado 1001872" d="M135.248,55.931,133.2,54.747V52.4l2.048,1.183Zm-1.914-1.261,1.78,1.027V53.656l-1.78-1.027Z" transform="translate(-4.62 -1.817)" fill="#87623f"/>
              <path id="Trazado_1001873" data-name="Trazado 1001873" d="M134.479,55.225l-.452-.261V53.78l.452.261Z" transform="translate(-4.649 -1.865)" fill="#87623f"/>
              <path id="Trazado_1001874" data-name="Trazado 1001874" d="M134.907,54.506l-1.341-.774.671-.422Z" transform="translate(-4.633 -1.849)" fill="#87623f"/>
              <path id="Trazado_1001875" data-name="Trazado 1001875" d="M148.981,31.536c-.011,1.038.222,1.408.021,1.726a3.577,3.577,0,0,1-2.807.34,4.517,4.517,0,0,1-.963-.35.01.01,0,0,1-.011-.01,3.649,3.649,0,0,1-1.677-1.688,1.178,1.178,0,0,1-.159-.636,6.938,6.938,0,0,0,1.127-2.219,7.739,7.739,0,0,0,.032-2.658c-.053-.434-.106-.731-.106-.731s-.508-1.747.106-1.875,4.691,3.379,4.691,3.379-.095,1.408-.169,2.721c-.021.541-.053,1.071-.064,1.483-.011.212-.021.381-.021.519" transform="translate(-4.973 -0.813)" fill="#ffadb7"/>
            </g>
          </g>
          <g id="Grupo_1179063" data-name="Grupo 1179063" transform="translate(138.41 25.227)">
            <g id="Grupo_1179062" data-name="Grupo 1179062" clip-path="url(#clip-path-8)">
              <rect id="Rectángulo_455361" data-name="Rectángulo 455361" width="8.947" height="9.193" transform="matrix(0.785, -0.62, 0.62, 0.785, -3.533, 2.767)" fill="url(#linear-gradient)"/>
            </g>
          </g>
          <g id="Grupo_1179065" data-name="Grupo 1179065">
            <g id="Grupo_1179064" data-name="Grupo 1179064" clip-path="url(#clip-path)">
              <path id="Trazado_1001877" data-name="Trazado 1001877" d="M145.057,24.61a21.7,21.7,0,0,0,.459,3.907,5.634,5.634,0,0,0,4.785,2.132,5.1,5.1,0,0,0,1.6-3.372,19.107,19.107,0,0,0,.019-2.089,4.106,4.106,0,0,0,.4-1.406c-.069-.4-.184-2.669-.966-3.66a4.52,4.52,0,0,0-4.884-.82c-1.94.783-1.416,5.306-1.416,5.306" transform="translate(-5.029 -0.657)" fill="#febfbf"/>
              <path id="Trazado_1001878" data-name="Trazado 1001878" d="M145.655,25.7s.185-1.274-.615-1.5.106,2.757.106,2.757l-.488.752-.028.322s-.991-1.684-1.263-2.185a3.6,3.6,0,0,1-.508-1.265,19.209,19.209,0,0,1-.425-3.778,3.477,3.477,0,0,1,2.639-2.184,3.206,3.206,0,0,1,2.516-1.014,3.96,3.96,0,0,1,2.908.992,3.13,3.13,0,0,1,1.319,1.877,6.033,6.033,0,0,1,.1,1.151l-.13-.481a3.377,3.377,0,0,1-1.935.183,4.823,4.823,0,0,1-2.272-.712,5.975,5.975,0,0,1,.213,1.422c-.056.383-.283,1.572-.283,1.572s-.753.448-1,.624a1.253,1.253,0,0,0-.37.584l-.095,1.019Z" transform="translate(-4.94 -0.611)" fill="#754554"/>
            </g>
          </g>
          <g id="Grupo_1179067" data-name="Grupo 1179067" transform="translate(138.964 23.451)">
            <g id="Grupo_1179066" data-name="Grupo 1179066" clip-path="url(#clip-path-10)">
              <rect id="Rectángulo_455363" data-name="Rectángulo 455363" width="2.835" height="3.245" transform="translate(-1.048 0.08) rotate(-9.59)" fill="url(#linear-gradient-2)"/>
            </g>
          </g>
          <g id="Grupo_1179075" data-name="Grupo 1179075">
            <g id="Grupo_1179074" data-name="Grupo 1179074" clip-path="url(#clip-path)">
              <path id="Trazado_1001880" data-name="Trazado 1001880" d="M152.121,21.352l-.212.275s-3.865,1.133-4.268,1.239c-.181.042-.5.181-.964.328a9.536,9.536,0,0,1-2.2.434l-1.768.149a7.769,7.769,0,0,1-.3-3.242c.211-1.238,1.662-2.308,3.336-2.8.053-.021.074-.032.074-.032a7.707,7.707,0,0,1,1.208-.233,4.39,4.39,0,0,1,4.278,1.715,5.484,5.484,0,0,1,.816,2.16" transform="translate(-4.937 -0.605)" fill="#fecb4c"/>
              <g id="Grupo_1179070" data-name="Grupo 1179070" transform="translate(137.402 17.135)" style="mix-blend-mode: multiply;isolation: isolate">
                <g id="Grupo_1179069" data-name="Grupo 1179069">
                  <g id="Grupo_1179068" data-name="Grupo 1179068" clip-path="url(#clip-path-12)">
                    <path id="Trazado_1001881" data-name="Trazado 1001881" d="M146.678,23.205a9.61,9.61,0,0,1-2.2.434l-1.768.149a7.761,7.761,0,0,1-.3-3.242c.212-1.239,1.663-2.309,3.337-2.8a2.435,2.435,0,0,0-1.473,1.758,3.992,3.992,0,0,0,2.4,3.7" transform="translate(-142.339 -17.751)" fill="#fcf5e8"/>
                  </g>
                </g>
              </g>
              <path id="Trazado_1001882" data-name="Trazado 1001882" d="M146.894,23.308s3.088,2.657,4.151,1.586a4.76,4.76,0,0,1,3.423-1.233l.817.243a.2.2,0,0,0,.151-.234,32.426,32.426,0,0,0-3.155-2.185s-1.241-1.322-5.386,1.822" transform="translate(-5.095 -0.736)" fill="#725e6d"/>
              <g id="Grupo_1179073" data-name="Grupo 1179073" transform="translate(0 67.431)" style="mix-blend-mode: multiply;isolation: isolate">
                <g id="Grupo_1179072" data-name="Grupo 1179072">
                  <g id="Grupo_1179071" data-name="Grupo 1179071" clip-path="url(#clip-path-13)">
                    <path id="Trazado_1001883" data-name="Trazado 1001883" d="M98.4,150.15l40.675-23.484c3.2-1.848,2.795-5.1-.9-7.238L55.37,71.62c-3.7-2.133-9.336-2.367-12.536-.519L2.158,94.583c-3.2,1.848-2.795,5.1.9,7.238l82.808,47.809C89.56,151.764,95.2,152,98.4,150.15" transform="translate(0 -69.854)" fill="#dee5e9"/>
                  </g>
                </g>
              </g>
            </g>
          </g>
          <g id="Grupo_1179077" data-name="Grupo 1179077" transform="translate(0 63.376)">
            <g id="Grupo_1179076" data-name="Grupo 1179076" clip-path="url(#clip-path-14)">
              <rect id="Rectángulo_455367" data-name="Rectángulo 455367" width="141.235" height="82.144" transform="translate(0 0)" fill="url(#linear-gradient-3)"/>
            </g>
          </g>
          <g id="Grupo_1179082" data-name="Grupo 1179082">
            <g id="Grupo_1179081" data-name="Grupo 1179081" clip-path="url(#clip-path)">
              <path id="Trazado_1001885" data-name="Trazado 1001885" d="M98.4,141.313l40.675-23.484c3.2-1.848,2.795-5.1-.9-7.238L55.37,62.783c-3.7-2.133-9.336-2.367-12.536-.519L2.158,85.746c-3.2,1.848-2.795,5.1.9,7.238l82.808,47.809c3.694,2.133,9.336,2.367,12.536.519" transform="translate(0 -2.116)" fill="#eff0f5"/>
              <path id="Trazado_1001886" data-name="Trazado 1001886" d="M3.059,93.523l82.808,47.809c3.694,2.132,9.336,2.367,12.536.519l40.675-23.484a3.807,3.807,0,0,0,2.142-2.908,3.625,3.625,0,0,1-2.142,3.362L98.4,142.306c-3.2,1.848-8.841,1.614-12.536-.519L3.059,93.977C.926,92.746-.1,91.14.018,89.647c.1,1.359,1.124,2.769,3.042,3.876" transform="translate(0 -3.109)" fill="#bfc4d5"/>
              <path id="Trazado_1001887" data-name="Trazado 1001887" d="M2.687,90.625a5.944,5.944,0,0,0,2.037,1.819l20.164,11.639,25.657,14.811L86.96,139.916c3.092,1.79,7.806,1.986,10.482.436l37.172-21.459,2.8-1.615c2.677-1.549,2.335-4.271-.757-6.059L124.3,104.083,100.985,90.625,69.036,72.177,54.43,63.747c-3.092-1.79-7.813-1.979-10.49-.437L28.584,72.177,3.975,86.384c-1.87,1.083-2.269,2.735-1.288,4.241" transform="translate(-0.075 -2.16)" fill="#2a2a2c"/>
              <path id="Trazado_1001888" data-name="Trazado 1001888" d="M3.25,90.3a3.864,3.864,0,0,0,.258.35,5.548,5.548,0,0,0,1.557,1.268L26.175,104.1l2.918,1.682,22.75,13.128,3.909,2.258,18.965,10.942,12.592,7.27a11.476,11.476,0,0,0,5.609,1.4,8.634,8.634,0,0,0,4.229-.969l8.333-4.805,27.884-16.1,3.754-2.156a2.517,2.517,0,0,0,1.485-2.074c0-1.02-.824-2.062-2.238-2.9L123.041,104.1,99.734,90.646,97.27,89.223,67.765,72.2l-4.217-2.434-9.416-5.435a11.4,11.4,0,0,0-5.62-1.393A9.748,9.748,0,0,0,45.4,63.4a5.222,5.222,0,0,0-1.125.486L29.887,72.2,23.71,75.765,4.322,86.954a2.779,2.779,0,0,0-1.444,1.66A2.1,2.1,0,0,0,3.25,90.3" transform="translate(-0.098 -2.183)" fill="#3a3f47"/>
              <path id="Trazado_1001889" data-name="Trazado 1001889" d="M65.729,70.009,76.9,132.359l12.592,7.27a11.476,11.476,0,0,0,5.609,1.4,8.634,8.634,0,0,0,4.229-.969l8.333-4.805L99.451,89.469l-29.5-17.026Z" transform="translate(-2.28 -2.428)" fill="#3e444d"/>
              <path id="Trazado_1001890" data-name="Trazado 1001890" d="M24.46,75.782,29.844,105.8l22.75,13.128,3.908,2.259L46.148,63.417a5.269,5.269,0,0,0-1.125.485L30.637,72.213Z" transform="translate(-0.848 -2.2)" fill="#3e444d"/>
              <path id="Trazado_1001891" data-name="Trazado 1001891" d="M7.462,91.077a3.719,3.719,0,0,0,.242.329A5.227,5.227,0,0,0,9.167,92.6l19.838,11.454,2.742,1.58L53.127,117.97l3.673,2.123,17.822,10.282,13.294,7.675a10.785,10.785,0,0,0,5.273,1.319,8.115,8.115,0,0,0,3.973-.911l7.831-4.516,26.2-15.128,3.527-2.025a2.364,2.364,0,0,0,1.4-1.948c0-.96-.775-1.938-2.1-2.723l-13.984-8.063-21.9-12.647-2.316-1.337-27.727-16-3.964-2.288-8.848-5.107A10.708,10.708,0,0,0,50,65.366a9.16,9.16,0,0,0-2.927.436,4.958,4.958,0,0,0-1.056.456l-6.279,3.91.143,4L26.14,82.106l-5.95-.366-11.72,6.2A2.606,2.606,0,0,0,7.113,89.5a1.972,1.972,0,0,0,.348,1.58" transform="translate(-0.245 -2.267)" fill="#748acb"/>
              <path id="Trazado_1001892" data-name="Trazado 1001892" d="M12.865,92.1a3.363,3.363,0,0,0,.223.3,4.8,4.8,0,0,0,1.344,1.1l18.225,10.524,2.519,1.451,19.64,11.334,3.375,1.95,16.373,9.446,12.214,7.052a9.913,9.913,0,0,0,4.843,1.21,7.446,7.446,0,0,0,3.651-.837l7.194-4.149,24.074-13.9,3.241-1.86a2.173,2.173,0,0,0,1.282-1.79,3.273,3.273,0,0,0-1.932-2.5l-12.846-7.407L96.163,92.405l-2.128-1.228-25.472-14.7-3.642-2.1-8.128-4.692a9.842,9.842,0,0,0-4.853-1.2,8.4,8.4,0,0,0-2.688.4,4.555,4.555,0,0,0-.971.419L13.791,89.218a2.4,2.4,0,0,0-1.246,1.433,1.812,1.812,0,0,0,.32,1.452" transform="translate(-0.434 -2.375)" fill="#fcfbfa"/>
              <path id="Trazado_1001893" data-name="Trazado 1001893" d="M23.886,80.593l10.021-5.785c.182-.106.159-.292-.052-.414a.8.8,0,0,0-.715-.029L23.119,80.15c-.182.105-.16.292.051.413a.8.8,0,0,0,.716.03" transform="translate(-0.798 -2.577)" fill="#2a2a2c"/>
              <path id="Trazado_1001894" data-name="Trazado 1001894" d="M33.984,74.735a.4.4,0,0,0-.128-.114.8.8,0,0,0-.716-.03L23.119,80.376a.267.267,0,0,0-.077.072.192.192,0,0,1,.077-.3L33.14,74.364a.8.8,0,0,1,.716.029c.17.1.211.236.128.342" transform="translate(-0.798 -2.577)" fill="#3a3f47"/>
              <path id="Trazado_1001895" data-name="Trazado 1001895" d="M36.983,72.614a2.411,2.411,0,0,0,2.181,0,.664.664,0,0,0,.007-1.259,2.411,2.411,0,0,0-2.181,0,.664.664,0,0,0-.007,1.259" transform="translate(-1.267 -2.466)" fill="#3a3f47"/>
              <path id="Trazado_1001896" data-name="Trazado 1001896" d="M37.406,72.393a1.519,1.519,0,0,0,1.378,0,.42.42,0,0,0,0-.8,1.522,1.522,0,0,0-1.378,0,.42.42,0,0,0,0,.8" transform="translate(-1.288 -2.478)" fill="#516f83"/>
              <path id="Trazado_1001897" data-name="Trazado 1001897" d="M34.834,74.06a1.7,1.7,0,0,0,1.54,0,.469.469,0,0,0,0-.889,1.7,1.7,0,0,0-1.54,0,.469.469,0,0,0,0,.889" transform="translate(-1.197 -2.532)" fill="#2a2a2c"/>
              <path id="Trazado_1001898" data-name="Trazado 1001898" d="M9.7,101.542l5.944,3.432c.485.28.881-.019.881-.666a2.121,2.121,0,0,0-.881-1.685L9.7,99.19c-.485-.28-.882.02-.882.667a2.12,2.12,0,0,0,.882,1.684" transform="translate(-0.306 -3.437)" fill="#c4c8d8"/>
              <path id="Trazado_1001899" data-name="Trazado 1001899" d="M9.232,101.832l5.944,3.432c.485.28.881-.019.881-.666a2.121,2.121,0,0,0-.881-1.685L9.232,99.48c-.485-.28-.882.02-.882.667a2.122,2.122,0,0,0,.882,1.684" transform="translate(-0.29 -3.447)" fill="#a0a6c0"/>
              <path id="Trazado_1001900" data-name="Trazado 1001900" d="M48.882,124.149l5.944,3.432c.485.28.881-.019.881-.666a2.121,2.121,0,0,0-.881-1.685L48.882,121.8c-.485-.28-.881.02-.881.667a2.119,2.119,0,0,0,.881,1.684" transform="translate(-1.665 -4.221)" fill="#c4c8d8"/>
              <path id="Trazado_1001901" data-name="Trazado 1001901" d="M48.417,124.439l5.944,3.432c.485.28.881-.019.881-.666a2.121,2.121,0,0,0-.881-1.685l-5.944-3.432c-.485-.28-.881.02-.881.667a2.119,2.119,0,0,0,.881,1.684" transform="translate(-1.649 -4.231)" fill="#a0a6c0"/>
              <path id="Trazado_1001902" data-name="Trazado 1001902" d="M119.876,136c0,.553.342.808.757.568l5.107-2.938a1.831,1.831,0,0,0,.756-1.448c0-.553-.342-.815-.756-.575l-.5.292-4.6,2.656a1.744,1.744,0,0,0-.706,1.054,1.485,1.485,0,0,0-.051.393" transform="translate(-4.158 -4.562)" fill="#a0a6c0"/>
              <path id="Trazado_1001903" data-name="Trazado 1001903" d="M119.928,135.619l4.6-2.662a1.731,1.731,0,0,0,.706-1.047l-4.6,2.655a1.75,1.75,0,0,0-.706,1.055" transform="translate(-4.16 -4.575)" fill="#191f28"/>
              <g id="Grupo_1179080" data-name="Grupo 1179080" transform="translate(32.875 78.503)" style="mix-blend-mode: multiply;isolation: isolate">
                <g id="Grupo_1179079" data-name="Grupo 1179079">
                  <g id="Grupo_1179078" data-name="Grupo 1179078" clip-path="url(#clip-path-16)">
                    <path id="Trazado_1001904" data-name="Trazado 1001904" d="M99.97,119.379c-15.013,8.668-39.428,8.623-54.534-.1S30.254,96.462,45.266,87.8s39.425-8.623,54.532.1,15.182,22.817.172,31.485" transform="translate(-34.056 -81.324)" fill="#becdd4"/>
                  </g>
                </g>
              </g>
            </g>
          </g>
          <g id="Grupo_1179084" data-name="Grupo 1179084" transform="translate(33.049 33.494)">
            <g id="Grupo_1179083" data-name="Grupo 1179083" clip-path="url(#clip-path-17)">
              <rect id="Rectángulo_455370" data-name="Rectángulo 455370" width="118.992" height="118.992" transform="translate(-41.644 35.305) rotate(-40.291)" fill="url(#linear-gradient-4)"/>
            </g>
          </g>
          <g id="Grupo_1179086" data-name="Grupo 1179086" transform="translate(36.653 37.097)">
            <g id="Grupo_1179085" data-name="Grupo 1179085" clip-path="url(#clip-path-18)">
              <rect id="Rectángulo_455371" data-name="Rectángulo 455371" width="108.833" height="108.833" transform="translate(-38.088 32.291) rotate(-40.291)" fill="url(#linear-gradient-5)"/>
            </g>
          </g>
          <g id="Grupo_1179088" data-name="Grupo 1179088">
            <g id="Grupo_1179087" data-name="Grupo 1179087" clip-path="url(#clip-path)">
              <path id="Trazado_1001907" data-name="Trazado 1001907" d="M40.987,87.589c-.007,0,0,0,0,0Z" transform="translate(-1.421 -3.038)" fill="#869741"/>
            </g>
          </g>
          <g id="Grupo_1179090" data-name="Grupo 1179090" transform="translate(36.825 37.113)">
            <g id="Grupo_1179089" data-name="Grupo 1179089" clip-path="url(#clip-path-20)">
              <rect id="Rectángulo_455373" data-name="Rectángulo 455373" width="108.909" height="108.904" transform="translate(-38.407 42.047) rotate(-47.59)" fill="url(#linear-gradient-6)"/>
            </g>
          </g>
          <g id="Grupo_1179101" data-name="Grupo 1179101">
            <g id="Grupo_1179100" data-name="Grupo 1179100" clip-path="url(#clip-path)">
              <g id="Grupo_1179093" data-name="Grupo 1179093" transform="translate(84.473 43.214)" style="mix-blend-mode: screen;isolation: isolate">
                <g id="Grupo_1179092" data-name="Grupo 1179092">
                  <g id="Grupo_1179091" data-name="Grupo 1179091" clip-path="url(#clip-path-22)">
                    <path id="Trazado_1001909" data-name="Trazado 1001909" d="M102.838,57.47c-1.784,2.307-6.509,1.641-10.555-1.488s-5.876-7.535-4.092-9.841S94.7,44.5,98.745,47.628s5.877,7.534,4.093,9.841" transform="translate(-87.509 -44.767)" fill="#7dd171"/>
                  </g>
                </g>
              </g>
              <g id="Grupo_1179096" data-name="Grupo 1179096" transform="translate(36.653 37.098)" style="mix-blend-mode: multiply;isolation: isolate">
                <g id="Grupo_1179095" data-name="Grupo 1179095">
                  <g id="Grupo_1179094" data-name="Grupo 1179094" clip-path="url(#clip-path-23)">
                    <path id="Trazado_1001910" data-name="Trazado 1001910" d="M76.579,38.431A38.609,38.609,0,1,0,115.187,77.04,38.609,38.609,0,0,0,76.579,38.431m-21.6,59.462C40.671,83.748,39.7,61.529,52.8,48.266s35.336-12.549,49.647,1.6,15.289,36.364,2.178,49.624-35.336,12.549-49.647-1.593" transform="translate(-37.97 -38.431)" fill="#d1e89b"/>
                  </g>
                </g>
              </g>
              <path id="Trazado_1001911" data-name="Trazado 1001911" d="M118.084,64.914A34.906,34.906,0,0,1,129.062,68.9a13.5,13.5,0,0,1,4.793,4.574,9.738,9.738,0,0,1,.784,7.583c-1.607,4.8-4.7,7.89-7.675,10.714a59.811,59.811,0,0,1-4.689,3.894c-.8.6-1.6,1.232-2.416,1.783l-1.221.853-.613.427c-.2.151-.5.109-.2,1.25L111.6,87.693c.712.923.828.663,1.04.6l.624-.228,1.25-.457c.849-.293,1.641-.638,2.457-.969a50.727,50.727,0,0,0,4.708-2.17c2.957-1.557,5.874-3.457,7.181-5.63a4.123,4.123,0,0,0,.55-3.289,9.093,9.093,0,0,0-2.522-3.748,29.787,29.787,0,0,0-9.178-5.484Z" transform="translate(-3.871 -2.252)" fill="#ffc536"/>
              <path id="Trazado_1001912" data-name="Trazado 1001912" d="M105.813,111.218,120.047,103V86.668l-14.234,8.218Z" transform="translate(-3.67 -3.006)" fill="#c99a6b"/>
              <path id="Trazado_1001913" data-name="Trazado 1001913" d="M120.047,86.667l-14.234,8.218,7.68-4.108Z" transform="translate(-3.67 -3.006)" fill="#87623f"/>
              <path id="Trazado_1001914" data-name="Trazado 1001914" d="M105.3,111.218,91.068,103V86.668L105.3,94.885Z" transform="translate(-3.159 -3.006)" fill="#ae835b"/>
              <path id="Trazado_1001915" data-name="Trazado 1001915" d="M105.3,94.59,91.068,86.372,105.3,78.154l14.234,8.218Z" transform="translate(-3.159 -2.711)" fill="#e8b687"/>
              <path id="Trazado_1001916" data-name="Trazado 1001916" d="M112.458,97.749l2.287-1.321V89.976L112.458,91.3Z" transform="translate(-3.901 -3.121)" fill="#d9af84"/>
              <path id="Trazado_1001917" data-name="Trazado 1001917" d="M111.947,91,97.713,82.783,100,81.463l14.234,8.218Z" transform="translate(-3.389 -2.826)" fill="#ebcbab"/>
              <path id="Trazado_1001918" data-name="Trazado 1001918" d="M91.069,86.667,105.3,94.885l-7.68-4.108Z" transform="translate(-3.159 -3.006)" fill="#87623f"/>
              <path id="Trazado_1001919" data-name="Trazado 1001919" d="M99.336,97.892l-2.287-1.321V90.12l2.287,1.321Z" transform="translate(-3.366 -3.126)" fill="#9c754e"/>
              <g id="Grupo_1179099" data-name="Grupo 1179099" transform="translate(93.682 78.776)" style="mix-blend-mode: screen;isolation: isolate">
                <g id="Grupo_1179098" data-name="Grupo 1179098">
                  <g id="Grupo_1179097" data-name="Grupo 1179097" clip-path="url(#clip-path-24)">
                    <path id="Trazado_1001920" data-name="Trazado 1001920" d="M99.336,91.145l14.234-8.218-2.288-1.321L97.049,89.824Z" transform="translate(-97.049 -81.607)" fill="#54493e"/>
                  </g>
                </g>
              </g>
              <path id="Trazado_1001921" data-name="Trazado 1001921" d="M98.316,90.556l14.234-8.218-.157-.091L98.159,90.466Z" transform="translate(-3.405 -2.853)" fill="#d1a986"/>
              <path id="Trazado_1001922" data-name="Trazado 1001922" d="M99.336,91.44v.266l-1.394-.746-.893-.56V90.12Z" transform="translate(-3.366 -3.126)" fill="#ae835b"/>
              <path id="Trazado_1001923" data-name="Trazado 1001923" d="M113.724,90.891l-1.267.678V91.3l2.288-1.321v.275Z" transform="translate(-3.901 -3.121)" fill="#ae835b"/>
              <path id="Trazado_1001924" data-name="Trazado 1001924" d="M96.515,100.179a4.948,4.948,0,0,1-4.164,6,172.747,172.747,0,0,1-21.578,1.6,115.411,115.411,0,0,1-26.878-2.617,62.371,62.371,0,0,1-12.919-4.463A43.492,43.492,0,0,1,25,97.253a16.264,16.264,0,0,1-5.182-5.262,8.857,8.857,0,0,1-1.093-3.907,8.7,8.7,0,0,1,.818-3.863,16.829,16.829,0,0,1,4.4-5.59,46.39,46.39,0,0,1,11.419-7.046l.617,1.311a44.515,44.515,0,0,0-10.311,7.546,14.158,14.158,0,0,0-3.317,4.911,5.155,5.155,0,0,0,.526,4.831c2.009,2.857,6.165,4.745,9.939,6.309a57.286,57.286,0,0,0,12.156,3.165,108.88,108.88,0,0,0,25.441.49,164.179,164.179,0,0,0,21.431-3.338,3.776,3.776,0,0,1,4.543,2.813Z" transform="translate(-0.649 -2.483)" fill="#ffc536"/>
              <path id="Trazado_1001925" data-name="Trazado 1001925" d="M84.782.455l-.007.01c-2.064-.858-4.748-.557-7.692,1.143C70.584,5.359,65.317,14.444,65.317,21.9c0,10.148,11.766,21.694,11.766,21.694l3.5,1.729,7.764-43.1Z" transform="translate(-2.266 0)" fill="#ff4c4a"/>
              <path id="Trazado_1001926" data-name="Trazado 1001926" d="M80.709,3.4c6.5-3.752,11.766-.749,11.766,6.708,0,10.148-11.766,35.279-11.766,35.279S68.943,33.841,68.943,23.693c0-7.457,5.267-16.542,11.766-20.294" transform="translate(-2.391 -0.062)" fill="#ff4c4a"/>
              <path id="Trazado_1001927" data-name="Trazado 1001927" d="M74.073,21.062c0,4.32,3.051,6.059,6.816,3.886a15.021,15.021,0,0,0,6.816-11.757c0-4.32-3.052-6.059-6.816-3.886a15.017,15.017,0,0,0-6.816,11.757" transform="translate(-2.569 -0.29)" fill="#fcfbfa"/>
              <path id="Trazado_1001928" data-name="Trazado 1001928" d="M69.877,24.087c0-7.285,5.144-16.158,11.493-19.824C87.649.637,92.356,3.3,92.466,10.41c0-.1.01-.206.01-.3,0-7.457-5.267-10.46-11.765-6.708S68.944,16.236,68.944,23.694c0,10.148,11.766,21.693,11.766,21.693S69.877,34,69.877,24.087" transform="translate(-2.391 -0.062)" fill="#ff8685"/>
            </g>
          </g>
        </g>
      </g>
    </g>
  </g>
</svg>
