<svg xmlns="http://www.w3.org/2000/svg" xmlns:xlink="http://www.w3.org/1999/xlink" width="158.327" height="126.833" viewBox="0 0 158.327 126.833">
  <defs>
    <clipPath id="clip-path">
      <rect id="Rectángulo_455102" data-name="Rectángulo 455102" width="158.327" height="125.333" fill="none"/>
    </clipPath>
  </defs>
  <g id="Grupo_1179119" data-name="Grupo 1179119" transform="translate(-875.117 -5782.179)">
    <g id="Grupo_1179118" data-name="Grupo 1179118">
      <g id="Grupo_1177090" data-name="Grupo 1177090" transform="translate(578.279 1347.679)">
        <rect id="Rectángulo_401003" data-name="Rectángulo 401003" width="144.479" height="116.692" rx="29" transform="translate(303.762 4436)" fill="none" stroke="#fe8938" stroke-miterlimit="10" stroke-width="3"/>
        <g id="Grupo_1178292" data-name="Grupo 1178292" transform="translate(296.838 4436)">
          <g id="Grupo_1178285" data-name="Grupo 1178285" transform="translate(0 0)">
            <g id="Grupo_1178284" data-name="Grupo 1178284" clip-path="url(#clip-path)">
              <path id="Trazado_998172" data-name="Trazado 998172" d="M2.719,36.338,82.335,82.605a14.705,14.705,0,0,0,13.291,0l59.924-34.6c1.843-1.065,2.765-2.472,2.761-3.877l.015,5.4c0,1.405-.918,2.812-2.761,3.877L95.642,88a14.705,14.705,0,0,1-13.291,0L2.734,41.737C.925,40.685.019,39.3.015,37.915L0,32.516c0,1.386.91,2.77,2.719,3.822" transform="translate(0 29.651)" fill="#d51e18"/>
              <path id="Trazado_998173" data-name="Trazado 998173" d="M2.761,47.746c-3.665,2.116-3.684,5.583-.044,7.7l79.617,46.268a14.705,14.705,0,0,0,13.291,0l59.924-34.6c3.665-2.116,3.684-5.583.044-7.7L75.977,13.15a14.709,14.709,0,0,0-13.293,0Z" transform="translate(0 10.544)" fill="#f25757"/>
            </g>
          </g>
          <path id="Trazado_998174" data-name="Trazado 998174" d="M25.031,18.658l.015,5.239,2.1,1.224-.013-5.239Z" transform="translate(22.825 17.014)" fill="#8d8d8d"/>
          <g id="Grupo_1178287" data-name="Grupo 1178287" transform="translate(0 0)">
            <g id="Grupo_1178286" data-name="Grupo 1178286" clip-path="url(#clip-path)">
              <path id="Trazado_998175" data-name="Trazado 998175" d="M26.133,19.3l.015,5.239a.97.97,0,0,1,.568.8L26.7,20.1a.97.97,0,0,0-.568-.8" transform="translate(23.83 17.598)" fill="#bdbdbd"/>
            </g>
          </g>
          <path id="Trazado_998176" data-name="Trazado 998176" d="M42.032,18.236l.015,5.239,4.917,2.858-.013-5.239Z" transform="translate(38.328 16.629)" fill="#8d8d8d"/>
          <g id="Grupo_1178289" data-name="Grupo 1178289" transform="translate(0 0)">
            <g id="Grupo_1178288" data-name="Grupo 1178288" clip-path="url(#clip-path)">
              <path id="Trazado_998177" data-name="Trazado 998177" d="M15.585,20.653l.015,5.239a1.2,1.2,0,0,1,.711-.994,3.75,3.75,0,0,1,3.394.008,1.2,1.2,0,0,1,.7.983l-.015-5.239a1.2,1.2,0,0,0-.7-.983,3.75,3.75,0,0,0-3.394-.008,1.212,1.212,0,0,0-.711.994" transform="translate(14.212 17.56)" fill="#ba7f27"/>
              <path id="Trazado_998178" data-name="Trazado 998178" d="M26.128,20.527l.015,5.239a.984.984,0,0,0,.577-.811l-.015-5.239a.98.98,0,0,1-.577.811" transform="translate(23.826 17.979)" fill="#ba7f27"/>
            </g>
          </g>
          <path id="Trazado_998179" data-name="Trazado 998179" d="M47.142,21.206l.015,5.239,4.9,2.851-.013-5.239Z" transform="translate(42.988 19.337)" fill="#8d8d8d"/>
          <g id="Grupo_1178291" data-name="Grupo 1178291" transform="translate(0 0)">
            <g id="Grupo_1178290" data-name="Grupo 1178290" clip-path="url(#clip-path)">
              <path id="Trazado_998180" data-name="Trazado 998180" d="M13.5,26.818a1.46,1.46,0,0,1-.185-.671L13.3,20.908A1.91,1.91,0,0,0,14.4,22.5l2.16,1.254.015,5.239-.8-.466.013,4.921-2.051-1.193a.994.994,0,0,1-.581-.811L13.146,26.2a.875.875,0,0,0,.356.616" transform="translate(11.988 19.066)" fill="#895d1a"/>
              <path id="Trazado_998181" data-name="Trazado 998181" d="M14.522,24.725l.015,5.239,2.1,1.224-.013-5.239Z" transform="translate(13.243 22.546)" fill="#895d1a"/>
              <path id="Trazado_998182" data-name="Trazado 998182" d="M17.079,30.13l.015,5.239,17.3-9.99-.015-5.239Z" transform="translate(15.574 18.365)" fill="#8b5d1a"/>
              <path id="Trazado_998183" data-name="Trazado 998183" d="M15.624,25.365l.015,5.239a3.082,3.082,0,0,0,2.78,0l-.013-5.239a3.086,3.086,0,0,1-2.782,0" transform="translate(14.247 23.13)" fill="#ba7f27"/>
              <path id="Trazado_998184" data-name="Trazado 998184" d="M16.565,26.535c-.516-.3-1.291-.751-2.16-1.256-1.562-.908-1.457-2.463.266-3.459l5.39-3.111a6.611,6.611,0,0,1,5.957-.134l2.16,1.254,2.845-1.642a3.09,3.09,0,0,1,2.8.008l2.051,1.193,2.1,1.224a.854.854,0,0,1-.008,1.612l-17.3,9.99a3.082,3.082,0,0,1-2.78,0l-2.107-1.226L13.726,29.8a.856.856,0,0,1,0-1.619Zm5.351-3.625a1.04,1.04,0,0,0,0-1.965,3.76,3.76,0,0,0-3.4-.01,1.044,1.044,0,0,0-.011,1.975,3.759,3.759,0,0,0,3.409,0" transform="translate(11.987 16.284)" fill="#ffbd00"/>
              <path id="Trazado_998185" data-name="Trazado 998185" d="M52.252,24.176l.015,5.239,4.9,2.851-.013-5.239Z" transform="translate(47.648 22.045)" fill="#8d8d8d"/>
              <path id="Trazado_998186" data-name="Trazado 998186" d="M57.625,27.3l.015,5.239,4.9,2.851-.013-5.239Z" transform="translate(52.548 24.893)" fill="#8d8d8d"/>
              <path id="Trazado_998187" data-name="Trazado 998187" d="M62.728,30.264l.015,5.239,4.919,2.858-.015-5.239Z" transform="translate(57.201 27.597)" fill="#8d8d8d"/>
              <path id="Trazado_998188" data-name="Trazado 998188" d="M13.74,49.467l.015,5.239L67.846,23.475l-.013-5.239Z" transform="translate(12.529 16.629)" fill="#8d8d8d"/>
              <path id="Trazado_998189" data-name="Trazado 998189" d="M16.312,50.962l.015,5.239L70.419,24.97l-.013-5.239Z" transform="translate(14.875 17.993)" fill="#6c6c6d"/>
              <path id="Trazado_998190" data-name="Trazado 998190" d="M13.74,34.571l.015,5.239,4.919,2.858-.015-5.239Z" transform="translate(12.529 31.525)" fill="#6b6b6d"/>
              <path id="Trazado_998191" data-name="Trazado 998191" d="M18.85,52.436l.015,5.239L72.956,26.444l-.013-5.239Z" transform="translate(17.189 19.337)" fill="#8d8d8d"/>
              <path id="Trazado_998192" data-name="Trazado 998192" d="M18.85,52.436l4.906,2.851L77.847,24.056l-4.9-2.851Z" transform="translate(17.189 19.337)" fill="#c5c5c8"/>
              <path id="Trazado_998193" data-name="Trazado 998193" d="M18.85,37.541l.015,5.239,4.9,2.851-.013-5.239Z" transform="translate(17.189 34.233)" fill="#6b6b6d"/>
              <path id="Trazado_998194" data-name="Trazado 998194" d="M21.415,53.927l.015,5.239L75.522,27.935,75.506,22.7Z" transform="translate(19.528 20.697)" fill="#6c6c6d"/>
              <path id="Trazado_998195" data-name="Trazado 998195" d="M23.96,55.406l.015,5.239L78.066,29.414l-.013-5.239Z" transform="translate(21.848 22.045)" fill="#8d8d8d"/>
              <path id="Trazado_998196" data-name="Trazado 998196" d="M23.96,40.51l.015,5.239L28.881,48.6l-.015-5.239Z" transform="translate(21.848 36.941)" fill="#6b6b6d"/>
              <path id="Trazado_998197" data-name="Trazado 998197" d="M26.525,56.9l.015,5.239L80.632,30.9l-.015-5.239Z" transform="translate(24.188 23.405)" fill="#6c6c6d"/>
              <path id="Trazado_998198" data-name="Trazado 998198" d="M29.333,58.528l.015,5.239L83.439,32.536,83.426,27.3Z" transform="translate(26.748 24.892)" fill="#8d8d8d"/>
              <path id="Trazado_998199" data-name="Trazado 998199" d="M29.333,43.633l.015,5.239,4.906,2.851-.015-5.239Z" transform="translate(26.748 39.788)" fill="#6b6b6d"/>
              <path id="Trazado_998200" data-name="Trazado 998200" d="M31.9,60.019l.015,5.239L86,34.027l-.015-5.239Z" transform="translate(29.088 26.252)" fill="#6c6c6d"/>
              <path id="Trazado_998201" data-name="Trazado 998201" d="M34.436,61.494l.015,5.239L88.542,35.5l-.015-5.239Z" transform="translate(31.401 27.596)" fill="#8d8d8d"/>
              <path id="Trazado_998202" data-name="Trazado 998202" d="M37.008,62.989l.015,5.239L91.115,37,91.1,31.758Z" transform="translate(33.747 28.96)" fill="#6c6c6d"/>
              <path id="Trazado_998203" data-name="Trazado 998203" d="M34.436,46.6l.015,5.239L39.37,54.7l-.015-5.239Z" transform="translate(31.401 42.492)" fill="#6b6b6d"/>
              <path id="Trazado_998204" data-name="Trazado 998204" d="M26.616,37.247a3.082,3.082,0,0,0,2.78,0l17.3-9.99a.852.852,0,0,0,.01-1.61l-2.1-1.224L65.54,12.335l82.112,47.717L102.833,85.929l-17.041-9.9-17.15,9.9L3.57,48.112,24.509,36.023ZM67.5,80.7l54.091-31.231-4.917-2.858L62.58,77.842Zm-39.568-23L82.024,26.477,77.1,23.619,23.012,54.848Zm9.756,5.671L91.779,32.146l-4.9-2.851L32.782,60.526Zm9.77,5.678,54.091-31.231-4.9-2.851L42.551,66.2ZM57.73,75.024l54.091-31.231-4.9-2.851L52.824,72.173Z" transform="translate(3.255 11.248)" fill="#fefefe"/>
              <path id="Trazado_998205" data-name="Trazado 998205" d="M13.74,49.467l4.919,2.858L72.75,21.094l-4.917-2.858Z" transform="translate(12.529 16.629)" fill="#c5c5c8"/>
              <path id="Trazado_998206" data-name="Trazado 998206" d="M23.96,55.406l4.906,2.851L82.957,27.026l-4.9-2.851Z" transform="translate(21.848 22.045)" fill="#c5c5c8"/>
              <path id="Trazado_998207" data-name="Trazado 998207" d="M29.333,58.528l4.906,2.851L88.33,30.148,83.424,27.3Z" transform="translate(26.748 24.892)" fill="#c5c5c8"/>
              <path id="Trazado_998208" data-name="Trazado 998208" d="M34.436,61.494l4.919,2.858L93.446,33.121l-4.919-2.858Z" transform="translate(31.401 27.596)" fill="#c5c5c8"/>
              <path id="Trazado_998209" data-name="Trazado 998209" d="M37.606,55.55l.015,5.239,17.152-9.9-.015-5.239Z" transform="translate(34.292 41.626)" fill="#8d8d8d"/>
              <path id="Trazado_998210" data-name="Trazado 998210" d="M46.577,45.648l.015,5.239,17.039,9.9-.015-5.239Z" transform="translate(42.473 41.626)" fill="#8d8d8d"/>
              <path id="Trazado_998211" data-name="Trazado 998211" d="M37.606,55.55H71.8l-17.039-9.9Z" transform="translate(34.292 41.626)" fill="#e3e3e3"/>
              <path id="Trazado_998212" data-name="Trazado 998212" d="M3.57,31.048,68.643,68.863l34.19,0,.015,5.223-.015-5.223,44.818-25.877.015,5.239L102.849,74.1H68.658v0L3.585,36.287Z" transform="translate(3.256 28.312)" fill="#8d8d8d"/>
              <path id="Trazado_998213" data-name="Trazado 998213" d="M6.011,46.667,52.541,73.531a5.924,5.924,0,0,1-2.7,4.4,1.881,1.881,0,0,1-1.874.163C34.911,70.5,17.5,60.381,4.434,52.789a1.876,1.876,0,0,0,1.874-.161c.019-.011.036-.033.057-.046L3.648,51.005a5.947,5.947,0,0,1,2.363-4.338" transform="translate(3.327 42.555)" fill="#02567d"/>
              <path id="Trazado_998214" data-name="Trazado 998214" d="M4.435,50.722l43.535,25.3a1.914,1.914,0,0,1-.786-1.786L3.647,48.936a1.92,1.92,0,0,0,.788,1.786" transform="translate(3.326 44.624)" fill="#003959"/>
              <path id="Trazado_998215" data-name="Trazado 998215" d="M5.257,46.677a1.876,1.876,0,0,1,1.874-.161l43.535,25.3a1.914,1.914,0,0,1,.788,1.786c0,.076-.034.157-.04.235L4.884,46.971a4.413,4.413,0,0,1,.373-.294" transform="translate(4.454 42.251)" fill="#003959"/>
              <path id="Trazado_998216" data-name="Trazado 998216" d="M27.509,66.384a2.238,2.238,0,0,1-.348-1.279A5.931,5.931,0,0,1,29.9,60.473a2.272,2.272,0,0,1,1.195-.306,1.471,1.471,0,0,0-.438-.5l1.117.65,1.638.952,1.136.66.834.484c-.065-.036-.13-.071-.2-.109l.31.184c.052.031.105.059.159.088-.092-.054-.182-.109-.273-.163l.545.317c.044.027.088.055.13.086l-.153-.092h0l.023.013.044.027c.029.017.059.033.09.052a1.487,1.487,0,0,1,.44.575c.006.011.015.015.021.029a2.512,2.512,0,0,1,.2.92c0,.057,0,.117,0,.176a4.687,4.687,0,0,1-.224,1.313c-.046.147-.13.287-.187.432a6.3,6.3,0,0,1-.386.86c-.1.163-.218.3-.327.451a6.09,6.09,0,0,1-.512.681,4.948,4.948,0,0,1-.423.359,4.791,4.791,0,0,1-.52.442c-.054.032-.105.063-.159.094a2.538,2.538,0,0,1-1.038.336,1.358,1.358,0,0,1-.281-.059A1.451,1.451,0,0,1,32.1,69.3l-1.377-.8c-.342-.2-.8-.461-1.136-.66a1.433,1.433,0,0,0,.553.117l-.008,0a1.437,1.437,0,0,1-.545-.115c-.493-.285-1.147-.667-1.64-.952l-1.117-.65a1.433,1.433,0,0,0,.679.143" transform="translate(24.466 54.405)" fill="#02567d"/>
              <path id="Trazado_998217" data-name="Trazado 998217" d="M27.161,62.514l0-.011,6.91,3.99c-.033.021-.065.04-.1.059a2.538,2.538,0,0,1-1.038.336,1.357,1.357,0,0,1-.281-.059,1.433,1.433,0,0,1-.553-.117l-1.378-.8c-.34-.2-.8-.461-1.136-.66a1.433,1.433,0,0,0,.553.117l-.008,0a1.437,1.437,0,0,1-.545-.115L27.948,64.3l-1.118-.65a1.438,1.438,0,0,0,.679.143,2.268,2.268,0,0,1-.348-1.279" transform="translate(24.466 56.995)" fill="#003959"/>
              <path id="Trazado_998218" data-name="Trazado 998218" d="M29.985,65.468,32.107,66.7a1.845,1.845,0,0,1-.759-1.723l-2.124-1.235a1.851,1.851,0,0,0,.761,1.725" transform="translate(26.649 58.126)" fill="#bf8f00"/>
              <path id="Trazado_998219" data-name="Trazado 998219" d="M35.8,62.641l-2.122-1.233a1.813,1.813,0,0,0-1.809.155,5.731,5.731,0,0,0-2.642,4.472l2.124,1.233a5.724,5.724,0,0,1,2.64-4.472,1.813,1.813,0,0,1,1.809-.155" transform="translate(26.649 55.836)" fill="#f7bd00"/>
              <path id="Trazado_998220" data-name="Trazado 998220" d="M31.084,68.4a3.669,3.669,0,0,0,5.349-4.3,3.727,3.727,0,0,0-1.66-2.048,1.815,1.815,0,0,0-1.807.157,5.793,5.793,0,0,0-2.583,3.833,7.465,7.465,0,0,0-.025,1.159,1.615,1.615,0,0,0,.725,1.2" transform="translate(27.672 56.424)" fill="#fac93a"/>
              <path id="Trazado_998221" data-name="Trazado 998221" d="M1.826,46.27q.972,1.655,1.948,3.311a1.277,1.277,0,0,1-.153-.667Z" transform="translate(1.665 42.193)" fill="#003959"/>
              <path id="Trazado_998222" data-name="Trazado 998222" d="M5.667,46.324,1.826,46.27l1.8,2.644A3.086,3.086,0,0,1,5.048,46.5a1.261,1.261,0,0,1,.619-.18" transform="translate(1.665 42.193)" fill="#02567d"/>
              <path id="Trazado_998223" data-name="Trazado 998223" d="M2.918,48.324q.912,1.534,1.826,3.069a2.476,2.476,0,0,1-.293-1.287L2.765,47.653a1.269,1.269,0,0,0,.153.671" transform="translate(2.521 43.454)" fill="#bf8f00"/>
              <path id="Trazado_998224" data-name="Trazado 998224" d="M8.385,46.366,4.814,46.3a1.233,1.233,0,0,0-.621.18A3.088,3.088,0,0,0,2.766,48.89l1.686,2.451a5.932,5.932,0,0,1,2.734-4.632,2.41,2.41,0,0,1,1.2-.342" transform="translate(2.522 42.217)" fill="#f7bd00"/>
              <path id="Trazado_998225" data-name="Trazado 998225" d="M27.207,63.955l1.118.65a1.912,1.912,0,0,1-.788-1.786l-1.118-.65a1.92,1.92,0,0,0,.788,1.786" transform="translate(24.091 56.691)" fill="#bf8f00"/>
              <path id="Trazado_998226" data-name="Trazado 998226" d="M32.147,60.4l-1.117-.65a1.881,1.881,0,0,0-1.874.163,5.925,5.925,0,0,0-2.738,4.632l1.118.648a5.934,5.934,0,0,1,2.736-4.632,1.88,1.88,0,0,1,1.874-.161" transform="translate(24.091 54.317)" fill="#f7bd00"/>
              <path id="Trazado_998227" data-name="Trazado 998227" d="M33.606,61.247l-1.136-.66a1.88,1.88,0,0,0-1.874.161,5.931,5.931,0,0,0-2.736,4.632L29,66.04a5.934,5.934,0,0,1,2.736-4.632,1.88,1.88,0,0,1,1.874-.161" transform="translate(25.406 55.082)" fill="#f7bd00"/>
              <path id="Trazado_998228" data-name="Trazado 998228" d="M28.648,64.793l1.136.66A1.916,1.916,0,0,1,29,63.667l-1.136-.66a1.92,1.92,0,0,0,.788,1.786" transform="translate(25.405 57.455)" fill="#bf8f00"/>
              <path id="Trazado_998229" data-name="Trazado 998229" d="M28.457,63.3c0,.031,0,.061,0,.092l.132.076c.006-.023.013-.044.021-.067-.05-.032-.1-.067-.151-.1" transform="translate(25.948 57.726)" fill="#02567d"/>
              <path id="Trazado_998230" data-name="Trazado 998230" d="M28.642,63.461a1.912,1.912,0,0,0,.788,1.786l-1.638-.952A1.912,1.912,0,0,1,27,62.509Z" transform="translate(24.623 57.001)" fill="#003959"/>
              <path id="Trazado_998231" data-name="Trazado 998231" d="M31.378,62c-.055.031-.1.09-.159.124l-1.461-.843c.084-.055.157-.143.243-.191a1.88,1.88,0,0,1,1.874-.161l.832.484c-.063-.038-.13-.073-.193-.109.1.061.2.122.308.182l.159.09c-.09-.054-.182-.109-.273-.163l.545.317a.957.957,0,0,1,.13.086l-.151-.092h0l.023.013.042.025c.031.019.061.034.09.054a1.377,1.377,0,0,1,.2.254l-.39-.226A1.813,1.813,0,0,0,31.378,62" transform="translate(27.137 55.397)" fill="#003959"/>
              <path id="Trazado_998232" data-name="Trazado 998232" d="M30.193,61.184c-.088.048-.161.138-.247.193L28.3,60.429c.086-.057.163-.147.25-.2a2.516,2.516,0,0,1,.816-.268,2.283,2.283,0,0,1,.371-.038,1.42,1.42,0,0,1,.686.145l1.638.952a1.876,1.876,0,0,0-1.874.161" transform="translate(25.81 54.645)" fill="#003959"/>
              <path id="Trazado_998233" data-name="Trazado 998233" d="M30.682,61.563a1.813,1.813,0,0,1,1.809-.155l.39.226,1.732,1.008a1.625,1.625,0,0,0-1.327,0,2.352,2.352,0,0,0-.482.157c-.054.031-.1.088-.153.12l-2.128-1.229c.055-.034.1-.094.159-.124" transform="translate(27.833 55.836)" fill="#bf8f00"/>
              <path id="Trazado_998234" data-name="Trazado 998234" d="M27.97,59.91a1.881,1.881,0,0,1,1.874-.163l1.117.65a1.436,1.436,0,0,0-.686-.143,1.818,1.818,0,0,0-.371.036,2.283,2.283,0,0,0-.816.27c-.088.048-.163.14-.249.2l-1.12-.648c.086-.057.163-.149.252-.2" transform="translate(25.276 54.317)" fill="#bf8f00"/>
              <path id="Trazado_998235" data-name="Trazado 998235" d="M28.435,60.214a2.277,2.277,0,0,1,.816-.268,2.485,2.485,0,0,0-.816.268" transform="translate(25.929 54.664)" fill="#f7bd00"/>
              <path id="Trazado_998236" data-name="Trazado 998236" d="M31.407,61.159h0l-1.136-.66Z" transform="translate(27.604 55.169)" fill="#f7bd00"/>
              <path id="Trazado_998237" data-name="Trazado 998237" d="M30.545,61.408c-.086.048-.159.136-.243.191l-1.139-.658c.086-.057.159-.145.247-.193a1.877,1.877,0,0,1,1.874-.163l1.136.66a1.881,1.881,0,0,0-1.874.163" transform="translate(26.593 55.081)" fill="#bf8f00"/>
              <path id="Trazado_998238" data-name="Trazado 998238" d="M23.019,10.318l.652,41.887,32.89,18.518-.652-41.887Z" transform="translate(20.99 9.409)" fill="#b98347"/>
              <path id="Trazado_998239" data-name="Trazado 998239" d="M40.222,29.413,40.874,71.3,73.951,51.572,73.3,9.686Z" transform="translate(36.678 8.833)" fill="#e0b171"/>
              <path id="Trazado_998240" data-name="Trazado 998240" d="M58.712,31.015v.707l-5.393,3.114v-.707Z" transform="translate(48.621 28.282)" fill="#553819"/>
              <path id="Trazado_998241" data-name="Trazado 998241" d="M56.174,33.593l-.608.35v-3.8l-.6.348.908-2.1.908,1.048-.6.35Z" transform="translate(50.119 25.896)" fill="#553819"/>
              <path id="Trazado_998242" data-name="Trazado 998242" d="M54.759,34.412l-.608.35v-3.8l-.6.35.908-2.1.91,1.05-.606.35Z" transform="translate(48.828 26.641)" fill="#553819"/>
              <path id="Trazado_998243" data-name="Trazado 998243" d="M52.376,38.761v-5.3a3.844,3.844,0,0,1,1.853-2.919l5.294-3.059c1.021-.589,1.853-.237,1.853.784v5.294a3.847,3.847,0,0,1-1.853,2.921l-5.294,3.057c-1.021.589-1.853.239-1.853-.782m1.853-7.844a3.071,3.071,0,0,0-1.48,2.334v5.294c0,.816.663,1.1,1.48.625l5.294-3.057A3.071,3.071,0,0,0,61,33.78v-5.3c0-.814-.663-1.1-1.48-.625Z" transform="translate(47.761 24.804)" fill="#553819"/>
              <path id="Trazado_998244" data-name="Trazado 998244" d="M47.51,37.072a.061.061,0,0,0,.031-.044,2.905,2.905,0,0,1,1.105-.883c.652-.377,1.107-.51,1.107-.394,0,.013.011.019.029.01a.057.057,0,0,0,.029-.044c0-.105.371-.434.923-.774v2.923l.013.346c.063.356.382.407.77.184a1.607,1.607,0,0,0,.784-1.206c0-.105-.078-.143-.176-.086a.367.367,0,0,0-.176.289.865.865,0,0,1-.432.627c-.466.27-.421-.3-.421-.3V34.732c.554-.3.925-.4.925-.293,0,.015.013.019.029.011a.061.061,0,0,0,.031-.046,2.911,2.911,0,0,1,1.105-.881c.652-.377,1.105-.51,1.105-.394,0,.015.013.019.031.01a.067.067,0,0,0,.031-.044c-.054-1.313-1.465-1.833-3.183-.965,0-.092-.113-.1-.252-.017a.471.471,0,0,0-.254.31c-1.717,1.117-3.132,3.267-3.183,4.64,0,.015.013.019.031.01" transform="translate(43.295 28.909)" fill="#553819"/>
              <path id="Trazado_998245" data-name="Trazado 998245" d="M46.924,41.909v-5.3a3.848,3.848,0,0,1,1.851-2.921l5.294-3.057c1.021-.589,1.853-.239,1.853.784v5.294a3.847,3.847,0,0,1-1.853,2.921l-5.294,3.057c-1.021.589-1.851.239-1.851-.782m1.851-7.844a3.074,3.074,0,0,0-1.48,2.334v5.294c0,.816.663,1.1,1.48.625l5.294-3.055a3.077,3.077,0,0,0,1.48-2.336V31.632c0-.814-.663-1.1-1.48-.625Z" transform="translate(42.789 27.674)" fill="#553819"/>
              <path id="Trazado_998246" data-name="Trazado 998246" d="M43.093,38.233c.021.824.579,1.182,1.289.837v2.614l-.912.526v.338l2.048-1.182v-.338l-.91.524V38.941a3.157,3.157,0,0,0,1.285-2.325V34.685l-2.8,1.617Z" transform="translate(39.296 31.629)" fill="#553819"/>
              <path id="Trazado_998247" data-name="Trazado 998247" d="M41.471,45.055V39.761a3.847,3.847,0,0,1,1.853-2.921l5.294-3.057c1.021-.591,1.853-.239,1.853.784v5.294a3.851,3.851,0,0,1-1.853,2.921l-5.294,3.057c-1.021.589-1.853.237-1.853-.784m1.853-7.843a3.071,3.071,0,0,0-1.48,2.332v5.3c0,.814.663,1.1,1.48.625l5.294-3.057a3.071,3.071,0,0,0,1.48-2.333v-5.3c0-.816-.663-1.1-1.48-.625Z" transform="translate(37.817 30.544)" fill="#553819"/>
              <path id="Trazado_998248" data-name="Trazado 998248" d="M23.019,19.727l32.89,18.519L88.988,18.519,56.1,0Z" transform="translate(20.99 0)" fill="#f0cc8c"/>
              <path id="Trazado_998249" data-name="Trazado 998249" d="M62.79,3.769,69.6,7.6,36.519,27.329,29.713,23.5Z" transform="translate(27.095 3.437)" fill="#f8ecea"/>
              <path id="Trazado_998250" data-name="Trazado 998250" d="M36.505,17.918l-6.793-3.831.094,6.816L36.6,24.7Z" transform="translate(27.094 12.846)" fill="#c0a899"/>
            </g>
          </g>
        </g>
      </g>
    </g>
  </g>
</svg>
