<svg xmlns="http://www.w3.org/2000/svg" width="85" height="68.383" viewBox="0 0 85 68.383">
  <g id="Grupo_1179125" data-name="Grupo 1179125" transform="translate(-180 -8341.617)">
    <g id="Grupo_1178801" data-name="Grupo 1178801" transform="translate(170.417 8319.993)">
      <path id="Trazado_998973" data-name="Trazado 998973" d="M34.444,67.114a20.5,20.5,0,0,0-4.675,5.3,12.065,12.065,0,0,1-1.134,1.541,4.346,4.346,0,0,1-2.908.8,8.259,8.259,0,0,1-1.219-.085.82.82,0,0,0-.123-.01v5.263H26.83v3.389a.8.8,0,0,0,.72.8c.022,0,.137.012.329.012a11.5,11.5,0,0,0,6.923-2.7V66.974a.783.783,0,0,0-.357.14Z" transform="translate(-2.968 -9.095)" fill="#fdcba0"/>
      <path id="Trazado_998974" data-name="Trazado 998974" d="M45.785,22.144,36.829,31.95a1.6,1.6,0,0,0-.418,1.078V71.011l9.849,6.476h52.1a1.6,1.6,0,0,0,1.6-1.6V23.223a1.6,1.6,0,0,0-1.6-1.6h-51.4a1.6,1.6,0,0,0-1.18.52Z" transform="translate(-5.38 0)" fill="#f5b144"/>
      <path id="Trazado_998975" data-name="Trazado 998975" d="M98.365,21.624h-.352V73.2a1.6,1.6,0,0,1-1.6,1.6H44.309l-7.9-5.188v1.4l9.849,6.476h52.1a1.6,1.6,0,0,0,1.6-1.6V23.223A1.6,1.6,0,0,0,98.365,21.624Z" transform="translate(-5.38 0)" fill="#f5a92d"/>
      <path id="Trazado_998976" data-name="Trazado 998976" d="M45.785,22.187l-8.956,9.805a1.6,1.6,0,0,0-.418,1.078V71.054l9.849,6.476V21.836a1.592,1.592,0,0,0-.475.351Z" transform="translate(-5.38 -0.043)" fill="#f8c150"/>
      <path id="Trazado_998977" data-name="Trazado 998977" d="M73.718,21.624V39.388a.8.8,0,0,0,.8.8H86.384a.8.8,0,0,0,.8-.8V21.624Z" transform="translate(-12.862 0)" fill="#f77668"/>
      <path id="Trazado_998978" data-name="Trazado 998978" d="M85.935,21.624V38.093a.8.8,0,0,1-.8.8H73.718v.5a.8.8,0,0,0,.8.8H86.384a.8.8,0,0,0,.8-.8V21.624Z" transform="translate(-12.862)" fill="#f76a68"/>
      <path id="Trazado_998979" data-name="Trazado 998979" d="M14.118,80.942a.837.837,0,0,1-.868-.8V72.814a.837.837,0,0,1,.868-.8h7.966a.837.837,0,0,1,.868.8v7.329a.837.837,0,0,1-.868.8Z" transform="translate(-0.735 -10.105)" fill="#349cbc"/>
      <g id="Grupo_1178800" data-name="Grupo 1178800" transform="translate(69.13 53.4)">
        <path id="Trazado_998980" data-name="Trazado 998980" d="M101.061,80.688h-14.6a1.6,1.6,0,0,0,0,3.2h14.6a1.6,1.6,0,0,0,0-3.2Z" transform="translate(-84.227 -65.244)" fill="#fef497"/>
        <path id="Trazado_998981" data-name="Trazado 998981" d="M106.558,65.2l-3.071-3.313a1.648,1.648,0,0,0-2.346,0L98.072,65.2a1.6,1.6,0,0,0,2.346,2.174l.3-.32v5.624a1.6,1.6,0,0,0,3.2,0V67.053l.3.32a1.6,1.6,0,1,0,2.346-2.174Z" transform="translate(-86.79 -61.376)" fill="#fef497"/>
        <path id="Trazado_998982" data-name="Trazado 998982" d="M89.908,61.883a1.6,1.6,0,0,0-2.346,0L84.493,65.2a1.6,1.6,0,1,0,2.346,2.174l.3-.32v5.625a1.6,1.6,0,0,0,3.2,0V67.047l.3.32a1.6,1.6,0,0,0,2.346-2.174Z" transform="translate(-84.067 -61.37)" fill="#fef497"/>
      </g>
      <path id="Trazado_998983" data-name="Trazado 998983" d="M73.168,85.988h-10.6c-3.18,0-5.676-.5-7.23-1.455a2.638,2.638,0,0,1-1.255-2.442,2.849,2.849,0,0,1,1.657-2.46c5.86-2.736,9.034-5.356,9.434-7.784a3.365,3.365,0,0,0-1.11-3.018,2.889,2.889,0,0,0-2.2-.742c-1.946,0-4.86.948-8.663,2.816a14.263,14.263,0,0,1-3.923,1.3c-6.039,1.007-9.8,4.2-12.826,6.763-2.137,1.812-4.568,3.743-7.515,3.783l-.008,13.062,7.135,2.01a41.3,41.3,0,0,0,10.086,1.5,21.591,21.591,0,0,0,9.569-2.175c4.348-2.031,17.71-9.6,17.71-9.6a.8.8,0,0,0-.256-1.558Z" transform="translate(-3.879 -9.315)" fill="#fdddb6"/>
      <path id="Trazado_998984" data-name="Trazado 998984" d="M62.049,78.2a2.849,2.849,0,0,0-1.657,2.46,2.756,2.756,0,0,0,.178,1.147A2.832,2.832,0,0,1,62.05,80.2c5.86-2.736,9.034-5.356,9.434-7.784a3.118,3.118,0,0,0-.123-1.5C70.634,73.205,67.513,75.653,62.049,78.2Z" transform="translate(-10.188 -9.885)" fill="#fdcba0"/>
      <path id="Trazado_998985" data-name="Trazado 998985" d="M73.169,90.481h-.524C69.73,92.125,59.435,97.9,55.718,99.64a21.591,21.591,0,0,1-9.569,2.175,41.3,41.3,0,0,1-10.086-1.5l-7.134-2.01v2l7.135,2.01a41.3,41.3,0,0,0,10.086,1.5,21.591,21.591,0,0,0,9.569-2.175c4.348-2.031,17.71-9.6,17.71-9.6a.8.8,0,0,0-.261-1.557Z" transform="translate(-3.88 -13.809)" fill="#fdcba0"/>
      <path id="Trazado_998986" data-name="Trazado 998986" d="M13.25,79.182v2.4a.837.837,0,0,0,.868.8h7.966a.837.837,0,0,0,.868-.8v-2.4Z" transform="translate(-0.735 -11.543)" fill="#3492bc"/>
      <path id="Trazado_998987" data-name="Trazado 998987" d="M10.506,101.5a.869.869,0,0,1-.923-.8V81.981a.869.869,0,0,1,.923-.8h14.03a.869.869,0,0,1,.923.8V100.7a.869.869,0,0,1-.923.8Z" transform="translate(0 -11.943)" fill="#4db3ca"/>
      <path id="Trazado_998988" data-name="Trazado 998988" d="M24.536,81.182h-.875V98.79a.869.869,0,0,1-.923.8H9.583v1.119a.869.869,0,0,0,.923.8h14.03a.869.869,0,0,0,.923-.8V81.981a.869.869,0,0,0-.923-.8Z" transform="translate(0 -11.943)" fill="#4dabca"/>
    </g>
  </g>
</svg>
