<svg xmlns="http://www.w3.org/2000/svg" xmlns:xlink="http://www.w3.org/1999/xlink" width="147.479" height="143.351" viewBox="0 0 147.479 143.351">
  <defs>
    <clipPath id="clip-path">
      <rect id="Rectángulo_455106" data-name="Rectángulo 455106" width="98.837" height="143.35" fill="none"/>
    </clipPath>
  </defs>
  <g id="Grupo_1179120" data-name="Grupo 1179120" transform="translate(-1198.834 -5766.983)">
    <g id="Grupo_1178293" data-name="Grupo 1178293" transform="translate(896.572 1347.679)">
      <rect id="Rectángulo_401003" data-name="Rectángulo 401003" width="144.479" height="116.692" rx="29" transform="translate(303.762 4436)" fill="none" stroke="#fe8938" stroke-miterlimit="10" stroke-width="3"/>
      <g id="Grupo_1178296" data-name="Grupo 1178296" transform="translate(339.591 4419.305)">
        <path id="Trazado_998251" data-name="Trazado 998251" d="M14.087,22.024l-.828-.481,9,5.136.829.481Z" transform="translate(0.708 1.151)" fill="#001828"/>
        <path id="Trazado_998252" data-name="Trazado 998252" d="M12.9,24.2l-.828-.481,1.254-2.173.829.481Z" transform="translate(0.645 1.151)" fill="#002136"/>
        <path id="Trazado_998253" data-name="Trazado 998253" d="M14.109,22l9.006,5.136-1.249,2.172-9.011-5.135Z" transform="translate(0.687 1.175)" fill="#003859"/>
        <path id="Trazado_998254" data-name="Trazado 998254" d="M3.2,38.907l-.828-.481,8.95-15.5.829.481Z" transform="translate(0.127 1.224)" fill="#002136"/>
        <path id="Trazado_998255" data-name="Trazado 998255" d="M11.7,23.514l-.828-.481,1.255-2.174.828.482Z" transform="translate(0.581 1.114)" fill="#002136"/>
        <path id="Trazado_998256" data-name="Trazado 998256" d="M12.888,22.126l-.828-.481L21.012,6.139l.828.481Z" transform="translate(0.644 0.328)" fill="#002136"/>
        <path id="Trazado_998257" data-name="Trazado 998257" d="M22.316,6.6l1.258.725-8.948,15.5L13.372,25,4.423,40.5l-1.264-.721,8.95-15.5L13.364,22.1Z" transform="translate(0.169 0.352)" fill="#003859"/>
        <path id="Trazado_998258" data-name="Trazado 998258" d="M21.386,6.621l-.828-.481,1.257.725.829.481Z" transform="translate(1.098 0.328)" fill="#001828"/>
        <path id="Trazado_998259" data-name="Trazado 998259" d="M4.359,16.439l9.008,5.136L12.111,23.75,3.1,18.616Z" transform="translate(0.166 0.878)" fill="#003859"/>
        <path id="Trazado_998260" data-name="Trazado 998260" d="M3.145,18.64l-.829-.481,1.258-2.176.828.481Z" transform="translate(0.124 0.854)" fill="#002136"/>
        <path id="Trazado_998261" data-name="Trazado 998261" d="M4.338,16.464l-.828-.481,9.007,5.136.829.481Z" transform="translate(0.187 0.854)" fill="#001828"/>
        <path id="Trazado_998262" data-name="Trazado 998262" d="M14.087,71.223l-.828-.481,9,5.135.829.482Z" transform="translate(0.708 3.778)" fill="#001828"/>
        <path id="Trazado_998263" data-name="Trazado 998263" d="M12.9,73.4l-.828-.481,1.254-2.173.829.481Z" transform="translate(0.645 3.778)" fill="#002136"/>
        <path id="Trazado_998264" data-name="Trazado 998264" d="M14.109,71.2l9.006,5.136-1.249,2.172-9.011-5.135Z" transform="translate(0.687 3.803)" fill="#003859"/>
        <path id="Trazado_998265" data-name="Trazado 998265" d="M3.2,88.105l-.828-.481,8.95-15.5.829.481Z" transform="translate(0.127 3.852)" fill="#002136"/>
        <path id="Trazado_998266" data-name="Trazado 998266" d="M11.7,72.713l-.828-.481,1.255-2.174.828.481Z" transform="translate(0.581 3.742)" fill="#002136"/>
        <path id="Trazado_998267" data-name="Trazado 998267" d="M12.888,71.325l-.828-.481,8.952-15.506.828.481Z" transform="translate(0.644 2.956)" fill="#002136"/>
        <path id="Trazado_998268" data-name="Trazado 998268" d="M22.316,55.8l1.258.725-8.948,15.5-1.254,2.174L4.423,89.7l-1.264-.721,8.95-15.5L13.364,71.3Z" transform="translate(0.169 2.98)" fill="#003859"/>
        <path id="Trazado_998269" data-name="Trazado 998269" d="M21.386,55.819l-.828-.481,1.257.725.829.481Z" transform="translate(1.098 2.956)" fill="#001828"/>
        <path id="Trazado_998270" data-name="Trazado 998270" d="M4.359,65.638l9.008,5.137-1.256,2.173L3.1,67.814Z" transform="translate(0.166 3.506)" fill="#003859"/>
        <path id="Trazado_998271" data-name="Trazado 998271" d="M3.145,67.839l-.829-.481,1.258-2.176.828.481Z" transform="translate(0.124 3.481)" fill="#002136"/>
        <path id="Trazado_998272" data-name="Trazado 998272" d="M4.338,65.663l-.828-.481,9.007,5.137.829.481Z" transform="translate(0.187 3.481)" fill="#001828"/>
        <path id="Trazado_998273" data-name="Trazado 998273" d="M23.076,88.987l-2.237-1.3-.11-86.5,2.237,1.3Z" transform="translate(1.107 0.063)" fill="#003b5b"/>
        <path id="Trazado_998274" data-name="Trazado 998274" d="M22.9,0,20.73,1.252l2.237,1.3L25.135,1.3Z" transform="translate(1.107 0)" fill="#005480"/>
        <path id="Trazado_998275" data-name="Trazado 998275" d="M25.022,1.234l.11,86.5-2.169,1.253-.11-86.5Z" transform="translate(1.221 0.066)" fill="#001f33"/>
        <path id="Trazado_998276" data-name="Trazado 998276" d="M.109,99.357l2.237,1.3-.11-86.5L0,12.858Z" transform="translate(0 0.687)" fill="#003b5b"/>
        <path id="Trazado_998277" data-name="Trazado 998277" d="M0,12.921l2.237,1.3L4.405,12.97l-2.237-1.3Z" transform="translate(0 0.623)" fill="#005480"/>
        <path id="Trazado_998278" data-name="Trazado 998278" d="M4.292,12.9,4.4,99.4l-2.169,1.253-.11-86.5Z" transform="translate(0.113 0.689)" fill="#001f33"/>
        <path id="Trazado_998279" data-name="Trazado 998279" d="M93.865,54.733l-.008,3.15L69.982,71.757l.009-3.151Z" transform="translate(3.738 2.923)" fill="gray"/>
        <path id="Trazado_998280" data-name="Trazado 998280" d="M73.607,70l-.009,3.15L2.285,31.733l.008-3.15Z" transform="translate(0.122 1.527)" fill="#b6b6b6"/>
        <path id="Trazado_998281" data-name="Trazado 998281" d="M97.48,56.833,73.606,70.707,2.293,29.288,26.166,15.413Z" transform="translate(0.122 0.823)" fill="#e0e0e0"/>
        <path id="Trazado_998282" data-name="Trazado 998282" d="M93.865,103.879l-.008,3.15L69.982,120.9l.009-3.151Z" transform="translate(3.738 5.548)" fill="gray"/>
        <path id="Trazado_998283" data-name="Trazado 998283" d="M73.607,119.15,73.6,122.3,2.285,80.879l.008-3.15Z" transform="translate(0.122 4.152)" fill="#b6b6b6"/>
        <path id="Trazado_998284" data-name="Trazado 998284" d="M97.48,105.979,73.606,119.853,2.293,78.434,26.166,64.559Z" transform="translate(0.122 3.448)" fill="#e0e0e0"/>
        <path id="Trazado_998285" data-name="Trazado 998285" d="M66.54,73.609l-.346,22.216L48.75,105.647,49.1,83.431Z" transform="translate(2.604 3.931)" fill="#e0b171"/>
        <path id="Trazado_998286" data-name="Trazado 998286" d="M49.984,83.463l-.346,22.216L32.094,95.216,32.441,73Z" transform="translate(1.714 3.899)" fill="#b98347"/>
        <path id="Trazado_998287" data-name="Trazado 998287" d="M67.412,74.139,49.967,83.961,32.423,73.5l17.444-9.823Z" transform="translate(1.732 3.401)" fill="#f0cc8c"/>
        <path id="Trazado_998288" data-name="Trazado 998288" d="M42.723,67.3l-3.61,2.033L56.656,79.8l3.61-2.032Z" transform="translate(2.089 3.595)" fill="#f8ecea"/>
        <path id="Trazado_998289" data-name="Trazado 998289" d="M55.777,79.269l3.6-2.032-.05,3.614-3.6,2.015Z" transform="translate(2.976 4.125)" fill="#c0a899"/>
        <path id="Trazado_998290" data-name="Trazado 998290" d="M52.252,21.69l-.044,15.6L34.369,47.653l.044-15.6Z" transform="translate(1.836 1.158)" fill="#e0b171"/>
        <path id="Trazado_998291" data-name="Trazado 998291" d="M35.735,32.294l-.044,15.6L9.64,32.851l.044-15.6Z" transform="translate(0.515 0.922)" fill="#b98347"/>
        <path id="Trazado_998292" data-name="Trazado 998292" d="M53.57,22.453,35.732,32.819,9.683,17.78,27.52,7.413Z" transform="translate(0.517 0.396)" fill="#f0cc8c"/>
        <path id="Trazado_998293" data-name="Trazado 998293" d="M20.215,11.242l-3.691,2.146,26.049,15.04,3.691-2.146Z" transform="translate(0.883 0.6)" fill="#f8ecea"/>
        <path id="Trazado_998294" data-name="Trazado 998294" d="M41.259,27.664l3.684-2.145v3.726l-3.684,2.127Z" transform="translate(2.204 1.363)" fill="#c0a899"/>
        <path id="Trazado_998295" data-name="Trazado 998295" d="M49.684,35.64v.366L46.9,37.614v-.366Z" transform="translate(2.505 1.904)" fill="#553819"/>
        <path id="Trazado_998296" data-name="Trazado 998296" d="M48.438,34.27l.313-.18v1.961l.314-.181V33.909l.313-.181-.47-.541Z" transform="translate(2.587 1.773)" fill="#553819"/>
        <path id="Trazado_998297" data-name="Trazado 998297" d="M47.111,35.037l.312-.18v1.961l.314-.181V34.675l.313-.18-.47-.543Z" transform="translate(2.516 1.813)" fill="#553819"/>
        <g id="Grupo_1178295" data-name="Grupo 1178295" transform="translate(0 0)">
          <g id="Grupo_1178294" data-name="Grupo 1178294" clip-path="url(#clip-path)">
            <path id="Trazado_998298" data-name="Trazado 998298" d="M46.014,38.036V35.3a1.985,1.985,0,0,1,.956-1.508l2.736-1.58c.528-.3.956-.123.956.4v2.736a1.986,1.986,0,0,1-.956,1.51L46.97,38.44c-.528.3-.956.123-.956-.4m.956-4.052a1.589,1.589,0,0,0-.765,1.206v2.736c0,.421.343.567.765.323l2.736-1.58a1.588,1.588,0,0,0,.765-1.206V32.727c0-.421-.343-.566-.765-.322Z" transform="translate(2.458 1.713)" fill="#553819"/>
            <path id="Trazado_998299" data-name="Trazado 998299" d="M41.438,39.06a.034.034,0,0,0,.016-.023,1.5,1.5,0,0,1,.571-.456c.337-.194.572-.263.572-.2,0,.007.006.011.015.005a.033.033,0,0,0,.015-.023c0-.055.192-.224.477-.4v1.511l.006.179c.033.183.2.211.4.095a.829.829,0,0,0,.4-.623c0-.055-.041-.075-.091-.045a.19.19,0,0,0-.091.15.446.446,0,0,1-.223.323c-.241.139-.218-.155-.218-.155V37.85c.287-.154.478-.205.478-.151,0,.007.007.009.015.005a.032.032,0,0,0,.016-.023,1.5,1.5,0,0,1,.571-.456c.337-.194.571-.263.571-.2,0,.008.007.011.017.005A.035.035,0,0,0,44.973,37c-.027-.678-.757-.947-1.644-.5,0-.047-.059-.051-.131-.009a.244.244,0,0,0-.131.161,3.7,3.7,0,0,0-1.645,2.4c0,.007.006.011.016.005" transform="translate(2.212 1.938)" fill="#553819"/>
            <path id="Trazado_998300" data-name="Trazado 998300" d="M40.9,40.988V38.252a1.985,1.985,0,0,1,.956-1.508l2.736-1.58c.528-.3.956-.123.956.4V38.3a1.986,1.986,0,0,1-.956,1.51l-2.736,1.579c-.528.3-.956.123-.956-.4m.956-4.052a1.589,1.589,0,0,0-.765,1.206v2.736c0,.421.343.566.765.322l2.736-1.579a1.589,1.589,0,0,0,.765-1.206V35.679c0-.421-.343-.566-.765-.322Z" transform="translate(2.184 1.87)" fill="#553819"/>
            <path id="Trazado_998301" data-name="Trazado 998301" d="M37.308,40.916c.012.427.3.61.666.433V42.7l-.471.272v.176l1.058-.611V42.36l-.471.271V41.281a1.627,1.627,0,0,0,.665-1.2v-1l-1.446.835Z" transform="translate(1.993 2.087)" fill="#553819"/>
            <path id="Trazado_998302" data-name="Trazado 998302" d="M35.787,43.94V41.2a1.989,1.989,0,0,1,.958-1.51l2.736-1.579c.528-.305.956-.123.956.4v2.736a1.986,1.986,0,0,1-.956,1.51l-2.736,1.579c-.528.3-.958.123-.958-.4m.958-4.052a1.589,1.589,0,0,0-.765,1.206v2.736c0,.421.343.566.765.323l2.736-1.58a1.588,1.588,0,0,0,.764-1.206V38.631c0-.421-.342-.566-.764-.323Z" transform="translate(1.911 2.028)" fill="#553819"/>
            <path id="Trazado_998303" data-name="Trazado 998303" d="M82.9,61.9l-.828-.481,9,5.136.829.481Z" transform="translate(4.383 3.28)" fill="#001828"/>
            <path id="Trazado_998304" data-name="Trazado 998304" d="M81.706,64.074l-.828-.481,1.254-2.173.829.481Z" transform="translate(4.32 3.28)" fill="#002136"/>
            <path id="Trazado_998305" data-name="Trazado 998305" d="M82.918,61.876l9.006,5.136-1.249,2.172L81.663,64.05Z" transform="translate(4.362 3.305)" fill="#003859"/>
            <path id="Trazado_998306" data-name="Trazado 998306" d="M72.01,78.784l-.828-.481,8.95-15.5.829.481Z" transform="translate(3.802 3.354)" fill="#002136"/>
            <path id="Trazado_998307" data-name="Trazado 998307" d="M80.507,63.391l-.829-.481,1.256-2.174.828.482Z" transform="translate(4.256 3.244)" fill="#002136"/>
            <path id="Trazado_998308" data-name="Trazado 998308" d="M81.7,62l-.828-.481,8.952-15.506.828.481Z" transform="translate(4.319 2.458)" fill="#002136"/>
            <path id="Trazado_998309" data-name="Trazado 998309" d="M91.126,46.473l1.258.725L83.436,62.7l-1.255,2.174-8.948,15.5-1.265-.721,8.95-15.5,1.256-2.173Z" transform="translate(3.844 2.482)" fill="#003859"/>
            <path id="Trazado_998310" data-name="Trazado 998310" d="M90.2,46.5l-.828-.481,1.257.725.829.481Z" transform="translate(4.773 2.458)" fill="#001828"/>
            <path id="Trazado_998311" data-name="Trazado 998311" d="M73.169,56.316l9.007,5.137-1.255,2.173-9.009-5.134Z" transform="translate(3.841 3.008)" fill="#003859"/>
            <path id="Trazado_998312" data-name="Trazado 998312" d="M71.954,58.517l-.828-.481,1.257-2.176.828.481Z" transform="translate(3.799 2.983)" fill="#002136"/>
            <path id="Trazado_998313" data-name="Trazado 998313" d="M73.147,56.341l-.828-.481L81.326,61l.828.482Z" transform="translate(3.863 2.983)" fill="#001828"/>
            <path id="Trazado_998314" data-name="Trazado 998314" d="M82.9,111.1l-.828-.481,9,5.135.829.482Z" transform="translate(4.383 5.908)" fill="#001828"/>
            <path id="Trazado_998315" data-name="Trazado 998315" d="M81.706,113.273l-.828-.481,1.254-2.173.829.481Z" transform="translate(4.32 5.908)" fill="#002136"/>
            <path id="Trazado_998316" data-name="Trazado 998316" d="M82.918,111.075l9.006,5.136-1.249,2.172-9.011-5.135Z" transform="translate(4.362 5.932)" fill="#003859"/>
            <path id="Trazado_998317" data-name="Trazado 998317" d="M72.01,127.982l-.828-.481,8.95-15.5.829.481Z" transform="translate(3.802 5.982)" fill="#002136"/>
            <path id="Trazado_998318" data-name="Trazado 998318" d="M80.507,112.59l-.829-.481,1.256-2.174.828.481Z" transform="translate(4.256 5.872)" fill="#002136"/>
            <path id="Trazado_998319" data-name="Trazado 998319" d="M81.7,111.2l-.828-.481,8.952-15.505.828.48Z" transform="translate(4.319 5.085)" fill="#002136"/>
            <path id="Trazado_998320" data-name="Trazado 998320" d="M91.126,95.672l1.258.725-8.948,15.5-1.255,2.174-8.948,15.5-1.265-.721,8.95-15.5,1.256-2.173Z" transform="translate(3.844 5.11)" fill="#003859"/>
            <path id="Trazado_998321" data-name="Trazado 998321" d="M90.2,95.7l-.828-.481,1.257.725.829.481Z" transform="translate(4.773 5.085)" fill="#001828"/>
            <path id="Trazado_998322" data-name="Trazado 998322" d="M73.169,105.515l9.007,5.136-1.255,2.174-9.009-5.134Z" transform="translate(3.841 5.635)" fill="#003859"/>
            <path id="Trazado_998323" data-name="Trazado 998323" d="M71.954,107.716l-.828-.481,1.257-2.176.828.481Z" transform="translate(3.799 5.611)" fill="#002136"/>
            <path id="Trazado_998324" data-name="Trazado 998324" d="M73.147,105.54l-.828-.481,9.007,5.137.828.48Z" transform="translate(3.863 5.611)" fill="#001828"/>
            <path id="Trazado_998325" data-name="Trazado 998325" d="M91.886,128.864l-2.237-1.3-.11-86.5,2.237,1.3Z" transform="translate(4.782 2.193)" fill="#003b5b"/>
            <path id="Trazado_998326" data-name="Trazado 998326" d="M91.777,42.429l-2.237-1.3,2.169-1.253,2.237,1.3Z" transform="translate(4.782 2.13)" fill="#005480"/>
            <path id="Trazado_998327" data-name="Trazado 998327" d="M93.832,41.111l.11,86.5-2.169,1.253-.11-86.5Z" transform="translate(4.896 2.196)" fill="#001f33"/>
            <path id="Trazado_998328" data-name="Trazado 998328" d="M71.156,140.534l-2.237-1.3-.11-86.5,2.237,1.3Z" transform="translate(3.675 2.817)" fill="#003b5b"/>
            <path id="Trazado_998329" data-name="Trazado 998329" d="M71.047,54.1,68.81,52.8l2.169-1.253,2.237,1.3Z" transform="translate(3.675 2.753)" fill="#005480"/>
            <path id="Trazado_998330" data-name="Trazado 998330" d="M73.1,52.78l.11,86.5-2.169,1.253-.11-86.5Z" transform="translate(3.788 2.819)" fill="#001f33"/>
          </g>
        </g>
      </g>
    </g>
  </g>
</svg>
