<svg xmlns="http://www.w3.org/2000/svg" width="86.5" height="95.237" viewBox="0 0 86.5 95.237">
  <g id="Grupo_1179112" data-name="Grupo 1179112" transform="translate(-178.5 -8600.764)">
    <g id="Grupo_1176911" data-name="Grupo 1176911" transform="translate(-123.762 4184.34)">
      <rect id="Rectángulo_401003" data-name="Rectángulo 401003" width="77.456" height="88.287" rx="15" transform="translate(303.762 4417.924)" fill="none" stroke="#fe8938" stroke-miterlimit="10" stroke-width="3"/>
      <g id="Grupo_1176918" data-name="Grupo 1176918" transform="translate(295.763 4418.66)">
        <g id="Grupo_1176912" data-name="Grupo 1176912" transform="translate(73.221 8.001)">
          <path id="Trazado_991606" data-name="Trazado 991606" d="M408.362,8.733l-1.171,14.34a.676.676,0,0,1-1.153.423l-3.067-3.067-6.955,6.955a1.356,1.356,0,0,1-1.913,0l-5.123-5.123a1.355,1.355,0,0,1,0-1.913l6.955-6.955-3.067-3.067a.676.676,0,0,1,.423-1.152L407.633,8a.676.676,0,0,1,.729.729Z" transform="translate(-388.585 -8.001)" fill="#8ac9fe" fill-rule="evenodd"/>
          <path id="Trazado_991607" data-name="Trazado 991607" d="M408.362,8.732l-.019.235-14.106,1.151a.676.676,0,0,0-.423,1.152l-.945-.945a.676.676,0,0,1,.423-1.152L407.632,8a.677.677,0,0,1,.729.729ZM389.925,23.206l-.945-.945a1.355,1.355,0,0,1,0-1.913l6.955-6.955.945.945-6.955,6.955A1.355,1.355,0,0,0,389.925,23.206Z" transform="translate(-388.585 -8.001)" fill="#60b7ff" fill-rule="evenodd"/>
        </g>
        <g id="Grupo_1176913" data-name="Grupo 1176913" transform="translate(73.221 73.222)">
          <path id="Trazado_991608" data-name="Trazado 991608" d="M408.362,407.632l-1.171-14.34a.677.677,0,0,0-1.153-.423l-3.067,3.067-6.955-6.955a1.356,1.356,0,0,0-1.913,0l-5.123,5.123a1.355,1.355,0,0,0,0,1.913l6.955,6.955-3.067,3.067a.676.676,0,0,0,.423,1.153l14.34,1.171a.676.676,0,0,0,.729-.729Z" transform="translate(-388.585 -388.586)" fill="#8ac9fe" fill-rule="evenodd"/>
          <path id="Trazado_991609" data-name="Trazado 991609" d="M408.362,429.746l-.019-.235-14.106-1.151a.676.676,0,0,1-.423-1.152l-.945.945a.676.676,0,0,0,.423,1.153l14.34,1.171a.677.677,0,0,0,.729-.729Zm-18.437-14.473-.945.945a1.355,1.355,0,0,0,0,1.913l6.955,6.955.945-.945-6.955-6.955A1.355,1.355,0,0,1,389.925,415.273Z" transform="translate(-388.585 -410.7)" fill="#60b7ff" fill-rule="evenodd"/>
        </g>
        <g id="Grupo_1176914" data-name="Grupo 1176914" transform="translate(8 8.001)">
          <path id="Trazado_991610" data-name="Trazado 991610" d="M8,8.732l1.171,14.34a.676.676,0,0,0,1.152.423l3.067-3.067,6.955,6.955a1.356,1.356,0,0,0,1.913,0l5.123-5.123a1.356,1.356,0,0,0,0-1.913l-6.955-6.955L23.5,10.326a.676.676,0,0,0-.423-1.152L8.732,8A.676.676,0,0,0,8,8.732Z" transform="translate(-8 -8.001)" fill="#8ac9fe" fill-rule="evenodd"/>
          <path id="Trazado_991611" data-name="Trazado 991611" d="M8,8.732l.019.235,14.106,1.151a.676.676,0,0,1,.423,1.152l.945-.945a.676.676,0,0,0-.423-1.152L8.731,8A.677.677,0,0,0,8,8.732ZM26.439,23.206l.945-.945a1.355,1.355,0,0,0,0-1.913l-6.955-6.955-.945.945,6.955,6.955A1.355,1.355,0,0,1,26.439,23.206Z" transform="translate(-8 -8.001)" fill="#60b7ff" fill-rule="evenodd"/>
        </g>
        <g id="Grupo_1176915" data-name="Grupo 1176915" transform="translate(8 73.222)">
          <path id="Trazado_991612" data-name="Trazado 991612" d="M8,407.632l1.171-14.34a.676.676,0,0,1,1.152-.423l3.067,3.067,6.955-6.955a1.356,1.356,0,0,1,1.913,0l5.123,5.123a1.356,1.356,0,0,1,0,1.913l-6.955,6.955,3.067,3.067a.676.676,0,0,1-.423,1.153l-14.34,1.171A.676.676,0,0,1,8,407.632Z" transform="translate(-8 -388.586)" fill="#8ac9fe" fill-rule="evenodd"/>
          <path id="Trazado_991613" data-name="Trazado 991613" d="M8,429.746l.019-.235,14.106-1.151a.676.676,0,0,0,.423-1.152l.945.945a.676.676,0,0,1-.423,1.153l-14.34,1.171A.676.676,0,0,1,8,429.746Zm18.437-14.473.945.945a1.355,1.355,0,0,1,0,1.913l-6.955,6.955-.945-.945,6.955-6.955A1.355,1.355,0,0,0,26.439,415.273Z" transform="translate(-8 -410.7)" fill="#60b7ff" fill-rule="evenodd"/>
        </g>
        <g id="Grupo_1176917" data-name="Grupo 1176917" transform="translate(24.794 21.18)">
          <path id="Trazado_991614" data-name="Trazado 991614" d="M130.509,85.234,107.2,98.693a2.337,2.337,0,0,0-1.2,2.073v26.918a2.337,2.337,0,0,0,1.2,2.073l23.312,13.459a2.338,2.338,0,0,0,2.394,0l23.312-13.459a2.337,2.337,0,0,0,1.2-2.073V100.766a2.337,2.337,0,0,0-1.2-2.073L132.9,85.234A2.338,2.338,0,0,0,130.509,85.234Z" transform="translate(-106 -84.904)" fill="#f2d1a5" fill-rule="evenodd"/>
          <path id="Trazado_991615" data-name="Trazado 991615" d="M106.314,170.452a2.382,2.382,0,0,0-.313,1.2v26.927a2.338,2.338,0,0,0,1.2,2.068L130.51,214.1a2.384,2.384,0,0,0,1.2.33V185.112Z" transform="translate(-106.001 -155.792)" fill="#e3a76f" fill-rule="evenodd"/>
          <path id="Trazado_991616" data-name="Trazado 991616" d="M132.022,85.234,108.71,98.693a2.384,2.384,0,0,0-.884.872l25.393,14.661,25.393-14.661a2.384,2.384,0,0,0-.884-.872L134.416,85.234A2.338,2.338,0,0,0,132.022,85.234Z" transform="translate(-107.513 -84.904)" fill="#c48958" fill-rule="evenodd"/>
          <path id="Trazado_991617" data-name="Trazado 991617" d="M192.41,128.38l-7.455,4.3L159.25,117.843l7.455-4.3Z" transform="translate(-150.124 -108.632)" fill="#d1d1d6" fill-rule="evenodd"/>
          <g id="Grupo_1176916" data-name="Grupo 1176916" transform="translate(3.497 19.748)">
            <path id="Trazado_991618" data-name="Trazado 991618" d="M310.148,215.615l5.958-3.44a1.169,1.169,0,0,0,.6-1.036v-11l-7.455,4.3V215.1a.6.6,0,0,0,.9.518Z" transform="translate(-277.916 -200.141)" fill="#eceff1" fill-rule="evenodd"/>
            <path id="Trazado_991619" data-name="Trazado 991619" d="M126.885,218.79a.955.955,0,1,1,.957-1.653l11.422,6.595a.955.955,0,1,1-.957,1.653Zm0,5.259,5.711,3.3a.955.955,0,1,0,.957-1.653l-5.711-3.3a.955.955,0,1,0-.957,1.653Z" transform="translate(-126.408 -214.118)" fill="#eceff1" fill-rule="evenodd"/>
          </g>
        </g>
      </g>
    </g>
  </g>
</svg>
