<svg xmlns="http://www.w3.org/2000/svg" xmlns:xlink="http://www.w3.org/1999/xlink" width="153.04" height="162.302" viewBox="0 0 153.04 162.302">
  <defs>
    <clipPath id="clip-path">
      <rect id="Rectángulo_455246" data-name="Rectángulo 455246" width="134.184" height="147.227" fill="none"/>
    </clipPath>
  </defs>
  <g id="Grupo_1179116" data-name="Grupo 1179116" transform="translate(-564.26 -8570.259)">
    <g id="Grupo_1178815" data-name="Grupo 1178815">
      <rect id="Rectángulo_401003" data-name="Rectángulo 401003" width="144.479" height="152.843" rx="29" transform="translate(565.76 8571.759)" fill="none" stroke="#fe8938" stroke-miterlimit="10" stroke-width="3"/>
      <g id="Grupo_1178814" data-name="Grupo 1178814" transform="translate(583.117 8585.333)">
        <g id="Grupo_1178813" data-name="Grupo 1178813" clip-path="url(#clip-path)">
          <path id="Trazado_999967" data-name="Trazado 999967" d="M120.474,124.99c.206-2.283,3.255-3.908,4.412-4.7s2.052-1.626,1.753-3.59c-.029-.19-.069-.459-.116-.762,2.376,1.517,4.231-1.109,6.7-1.725.3,1.261.873,4.29,1.152,5.36.567,2.174-.387,2.735-1.654,3.2,0,.828-1.724,3.091-3.319,4.433-1.474,1.24-3.358,2.3-5.021,1.864-3.05-.8-4.11-1.791-3.9-4.073" transform="translate(-21.009 -19.921)" fill="#4f3949"/>
          <path id="Trazado_999968" data-name="Trazado 999968" d="M149.018,129.566a5.093,5.093,0,0,0,.039-.56,10.74,10.74,0,0,0,7.128-1.265,1.781,1.781,0,0,0,.012.435c.27,1.206,1.505,2.819.6,4.539a7.452,7.452,0,0,1-1.313,1.8,13.4,13.4,0,0,1-1.692,6.461c-1.274,2.325-5.128,1.858-6.495.948a4.254,4.254,0,0,1-1.268-5.567c1.16-1.992,2.736-5.014,2.987-6.79" transform="translate(-25.377 -22.281)" fill="#4f3949"/>
          <path id="Trazado_999969" data-name="Trazado 999969" d="M125.28,88.141c-.1-2.218-.089-5.108-.007-7.334.078-2.085-1.04-18.925,6.81-23.824.13-.164,7.514.865,9.986,1.077a.818.818,0,0,1,.7.681c1.409,8.195,1.3,17.309-3.05,24.667a14.155,14.155,0,0,1-3.423,3.957c1.356,2.367.61,14.307-.526,20.916-1.086,1.725-7.445,1.883-9.072-.826,0-5.114-1.3-16.867-1.416-19.314" transform="translate(-21.839 -9.936)" fill="#7a77d8"/>
          <path id="Trazado_999970" data-name="Trazado 999970" d="M139.081,70.145c-2.633-1.817-3.481-5.2-3.072-11.471,2.185-3.255,11.513-.836,14.94-.813,3.131,2.459,2.4,6.648,1.588,10.8.862,3.724,2.785,9.3,3.446,15.134.166,1.464.323,4.764-1.111,6.1,1.948,4.395,1.129,22.469.581,26.494-1.868,1.176-4.011,3.077-7.412,2.228-1.772-.443-2.906-2.922-1.069-5.415-2.057-4.35-3.544-15.729-3.046-21.857-1.1-1.744-2.135-2.777-2.563-4.788-1.107-5.2-1.5-11.169-2.282-16.41" transform="translate(-23.706 -9.938)" fill="#9494ed"/>
          <path id="Trazado_999971" data-name="Trazado 999971" d="M126.985,27.665s-2.551,3.712-3.823,5.587c-.43.637-1.369,3.454-1.72,4.169a9.54,9.54,0,0,1,3.093,2.964c1.7-.635,6.439-4.083,6.87-6.237.646-3.233-4.42-6.483-4.42-6.483" transform="translate(-21.183 -4.825)" fill="#ffc9b6"/>
          <path id="Trazado_999972" data-name="Trazado 999972" d="M130.049,32.415c1.354.915,2.833.618,4.309.893a30.757,30.757,0,0,0,3.851-6.2c1.541-3.333.886-7.306-2.693-9.061-1.928-.946-6.141-.054-7.807,6.217a12.174,12.174,0,0,0-2.52,3.259,17.2,17.2,0,0,0,4.861,4.892" transform="translate(-21.836 -3.092)" fill="#ffc933"/>
          <path id="Trazado_999973" data-name="Trazado 999973" d="M156.1,55.414c-.373-2.038-3.114-2.175-3.114-2.175l-1.072,3.778s4.726,1.341,4.186-1.6" transform="translate(-26.498 -9.286)" fill="#7a77d8"/>
          <path id="Trazado_999974" data-name="Trazado 999974" d="M131.288,49.418c-1.1-1.865-.389-8.858.236-11.9-1.349-5.034-1.865-8.736-.833-12.814.643-2.542,2.96-5.464,6.084-5.623,1.524-.078,6.677,2.063,7.649,2.6,4,1.134,6.383,3.044,9.076,6.012.334.368-1.017,12.186-1.687,14.4-.781,2.582-.343,6.536-.94,8.948.3,2.347-6.9,3.727-9.027,3.737-7.282.031-9.06-2-10.559-5.361" transform="translate(-22.701 -3.328)" fill="#ffde52"/>
          <path id="Trazado_999975" data-name="Trazado 999975" d="M151.055,53.075a5.7,5.7,0,0,1-3.922.33,8.341,8.341,0,0,1-3.483-1.8s2.838.916,4.106,1.148a30.944,30.944,0,0,0,3.3.318" transform="translate(-25.056 -9.002)" fill="#ffb30b"/>
          <path id="Trazado_999976" data-name="Trazado 999976" d="M148.148,22.611a4.5,4.5,0,0,1-3.13,3.372c-4.248,1.47-7.257-.546-8.076-2.794s1.79-4.109,1.79-4.109a22.485,22.485,0,0,1,9.416,3.53" transform="translate(-23.858 -3.328)" fill="#f7f2ec"/>
          <path id="Trazado_999977" data-name="Trazado 999977" d="M152.182,59.169l.673,2.918a32.35,32.35,0,0,1-7.688,1.943,23.478,23.478,0,0,1-11.1-1.706c-1.928-.771-.5-2.684-.5-2.684s11.1,2.69,13.9,1.9a14.135,14.135,0,0,0,4.713-2.373" transform="translate(-23.208 -10.321)" fill="#7a77d8"/>
          <path id="Trazado_999978" data-name="Trazado 999978" d="M152.287,51.67l.4,2.719a14.729,14.729,0,0,1-6.484,2.633c-4.926.9-9.9.75-12.2-1.3s-3.722-3.329-3.879-5.2a40.647,40.647,0,0,1,.3-8c.375-2.949,1.053-10.763,1.053-10.763a18.164,18.164,0,0,0,5.241,2.393A31.561,31.561,0,0,0,142.6,35.27s-.163,7.264.678,10.42c.615,2.305,1.532,4.642,4.033,5.9a6.119,6.119,0,0,0,4.977.082" transform="translate(-22.682 -5.542)" fill="#9494ed"/>
          <path id="Trazado_999979" data-name="Trazado 999979" d="M140.931,38a22.169,22.169,0,0,1-4.791-.887,18.758,18.758,0,0,1-3.175-1.22,26.768,26.768,0,0,0-.656,4.786c-.049,1.507,1.593,2.946,3.493,3.413,1.729.426,4.4.059,4.63-1.777.376-2.989.5-4.314.5-4.314" transform="translate(-23.078 -6.261)" fill="#7a77d8"/>
          <path id="Trazado_999980" data-name="Trazado 999980" d="M150.5,23.936s-2.036,1.094-3.734,4.6a26.7,26.7,0,0,0-1.915,7.665L143,35.653a17.173,17.173,0,0,1,2.087-7.911c2.369-3.8,3.084-4.743,4.754-4.749.931,0,.663.942.663.942" transform="translate(-24.942 -4.011)" fill="#9494ed"/>
          <path id="Trazado_999981" data-name="Trazado 999981" d="M139.145,19.381s-2.036,1.094-3.734,4.6a26.7,26.7,0,0,0-1.914,7.665l-1.856-.546a17.171,17.171,0,0,1,2.087-7.911c2.369-3.8,3.084-4.743,4.754-4.749.931,0,.663.942.663.942" transform="translate(-22.961 -3.216)" fill="#9494ed"/>
          <path id="Trazado_999982" data-name="Trazado 999982" d="M139.207,17.442a10.6,10.6,0,0,0,3.355.3,7.733,7.733,0,0,0,3.563-1.726,23.681,23.681,0,0,0,1.061,5.711,5.423,5.423,0,0,1-6.241,2.894,2.734,2.734,0,0,1-2.579-2.822,41.036,41.036,0,0,0,.841-4.354" transform="translate(-24.134 -2.793)" fill="#ffb9a4"/>
          <path id="Trazado_999983" data-name="Trazado 999983" d="M135.849,8.994c.271-1.735.9-3.884,2.379-4.976,1.465-1.08,3.756-.942,5.463-.627,2.646.49,4.188,3.653,3.329,7.012-.794,3.1-3.45,7.718-7.038,7.977-1.827.132-3.061-1.367-3.685-3.179a14.255,14.255,0,0,1-.448-6.207" transform="translate(-23.669 -0.552)" fill="#ffc9b6"/>
          <path id="Trazado_999984" data-name="Trazado 999984" d="M135.391,5.271a7.233,7.233,0,0,1-2.879.665,2,2,0,0,1-1.89-1.728A10.825,10.825,0,0,1,134,3.781a1.673,1.673,0,0,1,1.389,1.489" transform="translate(-22.784 -0.654)" fill="#7a77d8"/>
          <path id="Trazado_999985" data-name="Trazado 999985" d="M147.339,11.388s.2.124-.365,1.4a26.741,26.741,0,0,1-1.691,3.019s-.8-.555-.709-2.374a5.99,5.99,0,0,1,.709-2.781,5.266,5.266,0,0,1-3.865-1.186C139.4,7.939,139.141,6.8,139.141,6.8s-1.561,2.244-3.672,2.129-4.258-3.19-2.142-3.884,6.933-.027,6.933-.027,7.216,3.95,7.079,6.371" transform="translate(-23.104 -0.825)" fill="#4f3949"/>
          <path id="Trazado_999986" data-name="Trazado 999986" d="M147.989,11.139c-1.608-3.62-7.564-7.765-11.994-7.5.024-.039.04-.076.064-.115,2.353-3.679,4.857-4.5,9.837-2.364s3.677,6.473,3.415,6.993a11.869,11.869,0,0,1-1.323,2.983" transform="translate(-23.721 0)" fill="#7a77d8"/>
          <path id="Trazado_999987" data-name="Trazado 999987" d="M144.332,8.2a11.322,11.322,0,0,0-4.9-4.087,11.558,11.558,0,0,0-8.807,0s3.194.525,4.5,1.966,2.062,2.591,4.627,2.634a13.689,13.689,0,0,0,4.584-.518" transform="translate(-22.784 -0.561)" fill="#9494ed"/>
          <path id="Trazado_999988" data-name="Trazado 999988" d="M127.649,104.923l6.171,26.013v1.27l-2.4,1.372L115.6,121.725v-1.27l7.5-18.158Z" transform="translate(-20.164 -17.843)" fill="#4f3949"/>
          <path id="Trazado_999989" data-name="Trazado 999989" d="M124.737,106.585l6.171,26.014v1.269l-18.219-10.481v-1.27l7.5-18.158Z" transform="translate(-19.656 -18.133)" fill="#4f3949"/>
          <path id="Trazado_999990" data-name="Trazado 999990" d="M80.646,165.573a6.638,6.638,0,0,1,2.772-5.3,1.854,1.854,0,0,1,1.621-.227l.007-.007,1.271.7-.281.559a3.778,3.778,0,0,1,.154,1.073,6.642,6.642,0,0,1-2.772,5.3,2.663,2.663,0,0,1-.518.229l.082.036-.165.554-1.166-.647v-.021a2.394,2.394,0,0,1-1.006-2.246" transform="translate(-14.067 -27.899)" fill="#4f3949"/>
          <path id="Trazado_999991" data-name="Trazado 999991" d="M87.64,163.177a6.638,6.638,0,0,1-2.772,5.3c-1.531.884-2.772-.054-2.772-2.1a6.639,6.639,0,0,1,2.772-5.3c1.531-.883,2.772.054,2.772,2.1" transform="translate(-14.319 -28.039)" fill="#4f3745"/>
          <path id="Trazado_999992" data-name="Trazado 999992" d="M75.9,160.912h.674a3.841,3.841,0,0,1,.778-.6l41.59-24.013,3.7,2.133,1.856-.2v1.27l-2.005,1.157L82.9,163.522a6.674,6.674,0,0,1-5.981.248,1.8,1.8,0,0,1-1.006-1.382l-.016-.011Z" transform="translate(-13.238 -23.775)" fill="#f9ac12"/>
          <path id="Trazado_999993" data-name="Trazado 999993" d="M77.348,158.779l41.591-24.012,5.551,3.2L82.9,161.984a6.67,6.67,0,0,1-5.98.248c-1.526-.881-1.333-2.435.429-3.453" transform="translate(-13.237 -23.507)" fill="#ffc933"/>
          <rect id="Rectángulo_455244" data-name="Rectángulo 455244" width="6.196" height="0.003" transform="translate(67.289 137.132) rotate(-30.001)" fill="#4f3949"/>
          <path id="Trazado_999994" data-name="Trazado 999994" d="M79.669,164.9l1.206-.7a6.977,6.977,0,0,0-.318,1.209Z" transform="translate(-13.896 -28.641)" fill="#4f3949"/>
          <path id="Trazado_999995" data-name="Trazado 999995" d="M87.454,160.847l-.286-.157.211-.121,1.518.876-1.036.6,0,0-.54.312a3.854,3.854,0,0,0-.144-.947Z" transform="translate(-15.204 -28.007)" fill="#4f3949"/>
          <path id="Trazado_999996" data-name="Trazado 999996" d="M81.063,163.46a6.053,6.053,0,0,1,2.372-3.184,1.856,1.856,0,0,1,1.621-.226l.992.532.286.157-.28.56a3.854,3.854,0,0,1,.144.947l-4.825,2.785-.627-.362a7.053,7.053,0,0,1,.318-1.209" transform="translate(-14.084 -27.899)" fill="#3a2632"/>
          <path id="Trazado_999997" data-name="Trazado 999997" d="M84.917,161.081a1.61,1.61,0,0,1,2.536.749l-5.072,2.929a6.294,6.294,0,0,1,2.536-3.678" transform="translate(-14.369 -28.039)" fill="#4f3745"/>
          <path id="Trazado_999998" data-name="Trazado 999998" d="M128.726,104.923l-2.4,1.372-4.547-2.625,2.4-1.372Z" transform="translate(-21.241 -17.843)" fill="#4f3745"/>
          <path id="Trazado_999999" data-name="Trazado 999999" d="M65.3,156.76a6.638,6.638,0,0,1,2.772-5.3,1.855,1.855,0,0,1,1.621-.227l.007-.007,1.271.7-.281.56a3.774,3.774,0,0,1,.154,1.073,6.639,6.639,0,0,1-2.772,5.3,2.666,2.666,0,0,1-.518.229l.082.036-.165.554-1.166-.647v-.021A2.393,2.393,0,0,1,65.3,156.76" transform="translate(-11.39 -26.362)" fill="#4f3949"/>
          <path id="Trazado_1000000" data-name="Trazado 1000000" d="M72.295,154.364a6.638,6.638,0,0,1-2.772,5.3c-1.531.884-2.772-.054-2.772-2.1a6.637,6.637,0,0,1,2.772-5.3c1.531-.884,2.772.054,2.772,2.1" transform="translate(-11.643 -26.501)" fill="#4f3745"/>
          <path id="Trazado_1000001" data-name="Trazado 1000001" d="M60.553,152.1h.674a3.843,3.843,0,0,1,.778-.6l41.589-24.013,3.7,2.133,1.857-.2v1.27l-2.006,1.157L67.556,154.709a6.671,6.671,0,0,1-5.98.249,1.8,1.8,0,0,1-1.008-1.382l-.015-.011Z" transform="translate(-10.562 -22.238)" fill="#f9ac12"/>
          <path id="Trazado_1000002" data-name="Trazado 1000002" d="M62,149.966l41.591-24.012,5.551,3.2L67.554,153.171a6.67,6.67,0,0,1-5.98.248c-1.526-.881-1.333-2.435.429-3.453" transform="translate(-10.56 -21.97)" fill="#ffc933"/>
          <rect id="Rectángulo_455245" data-name="Rectángulo 455245" width="6.196" height="0.002" transform="matrix(0.866, -0.5, 0.5, 0.866, 54.621, 129.856)" fill="#4f3949"/>
          <path id="Trazado_1000003" data-name="Trazado 1000003" d="M64.325,156.085l1.205-.7a6.974,6.974,0,0,0-.317,1.209Z" transform="translate(-11.22 -27.104)" fill="#4f3949"/>
          <path id="Trazado_1000004" data-name="Trazado 1000004" d="M72.11,152.034l-.286-.157.211-.121,1.517.876-1.035.6,0,0-.54.312a3.814,3.814,0,0,0-.144-.947Z" transform="translate(-12.528 -26.47)" fill="#4f3949"/>
          <path id="Trazado_1000005" data-name="Trazado 1000005" d="M65.718,154.647a6.05,6.05,0,0,1,2.373-3.184,1.851,1.851,0,0,1,1.621-.226l.992.533.287.157-.281.56a3.816,3.816,0,0,1,.144.947l-4.825,2.786-.627-.362a7.052,7.052,0,0,1,.318-1.209" transform="translate(-11.407 -26.362)" fill="#3a2632"/>
          <path id="Trazado_1000006" data-name="Trazado 1000006" d="M69.572,152.268a1.61,1.61,0,0,1,2.536.749l-5.072,2.929a6.294,6.294,0,0,1,2.536-3.678" transform="translate(-11.693 -26.501)" fill="#4f3745"/>
          <path id="Trazado_1000007" data-name="Trazado 1000007" d="M128.213,101.224l.983-.611V76.066l-.983.61Z" transform="translate(-22.364 -13.268)" fill="#f9ac12"/>
          <path id="Trazado_1000008" data-name="Trazado 1000008" d="M114.641,53.922a2.5,2.5,0,0,0,0-.6l.779-.409c.041-.027.087-.045.13-.069l.164-.086,0,0c.031-.012.056-.031.088-.042a2.811,2.811,0,0,1,2.3.414l13.158,7.6a7.11,7.11,0,0,1,3.128,4.243c.512,1.867.193,3.571-.834,4.447-1.419,1.211-7.273,2.828-8.433,3.14l-.761.2-.666-.948c-.7-1-6.913-9.861-8.323-12.693-.966-1.938-1.247-3.935-.735-5.209m2.079,4.42c1.211,2.431,6.959,10.68,7.937,12.079,2.019-.555,6.719-1.967,7.732-2.831a2.034,2.034,0,0,0,.551-1.768,4.206,4.206,0,0,0-2.024-3.171l-13.158-7.6a2.026,2.026,0,0,0-.917-.305.631.631,0,0,0-.448.163c-.456.428-.5,1.777.329,3.43" transform="translate(-19.952 -9.179)" fill="#4f3949"/>
          <path id="Trazado_1000009" data-name="Trazado 1000009" d="M113.638,54.457a1.969,1.969,0,0,1,1.167-1.2,2.809,2.809,0,0,1,2.3.414l13.159,7.6a7.1,7.1,0,0,1,3.127,4.242c.513,1.867.193,3.571-.833,4.447-1.419,1.211-7.274,2.828-8.433,3.14l-.762.206-.666-.949c-.7-1-6.913-9.861-8.323-12.693-.966-1.938-1.247-3.934-.735-5.209m2.079,4.42c1.211,2.431,6.959,10.68,7.937,12.079,2.019-.555,6.719-1.967,7.732-2.831a2.033,2.033,0,0,0,.551-1.768,4.208,4.208,0,0,0-2.024-3.171l-13.159-7.6a2.019,2.019,0,0,0-.917-.305.634.634,0,0,0-.447.163c-.456.428-.5,1.777.329,3.43" transform="translate(-19.777 -9.272)" fill="#4f3949"/>
          <path id="Trazado_1000010" data-name="Trazado 1000010" d="M122.705,98.173l4.547,2.625V76.25l-4.547-2.625Z" transform="translate(-21.403 -12.842)" fill="#ffc933"/>
          <path id="Trazado_1000011" data-name="Trazado 1000011" d="M127.639,140.687,74.544,110.1l6.594-3.8,53.1,30.592Z" transform="translate(-13.002 -18.541)" fill="#efb078"/>
          <path id="Trazado_1000012" data-name="Trazado 1000012" d="M74.544,110.9v2.15l53.1,30.592v-2.15Z" transform="translate(-13.002 -19.343)" fill="#e5a46e"/>
          <path id="Trazado_1000013" data-name="Trazado 1000013" d="M145.45,143.352l-6.594,3.8v2.15l6.594-3.8Z" transform="translate(-24.22 -25.004)" fill="#db9865"/>
          <path id="Trazado_1000014" data-name="Trazado 1000014" d="M74.544,110.9v7.6l53.1,30.593v-7.6Zm24.563,20.27L79.484,119.93v-4.568L99.107,126.6Zm23.223,13.221L102.707,133.15v-4.567l19.622,11.239Z" transform="translate(-13.002 -19.343)" fill="#e5a46e"/>
          <path id="Trazado_1000015" data-name="Trazado 1000015" d="M145.45,143.352l-6.594,3.8v7.6l6.594-3.8Z" transform="translate(-24.22 -25.004)" fill="#db9865"/>
          <path id="Trazado_1000016" data-name="Trazado 1000016" d="M118.426,145.947l-53.1-30.592,6.594-3.8,53.1,30.592Z" transform="translate(-11.395 -19.458)" fill="#efb078"/>
          <path id="Trazado_1000017" data-name="Trazado 1000017" d="M65.331,116.158v2.15l53.1,30.592v-2.15Z" transform="translate(-11.395 -20.261)" fill="#e5a46e"/>
          <path id="Trazado_1000018" data-name="Trazado 1000018" d="M136.238,148.611l-6.594,3.8v2.15l6.594-3.8Z" transform="translate(-22.613 -25.921)" fill="#db9865"/>
          <path id="Trazado_1000019" data-name="Trazado 1000019" d="M56.262,121.51v7.6l53.1,30.592v-7.6Zm24.563,20.27L61.2,130.541v-4.566l19.622,11.238ZM104.047,155,84.425,143.762v-4.567l19.622,11.239Z" transform="translate(-9.813 -21.194)" fill="#e5a46e"/>
          <path id="Trazado_1000020" data-name="Trazado 1000020" d="M127.168,153.963l-6.594,3.8v7.6l6.594-3.8Z" transform="translate(-21.031 -26.855)" fill="#db9865"/>
          <path id="Trazado_1000021" data-name="Trazado 1000021" d="M109.231,151.3l-53.1-30.592,6.594-3.8,53.1,30.592Z" transform="translate(-9.791 -20.392)" fill="#efb078"/>
          <path id="Trazado_1000022" data-name="Trazado 1000022" d="M56.136,121.51v2.15l53.1,30.592V152.1Z" transform="translate(-9.791 -21.194)" fill="#e5a46e"/>
          <path id="Trazado_1000023" data-name="Trazado 1000023" d="M127.042,153.963l-6.594,3.8v2.15l6.594-3.8Z" transform="translate(-21.009 -26.855)" fill="#db9865"/>
          <path id="Trazado_1000024" data-name="Trazado 1000024" d="M100.064,156.511l-53.1-30.592,6.594-3.8,53.1,30.592Z" transform="translate(-8.192 -21.301)" fill="#efb078"/>
          <path id="Trazado_1000025" data-name="Trazado 1000025" d="M46.968,126.722v2.15l53.1,30.592v-2.15Z" transform="translate(-8.192 -22.104)" fill="#e5a46e"/>
          <path id="Trazado_1000026" data-name="Trazado 1000026" d="M117.875,159.176l-6.594,3.8v2.149l6.594-3.8Z" transform="translate(-19.41 -27.764)" fill="#db9865"/>
          <path id="Trazado_1000027" data-name="Trazado 1000027" d="M90.868,161.863l-53.1-30.592,6.594-3.8,53.1,30.592Z" transform="translate(-6.589 -22.234)" fill="#efb078"/>
          <path id="Trazado_1000028" data-name="Trazado 1000028" d="M45.137,137.51l-2.95.91v4.2L87.276,168.6v-6.808Z" transform="translate(-7.358 -23.985)" fill="#ad6b3e"/>
          <path id="Trazado_1000029" data-name="Trazado 1000029" d="M37.773,132.074v7.6l53.1,30.593v-7.6Zm24.563,20.27L42.713,141.1v-4.567l19.622,11.239Zm23.223,13.221L65.936,154.326v-4.567L85.558,161Z" transform="translate(-6.589 -23.037)" fill="#e5a46e"/>
          <path id="Trazado_1000030" data-name="Trazado 1000030" d="M108.68,164.527l-6.594,3.8v7.6l6.594-3.8Z" transform="translate(-17.806 -28.698)" fill="#db9865"/>
          <path id="Trazado_1000031" data-name="Trazado 1000031" d="M43.757,137.482v4.561l3.958-2.281Z" transform="translate(-7.632 -23.98)" fill="#c17e52"/>
          <path id="Trazado_1000032" data-name="Trazado 1000032" d="M71.886,153.5v4.56l3.958-2.28Z" transform="translate(-12.539 -26.774)" fill="#c17e52"/>
          <path id="Trazado_1000033" data-name="Trazado 1000033" d="M68.127,131.718,91.38,118.293V99.205L68.127,112.631Z" transform="translate(-11.883 -17.304)" fill="#bf855a"/>
          <path id="Trazado_1000034" data-name="Trazado 1000034" d="M64.842,132.691l-15.551-8.82V104.783l15.551,8.82Z" transform="translate(-8.597 -18.277)" fill="#af744b"/>
          <path id="Trazado_1000035" data-name="Trazado 1000035" d="M49.291,101.925,72.544,88.394,88.1,97.32,64.842,110.745Z" transform="translate(-8.597 -15.418)" fill="#e5b483"/>
          <path id="Trazado_1000036" data-name="Trazado 1000036" d="M56.488,106.012,79.707,92.5l2.033,1.167-23.3,13.451Z" transform="translate(-9.853 -16.134)" fill="#f7f2ec"/>
          <path id="Trazado_1000037" data-name="Trazado 1000037" d="M74.022,114.818l-4.711,2.7v-1.573l4.711-2.7Z" transform="translate(-12.09 -19.753)" fill="#4f3949"/>
          <path id="Trazado_1000038" data-name="Trazado 1000038" d="M74.022,116.634l-4.711,2.7v-.786l4.711-2.7Z" transform="translate(-12.09 -20.207)" fill="#4f3949"/>
          <path id="Trazado_1000039" data-name="Trazado 1000039" d="M74.022,118.26l-4.711,2.7v-.787l4.711-2.7Z" transform="translate(-12.09 -20.49)" fill="#4f3949"/>
          <path id="Trazado_1000040" data-name="Trazado 1000040" d="M74.022,123.4l-4.711,2.7v-4.117l4.711-2.7Z" transform="translate(-12.09 -20.807)" fill="#f7f2ec"/>
          <path id="Trazado_1000041" data-name="Trazado 1000041" d="M56.506,108.839l1.934,1.117v4.458L56.506,113.3Z" transform="translate(-9.856 -18.984)" fill="#d1c5ba"/>
          <path id="Trazado_1000042" data-name="Trazado 1000042" d="M89.012,122.852c0,.13.027.183.069.215a.47.47,0,0,0,.348-.394.17.17,0,1,1,.339,0,.793.793,0,0,1-.687.734.367.367,0,0,1-.308-.16.68.68,0,0,1-.1-.4v-2.6l-1.493.861a3.986,3.986,0,0,1,1.663-3.171c.917-.529,1.66.031,1.663,1.252l-1.493.862Z" transform="translate(-15.206 -20.536)" fill="#4f3949"/>
          <path id="Trazado_1000043" data-name="Trazado 1000043" d="M95.062,120.505l-2.981,1.721V115.4l2.981-1.72ZM94.9,113.95l-2.666,1.539v6.464l2.666-1.539Z" transform="translate(-16.061 -19.828)" fill="#4f3949"/>
          <path id="Trazado_1000044" data-name="Trazado 1000044" d="M90.744,115.993v6.829l-4.085,2.35v-6.828ZM86.817,124.9l3.769-2.17v-6.463l-3.769,2.17Z" transform="translate(-15.115 -20.232)" fill="#4f3949"/>
          <path id="Trazado_1000045" data-name="Trazado 1000045" d="M94.612,117.365a2.409,2.409,0,0,1-.706,1.63V120.2l.458-.264c.136-.078.248.006.248.187a.6.6,0,0,1-.248.474l-1.412.816c-.137.078-.248-.006-.248-.188a.593.593,0,0,1,.248-.473l.457-.265v-1.208c-.4.086-.706-.23-.706-.815v-2.594l1.908-1.1Z" transform="translate(-16.17 -20.019)" fill="#4f3949"/>
          <path id="Trazado_1000046" data-name="Trazado 1000046" d="M89.084,144.146l23.253-13.426V111.633L89.084,125.059Z" transform="translate(-15.538 -19.472)" fill="#bf855a"/>
          <path id="Trazado_1000047" data-name="Trazado 1000047" d="M85.8,145.119,70.247,136.3V117.211l15.551,8.82Z" transform="translate(-12.253 -20.445)" fill="#af744b"/>
          <path id="Trazado_1000048" data-name="Trazado 1000048" d="M70.247,114.353,93.5,100.822l15.551,8.926L85.8,123.173Z" transform="translate(-12.253 -17.586)" fill="#e5b483"/>
          <path id="Trazado_1000049" data-name="Trazado 1000049" d="M77.445,118.44l23.218-13.511L102.7,106.1,79.4,119.547Z" transform="translate(-13.508 -18.302)" fill="#f7f2ec"/>
          <path id="Trazado_1000050" data-name="Trazado 1000050" d="M94.978,127.246l-4.711,2.7v-1.573l4.711-2.7Z" transform="translate(-15.745 -21.921)" fill="#4f3949"/>
          <path id="Trazado_1000051" data-name="Trazado 1000051" d="M94.978,129.062l-4.711,2.7v-.787l4.711-2.7Z" transform="translate(-15.745 -22.375)" fill="#4f3949"/>
          <path id="Trazado_1000052" data-name="Trazado 1000052" d="M94.978,130.689l-4.711,2.7V132.6l4.711-2.7Z" transform="translate(-15.745 -22.658)" fill="#4f3949"/>
          <path id="Trazado_1000053" data-name="Trazado 1000053" d="M94.978,135.833l-4.711,2.7v-4.117l4.711-2.7Z" transform="translate(-15.745 -22.975)" fill="#f7f2ec"/>
          <path id="Trazado_1000054" data-name="Trazado 1000054" d="M77.463,121.267l1.934,1.117v4.458l-1.934-1.117Z" transform="translate(-13.511 -21.152)" fill="#d1c5ba"/>
          <path id="Trazado_1000055" data-name="Trazado 1000055" d="M109.968,135.281c0,.13.027.183.069.215a.47.47,0,0,0,.348-.395.17.17,0,1,1,.339,0,.794.794,0,0,1-.687.735.367.367,0,0,1-.308-.16.68.68,0,0,1-.1-.4v-2.606l-1.493.862a3.982,3.982,0,0,1,1.662-3.171c.917-.529,1.66.031,1.663,1.252l-1.493.862Z" transform="translate(-18.862 -22.704)" fill="#4f3949"/>
          <path id="Trazado_1000056" data-name="Trazado 1000056" d="M116.018,132.933l-2.981,1.721v-6.829l2.981-1.72Zm-.158-6.555-2.666,1.538v6.464l2.666-1.539Z" transform="translate(-19.716 -21.996)" fill="#4f3949"/>
          <path id="Trazado_1000057" data-name="Trazado 1000057" d="M111.7,128.421v6.829l-4.085,2.35v-6.828Zm-3.927,8.906,3.769-2.17v-6.463l-3.769,2.17Z" transform="translate(-18.771 -22.4)" fill="#4f3949"/>
          <path id="Trazado_1000058" data-name="Trazado 1000058" d="M115.568,129.793a2.411,2.411,0,0,1-.706,1.63v1.208l.458-.264c.136-.078.248.006.248.187a.6.6,0,0,1-.248.474l-1.412.815c-.137.079-.248,0-.248-.187a.6.6,0,0,1,.248-.474l.457-.264v-1.208c-.4.086-.706-.23-.706-.815V128.3l1.908-1.1Z" transform="translate(-19.825 -22.186)" fill="#4f3949"/>
          <path id="Trazado_1000059" data-name="Trazado 1000059" d="M68.127,106.849,91.38,93.424V74.337L68.127,87.762Z" transform="translate(-11.883 -12.966)" fill="#bf855a"/>
          <path id="Trazado_1000060" data-name="Trazado 1000060" d="M64.842,107.822,49.29,99V79.915l15.551,8.82Z" transform="translate(-8.597 -13.939)" fill="#af744b"/>
          <path id="Trazado_1000061" data-name="Trazado 1000061" d="M49.291,77.056,72.544,63.525,88.1,72.451,64.842,85.876Z" transform="translate(-8.597 -11.08)" fill="#e5b483"/>
          <path id="Trazado_1000062" data-name="Trazado 1000062" d="M56.488,81.143,79.707,67.632,81.739,68.8,58.441,82.25Z" transform="translate(-9.853 -11.797)" fill="#f7f2ec"/>
          <path id="Trazado_1000063" data-name="Trazado 1000063" d="M74.022,89.949l-4.711,2.7V91.075l4.711-2.7Z" transform="translate(-12.09 -15.415)" fill="#4f3949"/>
          <path id="Trazado_1000064" data-name="Trazado 1000064" d="M74.022,91.765l-4.711,2.7v-.787l4.711-2.7Z" transform="translate(-12.09 -15.869)" fill="#4f3949"/>
          <path id="Trazado_1000065" data-name="Trazado 1000065" d="M74.022,93.392l-4.711,2.7V95.3l4.711-2.7Z" transform="translate(-12.09 -16.153)" fill="#4f3949"/>
          <path id="Trazado_1000066" data-name="Trazado 1000066" d="M74.022,98.536l-4.711,2.7V97.118l4.711-2.7Z" transform="translate(-12.09 -16.469)" fill="#f7f2ec"/>
          <path id="Trazado_1000067" data-name="Trazado 1000067" d="M56.506,83.97l1.934,1.117v4.458l-1.934-1.117Z" transform="translate(-9.856 -14.646)" fill="#d1c5ba"/>
          <path id="Trazado_1000068" data-name="Trazado 1000068" d="M89.012,97.983c0,.13.027.183.069.215a.47.47,0,0,0,.348-.395.17.17,0,1,1,.339,0,.794.794,0,0,1-.687.735.367.367,0,0,1-.308-.16.68.68,0,0,1-.1-.4V95.377l-1.493.862a3.985,3.985,0,0,1,1.663-3.171c.917-.529,1.66.031,1.663,1.252l-1.493.861Z" transform="translate(-15.206 -16.199)" fill="#4f3949"/>
          <path id="Trazado_1000069" data-name="Trazado 1000069" d="M95.062,95.636l-2.981,1.721V90.529l2.981-1.721ZM94.9,89.081,92.239,90.62v6.464L94.9,95.546Z" transform="translate(-16.061 -15.49)" fill="#4f3949"/>
          <path id="Trazado_1000070" data-name="Trazado 1000070" d="M90.744,91.124v6.829l-4.085,2.35V93.475Zm-3.927,8.906,3.769-2.17V91.4l-3.769,2.17Z" transform="translate(-15.115 -15.894)" fill="#4f3949"/>
          <path id="Trazado_1000071" data-name="Trazado 1000071" d="M94.612,92.5a2.409,2.409,0,0,1-.706,1.63v1.208l.458-.264c.136-.078.248.006.248.187a.6.6,0,0,1-.248.474l-1.412.816c-.137.078-.248-.006-.248-.188a.593.593,0,0,1,.248-.473l.457-.265V94.412c-.4.087-.706-.23-.706-.815V91l1.908-1.1Z" transform="translate(-16.17 -15.681)" fill="#4f3949"/>
          <path id="Trazado_1000072" data-name="Trazado 1000072" d="M89.084,119.277l23.253-13.426V86.765L89.084,100.19Z" transform="translate(-15.538 -15.134)" fill="#bf855a"/>
          <path id="Trazado_1000073" data-name="Trazado 1000073" d="M85.8,120.25l-15.551-8.82V92.343l15.551,8.82Z" transform="translate(-12.253 -16.107)" fill="#af744b"/>
          <path id="Trazado_1000074" data-name="Trazado 1000074" d="M70.247,89.484,93.5,75.953l15.551,8.926L85.8,98.3Z" transform="translate(-12.253 -13.248)" fill="#e5b483"/>
          <path id="Trazado_1000075" data-name="Trazado 1000075" d="M77.445,93.571,100.663,80.06l2.033,1.167L79.4,94.678Z" transform="translate(-13.508 -13.965)" fill="#f7f2ec"/>
          <path id="Trazado_1000076" data-name="Trazado 1000076" d="M94.978,102.377l-4.711,2.7V103.5l4.711-2.7Z" transform="translate(-15.745 -17.583)" fill="#4f3949"/>
          <path id="Trazado_1000077" data-name="Trazado 1000077" d="M94.978,104.193l-4.711,2.7v-.787l4.711-2.7Z" transform="translate(-15.745 -18.037)" fill="#4f3949"/>
          <path id="Trazado_1000078" data-name="Trazado 1000078" d="M94.978,105.82l-4.711,2.7v-.787l4.711-2.7Z" transform="translate(-15.745 -18.321)" fill="#4f3949"/>
          <path id="Trazado_1000079" data-name="Trazado 1000079" d="M94.978,110.964l-4.711,2.7v-4.117l4.711-2.7Z" transform="translate(-15.745 -18.637)" fill="#f7f2ec"/>
          <path id="Trazado_1000080" data-name="Trazado 1000080" d="M77.463,96.4,79.4,97.515v4.458l-1.934-1.117Z" transform="translate(-13.511 -16.814)" fill="#d1c5ba"/>
          <path id="Trazado_1000081" data-name="Trazado 1000081" d="M109.968,110.412c0,.13.027.183.069.215a.47.47,0,0,0,.348-.395.17.17,0,1,1,.339,0,.794.794,0,0,1-.687.735.367.367,0,0,1-.308-.16.68.68,0,0,1-.1-.4v-2.606l-1.493.862A3.982,3.982,0,0,1,109.8,105.5c.917-.529,1.66.031,1.663,1.252l-1.493.862Z" transform="translate(-18.862 -18.367)" fill="#4f3949"/>
          <path id="Trazado_1000082" data-name="Trazado 1000082" d="M116.018,108.065l-2.981,1.721v-6.829l2.981-1.721Zm-.158-6.555-2.666,1.538v6.464l2.666-1.538Z" transform="translate(-19.716 -17.658)" fill="#4f3949"/>
          <path id="Trazado_1000083" data-name="Trazado 1000083" d="M111.7,103.553v6.829l-4.085,2.35V105.9Zm-3.927,8.906,3.769-2.169v-6.464L107.774,106Z" transform="translate(-18.771 -18.062)" fill="#4f3949"/>
          <path id="Trazado_1000084" data-name="Trazado 1000084" d="M115.568,104.925a2.409,2.409,0,0,1-.706,1.63v1.208l.458-.264c.136-.078.248.006.248.187a.6.6,0,0,1-.248.474l-1.412.815c-.137.079-.248,0-.248-.187a.6.6,0,0,1,.248-.474l.457-.264v-1.208c-.4.087-.706-.23-.706-.815v-2.595l1.908-1.1Z" transform="translate(-19.825 -17.849)" fill="#4f3949"/>
          <path id="Trazado_1000085" data-name="Trazado 1000085" d="M110.179,155.754l23.253-13.426V123.241l-23.253,13.425Z" transform="translate(-19.218 -21.496)" fill="#bf855a"/>
          <path id="Trazado_1000086" data-name="Trazado 1000086" d="M106.893,156.727l-15.551-8.82V128.819l15.551,8.82Z" transform="translate(-15.932 -22.469)" fill="#af744b"/>
          <path id="Trazado_1000087" data-name="Trazado 1000087" d="M91.342,125.96l23.253-13.531,15.551,8.926L106.893,134.78Z" transform="translate(-15.932 -19.61)" fill="#e5b483"/>
          <path id="Trazado_1000088" data-name="Trazado 1000088" d="M98.54,130.047l23.218-13.511,2.033,1.167-23.3,13.451Z" transform="translate(-17.188 -20.327)" fill="#f7f2ec"/>
          <path id="Trazado_1000089" data-name="Trazado 1000089" d="M116.073,138.853l-4.711,2.7V139.98l4.711-2.7Z" transform="translate(-19.424 -23.945)" fill="#4f3949"/>
          <path id="Trazado_1000090" data-name="Trazado 1000090" d="M116.073,140.669l-4.711,2.7v-.787l4.711-2.7Z" transform="translate(-19.424 -24.399)" fill="#4f3949"/>
          <path id="Trazado_1000091" data-name="Trazado 1000091" d="M116.073,142.3l-4.711,2.7v-.787l4.711-2.7Z" transform="translate(-19.424 -24.683)" fill="#4f3949"/>
          <path id="Trazado_1000092" data-name="Trazado 1000092" d="M116.073,147.441l-4.711,2.7v-4.117l4.711-2.7Z" transform="translate(-19.424 -24.999)" fill="#f7f2ec"/>
          <path id="Trazado_1000093" data-name="Trazado 1000093" d="M98.558,132.874l1.934,1.117v4.458l-1.934-1.116Z" transform="translate(-17.191 -23.177)" fill="#d1c5ba"/>
          <path id="Trazado_1000094" data-name="Trazado 1000094" d="M131.063,146.888c0,.13.027.183.069.215a.47.47,0,0,0,.348-.395.17.17,0,1,1,.339,0,.794.794,0,0,1-.687.735.367.367,0,0,1-.308-.16.68.68,0,0,1-.1-.4v-2.606l-1.493.862a3.982,3.982,0,0,1,1.662-3.171c.917-.529,1.66.031,1.663,1.252l-1.493.861Z" transform="translate(-22.541 -24.729)" fill="#4f3949"/>
          <path id="Trazado_1000095" data-name="Trazado 1000095" d="M137.113,144.541l-2.981,1.721v-6.829l2.981-1.721Zm-.158-6.555-2.665,1.538v6.464l2.665-1.539Z" transform="translate(-23.396 -24.021)" fill="#4f3949"/>
          <path id="Trazado_1000096" data-name="Trazado 1000096" d="M132.8,140.029v6.829l-4.086,2.35V142.38Zm-3.927,8.906,3.769-2.17V140.3l-3.769,2.17Z" transform="translate(-22.45 -24.425)" fill="#4f3949"/>
          <path id="Trazado_1000097" data-name="Trazado 1000097" d="M136.663,141.4a2.411,2.411,0,0,1-.706,1.63v1.208l.458-.264c.136-.078.248.006.248.187a.6.6,0,0,1-.248.474L135,145.45c-.136.079-.248,0-.248-.187a.6.6,0,0,1,.248-.474l.457-.264v-1.208c-.4.087-.706-.23-.706-.815v-2.595l1.908-1.1Z" transform="translate(-23.505 -24.211)" fill="#4f3949"/>
          <path id="Trazado_1000098" data-name="Trazado 1000098" d="M110.179,130.885l23.253-13.426V98.372L110.179,111.8Z" transform="translate(-19.218 -17.159)" fill="#bf855a"/>
          <path id="Trazado_1000099" data-name="Trazado 1000099" d="M106.893,131.858l-15.551-8.82V103.95l15.551,8.82Z" transform="translate(-15.932 -18.132)" fill="#af744b"/>
          <path id="Trazado_1000100" data-name="Trazado 1000100" d="M91.342,101.092l23.253-13.531,15.551,8.926-23.253,13.425Z" transform="translate(-15.932 -15.273)" fill="#e5b483"/>
          <path id="Trazado_1000101" data-name="Trazado 1000101" d="M98.54,105.179l23.218-13.511,2.033,1.167-23.3,13.451Z" transform="translate(-17.188 -15.989)" fill="#f7f2ec"/>
          <path id="Trazado_1000102" data-name="Trazado 1000102" d="M116.073,113.985l-4.711,2.7v-1.573l4.711-2.7Z" transform="translate(-19.424 -19.607)" fill="#4f3949"/>
          <path id="Trazado_1000103" data-name="Trazado 1000103" d="M116.073,115.8l-4.711,2.7v-.787l4.711-2.7Z" transform="translate(-19.424 -20.061)" fill="#4f3949"/>
          <path id="Trazado_1000104" data-name="Trazado 1000104" d="M116.073,117.427l-4.711,2.7v-.787l4.711-2.7Z" transform="translate(-19.424 -20.345)" fill="#4f3949"/>
          <path id="Trazado_1000105" data-name="Trazado 1000105" d="M116.073,122.572l-4.711,2.7v-4.117l4.711-2.7Z" transform="translate(-19.424 -20.662)" fill="#f7f2ec"/>
          <path id="Trazado_1000106" data-name="Trazado 1000106" d="M98.558,108.006l1.934,1.117v4.458l-1.934-1.116Z" transform="translate(-17.191 -18.839)" fill="#d1c5ba"/>
          <path id="Trazado_1000107" data-name="Trazado 1000107" d="M131.063,122.019c0,.13.027.183.069.215a.47.47,0,0,0,.348-.395.17.17,0,1,1,.339,0,.794.794,0,0,1-.687.735.367.367,0,0,1-.308-.16.68.68,0,0,1-.1-.4v-2.606l-1.493.862a3.982,3.982,0,0,1,1.662-3.171c.917-.529,1.66.031,1.663,1.252l-1.493.862Z" transform="translate(-22.541 -20.391)" fill="#4f3949"/>
          <path id="Trazado_1000108" data-name="Trazado 1000108" d="M137.113,119.672l-2.981,1.721v-6.828l2.981-1.721Zm-.158-6.555-2.665,1.538v6.465l2.665-1.539Z" transform="translate(-23.396 -19.683)" fill="#4f3949"/>
          <path id="Trazado_1000109" data-name="Trazado 1000109" d="M132.8,115.16v6.829l-4.086,2.35v-6.828Zm-3.927,8.906,3.769-2.17v-6.463l-3.769,2.17Z" transform="translate(-22.45 -20.087)" fill="#4f3949"/>
          <path id="Trazado_1000110" data-name="Trazado 1000110" d="M136.663,116.532a2.409,2.409,0,0,1-.706,1.63v1.208l.458-.264c.136-.078.248.006.248.187a.6.6,0,0,1-.248.474l-1.412.815c-.136.079-.248,0-.248-.187a.6.6,0,0,1,.248-.474l.457-.264v-1.208c-.4.087-.706-.23-.706-.815v-2.594l1.908-1.1Z" transform="translate(-23.505 -19.873)" fill="#4f3949"/>
          <path id="Trazado_1000111" data-name="Trazado 1000111" d="M152.812,25.325a15.424,15.424,0,0,0-4.782,8.292,7.865,7.865,0,0,0,.755,5.371,41.67,41.67,0,0,1-1.228,4.092c-.444.987,4.983,5.436,8.182,3.943a25.881,25.881,0,0,0,2.388-7.682,10.979,10.979,0,0,0,1.333-9.114c-1.356-4.087-4.886-4.3-6.649-4.9" transform="translate(-25.733 -4.417)" fill="#ffc933"/>
          <path id="Trazado_1000112" data-name="Trazado 1000112" d="M148.166,48.262a3.722,3.722,0,0,0-3.431-.353,16.428,16.428,0,0,1-1.25,3.825,74.448,74.448,0,0,0-7.8,1.974c-3.2,1.207-5.1,2.129-6.709,1.8s-1.956.643-1.956.643l.973.561s-.554.065-.906,1.617.07,2.2.906,1.981a.982.982,0,0,0,1.139.806c0,.6.812.783,1.129.882.635.2,2.125-1.272,2.526-1.972a2.639,2.639,0,0,1,2.632-1.41c.727.014,7.918-.71,9.776-1.063s2.218-1.01,3.414-2.657a21.676,21.676,0,0,0,2.231-4.072,7.5,7.5,0,0,0-2.677-2.563" transform="translate(-22.146 -8.307)" fill="#ffc9b6"/>
          <path id="Trazado_1000113" data-name="Trazado 1000113" d="M126.083,37.525s-1.86-2.409-4.075-1.016-4.726,7.671-5.432,9.788-1.74,4.233-1.187,5.785a4.181,4.181,0,0,0,3.656,2.246c.65-.206.846-1.8,1.612-2.023a2.388,2.388,0,0,1,1.645.332,3.442,3.442,0,0,0-.515-2.391c-.767-1.127-1.634-2.114-.957-2.961s4.47-5.124,5.252-6.991,0-2.768,0-2.768" transform="translate(-20.099 -6.292)" fill="#ffc9b6"/>
          <path id="Trazado_1000114" data-name="Trazado 1000114" d="M26.485,118.036c-.854-.732-1.221-1.526-2.87-1.774a5.4,5.4,0,0,1-2.68-1.214,12,12,0,0,1,1.417-3.937s.613.4,2.178,1.205c1.143.589,2.819-.317,3.4-1.205,1.226.976,2.456,2.642,5.085,5.115,1.409,1.325,2.316,1.922,2.316,2.953a11.193,11.193,0,0,1-3.574.722c-1.261.154-4.418-1.131-5.273-1.864" transform="translate(-3.652 -19.38)" fill="#fff"/>
          <path id="Trazado_1000115" data-name="Trazado 1000115" d="M35.832,120.744c-.4.662-3.4,1.815-5.6.955s-3.51-1.916-5.086-2.41-4.553-1.247-4.219-3.41a5.4,5.4,0,0,0,2.68,1.214c1.649.247,2.015,1.041,2.87,1.774s4.011,2.019,5.273,1.863,2.35-1.315,3.19-1.788c.6.611,1.094,1.462.89,1.8" transform="translate(-3.646 -20.212)" fill="#4f3949"/>
          <path id="Trazado_1000116" data-name="Trazado 1000116" d="M32.956,115.135s-1.285.935-1.957,1.3-1.228-.213-.521-1.024a5.063,5.063,0,0,1,1.64-1.153Z" transform="translate(-5.259 -19.93)" fill="#4f3949"/>
          <path id="Trazado_1000117" data-name="Trazado 1000117" d="M6.549,125.841c-.8-.788-1.115-1.606-2.744-1.964a5.394,5.394,0,0,1-2.591-1.392,11.989,11.989,0,0,1,1.679-3.832s.585.438,2.091,1.349c1.1.665,2.834-.126,3.475-.973,1.157,1.057,2.273,2.8,4.729,5.446,1.317,1.418,2.18,2.074,2.111,3.1a11.18,11.18,0,0,1-3.614.479c-1.269.069-4.332-1.427-5.135-2.215" transform="translate(-0.212 -20.696)" fill="#fff"/>
          <path id="Trazado_1000118" data-name="Trazado 1000118" d="M15.743,129.154c-.441.634-3.519,1.581-5.649.575s-3.372-2.148-4.912-2.747-4.458-1.55-3.978-3.688a5.4,5.4,0,0,0,2.591,1.393c1.628.358,1.94,1.175,2.744,1.963s3.865,2.284,5.134,2.216,2.434-1.155,3.3-1.57c.556.65.992,1.533.766,1.858" transform="translate(-0.201 -21.506)" fill="#4f3949"/>
          <path id="Trazado_1000119" data-name="Trazado 1000119" d="M13.231,123.391s-1.346.847-2.04,1.167-1.211-.295-.45-1.056a5.061,5.061,0,0,1,1.714-1.04Z" transform="translate(-1.808 -21.36)" fill="#4f3949"/>
          <path id="Trazado_1000120" data-name="Trazado 1000120" d="M21.924,31.417a6.015,6.015,0,0,1,4.84,2.061c1.739,2.165,5.05,6.825,5.05,6.825l-5.64,2.991L21.413,32.323Z" transform="translate(-3.735 -5.479)" fill="#deeaff"/>
          <path id="Trazado_1000121" data-name="Trazado 1000121" d="M25.646,64.086s2.6,6.3,3.652,8.732c.84,1.933,2.046,7.929,2.506,10.307a4.755,4.755,0,0,1-.042,1.99c-.683,2.916-1.936,12.466-4.878,19.475-.8.229-4.762,2.344-7-.17a90.707,90.707,0,0,1,2.085-19.41s-4.28-7.565-5.65-11.045a56.974,56.974,0,0,0-2.844-6.131Z" transform="translate(-2.35 -11.178)" fill="#7a77d8"/>
          <path id="Trazado_1000122" data-name="Trazado 1000122" d="M17.947,66.751s-.725,8.973-.146,12.585c.443,2.767-.6,9.837-.635,12.256a5.216,5.216,0,0,1-.536,2.236c-1.29,2.633-5.362,12.689-7.694,17.917-3.936.891-4.666.409-7.4-1.867.605-6.4,5.413-19.689,5.413-19.689S3.02,74,5.938,66c2.057-5.644,12.009.755,12.009.755" transform="translate(-0.269 -11.105)" fill="#9494ed"/>
          <path id="Trazado_1000123" data-name="Trazado 1000123" d="M23.767,65.863a10.674,10.674,0,0,1-8.451,4.3,28.484,28.484,0,0,1-9.3-1.4v-2.9l16.159-1.776Z" transform="translate(-1.05 -11.178)" fill="#7a77d8"/>
          <path id="Trazado_1000124" data-name="Trazado 1000124" d="M23.02,57.06H7.468a33.52,33.52,0,0,0-2.655-9.643c-1.825-3.505-2.118-8.088,0-10.26a36.609,36.609,0,0,1,6.226-4.095A12.879,12.879,0,0,1,15.7,31.444c4.338-.61,7.9,9.89,6.55,12.461-.058,3.031.764,8.881.769,13.156" transform="translate(-0.581 -5.48)" fill="#fff"/>
          <path id="Trazado_1000125" data-name="Trazado 1000125" d="M18.645,30.765s4.631,4.994,5.226,8.755c.234,1.483-.018,4.536-.018,8.579.026,4.835,2.721,9.224.376,10.175a7.383,7.383,0,0,1-8.975,3.269c-3.032.77-8.57.464-9.488-.451-1.476-2.019,1.445-7.012,1.445-7.012a42.128,42.128,0,0,0,3.137-3.5c1.467-2.451,2.7-6.233,1.053-9.529A24.142,24.142,0,0,0,7.365,35.5c.3-1.082,1.9-1.332,1.9-1.332s4.77,4.945,6.289,8.584c2.083-1.17,5.715-2.753,6.512-3.279-.8-3.177-4.368-8-4.368-8Z" transform="translate(-0.933 -5.366)" fill="#9494ed"/>
          <path id="Trazado_1000126" data-name="Trazado 1000126" d="M19.2,35.839c.765-1.252-.665-4.431-.835-4.852a5.634,5.634,0,0,1-.036-4.436l-5.36,1.6a25.393,25.393,0,0,0-.567,4.478c1.777,1.815,5.155,4.941,6.8,3.207" transform="translate(-2.163 -4.631)" fill="#ffb8a3"/>
          <path id="Trazado_1000127" data-name="Trazado 1000127" d="M13.148,25.191c2.632,5.772,6.455,6.7,8.41,5.178,1.7-1.329,2.451-3.372,1.92-6.6-.793-4.829-3.833-6.957-5.909-6.357s-7.022,2.081-4.422,7.784" transform="translate(-2.165 -3.019)" fill="#ffc8b5"/>
          <path id="Trazado_1000128" data-name="Trazado 1000128" d="M23.517,20.515s-1.81,2.516-6.048,2.521a4.064,4.064,0,0,1-2.676,1.413s-1.112,3.041-2.421,3.633a31.956,31.956,0,0,0-1.476-4.6c-2-5.6,2.226-9.55,7.737-8.019,4.25-1.142,4.883,5.048,4.883,5.048" transform="translate(-1.813 -2.64)" fill="#4f3949"/>
          <path id="Trazado_1000129" data-name="Trazado 1000129" d="M16.574,26.819s-1.667-1.664-2.315.012a2.32,2.32,0,0,0,.81,2.695Z" transform="translate(-2.458 -4.55)" fill="#ffc8b5"/>
          <path id="Trazado_1000130" data-name="Trazado 1000130" d="M22.759,60.026l-2.137-.654-.427,1.545,3.867.592Z" transform="translate(-3.522 -10.356)" fill="#fff"/>
          <path id="Trazado_1000131" data-name="Trazado 1000131" d="M32.862,72.317,55.443,59.279V40.744L32.862,53.781Z" transform="translate(-5.732 -7.107)" fill="#bf855a"/>
          <path id="Trazado_1000132" data-name="Trazado 1000132" d="M29.672,73.262,14.569,64.7V46.161l15.1,8.565Z" transform="translate(-2.541 -8.052)" fill="#af744b"/>
          <path id="Trazado_1000133" data-name="Trazado 1000133" d="M14.57,43.385l22.581-13.14,15.1,8.668L29.672,51.95Z" transform="translate(-2.541 -5.275)" fill="#e5b483"/>
          <path id="Trazado_1000134" data-name="Trazado 1000134" d="M21.56,47.353l22.547-13.12,1.974,1.133L23.456,48.429Z" transform="translate(-3.761 -5.971)" fill="#f7f2ec"/>
          <path id="Trazado_1000135" data-name="Trazado 1000135" d="M38.587,55.9l-4.575,2.62V57l4.575-2.62Z" transform="translate(-5.933 -9.485)" fill="#4f3949"/>
          <path id="Trazado_1000136" data-name="Trazado 1000136" d="M38.587,57.668l-4.575,2.62v-.764l4.575-2.62Z" transform="translate(-5.933 -9.926)" fill="#4f3949"/>
          <path id="Trazado_1000137" data-name="Trazado 1000137" d="M38.587,59.248l-4.575,2.62V61.1l4.575-2.62Z" transform="translate(-5.933 -10.201)" fill="#4f3949"/>
          <path id="Trazado_1000138" data-name="Trazado 1000138" d="M38.587,64.244l-4.575,2.62v-4l4.575-2.62Z" transform="translate(-5.933 -10.508)" fill="#f7f2ec"/>
          <path id="Trazado_1000139" data-name="Trazado 1000139" d="M21.577,50.1l1.878,1.085v4.329l-1.878-1.085Z" transform="translate(-3.764 -8.738)" fill="#d1c5ba"/>
          <path id="Trazado_1000140" data-name="Trazado 1000140" d="M53.143,63.707c0,.127.026.177.067.21a.457.457,0,0,0,.337-.383.165.165,0,0,1,.33,0,.771.771,0,0,1-.667.712.356.356,0,0,1-.3-.155.665.665,0,0,1-.1-.384v-2.53l-1.45.836a3.871,3.871,0,0,1,1.615-3.079c.891-.514,1.612.031,1.614,1.215l-1.449.837Z" transform="translate(-8.959 -10.246)" fill="#4f3949"/>
          <path id="Trazado_1000141" data-name="Trazado 1000141" d="M59.019,61.428l-2.9,1.672V56.469l2.9-1.672Zm-.154-6.365-2.588,1.494v6.278l2.588-1.5Z" transform="translate(-9.789 -9.558)" fill="#4f3949"/>
          <path id="Trazado_1000142" data-name="Trazado 1000142" d="M54.825,57.047v6.631l-3.967,2.284V59.33ZM51.012,65.7l3.661-2.107V57.312l-3.661,2.107Z" transform="translate(-8.871 -9.95)" fill="#4f3949"/>
          <path id="Trazado_1000143" data-name="Trazado 1000143" d="M58.582,58.379a2.34,2.34,0,0,1-.685,1.583v1.173l.444-.257c.133-.076.241.006.241.182a.578.578,0,0,1-.241.46l-1.37.792c-.133.076-.241-.006-.241-.182a.578.578,0,0,1,.241-.46l.444-.257V60.24c-.393.083-.685-.224-.685-.791v-2.52l1.853-1.07Z" transform="translate(-9.895 -9.743)" fill="#4f3949"/>
          <path id="Trazado_1000144" data-name="Trazado 1000144" d="M5.83,36.734c-3.606.844-4.991,3.578-5.545,8.9A68.916,68.916,0,0,0,.2,57.043c2.748,4.184,10.788,4.834,12.268,4.188,2.425-1.057,2.22-3.781-.13-5.551-1.278-.963-3.841-1.412-5.625-1.8,0-3.145-.122-6.019-.122-6.019s1.73-3.262,1.4-5.794A10.655,10.655,0,0,0,5.83,36.734" transform="translate(0 -6.407)" fill="#deeaff"/>
          <path id="Trazado_1000145" data-name="Trazado 1000145" d="M13.385,61.169a9.832,9.832,0,0,0,3.43-.666c1.574-.675,2.592-1.195,3.209-1.366s.559.386.074.992a13.181,13.181,0,0,1-2.026,1.65s2.434.627,4.03.877c.721.113,1.522.275,1.7.62.108.207-.087.553-.438.788a.533.533,0,0,1-.021.954,5.862,5.862,0,0,1-5.4,1.08,50.184,50.184,0,0,1-5.247-1.758,2.361,2.361,0,0,1,.69-3.17" transform="translate(-2.154 -10.309)" fill="#ffc9b6"/>
        </g>
      </g>
    </g>
  </g>
</svg>
