<svg xmlns="http://www.w3.org/2000/svg" width="85" height="85" viewBox="0 0 85 85">
  <g id="Grupo_1179114" data-name="Grupo 1179114" transform="translate(-1020 -944)">
    <g id="Grupo_1177586" data-name="Grupo 1177586">
      <rect id="Rectángulo_454600" data-name="Rectángulo 454600" width="85" height="85" rx="20" transform="translate(1020 944)" fill="#fe8938"/>
      <path id="Trazado_993877" data-name="Trazado 993877" d="M80.517,15.175,74,8.655A2.206,2.206,0,0,0,72.405,8H36.8a2.253,2.253,0,0,0-2.25,2.25V45.34a3.437,3.437,0,0,1-2.5-.195c-.025-.014-.051-.028-.078-.04L30.222,44.3l.427-.966a2.592,2.592,0,0,0-1.321-3.415l-3-1.328a2.593,2.593,0,0,0-3.415,1.321l-6.9,15.608a2.593,2.593,0,0,0,1.321,3.415l3,1.328a2.593,2.593,0,0,0,3.415-1.321l.239-.54c1.122.5,1.444.633,1.584.687.264.1.375.6.515,1.35a7.518,7.518,0,0,0,.336,1.328l-.775,1.449a3.51,3.51,0,0,0,2.914,5.165,3.527,3.527,0,0,0,.143,1.294,3.5,3.5,0,0,0,4.826,2.171,3.5,3.5,0,0,0,4.244,1.619A3.515,3.515,0,0,0,40.957,75.5a3.543,3.543,0,0,0,1.028-.154A3.493,3.493,0,0,0,43.7,74.194l.67.385a3.329,3.329,0,0,0,1.664.445,3.442,3.442,0,0,0,.93-.129,3.485,3.485,0,0,0,2.1-1.664,3.409,3.409,0,0,0,.419-1.475A3.463,3.463,0,0,0,52.963,70a3.4,3.4,0,0,0,.421-1.6,3.476,3.476,0,0,0,2.168-.621H78.926a2.253,2.253,0,0,0,2.25-2.25V16.767a2.205,2.205,0,0,0-.659-1.591Zm-6.542-3.462L77.459,15.2H73.975ZM21.759,58.06a.416.416,0,0,1-.543.21l-3-1.328A.417.417,0,0,1,18,56.4l6.9-15.608a.409.409,0,0,1,.228-.216.428.428,0,0,1,.152-.029.4.4,0,0,1,.162.034l3,1.328a.417.417,0,0,1,.21.543Zm6.359,7.99a1.344,1.344,0,0,1-.548-1.809l1.5-2.8A1.336,1.336,0,0,1,31.473,62.6l-1.936,3.351A1.342,1.342,0,0,1,28.118,66.05ZM33.3,63.8a1.334,1.334,0,0,1,2.113,1.3l-2.158,4.18a1.345,1.345,0,0,1-1.814.557,1.344,1.344,0,0,1-.548-1.809Zm2.682,7.535a1.342,1.342,0,0,1-.7-1.229l2.06-3.99a1.335,1.335,0,0,1,2.227,1.205l-1.9,3.66A1.34,1.34,0,0,1,35.978,71.33Zm5.376,1.937a1.326,1.326,0,0,1-1.017-.1,1.354,1.354,0,0,1-.7-1.276l1.852-3.56a1.356,1.356,0,0,1,1.544-.2,1.306,1.306,0,0,1,.405.338,1.074,1.074,0,0,0,.073.1,1.347,1.347,0,0,1,.07,1.369l-1.434,2.682a1.327,1.327,0,0,1-.792.646Zm5.808-1.086a1.294,1.294,0,0,1-.781.617,1.19,1.19,0,0,1-.921-.107l-.674-.387.715-1.337a3.469,3.469,0,0,0,.347-.986l.683.386a1.105,1.105,0,0,0,.128.086A1.282,1.282,0,0,1,47.162,72.181Zm7.523-6.612a1.268,1.268,0,0,1-1.719.5L45.6,61.922a1.089,1.089,0,1,0-1.068,1.9L50.4,67.126a1.1,1.1,0,0,0,.144.1,1.282,1.282,0,0,1,.509,1.725,1.262,1.262,0,0,1-.763.606,1.241,1.241,0,0,1-.952-.1L45.1,67.059a3.467,3.467,0,0,0-1.042-.849,3.508,3.508,0,0,0-2.5-.313A3.517,3.517,0,0,0,37.4,63.676a3.51,3.51,0,0,0-3.715-2.3,3.511,3.511,0,0,0-5.608-2.069,2.907,2.907,0,0,0-1.716-2.252c-.127-.049-.5-.208-1.492-.649L29.342,46.29l1.683.776c1.722.949,3.377.561,4.978.186a7.234,7.234,0,0,1,4.363-.1q-.466.409-.928.875a27.606,27.606,0,0,1-5.72,4.313,1.369,1.369,0,0,0-.391,2.024,6.25,6.25,0,0,0,5.2,2.742,13.677,13.677,0,0,0,4.856-1.3c1.946-.788,3.627-1.468,4.914-.734l8.146,4.643a1.32,1.32,0,0,1,.536.572h0a1.245,1.245,0,0,1-.023,1.156,1.266,1.266,0,0,1-.768.609,1.229,1.229,0,0,1-.943-.1h0c-1.725-.966-3.681-2.062-5.6-3.159a1.089,1.089,0,0,0-1.082,1.89c1.925,1.1,3.885,2.2,5.614,3.168a1.282,1.282,0,0,1,.508,1.725Zm12.733-7.806a.417.417,0,0,1-.235.532l-3.063,1.187a.417.417,0,0,1-.532-.235L57.42,43.337a.417.417,0,0,1,.235-.532l3.063-1.187a.4.4,0,0,1,.145-.027.424.424,0,0,1,.169.036.41.41,0,0,1,.218.226Zm-6.831-.23-2.245.937a3.512,3.512,0,0,0-.823-.648l-8.146-4.643c-2.2-1.257-4.546-.309-6.81.608-2.96,1.2-4.971,1.862-6.912-.066a28.822,28.822,0,0,0,5.334-4.16,13.843,13.843,0,0,1,2-1.7c3.046-2.09,5.077-1.259,7.227-.38,1.608.657,3.271,1.337,5.064.4l1.3-.7ZM78.926,65.6H56.957a3.453,3.453,0,0,0-.053-1.491,3.423,3.423,0,0,0,2.357-3.662l2.115-.882.183.471a2.589,2.589,0,0,0,3.35,1.478l3.063-1.187a2.571,2.571,0,0,0,.969-.665h4.352a1.089,1.089,0,1,0,0-2.178h-3.7a2.584,2.584,0,0,0-.14-.507l-2.167-5.59h6.01a1.089,1.089,0,1,0,0-2.178H66.438l-2.363-6.1h9.217a1.089,1.089,0,1,0,0-2.178H63.222a2.588,2.588,0,0,0-3.292-1.348l-3.063,1.187a2.582,2.582,0,0,0-.333.16h-14.1a1.089,1.089,0,1,0,0,2.178H55.216a2.573,2.573,0,0,0,.174,1.012l.4,1.023-1.525.816c-.846.44-1.732.116-3.224-.494-2.111-.863-4.964-2.026-8.681.215a7.767,7.767,0,0,0-5.624-.82V10.246a.074.074,0,0,1,.073-.073H71.8V15.7a1.671,1.671,0,0,0,1.669,1.67H79V65.527a.075.075,0,0,1-.073.073ZM74.38,33.749a1.089,1.089,0,0,1-1.089,1.089H67.641a1.089,1.089,0,1,1,0-2.178h5.651A1.089,1.089,0,0,1,74.38,33.749Zm0-8.274a1.089,1.089,0,0,1-1.089,1.089H67.641a1.089,1.089,0,1,1,0-2.178h5.651A1.089,1.089,0,0,1,74.38,25.475ZM52.359,14.466A11.009,11.009,0,1,0,63.369,25.475,11.022,11.022,0,0,0,52.359,14.466Zm0,19.841a8.832,8.832,0,1,1,8.832-8.832,8.842,8.842,0,0,1-8.832,8.832Zm4.246-6.641a2.976,2.976,0,0,1-.7,2.368,4.3,4.3,0,0,1-2.458,1.305v.413a1.089,1.089,0,1,1-2.178,0v-.431a4.013,4.013,0,0,1-3.15-2.915,1.089,1.089,0,1,1,2.113-.527,2.1,2.1,0,0,0,2.23,1.381,2.6,2.6,0,0,0,1.8-.651.812.812,0,0,0,.185-.681c-.06-.5-.371-1.106-2.252-1.415-3.008-.494-3.712-2.078-3.772-3.319a3.5,3.5,0,0,1,2.85-3.547V19.2a1.089,1.089,0,0,1,2.178,0v.441a4,4,0,0,1,2.836,2.4,1.089,1.089,0,0,1-2.008.843,2.045,2.045,0,0,0-2.428-1.134c-.218.049-1.3.346-1.253,1.34.013.264.047.964,1.95,1.276C55.023,24.772,56.389,25.883,56.605,27.666ZM27.152,43.131a1.021,1.021,0,1,1-.972-1.067A1.021,1.021,0,0,1,27.152,43.131Zm33.782.955a1.021,1.021,0,1,1-1.021-1.021A1.021,1.021,0,0,1,60.934,44.086Z" transform="translate(1014.018 944.75)" fill="#1e3a8a" fill-rule="evenodd"/>
    </g>
  </g>
</svg>
