<svg xmlns="http://www.w3.org/2000/svg" width="85" height="85" viewBox="0 0 85 85">
  <g id="Grupo_1179112" data-name="Grupo 1179112" transform="translate(-600 -930)">
    <g id="Grupo_1177130" data-name="Grupo 1177130">
      <rect id="Rectángulo_409365" data-name="Rectángulo 409365" width="85" height="85" rx="14" transform="translate(600 930)" fill="#fe8938"/>
      <g id="Grupo_1177129" data-name="Grupo 1177129" transform="translate(607.666 887.848)">
        <path id="Trazado_992381" data-name="Trazado 992381" d="M81.033,276.019a1.021,1.021,0,1,0,0-2.041H78.62a1.021,1.021,0,1,0,0,2.041Z" transform="translate(-67.04 -186.879)" fill="#1e3a8a"/>
        <path id="Trazado_992382" data-name="Trazado 992382" d="M352.226,203.706l-1.625-2.331a1.02,1.02,0,0,0-1.674,0l-1.625,2.331h-5.877a1.02,1.02,0,0,0-1.021,1.021v6.836a8.167,8.167,0,1,0,16.334,0v-6.836a1.02,1.02,0,0,0-1.021-1.021Zm2.472,7.856a6.126,6.126,0,1,1-12.252,0v-5.815h5.389a1.02,1.02,0,0,0,.837-.437l1.092-1.567,1.092,1.567a1.02,1.02,0,0,0,.837.437h3v5.815Z" transform="translate(-294.086 -123.778)" fill="#1e3a8a"/>
        <path id="Trazado_992383" data-name="Trazado 992383" d="M374.7,250.964v-.931a1.021,1.021,0,0,0-2.041,0v.931a1.021,1.021,0,0,0,2.041,0Z" transform="translate(-321.95 -165.31)" fill="#1e3a8a"/>
        <path id="Trazado_992384" data-name="Trazado 992384" d="M413.189,250.033v.931a1.021,1.021,0,1,0,2.041,0v-.931a1.021,1.021,0,1,0-2.041,0Z" transform="translate(-356.966 -165.31)" fill="#1e3a8a"/>
        <path id="Trazado_992385" data-name="Trazado 992385" d="M380.8,282.414a2.836,2.836,0,0,1-3.553,0A1.021,1.021,0,1,0,376.1,284.1a4.876,4.876,0,0,0,5.846,0,1.021,1.021,0,0,0-1.146-1.689Z" transform="translate(-324.538 -194.016)" fill="#1e3a8a"/>
        <path id="Trazado_992386" data-name="Trazado 992386" d="M243.934,226.677l2.434-3.505a1.837,1.837,0,0,0,0-2.087l-2.434-3.506a1.83,1.83,0,0,0-1.5-.786h-2.62a1.831,1.831,0,0,0-1.829,1.829v7.011a1.831,1.831,0,0,0,1.829,1.829h2.62A1.829,1.829,0,0,0,243.934,226.677Zm-1.613-1.255h-2.3v-6.588h2.3l2.287,3.294Z" transform="translate(-205.599 -137.476)" fill="#1e3a8a"/>
        <path id="Trazado_992387" data-name="Trazado 992387" d="M170.5,129.656a1.021,1.021,0,1,0-1.485,1.4l1.022,1.083H158.163a1.021,1.021,0,1,0,0,2.041h11.873l-1.022,1.083a1.021,1.021,0,0,0,1.485,1.4l2.646-2.8a1.021,1.021,0,0,0,0-1.4Z" transform="translate(-135.76 -61.918)" fill="#1e3a8a"/>
        <path id="Trazado_992388" data-name="Trazado 992388" d="M169.056,333.821a1.021,1.021,0,0,0,1.443-.042l2.646-2.8a1.021,1.021,0,0,0,0-1.4l-2.646-2.8a1.021,1.021,0,0,0-1.485,1.4l1.022,1.083H158.163a1.021,1.021,0,1,0,0,2.041h11.873l-1.022,1.083a1.021,1.021,0,0,0,.042,1.443Z" transform="translate(-135.76 -232.212)" fill="#1e3a8a"/>
        <path id="Trazado_992389" data-name="Trazado 992389" d="M69.666,95.4a3.725,3.725,0,0,0-3.729-3.575.233.233,0,0,1-.233-.233V87.873a1.021,1.021,0,0,0-2.041,0v3.722a2.276,2.276,0,0,0,2.274,2.274,1.714,1.714,0,0,1,1.689,1.586A1.63,1.63,0,0,1,66,97.128H42.974a1.637,1.637,0,0,1-1.629-1.6,1.584,1.584,0,0,1,.466-1.144,1.726,1.726,0,0,1,1.223-.517,2.277,2.277,0,0,0,2.274-2.274V81.354a9.178,9.178,0,0,1,18.356,0v2.559a1.021,1.021,0,1,0,2.041,0V81.354a11.239,11.239,0,0,0-7.822-10.693V62.43a4.77,4.77,0,0,0-4.765-4.765h-14.5a1.021,1.021,0,0,0,0,2.041h14.5a2.727,2.727,0,0,1,2.724,2.724v7.787A11.225,11.225,0,0,0,43.267,81.354V91.6a.233.233,0,0,1-.233.233,3.778,3.778,0,0,0-2.68,1.129,3.61,3.61,0,0,0-1.05,2.613,3.689,3.689,0,0,0,3.67,3.6H55.841v7.705a2.727,2.727,0,0,1-2.724,2.724H16.55a2.727,2.727,0,0,1-2.724-2.724V92.651h11.4a2.165,2.165,0,0,0,2.162-2.162v-6.77h2.133a1.021,1.021,0,0,0,.864-1.563l-3.154-5.024a1.02,1.02,0,0,0-.864-.478H13.826V62.43a2.727,2.727,0,0,1,2.724-2.724H34.669a1.021,1.021,0,0,0,0-2.041H16.55a4.77,4.77,0,0,0-4.765,4.765V76.653H3.994a1.02,1.02,0,0,0-.878.5L.142,82.178a1.02,1.02,0,0,0,.878,1.54H2.974v6.77a2.165,2.165,0,0,0,2.162,2.162h.946a1.021,1.021,0,1,0,0-2.041H5.136a.121.121,0,0,1-.121-.121v-6.77h10.52a1.02,1.02,0,0,0,.878-.5L17.489,81.4V90.61h-7.46a1.021,1.021,0,1,0,0,2.041h1.757v14.224a4.77,4.77,0,0,0,4.765,4.765H53.118a4.77,4.77,0,0,0,4.765-4.765V99.169H66A3.67,3.67,0,0,0,69.666,95.4ZM25.348,90.489a.121.121,0,0,1-.121.121h-5.7V81.219L20.8,83.241a1.02,1.02,0,0,0,.864.478h3.685ZM25.8,78.694l1.873,2.983h-5.45l-1.873-2.983ZM14.953,81.678H2.81l1.766-2.983H16.719Z" transform="translate(0)" fill="#1e3a8a"/>
      </g>
    </g>
  </g>
</svg>
