<svg xmlns="http://www.w3.org/2000/svg" width="85" height="79.891" viewBox="0 0 85 79.891">
  <g id="Grupo_1179115" data-name="Grupo 1179115" transform="translate(-705 -1232.256)">
    <g id="Grupo_1177857" data-name="Grupo 1177857" transform="translate(705 1216.867)">
      <g id="Grupo_1177855" data-name="Grupo 1177855" transform="translate(0 15.389)">
        <g id="Grupo_1177847" data-name="Grupo 1177847" transform="translate(0 0)">
          <g id="Grupo_1177845" data-name="Grupo 1177845" transform="translate(15.148)">
            <g id="Grupo_1177844" data-name="Grupo 1177844">
              <g id="Grupo_1177837" data-name="Grupo 1177837">
                <path id="Trazado_996604" data-name="Trazado 996604" d="M159.2,15.39H132.5V33.155H119.606V15.39H93.146a1.9,1.9,0,0,0-1.9,1.9V83.342a1.9,1.9,0,0,0,1.9,1.9H159.2a1.9,1.9,0,0,0,1.9-1.9V17.29A1.9,1.9,0,0,0,159.2,15.39Z" transform="translate(-91.246 -15.39)" fill="#fcb982"/>
                <path id="Trazado_996605" data-name="Trazado 996605" d="M470.643,17.289V83.341a1.9,1.9,0,0,1-1.9,1.9H462.41a1.9,1.9,0,0,0,1.9-1.9V17.289a1.9,1.9,0,0,0-1.9-1.9h6.333A1.9,1.9,0,0,1,470.643,17.289Z" transform="translate(-400.791 -15.389)" fill="#f5a871"/>
                <path id="Trazado_996606" data-name="Trazado 996606" d="M266.114,34.67H253.207a1.9,1.9,0,0,1-1.9-1.9V15.39h16.706V32.77A1.9,1.9,0,0,1,266.114,34.67Z" transform="translate(-224.734 -15.39)" fill="#d9ecfd"/>
                <path id="Trazado_996607" data-name="Trazado 996607" d="M314.727,15.389V32.77a1.9,1.9,0,0,1-1.9,1.9h-5.507a1.9,1.9,0,0,0,1.9-1.9V15.389Z" transform="translate(-271.449 -15.389)" fill="#b5dbfd"/>
              </g>
              <g id="Grupo_1177843" data-name="Grupo 1177843" transform="translate(30.265 33.758)">
                <g id="Grupo_1177841" data-name="Grupo 1177841" transform="translate(16.337)">
                  <g id="Grupo_1177840" data-name="Grupo 1177840">
                    <g id="Grupo_1177838" data-name="Grupo 1177838" transform="translate(0 1.578)">
                      <circle id="Elipse_11854" data-name="Elipse 11854" cx="7.963" cy="7.963" r="7.963" fill="#f2eff2"/>
                      <path id="Trazado_996608" data-name="Trazado 996608" d="M403.934,236.233a7.962,7.962,0,0,1-12.729,6.377q.161.007.321.007a7.962,7.962,0,0,0,4.766-14.34A7.961,7.961,0,0,1,403.934,236.233Z" transform="translate(-388.009 -228.271)" fill="#e1dde1"/>
                    </g>
                    <g id="Grupo_1177839" data-name="Grupo 1177839" transform="translate(1.738)">
                      <path id="Trazado_996609" data-name="Trazado 996609" d="M382.573,220.77l4.813,9.625a1.411,1.411,0,0,0,2.523,0l4.813-9.625a1.411,1.411,0,0,0-1.262-2.041h-9.625A1.411,1.411,0,0,0,382.573,220.77Z" transform="translate(-382.422 -218.729)" fill="#64b9fc"/>
                      <path id="Trazado_996610" data-name="Trazado 996610" d="M412.711,220.775,407.9,230.4a1.41,1.41,0,0,1-2.522,0l-1.383-2.765,3.429-6.858a1.411,1.411,0,0,0-1.261-2.042h5.29A1.411,1.411,0,0,1,412.711,220.775Z" transform="translate(-400.411 -218.732)" fill="#31a7fb"/>
                    </g>
                  </g>
                </g>
                <g id="Grupo_1177842" data-name="Grupo 1177842" transform="translate(0 21.918)">
                  <path id="Trazado_996611" data-name="Trazado 996611" d="M416.48,353.318h-8.949a1.283,1.283,0,1,1,0-2.565h8.949a1.283,1.283,0,1,1,0,2.565Z" transform="translate(-384.219 -350.753)" fill="#31a7fb"/>
                  <path id="Trazado_996612" data-name="Trazado 996612" d="M305.811,385.228H274.832a1.283,1.283,0,0,1,0-2.565h30.979a1.283,1.283,0,1,1,0,2.565Z" transform="translate(-273.549 -377.365)" fill="#31a7fb"/>
                </g>
              </g>
            </g>
          </g>
          <g id="Grupo_1177846" data-name="Grupo 1177846" transform="translate(0 21.739)">
            <path id="Trazado_996613" data-name="Trazado 996613" d="M78.1,152.785H58.745v-2.937a3.513,3.513,0,0,1,3.513-3.513H74.583a3.513,3.513,0,0,1,3.513,3.513v2.937Z" transform="translate(-48.992 -146.335)" fill="#fb4a59"/>
            <path id="Trazado_996614" data-name="Trazado 996614" d="M133.613,149.851v2.937h-4.786v-2.937a3.513,3.513,0,0,0-3.513-3.513H130.1A3.512,3.512,0,0,1,133.613,149.851Z" transform="translate(-104.51 -146.337)" fill="#f82f40"/>
            <path id="Trazado_996615" data-name="Trazado 996615" d="M37.1,231.511H1.756A1.756,1.756,0,0,1,0,229.754V180.5a1.756,1.756,0,0,1,1.756-1.756H37.1a1.756,1.756,0,0,1,1.756,1.756v49.259A1.756,1.756,0,0,1,37.1,231.511Z" transform="translate(0 -173.359)" fill="#918291"/>
            <path id="Trazado_996616" data-name="Trazado 996616" d="M198.37,180.5v49.258a1.757,1.757,0,0,1-1.756,1.756h-5.347a1.757,1.757,0,0,0,1.756-1.756V180.5a1.756,1.756,0,0,0-1.756-1.756h5.347A1.756,1.756,0,0,1,198.37,180.5Z" transform="translate(-159.514 -173.363)" fill="#7a6e79"/>
            <path id="Trazado_996617" data-name="Trazado 996617" d="M29.907,208.066H58.833v42.649H29.907Z" transform="translate(-24.942 -197.818)" fill="#f2eff2"/>
            <path id="Trazado_996618" data-name="Trazado 996618" d="M176.67,208.066h4.561v42.649H176.67Z" transform="translate(-147.34 -197.818)" fill="#e1dde1"/>
            <path id="Trazado_996619" data-name="Trazado 996619" d="M103.829,186.006h-2.174A1.756,1.756,0,0,1,99.9,184.25v-5.51h5.687v5.51A1.756,1.756,0,0,1,103.829,186.006Z" transform="translate(-83.314 -173.36)" fill="#554e55"/>
          </g>
        </g>
        <g id="Grupo_1177852" data-name="Grupo 1177852" transform="translate(10.007 52.379)">
          <g id="Grupo_1177849" data-name="Grupo 1177849">
            <path id="Trazado_996620" data-name="Trazado 996620" d="M62.921,339.924a1.283,1.283,0,0,1-.907-.376l-1.362-1.362a1.283,1.283,0,1,1,1.814-1.814l.455.455,1.818-1.818a1.283,1.283,0,0,1,1.814,1.814l-2.724,2.725A1.284,1.284,0,0,1,62.921,339.924Z" transform="translate(-60.276 -334.013)" fill="#64b9fc"/>
            <g id="Grupo_1177848" data-name="Grupo 1177848" transform="translate(9.831)">
              <path id="Trazado_996621" data-name="Trazado 996621" d="M122.539,333.459h-1.763a1.283,1.283,0,0,1,0-2.565h1.763a1.283,1.283,0,0,1,0,2.565Z" transform="translate(-119.493 -330.894)" fill="#918291"/>
              <path id="Trazado_996622" data-name="Trazado 996622" d="M127.222,357.353h-6.446a1.283,1.283,0,1,1,0-2.565h6.446a1.283,1.283,0,1,1,0,2.565Z" transform="translate(-119.493 -350.821)" fill="#918291"/>
            </g>
          </g>
          <g id="Grupo_1177851" data-name="Grupo 1177851" transform="translate(0 10.111)">
            <path id="Trazado_996623" data-name="Trazado 996623" d="M62.921,400.829a1.283,1.283,0,0,1-.907-.376l-1.362-1.362a1.283,1.283,0,0,1,1.814-1.814l.455.455,1.818-1.818a1.283,1.283,0,0,1,1.814,1.814l-2.724,2.725A1.284,1.284,0,0,1,62.921,400.829Z" transform="translate(-60.276 -394.918)" fill="#64b9fc"/>
            <g id="Grupo_1177850" data-name="Grupo 1177850" transform="translate(9.831)">
              <path id="Trazado_996624" data-name="Trazado 996624" d="M122.539,394.363h-1.763a1.283,1.283,0,1,1,0-2.565h1.763a1.283,1.283,0,0,1,0,2.565Z" transform="translate(-119.493 -391.798)" fill="#918291"/>
              <path id="Trazado_996625" data-name="Trazado 996625" d="M127.222,418.258h-6.446a1.283,1.283,0,1,1,0-2.565h6.446a1.283,1.283,0,1,1,0,2.565Z" transform="translate(-119.493 -411.726)" fill="#918291"/>
            </g>
          </g>
        </g>
        <g id="Grupo_1177854" data-name="Grupo 1177854" transform="translate(12.096 37.482)">
          <g id="Grupo_1177853" data-name="Grupo 1177853">
            <path id="Trazado_996626" data-name="Trazado 996626" d="M78.352,252.517a2.184,2.184,0,0,1-1.544-.64L73.5,248.569a2.184,2.184,0,1,1,3.089-3.089l1.764,1.764L83.8,241.8a2.184,2.184,0,1,1,3.088,3.089L79.9,251.877a2.186,2.186,0,0,1-1.545.639Z" transform="translate(-72.86 -241.16)" fill="#64b9fc"/>
          </g>
        </g>
      </g>
      <g id="Grupo_1177856" data-name="Grupo 1177856" transform="translate(20.008 20.064)">
        <path id="Trazado_996627" data-name="Trazado 996627" d="M134.453,49.595a1.283,1.283,0,0,0,0-2.565h-4.582a4.763,4.763,0,1,0,0,2.565h4.582Zm-9.169.915a2.2,2.2,0,1,1,1.781-3.481h-1.781a1.283,1.283,0,1,0,0,2.565h1.781A2.195,2.195,0,0,1,125.284,50.51Z" transform="translate(-120.521 -43.549)" fill="#d68a5a"/>
        <path id="Trazado_996628" data-name="Trazado 996628" d="M189.408,87.914H187.7a1.283,1.283,0,0,0,0,2.565h1.71a1.283,1.283,0,1,0,0-2.565Z" transform="translate(-175.476 -80.549)" fill="#d68a5a"/>
      </g>
    </g>
  </g>
</svg>
