<svg xmlns="http://www.w3.org/2000/svg" xmlns:xlink="http://www.w3.org/1999/xlink" width="191.464" height="204" viewBox="0 0 191.464 204">
  <defs>
    <clipPath id="clip-path">
      <rect id="Rectángulo_454877" data-name="Rectángulo 454877" width="190" height="124.473" fill="none"/>
    </clipPath>
    <clipPath id="clip-path-3">
      <rect id="Rectángulo_454874" data-name="Rectángulo 454874" width="22.914" height="14.042" fill="none"/>
    </clipPath>
    <clipPath id="clip-path-4">
      <rect id="Rectángulo_454875" data-name="Rectángulo 454875" width="4.53" height="6.065" fill="none"/>
    </clipPath>
  </defs>
  <g id="Grupo_1179117" data-name="Grupo 1179117" transform="translate(-283.536 -1980.5)">
    <g id="Grupo_1099527" data-name="Grupo 1099527" transform="translate(0.063 857.904)">
      <rect id="Rectángulo_401036" data-name="Rectángulo 401036" width="149" height="201" rx="40" transform="translate(284.974 1124.096)" fill="none" stroke="#1e3a8a" stroke-miterlimit="10" stroke-width="3"/>
      <g id="Grupo_1177783" data-name="Grupo 1177783" transform="translate(284.938 1178.096)">
        <g id="Grupo_1177782" data-name="Grupo 1177782" clip-path="url(#clip-path)">
          <g id="Grupo_1177781" data-name="Grupo 1177781" transform="translate(0 0.001)">
            <g id="Grupo_1177780" data-name="Grupo 1177780" clip-path="url(#clip-path)">
              <path id="Trazado_994243" data-name="Trazado 994243" d="M89.495,76.321A33.506,33.506,0,0,1,73.1,72.192L24.063,43.882,28.6,36.026,77.636,64.339c5.933,3.423,15.506,3.909,20.483,1.037l38-21.943,9,5.278L102.654,73.229a26.731,26.731,0,0,1-13.16,3.091" transform="translate(32.162 48.151)" fill="#ff403a"/>
              <path id="Trazado_994244" data-name="Trazado 994244" d="M2.236,35.458l7.176-4.517s-1.631-3.685-1.7-3.685-2.844-1.694-4.026-1.082A4.143,4.143,0,0,0,1.8,29.826a44.987,44.987,0,0,0,.435,5.631" transform="translate(2.391 34.805)" fill="#98c2e2"/>
              <path id="Trazado_994245" data-name="Trazado 994245" d="M18.73,38.7c0-4.486-2.727-9.7-6.092-11.641a8.937,8.937,0,0,0-3.449-.776,10.059,10.059,0,0,0-4.589,2.2,5.5,5.5,0,0,0-2,3.6L9.442,46.149a3.56,3.56,0,0,0,3.269.138,17.083,17.083,0,0,0,2.795-1.582,6.691,6.691,0,0,0,2.351-2.264,9.748,9.748,0,0,0,.5-1.168A8.305,8.305,0,0,0,18.73,38.7" transform="translate(3.472 35.136)" fill="#35212d"/>
              <path id="Trazado_994246" data-name="Trazado 994246" d="M2.511,32.666c0,4.486,2.727,9.7,6.092,11.641S14.7,44.188,14.7,39.7,11.967,30,8.6,28.061s-6.092.119-6.092,4.605" transform="translate(3.356 36.527)" fill="#4f3745"/>
              <path id="Trazado_994247" data-name="Trazado 994247" d="M3,32.365C3,35.9,5.146,40,7.794,41.531s4.8-.093,4.8-3.626-2.145-7.636-4.8-9.166S3,28.832,3,32.365" transform="translate(4.008 37.641)" fill="#35212d"/>
              <path id="Trazado_994248" data-name="Trazado 994248" d="M3.567,32.067c0,2.668,1.622,5.769,3.624,6.923s3.624-.07,3.624-2.738-1.624-5.769-3.624-6.923-3.624.07-3.624,2.738" transform="translate(4.768 38.617)" fill="#e6f2fb"/>
              <path id="Trazado_994249" data-name="Trazado 994249" d="M6.926,29.541a7.787,7.787,0,0,1,3.255,6.218c0,2.4-1.456,3.5-3.255,2.46A7.8,7.8,0,0,1,3.671,32c0-2.4,1.458-3.5,3.255-2.46m.706.8a2.755,2.755,0,0,0-.687-.537,1.833,1.833,0,0,0-1.208-.334.581.581,0,0,0-.341.164c-.1.107-.079.243.035.463a7.092,7.092,0,0,0,.411.729c.072.11.119.061.271.075a1.549,1.549,0,0,1,.437.077,3.066,3.066,0,0,1,.724.435c.105.084.157.058.2,0a2.123,2.123,0,0,0,.262-.593.522.522,0,0,0-.1-.474M5.192,32.88a4.147,4.147,0,0,0,1.734,3.311c.958.554,1.734-.033,1.734-1.311a4.147,4.147,0,0,0-1.734-3.311c-.958-.554-1.734.033-1.734,1.311m4.517,1a6.022,6.022,0,0,0-.68-1.769,4.857,4.857,0,0,0-.568-.867c-.157-.129-.241-.079-.292.04a2.627,2.627,0,0,0-.2.664.424.424,0,0,0,.082.315,6.525,6.525,0,0,1,.53.963,5.7,5.7,0,0,1,.224.661c.072.236.065.327.152.4a3.623,3.623,0,0,0,.554.346c.164.089.241.063.255-.143a2.35,2.35,0,0,0-.058-.608M8.984,38c.086,0,.327-.215.463-.428a2.195,2.195,0,0,0,.43-1.3,2.252,2.252,0,0,0-.04-.6c-.049-.234-.138-.329-.3-.379a2.121,2.121,0,0,0-.533-.114c-.082,0-.058.1-.1.292a2.658,2.658,0,0,1-.129.512,1.7,1.7,0,0,1-.4.565c-.072.063-.065.154-.035.264a6.527,6.527,0,0,0,.325.888c.075.173.173.3.318.3m-3-.939a2.389,2.389,0,0,0,.395.474,2.422,2.422,0,0,0,1.234.7,1.145,1.145,0,0,0,.65.03c.11-.089.091-.245.028-.421a6.521,6.521,0,0,0-.383-.865c-.054-.1-.114-.175-.213-.178a1.871,1.871,0,0,1-.7-.171,2.71,2.71,0,0,1-.458-.3c-.161-.119-.217-.213-.278-.159a1.9,1.9,0,0,0-.318.421c-.084.136-.082.262.044.467M4.164,34.125a6,6,0,0,0,.79,1.722,2.334,2.334,0,0,0,.395.472c.157.136.229.1.283-.077a3.681,3.681,0,0,0,.14-.631c.012-.112-.058-.173-.178-.388a5.81,5.81,0,0,1-.315-.624,6.768,6.768,0,0,1-.318-1.049.41.41,0,0,0-.166-.28,2.692,2.692,0,0,0-.617-.329c-.122-.049-.215-.026-.234.175a4.646,4.646,0,0,0,.22,1.009m.009-1.645a1.906,1.906,0,0,0,.6.168c.07,0,.122-.019.129-.157a3.376,3.376,0,0,1,.145-.862,1.745,1.745,0,0,1,.224-.4c.086-.131.152-.136.119-.266a7.8,7.8,0,0,0-.269-.8c-.089-.234-.175-.336-.32-.322a.574.574,0,0,0-.336.171A2.013,2.013,0,0,0,3.94,31.2a3.054,3.054,0,0,0-.049.9.5.5,0,0,0,.283.388" transform="translate(4.907 38.96)" fill="#fff"/>
              <path id="Trazado_994250" data-name="Trazado 994250" d="M5.792,30.563A3.378,3.378,0,0,1,7.2,33.26c0,1.04-.631,1.519-1.411,1.068a3.378,3.378,0,0,1-1.411-2.7c0-1.04.631-1.519,1.411-1.068" transform="translate(5.856 40.623)" fill="#badaf6"/>
              <path id="Trazado_994251" data-name="Trazado 994251" d="M7.056,33.477a3.623,3.623,0,0,1-.554-.346c-.086-.07-.079-.164-.152-.4a5.505,5.505,0,0,0-.224-.659,6.525,6.525,0,0,0-.53-.963.424.424,0,0,1-.082-.315,2.616,2.616,0,0,1,.2-.666c.051-.117.136-.168.29-.037a4.587,4.587,0,0,1,.57.865,6.081,6.081,0,0,1,.68,1.769,2.358,2.358,0,0,1,.058.61c-.014.206-.091.229-.255.143" transform="translate(7.363 40.116)" fill="#4f3745"/>
              <path id="Trazado_994252" data-name="Trazado 994252" d="M6.523,31.231c-.042.058-.093.086-.2,0A3.1,3.1,0,0,0,5.6,30.8a1.566,1.566,0,0,0-.439-.077c-.152-.014-.2.035-.271-.075a8.092,8.092,0,0,1-.411-.729c-.114-.22-.136-.355-.033-.463a.574.574,0,0,1,.341-.164,1.825,1.825,0,0,1,1.206.334,2.765,2.765,0,0,1,.687.535.528.528,0,0,1,.1.477,2.123,2.123,0,0,1-.262.593" transform="translate(5.856 39.142)" fill="#4f3745"/>
              <path id="Trazado_994253" data-name="Trazado 994253" d="M3.823,30.8a2.04,2.04,0,0,1,.528-1.185.586.586,0,0,1,.339-.171c.143-.012.229.091.318.325a7.612,7.612,0,0,1,.269.8c.035.129-.03.133-.119.264a1.7,1.7,0,0,0-.222.4,3.27,3.27,0,0,0-.147.86c0,.138-.058.161-.129.159a1.93,1.93,0,0,1-.6-.171.5.5,0,0,1-.283-.386,3.156,3.156,0,0,1,.049-.9" transform="translate(5.023 39.353)" fill="#4f3745"/>
              <path id="Trazado_994254" data-name="Trazado 994254" d="M4.022,30.783a2.645,2.645,0,0,1,.617.329.42.42,0,0,1,.168.28,6.5,6.5,0,0,0,.315,1.051,6.817,6.817,0,0,0,.315.622c.119.217.192.278.18.388a3.669,3.669,0,0,1-.143.631c-.051.175-.126.215-.283.077a2.322,2.322,0,0,1-.395-.47,6.07,6.07,0,0,1-.79-1.724,4.606,4.606,0,0,1-.22-1.007c.019-.2.112-.224.234-.178" transform="translate(5.063 41.116)" fill="#4f3745"/>
              <path id="Trazado_994255" data-name="Trazado 994255" d="M4.994,32.165c.061-.054.117.04.278.159a2.8,2.8,0,0,0,.456.3,1.881,1.881,0,0,0,.7.171c.1,0,.157.077.213.178a6.657,6.657,0,0,1,.383.865c.063.178.079.332-.03.421a1.13,1.13,0,0,1-.647-.028,2.466,2.466,0,0,1-1.236-.7,2.454,2.454,0,0,1-.393-.474c-.129-.2-.129-.332-.044-.467a2.012,2.012,0,0,1,.318-.421" transform="translate(6.172 42.97)" fill="#4f3745"/>
              <path id="Trazado_994256" data-name="Trazado 994256" d="M5.717,33.1a1.647,1.647,0,0,0,.4-.565,2.318,2.318,0,0,0,.129-.512c.037-.189.014-.294.1-.292a2.162,2.162,0,0,1,.535.114c.159.049.248.145.3.379a2.259,2.259,0,0,1,.04.6,2.182,2.182,0,0,1-.428,1.3c-.138.215-.376.428-.465.428-.145,0-.241-.124-.318-.3a6.614,6.614,0,0,1-.325-.886c-.028-.11-.037-.2.035-.266" transform="translate(7.567 42.412)" fill="#4f3745"/>
              <path id="Trazado_994257" data-name="Trazado 994257" d="M24.358,42c0-4.486-2.727-9.7-6.092-11.641a8.946,8.946,0,0,0-3.449-.776,10.049,10.049,0,0,0-4.589,2.2,5.505,5.505,0,0,0-2,3.6L15.07,49.447a3.558,3.558,0,0,0,3.269.138A16.913,16.913,0,0,0,21.133,48a6.733,6.733,0,0,0,2.351-2.264,9.748,9.748,0,0,0,.5-1.168A8.3,8.3,0,0,0,24.358,42" transform="translate(10.995 39.544)" fill="#35212d"/>
              <path id="Trazado_994258" data-name="Trazado 994258" d="M8.139,35.965c0,4.486,2.727,9.7,6.089,11.641s6.1-.119,6.1-4.605-2.729-9.7-6.1-11.641-6.089.119-6.089,4.605" transform="translate(10.879 40.936)" fill="#4f3745"/>
              <path id="Trazado_994259" data-name="Trazado 994259" d="M8.626,35.664c0,3.533,2.147,7.636,4.8,9.166s4.8-.1,4.8-3.626-2.147-7.638-4.8-9.166-4.8.093-4.8,3.626" transform="translate(11.529 42.05)" fill="#35212d"/>
              <path id="Trazado_994260" data-name="Trazado 994260" d="M9.195,35.366c0,2.668,1.622,5.769,3.624,6.923s3.624-.07,3.624-2.738-1.624-5.769-3.624-6.923-3.624.07-3.624,2.738" transform="translate(12.29 43.026)" fill="#e6f2fb"/>
              <path id="Trazado_994261" data-name="Trazado 994261" d="M12.554,32.839a7.787,7.787,0,0,1,3.255,6.218c0,2.4-1.456,3.5-3.255,2.46A7.8,7.8,0,0,1,9.3,35.3c0-2.4,1.458-3.5,3.255-2.46m.706.8a2.73,2.73,0,0,0-.689-.537,1.813,1.813,0,0,0-1.2-.334.581.581,0,0,0-.343.164c-.1.107-.079.243.033.463a7.6,7.6,0,0,0,.414.729c.072.11.119.061.271.075a1.549,1.549,0,0,1,.437.077,3.067,3.067,0,0,1,.724.435c.105.084.157.056.2,0a2.123,2.123,0,0,0,.262-.593.522.522,0,0,0-.1-.474M10.82,36.178a4.153,4.153,0,0,0,1.734,3.311c.958.554,1.734-.033,1.734-1.311a4.147,4.147,0,0,0-1.734-3.311c-.956-.554-1.734.033-1.734,1.311m4.517,1a6.022,6.022,0,0,0-.68-1.769,4.857,4.857,0,0,0-.568-.867c-.157-.129-.241-.079-.292.04a2.627,2.627,0,0,0-.2.664.424.424,0,0,0,.082.315,6.316,6.316,0,0,1,.53.963,6.182,6.182,0,0,1,.224.661c.072.236.065.327.152.4a3.623,3.623,0,0,0,.554.346c.164.089.241.063.255-.143a2.35,2.35,0,0,0-.058-.608M14.612,41.3c.086,0,.327-.215.463-.428a2.178,2.178,0,0,0,.43-1.3,2.252,2.252,0,0,0-.04-.6c-.049-.234-.138-.329-.3-.379a2.122,2.122,0,0,0-.533-.115c-.082,0-.058.1-.1.292a2.585,2.585,0,0,1-.129.509,1.683,1.683,0,0,1-.4.568c-.072.063-.065.154-.035.264a6.644,6.644,0,0,0,.325.888c.075.173.173.3.318.3m-3-.939a2.388,2.388,0,0,0,.395.474,2.431,2.431,0,0,0,1.234.7,1.145,1.145,0,0,0,.65.03c.11-.089.093-.245.028-.421a6.52,6.52,0,0,0-.383-.865c-.054-.1-.114-.178-.213-.178a1.871,1.871,0,0,1-.7-.171,2.806,2.806,0,0,1-.458-.3c-.161-.119-.217-.213-.278-.159a1.9,1.9,0,0,0-.318.421c-.084.136-.082.262.044.467M9.792,37.423a5.93,5.93,0,0,0,.79,1.722,2.334,2.334,0,0,0,.395.472c.157.136.229.1.283-.077a3.681,3.681,0,0,0,.14-.631c.012-.112-.058-.173-.178-.388a5.811,5.811,0,0,1-.315-.624,6.48,6.48,0,0,1-.315-1.049.42.42,0,0,0-.168-.28,2.8,2.8,0,0,0-.617-.332c-.122-.047-.215-.023-.234.178a4.646,4.646,0,0,0,.22,1.009M9.8,35.778a1.906,1.906,0,0,0,.6.168c.07,0,.122-.019.129-.157a3.376,3.376,0,0,1,.145-.862,1.745,1.745,0,0,1,.224-.4c.086-.131.152-.136.119-.266a7.8,7.8,0,0,0-.269-.8c-.089-.234-.175-.336-.32-.322a.574.574,0,0,0-.336.171,2.014,2.014,0,0,0-.528,1.182,3.072,3.072,0,0,0-.049.9.506.506,0,0,0,.283.388" transform="translate(12.429 43.368)" fill="#fff"/>
              <path id="Trazado_994262" data-name="Trazado 994262" d="M11.42,33.862a3.378,3.378,0,0,1,1.411,2.7c0,1.04-.631,1.516-1.411,1.068a3.381,3.381,0,0,1-1.411-2.7c0-1.04.631-1.519,1.411-1.068" transform="translate(13.378 45.032)" fill="#badaf6"/>
              <path id="Trazado_994263" data-name="Trazado 994263" d="M12.684,36.776a3.623,3.623,0,0,1-.554-.346c-.086-.07-.079-.164-.152-.4a5.954,5.954,0,0,0-.224-.659,6.471,6.471,0,0,0-.53-.965.417.417,0,0,1-.082-.313,2.616,2.616,0,0,1,.2-.666c.051-.117.136-.168.29-.037a4.587,4.587,0,0,1,.57.865,6.081,6.081,0,0,1,.68,1.769,2.358,2.358,0,0,1,.058.61c-.014.206-.091.229-.255.143" transform="translate(14.886 44.525)" fill="#4f3745"/>
              <path id="Trazado_994264" data-name="Trazado 994264" d="M12.15,34.529c-.042.058-.093.086-.2,0a3.019,3.019,0,0,0-.722-.435,1.566,1.566,0,0,0-.439-.077c-.152-.014-.2.035-.271-.075a8.093,8.093,0,0,1-.411-.729c-.114-.222-.136-.355-.033-.463a.574.574,0,0,1,.341-.164,1.825,1.825,0,0,1,1.206.334,2.878,2.878,0,0,1,.689.535.533.533,0,0,1,.1.477,2.123,2.123,0,0,1-.262.593" transform="translate(13.377 43.55)" fill="#4f3745"/>
              <path id="Trazado_994265" data-name="Trazado 994265" d="M9.45,34.1a2.04,2.04,0,0,1,.528-1.185.586.586,0,0,1,.339-.171c.143-.012.229.091.318.325a7.611,7.611,0,0,1,.269.8c.035.129-.03.133-.119.264a1.7,1.7,0,0,0-.222.4,3.27,3.27,0,0,0-.147.86c0,.138-.058.164-.129.159a1.923,1.923,0,0,1-.6-.168A.51.51,0,0,1,9.4,35a3.155,3.155,0,0,1,.049-.9" transform="translate(12.545 43.763)" fill="#4f3745"/>
              <path id="Trazado_994266" data-name="Trazado 994266" d="M9.648,34.082a2.645,2.645,0,0,1,.617.329.42.42,0,0,1,.168.28,6.743,6.743,0,0,0,.315,1.051,6.331,6.331,0,0,0,.318.622c.117.217.189.278.178.388a3.62,3.62,0,0,1-.143.631c-.051.175-.126.215-.283.077a2.322,2.322,0,0,1-.395-.47,6.07,6.07,0,0,1-.79-1.724,4.429,4.429,0,0,1-.217-1.007c.016-.2.11-.224.231-.178" transform="translate(12.585 45.525)" fill="#4f3745"/>
              <path id="Trazado_994267" data-name="Trazado 994267" d="M10.622,35.464c.061-.054.117.04.278.159a2.8,2.8,0,0,0,.456.3,1.881,1.881,0,0,0,.7.171c.1,0,.157.077.213.178a6.219,6.219,0,0,1,.381.865c.065.178.082.332-.028.421a1.13,1.13,0,0,1-.647-.028,2.836,2.836,0,0,1-1.629-1.178c-.129-.206-.129-.332-.044-.467a1.953,1.953,0,0,1,.318-.421" transform="translate(13.695 47.379)" fill="#4f3745"/>
              <path id="Trazado_994268" data-name="Trazado 994268" d="M11.344,36.4a1.646,1.646,0,0,0,.4-.565,2.457,2.457,0,0,0,.129-.512c.037-.189.014-.294.1-.292a2.162,2.162,0,0,1,.535.115c.159.051.248.145.3.379a2.259,2.259,0,0,1,.04.6,2.182,2.182,0,0,1-.428,1.3c-.136.215-.376.428-.465.428-.145,0-.241-.124-.318-.3a6.614,6.614,0,0,1-.325-.886c-.028-.11-.037-.2.035-.266" transform="translate(15.088 46.822)" fill="#4f3745"/>
              <path id="Trazado_994269" data-name="Trazado 994269" d="M37.138,45.418c0-3.229-1.97-7-4.393-8.393L25.1,32.611v.009L11.524,24.781a2.708,2.708,0,0,0-3.11-.072L2.271,28.3a2.994,2.994,0,0,1,2.409.266c.35.152,1.236.633,2.451,1.316l.675.383c5.477,3.108,16,9.332,17.384,10.031a10.87,10.87,0,0,1,4.746,5.2c.743,2.077.984,9.279.984,9.279l6.218-3.6Z" transform="translate(3.035 32.418)" fill="#badaf6"/>
              <path id="Trazado_994270" data-name="Trazado 994270" d="M2.379,25.984a.772.772,0,0,0-.187.107Z" transform="translate(2.93 34.729)" fill="#badaf6"/>
              <path id="Trazado_994271" data-name="Trazado 994271" d="M27.3,38.566l-7.643-4.414v.009L6.084,26.322c-2.423-1.4-4.393.091-4.393,3.32v5.753l.675.39V30.032c0-2.731,1.666-3.993,3.718-2.809L22.91,36.937V36.93l4.4,2.538c2.049,1.182,3.718,4.369,3.718,7.1v5.753l.675.39V46.959c0-3.229-1.97-6.993-4.393-8.393" transform="translate(2.26 34.478)" fill="#e6f2fb"/>
              <path id="Trazado_994272" data-name="Trazado 994272" d="M14.958,37.841l13.349-7.652,7.844,10.893-13.426,7.75Z" transform="translate(19.993 40.349)" fill="#35212d"/>
              <path id="Trazado_994273" data-name="Trazado 994273" d="M22.106,37.912l5.617,3.243c.9.521,1.636-.037,1.636-1.236V36.676a3.938,3.938,0,0,0-1.636-3.126l-5.617-3.243c-.9-.519-1.636.037-1.636,1.238v3.241a3.931,3.931,0,0,0,1.636,3.126" transform="translate(27.36 40.247)" fill="#35212d"/>
              <path id="Trazado_994274" data-name="Trazado 994274" d="M16.391,41.189l5.617,3.243c.9.521,1.636-.037,1.636-1.236V39.953a3.938,3.938,0,0,0-1.636-3.126l-5.617-3.243c-.9-.519-1.636.037-1.636,1.238v3.241a3.931,3.931,0,0,0,1.636,3.126" transform="translate(19.721 44.627)" fill="#4f3745"/>
              <path id="Trazado_994275" data-name="Trazado 994275" d="M16.46,39.78l4.15,2.4c.666.386,1.21-.026,1.21-.911v-2.4a2.9,2.9,0,0,0-1.21-2.309l-4.15-2.4c-.666-.383-1.208.028-1.208.914v2.4A2.9,2.9,0,0,0,16.46,39.78" transform="translate(20.386 45.466)" fill="#35212d"/>
              <path id="Trazado_994276" data-name="Trazado 994276" d="M19.081,40.155,32.43,32.5,40.274,43.4l-13.426,7.75Z" transform="translate(25.503 43.443)" fill="#35212d"/>
              <path id="Trazado_994277" data-name="Trazado 994277" d="M26.228,40.227l5.617,3.243c.9.519,1.636-.037,1.636-1.236V38.991a3.938,3.938,0,0,0-1.636-3.126l-5.617-3.243c-.9-.519-1.636.037-1.636,1.238V37.1a3.931,3.931,0,0,0,1.636,3.126" transform="translate(32.87 43.341)" fill="#35212d"/>
              <path id="Trazado_994278" data-name="Trazado 994278" d="M20.513,43.5l5.617,3.243c.9.519,1.636-.037,1.636-1.236V42.268a3.938,3.938,0,0,0-1.636-3.126L20.513,35.9c-.9-.519-1.636.037-1.636,1.238v3.241A3.931,3.931,0,0,0,20.513,43.5" transform="translate(25.231 47.721)" fill="#4f3745"/>
              <path id="Trazado_994279" data-name="Trazado 994279" d="M20.583,42.095l4.147,2.4c.666.383,1.21-.028,1.21-.914v-2.4a2.9,2.9,0,0,0-1.21-2.309l-4.147-2.4c-.668-.383-1.208.028-1.208.916v2.4a2.894,2.894,0,0,0,1.208,2.309" transform="translate(25.897 48.56)" fill="#35212d"/>
              <path id="Trazado_994280" data-name="Trazado 994280" d="M23.222,42.523,36.569,34.87l7.846,10.893-13.426,7.75Z" transform="translate(31.038 46.607)" fill="#35212d"/>
              <path id="Trazado_994281" data-name="Trazado 994281" d="M30.369,42.595l5.617,3.243c.9.519,1.636-.037,1.636-1.236V41.359a3.938,3.938,0,0,0-1.636-3.126l-5.617-3.243c-.9-.519-1.636.037-1.636,1.238v3.241a3.931,3.931,0,0,0,1.636,3.126" transform="translate(38.404 46.506)" fill="#35212d"/>
              <path id="Trazado_994282" data-name="Trazado 994282" d="M24.655,45.871l5.617,3.243c.9.519,1.636-.037,1.636-1.236V44.635a3.938,3.938,0,0,0-1.636-3.126l-5.617-3.243c-.9-.519-1.636.037-1.636,1.238v3.241a3.931,3.931,0,0,0,1.636,3.126" transform="translate(30.767 50.885)" fill="#4f3745"/>
              <path id="Trazado_994283" data-name="Trazado 994283" d="M24.724,44.463l4.15,2.4c.666.386,1.208-.026,1.208-.911v-2.4a2.9,2.9,0,0,0-1.208-2.309l-4.15-2.4c-.666-.383-1.208.028-1.208.916v2.4a2.9,2.9,0,0,0,1.208,2.309" transform="translate(31.431 51.725)" fill="#35212d"/>
              <path id="Trazado_994284" data-name="Trazado 994284" d="M58.481,66.15,85.574,50.507,27.251,16.918.158,32.562Z" transform="translate(0.211 22.612)" fill="#f9a30b"/>
              <path id="Trazado_994285" data-name="Trazado 994285" d="M58.481,65.636,85.574,49.993,27.251,16.4.158,32.048Z" transform="translate(0.211 21.925)" fill="#ffdc48"/>
              <path id="Trazado_994286" data-name="Trazado 994286" d="M58.481,56.688v1.2L.158,24.3V23.1Z" transform="translate(0.211 30.874)" fill="#ffc033"/>
              <path id="Trazado_994287" data-name="Trazado 994287" d="M59.577,56.948l2.51-1.435L3.777,21.845,1.27,23.28Z" transform="translate(1.698 29.198)" fill="#4f3745"/>
              <path id="Trazado_994288" data-name="Trazado 994288" d="M68.312,51.911l2.509-1.435L12.512,16.808,10,18.243Z" transform="translate(13.372 22.465)" fill="#4f3745"/>
              <path id="Trazado_994289" data-name="Trazado 994289" d="M25.106,30.471,52.6,14.5V51.57L25.106,67.545Z" transform="translate(33.557 19.374)" fill="#0049b2"/>
              <path id="Trazado_994290" data-name="Trazado 994290" d="M27.492,0,0,15.975,58.664,49.844l27.49-15.975Z" transform="translate(-0.001 -0.001)" fill="#1d76e1"/>
              <path id="Trazado_994291" data-name="Trazado 994291" d="M0,6.837V43.912L58.663,77.781V40.706Z" transform="translate(0 9.138)" fill="#0e58d7"/>
              <path id="Trazado_994292" data-name="Trazado 994292" d="M0,20.014v3.664L58.663,57.547V53.883Z" transform="translate(0 26.75)" fill="#ffc127"/>
              <path id="Trazado_994293" data-name="Trazado 994293" d="M0,6.837V10.5L58.663,44.37V40.706Z" transform="translate(0 9.138)" fill="#ffc127"/>
              <path id="Trazado_994294" data-name="Trazado 994294" d="M25.106,30.471,52.6,14.5v3.664L25.106,34.134Z" transform="translate(33.557 19.374)" fill="#f9ac12"/>
              <path id="Trazado_994295" data-name="Trazado 994295" d="M56.323,30.5,30.454,45.938,25.167,42.9l25.868-15.44Z" transform="translate(33.637 36.708)" fill="#1d76e1"/>
              <path id="Trazado_994296" data-name="Trazado 994296" d="M53.3,37.976,27.429,53.416V44.2L53.3,28.763Z" transform="translate(36.662 38.443)" fill="#0049b2"/>
              <path id="Trazado_994297" data-name="Trazado 994297" d="M30.454,37.105l-5.288-3.033v9.213l5.288,3.033Z" transform="translate(33.638 45.54)" fill="#0e58d7"/>
              <path id="Trazado_994298" data-name="Trazado 994298" d="M29.106,36.826l-3.573-2.049v7.129l3.573,2.049Z" transform="translate(34.128 46.482)" fill="#e6f2fb"/>
              <path id="Trazado_994299" data-name="Trazado 994299" d="M27.066,49.707l7.178-4.517s-1.631-3.685-1.7-3.685-2.844-1.694-4.028-1.082a4.141,4.141,0,0,0-1.879,3.652,45.119,45.119,0,0,0,.432,5.631" transform="translate(35.583 53.851)" fill="#98c2e2"/>
              <path id="Trazado_994300" data-name="Trazado 994300" d="M43.6,53.029c0-4.486-2.727-9.7-6.092-11.641a8.946,8.946,0,0,0-3.449-.776,10.049,10.049,0,0,0-4.589,2.2,5.505,5.505,0,0,0-2,3.6l6.844,14.059a3.558,3.558,0,0,0,3.269.138,16.913,16.913,0,0,0,2.795-1.582,6.733,6.733,0,0,0,2.351-2.264,9.747,9.747,0,0,0,.5-1.168,8.3,8.3,0,0,0,.369-2.568" transform="translate(36.71 54.281)" fill="#35212d"/>
              <path id="Trazado_994301" data-name="Trazado 994301" d="M27.377,46.99c0,4.486,2.727,9.7,6.091,11.641s6.094-.119,6.094-4.605-2.727-9.7-6.094-11.641-6.091.119-6.091,4.605" transform="translate(36.592 55.672)" fill="#4f3745"/>
              <path id="Trazado_994302" data-name="Trazado 994302" d="M27.865,46.69c0,3.533,2.147,7.636,4.8,9.166s4.8-.093,4.8-3.626-2.147-7.638-4.8-9.166-4.8.093-4.8,3.626" transform="translate(37.244 56.788)" fill="#35212d"/>
              <path id="Trazado_994303" data-name="Trazado 994303" d="M28.434,46.392c0,2.668,1.622,5.769,3.624,6.923s3.624-.07,3.624-2.738-1.622-5.769-3.624-6.926-3.624.072-3.624,2.741" transform="translate(38.005 57.763)" fill="#e6f2fb"/>
              <path id="Trazado_994304" data-name="Trazado 994304" d="M31.792,43.865a7.787,7.787,0,0,1,3.255,6.218c0,2.4-1.456,3.5-3.255,2.46a7.8,7.8,0,0,1-3.255-6.218c0-2.4,1.458-3.5,3.255-2.46m.706.8a2.755,2.755,0,0,0-.687-.537A1.825,1.825,0,0,0,30.6,43.8a.581.581,0,0,0-.343.164c-.1.107-.079.243.033.463a7.6,7.6,0,0,0,.414.729c.072.11.119.061.271.075a1.549,1.549,0,0,1,.437.077,3.067,3.067,0,0,1,.724.435c.105.084.157.056.2,0a2.124,2.124,0,0,0,.262-.593.522.522,0,0,0-.1-.474M30.058,47.2a4.153,4.153,0,0,0,1.734,3.311c.958.554,1.734-.033,1.734-1.311a4.147,4.147,0,0,0-1.734-3.311c-.956-.554-1.734.033-1.734,1.311m4.517,1a6.022,6.022,0,0,0-.68-1.769,4.857,4.857,0,0,0-.568-.867c-.157-.129-.241-.079-.292.04a2.627,2.627,0,0,0-.2.664.424.424,0,0,0,.082.315,6.316,6.316,0,0,1,.53.963,5.7,5.7,0,0,1,.224.661c.072.236.065.327.154.4a3.5,3.5,0,0,0,.551.346c.164.089.241.063.255-.143a2.35,2.35,0,0,0-.058-.608m-.724,4.122c.086,0,.327-.215.463-.428a2.18,2.18,0,0,0,.43-1.3,2.241,2.241,0,0,0-.04-.6c-.049-.234-.138-.329-.3-.379a2.162,2.162,0,0,0-.535-.114c-.082,0-.058.1-.1.292a2.63,2.63,0,0,1-.129.509,1.683,1.683,0,0,1-.4.568c-.072.061-.065.154-.035.264a6.645,6.645,0,0,0,.325.888c.075.171.173.3.318.3m-3-.939a2.388,2.388,0,0,0,.395.474,2.431,2.431,0,0,0,1.234.7,1.145,1.145,0,0,0,.65.03c.11-.089.091-.245.028-.421a6.688,6.688,0,0,0-.383-.867c-.054-.1-.114-.175-.213-.175a1.871,1.871,0,0,1-.7-.171,2.97,2.97,0,0,1-.458-.3c-.161-.119-.217-.213-.278-.159a1.9,1.9,0,0,0-.318.421c-.084.136-.082.262.044.467M29.03,48.449a5.93,5.93,0,0,0,.79,1.722,2.334,2.334,0,0,0,.395.472c.157.136.229.1.283-.077a3.681,3.681,0,0,0,.14-.631c.012-.112-.058-.173-.178-.388a5.811,5.811,0,0,1-.315-.624,6.48,6.48,0,0,1-.315-1.049.42.42,0,0,0-.168-.28,2.8,2.8,0,0,0-.617-.332c-.122-.047-.215-.023-.234.178a4.647,4.647,0,0,0,.22,1.009m.009-1.645a1.906,1.906,0,0,0,.6.168c.07,0,.124-.019.129-.157a3.376,3.376,0,0,1,.145-.862,1.785,1.785,0,0,1,.224-.4c.086-.133.152-.136.119-.266a7.8,7.8,0,0,0-.269-.8c-.089-.234-.175-.336-.32-.322a.574.574,0,0,0-.336.171,2.014,2.014,0,0,0-.528,1.182,3.072,3.072,0,0,0-.049.9.506.506,0,0,0,.283.388" transform="translate(38.142 58.106)" fill="#fff"/>
              <path id="Trazado_994305" data-name="Trazado 994305" d="M30.659,44.888a3.378,3.378,0,0,1,1.411,2.7c0,1.04-.631,1.519-1.411,1.068a3.378,3.378,0,0,1-1.411-2.7c0-1.04.631-1.519,1.411-1.068" transform="translate(39.093 59.77)" fill="#badaf6"/>
              <path id="Trazado_994306" data-name="Trazado 994306" d="M31.922,47.8a3.5,3.5,0,0,1-.551-.346c-.089-.07-.082-.164-.154-.4a5.506,5.506,0,0,0-.224-.659,6.706,6.706,0,0,0-.528-.965.41.41,0,0,1-.084-.313,2.616,2.616,0,0,1,.2-.666c.051-.117.136-.166.292-.037a4.607,4.607,0,0,1,.568.865,6.081,6.081,0,0,1,.68,1.769,2.358,2.358,0,0,1,.058.61c-.014.206-.091.229-.255.143" transform="translate(40.599 59.262)" fill="#4f3745"/>
              <path id="Trazado_994307" data-name="Trazado 994307" d="M31.389,45.555c-.042.058-.093.086-.2,0a3.067,3.067,0,0,0-.724-.435,1.534,1.534,0,0,0-.437-.077c-.152-.014-.2.035-.271-.075a8.093,8.093,0,0,1-.411-.729c-.115-.22-.136-.355-.033-.463a.567.567,0,0,1,.341-.164,1.825,1.825,0,0,1,1.206.334,2.819,2.819,0,0,1,.689.537.527.527,0,0,1,.1.474,2.124,2.124,0,0,1-.262.593" transform="translate(39.092 58.287)" fill="#4f3745"/>
              <path id="Trazado_994308" data-name="Trazado 994308" d="M28.689,45.124a2.04,2.04,0,0,1,.528-1.185.586.586,0,0,1,.339-.171c.143-.012.229.091.318.325a7.61,7.61,0,0,1,.269.8c.035.129-.03.133-.119.266a1.641,1.641,0,0,0-.222.4,3.27,3.27,0,0,0-.147.86c0,.138-.058.161-.129.159a1.923,1.923,0,0,1-.6-.168.51.51,0,0,1-.283-.388,3.155,3.155,0,0,1,.049-.9" transform="translate(38.259 58.499)" fill="#4f3745"/>
              <path id="Trazado_994309" data-name="Trazado 994309" d="M28.888,45.107a2.692,2.692,0,0,1,.617.329.42.42,0,0,1,.168.28,6.5,6.5,0,0,0,.315,1.051,6.264,6.264,0,0,0,.315.622c.119.217.192.278.18.388a3.67,3.67,0,0,1-.143.631c-.051.175-.126.215-.283.077a2.322,2.322,0,0,1-.395-.47,6.07,6.07,0,0,1-.79-1.724,4.619,4.619,0,0,1-.22-1.009c.019-.2.112-.222.234-.175" transform="translate(38.298 60.261)" fill="#4f3745"/>
              <path id="Trazado_994310" data-name="Trazado 994310" d="M29.863,46.49c.058-.054.114.04.276.159a2.8,2.8,0,0,0,.456.3,1.891,1.891,0,0,0,.7.171c.1,0,.157.077.213.178a6.218,6.218,0,0,1,.381.865c.065.178.082.332-.028.421a1.129,1.129,0,0,1-.645-.03,2.429,2.429,0,0,1-1.238-.7,2.454,2.454,0,0,1-.393-.474c-.129-.2-.129-.332-.044-.467a1.908,1.908,0,0,1,.32-.421" transform="translate(39.408 62.117)" fill="#4f3745"/>
              <path id="Trazado_994311" data-name="Trazado 994311" d="M30.583,47.426a1.647,1.647,0,0,0,.4-.565,2.318,2.318,0,0,0,.129-.512c.037-.189.014-.294.1-.292a2.162,2.162,0,0,1,.535.114c.159.049.248.145.3.379a2.259,2.259,0,0,1,.04.6,2.182,2.182,0,0,1-.428,1.3c-.138.215-.376.428-.465.428-.145,0-.241-.124-.318-.3a6.615,6.615,0,0,1-.325-.886c-.028-.11-.037-.2.035-.266" transform="translate(40.802 61.559)" fill="#4f3745"/>
              <path id="Trazado_994312" data-name="Trazado 994312" d="M44.177,43.528l-1.825-1.054-.007,0-4.986-2.879-.012.007-.991-.57a2.711,2.711,0,0,0-3.11-.07L27.1,42.542a3,3,0,0,1,2.409.269c.3.131,1.009.509,1.981,1.051,2.528,1.472,4.517,2.619,5.1,2.918.243.14.486.283.731.425A10.847,10.847,0,0,1,41.369,52c.743,2.077.984,9.281.984,9.281l6.218-3.6V51.921c0-3.229-1.97-7-4.393-8.393" transform="translate(36.227 51.463)" fill="#badaf6"/>
              <path id="Trazado_994313" data-name="Trazado 994313" d="M27.21,40.233a.782.782,0,0,0-.185.107Z" transform="translate(36.121 53.775)" fill="#badaf6"/>
              <path id="Trazado_994314" data-name="Trazado 994314" d="M36.665,43.89l-5.75-3.318c-2.423-1.4-4.39.091-4.39,3.32v5.75l.675.39v-5.75c0-2.734,1.668-3.993,3.715-2.811l5.75,3.32Z" transform="translate(35.452 53.524)" fill="#e6f2fb"/>
              <path id="Trazado_994315" data-name="Trazado 994315" d="M35.672,44.46,28.816,40.5v.909l2.46,1.421v-.007l4.4,2.538c2.049,1.182,3.718,4.369,3.718,7.1v5.753l.675.39V52.853c0-3.229-1.97-7-4.393-8.393" transform="translate(38.515 54.134)" fill="#e6f2fb"/>
              <path id="Trazado_994316" data-name="Trazado 994316" d="M65.557,34.774a11.364,11.364,0,0,0-4.725-6.019l-12.5-7.213V35.531L31.763,45.006,41.782,74.237,68.4,59.04s.028-7.3.028-9.973a44.866,44.866,0,0,0-2.872-14.293" transform="translate(42.454 28.792)" fill="#f9ac12"/>
              <path id="Trazado_994317" data-name="Trazado 994317" d="M27.464,54.251,47.528,65.544s.028-7.3.028-9.973a44.93,44.93,0,0,0-2.872-14.293,11.384,11.384,0,0,0-4.725-6.019l-12.5-7.213Z" transform="translate(36.708 37.485)" fill="#ffc127"/>
              <path id="Trazado_994318" data-name="Trazado 994318" d="M54.136,21.542l-26.672,15.2,14.267,8.508L68.268,29.968a16.6,16.6,0,0,0-2.9-1.911c-2.671-1.458-11.23-6.514-11.23-6.514" transform="translate(36.708 28.792)" fill="#ffdc48"/>
              <path id="Trazado_994319" data-name="Trazado 994319" d="M37.042,54.275V49.352c0-1.2.11-2.657,2.61-4.161s15.538-9.3,17.524-10.41,2.7-.53,2.636,1.259,0,5.269,0,5.269Z" transform="translate(49.51 45.735)" fill="#35212d"/>
              <path id="Trazado_994320" data-name="Trazado 994320" d="M67.971,41.074v-.411l-.007,0a8.279,8.279,0,0,0-.388-2.568,4.815,4.815,0,0,0-1.231-1.549L39.745,51.89l-4.36-2.344s-.565-.122-1.442.675a2.665,2.665,0,0,0-.636,1.9c1.575,1.559,2.325,3.517,2.325,7.052,1.037.608,2.965,1.715,3.832,2.073.813.336,1.5.336,3.372-.745,3.47-2,9.727-5.708,15.256-8.807,4.456-2.5,7.017-4,8.409-4.848a3.042,3.042,0,0,0,1.47-2.605V41.074Z" transform="translate(44.519 48.849)" fill="#35212d"/>
              <path id="Trazado_994321" data-name="Trazado 994321" d="M37.11,43.506a5.071,5.071,0,0,1,1.308,1.858,13.094,13.094,0,0,1,.869,3.416V44.443Z" transform="translate(49.601 58.149)" fill="#ffc127"/>
              <path id="Trazado_994322" data-name="Trazado 994322" d="M41.752,42.981l-3.711,2.161v4.339l3.711-2.161Z" transform="translate(50.846 57.448)" fill="#f9ac12"/>
              <path id="Trazado_994323" data-name="Trazado 994323" d="M40.935,43.371l-2.671,1.556v3.124L40.935,46.5Z" transform="translate(51.144 57.969)" fill="#fff"/>
              <path id="Trazado_994324" data-name="Trazado 994324" d="M43,43.517,40.82,42.58,37.11,44.744l2.178.935Z" transform="translate(49.601 56.912)" fill="#ffdc48"/>
              <path id="Trazado_994325" data-name="Trazado 994325" d="M45.062,38.914a5.052,5.052,0,0,1,1.306,1.858,13.094,13.094,0,0,1,.869,3.416V39.851Z" transform="translate(60.23 52.012)" fill="#ffc127"/>
              <path id="Trazado_994326" data-name="Trazado 994326" d="M49.7,38.389,45.993,40.55v4.339L49.7,42.728Z" transform="translate(61.475 51.31)" fill="#f9ac12"/>
              <path id="Trazado_994327" data-name="Trazado 994327" d="M48.887,38.779l-2.671,1.556v3.124L48.887,41.9Z" transform="translate(61.772 51.831)" fill="#fff"/>
              <path id="Trazado_994328" data-name="Trazado 994328" d="M50.95,38.925l-2.178-.937-3.711,2.164,2.178.935Z" transform="translate(60.229 50.774)" fill="#ffdc48"/>
              <path id="Trazado_994329" data-name="Trazado 994329" d="M41.3,45.284c-1.9-7.12-4.117-9.05-7.162-10.832-2.1-1.231-4.227-2.4-5.811-3.274v8.916l13.431,7.748c-.012-.129-.026-.248-.042-.339-.126-.743-.222-1.493-.416-2.22" transform="translate(37.862 41.672)" fill="#d7eaf7"/>
              <path id="Trazado_994330" data-name="Trazado 994330" d="M42.443,43.243c-1.178-4.152-2.51-6.332-4.554-8.208-1.159-1.063-7.045-4.239-9.561-5.575v4.017c1.584.876,3.713,2.045,5.811,3.274,3.045,1.785,5.262,3.713,7.159,10.835.194.727.292,1.477.418,2.217.014.091.028.21.04.341l2.3,1.325a48.211,48.211,0,0,0-1.61-8.225" transform="translate(37.863 39.374)" fill="#badaf6"/>
              <path id="Trazado_994331" data-name="Trazado 994331" d="M29.388,29.626l.252,17.368,1.2.895-.572-17.543Z" transform="translate(39.28 39.597)" fill="#ffc127"/>
              <path id="Trazado_994332" data-name="Trazado 994332" d="M47.185,44.624a101.482,101.482,0,0,1,11.924-6.872,60.356,60.356,0,0,0-1.5-7.594c-.164-.589-.325-1.168-.5-1.736-1.143.811-2.309,1.589-3.512,2.309a52.67,52.67,0,0,1-18.127,6.888,13.239,13.239,0,0,1,.977,2.091,49.311,49.311,0,0,1,2.7,11.309c2.019-2.65,5.437-4.654,8.038-6.4" transform="translate(47.408 37.988)" fill="#d7eaf7"/>
              <path id="Trazado_994333" data-name="Trazado 994333" d="M57.176,27.774c-.479.334-.956.643-1.341.928-.271.2-.556.388-.832.586.173.568.334,1.147.5,1.736a60.356,60.356,0,0,1,1.5,7.594A101.482,101.482,0,0,0,45.082,45.49c-2.6,1.741-6.019,3.746-8.04,6.4.084.815.143,1.633.159,2.442L59.814,41.048a44.851,44.851,0,0,0-2.638-13.274" transform="translate(49.51 37.122)" fill="#badaf6"/>
              <path id="Trazado_994334" data-name="Trazado 994334" d="M57.837,31.193a13.68,13.68,0,0,0-2.358-4.846L34.922,38.567A12.112,12.112,0,0,1,36.2,40.39,52.658,52.658,0,0,0,54.325,33.5c1.2-.717,2.369-1.5,3.512-2.309" transform="translate(46.677 35.215)" fill="#d7eaf7"/>
              <g id="Grupo_1177776" data-name="Grupo 1177776" transform="translate(81.6 61.564)" opacity="0.5">
                <g id="Grupo_1177775" data-name="Grupo 1177775">
                  <g id="Grupo_1177774" data-name="Grupo 1177774" clip-path="url(#clip-path-3)">
                    <path id="Trazado_994335" data-name="Trazado 994335" d="M57.837,31.193a13.68,13.68,0,0,0-2.358-4.846L34.922,38.567A12.112,12.112,0,0,1,36.2,40.39,52.658,52.658,0,0,0,54.325,33.5c1.2-.717,2.369-1.5,3.512-2.309" transform="translate(-34.924 -26.349)" fill="#fff"/>
                  </g>
                </g>
              </g>
              <path id="Trazado_994336" data-name="Trazado 994336" d="M45.772,25.826l-2.052,1.22a13.642,13.642,0,0,1,2.358,4.846c.276-.2.558-.383.832-.586.386-.285.86-.593,1.341-.928-.077-.22-.154-.432-.227-.636a12.908,12.908,0,0,0-2.252-3.916" transform="translate(58.436 34.518)" fill="#badaf6"/>
              <g id="Grupo_1177779" data-name="Grupo 1177779" transform="translate(102.156 60.344)" opacity="0.5">
                <g id="Grupo_1177778" data-name="Grupo 1177778">
                  <g id="Grupo_1177777" data-name="Grupo 1177777" clip-path="url(#clip-path-4)">
                    <path id="Trazado_994337" data-name="Trazado 994337" d="M45.772,25.826l-2.052,1.22a13.642,13.642,0,0,1,2.358,4.846c.276-.2.558-.383.832-.586.386-.285.86-.593,1.341-.928-.077-.22-.154-.432-.227-.636a12.908,12.908,0,0,0-2.252-3.916" transform="translate(-43.72 -25.826)" fill="#fff"/>
                  </g>
                </g>
              </g>
              <path id="Trazado_994338" data-name="Trazado 994338" d="M27.889,35.31v2.552c.851.423,6.257,3.154,9.582,4.914,1.979,1.047,2.481,1.872,2.481,3.921v4.587l.874-.591s.063-5.024-.089-6.816c-.1-1.159-.977-1.879-2.353-2.692-.752-.446-10.5-5.874-10.5-5.874" transform="translate(37.276 47.194)" fill="#f9ac12"/>
              <path id="Trazado_994339" data-name="Trazado 994339" d="M57.1,37.493,38.116,48.452c-.252.147-.46-.009-.46-.348a1.116,1.116,0,0,1,.46-.883L57.1,36.262c.255-.145.46.012.46.35a1.108,1.108,0,0,1-.46.881" transform="translate(50.331 48.395)" fill="#f9ac12"/>
              <path id="Trazado_994340" data-name="Trazado 994340" d="M57.1,36.432,38.116,47.391c-.252.147-.46-.009-.46-.348a1.116,1.116,0,0,1,.46-.883L57.1,35.2c.255-.145.46.012.46.35a1.1,1.1,0,0,1-.46.881" transform="translate(50.331 46.976)" fill="#f9ac12"/>
              <path id="Trazado_994341" data-name="Trazado 994341" d="M48.71,43.553l-7.028,4.056V45.268l7.028-4.056Z" transform="translate(55.711 55.082)" fill="#fff"/>
              <path id="Trazado_994342" data-name="Trazado 994342" d="M35.653,28.244a2.943,2.943,0,0,0-2.82,0h-.519V29c0,.615.862,1.115,1.928,1.115s1.925-.5,1.925-1.115v-.757Z" transform="translate(43.191 37.269)" fill="#35212d"/>
              <path id="Trazado_994343" data-name="Trazado 994343" d="M36.168,28.677c0,.617-.862,1.117-1.928,1.117s-1.925-.5-1.925-1.117.862-1.117,1.925-1.117,1.928.5,1.928,1.117" transform="translate(43.192 36.836)" fill="#4f3745"/>
              <path id="Trazado_994344" data-name="Trazado 994344" d="M35.077,27.023h-2.3l-.22,2.372c0,.439.615.794,1.372.794s1.372-.355,1.372-.794Z" transform="translate(43.51 36.118)" fill="#1d76e1"/>
              <path id="Trazado_994345" data-name="Trazado 994345" d="M34.951,27.405c0,.369-.516.668-1.152.668s-1.152-.3-1.152-.668.516-.668,1.152-.668,1.152.3,1.152.668" transform="translate(43.636 35.736)" fill="#1d76e1"/>
              <path id="Trazado_994346" data-name="Trazado 994346" d="M38.639,26.533a2.938,2.938,0,0,0-2.818,0H35.3v.757c0,.615.862,1.115,1.928,1.115s1.925-.5,1.925-1.115v-.757Z" transform="translate(47.184 34.982)" fill="#35212d"/>
              <path id="Trazado_994347" data-name="Trazado 994347" d="M39.155,26.966c0,.617-.862,1.117-1.925,1.117s-1.928-.5-1.928-1.117.862-1.117,1.928-1.117,1.925.5,1.925,1.117" transform="translate(47.184 34.549)" fill="#4f3745"/>
              <path id="Trazado_994348" data-name="Trazado 994348" d="M38.064,25.312h-2.3l-.22,2.372c0,.439.615.794,1.372.794s1.372-.355,1.372-.794Z" transform="translate(47.503 33.831)" fill="#1d76e1"/>
              <path id="Trazado_994349" data-name="Trazado 994349" d="M37.938,25.694c0,.369-.516.668-1.152.668s-1.152-.3-1.152-.668.516-.668,1.152-.668,1.152.3,1.152.668" transform="translate(47.628 33.449)" fill="#1d76e1"/>
              <path id="Trazado_994350" data-name="Trazado 994350" d="M41.5,24.882a2.938,2.938,0,0,0-2.818,0h-.519v.757c0,.615.865,1.115,1.928,1.115s1.925-.5,1.925-1.115v-.757Z" transform="translate(51.015 32.775)" fill="#35212d"/>
              <path id="Trazado_994351" data-name="Trazado 994351" d="M42.023,25.315c0,.617-.865,1.117-1.928,1.117s-1.928-.5-1.928-1.117S39.03,24.2,40.1,24.2s1.928.5,1.928,1.117" transform="translate(51.015 32.342)" fill="#4f3745"/>
              <path id="Trazado_994352" data-name="Trazado 994352" d="M40.93,23.661h-2.3l-.22,2.372c0,.439.615.794,1.372.794s1.372-.355,1.372-.794Z" transform="translate(51.333 31.624)" fill="#1d76e1"/>
              <path id="Trazado_994353" data-name="Trazado 994353" d="M40.8,24.043c0,.369-.516.668-1.152.668s-1.152-.3-1.152-.668.516-.668,1.152-.668,1.152.3,1.152.668" transform="translate(51.459 31.242)" fill="#1d76e1"/>
              <path id="Trazado_994354" data-name="Trazado 994354" d="M2.186,25.161V12.513l2.14,1.236V26.4Z" transform="translate(2.922 16.724)" fill="#fff"/>
              <path id="Trazado_994355" data-name="Trazado 994355" d="M4.06,26.243V13.595L6.4,14.948l1.526,6.507c.1.43.189.869.276,1.313s.18.89.278,1.332l.058.035c.1-.332.187-.671.269-1.019s.171-.68.269-1l1.5-4.76L12.906,18.7v12.65l-1.951-1.129V25.586c0-.308.009-.647.03-1.009s.044-.729.072-1.094.058-.722.089-1.075.056-.673.086-.967l-.058-.033L10.4,23.969,9.051,28.016l-1.178-.68L6.52,21.726l-.757-3.444L5.7,18.249c.028.327.058.685.086,1.068s.058.778.086,1.175.054.79.075,1.178.028.734.028,1.044v4.636Z" transform="translate(5.427 18.17)" fill="#fff"/>
              <path id="Trazado_994356" data-name="Trazado 994356" d="M8.806,28.982V16.334l3.257,1.881a9.313,9.313,0,0,1,1.47,1.054,6.657,6.657,0,0,1,2,3.1,7.043,7.043,0,0,1,.3,2.1,4.226,4.226,0,0,1-.3,1.748,1.694,1.694,0,0,1-.808.874,1.906,1.906,0,0,1-1.18.093,4.766,4.766,0,0,1-1.425-.568l-1.178-.682v4.288Zm2.138-5.32,1.047.6q1.749,1.009,1.745-1.009a2.867,2.867,0,0,0-.465-1.666,4.052,4.052,0,0,0-1.337-1.178l-.991-.572Z" transform="translate(11.77 21.831)" fill="#fff"/>
              <path id="Trazado_994357" data-name="Trazado 994357" d="M16.63,32.775a6.812,6.812,0,0,1-1.752-1.47,9.264,9.264,0,0,1-1.362-2.094,12.029,12.029,0,0,1-.881-2.587,13.563,13.563,0,0,1-.311-2.953,9.057,9.057,0,0,1,.311-2.582,3.251,3.251,0,0,1,.881-1.53,1.923,1.923,0,0,1,1.362-.474,3.793,3.793,0,0,1,1.752.575,7.044,7.044,0,0,1,1.752,1.449,9.056,9.056,0,0,1,1.36,2.056,11.554,11.554,0,0,1,.881,2.556,13.35,13.35,0,0,1,.313,2.925,9.193,9.193,0,0,1-.313,2.594,3.437,3.437,0,0,1-.881,1.566,1.918,1.918,0,0,1-1.36.526,3.626,3.626,0,0,1-1.752-.556m0-2.465a1.043,1.043,0,0,0,1.542-.224,4.831,4.831,0,0,0,.568-2.71,8.757,8.757,0,0,0-.568-3.295,3.793,3.793,0,0,0-1.542-1.956c-.652-.376-1.164-.318-1.544.175a4.531,4.531,0,0,0-.565,2.64,9.189,9.189,0,0,0,.565,3.362,3.805,3.805,0,0,0,1.544,2.007" transform="translate(16.472 25.506)" fill="#fff"/>
              <path id="Trazado_994358" data-name="Trazado 994358" d="M16.775,33.584V20.936L20.2,22.91a9.12,9.12,0,0,1,1.418,1.014,6.628,6.628,0,0,1,1.157,1.316,6.551,6.551,0,0,1,.785,1.666,6.81,6.81,0,0,1,.292,2.052,3.551,3.551,0,0,1-.458,2.033,1.442,1.442,0,0,1-1.229.638l2.152,6.306-2.4-1.386-1.818-5.608-1.178-.682v4.559Zm2.14-5.594,1.105.638c.563.327.991.414,1.287.269s.444-.528.444-1.15a2.628,2.628,0,0,0-.444-1.556,4,4,0,0,0-1.287-1.112l-1.105-.638Z" transform="translate(22.421 27.982)" fill="#fff"/>
              <path id="Trazado_994359" data-name="Trazado 994359" d="M22.761,37.04V26.8l-2.605-1.5V22.887l7.363,4.253v2.4l-2.6-1.5V38.283Z" transform="translate(26.94 30.59)" fill="#fff"/>
              <path id="Trazado_994360" data-name="Trazado 994360" d="M89.374,44.052c0,3.32-4.57,6.014-10.211,6.014s-10.211-2.694-10.211-6.014,4.57-6.014,10.211-6.014,10.211,2.694,10.211,6.014" transform="translate(92.161 50.841)" fill="#ff403a"/>
              <path id="Trazado_994361" data-name="Trazado 994361" d="M84.044,42.64c0,2.217-3.054,4.017-6.821,4.017S70.4,44.857,70.4,42.64s3.054-4.017,6.821-4.017,6.821,1.8,6.821,4.017" transform="translate(94.1 51.623)" fill="#fff"/>
              <path id="Trazado_994362" data-name="Trazado 994362" d="M83.5,13.235c8.381,4.839,15.174,17.819,15.174,28.992a18.8,18.8,0,0,1-1.554,7.982c-.187.4-10.531,22.032-10.531,22.032C86.154,71.89,72.625,44.26,70.23,35.6a44.06,44.06,0,0,1-1.9-10.9c0-11.174,6.792-16.309,15.171-11.47m-.605,32.794c5.1,2.946,9.241-.18,9.241-6.986S88,24.334,82.894,21.39s-9.239.18-9.239,6.984,4.136,14.709,9.239,17.655" transform="translate(91.327 15.255)" fill="#d91a14"/>
              <path id="Trazado_994363" data-name="Trazado 994363" d="M66.814,17.129l8.863-5.29a41.253,41.253,0,0,1,16.8,12.019c6.842,8.58,5.37,22.188,3.248,28.284s-7.115,19.529-7.115,19.529l-8.22,4.9s4.171-18.536,7.047-27.574-1.164-23.011-7.328-27.326a27.3,27.3,0,0,0-13.3-4.538" transform="translate(89.303 15.823)" fill="#d91a14"/>
              <path id="Trazado_994364" data-name="Trazado 994364" d="M66.658,22.239c1.71-4.519,7.736-7.19,7.736-7.19s-1.028,10.272,1.1,15.751,7.659,19.447,7.659,19.447-10.674-1.71-13.274-5.683-4.933-17.807-3.22-22.326" transform="translate(88.31 20.114)" fill="#d91a14"/>
              <path id="Trazado_994365" data-name="Trazado 994365" d="M79.984,15.331C88.365,20.17,95.158,33.15,95.158,44.323A18.8,18.8,0,0,1,93.6,52.305c-.189.4-10.531,22.032-10.531,22.032-.435-.35-13.963-27.981-16.359-36.638a44.06,44.06,0,0,1-1.9-10.9c0-11.174,6.795-16.309,15.174-11.47m-.605,32.794c5.1,2.946,9.239-.18,9.239-6.986S84.482,26.43,79.379,23.486s-9.241.18-9.241,6.984,4.138,14.709,9.241,17.655" transform="translate(86.625 18.056)" fill="#ff403a"/>
            </g>
          </g>
        </g>
      </g>
    </g>
  </g>
</svg>
