<svg xmlns="http://www.w3.org/2000/svg" xmlns:xlink="http://www.w3.org/1999/xlink" width="191.5" height="162.748" viewBox="0 0 191.5 162.748">
  <defs>
    <clipPath id="clip-path">
      <rect id="Rectángulo_455150" data-name="Rectángulo 455150" width="171.756" height="162.748" fill="none"/>
    </clipPath>
  </defs>
  <g id="Grupo_1179118" data-name="Grupo 1179118" transform="translate(-703.5 -5202.63)">
    <g id="Grupo_1178573" data-name="Grupo 1178573">
      <rect id="Rectángulo_401036" data-name="Rectángulo 401036" width="149" height="147" rx="40" transform="translate(705 5206)" fill="none" stroke="#1e3a8a" stroke-miterlimit="10" stroke-width="3"/>
      <g id="Grupo_1178721" data-name="Grupo 1178721" transform="translate(723.244 5202.63)">
        <g id="Grupo_1178720" data-name="Grupo 1178720" clip-path="url(#clip-path)">
          <path id="Trazado_998773" data-name="Trazado 998773" d="M224.266,603.01a1.078,1.078,0,0,1-.637.886l-10.688,6.166a3.313,3.313,0,0,1-3.032,0l-17.592-10.225a1.067,1.067,0,0,1-.617-.872l-.007-1.7a1.055,1.055,0,0,1,.631-.885l10.688-6.173a3.355,3.355,0,0,1,3.033,0l17.592,10.225a1.063,1.063,0,0,1,.624.872Z" transform="translate(-145.492 -447.681)" fill="#2a6096"/>
          <path id="Trazado_998774" data-name="Trazado 998774" d="M191.7,620.615l0,1.71a1.067,1.067,0,0,0,.623.871l17.592,10.225a3.335,3.335,0,0,0,3.033,0l10.687-6.167a1.085,1.085,0,0,0,.633-.885l-.007-1.71a1.078,1.078,0,0,1-.633.885l-10.683,6.167a3.335,3.335,0,0,1-3.033,0l-17.592-10.225a1.059,1.059,0,0,1-.623-.871" transform="translate(-145.495 -471.038)" fill="#2a6096"/>
          <path id="Trazado_998775" data-name="Trazado 998775" d="M192.322,596.374a.928.928,0,0,0-.01,1.756L209.9,608.353a3.342,3.342,0,0,0,3.034,0l10.685-6.168a.929.929,0,0,0,.008-1.758l-17.591-10.223a3.343,3.343,0,0,0-3.032,0Z" transform="translate(-145.49 -447.682)" fill="#5789dc"/>
          <path id="Trazado_998776" data-name="Trazado 998776" d="M220.5,611.914a1.643,1.643,0,0,0,.774-.165l8.774-5.066a.806.806,0,0,0,0-1.4l-15.68-9.115a1.619,1.619,0,0,0-.767-.162,1.645,1.645,0,0,0-.775.164l-8.775,5.066a.806.806,0,0,0,0,1.4l15.678,9.113a1.627,1.627,0,0,0,.77.163" transform="translate(-154.567 -452.364)" fill="#fff"/>
          <path id="Trazado_998777" data-name="Trazado 998777" d="M282.9,628.4a.277.277,0,0,0,.139-.517l-3.263-1.9a.277.277,0,1,0-.278.479l3.263,1.9a.276.276,0,0,0,.139.038" transform="translate(-212.032 -475.089)" fill="#92b2f9"/>
          <path id="Trazado_998778" data-name="Trazado 998778" d="M250.59,609.623a.277.277,0,0,0,.139-.517l-6.811-3.958a.277.277,0,1,0-.278.479l6.811,3.958a.277.277,0,0,0,.139.038" transform="translate(-184.815 -459.271)" fill="#92b2f9"/>
          <path id="Trazado_998779" data-name="Trazado 998779" d="M255.311,624.566a.277.277,0,0,0,.139-.517L246.77,619a.277.277,0,1,0-.278.479l8.681,5.045a.277.277,0,0,0,.139.038" transform="translate(-186.979 -469.787)" fill="#92b2f9"/>
          <path id="Trazado_998780" data-name="Trazado 998780" d="M234.85,612.674a.277.277,0,0,0,.139-.517l-1.6-.929a.277.277,0,1,0-.278.479l1.6.929a.277.277,0,0,0,.139.038" transform="translate(-176.824 -463.885)" fill="#92b2f9"/>
          <path id="Trazado_998781" data-name="Trazado 998781" d="M104.158,88.8a14.791,14.791,0,0,1-6.709,11.62L9.773,151.042c-1.905,1.1-3.63,1.181-4.864.423l-2.771-1.61c-1.208-.7-1.952-2.194-1.959-4.321L0,63.158a14.781,14.781,0,0,1,6.7-11.614L94.4.923c1.865-1.08,3.563-1.181,4.784-.469l2.791,1.623c1.241.691,2.006,2.2,2.013,4.348Z" transform="translate(-0.003 0)" fill="#dde9fe"/>
          <path id="Trazado_998782" data-name="Trazado 998782" d="M102.023,2.109c-1.227-.71-2.922-.61-4.788.469L9.555,53.2A14.761,14.761,0,0,0,2.849,64.814l.17,82.381c.006,2.118.757,3.614,1.965,4.318l-2.848-1.659c-1.209-.7-1.954-2.194-1.96-4.318L0,63.162A14.789,14.789,0,0,1,6.707,51.544L94.393.926C96.258-.153,97.954-.253,99.174.457Z" transform="translate(-0.001 -0.003)" fill="#92b2f9"/>
          <path id="Trazado_998783" data-name="Trazado 998783" d="M106.2,7.783c3.716-2.146,6.738-.423,6.75,3.846l.171,82.376a14.786,14.786,0,0,1-6.706,11.619L18.732,156.248c-3.716,2.145-6.738.419-6.75-3.851l-.171-82.376a14.777,14.777,0,0,1,6.706-11.615Z" transform="translate(-8.964 -5.207)" fill="#dde9fe"/>
          <path id="Trazado_998784" data-name="Trazado 998784" d="M31.681,86.765a10.121,10.121,0,0,1,4.312-7.454L123.24,28.939l.17,81.837a10.124,10.124,0,0,1-4.311,7.459L31.852,168.607Z" transform="translate(-24.045 -21.964)" fill="#fff"/>
          <path id="Trazado_998785" data-name="Trazado 998785" d="M70.025,279.9c.638-.368,1.154-.069,1.156.659l.043,15.208a2.527,2.527,0,0,1-1.149,1.99l-4.289,2.476c-.638.368-1.154.074-1.156-.659l-.043-15.208a2.534,2.534,0,0,1,1.148-1.99Z" transform="translate(-49.021 -212.324)" fill="#c7d8ef"/>
          <path id="Trazado_998786" data-name="Trazado 998786" d="M118.147,224.027c.637-.368,1.154-.074,1.156.659l.063,21.965a2.528,2.528,0,0,1-1.149,1.99l-4.293,2.478c-.633.366-1.154.074-1.156-.659L112.7,228.5a2.535,2.535,0,0,1,1.148-1.99Z" transform="translate(-85.542 -169.913)" fill="#dde9fe"/>
          <path id="Trazado_998787" data-name="Trazado 998787" d="M166.437,224.24c.638-.368,1.154-.069,1.156.659l.043,15.208a2.527,2.527,0,0,1-1.149,1.99l-4.289,2.476c-.638.368-1.154.074-1.156-.659L161,228.706a2.535,2.535,0,0,1,1.149-1.99Z" transform="translate(-122.197 -170.076)" fill="#c7d8ef"/>
          <path id="Trazado_998788" data-name="Trazado 998788" d="M214.564,170.062c.638-.368,1.154-.074,1.156.659l.061,21.556a2.527,2.527,0,0,1-1.148,1.989l-4.293,2.479c-.633.366-1.154.074-1.156-.659l-.061-21.556a2.535,2.535,0,0,1,1.149-1.989Z" transform="translate(-158.721 -128.954)" fill="#dde9fe"/>
          <path id="Trazado_998789" data-name="Trazado 998789" d="M92.273,300.714c3.228-1.863,5.851-.368,5.861,3.337l.2,25.806a12.833,12.833,0,0,1-5.824,10.085L55.7,361.195c-3.228,1.863-5.85.365-5.861-3.34l-.2-25.806a12.828,12.828,0,0,1,5.824-10.082Z" transform="translate(-37.674 -227.629)" fill="#dde9fe"/>
          <path id="Trazado_998790" data-name="Trazado 998790" d="M157.38,359.8c6.1-3.166,10.987-.273,11.167,6.685l-11.13,6.426Z" transform="translate(-119.449 -272.115)" fill="#5789dc"/>
          <path id="Trazado_998791" data-name="Trazado 998791" d="M108.716,381.845l.041,14.5,12.305-7.1c-.442,7.235-5.486,15.643-11.667,19.212-6.477,3.739-11.75.735-11.771-6.714-.02-7.212,4.9-15.952,11.092-19.889" transform="translate(-74.096 -289.815)" fill="#b0c4ff"/>
          <path id="Trazado_998792" data-name="Trazado 998792" d="M274.242,300.461c2.338-1.349,4.242-.271,4.25,2.417a9.3,9.3,0,0,1-4.222,7.313c-2.339,1.351-4.244.272-4.252-2.421a9.3,9.3,0,0,1,4.224-7.31" transform="translate(-204.94 -227.604)" fill="#b0c4ff"/>
          <path id="Trazado_998793" data-name="Trazado 998793" d="M274.242,363.961c2.338-1.349,4.242-.271,4.25,2.417a9.3,9.3,0,0,1-4.222,7.313c-2.339,1.351-4.244.272-4.252-2.421a9.3,9.3,0,0,1,4.224-7.31" transform="translate(-204.94 -275.8)" fill="#5789dc"/>
          <path id="Trazado_998794" data-name="Trazado 998794" d="M318.59,291.965a.851.851,0,0,1-.427-1.588l16.5-9.523a.851.851,0,0,1,.851,1.473l-16.5,9.523a.845.845,0,0,1-.425.114" transform="translate(-241.158 -213.078)" fill="#dde9fe"/>
          <path id="Trazado_998795" data-name="Trazado 998795" d="M318.59,327.939a.851.851,0,0,1-.427-1.588l13.88-8.013a.851.851,0,0,1,.851,1.473l-13.88,8.013a.845.845,0,0,1-.425.114" transform="translate(-241.158 -241.528)" fill="#dde9fe"/>
          <path id="Trazado_998796" data-name="Trazado 998796" d="M318.59,355.465a.851.851,0,0,1-.427-1.588l16.5-9.523a.851.851,0,0,1,.851,1.474l-16.5,9.523a.845.845,0,0,1-.425.115" transform="translate(-241.158 -261.273)" fill="#dde9fe"/>
          <path id="Trazado_998797" data-name="Trazado 998797" d="M403.291,195.445l-22.869-12.616v7.726h-4.888l22.116,14.739c6.74,3.86,12.381-5.989,5.641-9.849" transform="translate(-285.025 -138.765)" fill="#5789dc"/>
          <path id="Trazado_998798" data-name="Trazado 998798" d="M307.059,76.1a3,3,0,0,0-.282-.161l-3.784-2.2c-3.3-1.919-7.863-1.65-12.908,1.261C280.068,80.785,271.97,94.807,272,106.32c.013,5.716,2.04,9.742,5.294,11.634l3.871,2.248c.06.033.121.067.188.107,3.3,1.926,7.87,1.657,12.915-1.254,10.017-5.783,18.115-19.806,18.082-31.319-.02-5.723-2.033-9.742-5.294-11.634m-16.867,36.384c-2.979,1.717-5.757,2.281-8.065,1.838-1.5-1.751-2.381-4.388-2.395-7.756-.027-9.185,6.434-20.383,14.431-25,2.986-1.724,5.763-2.288,8.071-1.838a11.769,11.769,0,0,1,2.388,7.749c.027,9.192-6.434,20.389-14.432,25.005" transform="translate(-206.447 -55.037)" fill="#5789dc"/>
          <path id="Trazado_998799" data-name="Trazado 998799" d="M333.513,107.74c.025,9.189-6.438,20.386-14.435,25-4.025,2.322-7.671,2.536-10.306,1.006l-4.071-2.363c2.635,1.53,6.281,1.311,10.307-1.011,8-4.615,14.459-15.812,14.435-25-.013-4.566-1.625-7.778-4.227-9.288l4.07,2.363c2.6,1.514,4.215,4.726,4.227,9.288" transform="translate(-231.264 -72.93)" fill="#4075c1"/>
          <path id="Trazado_998800" data-name="Trazado 998800" d="M307.059,76.094c-3.3-1.918-7.869-1.646-12.909,1.262-10.018,5.786-18.113,19.809-18.08,31.319.016,5.72,2.033,9.741,5.291,11.634l-4.07-2.363c-3.254-1.893-5.275-5.918-5.291-11.634-.033-11.511,8.063-25.537,18.08-31.319,5.044-2.912,9.609-3.18,12.909-1.262Z" transform="translate(-206.444 -55.031)" fill="#4075c1"/>
          <path id="Trazado_998801" data-name="Trazado 998801" d="M306.968,84.8c10.019-5.784,18.166-1.139,18.2,10.371s-8.062,25.533-18.081,31.317-18.166,1.142-18.2-10.371,8.064-25.534,18.081-31.317m.106,37.486c8-4.617,14.461-15.814,14.435-25s-6.533-12.9-14.529-8.28-14.461,15.817-14.435,25,6.533,12.9,14.529,8.28" transform="translate(-219.262 -62.477)" fill="#5789dc"/>
          <path id="Trazado_998802" data-name="Trazado 998802" d="M350.655,196.9c.913-.527,1.66-.1,1.663.95a3.647,3.647,0,0,1-1.653,2.863c-.918.53-1.663.105-1.665-.947a3.644,3.644,0,0,1,1.655-2.866" transform="translate(-264.886 -149.274)" fill="#dde9fe"/>
          <path id="Trazado_998803" data-name="Trazado 998803" d="M347.141,129.349c1.6-.921,2.853-.074,2.717,1.834l-.689,9.7a4.435,4.435,0,0,1-1.986,3.243c-1.035.6-1.9.188-2-.944l-.742-8.872a5.885,5.885,0,0,1,2.7-4.959" transform="translate(-261.421 -97.891)" fill="#dde9fe"/>
          <path id="Trazado_998804" data-name="Trazado 998804" d="M630.89,308.958l1.7-2.982,6.515-.692-1.355,2.883-2.965,4.584Z" transform="translate(-478.837 -231.706)" fill="#f7b2b2"/>
          <path id="Trazado_998805" data-name="Trazado 998805" d="M636.749,283.706a6.446,6.446,0,0,0-1.257,1.416,3.074,3.074,0,0,0-.1,3.083,2.719,2.719,0,0,0,1.792,1.349,3.125,3.125,0,0,0,1.972-.147l3.662-1.481a13.674,13.674,0,0,0,2.032-.992,16.9,16.9,0,0,1,5.415-1.762,5.768,5.768,0,0,0,.994-.276c1.831-.711,3.141-2.289,2.111-5.039L643,282.728Z" transform="translate(-481.975 -212.408)" fill="#46c17e"/>
          <path id="Trazado_998806" data-name="Trazado 998806" d="M639.005,279.333a2.081,2.081,0,0,1,.095-2.3c1.178-1.706,3.24-2.927,5.679-3.94a22.3,22.3,0,0,0,4.091-1.758,6.11,6.11,0,0,1,3.584-1.012,4.8,4.8,0,0,1,2.857,1.078,2.609,2.609,0,0,1-1.034,4.572c-.328.082-.679.149-1.05.2a13.831,13.831,0,0,0-6.832,2.076l-2.568,1.5a4.555,4.555,0,0,1-3.168.585,2.428,2.428,0,0,1-1.653-1" transform="translate(-484.766 -205.166)" fill="#54d391"/>
          <path id="Trazado_998807" data-name="Trazado 998807" d="M545.913,272.508l.663-3.834,5.045-.231.086,4.065v3.258l-4.353,2.422-1.182-2.393-.433-2.191Z" transform="translate(-414.209 -203.745)" fill="#f7b2b2"/>
          <path id="Trazado_998808" data-name="Trazado 998808" d="M559.85,222.877a3.018,3.018,0,0,1-.367,2.15,5.047,5.047,0,0,1-.73,1.284,6.487,6.487,0,0,1-2.03,1.3,11.446,11.446,0,0,0-4.487,4.225,8.748,8.748,0,0,1-2.193,3.007,5.076,5.076,0,0,1-2.519.725,5.429,5.429,0,0,1-2.346-.4,2.974,2.974,0,0,1-1.594-2.345,9.622,9.622,0,0,1,1.027-3.393,4.675,4.675,0,0,1,.7-1.055c.561-.6.752.642,1.495.3a16.008,16.008,0,0,0,3.982-2.585,24.271,24.271,0,0,1,3.329-2.927,6.641,6.641,0,0,1,4.938-.779Z" transform="translate(-412.573 -168.652)" fill="#46c17e"/>
          <path id="Trazado_998809" data-name="Trazado 998809" d="M551.062,220.245a9.15,9.15,0,0,0,1.61-1.622,10.669,10.669,0,0,1,1.889-2.5,4.959,4.959,0,0,1,2.637-.766,8.047,8.047,0,0,1,2.733.181,3.7,3.7,0,0,1,2.2,1.547,1.763,1.763,0,0,1,.211,1.579,2.232,2.232,0,0,1-.942.927c-1.866,1.154-4.124,1.74-5.651,3.315a15.517,15.517,0,0,0-2.086,3.2,6.783,6.783,0,0,1-2.542,2.79,2.856,2.856,0,0,1-3.491-.5,3.464,3.464,0,0,1-.606-1.966,4.942,4.942,0,0,1,.451-2.787,7.185,7.185,0,0,1,1.55-1.768c.653-.565,1.367-1.072,2.04-1.622" transform="translate(-415.167 -163.425)" fill="#54d391"/>
          <path id="Trazado_998810" data-name="Trazado 998810" d="M494.846,297.995s-6.684,16.384-10.61,21.043c-5.556,6.59-27.616,20.639-27.616,20.639L446.7,318.46l20.351-11.146a3.39,3.39,0,0,0,1.733-3.273,44.946,44.946,0,0,1,1.958-18.733c0,1.789,5.794,1.789,5.794,0a161.1,161.1,0,0,1,.792,20.106,14.954,14.954,0,0,1-2.183,7.562.2.2,0,0,0,.28.282,11.11,11.11,0,0,0,1.2-.8,7.516,7.516,0,0,0,1.951-2.5,16.789,16.789,0,0,1,1.394-2.2c2.577-3.4,9.932-13.115,10.094-13.315,1.626-2.052,5.756.875,4.777,3.556" transform="translate(-339.041 -216.546)" fill="#353437"/>
          <path id="Trazado_998811" data-name="Trazado 998811" d="M501.771,312.977a.2.2,0,0,0,.28.281c.283-.173.56-.336.83-.526a5.213,5.213,0,0,1-1.287,1.726c-1.387,1.166-3.373,1.225-5.027,1.958-3.352,1.487-5.019,5.552-8.406,6.957-.972.4-2.46.3-2.647-.74-.145-.8.574-1.851-.094-2.314a1.421,1.421,0,0,0-.744-.159,5.4,5.4,0,0,1-2.062-.526c-.439-.208-.9-.588-.83-1.069.1-.633.969-.733,1.605-.65,2.069.26,4.411.616,6.04-.688a2.68,2.68,0,0,1,1.052-.682,5.955,5.955,0,0,1,1.1.07,2.891,2.891,0,0,0,1.491-.606q.877-.561,1.75-1.128a4.141,4.141,0,0,0,1.408-1.245,10.9,10.9,0,0,1,.519-.972c.6-.789,1.861-.9,2.325-1.764.215-.405.218-.917.519-1.263.263-.3.7-.4,1-.671a2.047,2.047,0,0,0,.266-2.113,3.892,3.892,0,0,1-.318-2.19,9.64,9.64,0,0,0,.432-1.1c.131-.813-.605-1.556-.56-2.38.045-.8.827-1.449.782-2.255-.041-.747-.789-1.287-.934-2.024a3.108,3.108,0,0,1,.183-1.391,9.269,9.269,0,0,0-.138-5.182,7.158,7.158,0,0,1-.516-2,2.857,2.857,0,0,1,.543-1.678c1.422-.011,2.826-.456,2.826-1.339a161.024,161.024,0,0,1,.792,20.106,14.979,14.979,0,0,1-2.183,7.562" transform="translate(-365.664 -216.546)" fill="#29282b"/>
          <path id="Trazado_998812" data-name="Trazado 998812" d="M240.764,466.216c-3.271.982-7.027,8.348-7.487,14.4a20.521,20.521,0,0,1-.712,4.03l-.425,1.5a3.443,3.443,0,0,1-1.968,2.233l-11.842,5.027a6.922,6.922,0,0,1-1.4.43c-4.569.87-6.013,3.74-4.93,7.829a.31.31,0,0,0,.59.035c.917-2.422,2.408-3.8,4.268-3.656a.7.7,0,0,1,.626.893,4.781,4.781,0,0,1-1.214,1.77.161.161,0,0,0,.184.259c1.874-.871,3.5-1.952,4.083-3.933a1.068,1.068,0,0,1,.9-.744c2.594-.338,11.17-1.578,13.664-3.481,4.058-3.1,9.975-17.816,9.975-17.816Z" transform="translate(-160.641 -353.852)" fill="#f7b2b2"/>
          <path id="Trazado_998813" data-name="Trazado 998813" d="M245.068,492.117s-5.912,14.725-9.971,17.817c-2.5,1.9-11.071,3.142-13.663,3.484a1.07,1.07,0,0,0-.9.746c-.582,1.979-2.213,3.06-4.085,3.933a.161.161,0,0,1-.183-.259,4.785,4.785,0,0,0,1.214-1.77.706.706,0,0,0-.626-.9c-1.859-.139-3.351,1.239-4.268,3.661a.31.31,0,0,1-.588-.038,7.618,7.618,0,0,1-.152-3.92,12.249,12.249,0,0,1,3.585-1.233c.626-.082,1.258-.07,1.884-.133a15.148,15.148,0,0,0,4-1.163l4.7-1.859c.525-.209,1.05-.417,1.575-.62.778-.31,1.562-.62,2.333-.948,1.233-.525,2.44-1.107,3.712-1.536.777-.259,1.7-.582,1.9-1.378.063-.234.044-.487.114-.721.183-.632.9-.955,1.214-1.543.493-.93-.2-2.2.379-3.079.36-.557,1.119-.746,1.5-1.29.537-.752.139-1.815.373-2.712a5.632,5.632,0,0,1,1.157-1.821,2.07,2.07,0,0,0,.455-2.017c-.171-.36-.519-.632-.62-1.012-.171-.645.4-1.233.948-1.612a14.334,14.334,0,0,1,2.371-1.416Z" transform="translate(-160.646 -370.977)" fill="#eaa7a7"/>
          <path id="Trazado_998814" data-name="Trazado 998814" d="M351.628,423.256l-2.955,1.847a17.557,17.557,0,0,0-3.365,2.777c-3.532,3.693-7.46,5.391-11.951,4.265a9.169,9.169,0,0,0-2.312-.3,13.622,13.622,0,0,0-6.521,1.742,2.5,2.5,0,0,0-1.3,2.079l-.5,11.113a3.125,3.125,0,0,0,1.014,2.478,9.8,9.8,0,0,0,5.552,1.909,2.989,2.989,0,0,1,1.874.913c2.656,2.8,5.068,4.311,7.72,3.261a4.788,4.788,0,0,0,1.837-1.374,32.147,32.147,0,0,1,8.068-6.681,12.971,12.971,0,0,1,5.87-1.789l5.279-.306a4.068,4.068,0,0,0,3.8-3.471c1.021-7.154-6.856-21.427-12.114-18.464" transform="translate(-244.943 -320.943)" fill="#fc6c85"/>
          <path id="Trazado_998815" data-name="Trazado 998815" d="M340.878,485.7a2.091,2.091,0,0,0-.158.177,4.769,4.769,0,0,1-1.833,1.372c-2.656,1.05-5.064-.462-7.72-3.262a2.994,2.994,0,0,0-1.878-.911,9.816,9.816,0,0,1-5.551-1.91,3.121,3.121,0,0,1-1.012-2.479l.5-11.115a2.493,2.493,0,0,1,1.3-2.074,12.99,12.99,0,0,1,1.227-.6,2.451,2.451,0,0,0-.284,1.043l-.5,11.115a3.129,3.129,0,0,0,1.012,2.479,9.815,9.815,0,0,0,5.551,1.91,3.008,3.008,0,0,1,1.878.91c2.573,2.706,4.913,4.217,7.473,3.345" transform="translate(-244.942 -352.854)" fill="#f95070"/>
          <path id="Trazado_998816" data-name="Trazado 998816" d="M404.3,528.6a30.043,30.043,0,0,0-4.167,3.99,4.79,4.79,0,0,1-1.833,1.378,1.9,1.9,0,0,1-.247.082,30.916,30.916,0,0,1,6.247-5.45" transform="translate(-302.118 -401.197)" fill="#f95070"/>
          <path id="Trazado_998817" data-name="Trazado 998817" d="M322.893,501.9l.978,15.778a2.684,2.684,0,0,1-1.077,2.32l-10.024,7.458a4.538,4.538,0,0,1-2.129.9,8.08,8.08,0,0,0-5.54,3.451.512.512,0,0,0-.073.4.506.506,0,0,0,.72.338l1.73-.872a.465.465,0,0,1,.678.423c-.066,1.286-2.072,2.328-5.066,3.161a.828.828,0,0,0-.421,1.327,4.713,4.713,0,0,0,2.831,1.476,7,7,0,0,0,6.828-2.959,12.012,12.012,0,0,0,1.274-2.273,2.568,2.568,0,0,1,1.6-1.421c3.406-1.078,13.04-4.35,15.034-7.459,2.514-3.92,1.354-16.461.582-22.716a3.977,3.977,0,0,0-7.919.665" transform="translate(-229.574 -377.786)" fill="#f7b2b2"/>
          <path id="Trazado_998818" data-name="Trazado 998818" d="M332.883,524.332c-1.991,3.111-11.627,6.379-15.029,7.461a2.553,2.553,0,0,0-1.6,1.422,11.908,11.908,0,0,1-1.271,2.27,7,7,0,0,1-6.828,2.959,5.192,5.192,0,0,1-2.181-.879,7.345,7.345,0,0,0,2.99-.43c3.2-1.258,4.7-5.273,7.954-6.386a5.582,5.582,0,0,0,1.467-.575,9.782,9.782,0,0,0,1.087-1.2c.93-.948,2.352-1.138,3.579-1.644,2.055-.841,3.578-2.58,5.026-4.268.651-.759,1.3-1.511,1.954-2.27.329-.386.683-.879.512-1.353-.07-.19-.209-.335-.291-.518-.266-.588.164-1.239.455-1.821a8.4,8.4,0,0,0,.588-3.654q.009-.873.019-1.745a7.428,7.428,0,0,0-.6-3.705,4.708,4.708,0,0,1-.765-1.568c-.12-1.062.942-2.112.506-3.079a5.25,5.25,0,0,0-.746-.929,2.839,2.839,0,0,1-.082-2.9,5.9,5.9,0,0,1,.854-1.277,3.964,3.964,0,0,1,2.984,3.364c.778,6.26,1.935,18.8-.582,22.717" transform="translate(-232.23 -378.166)" fill="#eaa7a7"/>
          <path id="Trazado_998819" data-name="Trazado 998819" d="M337.411,445.771l2.14,5.679c.908,2.643-4.513,5.581-5.816,3.459l-1.73-4.178s2.9-5.595,3.027-5.725a12.777,12.777,0,0,1,2.378.764" transform="translate(-251.988 -337.744)" fill="#f7b2b2"/>
          <path id="Trazado_998820" data-name="Trazado 998820" d="M306.754,435.2a13.466,13.466,0,0,1-4.823,8.2,2.807,2.807,0,0,1-2.458.561c-3.324-.862-5.857-3.736-7.651-8.76l-1.185-1.647V429.72h6.142l8.4,1.062.97,2.355Z" transform="translate(-220.59 -326.152)" fill="#f7b2b2"/>
          <path id="Trazado_998821" data-name="Trazado 998821" d="M306.744,442.769a13.491,13.491,0,0,1-4.818,8.2,2.816,2.816,0,0,1-2.46.556c-3.326-.86-5.855-3.737-7.65-8.757l-1.188-1.65V439.69l1.005,1.4c1.79,5.02,4.325,7.9,7.651,8.757a2.783,2.783,0,0,0,2.453-.563,13.384,13.384,0,0,0,4.7-7.568Z" transform="translate(-220.583 -333.719)" fill="#eaa7a7"/>
          <path id="Trazado_998822" data-name="Trazado 998822" d="M325.715,382.815a4.988,4.988,0,1,1-4.988-4.988,4.991,4.991,0,0,1,4.988,4.988" transform="translate(-239.642 -286.766)" fill="#353437"/>
          <path id="Trazado_998823" data-name="Trazado 998823" d="M325.71,382.819a4.969,4.969,0,0,1-.234,1.511,4.989,4.989,0,0,0-9.743-1.511,4.988,4.988,0,1,1,9.977,0" transform="translate(-239.637 -286.768)" fill="#29282b"/>
          <path id="Trazado_998824" data-name="Trazado 998824" d="M302.2,411.52l-2.669-3.073a1.083,1.083,0,0,0-1.807.607q-.01.069-.016.141a.785.785,0,0,1-1.042.68,30.993,30.993,0,0,0-7.983-1.349,1.681,1.681,0,0,0-1.392.578,2.285,2.285,0,0,0-.023,2.415,6.137,6.137,0,0,1-1.619-1.727,6.906,6.906,0,0,1,1.929-9.207,11.471,11.471,0,0,1,7.615-2.046,6.744,6.744,0,0,1,4.169,1.6c2.475,2.188,3.107,6.279,2.837,11.379" transform="translate(-216.033 -302.472)" fill="#353437"/>
          <path id="Trazado_998825" data-name="Trazado 998825" d="M294.822,451.154c.032.1.076.209.12.316a2.1,2.1,0,0,1-.2-.152.76.76,0,0,1,.076-.164" transform="translate(-223.708 -342.42)" fill="#29282b"/>
          <path id="Trazado_998826" data-name="Trazado 998826" d="M302.233,410.433c-.107-3.7-.91-6.651-2.877-8.39a6.732,6.732,0,0,0-4.173-1.6,11.478,11.478,0,0,0-7.613,2.042,7.214,7.214,0,0,0-2.877,4.774,7.115,7.115,0,0,1,2.877-6.671,11.478,11.478,0,0,1,7.613-2.042,6.732,6.732,0,0,1,4.173,1.6c2.3,2.03,3,5.7,2.877,10.287" transform="translate(-216.027 -302.477)" fill="#29282b"/>
        </g>
      </g>
    </g>
  </g>
</svg>
