<svg xmlns="http://www.w3.org/2000/svg" xmlns:xlink="http://www.w3.org/1999/xlink" width="158.982" height="155.843" viewBox="0 0 158.982 155.843">
  <defs>
    <clipPath id="clip-path">
      <rect id="Rectángulo_455262" data-name="Rectángulo 455262" width="143.667" height="131.78" fill="none"/>
    </clipPath>
    <clipPath id="clip-path-2">
      <rect id="Rectángulo_455261" data-name="Rectángulo 455261" width="143.667" height="131.779" fill="none"/>
    </clipPath>
    <clipPath id="clip-path-3">
      <rect id="Rectángulo_455260" data-name="Rectángulo 455260" width="15.773" height="15.899" fill="none"/>
    </clipPath>
  </defs>
  <g id="Grupo_1179118" data-name="Grupo 1179118" transform="translate(-239 -5125.424)">
    <g id="Grupo_1177088" data-name="Grupo 1177088" transform="translate(-51.759 709)">
      <rect id="Rectángulo_401003" data-name="Rectángulo 401003" width="144.479" height="152.843" rx="29" transform="translate(303.762 4417.924)" fill="none" stroke="#fe8938" stroke-miterlimit="10" stroke-width="3"/>
      <g id="Grupo_1178856" data-name="Grupo 1178856" transform="translate(290.759 4428.456)">
        <g id="Grupo_1178855" data-name="Grupo 1178855" clip-path="url(#clip-path)">
          <g id="Grupo_1178854" data-name="Grupo 1178854" transform="translate(0 0.001)">
            <g id="Grupo_1178853" data-name="Grupo 1178853" clip-path="url(#clip-path-2)">
              <path id="Trazado_1000500" data-name="Trazado 1000500" d="M56.882,71.025H.847V74.78C.776,78.98,3.505,83.192,9.054,86.4c10.942,6.316,28.68,6.316,39.622,0,5.548-3.2,8.277-7.415,8.2-11.615.007,0,.007-3.755.007-3.755" transform="translate(0.355 29.812)" fill="#de8d1d"/>
              <path id="Trazado_1000501" data-name="Trazado 1000501" d="M48.675,64.369c10.941,6.316,10.941,16.558,0,22.876s-28.68,6.316-39.622,0-10.939-16.56,0-22.876,28.68-6.316,39.622,0" transform="translate(0.356 25.029)" fill="#f5c075"/>
              <path id="Trazado_1000502" data-name="Trazado 1000502" d="M53.553,75.189c0,.206-.01.41-.026.61-.267,3.273-2.692,6.42-6.893,8.937-4.909,2.937-11.489,4.55-18.53,4.55s-13.62-1.613-18.525-4.55c-4.2-2.517-6.63-5.665-6.9-8.937-.016-.2-.026-.4-.026-.61,0-3.483,2.459-6.872,6.923-9.542C14.485,62.708,21.064,61.1,28.1,61.1s13.621,1.611,18.53,4.55c4.464,2.671,6.918,6.059,6.918,9.542" transform="translate(1.115 25.644)" fill="#de8d1d"/>
              <path id="Trazado_1000503" data-name="Trazado 1000503" d="M53.52,75.442c-.267,3.271-2.692,6.42-6.893,8.936-4.909,2.939-11.489,4.55-18.53,4.55s-13.62-1.611-18.525-4.55c-4.2-2.516-6.63-5.665-6.9-8.936.267-3.271,2.7-6.42,6.9-8.936,4.905-2.933,11.484-4.552,18.525-4.552s13.621,1.619,18.53,4.552c4.2,2.516,6.626,5.665,6.893,8.936" transform="translate(1.123 26.004)" fill="#f5c075"/>
              <path id="Trazado_1000504" data-name="Trazado 1000504" d="M36.642,81.721a16.748,16.748,0,0,1-3.372,1.384A19.7,19.7,0,0,1,30,83.762a12.881,12.881,0,0,1-2.753.034,4.463,4.463,0,0,1-1.8-.5,1.846,1.846,0,0,1-.505-.454,1.31,1.31,0,0,1-.26-.568.994.994,0,0,1,.065-.571.933.933,0,0,1,.434-.446,2.744,2.744,0,0,1,1.225-.243c.535-.009,1.168-.034,1.9-.072a19.843,19.843,0,0,0,2.405-.29,11.32,11.32,0,0,0,2.747-.894l-7.75-4.776q-1.593.4-3.253.767a19.116,19.116,0,0,1-3.335.429,14.116,14.116,0,0,1-3.329-.26,9.739,9.739,0,0,1-3.237-1.3,5.539,5.539,0,0,1-2.074-1.951,2.9,2.9,0,0,1-.332-1.956,3.8,3.8,0,0,1,1.008-1.843,11.139,11.139,0,0,1,1.954-1.648l-.957-.589a.444.444,0,0,1-.246-.478q.051-.294.508-.542a2.311,2.311,0,0,1,.955-.246,1.463,1.463,0,0,1,.866.148l.9.554a19.07,19.07,0,0,1,2.05-.937,19.4,19.4,0,0,1,2.314-.752,9.829,9.829,0,0,1,2.154-.322,2.866,2.866,0,0,1,1.606.338,2.488,2.488,0,0,1,.476.395,1.551,1.551,0,0,1,.348.54.83.83,0,0,1,0,.574.961.961,0,0,1-.487.493,2.708,2.708,0,0,1-.835.26c-.344.06-.747.131-1.207.214s-.978.206-1.556.365a12.259,12.259,0,0,0-1.849.694l6.7,4.126q1.559-.383,3.213-.687a19.071,19.071,0,0,1,3.362-.312,14.589,14.589,0,0,1,3.426.4,11.586,11.586,0,0,1,3.4,1.442q3.035,1.872,2.954,3.879t-2.568,3.775l1.122.69a.4.4,0,0,1,.193.507.95.95,0,0,1-.49.532,2.1,2.1,0,0,1-.973.256,1.5,1.5,0,0,1-.815-.175Zm-20.9-9.213a4.741,4.741,0,0,0,1.468.6,6.478,6.478,0,0,0,1.6.148,11.521,11.521,0,0,0,1.718-.185c.6-.106,1.208-.24,1.831-.4l-6-3.7A3.821,3.821,0,0,0,14.751,70.8q-.29.92,1,1.712m19.347,2.513a6.21,6.21,0,0,0-3.255-.968,16.9,16.9,0,0,0-3.537.368l6.96,4.289a2.7,2.7,0,0,0,1.215-1.88q.034-.935-1.383-1.809" transform="translate(4.239 26.884)" fill="#de8d1d"/>
              <path id="Trazado_1000505" data-name="Trazado 1000505" d="M58.225,67.757H2.19v3.755c-.072,4.2,2.658,8.412,8.206,11.615,10.942,6.316,28.682,6.316,39.621,0,5.548-3.2,8.279-7.417,8.2-11.615.007,0,.007-3.755.007-3.755" transform="translate(0.919 28.44)" fill="#de8d1d"/>
              <path id="Trazado_1000506" data-name="Trazado 1000506" d="M50.018,61.1c10.942,6.316,10.942,16.558,0,22.876s-28.68,6.316-39.622,0S-.545,67.417,10.4,61.1s28.68-6.316,39.622,0" transform="translate(0.919 23.658)" fill="#f5c075"/>
              <path id="Trazado_1000507" data-name="Trazado 1000507" d="M54.9,71.921c0,.206-.01.41-.026.61-.267,3.273-2.692,6.42-6.893,8.937-4.909,2.937-11.489,4.55-18.53,4.55s-13.62-1.613-18.525-4.55c-4.2-2.517-6.63-5.665-6.9-8.937-.016-.2-.026-.4-.026-.61,0-3.483,2.459-6.872,6.923-9.542,4.905-2.937,11.484-4.55,18.525-4.55s13.621,1.613,18.53,4.55c4.464,2.671,6.918,6.059,6.918,9.542" transform="translate(1.679 24.273)" fill="#de8d1d"/>
              <path id="Trazado_1000508" data-name="Trazado 1000508" d="M54.862,72.174c-.267,3.271-2.692,6.42-6.893,8.936-4.909,2.939-11.489,4.55-18.53,4.55s-13.62-1.611-18.525-4.55c-4.2-2.516-6.63-5.665-6.9-8.936.267-3.271,2.7-6.42,6.9-8.936C15.819,60.3,22.4,58.686,29.439,58.686S43.06,60.3,47.969,63.238c4.2,2.516,6.626,5.665,6.893,8.936" transform="translate(1.686 24.632)" fill="#f5c075"/>
              <path id="Trazado_1000509" data-name="Trazado 1000509" d="M37.984,78.453a16.659,16.659,0,0,1-3.372,1.383,19.712,19.712,0,0,1-3.265.657,12.881,12.881,0,0,1-2.753.034,4.438,4.438,0,0,1-1.8-.5,1.841,1.841,0,0,1-.505-.453,1.309,1.309,0,0,1-.26-.568.993.993,0,0,1,.065-.571.921.921,0,0,1,.434-.446,2.744,2.744,0,0,1,1.225-.243q.8-.015,1.9-.072a19.841,19.841,0,0,0,2.405-.29,11.32,11.32,0,0,0,2.747-.894l-7.75-4.776q-1.593.4-3.251.765a19.015,19.015,0,0,1-3.336.43,14.116,14.116,0,0,1-3.329-.26,9.739,9.739,0,0,1-3.237-1.3A5.539,5.539,0,0,1,11.823,69.4a2.9,2.9,0,0,1-.332-1.956A3.8,3.8,0,0,1,12.5,65.6a11.14,11.14,0,0,1,1.954-1.648l-.957-.589a.445.445,0,0,1-.246-.478q.051-.294.508-.542a2.31,2.31,0,0,1,.955-.246,1.471,1.471,0,0,1,.867.148l.9.554a18.8,18.8,0,0,1,2.05-.937,19.4,19.4,0,0,1,2.314-.752A9.756,9.756,0,0,1,23,60.785a2.866,2.866,0,0,1,1.606.338,2.445,2.445,0,0,1,.476.395,1.551,1.551,0,0,1,.348.54.839.839,0,0,1,0,.574.97.97,0,0,1-.488.493,2.707,2.707,0,0,1-.835.26q-.515.089-1.207.214t-1.556.365a12.108,12.108,0,0,0-1.849.694l6.7,4.126q1.559-.383,3.213-.689a19.219,19.219,0,0,1,3.362-.311,14.59,14.59,0,0,1,3.426.4,11.586,11.586,0,0,1,3.4,1.442Q42.627,71.5,42.548,73.5t-2.57,3.774l1.122.691a.4.4,0,0,1,.195.507.958.958,0,0,1-.491.532,2.1,2.1,0,0,1-.973.256,1.508,1.508,0,0,1-.815-.175Zm-20.9-9.211a4.787,4.787,0,0,0,1.468.6,6.547,6.547,0,0,0,1.6.148A11.711,11.711,0,0,0,21.87,69.8q.9-.16,1.831-.4l-6-3.7a3.8,3.8,0,0,0-1.6,1.823q-.292.92.994,1.714m19.347,2.512a6.2,6.2,0,0,0-3.255-.968,16.9,16.9,0,0,0-3.537.368l6.96,4.289a2.691,2.691,0,0,0,1.215-1.88q.034-.935-1.383-1.809" transform="translate(4.802 25.512)" fill="#de8d1d"/>
              <path id="Trazado_1000510" data-name="Trazado 1000510" d="M56.882,64.134H.847v3.755C.776,72.087,3.505,76.3,9.054,79.5c10.942,6.316,28.68,6.316,39.622,0,5.548-3.2,8.277-7.417,8.2-11.615.007,0,.007-3.755.007-3.755" transform="translate(0.355 26.919)" fill="#de8d1d"/>
              <path id="Trazado_1000511" data-name="Trazado 1000511" d="M48.675,57.479c10.941,6.316,10.941,16.558,0,22.876s-28.68,6.316-39.622,0-10.939-16.56,0-22.876,28.68-6.316,39.622,0" transform="translate(0.356 22.137)" fill="#f5c075"/>
              <path id="Trazado_1000512" data-name="Trazado 1000512" d="M53.553,68.3c0,.206-.01.41-.026.611-.267,3.272-2.692,6.42-6.893,8.937C41.725,80.785,35.146,82.4,28.1,82.4s-13.62-1.613-18.525-4.55c-4.2-2.517-6.63-5.665-6.9-8.937-.016-.2-.026-.4-.026-.611,0-3.483,2.459-6.872,6.923-9.542,4.905-2.939,11.484-4.55,18.525-4.55s13.621,1.611,18.53,4.55c4.464,2.671,6.918,6.059,6.918,9.542" transform="translate(1.115 22.752)" fill="#de8d1d"/>
              <path id="Trazado_1000513" data-name="Trazado 1000513" d="M53.52,68.551c-.267,3.271-2.692,6.42-6.893,8.936-4.909,2.939-11.489,4.552-18.53,4.552s-13.62-1.613-18.525-4.552c-4.2-2.516-6.63-5.665-6.9-8.936.267-3.271,2.7-6.42,6.9-8.937,4.905-2.932,11.484-4.55,18.525-4.55s13.621,1.619,18.53,4.55c4.2,2.517,6.626,5.666,6.893,8.937" transform="translate(1.123 23.112)" fill="#f5c075"/>
              <path id="Trazado_1000514" data-name="Trazado 1000514" d="M36.642,74.83a16.659,16.659,0,0,1-3.372,1.383A19.567,19.567,0,0,1,30,76.871a12.88,12.88,0,0,1-2.753.034,4.438,4.438,0,0,1-1.8-.5,1.819,1.819,0,0,1-.505-.453,1.31,1.31,0,0,1-.26-.568.993.993,0,0,1,.065-.571.927.927,0,0,1,.434-.446,2.744,2.744,0,0,1,1.225-.243q.8-.015,1.9-.072a19.843,19.843,0,0,0,2.405-.29,11.319,11.319,0,0,0,2.747-.894l-7.75-4.776q-1.593.4-3.253.765a18.984,18.984,0,0,1-3.335.43,14.116,14.116,0,0,1-3.329-.26,9.74,9.74,0,0,1-3.237-1.3,5.539,5.539,0,0,1-2.074-1.951,2.9,2.9,0,0,1-.332-1.956,3.8,3.8,0,0,1,1.008-1.843,11.14,11.14,0,0,1,1.954-1.648l-.957-.589a.444.444,0,0,1-.246-.478q.051-.294.508-.542a2.31,2.31,0,0,1,.955-.246,1.463,1.463,0,0,1,.866.148l.9.554a18.8,18.8,0,0,1,2.05-.937,19.4,19.4,0,0,1,2.314-.752,9.83,9.83,0,0,1,2.154-.322,2.866,2.866,0,0,1,1.606.338,2.487,2.487,0,0,1,.476.395,1.551,1.551,0,0,1,.348.54.83.83,0,0,1,0,.574.961.961,0,0,1-.487.493,2.708,2.708,0,0,1-.835.26c-.344.06-.747.131-1.207.214s-.978.2-1.556.365a12.109,12.109,0,0,0-1.849.694l6.7,4.126q1.559-.383,3.213-.689a19.2,19.2,0,0,1,3.362-.311,14.589,14.589,0,0,1,3.426.4A11.586,11.586,0,0,1,38.25,66q3.035,1.872,2.954,3.879t-2.568,3.774l1.122.691a.4.4,0,0,1,.193.507.95.95,0,0,1-.49.532,2.1,2.1,0,0,1-.973.256,1.508,1.508,0,0,1-.815-.175Zm-20.9-9.211a4.772,4.772,0,0,0,1.468.6,6.546,6.546,0,0,0,1.6.148,11.71,11.71,0,0,0,1.718-.185c.6-.106,1.208-.24,1.831-.4l-6-3.7a3.821,3.821,0,0,0-1.606,1.823q-.29.92,1,1.714m19.347,2.512a6.2,6.2,0,0,0-3.255-.968,16.9,16.9,0,0,0-3.537.368l6.96,4.289a2.7,2.7,0,0,0,1.215-1.88q.034-.935-1.383-1.809" transform="translate(4.239 23.992)" fill="#de8d1d"/>
              <path id="Trazado_1000515" data-name="Trazado 1000515" d="M56.882,60.689H.847v3.755c-.071,4.2,2.658,8.412,8.206,11.615,10.942,6.316,28.68,6.316,39.622,0,5.548-3.2,8.277-7.417,8.2-11.615.007,0,.007-3.755.007-3.755" transform="translate(0.355 25.473)" fill="#de8d1d"/>
              <path id="Trazado_1000516" data-name="Trazado 1000516" d="M48.675,54.033c10.941,6.316,10.941,16.558,0,22.876s-28.68,6.316-39.622,0-10.939-16.56,0-22.876,28.68-6.316,39.622,0" transform="translate(0.356 20.691)" fill="#f5c075"/>
              <path id="Trazado_1000517" data-name="Trazado 1000517" d="M53.553,64.853c0,.206-.01.41-.026.612-.267,3.271-2.692,6.419-6.893,8.936-4.909,2.937-11.489,4.55-18.53,4.55S14.485,77.339,9.58,74.4c-4.2-2.517-6.63-5.665-6.9-8.936-.016-.2-.026-.406-.026-.612,0-3.483,2.459-6.872,6.923-9.542,4.905-2.939,11.484-4.55,18.525-4.55s13.621,1.611,18.53,4.55c4.464,2.671,6.918,6.059,6.918,9.542" transform="translate(1.115 21.306)" fill="#de8d1d"/>
              <path id="Trazado_1000518" data-name="Trazado 1000518" d="M53.52,65.106c-.267,3.271-2.692,6.42-6.893,8.936-4.909,2.939-11.489,4.55-18.53,4.55s-13.62-1.611-18.525-4.55c-4.2-2.516-6.63-5.665-6.9-8.936.267-3.273,2.7-6.42,6.9-8.937,4.905-2.932,11.484-4.55,18.525-4.55s13.621,1.619,18.53,4.55c4.2,2.517,6.626,5.665,6.893,8.937" transform="translate(1.123 21.666)" fill="#f5c075"/>
              <path id="Trazado_1000519" data-name="Trazado 1000519" d="M36.642,71.385A16.748,16.748,0,0,1,33.27,72.77,19.7,19.7,0,0,1,30,73.426a12.881,12.881,0,0,1-2.753.034,4.463,4.463,0,0,1-1.8-.5,1.846,1.846,0,0,1-.505-.454,1.309,1.309,0,0,1-.26-.568.994.994,0,0,1,.065-.571.927.927,0,0,1,.434-.446,2.744,2.744,0,0,1,1.225-.243c.535-.009,1.168-.034,1.9-.072a19.843,19.843,0,0,0,2.405-.29,11.32,11.32,0,0,0,2.747-.894l-7.75-4.776q-1.593.4-3.253.767a19.115,19.115,0,0,1-3.335.429,14.116,14.116,0,0,1-3.329-.26,9.739,9.739,0,0,1-3.237-1.3,5.539,5.539,0,0,1-2.074-1.951,2.9,2.9,0,0,1-.332-1.956,3.8,3.8,0,0,1,1.008-1.843,11.14,11.14,0,0,1,1.954-1.648l-.957-.589a.444.444,0,0,1-.246-.478q.051-.294.508-.542a2.311,2.311,0,0,1,.955-.246,1.463,1.463,0,0,1,.866.148l.9.554a19.07,19.07,0,0,1,2.05-.937,19.4,19.4,0,0,1,2.314-.752,9.828,9.828,0,0,1,2.154-.322,2.866,2.866,0,0,1,1.606.338,2.488,2.488,0,0,1,.476.395,1.551,1.551,0,0,1,.348.54.83.83,0,0,1,0,.574.962.962,0,0,1-.487.493,2.744,2.744,0,0,1-.835.261c-.344.058-.747.131-1.207.213s-.978.206-1.556.365a12.259,12.259,0,0,0-1.849.694l6.7,4.126q1.559-.383,3.213-.687a19.07,19.07,0,0,1,3.362-.312,14.59,14.59,0,0,1,3.426.4,11.586,11.586,0,0,1,3.4,1.442q3.035,1.872,2.954,3.879t-2.568,3.775l1.122.69a.4.4,0,0,1,.193.507.95.95,0,0,1-.49.532,2.1,2.1,0,0,1-.973.256,1.5,1.5,0,0,1-.815-.175Zm-20.9-9.211a4.772,4.772,0,0,0,1.468.6,6.41,6.41,0,0,0,1.6.148,11.52,11.52,0,0,0,1.718-.185c.6-.106,1.208-.24,1.831-.4l-6-3.7a3.821,3.821,0,0,0-1.606,1.823q-.29.92,1,1.714m19.347,2.512a6.2,6.2,0,0,0-3.255-.968,16.9,16.9,0,0,0-3.537.368l6.96,4.289a2.7,2.7,0,0,0,1.215-1.88q.034-.935-1.383-1.809" transform="translate(4.239 22.546)" fill="#de8d1d"/>
              <path id="Trazado_1000520" data-name="Trazado 1000520" d="M57.354,57.3H1.319v3.755c-.071,4.2,2.658,8.412,8.206,11.615,10.942,6.316,28.682,6.316,39.622,0,5.548-3.2,8.277-7.417,8.2-11.615.007,0,.007-3.755.007-3.755" transform="translate(0.553 24.052)" fill="#de8d1d"/>
              <path id="Trazado_1000521" data-name="Trazado 1000521" d="M49.147,50.646c10.941,6.316,10.941,16.558,0,22.876s-28.68,6.316-39.622,0-10.942-16.56,0-22.876,28.68-6.316,39.622,0" transform="translate(0.554 19.269)" fill="#f5c075"/>
              <path id="Trazado_1000522" data-name="Trazado 1000522" d="M54.025,61.466c0,.206-.011.41-.027.61-.267,3.273-2.692,6.42-6.893,8.937-4.909,2.937-11.487,4.55-18.529,4.55s-13.62-1.613-18.525-4.55c-4.2-2.517-6.632-5.665-6.9-8.937-.014-.2-.024-.4-.024-.61,0-3.483,2.459-6.872,6.923-9.542,4.905-2.939,11.484-4.55,18.525-4.55s13.62,1.611,18.529,4.55c4.465,2.671,6.92,6.059,6.92,9.542" transform="translate(1.313 19.884)" fill="#de8d1d"/>
              <path id="Trazado_1000523" data-name="Trazado 1000523" d="M53.991,61.719c-.267,3.271-2.692,6.42-6.893,8.936-4.909,2.939-11.489,4.55-18.53,4.55s-13.62-1.611-18.525-4.55c-4.2-2.516-6.63-5.665-6.9-8.936.267-3.271,2.7-6.42,6.9-8.936,4.905-2.933,11.484-4.552,18.525-4.552s13.621,1.619,18.53,4.552c4.2,2.516,6.626,5.665,6.893,8.936" transform="translate(1.321 20.244)" fill="#f5c075"/>
              <path id="Trazado_1000524" data-name="Trazado 1000524" d="M37.114,68a16.792,16.792,0,0,1-3.373,1.384,19.7,19.7,0,0,1-3.265.656,12.882,12.882,0,0,1-2.753.034,4.438,4.438,0,0,1-1.8-.5,1.819,1.819,0,0,1-.505-.453,1.309,1.309,0,0,1-.26-.568.994.994,0,0,1,.065-.571.927.927,0,0,1,.434-.446,2.744,2.744,0,0,1,1.225-.243c.535-.009,1.168-.034,1.9-.072a19.843,19.843,0,0,0,2.405-.29,11.32,11.32,0,0,0,2.747-.894l-7.75-4.776q-1.593.4-3.253.767a19.115,19.115,0,0,1-3.334.429,14.122,14.122,0,0,1-3.331-.26,9.751,9.751,0,0,1-3.237-1.3,5.539,5.539,0,0,1-2.074-1.951,2.9,2.9,0,0,1-.332-1.956,3.8,3.8,0,0,1,1.008-1.843A11.14,11.14,0,0,1,13.582,53.5l-.957-.589a.445.445,0,0,1-.246-.478q.051-.294.508-.542a2.311,2.311,0,0,1,.955-.246,1.471,1.471,0,0,1,.867.148l.9.554a19.069,19.069,0,0,1,2.05-.937,19.4,19.4,0,0,1,2.314-.752,9.841,9.841,0,0,1,2.154-.322,2.874,2.874,0,0,1,1.607.338,2.526,2.526,0,0,1,.474.395,1.551,1.551,0,0,1,.348.539.83.83,0,0,1,0,.574.962.962,0,0,1-.487.493,2.707,2.707,0,0,1-.835.26c-.344.06-.745.132-1.207.214s-.978.2-1.556.365a12.259,12.259,0,0,0-1.849.694l6.7,4.126q1.559-.383,3.213-.687a19.086,19.086,0,0,1,3.363-.312,14.587,14.587,0,0,1,3.424.4,11.586,11.586,0,0,1,3.4,1.442q3.035,1.872,2.956,3.879t-2.568,3.775l1.12.69a.4.4,0,0,1,.195.507.953.953,0,0,1-.491.532,2.1,2.1,0,0,1-.973.256,1.5,1.5,0,0,1-.815-.175Zm-20.9-9.211a4.765,4.765,0,0,0,1.467.6,6.547,6.547,0,0,0,1.6.148A11.52,11.52,0,0,0,21,59.349q.9-.16,1.831-.4l-6-3.7a3.81,3.81,0,0,0-1.6,1.823q-.292.92,1,1.714M35.564,61.3a6.21,6.21,0,0,0-3.255-.968,16.9,16.9,0,0,0-3.537.368l6.96,4.289a2.691,2.691,0,0,0,1.215-1.88q.034-.935-1.383-1.809" transform="translate(4.436 21.124)" fill="#de8d1d"/>
              <path id="Trazado_1000525" data-name="Trazado 1000525" d="M58.224,53.679H2.189v3.755c-.071,4.2,2.658,8.412,8.206,11.615,10.942,6.316,28.68,6.316,39.622,0,5.548-3.2,8.277-7.417,8.2-11.615.007,0,.007-3.755.007-3.755" transform="translate(0.918 22.531)" fill="#de8d1d"/>
              <path id="Trazado_1000526" data-name="Trazado 1000526" d="M50.017,47.022c10.942,6.316,10.942,16.558,0,22.876s-28.68,6.316-39.622,0-10.941-16.56,0-22.876,28.68-6.315,39.622,0" transform="translate(0.919 17.749)" fill="#f5c075"/>
              <path id="Trazado_1000527" data-name="Trazado 1000527" d="M54.894,57.843c0,.206-.01.41-.026.61-.267,3.273-2.692,6.42-6.893,8.937-4.909,2.937-11.489,4.55-18.53,4.55s-13.62-1.613-18.525-4.55c-4.2-2.517-6.63-5.665-6.9-8.937-.016-.2-.026-.4-.026-.61,0-3.483,2.459-6.872,6.923-9.542,4.905-2.939,11.484-4.55,18.525-4.55s13.621,1.611,18.53,4.55c4.464,2.671,6.918,6.059,6.918,9.542" transform="translate(1.678 18.364)" fill="#de8d1d"/>
              <path id="Trazado_1000528" data-name="Trazado 1000528" d="M54.861,58.1c-.267,3.271-2.69,6.42-6.893,8.936-4.909,2.939-11.489,4.55-18.53,4.55s-13.62-1.611-18.525-4.55c-4.2-2.516-6.63-5.665-6.9-8.936.267-3.271,2.7-6.42,6.9-8.936,4.905-2.933,11.484-4.552,18.525-4.552s13.621,1.619,18.53,4.552c4.2,2.516,6.626,5.665,6.893,8.936" transform="translate(1.686 18.723)" fill="#f5c075"/>
              <path id="Trazado_1000529" data-name="Trazado 1000529" d="M37.984,64.375a16.793,16.793,0,0,1-3.373,1.384,19.554,19.554,0,0,1-3.265.656,12.881,12.881,0,0,1-2.753.034,4.438,4.438,0,0,1-1.8-.5,1.819,1.819,0,0,1-.505-.453,1.31,1.31,0,0,1-.26-.568.994.994,0,0,1,.065-.571.927.927,0,0,1,.434-.446,2.744,2.744,0,0,1,1.225-.243c.535-.009,1.168-.034,1.9-.072a19.843,19.843,0,0,0,2.405-.29,11.32,11.32,0,0,0,2.747-.894l-7.75-4.776q-1.593.4-3.253.767a19.115,19.115,0,0,1-3.335.429,14.116,14.116,0,0,1-3.329-.26,9.752,9.752,0,0,1-3.237-1.3,5.539,5.539,0,0,1-2.074-1.951,2.9,2.9,0,0,1-.332-1.956A3.8,3.8,0,0,1,12.5,51.521a11.192,11.192,0,0,1,1.954-1.648l-.957-.589a.445.445,0,0,1-.246-.478q.051-.294.508-.542a2.311,2.311,0,0,1,.955-.246,1.474,1.474,0,0,1,.866.148l.9.554a19.069,19.069,0,0,1,2.05-.937,19.4,19.4,0,0,1,2.314-.752A9.829,9.829,0,0,1,23,46.707a2.866,2.866,0,0,1,1.606.338,2.488,2.488,0,0,1,.476.395,1.551,1.551,0,0,1,.348.54.83.83,0,0,1,0,.574.962.962,0,0,1-.487.493,2.708,2.708,0,0,1-.835.26c-.344.06-.745.132-1.207.214s-.978.206-1.556.365a12.261,12.261,0,0,0-1.849.694l6.7,4.126q1.557-.383,3.213-.687a19.083,19.083,0,0,1,3.362-.312,14.59,14.59,0,0,1,3.426.4,11.586,11.586,0,0,1,3.4,1.442q3.035,1.872,2.956,3.879T39.979,63.2l1.12.69a.4.4,0,0,1,.194.507.958.958,0,0,1-.491.532,2.1,2.1,0,0,1-.973.256,1.5,1.5,0,0,1-.815-.175Zm-20.9-9.211a4.765,4.765,0,0,0,1.467.6,6.477,6.477,0,0,0,1.6.148,11.518,11.518,0,0,0,1.718-.185q.9-.16,1.831-.4l-6-3.7a3.81,3.81,0,0,0-1.6,1.823q-.292.92,1,1.714m19.345,2.512a6.21,6.21,0,0,0-3.255-.968,16.9,16.9,0,0,0-3.537.368l6.96,4.289a2.691,2.691,0,0,0,1.215-1.88q.034-.935-1.383-1.809" transform="translate(4.801 19.603)" fill="#de8d1d"/>
              <path id="Trazado_1000530" data-name="Trazado 1000530" d="M56.036,50.03H0v3.755C-.07,57.985,2.659,62.2,8.208,65.4c10.942,6.316,28.682,6.316,39.622,0,5.548-3.2,8.277-7.415,8.2-11.615.007,0,.007-3.755.007-3.755" transform="translate(0 20.999)" fill="#de8d1d"/>
              <path id="Trazado_1000531" data-name="Trazado 1000531" d="M47.829,43.374c10.941,6.316,10.941,16.558,0,22.876s-28.68,6.316-39.622,0-10.941-16.56,0-22.876,28.682-6.316,39.622,0" transform="translate(0.001 16.217)" fill="#f5c075"/>
              <path id="Trazado_1000532" data-name="Trazado 1000532" d="M52.706,54.194c0,.206-.01.41-.026.61-.267,3.273-2.692,6.42-6.893,8.937-4.909,2.937-11.489,4.55-18.53,4.55s-13.62-1.613-18.525-4.55c-4.2-2.517-6.63-5.665-6.9-8.937-.016-.2-.026-.4-.026-.61,0-3.483,2.459-6.872,6.923-9.542,4.905-2.939,11.484-4.55,18.525-4.55s13.621,1.611,18.53,4.55c4.464,2.671,6.918,6.059,6.918,9.542" transform="translate(0.76 16.832)" fill="#de8d1d"/>
              <path id="Trazado_1000533" data-name="Trazado 1000533" d="M52.673,54.446c-.267,3.273-2.692,6.42-6.893,8.937-4.909,2.937-11.489,4.55-18.53,4.55s-13.62-1.613-18.525-4.55c-4.2-2.517-6.63-5.665-6.9-8.937.267-3.271,2.7-6.42,6.9-8.936,4.905-2.933,11.484-4.55,18.525-4.55s13.621,1.617,18.53,4.55c4.2,2.516,6.626,5.665,6.893,8.936" transform="translate(0.767 17.192)" fill="#f5c075"/>
              <path id="Trazado_1000534" data-name="Trazado 1000534" d="M35.795,60.726a16.747,16.747,0,0,1-3.372,1.384,19.7,19.7,0,0,1-3.265.656A12.881,12.881,0,0,1,26.4,62.8a4.463,4.463,0,0,1-1.8-.5,1.846,1.846,0,0,1-.505-.454,1.309,1.309,0,0,1-.26-.568.994.994,0,0,1,.065-.571.927.927,0,0,1,.434-.446,2.744,2.744,0,0,1,1.225-.243c.535-.009,1.168-.034,1.9-.072a19.844,19.844,0,0,0,2.405-.29,11.32,11.32,0,0,0,2.747-.894l-7.75-4.776q-1.593.4-3.253.767a19.115,19.115,0,0,1-3.335.429,14.115,14.115,0,0,1-3.329-.26,9.739,9.739,0,0,1-3.237-1.3,5.539,5.539,0,0,1-2.074-1.951A2.9,2.9,0,0,1,9.3,49.715a3.8,3.8,0,0,1,1.008-1.843,11.14,11.14,0,0,1,1.954-1.648l-.957-.589a.444.444,0,0,1-.246-.478q.051-.294.508-.542a2.31,2.31,0,0,1,.955-.246,1.463,1.463,0,0,1,.866.148l.9.554a19.068,19.068,0,0,1,2.05-.937,19.4,19.4,0,0,1,2.314-.752,9.829,9.829,0,0,1,2.154-.322,2.866,2.866,0,0,1,1.606.338,2.488,2.488,0,0,1,.476.395,1.551,1.551,0,0,1,.348.539.83.83,0,0,1,0,.574.962.962,0,0,1-.487.493,2.744,2.744,0,0,1-.835.261q-.515.087-1.207.213t-1.556.365a12.26,12.26,0,0,0-1.849.694L24,51.055q1.559-.383,3.213-.687a19.071,19.071,0,0,1,3.362-.312,14.59,14.59,0,0,1,3.426.4A11.586,11.586,0,0,1,37.4,51.9q3.035,1.872,2.954,3.879t-2.568,3.775l1.122.69a.4.4,0,0,1,.193.507.95.95,0,0,1-.49.532,2.1,2.1,0,0,1-.973.256,1.5,1.5,0,0,1-.815-.175ZM14.9,51.514a4.755,4.755,0,0,0,1.468.6,6.477,6.477,0,0,0,1.6.148,11.52,11.52,0,0,0,1.718-.185c.6-.106,1.208-.24,1.831-.4l-6-3.7A3.821,3.821,0,0,0,13.9,49.8q-.29.92,1,1.712m19.347,2.513a6.21,6.21,0,0,0-3.255-.968,16.9,16.9,0,0,0-3.537.368l6.96,4.289a2.7,2.7,0,0,0,1.215-1.88q.034-.935-1.383-1.809" transform="translate(3.883 18.072)" fill="#de8d1d"/>
              <path id="Trazado_1000535" data-name="Trazado 1000535" d="M57.378,46.762H1.343v3.755C1.272,54.715,4,58.929,9.55,62.132c10.942,6.316,28.682,6.316,39.622,0,5.548-3.2,8.277-7.417,8.2-11.615.007,0,.007-3.755.007-3.755" transform="translate(0.563 19.627)" fill="#de8d1d"/>
              <path id="Trazado_1000536" data-name="Trazado 1000536" d="M49.171,40.106c10.942,6.316,10.942,16.558,0,22.878s-28.68,6.315-39.622,0-10.942-16.561,0-22.878,28.68-6.316,39.622,0" transform="translate(0.564 14.845)" fill="#f5c075"/>
              <path id="Trazado_1000537" data-name="Trazado 1000537" d="M54.049,50.926c0,.206-.01.41-.026.61-.267,3.273-2.692,6.42-6.893,8.937-4.909,2.937-11.489,4.55-18.53,4.55s-13.62-1.613-18.525-4.55c-4.2-2.517-6.63-5.665-6.9-8.937-.016-.2-.027-.4-.027-.61,0-3.483,2.46-6.872,6.924-9.542,4.905-2.937,11.484-4.55,18.525-4.55s13.621,1.613,18.53,4.55c4.464,2.671,6.918,6.059,6.918,9.542" transform="translate(1.323 15.46)" fill="#de8d1d"/>
              <path id="Trazado_1000538" data-name="Trazado 1000538" d="M54.015,51.179c-.267,3.271-2.692,6.42-6.893,8.936-4.909,2.939-11.489,4.55-18.53,4.55s-13.62-1.611-18.525-4.55c-4.2-2.516-6.63-5.665-6.9-8.936.267-3.271,2.7-6.42,6.9-8.936,4.905-2.933,11.484-4.552,18.525-4.552s13.621,1.619,18.53,4.552c4.2,2.516,6.626,5.665,6.893,8.936" transform="translate(1.331 15.82)" fill="#f5c075"/>
              <path id="Trazado_1000539" data-name="Trazado 1000539" d="M37.137,57.458a16.659,16.659,0,0,1-3.372,1.383A19.711,19.711,0,0,1,30.5,59.5a12.881,12.881,0,0,1-2.753.034,4.438,4.438,0,0,1-1.8-.5,1.841,1.841,0,0,1-.505-.453,1.31,1.31,0,0,1-.26-.568.993.993,0,0,1,.065-.571A.921.921,0,0,1,25.679,57a2.744,2.744,0,0,1,1.225-.243q.8-.015,1.9-.072a19.843,19.843,0,0,0,2.405-.29,11.319,11.319,0,0,0,2.747-.894L26.2,50.72q-1.593.4-3.253.765a18.982,18.982,0,0,1-3.335.43,14.116,14.116,0,0,1-3.329-.26,9.74,9.74,0,0,1-3.237-1.3A5.539,5.539,0,0,1,10.976,48.4a2.9,2.9,0,0,1-.332-1.958A3.808,3.808,0,0,1,11.652,44.6a11.2,11.2,0,0,1,1.954-1.647l-.957-.589a.445.445,0,0,1-.246-.478q.051-.294.508-.542a2.311,2.311,0,0,1,.955-.246,1.466,1.466,0,0,1,.866.148l.9.554a18.793,18.793,0,0,1,2.05-.937A19.4,19.4,0,0,1,20,40.112a9.732,9.732,0,0,1,2.154-.322,2.866,2.866,0,0,1,1.606.338,2.488,2.488,0,0,1,.476.395,1.551,1.551,0,0,1,.348.54.83.83,0,0,1,0,.574.962.962,0,0,1-.487.493,2.747,2.747,0,0,1-.835.26q-.515.089-1.207.214t-1.556.365a12.109,12.109,0,0,0-1.849.694l6.7,4.126Q26.9,47.4,28.558,47.1a19.219,19.219,0,0,1,3.362-.311,14.663,14.663,0,0,1,3.426.4,11.629,11.629,0,0,1,3.4,1.444Q41.78,50.5,41.7,52.509t-2.57,3.774l1.122.691a.4.4,0,0,1,.195.507.958.958,0,0,1-.491.532,2.1,2.1,0,0,1-.973.256,1.5,1.5,0,0,1-.815-.176Zm-20.9-9.213a4.741,4.741,0,0,0,1.468.6,6.546,6.546,0,0,0,1.6.148,11.71,11.71,0,0,0,1.718-.185c.6-.106,1.208-.24,1.831-.4l-6-3.7a3.8,3.8,0,0,0-1.6,1.823q-.292.92.994,1.712m19.347,2.513a6.2,6.2,0,0,0-3.257-.968,16.8,16.8,0,0,0-3.535.368l6.96,4.289a2.7,2.7,0,0,0,1.215-1.88q.034-.935-1.383-1.809" transform="translate(4.446 16.7)" fill="#de8d1d"/>
              <path id="Trazado_1000540" data-name="Trazado 1000540" d="M56.036,43.139H0v3.755c-.071,4.2,2.658,8.412,8.206,11.615,10.942,6.316,28.682,6.316,39.622,0,5.548-3.2,8.277-7.417,8.2-11.615.007,0,.007-3.755.007-3.755" transform="translate(0 18.107)" fill="#de8d1d"/>
              <path id="Trazado_1000541" data-name="Trazado 1000541" d="M47.829,36.484c10.941,6.316,10.941,16.558,0,22.876s-28.68,6.316-39.622,0-10.941-16.56,0-22.876,28.682-6.316,39.622,0" transform="translate(0.001 13.325)" fill="#f5c075"/>
              <path id="Trazado_1000542" data-name="Trazado 1000542" d="M52.706,47.3c0,.206-.01.41-.026.61-.267,3.273-2.692,6.42-6.893,8.937C40.878,59.79,34.3,61.4,27.257,61.4s-13.62-1.613-18.525-4.55c-4.2-2.517-6.63-5.665-6.9-8.937-.016-.2-.026-.4-.026-.61,0-3.483,2.459-6.872,6.923-9.542,4.905-2.939,11.484-4.55,18.525-4.55s13.621,1.611,18.53,4.55c4.464,2.671,6.918,6.059,6.918,9.542" transform="translate(0.76 13.94)" fill="#de8d1d"/>
              <path id="Trazado_1000543" data-name="Trazado 1000543" d="M52.673,47.556c-.267,3.271-2.692,6.42-6.893,8.936-4.909,2.939-11.489,4.55-18.53,4.55S13.63,59.43,8.725,56.491c-4.2-2.516-6.63-5.665-6.9-8.936.267-3.271,2.7-6.42,6.9-8.937,4.905-2.932,11.484-4.55,18.525-4.55s13.621,1.619,18.53,4.55c4.2,2.517,6.626,5.666,6.893,8.937" transform="translate(0.767 14.299)" fill="#f5c075"/>
              <path id="Trazado_1000544" data-name="Trazado 1000544" d="M35.795,53.835a16.66,16.66,0,0,1-3.372,1.383,19.565,19.565,0,0,1-3.265.657,12.881,12.881,0,0,1-2.753.034,4.438,4.438,0,0,1-1.8-.5,1.841,1.841,0,0,1-.505-.453,1.309,1.309,0,0,1-.26-.568.993.993,0,0,1,.065-.571.927.927,0,0,1,.434-.446,2.744,2.744,0,0,1,1.225-.243q.8-.015,1.9-.072a19.843,19.843,0,0,0,2.405-.29,11.32,11.32,0,0,0,2.747-.894L24.863,47.1q-1.593.4-3.253.765a18.982,18.982,0,0,1-3.335.43,14.116,14.116,0,0,1-3.329-.26,9.739,9.739,0,0,1-3.237-1.3A5.539,5.539,0,0,1,9.634,44.78,2.9,2.9,0,0,1,9.3,42.824,3.806,3.806,0,0,1,10.31,40.98a11.2,11.2,0,0,1,1.954-1.647l-.957-.589a.444.444,0,0,1-.246-.478q.051-.294.508-.542a2.31,2.31,0,0,1,.955-.246,1.463,1.463,0,0,1,.866.148l.9.554a18.8,18.8,0,0,1,2.05-.937,19.4,19.4,0,0,1,2.314-.752,9.829,9.829,0,0,1,2.154-.322,2.866,2.866,0,0,1,1.606.338,2.488,2.488,0,0,1,.476.395,1.551,1.551,0,0,1,.348.54.83.83,0,0,1,0,.574.962.962,0,0,1-.487.493,2.707,2.707,0,0,1-.835.26q-.515.089-1.207.214t-1.556.365a12.108,12.108,0,0,0-1.849.694L24,44.164q1.559-.383,3.213-.689a19.206,19.206,0,0,1,3.362-.311,14.59,14.59,0,0,1,3.426.4,11.586,11.586,0,0,1,3.4,1.442q3.035,1.872,2.954,3.879T37.789,52.66l1.122.691a.4.4,0,0,1,.193.507.95.95,0,0,1-.49.532,2.1,2.1,0,0,1-.973.256,1.5,1.5,0,0,1-.815-.176ZM14.9,44.623a4.755,4.755,0,0,0,1.468.6,6.546,6.546,0,0,0,1.6.148,11.71,11.71,0,0,0,1.718-.185c.6-.106,1.208-.24,1.831-.4l-6-3.7A3.821,3.821,0,0,0,13.9,42.91q-.29.92,1,1.712m19.347,2.513a6.2,6.2,0,0,0-3.255-.968,16.807,16.807,0,0,0-3.537.368l6.96,4.289a2.7,2.7,0,0,0,1.215-1.88q.034-.935-1.383-1.809" transform="translate(3.883 15.179)" fill="#de8d1d"/>
              <path id="Trazado_1000545" data-name="Trazado 1000545" d="M56.036,39.694H0v3.755c-.071,4.2,2.658,8.412,8.206,11.615,10.942,6.316,28.682,6.316,39.622,0,5.548-3.2,8.277-7.417,8.2-11.615.007,0,.007-3.755.007-3.755" transform="translate(0 16.661)" fill="#de8d1d"/>
              <path id="Trazado_1000546" data-name="Trazado 1000546" d="M47.829,33.038c10.941,6.316,10.941,16.558,0,22.876s-28.68,6.316-39.622,0-10.941-16.56,0-22.876,28.682-6.316,39.622,0" transform="translate(0.001 11.878)" fill="#f5c075"/>
              <path id="Trazado_1000547" data-name="Trazado 1000547" d="M52.706,43.858c0,.206-.01.41-.026.612-.267,3.271-2.692,6.419-6.893,8.936-4.909,2.937-11.489,4.55-18.53,4.55s-13.62-1.613-18.525-4.55c-4.2-2.517-6.63-5.665-6.9-8.936-.016-.2-.026-.406-.026-.612,0-3.483,2.459-6.872,6.923-9.542,4.905-2.937,11.484-4.55,18.525-4.55s13.621,1.613,18.53,4.55c4.464,2.671,6.918,6.059,6.918,9.542" transform="translate(0.76 12.494)" fill="#de8d1d"/>
              <path id="Trazado_1000548" data-name="Trazado 1000548" d="M52.673,44.111c-.267,3.271-2.692,6.42-6.893,8.936-4.909,2.939-11.489,4.55-18.53,4.55s-13.62-1.611-18.525-4.55c-4.2-2.516-6.63-5.665-6.9-8.936.267-3.271,2.7-6.42,6.9-8.936,4.905-2.933,11.484-4.552,18.525-4.552s13.621,1.619,18.53,4.552c4.2,2.516,6.626,5.665,6.893,8.936" transform="translate(0.767 12.853)" fill="#f5c075"/>
              <path id="Trazado_1000549" data-name="Trazado 1000549" d="M35.795,50.39a16.748,16.748,0,0,1-3.372,1.384,19.7,19.7,0,0,1-3.265.656,12.881,12.881,0,0,1-2.753.034,4.438,4.438,0,0,1-1.8-.5,1.819,1.819,0,0,1-.505-.453,1.31,1.31,0,0,1-.26-.568.994.994,0,0,1,.065-.571.927.927,0,0,1,.434-.446,2.744,2.744,0,0,1,1.225-.243c.535-.009,1.168-.034,1.9-.072a19.844,19.844,0,0,0,2.405-.29,11.32,11.32,0,0,0,2.747-.894l-7.75-4.776q-1.593.4-3.253.767a19.115,19.115,0,0,1-3.335.429,14.116,14.116,0,0,1-3.329-.26,9.74,9.74,0,0,1-3.237-1.3,5.539,5.539,0,0,1-2.074-1.951A2.9,2.9,0,0,1,9.3,39.379a3.8,3.8,0,0,1,1.008-1.843,11.14,11.14,0,0,1,1.954-1.648l-.957-.589a.444.444,0,0,1-.246-.478q.051-.294.508-.542a2.31,2.31,0,0,1,.955-.246,1.463,1.463,0,0,1,.866.148l.9.554a19.068,19.068,0,0,1,2.05-.937,19.4,19.4,0,0,1,2.314-.752,9.829,9.829,0,0,1,2.154-.322,2.866,2.866,0,0,1,1.606.338,2.488,2.488,0,0,1,.476.395,1.551,1.551,0,0,1,.348.54.83.83,0,0,1,0,.574.962.962,0,0,1-.487.493,2.707,2.707,0,0,1-.835.26c-.344.06-.745.132-1.207.214s-.978.2-1.556.365a12.259,12.259,0,0,0-1.849.694L24,40.719q1.559-.383,3.213-.687a19.07,19.07,0,0,1,3.362-.312,14.59,14.59,0,0,1,3.426.4,11.586,11.586,0,0,1,3.4,1.442q3.035,1.872,2.954,3.879t-2.568,3.775l1.122.69a.4.4,0,0,1,.193.507.95.95,0,0,1-.49.532,2.1,2.1,0,0,1-.973.256,1.5,1.5,0,0,1-.815-.175ZM14.9,41.179a4.787,4.787,0,0,0,1.468.6,6.477,6.477,0,0,0,1.6.148,11.519,11.519,0,0,0,1.718-.185c.6-.106,1.208-.24,1.831-.4l-6-3.7A3.821,3.821,0,0,0,13.9,39.465q-.29.92,1,1.714m19.347,2.512a6.21,6.21,0,0,0-3.255-.968,16.9,16.9,0,0,0-3.537.368l6.96,4.289a2.7,2.7,0,0,0,1.215-1.88q.034-.935-1.383-1.809" transform="translate(3.883 13.733)" fill="#de8d1d"/>
              <path id="Trazado_1000550" data-name="Trazado 1000550" d="M56.507,36.306H.472v3.755C.4,44.259,3.13,48.473,8.679,51.676c10.942,6.316,28.682,6.316,39.622,0,5.548-3.2,8.277-7.417,8.2-11.615.007,0,.007-3.755.007-3.755" transform="translate(0.198 15.239)" fill="#de8d1d"/>
              <path id="Trazado_1000551" data-name="Trazado 1000551" d="M48.3,29.651c10.941,6.316,10.941,16.558,0,22.876s-28.68,6.316-39.622,0-10.942-16.56,0-22.876,28.68-6.316,39.622,0" transform="translate(0.198 10.457)" fill="#f5c075"/>
              <path id="Trazado_1000552" data-name="Trazado 1000552" d="M53.178,40.471c0,.206-.01.41-.026.61-.267,3.273-2.692,6.42-6.893,8.937-4.909,2.937-11.489,4.55-18.53,4.55S14.11,52.957,9.2,50.019c-4.2-2.517-6.63-5.665-6.9-8.937-.016-.2-.026-.4-.026-.61,0-3.483,2.459-6.872,6.923-9.542,4.905-2.939,11.484-4.55,18.525-4.55s13.621,1.611,18.53,4.55c4.464,2.671,6.918,6.059,6.918,9.542" transform="translate(0.958 11.072)" fill="#de8d1d"/>
              <path id="Trazado_1000553" data-name="Trazado 1000553" d="M53.145,40.724c-.267,3.271-2.692,6.42-6.893,8.936-4.909,2.939-11.489,4.55-18.53,4.55S14.1,52.6,9.2,49.659c-4.2-2.516-6.63-5.665-6.9-8.936.267-3.273,2.7-6.42,6.9-8.937,4.905-2.932,11.484-4.55,18.525-4.55s13.621,1.619,18.53,4.55c4.2,2.517,6.626,5.665,6.893,8.937" transform="translate(0.965 11.432)" fill="#f5c075"/>
              <path id="Trazado_1000554" data-name="Trazado 1000554" d="M36.267,47a16.747,16.747,0,0,1-3.372,1.384,19.7,19.7,0,0,1-3.265.656,12.881,12.881,0,0,1-2.753.034,4.431,4.431,0,0,1-1.8-.5,1.841,1.841,0,0,1-.505-.453,1.293,1.293,0,0,1-.26-.568.994.994,0,0,1,.065-.571.927.927,0,0,1,.434-.446,2.744,2.744,0,0,1,1.225-.243c.535-.009,1.168-.034,1.9-.072a19.842,19.842,0,0,0,2.405-.29,11.32,11.32,0,0,0,2.747-.894l-7.752-4.776q-1.591.4-3.251.767a19.115,19.115,0,0,1-3.335.429,14.116,14.116,0,0,1-3.329-.26,9.751,9.751,0,0,1-3.237-1.3,5.539,5.539,0,0,1-2.074-1.951,2.9,2.9,0,0,1-.332-1.956,3.8,3.8,0,0,1,1.008-1.843A11.14,11.14,0,0,1,12.736,32.5l-.957-.589a.445.445,0,0,1-.246-.478q.051-.294.508-.542A2.3,2.3,0,0,1,13,30.645a1.463,1.463,0,0,1,.866.148l.9.554a19.069,19.069,0,0,1,2.05-.937,19.4,19.4,0,0,1,2.314-.752,9.829,9.829,0,0,1,2.154-.322,2.866,2.866,0,0,1,1.606.338,2.487,2.487,0,0,1,.476.395,1.551,1.551,0,0,1,.348.54.83.83,0,0,1,0,.574.962.962,0,0,1-.487.493,2.708,2.708,0,0,1-.835.26c-.344.06-.745.132-1.207.214s-.978.2-1.556.365a12.26,12.26,0,0,0-1.849.694l6.7,4.126q1.559-.383,3.213-.687a19.07,19.07,0,0,1,3.362-.312,14.589,14.589,0,0,1,3.426.4,11.586,11.586,0,0,1,3.4,1.442q3.035,1.872,2.956,3.879t-2.568,3.775l1.12.69a.4.4,0,0,1,.194.507.958.958,0,0,1-.491.532,2.1,2.1,0,0,1-.973.256,1.5,1.5,0,0,1-.815-.175Zm-20.9-9.211a4.773,4.773,0,0,0,1.468.6,6.478,6.478,0,0,0,1.6.148,11.52,11.52,0,0,0,1.718-.185c.6-.106,1.208-.24,1.831-.4l-6-3.7a3.81,3.81,0,0,0-1.6,1.823q-.292.92.994,1.714M34.718,40.3a6.211,6.211,0,0,0-3.257-.968,16.9,16.9,0,0,0-3.535.368l6.96,4.289a2.7,2.7,0,0,0,1.215-1.88q.034-.935-1.383-1.809" transform="translate(4.081 12.312)" fill="#de8d1d"/>
              <path id="Trazado_1000555" data-name="Trazado 1000555" d="M57.377,32.684H1.342v3.755C1.271,40.637,4,44.851,9.549,48.054c10.942,6.316,28.68,6.316,39.622,0,5.548-3.2,8.277-7.417,8.2-11.615.007,0,.007-3.755.007-3.755" transform="translate(0.563 13.718)" fill="#de8d1d"/>
              <path id="Trazado_1000556" data-name="Trazado 1000556" d="M49.17,26.028c10.942,6.316,10.942,16.558,0,22.876s-28.68,6.316-39.622,0-10.941-16.56,0-22.876,28.68-6.316,39.622,0" transform="translate(0.564 8.936)" fill="#f5c075"/>
              <path id="Trazado_1000557" data-name="Trazado 1000557" d="M54.047,36.848c0,.206-.01.41-.026.61-.267,3.273-2.692,6.42-6.893,8.937-4.909,2.937-11.489,4.55-18.53,4.55s-13.62-1.613-18.525-4.55c-4.2-2.517-6.63-5.665-6.9-8.937-.016-.2-.026-.4-.026-.61,0-3.483,2.459-6.872,6.923-9.542,4.905-2.939,11.484-4.55,18.525-4.55s13.621,1.611,18.53,4.55c4.464,2.671,6.918,6.059,6.918,9.542" transform="translate(1.323 9.551)" fill="#de8d1d"/>
              <path id="Trazado_1000558" data-name="Trazado 1000558" d="M54.014,37.1c-.267,3.271-2.692,6.42-6.893,8.936-4.909,2.939-11.489,4.55-18.53,4.55s-13.62-1.611-18.525-4.55c-4.2-2.516-6.63-5.665-6.9-8.936.267-3.271,2.7-6.42,6.9-8.937,4.905-2.932,11.484-4.55,18.525-4.55s13.621,1.619,18.53,4.55c4.2,2.517,6.626,5.666,6.893,8.937" transform="translate(1.33 9.911)" fill="#f5c075"/>
              <path id="Trazado_1000559" data-name="Trazado 1000559" d="M37.137,43.38a16.792,16.792,0,0,1-3.373,1.384,19.7,19.7,0,0,1-3.265.656,12.881,12.881,0,0,1-2.753.034,4.463,4.463,0,0,1-1.8-.5,1.846,1.846,0,0,1-.505-.454,1.31,1.31,0,0,1-.26-.568.994.994,0,0,1,.065-.571.927.927,0,0,1,.434-.446,2.744,2.744,0,0,1,1.225-.243c.535-.009,1.168-.034,1.9-.072a19.843,19.843,0,0,0,2.405-.29,11.3,11.3,0,0,0,2.747-.894L26.2,36.642q-1.593.4-3.253.765a18.983,18.983,0,0,1-3.335.43,14.116,14.116,0,0,1-3.329-.26,9.751,9.751,0,0,1-3.237-1.3,5.539,5.539,0,0,1-2.074-1.951,2.9,2.9,0,0,1-.332-1.956,3.8,3.8,0,0,1,1.008-1.843A11.192,11.192,0,0,1,13.6,28.878l-.957-.589a.445.445,0,0,1-.246-.478q.051-.294.508-.542a2.31,2.31,0,0,1,.955-.246,1.474,1.474,0,0,1,.866.148l.9.554a19.067,19.067,0,0,1,2.05-.937A19.4,19.4,0,0,1,20,26.034a9.829,9.829,0,0,1,2.154-.322,2.866,2.866,0,0,1,1.606.338,2.488,2.488,0,0,1,.476.395,1.551,1.551,0,0,1,.348.54.83.83,0,0,1,0,.574.962.962,0,0,1-.487.493,2.708,2.708,0,0,1-.835.26c-.344.06-.745.132-1.207.214s-.978.206-1.556.365a12.261,12.261,0,0,0-1.849.694l6.7,4.126q1.559-.383,3.213-.687a19.083,19.083,0,0,1,3.362-.312,14.589,14.589,0,0,1,3.426.4,11.586,11.586,0,0,1,3.4,1.442q3.035,1.872,2.956,3.879t-2.568,3.775l1.12.69a.4.4,0,0,1,.195.507.958.958,0,0,1-.491.532,2.1,2.1,0,0,1-.973.256,1.5,1.5,0,0,1-.815-.175Zm-20.9-9.211a4.765,4.765,0,0,0,1.467.6,6.477,6.477,0,0,0,1.6.148,11.52,11.52,0,0,0,1.718-.185q.9-.16,1.831-.4l-6-3.7a3.81,3.81,0,0,0-1.6,1.823q-.292.92,1,1.714m19.345,2.512a6.21,6.21,0,0,0-3.255-.968,16.9,16.9,0,0,0-3.537.368l6.96,4.289a2.691,2.691,0,0,0,1.215-1.88q.034-.935-1.383-1.809" transform="translate(4.446 10.791)" fill="#de8d1d"/>
              <path id="Trazado_1000560" data-name="Trazado 1000560" d="M56.882,28.739H.847v3.755c-.071,4.2,2.658,8.412,8.206,11.615,10.942,6.316,28.68,6.316,39.622,0,5.548-3.2,8.277-7.417,8.2-11.615.007,0,.007-3.755.007-3.755" transform="translate(0.355 12.062)" fill="#de8d1d"/>
              <path id="Trazado_1000561" data-name="Trazado 1000561" d="M48.675,22.084c10.941,6.316,10.941,16.558,0,22.876s-28.68,6.316-39.622,0-10.939-16.56,0-22.876,28.68-6.316,39.622,0" transform="translate(0.356 7.28)" fill="#f5c075"/>
              <path id="Trazado_1000562" data-name="Trazado 1000562" d="M53.553,32.9c0,.206-.01.41-.026.61-.267,3.273-2.692,6.42-6.893,8.937C41.725,45.39,35.146,47,28.1,47S14.485,45.39,9.58,42.452c-4.2-2.517-6.63-5.665-6.9-8.937-.016-.2-.026-.4-.026-.61,0-3.483,2.459-6.872,6.923-9.542,4.905-2.937,11.484-4.55,18.525-4.55s13.621,1.613,18.53,4.55c4.464,2.671,6.918,6.059,6.918,9.542" transform="translate(1.115 7.896)" fill="#de8d1d"/>
              <path id="Trazado_1000563" data-name="Trazado 1000563" d="M53.52,33.156c-.267,3.271-2.692,6.42-6.893,8.936-4.909,2.939-11.489,4.55-18.53,4.55s-13.62-1.611-18.525-4.55c-4.2-2.516-6.63-5.665-6.9-8.936.267-3.271,2.7-6.42,6.9-8.936,4.905-2.933,11.484-4.552,18.525-4.552s13.621,1.619,18.53,4.552c4.2,2.516,6.626,5.665,6.893,8.936" transform="translate(1.123 8.255)" fill="#f5c075"/>
              <path id="Trazado_1000564" data-name="Trazado 1000564" d="M36.642,39.435A16.747,16.747,0,0,1,33.27,40.82,19.7,19.7,0,0,1,30,41.476a12.881,12.881,0,0,1-2.753.034,4.463,4.463,0,0,1-1.8-.5,1.846,1.846,0,0,1-.505-.454,1.31,1.31,0,0,1-.26-.568.994.994,0,0,1,.065-.571.933.933,0,0,1,.434-.446,2.744,2.744,0,0,1,1.225-.243c.535-.009,1.168-.034,1.9-.072a19.841,19.841,0,0,0,2.405-.29,11.32,11.32,0,0,0,2.747-.894L25.71,32.7q-1.593.4-3.253.767a19.114,19.114,0,0,1-3.335.429,14.116,14.116,0,0,1-3.329-.26,9.739,9.739,0,0,1-3.237-1.3,5.539,5.539,0,0,1-2.074-1.951,2.9,2.9,0,0,1-.332-1.956,3.8,3.8,0,0,1,1.008-1.843,11.14,11.14,0,0,1,1.954-1.648l-.957-.589a.444.444,0,0,1-.246-.478q.051-.294.508-.542a2.31,2.31,0,0,1,.955-.246,1.463,1.463,0,0,1,.866.148l.9.554a18.805,18.805,0,0,1,2.05-.936,19.156,19.156,0,0,1,2.314-.754,9.829,9.829,0,0,1,2.154-.322,2.878,2.878,0,0,1,1.606.338,2.487,2.487,0,0,1,.476.395,1.551,1.551,0,0,1,.348.54.83.83,0,0,1,0,.574.962.962,0,0,1-.487.493,2.744,2.744,0,0,1-.835.261c-.344.058-.747.129-1.207.213s-.978.206-1.556.365a12.26,12.26,0,0,0-1.849.694l6.7,4.126q1.559-.383,3.213-.687a19.071,19.071,0,0,1,3.362-.312,14.59,14.59,0,0,1,3.426.4,11.586,11.586,0,0,1,3.4,1.442q3.035,1.872,2.954,3.879t-2.568,3.775l1.122.69a.4.4,0,0,1,.193.507.95.95,0,0,1-.49.532,2.1,2.1,0,0,1-.973.256,1.5,1.5,0,0,1-.815-.175Zm-20.9-9.211a4.773,4.773,0,0,0,1.468.6,6.477,6.477,0,0,0,1.6.148,11.519,11.519,0,0,0,1.718-.185c.6-.106,1.208-.24,1.831-.4l-6-3.7a3.821,3.821,0,0,0-1.606,1.823q-.29.92,1,1.714m19.347,2.512a6.21,6.21,0,0,0-3.255-.968,16.9,16.9,0,0,0-3.537.368l6.96,4.289a2.7,2.7,0,0,0,1.215-1.88q.034-.933-1.383-1.809" transform="translate(4.239 9.135)" fill="#de8d1d"/>
              <path id="Trazado_1000565" data-name="Trazado 1000565" d="M58.225,25.471H2.19v3.755c-.072,4.2,2.658,8.412,8.206,11.615,10.942,6.316,28.682,6.316,39.621,0,5.548-3.2,8.279-7.417,8.2-11.615.007,0,.007-3.755.007-3.755" transform="translate(0.919 10.691)" fill="#de8d1d"/>
              <path id="Trazado_1000566" data-name="Trazado 1000566" d="M50.018,18.816c10.942,6.316,10.942,16.558,0,22.876s-28.68,6.316-39.622,0-10.941-16.56,0-22.876,28.68-6.318,39.622,0" transform="translate(0.919 5.908)" fill="#f5c075"/>
              <path id="Trazado_1000567" data-name="Trazado 1000567" d="M54.9,29.636c0,.206-.01.41-.026.61-.267,3.273-2.692,6.42-6.893,8.937-4.909,2.937-11.489,4.55-18.53,4.55s-13.62-1.613-18.525-4.55c-4.2-2.517-6.63-5.665-6.9-8.937-.016-.2-.026-.4-.026-.61,0-3.483,2.459-6.872,6.923-9.542,4.905-2.937,11.484-4.55,18.525-4.55s13.621,1.613,18.53,4.55c4.464,2.671,6.918,6.059,6.918,9.542" transform="translate(1.679 6.524)" fill="#de8d1d"/>
              <path id="Trazado_1000568" data-name="Trazado 1000568" d="M54.862,29.888c-.267,3.271-2.692,6.42-6.893,8.936-4.909,2.939-11.489,4.552-18.53,4.552s-13.62-1.613-18.525-4.552c-4.2-2.516-6.63-5.665-6.9-8.936.267-3.271,2.7-6.42,6.9-8.936C15.819,18.019,22.4,16.4,29.439,16.4s13.621,1.619,18.53,4.552c4.2,2.516,6.626,5.665,6.893,8.936" transform="translate(1.686 6.883)" fill="#f5c075"/>
              <path id="Trazado_1000569" data-name="Trazado 1000569" d="M37.984,36.167a16.583,16.583,0,0,1-3.372,1.384,19.71,19.71,0,0,1-3.265.657,12.881,12.881,0,0,1-2.753.034,4.438,4.438,0,0,1-1.8-.5,1.841,1.841,0,0,1-.505-.453,1.31,1.31,0,0,1-.26-.568.993.993,0,0,1,.065-.571.921.921,0,0,1,.434-.446,2.744,2.744,0,0,1,1.225-.243q.8-.015,1.9-.072a19.844,19.844,0,0,0,2.405-.29,11.32,11.32,0,0,0,2.747-.894l-7.75-4.776q-1.593.4-3.251.765a19.015,19.015,0,0,1-3.336.43,14.116,14.116,0,0,1-3.329-.26,9.74,9.74,0,0,1-3.237-1.3,5.55,5.55,0,0,1-2.074-1.951,2.9,2.9,0,0,1-.332-1.958A3.808,3.808,0,0,1,12.5,23.313a11.2,11.2,0,0,1,1.954-1.647l-.957-.589a.445.445,0,0,1-.246-.478q.051-.294.508-.542a2.31,2.31,0,0,1,.955-.246,1.483,1.483,0,0,1,.867.146l.9.555a18.8,18.8,0,0,1,2.05-.937,19.671,19.671,0,0,1,2.314-.754A9.835,9.835,0,0,1,23,18.5a2.866,2.866,0,0,1,1.606.338,2.445,2.445,0,0,1,.476.395,1.551,1.551,0,0,1,.348.54.835.835,0,0,1,0,.572.967.967,0,0,1-.488.494,2.747,2.747,0,0,1-.835.26q-.515.089-1.207.214t-1.556.365a12.109,12.109,0,0,0-1.849.694l6.7,4.126q1.559-.383,3.213-.689a19.218,19.218,0,0,1,3.362-.311,14.662,14.662,0,0,1,3.426.4,11.591,11.591,0,0,1,3.4,1.444q3.035,1.87,2.956,3.879t-2.57,3.774l1.122.691a.4.4,0,0,1,.195.507.962.962,0,0,1-.491.532,2.1,2.1,0,0,1-.973.256,1.5,1.5,0,0,1-.815-.176Zm-20.9-9.211a4.755,4.755,0,0,0,1.468.6,6.546,6.546,0,0,0,1.6.148,11.71,11.71,0,0,0,1.718-.185q.9-.16,1.831-.4l-6-3.7a3.8,3.8,0,0,0-1.6,1.823q-.292.92.994,1.712m19.347,2.513a6.2,6.2,0,0,0-3.255-.968,16.807,16.807,0,0,0-3.537.368l6.96,4.288a2.686,2.686,0,0,0,1.215-1.878q.034-.935-1.383-1.809" transform="translate(4.802 7.764)" fill="#de8d1d"/>
              <path id="Trazado_1000570" data-name="Trazado 1000570" d="M56.882,21.849H.847V25.6c-.071,4.2,2.658,8.412,8.206,11.615,10.942,6.316,28.68,6.316,39.622,0,5.548-3.2,8.277-7.417,8.2-11.615.007,0,.007-3.755.007-3.755" transform="translate(0.355 9.17)" fill="#de8d1d"/>
              <path id="Trazado_1000571" data-name="Trazado 1000571" d="M48.675,15.193c10.941,6.316,10.941,16.558,0,22.876s-28.68,6.316-39.622,0-10.939-16.56,0-22.876,28.68-6.316,39.622,0" transform="translate(0.356 4.388)" fill="#f5c075"/>
              <path id="Trazado_1000572" data-name="Trazado 1000572" d="M53.553,26.013c0,.206-.01.41-.026.61-.267,3.273-2.692,6.42-6.893,8.937-4.909,2.937-11.489,4.55-18.53,4.55S14.485,38.5,9.58,35.561c-4.2-2.517-6.63-5.665-6.9-8.937-.016-.2-.026-.4-.026-.61,0-3.483,2.459-6.872,6.923-9.542,4.905-2.937,11.484-4.55,18.525-4.55s13.621,1.613,18.53,4.55c4.464,2.671,6.918,6.059,6.918,9.542" transform="translate(1.115 5.003)" fill="#de8d1d"/>
              <path id="Trazado_1000573" data-name="Trazado 1000573" d="M53.52,26.265c-.267,3.271-2.692,6.42-6.893,8.936-4.909,2.939-11.489,4.552-18.53,4.552S14.477,38.14,9.572,35.2c-4.2-2.516-6.63-5.665-6.9-8.936.267-3.271,2.7-6.42,6.9-8.936,4.905-2.933,11.484-4.55,18.525-4.55s13.621,1.617,18.53,4.55c4.2,2.516,6.626,5.665,6.893,8.936" transform="translate(1.123 5.363)" fill="#f5c075"/>
              <path id="Trazado_1000574" data-name="Trazado 1000574" d="M36.642,32.545a16.659,16.659,0,0,1-3.372,1.383A19.71,19.71,0,0,1,30,34.586a12.881,12.881,0,0,1-2.753.034,4.438,4.438,0,0,1-1.8-.5,1.841,1.841,0,0,1-.505-.453,1.31,1.31,0,0,1-.26-.568.993.993,0,0,1,.065-.571.927.927,0,0,1,.434-.446,2.744,2.744,0,0,1,1.225-.243q.8-.015,1.9-.072a19.843,19.843,0,0,0,2.405-.29,11.32,11.32,0,0,0,2.747-.894l-7.75-4.776q-1.593.4-3.253.765a18.982,18.982,0,0,1-3.335.43,14.116,14.116,0,0,1-3.329-.26,9.74,9.74,0,0,1-3.237-1.3,5.55,5.55,0,0,1-2.074-1.951,2.9,2.9,0,0,1-.332-1.956,3.806,3.806,0,0,1,1.008-1.844,11.2,11.2,0,0,1,1.954-1.647l-.957-.589a.444.444,0,0,1-.246-.478q.051-.294.508-.542a2.31,2.31,0,0,1,.955-.246,1.463,1.463,0,0,1,.866.148l.9.554a18.794,18.794,0,0,1,2.05-.937A19.4,19.4,0,0,1,19.5,15.2a9.745,9.745,0,0,1,2.154-.322,2.866,2.866,0,0,1,1.606.338,2.487,2.487,0,0,1,.476.395,1.551,1.551,0,0,1,.348.54.826.826,0,0,1,0,.572.959.959,0,0,1-.487.494,2.708,2.708,0,0,1-.835.26c-.344.06-.747.131-1.207.214s-.978.2-1.556.365a12.108,12.108,0,0,0-1.849.694l6.7,4.126q1.559-.383,3.213-.689a19.206,19.206,0,0,1,3.362-.311,14.59,14.59,0,0,1,3.426.4,11.548,11.548,0,0,1,3.4,1.442Q41.285,25.589,41.2,27.6T38.636,31.37l1.122.691a.4.4,0,0,1,.193.507.954.954,0,0,1-.49.532,2.1,2.1,0,0,1-.973.256,1.5,1.5,0,0,1-.815-.176Zm-20.9-9.213a4.7,4.7,0,0,0,1.468.6,6.477,6.477,0,0,0,1.6.149,11.71,11.71,0,0,0,1.718-.185c.6-.106,1.208-.24,1.831-.4l-6-3.7a3.815,3.815,0,0,0-1.606,1.823q-.29.92,1,1.712m19.347,2.513a6.2,6.2,0,0,0-3.255-.968,16.807,16.807,0,0,0-3.537.368l6.96,4.289a2.7,2.7,0,0,0,1.215-1.88q.034-.935-1.383-1.809" transform="translate(4.239 6.243)" fill="#de8d1d"/>
              <path id="Trazado_1000575" data-name="Trazado 1000575" d="M56.882,18.4H.847v3.755c-.071,4.2,2.658,8.412,8.206,11.615,10.942,6.316,28.68,6.316,39.622,0,5.548-3.2,8.277-7.417,8.2-11.615.007,0,.007-3.755.007-3.755" transform="translate(0.355 7.724)" fill="#de8d1d"/>
              <path id="Trazado_1000576" data-name="Trazado 1000576" d="M48.675,11.748c10.941,6.316,10.941,16.558,0,22.876s-28.68,6.316-39.622,0-10.939-16.56,0-22.876,28.68-6.316,39.622,0" transform="translate(0.356 2.942)" fill="#f5c075"/>
              <path id="Trazado_1000577" data-name="Trazado 1000577" d="M53.553,22.568c0,.206-.01.41-.026.612-.267,3.271-2.692,6.419-6.893,8.936-4.909,2.937-11.489,4.55-18.53,4.55s-13.62-1.613-18.525-4.55c-4.2-2.517-6.63-5.665-6.9-8.936-.016-.2-.026-.406-.026-.612,0-3.483,2.459-6.872,6.923-9.542,4.905-2.939,11.484-4.55,18.525-4.55s13.621,1.611,18.53,4.55c4.464,2.671,6.918,6.059,6.918,9.542" transform="translate(1.115 3.557)" fill="#de8d1d"/>
              <path id="Trazado_1000578" data-name="Trazado 1000578" d="M53.52,22.82c-.267,3.271-2.692,6.42-6.893,8.936-4.909,2.939-11.489,4.55-18.53,4.55s-13.62-1.611-18.525-4.55c-4.2-2.516-6.63-5.665-6.9-8.936.267-3.273,2.7-6.42,6.9-8.937,4.905-2.932,11.484-4.55,18.525-4.55s13.621,1.619,18.53,4.55c4.2,2.517,6.626,5.665,6.893,8.937" transform="translate(1.123 3.916)" fill="#f5c075"/>
              <path id="Trazado_1000579" data-name="Trazado 1000579" d="M36.642,29.1a16.747,16.747,0,0,1-3.372,1.384A19.846,19.846,0,0,1,30,31.14a12.881,12.881,0,0,1-2.753.034,4.438,4.438,0,0,1-1.8-.5,1.841,1.841,0,0,1-.505-.453,1.31,1.31,0,0,1-.26-.568.994.994,0,0,1,.065-.571.927.927,0,0,1,.434-.446,2.744,2.744,0,0,1,1.225-.243c.535-.009,1.168-.034,1.9-.072a19.843,19.843,0,0,0,2.405-.29,11.32,11.32,0,0,0,2.747-.894l-7.75-4.776q-1.593.4-3.253.767a19.114,19.114,0,0,1-3.335.429,14.116,14.116,0,0,1-3.329-.26,9.74,9.74,0,0,1-3.237-1.3,5.539,5.539,0,0,1-2.074-1.951,2.9,2.9,0,0,1-.332-1.956,3.806,3.806,0,0,1,1.008-1.844A11.2,11.2,0,0,1,13.111,14.6l-.957-.589a.444.444,0,0,1-.246-.478q.051-.294.508-.542a2.31,2.31,0,0,1,.955-.246,1.463,1.463,0,0,1,.866.148l.9.554a19.068,19.068,0,0,1,2.05-.937,19.4,19.4,0,0,1,2.314-.752,9.745,9.745,0,0,1,2.154-.322,2.866,2.866,0,0,1,1.606.338,2.487,2.487,0,0,1,.476.395,1.551,1.551,0,0,1,.348.54.83.83,0,0,1,0,.574.962.962,0,0,1-.487.493,2.707,2.707,0,0,1-.835.26c-.344.06-.747.131-1.207.214s-.978.2-1.556.365a12.26,12.26,0,0,0-1.849.694l6.7,4.126q1.559-.383,3.213-.687a19.071,19.071,0,0,1,3.362-.312,14.59,14.59,0,0,1,3.426.4,11.586,11.586,0,0,1,3.4,1.442q3.035,1.872,2.954,3.879t-2.568,3.775l1.122.69a.4.4,0,0,1,.193.507.95.95,0,0,1-.49.532,2.1,2.1,0,0,1-.973.256,1.482,1.482,0,0,1-.815-.176Zm-20.9-9.211a4.773,4.773,0,0,0,1.468.6,6.546,6.546,0,0,0,1.6.148,11.52,11.52,0,0,0,1.718-.185c.6-.106,1.208-.24,1.831-.4l-6-3.7a3.821,3.821,0,0,0-1.606,1.823q-.29.92,1,1.714M35.093,22.4a6.21,6.21,0,0,0-3.255-.968A16.9,16.9,0,0,0,28.3,21.8l6.96,4.289a2.7,2.7,0,0,0,1.215-1.88q.034-.935-1.383-1.809" transform="translate(4.239 4.796)" fill="#de8d1d"/>
              <path id="Trazado_1000580" data-name="Trazado 1000580" d="M57.354,15.016H1.319v3.755c-.071,4.2,2.658,8.412,8.206,11.615,10.942,6.316,28.682,6.316,39.622,0,5.548-3.2,8.277-7.417,8.2-11.615.007,0,.007-3.755.007-3.755" transform="translate(0.553 6.302)" fill="#de8d1d"/>
              <path id="Trazado_1000581" data-name="Trazado 1000581" d="M49.147,8.361c10.941,6.316,10.941,16.558,0,22.876s-28.68,6.316-39.622,0-10.942-16.56,0-22.876,28.68-6.316,39.622,0" transform="translate(0.554 1.52)" fill="#f5c075"/>
              <path id="Trazado_1000582" data-name="Trazado 1000582" d="M54.025,19.181c0,.206-.011.41-.027.61-.267,3.273-2.692,6.42-6.893,8.937-4.909,2.937-11.487,4.55-18.529,4.55s-13.62-1.613-18.525-4.55c-4.2-2.517-6.632-5.665-6.9-8.937-.014-.2-.024-.4-.024-.61,0-3.483,2.459-6.872,6.923-9.542,4.905-2.939,11.484-4.55,18.525-4.55S42.2,6.7,47.106,9.639c4.465,2.671,6.92,6.059,6.92,9.542" transform="translate(1.313 2.136)" fill="#de8d1d"/>
              <path id="Trazado_1000583" data-name="Trazado 1000583" d="M53.991,19.433c-.267,3.271-2.692,6.42-6.893,8.936-4.909,2.939-11.489,4.55-18.53,4.55s-13.62-1.611-18.525-4.55c-4.2-2.516-6.63-5.665-6.9-8.936.267-3.271,2.7-6.42,6.9-8.936,4.905-2.933,11.484-4.552,18.525-4.552S42.189,7.564,47.1,10.5c4.2,2.516,6.626,5.665,6.893,8.936" transform="translate(1.321 2.495)" fill="#f5c075"/>
              <path id="Trazado_1000584" data-name="Trazado 1000584" d="M37.114,25.712A16.793,16.793,0,0,1,33.741,27.1a19.7,19.7,0,0,1-3.265.656,12.881,12.881,0,0,1-2.753.034,4.463,4.463,0,0,1-1.8-.5,1.846,1.846,0,0,1-.505-.454,1.31,1.31,0,0,1-.26-.568.994.994,0,0,1,.065-.571.933.933,0,0,1,.434-.446,2.744,2.744,0,0,1,1.225-.243c.535-.009,1.168-.034,1.9-.072a19.843,19.843,0,0,0,2.405-.29,11.32,11.32,0,0,0,2.747-.894l-7.75-4.776q-1.593.4-3.253.767a19.116,19.116,0,0,1-3.334.429,14.122,14.122,0,0,1-3.331-.26,9.751,9.751,0,0,1-3.237-1.3,5.539,5.539,0,0,1-2.074-1.951A2.9,2.9,0,0,1,10.62,14.7a3.8,3.8,0,0,1,1.008-1.843,11.14,11.14,0,0,1,1.954-1.648l-.957-.589a.445.445,0,0,1-.246-.478q.051-.294.508-.542a2.31,2.31,0,0,1,.955-.246,1.471,1.471,0,0,1,.867.148l.9.554a19.068,19.068,0,0,1,2.05-.937,19.4,19.4,0,0,1,2.314-.752,9.842,9.842,0,0,1,2.154-.322,2.886,2.886,0,0,1,1.607.338,2.526,2.526,0,0,1,.474.395,1.551,1.551,0,0,1,.348.54.83.83,0,0,1,0,.574.962.962,0,0,1-.487.493,2.744,2.744,0,0,1-.835.261c-.344.058-.745.131-1.207.213s-.978.206-1.556.365a12.26,12.26,0,0,0-1.849.694l6.7,4.126q1.559-.383,3.213-.687a19.087,19.087,0,0,1,3.363-.312,14.586,14.586,0,0,1,3.424.4,11.586,11.586,0,0,1,3.4,1.442q3.035,1.872,2.956,3.879t-2.568,3.775l1.12.69a.4.4,0,0,1,.195.507.953.953,0,0,1-.491.532,2.1,2.1,0,0,1-.973.256,1.5,1.5,0,0,1-.815-.175ZM16.218,16.5a4.765,4.765,0,0,0,1.467.6,6.477,6.477,0,0,0,1.6.148A11.519,11.519,0,0,0,21,17.063q.9-.16,1.831-.4l-6-3.7a3.81,3.81,0,0,0-1.6,1.823q-.292.92,1,1.714m19.345,2.512a6.21,6.21,0,0,0-3.255-.968,16.9,16.9,0,0,0-3.537.368l6.96,4.289a2.691,2.691,0,0,0,1.215-1.88q.034-.935-1.383-1.809" transform="translate(4.436 3.375)" fill="#de8d1d"/>
              <path id="Trazado_1000585" data-name="Trazado 1000585" d="M58.224,11.393H2.189v3.755c-.071,4.2,2.658,8.412,8.206,11.615,10.942,6.316,28.68,6.316,39.622,0,5.548-3.2,8.277-7.417,8.2-11.615.007,0,.007-3.755.007-3.755" transform="translate(0.918 4.782)" fill="#de8d1d"/>
              <path id="Trazado_1000586" data-name="Trazado 1000586" d="M50.017,4.738c10.942,6.316,10.942,16.558,0,22.876s-28.68,6.316-39.622,0-10.941-16.56,0-22.876,28.68-6.316,39.622,0" transform="translate(0.919 0)" fill="#f5c075"/>
              <path id="Trazado_1000587" data-name="Trazado 1000587" d="M54.894,15.558c0,.206-.01.41-.026.612-.267,3.271-2.692,6.419-6.893,8.936-4.909,2.937-11.489,4.55-18.53,4.55s-13.62-1.613-18.525-4.55c-4.2-2.517-6.63-5.665-6.9-8.936-.016-.2-.026-.406-.026-.612,0-3.483,2.459-6.872,6.923-9.542,4.905-2.939,11.484-4.55,18.525-4.55s13.621,1.611,18.53,4.55c4.464,2.671,6.918,6.059,6.918,9.542" transform="translate(1.678 0.615)" fill="#de8d1d"/>
              <path id="Trazado_1000588" data-name="Trazado 1000588" d="M54.861,15.81c-.267,3.271-2.69,6.42-6.893,8.936-4.909,2.939-11.489,4.55-18.53,4.55s-13.62-1.611-18.525-4.55c-4.2-2.516-6.63-5.665-6.9-8.936.267-3.271,2.7-6.42,6.9-8.937,4.905-2.932,11.484-4.55,18.525-4.55s13.621,1.619,18.53,4.55c4.2,2.517,6.626,5.666,6.893,8.937" transform="translate(1.686 0.974)" fill="#f5c075"/>
              <path id="Trazado_1000589" data-name="Trazado 1000589" d="M37.984,22.089a16.792,16.792,0,0,1-3.373,1.384,19.556,19.556,0,0,1-3.265.656,12.881,12.881,0,0,1-2.753.034,4.463,4.463,0,0,1-1.8-.5,1.846,1.846,0,0,1-.505-.454,1.31,1.31,0,0,1-.26-.568.994.994,0,0,1,.065-.571.933.933,0,0,1,.434-.446,2.744,2.744,0,0,1,1.225-.243c.535-.009,1.168-.034,1.9-.072a19.842,19.842,0,0,0,2.405-.29,11.32,11.32,0,0,0,2.747-.894l-7.75-4.776q-1.593.4-3.253.767a19.114,19.114,0,0,1-3.335.429,14.116,14.116,0,0,1-3.329-.26,9.752,9.752,0,0,1-3.237-1.3,5.528,5.528,0,0,1-2.074-1.951,2.9,2.9,0,0,1-.332-1.956A3.8,3.8,0,0,1,12.5,9.235a11.192,11.192,0,0,1,1.954-1.648L13.495,7a.445.445,0,0,1-.246-.478q.051-.294.508-.542a2.31,2.31,0,0,1,.955-.246,1.474,1.474,0,0,1,.866.148l.9.554a18.806,18.806,0,0,1,2.05-.936,19.156,19.156,0,0,1,2.314-.754A9.829,9.829,0,0,1,23,4.421a2.878,2.878,0,0,1,1.606.338,2.488,2.488,0,0,1,.476.395,1.551,1.551,0,0,1,.348.54.83.83,0,0,1,0,.574.962.962,0,0,1-.487.493,2.744,2.744,0,0,1-.835.261c-.344.058-.745.131-1.207.213s-.978.206-1.556.365a12.26,12.26,0,0,0-1.849.694l6.7,4.126q1.557-.383,3.213-.687a19.083,19.083,0,0,1,3.362-.312,14.589,14.589,0,0,1,3.426.4,11.553,11.553,0,0,1,3.4,1.444q3.035,1.87,2.956,3.877t-2.568,3.775l1.12.69a.4.4,0,0,1,.194.507.958.958,0,0,1-.491.532,2.1,2.1,0,0,1-.973.256,1.483,1.483,0,0,1-.815-.175Zm-20.9-9.211a4.765,4.765,0,0,0,1.467.6,6.409,6.409,0,0,0,1.6.148,11.519,11.519,0,0,0,1.718-.185q.9-.16,1.831-.4l-6-3.7a3.8,3.8,0,0,0-1.6,1.822q-.292.92,1,1.714M36.434,15.39a6.223,6.223,0,0,0-3.255-.968,16.9,16.9,0,0,0-3.537.368l6.96,4.289a2.691,2.691,0,0,0,1.215-1.88q.034-.933-1.383-1.809" transform="translate(4.801 1.854)" fill="#de8d1d"/>
              <path id="Trazado_1000590" data-name="Trazado 1000590" d="M76.97,23.852l.274,2.9-.274,2.222.274,16.483L76.032,47.81,75.519,42.1s.425-13.314.513-13.6,0-3.555,0-3.555Z" transform="translate(31.699 10.011)" fill="#ea6c78"/>
              <path id="Trazado_1000591" data-name="Trazado 1000591" d="M52.916,34.8l7.05,21.748,14.988,1.325L74.241,55.2l-1.864-6.962-.16-.626-.8-2.987L69.04,35.771Z" transform="translate(22.211 14.605)" fill="#f3f2f2"/>
              <path id="Trazado_1000592" data-name="Trazado 1000592" d="M66.931,45.622l-.206.207,1.35,5.043c.085-.021.179-.053.264-.074l3.975-3.339,3,.332c1.329-.274,1.465-2.964.146-2.827l-2.659-1.4a34.166,34.166,0,0,0-4.229-1.032l-2.3.547Z" transform="translate(27.816 17.854)" fill="#ffb2a3"/>
              <path id="Trazado_1000593" data-name="Trazado 1000593" d="M61.708,48.337l1.414.422.791.792.833.558,1.076.464a15.3,15.3,0,0,0,4.41-.674l-1.35-5.043-3.345,2.553L62.1,47.177c-1.224.01-1.214.907-.39,1.16" transform="translate(25.659 18.827)" fill="#ffb2a3"/>
              <path id="Trazado_1000594" data-name="Trazado 1000594" d="M84.691,93.658s-.321,2.547,4.574,2.74a21.87,21.87,0,0,0,7.383-.68s3.73.93,5.837-.251,1.566-1.833,1.566-1.833a18.3,18.3,0,0,0-2.057-7.7l-5.649-1.7-.873,4.161L91.2,90.416s-5.854.914-6.51,3.243" transform="translate(35.547 35.353)" fill="#282752"/>
              <path id="Trazado_1000595" data-name="Trazado 1000595" d="M95.425,69.6l-.158,11.362a7.148,7.148,0,0,1-.845.013c-2.808-.087-3.034-1.563-4.968-1.816-2.118-.273-1.826.224-6.884-.011s-5.95-3.26-3.73-4.746,6.722-1.555,6.722-1.555l2.425-.916L89.67,71.3l1.322-3.2c.009,0,1.559.531,1.559.531Z" transform="translate(32.613 28.584)" fill="#282752"/>
              <path id="Trazado_1000596" data-name="Trazado 1000596" d="M97.42,61.244l.89,25.571a41.791,41.791,0,0,1-5.4.684,7.72,7.72,0,0,1-3.084-.6,5.893,5.893,0,0,1-.787-.368,9.5,9.5,0,0,1-1.83-1.261C85.051,76.846,85.3,67.8,83.614,55.358a6.56,6.56,0,0,1,.319-3.061l1.36-3.879L90.108,34.8l6.034,1.661,5.145,1.423,2.128.592L97.834,53.981Z" transform="translate(35.072 14.605)" fill="#182b3b"/>
              <path id="Trazado_1000597" data-name="Trazado 1000597" d="M89.285,43.54s-5.693,19.08-2.959,33.485c0,0,4.995,20.9,6.982,29.748a4.558,4.558,0,0,0,4.871,3.676,15.305,15.305,0,0,0,2.759-.459,4.3,4.3,0,0,0,3-4.181c-.084-5.8-.74-19.989-4.915-30.979L103.7,51.881c3.542-3.981,5.409-9.079,2.878-17.105Z" transform="translate(35.923 14.596)" fill="#34559c"/>
              <path id="Trazado_1000598" data-name="Trazado 1000598" d="M97.523,53.73l-.194.392-5.92,11.9L90.085,82.606l-.319,4.062c-.062-.007-.327-.05-.727-.133-.828-.138-2.182-.361-3.511-.625l1.681-.636C85.051,76.846,85.3,67.8,83.614,55.357a6.556,6.556,0,0,1,.319-3.06l1.36-3.879,4.814-13.624,6.034,1.663-.06,1.528.219,2.424Z" transform="translate(35.072 14.604)" fill="#1f387d"/>
              <path id="Trazado_1000599" data-name="Trazado 1000599" d="M52.581,24.557l4.566.427,3.236-.358,1.076,2.28-3.024,1.187-2.9,1.778-2.364.6-3.466.608-1.295.467a.37.37,0,0,1-.434-.142.926.926,0,0,1,.3-1.318l1.2-.5,1.775-.5S49.121,28.931,48.3,29a26.837,26.837,0,0,0-2.685,1.363c-.694.413-1.066.2-1.221.057-.735-.7,2.783-2.286,3.234-2.585a.713.713,0,0,1-.115-1.022c-.2-.426-.077-.76.432-.977-.135-.4.162-.667.866-.806Z" transform="translate(18.59 10.307)" fill="#ffb2a3"/>
              <path id="Trazado_1000600" data-name="Trazado 1000600" d="M73.524,23.368l9.123-6.451,7.114,8.456c-3.241,1.512-6.83,2.385-9.481,3.429-1.174.461-2.182.672-3.123.95,0,0-14.19,2.181-22.524,1.549a3.377,3.377,0,0,0-1.288-3.111s14.43-4.932,20.179-4.821" transform="translate(22.391 7.1)" fill="#eedfcf"/>
              <path id="Trazado_1000601" data-name="Trazado 1000601" d="M111.782,46.661a10.194,10.194,0,0,1-4.921,2.869c-5.27,1.478-11.719-.126-14.45-.964-.846-.251-1.333-.437-1.333-.437l-9.6-10.755c-8.324-5.582-6.262-21.57-6.262-21.57,12.573-8.09,20.169,1.4,27.831,9.3s8.733,21.559,8.733,21.559" transform="translate(31.477 5.338)" fill="#eedfcf"/>
              <g id="Grupo_1178852" data-name="Grupo 1178852" transform="translate(122.556 39.571)" style="mix-blend-mode: multiply;isolation: isolate">
                <g id="Grupo_1178851" data-name="Grupo 1178851">
                  <g id="Grupo_1178850" data-name="Grupo 1178850" clip-path="url(#clip-path-3)">
                    <path id="Trazado_1000602" data-name="Trazado 1000602" d="M102.1,43.169c-5.262,1.478-11.709-.126-14.442-.963l-1.332-8.713,3.734-5.621s4.317,12.739,12.039,15.3" transform="translate(-86.322 -27.872)" fill="#e3ccb3"/>
                  </g>
                </g>
              </g>
              <path id="Trazado_1000603" data-name="Trazado 1000603" d="M98.2,34.775c-2.624,2.249-6.97,3.358-10.268,2.111l1.35,7.535L71.013,46.827a4.815,4.815,0,0,1-.487,3.889s23.015,5.024,27.31,0c2.034-2.111.748-9.169.365-15.941" transform="translate(29.603 14.596)" fill="#eedfcf"/>
              <path id="Trazado_1000604" data-name="Trazado 1000604" d="M94.135,43.583,93.159,31.53c-1.448-10.989-14.667-7.837-11.68,2.255l3.392,14.9c3.467,1.31,6.507-2.734,9.265-5.1" transform="translate(34.016 10.335)" fill="#eedfcf"/>
              <path id="Trazado_1000605" data-name="Trazado 1000605" d="M75.978,15.737s3.1-.61,4.325.855,1.115,6.475.439,8.122a46.957,46.957,0,0,1-4.012,5.976l-.848-2.283Z" transform="translate(31.851 6.552)" fill="#fff"/>
              <path id="Trazado_1000606" data-name="Trazado 1000606" d="M70.952,26.051c.182.182,7,3,7,3s4.185-3.669,2.483-10.78c-1.62-.425-3.507-2.385-6.138-4.194Z" transform="translate(29.782 5.908)" fill="#ffb2a3"/>
              <path id="Trazado_1000607" data-name="Trazado 1000607" d="M80.766,18.072s-1.54-7.847-9.4-7.847c0,0-8.814,1.58-8.327,9.421,0,0,.911,4.922,3.707,6.2l.389,1.728a1.1,1.1,0,0,0,.866.839l.872.168,2.073,1.775a3.3,3.3,0,0,0,2.918.73A6.535,6.535,0,0,0,77.2,28.963c2.553-2.875,3.568-10.891,3.568-10.891" transform="translate(26.451 4.291)" fill="#ffb2a3"/>
              <path id="Trazado_1000608" data-name="Trazado 1000608" d="M64.332,22.976c2.105,1.362,6.6-1.442,9.066,1.241,0,0,3.447,2.482,6.079-.623s2.345-4.735,2.345-4.735-1.959-8.1-7.289-8.9a10.053,10.053,0,0,0-9.928,3.988c-2.107,2.575-3.507,6.943-.274,9.034" transform="translate(26.2 4.117)" fill="#282752"/>
              <path id="Trazado_1000609" data-name="Trazado 1000609" d="M70.645,18.776a1.907,1.907,0,0,1,1.021.116,2.959,2.959,0,0,1,1.8,1.989,1.359,1.359,0,0,1-.207,1.283,1.1,1.1,0,0,1-.907.292,2.239,2.239,0,0,1-.914-.351,4.006,4.006,0,0,1-1.613-1.644,1.2,1.2,0,0,1,.821-1.687" transform="translate(29.266 7.869)" fill="#ffb2a3"/>
            </g>
          </g>
        </g>
      </g>
    </g>
  </g>
</svg>
