<svg xmlns="http://www.w3.org/2000/svg" xmlns:xlink="http://www.w3.org/1999/xlink" width="162.84" height="183.187" viewBox="0 0 162.84 183.187">
  <defs>
    <clipPath id="clip-path">
      <rect id="Rectángulo_455282" data-name="Rectángulo 455282" width="141.333" height="183.187" fill="none"/>
    </clipPath>
    <clipPath id="clip-path-3">
      <rect id="Rectángulo_455263" data-name="Rectángulo 455263" width="102.26" height="59.043" fill="none"/>
    </clipPath>
    <clipPath id="clip-path-4">
      <rect id="Rectángulo_455264" data-name="Rectángulo 455264" width="55.275" height="33.262" fill="none"/>
    </clipPath>
    <clipPath id="clip-path-5">
      <path id="Trazado_1000613" data-name="Trazado 1000613" d="M43.064,47.868c.234.753.43,1.364,1.9,1.506l.018,1.436a19.872,19.872,0,0,0,5.237,7.175c2.619,2.188,3.086,3.5,3.1,3.569l.018.018a1.312,1.312,0,0,1,.053-.664l.216-.395a8.108,8.108,0,0,1-2.476-2.4c-1.094-1.613-4.484-6.528-5.04-7.963a2.008,2.008,0,0,1-.163-.735,2.056,2.056,0,0,1,.485-1.56l.017-.018s-1.129-1.184-1.093-1.687c.018-.5-.395-7.371-.395-7.371s2.188-.753,2.313-1.219l.017-.018a82.614,82.614,0,0,0-2.456-9.309,3.276,3.276,0,0,0-2.871-1.865c-3.82,1.147.826,20.609,1.112,21.506" transform="translate(-40.452 -26.362)" fill="none"/>
    </clipPath>
    <linearGradient id="linear-gradient" x1="-0.694" y1="4.331" x2="-0.669" y2="4.331" gradientUnits="objectBoundingBox">
      <stop offset="0" stop-color="#fca4b5"/>
      <stop offset="0.122" stop-color="#fca4b5"/>
      <stop offset="0.99" stop-color="#ffadb7"/>
      <stop offset="1" stop-color="#ffadb7"/>
    </linearGradient>
    <clipPath id="clip-path-7">
      <rect id="Rectángulo_455267" data-name="Rectángulo 455267" width="8.442" height="45.937" fill="none"/>
    </clipPath>
    <clipPath id="clip-path-8">
      <rect id="Rectángulo_455268" data-name="Rectángulo 455268" width="9.767" height="45.543" fill="none"/>
    </clipPath>
    <clipPath id="clip-path-9">
      <rect id="Rectángulo_455269" data-name="Rectángulo 455269" width="25.192" height="33.707" fill="none"/>
    </clipPath>
    <clipPath id="clip-path-10">
      <path id="Trazado_1000627" data-name="Trazado 1000627" d="M27.885,16.814c.036,1.112.09,2.242.143,2.8.2,2.135-1.7,4.645-1.7,4.645a1.094,1.094,0,0,0-.017,1.1c.287.52.825,1.631,3.354,2.923-1.345-1.273-1.668-3.6-.753-4.286,1.023-.735,1.848-.952,5.113.34a4.261,4.261,0,0,0,1.632.377c.018-.753.072-1.919.143-3.1l-1.758-5.13a10.375,10.375,0,0,0-1.943-.148,19.441,19.441,0,0,0-4.209.489" transform="translate(-26.168 -16.325)" fill="none"/>
    </clipPath>
    <linearGradient id="linear-gradient-2" x1="-1.318" y1="11.043" x2="-1.26" y2="11.043" xlink:href="#linear-gradient"/>
    <clipPath id="clip-path-12">
      <rect id="Rectángulo_455272" data-name="Rectángulo 455272" width="7.439" height="10.206" fill="none"/>
    </clipPath>
    <clipPath id="clip-path-13">
      <path id="Trazado_1000633" data-name="Trazado 1000633" d="M27.179,13.03c-1.481.748.643,4.612,1.6,4.665s.781-.936.781-.936-1.032-1.625-.169-2.541c0,0-.515-1.36-1.555-1.36a1.452,1.452,0,0,0-.66.172" transform="translate(-26.67 -12.858)" fill="none"/>
    </clipPath>
    <linearGradient id="linear-gradient-3" x1="-4.545" y1="31.359" x2="-4.364" y2="31.359" gradientUnits="objectBoundingBox">
      <stop offset="0" stop-color="#feb9b8"/>
      <stop offset="0.122" stop-color="#feb9b8"/>
      <stop offset="1" stop-color="#ffdede"/>
    </linearGradient>
    <clipPath id="clip-path-15">
      <path id="Trazado_1000665" data-name="Trazado 1000665" d="M45.626,51.643l.017.968.018,1.436A19.872,19.872,0,0,0,50.9,61.222c2.619,2.188,3.086,3.5,3.1,3.569l.018.018a1.312,1.312,0,0,1,.053-.664l.216-.395s-1.1-.986-2.476-2.4a38.557,38.557,0,0,1-5.04-7.3,3.911,3.911,0,0,1-.248-1.012,3.3,3.3,0,0,1,.57-1.949c-.825.3-1.47.555-1.47.555" transform="translate(-45.626 -51.088)" fill="none"/>
    </clipPath>
    <linearGradient id="linear-gradient-4" x1="-2.374" y1="8.674" x2="-2.317" y2="8.674" xlink:href="#linear-gradient"/>
    <clipPath id="clip-path-17">
      <rect id="Rectángulo_455279" data-name="Rectángulo 455279" width="41.752" height="24.106" fill="none"/>
    </clipPath>
    <clipPath id="clip-path-18">
      <rect id="Rectángulo_455280" data-name="Rectángulo 455280" width="41.752" height="24.105" fill="none"/>
    </clipPath>
  </defs>
  <g id="Grupo_1179119" data-name="Grupo 1179119" transform="translate(-565.493 -5111.752)">
    <g id="Grupo_1177089" data-name="Grupo 1177089" transform="translate(263.231 709)">
      <rect id="Rectángulo_401003" data-name="Rectángulo 401003" width="144.479" height="152.843" rx="29" transform="translate(303.762 4417.924)" fill="none" stroke="#fe8938" stroke-miterlimit="10" stroke-width="3"/>
      <g id="Grupo_1178900" data-name="Grupo 1178900" transform="translate(323.769 4402.752)">
        <g id="Grupo_1178899" data-name="Grupo 1178899" clip-path="url(#clip-path)">
          <g id="Grupo_1178864" data-name="Grupo 1178864">
            <g id="Grupo_1178863" data-name="Grupo 1178863" clip-path="url(#clip-path)">
              <g id="Grupo_1178859" data-name="Grupo 1178859" transform="translate(39.074 124.144)" style="mix-blend-mode: multiply;isolation: isolate">
                <g id="Grupo_1178858" data-name="Grupo 1178858">
                  <g id="Grupo_1178857" data-name="Grupo 1178857" clip-path="url(#clip-path-3)">
                    <path id="Trazado_1000610" data-name="Trazado 1000610" d="M137.6,174.015,92.334,147.881l-2.863,1.653,2.867-1.656-8.712-5.03L44.961,165.172l8.712,5.03,45.266,26.134,12.736,5.555,4.166-2.406-9.622-7.353-10.468-6.044,24.1-13.913,10.468,6.044,12.738,5.555,4.165-2.4Zm-62.177.336L60.954,166l24.1-13.913,14.467,8.354Z" transform="translate(-44.96 -142.847)" fill="#bfb5bf"/>
                  </g>
                </g>
              </g>
              <g id="Grupo_1178862" data-name="Grupo 1178862" transform="translate(0 103.744)" style="mix-blend-mode: multiply;isolation: isolate">
                <g id="Grupo_1178861" data-name="Grupo 1178861">
                  <g id="Grupo_1178860" data-name="Grupo 1178860" clip-path="url(#clip-path-4)">
                    <path id="Trazado_1000611" data-name="Trazado 1000611" d="M48.445,129.448a25.085,25.085,0,0,0-3.03-1.458,15.479,15.479,0,0,0-5.254-4.673c-9.147-5.281-24.023-5.254-33.227.06s-9.251,13.9-.1,19.183a24.957,24.957,0,0,0,3.03,1.458,15.49,15.49,0,0,0,5.254,4.674c9.147,5.28,24.024,5.254,33.227-.06s9.251-13.9.1-19.184" transform="translate(0 -119.373)" fill="#bfb5bf"/>
                  </g>
                </g>
              </g>
              <path id="Trazado_1000612" data-name="Trazado 1000612" d="M49.809,47.079a4.825,4.825,0,0,1-3.749,2.332h-.125a5.4,5.4,0,0,1-.969-.036c-1.47-.143-1.668-.753-1.9-1.507-.288-.9-4.933-20.359-1.112-21.506a3.276,3.276,0,0,1,2.87,1.865,82.575,82.575,0,0,1,2.458,9.309c.5,2.278.914,4.323,1.076,5.2a18.1,18.1,0,0,0,1.31,4.09c.018-.017.018-.017.018,0a2.46,2.46,0,0,0,.125.251" transform="translate(-5.296 -3.452)" fill="#febfbf"/>
            </g>
          </g>
          <g id="Grupo_1178866" data-name="Grupo 1178866" transform="translate(35.155 22.91)">
            <g id="Grupo_1178865" data-name="Grupo 1178865" clip-path="url(#clip-path-5)">
              <rect id="Rectángulo_455266" data-name="Rectángulo 455266" width="33.973" height="37.225" transform="translate(-19.446 13.529) rotate(-38.307)" fill="url(#linear-gradient)"/>
            </g>
          </g>
          <g id="Grupo_1178877" data-name="Grupo 1178877">
            <g id="Grupo_1178876" data-name="Grupo 1178876" clip-path="url(#clip-path)">
              <path id="Trazado_1000614" data-name="Trazado 1000614" d="M47.115,36.809a4.012,4.012,0,0,1-3.06.633c-1.358-.471-4.9-12.809-4.9-12.809s.3-.614,2.406-.1a5.1,5.1,0,0,1,3.391,3.578c.3,1.034,2.159,8.694,2.159,8.694" transform="translate(-5.127 -3.185)" fill="#ffdc6e"/>
              <path id="Trazado_1000615" data-name="Trazado 1000615" d="M43.991,136.341a30.02,30.02,0,0,1,3.4,1.78,55.567,55.567,0,0,1,4.325,3.888c.236.458,1.343,1.38,1.356,2.4a2.292,2.292,0,0,1-2.274,1.947,11.816,11.816,0,0,1-5.684-2.413,24.03,24.03,0,0,0-2.34-2.321c-.239-.073-.261.067-.855.167s-3-1.01-3.292-1.663-.9-3.334-.534-4.1,5.895.317,5.895.317" transform="translate(-4.973 -17.774)" fill="#554d4e"/>
              <path id="Trazado_1000616" data-name="Trazado 1000616" d="M44.644,135.264a28.488,28.488,0,0,1,2.892,3.316c.24.615-.952,1.2-2.614,1.279s-3.723-1.664-3.723-1.664-1.779-2.546-1-3.855,4.443.925,4.443.925" transform="translate(-5.238 -17.535)" fill="#febfbf"/>
              <path id="Trazado_1000617" data-name="Trazado 1000617" d="M44.272,73.684s.568-.2,1.668,9.363a104.718,104.718,0,0,1,.723,18.049c-.2,2.9-1.8,25.674-1.814,26.825s-2.522,1.8-4.049,1.695-2.894-1.485-2.935-2.263-1.767-20.1-.534-26.556c.359-1.879-4.807-14.984-4.807-14.984s-1.049-9.781-.192-11.859,11.939-.269,11.939-.269" transform="translate(-4.189 -9.552)" fill="#7282b5"/>
              <g id="Grupo_1178869" data-name="Grupo 1178869" transform="translate(28.233 74.113)" style="mix-blend-mode: multiply;isolation: isolate">
                <g id="Grupo_1178868" data-name="Grupo 1178868">
                  <g id="Grupo_1178867" data-name="Grupo 1178867" clip-path="url(#clip-path-7)">
                    <path id="Trazado_1000618" data-name="Trazado 1000618" d="M40.928,131.215h-.054c-1.543-.09-2.905-1.471-2.942-2.26-.036-.771-1.776-20.089-.538-26.547.359-1.884-4.8-14.993-4.8-14.993s-.037-.412-.108-1.076L37.5,85.278s-1,1.794.071,5.309c1.094,3.5,1.185,10.709,1.328,11.749s-1.2,1.435-.825,9.2c.3,6.35.161,15.983,2.851,19.677" transform="translate(-32.486 -85.278)" fill="#e8d0c8"/>
                  </g>
                </g>
              </g>
              <path id="Trazado_1000619" data-name="Trazado 1000619" d="M17.365,128.748s1.914,2.756,2.15,3.214,2.936,4.915,3.037,5.51a1.658,1.658,0,0,1-.464,1.536,4.249,4.249,0,0,1-3.208.715,9.84,9.84,0,0,1-3.845-2.249,16.061,16.061,0,0,1-2.028-3.687,13.787,13.787,0,0,1-1.453-1.9,7.129,7.129,0,0,1-1.165-2.34c-.083-.892-.18-1.464.654-2.148s6.321,1.355,6.321,1.355" transform="translate(-1.353 -16.661)" fill="#554d4e"/>
              <path id="Trazado_1000620" data-name="Trazado 1000620" d="M17.716,128.006A31.439,31.439,0,0,1,18.9,131.6c.027.561-1.33,1.112-2.617.946s-1.8-1.357-2.186-1.719-2.044-3.108-1.646-3.967,5.266,1.148,5.266,1.148" transform="translate(-1.622 -16.582)" fill="#febfbf"/>
              <path id="Trazado_1000621" data-name="Trazado 1000621" d="M34.951,75.332s.342,4.169.434,5.784.16,3.859.16,3.859l-3,3.859s-1.851,1.689-4.683,15.708c-2.291,4.484-9.57,17.513-9.57,17.513s-2.082,2.154-4.53.977a5.062,5.062,0,0,1-2.9-3.071c.043-.94,4.733-12.608,5.356-14.283A60.815,60.815,0,0,1,19.228,99.9s.012-6.228-.175-8.307c-.342-3.807-3.652-13.264-2.52-15.145s18.418-1.114,18.418-1.114" transform="translate(-1.421 -9.843)" fill="#7282b5"/>
              <path id="Trazado_1000622" data-name="Trazado 1000622" d="M12.107,121.589l-.431-.126c3.561-12.2,6.263-15.729,7.877-17.838a7.631,7.631,0,0,0,1.16-1.815c2.037-5.3-.574-14.91-1.118-16.782a16.639,16.639,0,0,1-.676-7.4l.437.09a16.635,16.635,0,0,0,.67,7.182c.551,1.9,3.195,11.632,1.1,17.067a7.776,7.776,0,0,1-1.221,1.928c-1.6,2.083-4.265,5.571-7.8,17.691" transform="translate(-1.529 -10.164)" fill="#a0abcd"/>
              <g id="Grupo_1178872" data-name="Grupo 1178872" transform="translate(9.434 65.954)" style="mix-blend-mode: multiply;isolation: isolate">
                <g id="Grupo_1178871" data-name="Grupo 1178871">
                  <g id="Grupo_1178870" data-name="Grupo 1178870" clip-path="url(#clip-path-8)">
                    <path id="Trazado_1000623" data-name="Trazado 1000623" d="M20.219,100.932c-2.3,2.421-4.431,8.251-6.063,12.287-1.345,3.336-2.458,5.811-2.565,8.215a2.927,2.927,0,0,1-.735-1.381c.037-.951,4.736-12.61,5.363-14.3a58.76,58.76,0,0,1,3.014-5.776s.017-6.224-.18-8.3c-.341-3.8-3.641-13.256-2.511-15.139.162-.269.7-.484,1.524-.646,0,.054.018.108.018.162,0,0-.826.395.43,5.83s2.87,14.349,1.7,19.049" transform="translate(-10.855 -75.89)" fill="#e8d0c8"/>
                  </g>
                </g>
              </g>
              <path id="Trazado_1000624" data-name="Trazado 1000624" d="M16,69.473a12.38,12.38,0,0,0,7.145,3.515c8.973.9,18.475-3.376,19.57-4.769,0,0-1.068-9.226-1.068-13.512s-.279-10.942.014-15.278.435-9.394-2.471-13.788c-1.739-2.63-7.446-.235-9.169-.427s-4.075-1.606-6.518.376-7.181,3.816-8.191,6.619c-1.178,3.272-.932,7.564,1.286,17.19A41.428,41.428,0,0,1,16,69.473" transform="translate(-1.913 -3.195)" fill="#fdd249"/>
              <g id="Grupo_1178875" data-name="Grupo 1178875" transform="translate(13.919 34.094)" style="mix-blend-mode: multiply;isolation: isolate">
                <g id="Grupo_1178874" data-name="Grupo 1178874">
                  <g id="Grupo_1178873" data-name="Grupo 1178873" clip-path="url(#clip-path-9)">
                    <path id="Trazado_1000625" data-name="Trazado 1000625" d="M39.531,68.538s2.493,2.326,1.4,1.933L38.4,69.914c-1.094-.431-2.775.711-11.229-2.162a57.594,57.594,0,0,1-7.26-3.583s-1.51,6.1-1.869,8.769a12.563,12.563,0,0,1-1.866-1.525,39.761,39.761,0,0,0,.61-20.071c-.287-1.2-.556-2.314-.771-3.336,2.044-3.8,4.122-8.738,6.7-8.774,0,0,2.051,9.035,1.154,14.344S21.9,59.036,21.9,59.036l9.56,5.5Z" transform="translate(-16.016 -39.231)" fill="#dedede"/>
                  </g>
                </g>
              </g>
              <path id="Trazado_1000626" data-name="Trazado 1000626" d="M35.634,24.378c-.018,1.739.43,2.475.018,3.121-.359.52-3.427,1.22-4.736.681-.448-.179-.861-.376-1.22-.556a.061.061,0,0,0-.036-.017c-2.529-1.291-3.067-2.4-3.354-2.924a1.092,1.092,0,0,1,.017-1.1s1.9-2.511,1.7-4.645c-.054-.556-.108-1.686-.144-2.8-.054-1.417-.107-2.78-.107-2.78S28.943,11.086,30,11.211c1.059.143,6.063,5.471,6.063,5.471s-.143,2.153-.269,4.251c-.072,1.184-.126,2.35-.143,3.1a2.26,2.26,0,0,0-.018.342" transform="translate(-3.426 -1.467)" fill="#ffadb7"/>
            </g>
          </g>
          <g id="Grupo_1178879" data-name="Grupo 1178879" transform="translate(22.742 14.188)">
            <g id="Grupo_1178878" data-name="Grupo 1178878" clip-path="url(#clip-path-10)">
              <rect id="Rectángulo_455271" data-name="Rectángulo 455271" width="15.107" height="15.46" transform="matrix(0.785, -0.62, 0.62, 0.785, -5.997, 4.592)" fill="url(#linear-gradient-2)"/>
            </g>
          </g>
          <g id="Grupo_1178884" data-name="Grupo 1178884">
            <g id="Grupo_1178883" data-name="Grupo 1178883" clip-path="url(#clip-path)">
              <path id="Trazado_1000628" data-name="Trazado 1000628" d="M29.285,12.073s.243,5.461.779,6.616,4.388,4.126,8.1,3.611c1-.53,2.532-3.281,2.706-5.71a32.221,32.221,0,0,0,.033-3.538,6.916,6.916,0,0,0,.685-2.38c-.115-.683-.311-4.522-1.636-6.2s-4.987-2.712-8.272-1.387-2.4,8.986-2.4,8.986" transform="translate(-3.82 -0.325)" fill="#febfbf"/>
              <path id="Trazado_1000629" data-name="Trazado 1000629" d="M29.814,13.7s.315-2.159-1.041-2.541-1.257,2.008-1.257,2.008l.324,3.783-.047.546s-1.394-2.7-1.855-3.548a6.13,6.13,0,0,1-.86-2.142,32.667,32.667,0,0,1-.719-6.4c.191-1.414,2.616-3.544,4.47-3.7C29.677.57,31.407.189,33.081.178a6.483,6.483,0,0,1,4.934,1.5,4.858,4.858,0,0,1,2.121,3.167,14.789,14.789,0,0,1,.307,2.074l-.249-.929s-.8.526-3.277.311a8.179,8.179,0,0,1-3.849-1.206A10.078,10.078,0,0,1,33.43,7.5c-.094.649-.479,2.662-.479,2.662s-1.275.759-1.7,1.057a2.11,2.11,0,0,0-.625.989l-.162,1.725Z" transform="translate(-3.185 -0.023)" fill="#754554"/>
              <path id="Trazado_1000630" data-name="Trazado 1000630" d="M40.818,6.641l-.359.448s-6.565,1.937-7.228,2.1c-.305.071-.807.3-1.543.538a15.623,15.623,0,0,1-3.838.753l-2.978.251a13.03,13.03,0,0,1-.5-5.471c.359-2.081,2.763-3.893,5.561-4.736a.017.017,0,0,0,.017-.018A11.659,11.659,0,0,1,32.172.057c3.641-.376,6.1,1.166,7.265,2.924a9.637,9.637,0,0,1,1.381,3.659" transform="translate(-3.175 0)" fill="#fecb4c"/>
              <g id="Grupo_1178882" data-name="Grupo 1178882" transform="translate(21.074 0.524)" style="mix-blend-mode: multiply;isolation: isolate">
                <g id="Grupo_1178881" data-name="Grupo 1178881">
                  <g id="Grupo_1178880" data-name="Grupo 1178880" clip-path="url(#clip-path-12)">
                    <path id="Trazado_1000631" data-name="Trazado 1000631" d="M31.687,9.8a15.632,15.632,0,0,1-3.839.753l-2.977.251a13.03,13.03,0,0,1-.5-5.471c.359-2.081,2.762-3.893,5.56-4.736-.735.43-2.888.968-2.3,5.148A4.372,4.372,0,0,0,31.687,9.8" transform="translate(-24.249 -0.603)" fill="#fcf5e8"/>
                  </g>
                </g>
              </g>
              <path id="Trazado_1000632" data-name="Trazado 1000632" d="M32.812,10.653s5.231,4.5,7.03,2.686c1.267-1.278,4.415-2.5,5.8-2.088l1.383.411a.34.34,0,0,0,.256-.4c-.037-.336-5.344-3.7-5.344-3.7s-2.1-2.238-9.123,3.085" transform="translate(-4.296 -0.93)" fill="#725e6d"/>
            </g>
          </g>
          <g id="Grupo_1178886" data-name="Grupo 1178886" transform="translate(23.178 11.174)">
            <g id="Grupo_1178885" data-name="Grupo 1178885" clip-path="url(#clip-path-13)">
              <rect id="Rectángulo_455274" data-name="Rectángulo 455274" width="4.803" height="5.496" transform="translate(-1.775 0.136) rotate(-9.59)" fill="url(#linear-gradient-3)"/>
            </g>
          </g>
          <g id="Grupo_1178888" data-name="Grupo 1178888">
            <g id="Grupo_1178887" data-name="Grupo 1178887" clip-path="url(#clip-path)">
              <path id="Trazado_1000634" data-name="Trazado 1000634" d="M17.43,59.885a22.422,22.422,0,0,1-1.641-6.96c-.472-4.575-1.81-18.863.236-20.817s4.827.023,5.771,2.028,1.47,12.195,1.277,15.652.033,5.859-.851,7.577a4.166,4.166,0,0,1-4.793,2.519" transform="translate(-1.954 -4.099)" fill="#febfbf"/>
              <path id="Trazado_1000635" data-name="Trazado 1000635" d="M17.527,31.088c-1.012,0-3.036,1.129-3.036,4.9,0,4.386.459,8.481.514,9.938a10.989,10.989,0,0,0,4.873.6c1.794-.092,3.443-.544,3.443-.8s-.33-7.584-1.087-10.5a5.4,5.4,0,0,0-4.707-4.137" transform="translate(-1.897 -4.07)" fill="#ffdc6e"/>
              <path id="Trazado_1000636" data-name="Trazado 1000636" d="M83.305,137.967l3.276,1.892v5.453l-3.276-1.892Z" transform="translate(-10.907 -18.064)" fill="#a25900"/>
              <path id="Trazado_1000637" data-name="Trazado 1000637" d="M73.725,139.172a7.936,7.936,0,0,0-3.6-6.214,2.59,2.59,0,0,0-2.451-.3l-.009-.01-.064.036-.043.025-1.6.926.6,1c-.011.126-.035.24-.035.375a7.938,7.938,0,0,0,3.6,6.214,4.107,4.107,0,0,0,.586.271l.5.829,1.446-.835.025-.014.069-.04v-.017a2.54,2.54,0,0,0,.974-2.247" transform="translate(-8.635 -17.345)" fill="#3b4549"/>
              <path id="Trazado_1000638" data-name="Trazado 1000638" d="M64.833,136.034a7.938,7.938,0,0,0,3.6,6.214c1.989,1.149,3.6.229,3.6-2.054a7.941,7.941,0,0,0-3.6-6.215c-1.99-1.148-3.6-.229-3.6,2.054" transform="translate(-8.489 -17.477)" fill="#5c6467"/>
              <path id="Trazado_1000639" data-name="Trazado 1000639" d="M71.241,140.605a7.939,7.939,0,0,0-3.6-6.215,2.592,2.592,0,0,0-2.451-.3l-.009-.01-.064.036-.043.025-1.6.926.6,1c-.011.126-.035.24-.035.375a7.938,7.938,0,0,0,3.6,6.214,4.106,4.106,0,0,0,.586.271l.5.829,1.446-.835.025-.014.069-.04v-.017a2.54,2.54,0,0,0,.974-2.247" transform="translate(-8.31 -17.532)" fill="#3b4549"/>
              <path id="Trazado_1000640" data-name="Trazado 1000640" d="M62.349,137.468a7.936,7.936,0,0,0,3.6,6.214c1.989,1.149,3.6.229,3.6-2.054a7.941,7.941,0,0,0-3.6-6.215c-1.99-1.148-3.6-.229-3.6,2.054" transform="translate(-8.163 -17.665)" fill="#5c6467"/>
              <path id="Trazado_1000641" data-name="Trazado 1000641" d="M70.7,145.411v3.57L68.8,150.073,63.59,136.931l3.626.774Z" transform="translate(-8.326 -17.928)" fill="#ce7400"/>
              <path id="Trazado_1000642" data-name="Trazado 1000642" d="M68.518,146.668v3.57l-7.1-5.2v-6.847l3.626.774Z" transform="translate(-8.041 -18.093)" fill="#eda600"/>
              <path id="Trazado_1000643" data-name="Trazado 1000643" d="M60.529,140.7l8.983-5.187V134.5l-12.86,2.948v1.009Z" transform="translate(-7.417 -17.611)" fill="#eda600"/>
              <path id="Trazado_1000644" data-name="Trazado 1000644" d="M60.529,139.353l8.983-5.187-3.878-2.239-8.983,5.187Z" transform="translate(-7.417 -17.273)" fill="#fecb4c"/>
              <path id="Trazado_1000645" data-name="Trazado 1000645" d="M61.972,145.974a7.942,7.942,0,0,0-3.6-6.215,2.594,2.594,0,0,0-2.452-.3l-.009-.01-.064.037-.043.025-1.6.926.6,1c-.011.125-.035.239-.035.375a7.936,7.936,0,0,0,3.6,6.214,4.054,4.054,0,0,0,.585.271l.5.829,1.446-.835.025-.014.069-.04v-.017a2.54,2.54,0,0,0,.974-2.247" transform="translate(-7.096 -18.235)" fill="#3b4549"/>
              <path id="Trazado_1000646" data-name="Trazado 1000646" d="M53.08,142.836a7.936,7.936,0,0,0,3.6,6.214c1.989,1.149,3.6.229,3.6-2.054a7.941,7.941,0,0,0-3.6-6.215c-1.99-1.148-3.6-.229-3.6,2.054" transform="translate(-6.95 -18.368)" fill="#5c6467"/>
              <path id="Trazado_1000647" data-name="Trazado 1000647" d="M59.488,147.407a7.939,7.939,0,0,0-3.6-6.215,2.592,2.592,0,0,0-2.451-.3l-.009-.01-.064.037-.043.025-1.6.926.6,1c-.011.126-.035.24-.035.375a7.938,7.938,0,0,0,3.6,6.214,4.1,4.1,0,0,0,.586.271l.5.829,1.446-.835.025-.014.069-.04v-.017a2.54,2.54,0,0,0,.974-2.247" transform="translate(-6.771 -18.423)" fill="#3b4549"/>
              <path id="Trazado_1000648" data-name="Trazado 1000648" d="M50.6,144.269a7.938,7.938,0,0,0,3.6,6.214c1.99,1.149,3.6.229,3.6-2.054a7.936,7.936,0,0,0-3.6-6.214c-1.989-1.149-3.6-.229-3.6,2.054" transform="translate(-6.625 -18.556)" fill="#5c6467"/>
              <path id="Trazado_1000649" data-name="Trazado 1000649" d="M70.1,134.5v1.009L61.114,140.7v-1.009Z" transform="translate(-8.002 -17.611)" fill="#ce7400"/>
              <rect id="Rectángulo_455275" data-name="Rectángulo 455275" width="1.864" height="40.127" transform="matrix(0.985, -0.173, 0.173, 0.985, 49.633, 80.778)" fill="#ffc536"/>
              <path id="Trazado_1000650" data-name="Trazado 1000650" d="M52.165,92.515a3.91,3.91,0,0,1-2.894-1.166l-4.09-4.271a4.07,4.07,0,0,1-1.044-2.135L43.4,80.683c-.483-2.778,1.445-6.288,4.393-7.989L57.132,67.3a5.339,5.339,0,0,1,4.907-.54,3.772,3.772,0,0,1,2.111,2.883l.74,4.258a5.936,5.936,0,0,1-.136,2.508L62.76,84.192A9.444,9.444,0,0,1,58.432,89.8l-3.085,1.781a6.432,6.432,0,0,1-3.183.93m8.1-23.765a4.025,4.025,0,0,0-1.944.6l-9.343,5.394c-2.071,1.2-3.556,3.729-3.244,5.531l.74,4.257a1.708,1.708,0,0,0,.421.9l4.092,4.271c.611.639,1.888.568,3.181-.177l3.084-1.781A7.105,7.105,0,0,0,60.466,83.6l1.994-7.785a3.667,3.667,0,0,0,.1-1.51l-.74-4.259a1.437,1.437,0,0,0-.781-1.143,1.831,1.831,0,0,0-.774-.156" transform="translate(-5.672 -8.691)" fill="#554d4e"/>
              <path id="Trazado_1000651" data-name="Trazado 1000651" d="M65.107,122.234a9.28,9.28,0,0,1,3.152-3.274,3.29,3.29,0,0,1,3.153-.367l3.276,1.892-.276.16L88.091,130v5.021l-39.662,22.9V152.9Z" transform="translate(-6.341 -15.494)" fill="#fecb4c"/>
              <path id="Trazado_1000652" data-name="Trazado 1000652" d="M52.2,155.074v5.453l9.241-5.334.093-3.913,20.972-12.117v3.863l9.352-5.4v-5.453l-16.68-11.408a3.293,3.293,0,0,0-3.149.367,9.3,9.3,0,0,0-3.155,3.273Z" transform="translate(-6.835 -15.779)" fill="#ed9600"/>
              <path id="Trazado_1000653" data-name="Trazado 1000653" d="M135.678,171.652l7.47-4.312L89.241,142.668v2.174Z" transform="translate(-11.684 -18.68)" fill="#eda600"/>
              <path id="Trazado_1000654" data-name="Trazado 1000654" d="M142.674,175.369l7.47-4.312,9.87,7.544-4.273,2.467Z" transform="translate(-18.68 -22.396)" fill="#eda600"/>
              <path id="Trazado_1000655" data-name="Trazado 1000655" d="M98.637,193.038l7.47-4.312L52.2,164.054v2.174Z" transform="translate(-6.834 -21.48)" fill="#eda600"/>
              <path id="Trazado_1000656" data-name="Trazado 1000656" d="M105.632,196.755l7.47-4.312,9.87,7.544-4.273,2.467Z" transform="translate(-13.83 -25.197)" fill="#eda600"/>
              <path id="Trazado_1000657" data-name="Trazado 1000657" d="M135.678,168.828l7.47-4.312L96.711,137.7l-7.47,4.313Z" transform="translate(-11.684 -18.03)" fill="#fecb4c"/>
              <path id="Trazado_1000658" data-name="Trazado 1000658" d="M142.674,172.867l7.47-4.312,9.87,7.544-4.273,2.467Z" transform="translate(-18.68 -22.069)" fill="#fecb4c"/>
              <path id="Trazado_1000659" data-name="Trazado 1000659" d="M98.637,190.214l7.47-4.312L59.669,159.091,52.2,163.4Z" transform="translate(-6.834 -20.83)" fill="#fecb4c"/>
              <path id="Trazado_1000660" data-name="Trazado 1000660" d="M105.632,194.253l7.47-4.312,9.87,7.544-4.273,2.467Z" transform="translate(-13.83 -24.869)" fill="#fecb4c"/>
              <path id="Trazado_1000661" data-name="Trazado 1000661" d="M48.43,158.1,51.706,160v5.453l-3.276-1.892Z" transform="translate(-6.341 -20.701)" fill="#eda600"/>
              <path id="Trazado_1000662" data-name="Trazado 1000662" d="M161.982,177.235v2.174l-4.273,2.467V179.7Z" transform="translate(-20.649 -23.205)" fill="#ed9600"/>
              <path id="Trazado_1000663" data-name="Trazado 1000663" d="M124.941,198.621V200.8l-4.273,2.466v-2.174Z" transform="translate(-15.799 -26.006)" fill="#ed9600"/>
              <rect id="Rectángulo_455276" data-name="Rectángulo 455276" width="2.368" height="18.865" transform="matrix(0.984, -0.18, 0.18, 0.984, 46.053, 62.64)" fill="#554d4e"/>
              <path id="Trazado_1000664" data-name="Trazado 1000664" d="M62.163,65.551c-.018.072-.5,2.529-.538,2.816-.036.269-.538.5-.538.5a1.381,1.381,0,0,1-.647.521,2.812,2.812,0,0,1-.95.108s-3.929-.61-4.359-1.364a22.1,22.1,0,0,1-1.112-3.461v-.018L54,64.635c-.017-.071-.484-1.381-3.1-3.569a19.87,19.87,0,0,1-5.238-7.175l-.017-1.435-.018-.969s.646-.25,1.471-.555l.017-.018a14.91,14.91,0,0,1,3.229-1c.017-.017.017-.017.017,0a15.791,15.791,0,0,1,2.529,4c1.525,3.1,4.395,8.807,4.646,8.951.233.161,3.839.9,4.233,1.345a2.172,2.172,0,0,1,.395,1.345" transform="translate(-5.974 -6.533)" fill="#febfbf"/>
            </g>
          </g>
          <g id="Grupo_1178890" data-name="Grupo 1178890" transform="translate(39.652 44.399)">
            <g id="Grupo_1178889" data-name="Grupo 1178889" clip-path="url(#clip-path-15)">
              <rect id="Rectángulo_455278" data-name="Rectángulo 455278" width="15.304" height="16.138" transform="matrix(0.785, -0.62, 0.62, 0.785, -6.674, 5.273)" fill="url(#linear-gradient-4)"/>
            </g>
          </g>
          <g id="Grupo_1178898" data-name="Grupo 1178898">
            <g id="Grupo_1178897" data-name="Grupo 1178897" clip-path="url(#clip-path)">
              <path id="Trazado_1000666" data-name="Trazado 1000666" d="M58.122,69.825a4.591,4.591,0,0,0,.633-1.16c.265-.7.453-1.159.453-1.159l.325,1.416.024,1.271.435.8.6.434-1.267.024s-1.412-.862-1.2-1.63" transform="translate(-7.607 -8.838)" fill="#fa9698"/>
              <path id="Trazado_1000667" data-name="Trazado 1000667" d="M55.757,66.39s.959-.123,1.419,1.158a11.378,11.378,0,0,0,1.206,2.725,3.9,3.9,0,0,0,1.112.7,5.659,5.659,0,0,1,1.384.715,1.222,1.222,0,0,1,.205.887c-.063.367-.567.289-.614.264s-.791-.24-.791-.24a2.133,2.133,0,0,1-.9-.109,14.473,14.473,0,0,1-2.466-2.058,9.8,9.8,0,0,1-.942-2.9c-.074-.92-.014-1.047.381-1.137" transform="translate(-7.247 -8.692)" fill="#fec7c6"/>
              <path id="Trazado_1000668" data-name="Trazado 1000668" d="M19.974,58.733a4.5,4.5,0,0,1,3.417.453c1.347,1.011,11.792,9.759,14.7,10.758a11.093,11.093,0,0,0,2.694.979c.872.114,3.846-.026,4.214.176a10.342,10.342,0,0,1,1.443,2.81,4.581,4.581,0,0,1,0,1.625c-.079.183-1.089.241-1.089.241a2.421,2.421,0,0,1-.347.72c-.236.312-1.254.236-1.254.236a.926.926,0,0,1-.627.23,1.379,1.379,0,0,1-.708-.123s-.315.48-1.213.158-.972-.839-.972-.839l-.107-1.083a8.591,8.591,0,0,1-3.149-.581c-1.017-.567-1.514-1.449-2.256-1.913S18.965,67.159,17.77,63.456a3.507,3.507,0,0,1,2.2-4.723" transform="translate(-2.293 -7.67)" fill="#febfbf"/>
              <path id="Trazado_1000669" data-name="Trazado 1000669" d="M95.387,180.638l36.9-21.306V137.687l-36.9,21.306Z" transform="translate(-12.489 -18.027)" fill="#c99a6b"/>
              <path id="Trazado_1000670" data-name="Trazado 1000670" d="M90.84,181.222,60.659,163.8V142.153L90.84,159.578Z" transform="translate(-7.942 -18.612)" fill="#ae835b"/>
              <path id="Trazado_1000671" data-name="Trazado 1000671" d="M90.84,156.368,60.659,138.944l36.9-21.306,30.181,17.425Z" transform="translate(-7.942 -15.402)" fill="#87623f"/>
              <path id="Trazado_1000672" data-name="Trazado 1000672" d="M79.74,166.851l-4.849-2.8V150.37l4.849,2.8Z" transform="translate(-9.805 -19.688)" fill="#9c754e"/>
              <g id="Grupo_1178893" data-name="Grupo 1178893" transform="translate(65.085 109.376)" style="mix-blend-mode: screen;isolation: isolate">
                <g id="Grupo_1178892" data-name="Grupo 1178892">
                  <g id="Grupo_1178891" data-name="Grupo 1178891" clip-path="url(#clip-path-17)">
                    <path id="Trazado_1000673" data-name="Trazado 1000673" d="M79.74,149.96l36.9-21.306-4.849-2.8-36.9,21.306Z" transform="translate(-74.89 -125.854)" fill="#54493e"/>
                  </g>
                </g>
              </g>
              <path id="Trazado_1000674" data-name="Trazado 1000674" d="M60.659,142.154,90.84,159.578l-16.285-8.712Z" transform="translate(-7.942 -18.612)" fill="#87623f"/>
              <path id="Trazado_1000675" data-name="Trazado 1000675" d="M77.839,148.862l36.9-21.306-.334-.193-36.9,21.306Z" transform="translate(-10.148 -16.676)" fill="#d1a986"/>
              <path id="Trazado_1000676" data-name="Trazado 1000676" d="M92.142,170.424l-6.371-3.677v-7.311l6.371,3.677ZM86.192,166.5l5.53,3.193v-6.344l-5.53-3.193Z" transform="translate(-11.23 -20.875)" fill="#87623f"/>
              <path id="Trazado_1000677" data-name="Trazado 1000677" d="M90.033,168.707l-1.4-.811v-3.682l1.4.812Z" transform="translate(-11.604 -21.501)" fill="#87623f"/>
              <path id="Trazado_1000678" data-name="Trazado 1000678" d="M91.206,166.312l-4.167-2.406,2.083-1.311Z" transform="translate(-11.396 -21.289)" fill="#87623f"/>
              <path id="Trazado_1000679" data-name="Trazado 1000679" d="M95.387,154.693l36.9-21.306V111.743l-36.9,21.306Z" transform="translate(-12.489 -14.631)" fill="#c99a6b"/>
              <path id="Trazado_1000680" data-name="Trazado 1000680" d="M90.84,155.278,60.659,137.853V116.209L90.84,133.634Z" transform="translate(-7.942 -15.215)" fill="#ae835b"/>
              <path id="Trazado_1000681" data-name="Trazado 1000681" d="M90.84,130.424,60.659,113l36.9-21.306,30.181,17.425Z" transform="translate(-7.942 -12.005)" fill="#e8b687"/>
              <path id="Trazado_1000682" data-name="Trazado 1000682" d="M79.74,140.907l-4.849-2.8V124.426l4.849,2.8Z" transform="translate(-9.805 -16.291)" fill="#9c754e"/>
              <g id="Grupo_1178896" data-name="Grupo 1178896" transform="translate(65.085 86.829)" style="mix-blend-mode: screen;isolation: isolate">
                <g id="Grupo_1178895" data-name="Grupo 1178895">
                  <g id="Grupo_1178894" data-name="Grupo 1178894" clip-path="url(#clip-path-18)">
                    <path id="Trazado_1000683" data-name="Trazado 1000683" d="M79.74,124.015l36.9-21.306-4.849-2.8-36.9,21.306Z" transform="translate(-74.89 -99.91)" fill="#54493e"/>
                  </g>
                </g>
              </g>
              <path id="Trazado_1000684" data-name="Trazado 1000684" d="M60.659,116.209,90.84,133.634l-16.285-8.712Z" transform="translate(-7.942 -15.215)" fill="#87623f"/>
              <path id="Trazado_1000685" data-name="Trazado 1000685" d="M77.839,122.918l36.9-21.306-.334-.193-36.9,21.306Z" transform="translate(-10.148 -13.279)" fill="#d1a986"/>
              <path id="Trazado_1000686" data-name="Trazado 1000686" d="M92.142,144.48,85.771,140.8v-7.312l6.371,3.679Zm-5.951-3.92,5.53,3.193v-6.343l-5.53-3.193Z" transform="translate(-11.23 -17.478)" fill="#87623f"/>
              <path id="Trazado_1000687" data-name="Trazado 1000687" d="M90.033,142.763l-1.4-.811V138.27l1.4.812Z" transform="translate(-11.604 -18.104)" fill="#87623f"/>
              <path id="Trazado_1000688" data-name="Trazado 1000688" d="M91.206,140.368l-4.167-2.406,2.083-1.311Z" transform="translate(-11.396 -17.892)" fill="#87623f"/>
            </g>
          </g>
        </g>
      </g>
    </g>
  </g>
</svg>
