<svg xmlns="http://www.w3.org/2000/svg" width="84.408" height="85" viewBox="0 0 84.408 85">
  <g id="Grupo_1179115" data-name="Grupo 1179115" transform="translate(-180 -3484)">
    <g id="Grupo_1178212" data-name="Grupo 1178212">
      <g id="Rectángulo_455061" data-name="Rectángulo 455061" transform="translate(180 3484)" fill="none" stroke="#1e3a8a" stroke-width="2">
        <rect width="74" height="78" rx="20" stroke="none"/>
        <rect x="1" y="1" width="72" height="76" rx="19" fill="none"/>
      </g>
      <g id="_x37_8" transform="translate(186.998 3490.87)">
        <g id="Grupo_1178182" data-name="Grupo 1178182" transform="translate(2.469 2.13)">
          <g id="Grupo_1178181" data-name="Grupo 1178181">
            <path id="Trazado_998024" data-name="Trazado 998024" d="M58.116,12.8V69.716a5.55,5.55,0,0,1-5.55,5.55H8.022a5.55,5.55,0,0,1-5.55-5.55V12.8a5.55,5.55,0,0,1,5.55-5.55H52.566A5.55,5.55,0,0,1,58.116,12.8Z" transform="translate(-2.468 0.734)" fill="#c7754f"/>
            <path id="Trazado_998025" data-name="Trazado 998025" d="M14.164,75.266H8.021a5.553,5.553,0,0,1-5.551-5.551V12.8A5.563,5.563,0,0,1,8.021,7.249h6.144A5.553,5.553,0,0,0,8.613,12.8V69.714A5.543,5.543,0,0,0,14.164,75.266Z" transform="translate(-2.469 0.733)" fill="#ab604b"/>
            <path id="Trazado_998026" data-name="Trazado 998026" d="M48.709,68.526H8.117a2.281,2.281,0,0,1-2.281-2.281V12.713a2.281,2.281,0,0,1,2.281-2.281H48.709a2.281,2.281,0,0,1,2.281,2.281V66.245A2.281,2.281,0,0,1,48.709,68.526Z" transform="translate(-0.587 2.513)" fill="#deddff"/>
            <path id="Trazado_998027" data-name="Trazado 998027" d="M36.782,17.63H14.452a2.475,2.475,0,0,1-2.308-3.4l1.575-3.945A2.485,2.485,0,0,1,16.027,8.71h5.036V6.683a4.545,4.545,0,1,1,9.091,0V8.71h5.036A2.469,2.469,0,0,1,37.5,10.285l1.575,3.945A2.473,2.473,0,0,1,36.782,17.63Z" transform="translate(2.841 -2.13)" fill="#5b5e8b"/>
            <g id="Grupo_1178180" data-name="Grupo 1178180" transform="translate(14.804 2.241)">
              <path id="Trazado_998028" data-name="Trazado 998028" d="M15.653,11.869a2.475,2.475,0,0,0,2.308,3.4H14.452a2.475,2.475,0,0,1-2.308-3.4l1.575-3.945a2.486,2.486,0,0,1,2.308-1.575h3.508a2.485,2.485,0,0,0-2.308,1.575Z" transform="translate(-11.963 -2.012)" fill="#312e4b"/>
              <path id="Trazado_998029" data-name="Trazado 998029" d="M23.1,5.33a1.754,1.754,0,1,1-1.746-1.762A1.743,1.743,0,0,1,23.1,5.33Z" transform="translate(-7.698 -3.568)" fill="#312e4b"/>
            </g>
          </g>
        </g>
        <g id="Grupo_1178183" data-name="Grupo 1178183" transform="translate(15.84 21.074)">
          <path id="Trazado_998030" data-name="Trazado 998030" d="M39.954,16.213a1.937,1.937,0,0,1-1.934,1.949H12.994a1.941,1.941,0,1,1,0-3.883H38.02a1.923,1.923,0,0,1,1.934,1.934Z" transform="translate(-11.045 -14.279)" fill="#e83d62"/>
          <path id="Trazado_998031" data-name="Trazado 998031" d="M17.095,18.162h-4.1a1.941,1.941,0,1,1,0-3.883h4.1a1.941,1.941,0,1,0,0,3.883Z" transform="translate(-11.044 -14.279)" fill="#ce2955"/>
        </g>
        <g id="Grupo_1178198" data-name="Grupo 1178198" transform="translate(11.345 29.018)">
          <g id="Grupo_1178184" data-name="Grupo 1178184">
            <path id="Trazado_998032" data-name="Trazado 998032" d="M14.98,21.245H9.1a.936.936,0,0,1,0-1.871H14.98a.936.936,0,0,1,0,1.871Z" transform="translate(-8.161 -19.374)" fill="#c6c6f7"/>
          </g>
          <g id="Grupo_1178185" data-name="Grupo 1178185" transform="translate(0 6.124)">
            <path id="Trazado_998033" data-name="Trazado 998033" d="M14.98,25.173H9.1a.936.936,0,0,1,0-1.871H14.98a.936.936,0,1,1,0,1.871Z" transform="translate(-8.161 -23.301)" fill="#c6c6f7"/>
          </g>
          <g id="Grupo_1178186" data-name="Grupo 1178186" transform="translate(0 12.247)">
            <path id="Trazado_998034" data-name="Trazado 998034" d="M14.98,29.1H9.1a.936.936,0,0,1,0-1.871H14.98a.936.936,0,1,1,0,1.871Z" transform="translate(-8.161 -27.228)" fill="#c6c6f7"/>
          </g>
          <g id="Grupo_1178187" data-name="Grupo 1178187" transform="translate(0 18.371)">
            <path id="Trazado_998035" data-name="Trazado 998035" d="M14.98,33.027H9.1a.936.936,0,1,1,0-1.871H14.98a.936.936,0,1,1,0,1.871Z" transform="translate(-8.161 -31.155)" fill="#c6c6f7"/>
          </g>
          <g id="Grupo_1178188" data-name="Grupo 1178188" transform="translate(0 24.494)">
            <path id="Trazado_998036" data-name="Trazado 998036" d="M14.98,36.954H9.1a.936.936,0,0,1,0-1.871H14.98a.936.936,0,1,1,0,1.871Z" transform="translate(-8.161 -35.082)" fill="#c6c6f7"/>
          </g>
          <g id="Grupo_1178189" data-name="Grupo 1178189" transform="translate(0 30.617)">
            <path id="Trazado_998037" data-name="Trazado 998037" d="M14.98,40.881H9.1a.936.936,0,0,1,0-1.871H14.98a.936.936,0,1,1,0,1.871Z" transform="translate(-8.161 -39.009)" fill="#c6c6f7"/>
          </g>
          <g id="Grupo_1178190" data-name="Grupo 1178190" transform="translate(0 36.741)">
            <path id="Trazado_998038" data-name="Trazado 998038" d="M14.98,44.808H9.1a.936.936,0,1,1,0-1.871H14.98a.936.936,0,1,1,0,1.871Z" transform="translate(-8.161 -42.936)" fill="#c6c6f7"/>
          </g>
          <g id="Grupo_1178191" data-name="Grupo 1178191" transform="translate(12.12)">
            <path id="Trazado_998039" data-name="Trazado 998039" d="M40.78,21.245H16.87a.936.936,0,0,1,0-1.871H40.78a.936.936,0,0,1,0,1.871Z" transform="translate(-15.934 -19.374)" fill="#c6c6f7"/>
          </g>
          <g id="Grupo_1178192" data-name="Grupo 1178192" transform="translate(12.12 6.124)">
            <path id="Trazado_998040" data-name="Trazado 998040" d="M40.78,25.173H16.87a.936.936,0,0,1,0-1.871H40.78a.936.936,0,0,1,0,1.871Z" transform="translate(-15.934 -23.301)" fill="#c6c6f7"/>
          </g>
          <g id="Grupo_1178193" data-name="Grupo 1178193" transform="translate(12.12 12.247)">
            <path id="Trazado_998041" data-name="Trazado 998041" d="M40.78,29.1H16.87a.936.936,0,0,1,0-1.871H40.78a.936.936,0,0,1,0,1.871Z" transform="translate(-15.934 -27.228)" fill="#c6c6f7"/>
          </g>
          <g id="Grupo_1178194" data-name="Grupo 1178194" transform="translate(12.12 18.371)">
            <path id="Trazado_998042" data-name="Trazado 998042" d="M40.78,33.027H16.87a.936.936,0,1,1,0-1.871H40.78a.936.936,0,1,1,0,1.871Z" transform="translate(-15.934 -31.155)" fill="#c6c6f7"/>
          </g>
          <g id="Grupo_1178195" data-name="Grupo 1178195" transform="translate(12.12 24.494)">
            <path id="Trazado_998043" data-name="Trazado 998043" d="M40.78,36.954H16.87a.936.936,0,0,1,0-1.871H40.78a.936.936,0,0,1,0,1.871Z" transform="translate(-15.934 -35.082)" fill="#c6c6f7"/>
          </g>
          <g id="Grupo_1178196" data-name="Grupo 1178196" transform="translate(12.12 30.617)">
            <path id="Trazado_998044" data-name="Trazado 998044" d="M40.78,40.881H16.87a.936.936,0,0,1,0-1.871H40.78a.936.936,0,0,1,0,1.871Z" transform="translate(-15.934 -39.009)" fill="#c6c6f7"/>
          </g>
          <g id="Grupo_1178197" data-name="Grupo 1178197" transform="translate(12.12 36.741)">
            <path id="Trazado_998045" data-name="Trazado 998045" d="M40.78,44.808H16.87a.936.936,0,1,1,0-1.871H40.78a.936.936,0,1,1,0,1.871Z" transform="translate(-15.934 -42.936)" fill="#c6c6f7"/>
          </g>
        </g>
        <g id="Grupo_1178204" data-name="Grupo 1178204" transform="translate(49.573 58.794)">
          <g id="Grupo_1178203" data-name="Grupo 1178203">
            <path id="Trazado_998046" data-name="Trazado 998046" d="M36.049,57.8H51.813a3.37,3.37,0,0,0,3.369-3.37V41.84a3.37,3.37,0,0,0-3.369-3.37H36.049a3.37,3.37,0,0,0-3.369,3.37V54.43a3.37,3.37,0,0,0,3.369,3.37Z" transform="translate(-32.677 -38.469)" fill="#fcb73e"/>
            <path id="Trazado_998047" data-name="Trazado 998047" d="M38.323,57.8H36.05a3.379,3.379,0,0,1-3.372-3.372V41.843a3.371,3.371,0,0,1,3.372-3.372h2.273a3.363,3.363,0,0,0-3.372,3.372v12.59A3.371,3.371,0,0,0,38.323,57.8Z" transform="translate(-32.678 -38.468)" fill="#fd982e"/>
            <g id="Grupo_1178199" data-name="Grupo 1178199" transform="translate(8.371)">
              <path id="Trazado_998048" data-name="Trazado 998048" d="M38.046,38.469v4.3l.962-.512.96.512.962-.512.96.512.962-.512.96.512v-4.3Z" transform="translate(-38.046 -38.469)" fill="#fd982e"/>
            </g>
            <g id="Grupo_1178202" data-name="Grupo 1178202" transform="translate(13.161 11.855)">
              <g id="Grupo_1178201" data-name="Grupo 1178201">
                <g id="Grupo_1178200" data-name="Grupo 1178200" transform="translate(0.361)">
                  <path id="Trazado_998049" data-name="Trazado 998049" d="M43.494,47.8h.389v1.245a.14.14,0,0,0,.145.133h1.049a.14.14,0,0,0,.145-.133V47.8h.389a.133.133,0,0,0,.121-.207l-1.059-1.459a.152.152,0,0,0-.241,0L43.373,47.59A.133.133,0,0,0,43.494,47.8Z" transform="translate(-40.233 -46.072)" fill="#fd982e"/>
                  <path id="Trazado_998050" data-name="Trazado 998050" d="M41.5,47.8h.389v1.245a.14.14,0,0,0,.145.133h1.049a.14.14,0,0,0,.145-.133V47.8h.389a.133.133,0,0,0,.121-.207l-1.059-1.459a.152.152,0,0,0-.241,0L41.375,47.59A.133.133,0,0,0,41.5,47.8Z" transform="translate(-41.35 -46.072)" fill="#fd982e"/>
                </g>
                <path id="Trazado_998051" data-name="Trazado 998051" d="M47.039,48.6H41.263a.145.145,0,0,0-.145.145v.916a.145.145,0,0,0,.145.145h5.775a.145.145,0,0,0,.145-.145v-.916A.145.145,0,0,0,47.039,48.6Z" transform="translate(-41.118 -44.657)" fill="#fd982e"/>
              </g>
            </g>
          </g>
        </g>
        <g id="Grupo_1178209" data-name="Grupo 1178209" transform="translate(59.756 43.627)">
          <path id="Trazado_998052" data-name="Trazado 998052" d="M41.853,43.906H54.219a2.643,2.643,0,0,0,2.643-2.643V31.386a2.643,2.643,0,0,0-2.643-2.643H41.853a2.643,2.643,0,0,0-2.643,2.643v9.877A2.643,2.643,0,0,0,41.853,43.906Z" transform="translate(-39.208 -28.742)" fill="#fcb73e"/>
          <path id="Trazado_998053" data-name="Trazado 998053" d="M43.636,43.91H41.853a2.651,2.651,0,0,1-2.645-2.645V31.389a2.644,2.644,0,0,1,2.645-2.645h1.783a2.638,2.638,0,0,0-2.645,2.645v9.876A2.644,2.644,0,0,0,43.636,43.91Z" transform="translate(-39.208 -28.742)" fill="#fd982e"/>
          <g id="Grupo_1178205" data-name="Grupo 1178205" transform="translate(6.567)">
            <path id="Trazado_998054" data-name="Trazado 998054" d="M43.42,28.743v3.37l.755-.4.753.4.755-.4.753.4.755-.4.753.4v-3.37Z" transform="translate(-43.42 -28.743)" fill="#fd982e"/>
          </g>
          <g id="Grupo_1178208" data-name="Grupo 1178208" transform="translate(10.324 9.299)">
            <g id="Grupo_1178207" data-name="Grupo 1178207">
              <g id="Grupo_1178206" data-name="Grupo 1178206" transform="translate(0.284)">
                <path id="Trazado_998055" data-name="Trazado 998055" d="M47.693,36.06H48v.976a.11.11,0,0,0,.114.1h.823a.11.11,0,0,0,.114-.1V36.06h.305a.1.1,0,0,0,.095-.163l-.83-1.145a.12.12,0,0,0-.189,0L47.6,35.9A.1.1,0,0,0,47.693,36.06Z" transform="translate(-45.135 -34.706)" fill="#fd982e"/>
                <path id="Trazado_998056" data-name="Trazado 998056" d="M46.125,36.06h.305v.976a.11.11,0,0,0,.114.1h.823a.11.11,0,0,0,.114-.1V36.06h.305a.1.1,0,0,0,.095-.163l-.83-1.145a.12.12,0,0,0-.189,0l-.83,1.145A.1.1,0,0,0,46.125,36.06Z" transform="translate(-46.011 -34.706)" fill="#fd982e"/>
              </g>
              <path id="Trazado_998057" data-name="Trazado 998057" d="M50.474,36.69H45.943a.114.114,0,0,0-.114.114v.719a.114.114,0,0,0,.114.114h4.531a.114.114,0,0,0,.114-.114V36.8A.114.114,0,0,0,50.474,36.69Z" transform="translate(-45.829 -33.596)" fill="#fd982e"/>
            </g>
          </g>
        </g>
        <g id="Grupo_1178211" data-name="Grupo 1178211" transform="translate(48.103 10.383)">
          <path id="Trazado_998058" data-name="Trazado 998058" d="M0,0H26.7V8.592H0Z" transform="translate(1.863 27.91) rotate(-58.329)" fill="#65b9ff"/>
          <path id="Trazado_998059" data-name="Trazado 998059" d="M0,0H26.7V4.3H0Z" transform="translate(1.865 27.915) rotate(-58.329)" fill="#3e7fff"/>
          <path id="Trazado_998060" data-name="Trazado 998060" d="M0,0H1.82V8.592H0Z" transform="translate(14.927 6.733) rotate(-58.329)" fill="#e4e3ff"/>
          <g id="Grupo_1178210" data-name="Grupo 1178210" transform="translate(15.899)">
            <path id="Trazado_998061" data-name="Trazado 998061" d="M49.244,17.118l1.939-3.143a4.3,4.3,0,0,0-1.4-5.912h0a4.3,4.3,0,0,0-5.912,1.4l-1.939,3.143Z" transform="translate(-41.931 -7.423)" fill="#5b5e8b"/>
          </g>
          <path id="Trazado_998062" data-name="Trazado 998062" d="M40.919,29.836l-5.442,4.051-3.1,2.32a.4.4,0,0,1-.634-.391l.677-3.807,1.188-6.684Z" transform="translate(-31.735 2.59)" fill="#ffaf93"/>
          <path id="Trazado_998063" data-name="Trazado 998063" d="M35.476,31.49l-3.1,2.32a.4.4,0,0,1-.634-.391l.677-3.807a3.225,3.225,0,0,1,3.058,1.878Z" transform="translate(-31.735 4.986)" fill="#5b5e8b"/>
        </g>
      </g>
    </g>
  </g>
</svg>
