<svg xmlns="http://www.w3.org/2000/svg" xmlns:xlink="http://www.w3.org/1999/xlink" width="194.482" height="204" viewBox="0 0 194.482 204">
  <defs>
    <clipPath id="clip-path">
      <rect id="Rectángulo_454878" data-name="Rectángulo 454878" width="192.983" height="131.459" fill="none"/>
    </clipPath>
  </defs>
  <g id="Grupo_1179120" data-name="Grupo 1179120" transform="translate(5269.464 9071.5)">
    <g id="Grupo_1177058" data-name="Grupo 1177058" transform="translate(-5552.938 -10194.096)">
      <rect id="Rectángulo_401036" data-name="Rectángulo 401036" width="149" height="201" rx="40" transform="translate(284.974 1124.096)" fill="none" stroke="#1e3a8a" stroke-miterlimit="10" stroke-width="3"/>
      <g id="Grupo_1177786" data-name="Grupo 1177786" transform="translate(284.974 1166.095)">
        <path id="Trazado_994366" data-name="Trazado 994366" d="M30.782,58.3,17.9,50.866V40.291L30.782,47.73Z" transform="translate(29.073 65.438)" fill="#cc9669"/>
        <path id="Trazado_994367" data-name="Trazado 994367" d="M22.809,58.152l12.627-7.2V40.384l-12.627,7.2Z" transform="translate(37.046 65.589)" fill="#bf855a"/>
        <path id="Trazado_994368" data-name="Trazado 994368" d="M43.41,45.022,30.528,37.527,17.9,44.781l12.882,7.437Z" transform="translate(29.073 60.949)" fill="#e5b483"/>
        <path id="Trazado_994369" data-name="Trazado 994369" d="M34.21,46.2,21.349,38.714l-1.128.646,12.908,7.453Z" transform="translate(32.841 62.876)" fill="#e6f2fb"/>
        <path id="Trazado_994370" data-name="Trazado 994370" d="M21.609,43.609l2.608,1.5v-.871l-2.608-1.5Z" transform="translate(35.096 69.412)" fill="#4f3745"/>
        <path id="Trazado_994371" data-name="Trazado 994371" d="M21.609,43.627l2.608,1.5v-.436l-2.608-1.5Z" transform="translate(35.096 70.148)" fill="#4f3745"/>
        <path id="Trazado_994372" data-name="Trazado 994372" d="M21.609,43.91l2.608,1.5v-.436l-2.608-1.5Z" transform="translate(35.096 70.609)" fill="#4f3745"/>
        <path id="Trazado_994373" data-name="Trazado 994373" d="M21.609,46.072l2.608,1.5V45.285l-2.608-1.493Z" transform="translate(35.096 71.123)" fill="#e6f2fb"/>
        <path id="Trazado_994374" data-name="Trazado 994374" d="M25.14,42.18v2.469l1.073-.617V41.561Z" transform="translate(40.831 67.5)" fill="#badaf6"/>
        <g id="Grupo_1177785" data-name="Grupo 1177785" transform="translate(0 0)">
          <g id="Grupo_1177784" data-name="Grupo 1177784" clip-path="url(#clip-path)">
            <path id="Trazado_994375" data-name="Trazado 994375" d="M19.614,46.354c0,.071-.016.1-.037.121a.263.263,0,0,1-.194-.22.094.094,0,0,0-.189,0,.44.44,0,0,0,.383.407.2.2,0,0,0,.168-.089.358.358,0,0,0,.058-.218V44.911l.827.478a2.209,2.209,0,0,0-.921-1.756c-.509-.294-.921.016-.921.693l.827.478Z" transform="translate(30.513 70.685)" fill="#4f3745"/>
            <path id="Trazado_994376" data-name="Trazado 994376" d="M18.006,46.6l1.651.953V43.768l-1.651-.955Zm.087-3.632,1.477.853V47.4l-1.477-.85Z" transform="translate(29.244 69.533)" fill="#4f3745"/>
            <path id="Trazado_994377" data-name="Trazado 994377" d="M18.717,43.217V47l2.262,1.3V44.519Zm2.175,4.933-2.089-1.2V43.369l2.089,1.2Z" transform="translate(30.399 70.19)" fill="#4f3745"/>
            <path id="Trazado_994378" data-name="Trazado 994378" d="M18.123,44.442a1.339,1.339,0,0,0,.391.9v.669l-.255-.147c-.073-.042-.136,0-.136.1a.338.338,0,0,0,.136.262l.782.451c.076.045.139,0,.139-.1a.333.333,0,0,0-.139-.262l-.252-.144V45.5c.223.05.391-.126.391-.451V43.615L18.123,43Z" transform="translate(29.434 69.844)" fill="#4f3745"/>
            <path id="Trazado_994379" data-name="Trazado 994379" d="M40.839,61.173,27,53.185V41.828l13.835,7.988Z" transform="translate(43.86 67.934)" fill="#d7eaf7"/>
            <path id="Trazado_994380" data-name="Trazado 994380" d="M30.079,46.335,27.242,44.7V42.37l2.837,1.637Z" transform="translate(44.245 68.814)" fill="#fff"/>
            <path id="Trazado_994381" data-name="Trazado 994381" d="M30.079,45.545l-2.837-1.637v-.415l2.837,1.637Z" transform="translate(44.245 70.639)" fill="#4f3745"/>
            <path id="Trazado_994382" data-name="Trazado 994382" d="M30.079,45.8l-2.837-1.637v-.415l2.837,1.637Z" transform="translate(44.245 71.054)" fill="#4f3745"/>
            <path id="Trazado_994383" data-name="Trazado 994383" d="M30.079,46.087,27.242,44.45v-.415l2.837,1.637Z" transform="translate(44.245 71.519)" fill="#4f3745"/>
            <path id="Trazado_994384" data-name="Trazado 994384" d="M30.987,46.335v.415L33.511,48.2v-.415Z" transform="translate(50.327 75.255)" fill="#4f3745"/>
            <path id="Trazado_994385" data-name="Trazado 994385" d="M32.277,61.173l13.835-7.988V41.828L32.277,49.816Z" transform="translate(52.422 67.934)" fill="#badaf6"/>
            <path id="Trazado_994386" data-name="Trazado 994386" d="M36.568,43.125l-2.044,1.181v4.642l2.044-1.181Z" transform="translate(56.072 70.041)" fill="#ffc033"/>
            <path id="Trazado_994387" data-name="Trazado 994387" d="M54.674,46.811,40.84,38.76,27.005,46.811,40.84,54.8Z" transform="translate(43.86 62.951)" fill="#e6f2fb"/>
            <path id="Trazado_994388" data-name="Trazado 994388" d="M45.187,48.109,31.353,40.058,29.238,41.3l13.835,7.988Z" transform="translate(47.487 65.059)" fill="#fdd03e"/>
            <path id="Trazado_994389" data-name="Trazado 994389" d="M31.988,50.163c0,.081-.016.115-.042.136a.293.293,0,0,1-.22-.249.108.108,0,0,0-.108-.108.106.106,0,0,0-.108.108.5.5,0,0,0,.436.464.235.235,0,0,0,.194-.1.433.433,0,0,0,.063-.249V48.512l.945.546A2.515,2.515,0,0,0,32.1,47.05c-.58-.336-1.052.018-1.052.792l.945.546Z" transform="translate(50.419 76.21)" fill="#4f3745"/>
            <path id="Trazado_994390" data-name="Trazado 994390" d="M30.149,50.441l1.889,1.089V47.2l-1.889-1.089Zm.1-4.154,1.687.974v4.1l-1.687-.974Z" transform="translate(48.967 74.895)" fill="#4f3745"/>
            <path id="Trazado_994391" data-name="Trazado 994391" d="M30.963,46.576V50.9l2.587,1.488V48.064Zm2.488,5.642-2.388-1.375V46.749l2.388,1.372Z" transform="translate(50.289 75.645)" fill="#4f3745"/>
            <path id="Trazado_994392" data-name="Trazado 994392" d="M30.284,47.975a1.536,1.536,0,0,0,.443,1.031v.766l-.286-.168c-.089-.05-.157.005-.157.121a.372.372,0,0,0,.157.3l.892.517c.084.05.155-.005.155-.121a.384.384,0,0,0-.155-.3l-.291-.168V49.19c.257.052.446-.147.446-.517V47.03l-1.2-.7Z" transform="translate(49.186 75.249)" fill="#4f3745"/>
            <path id="Trazado_994393" data-name="Trazado 994393" d="M190.721,76.008l-61.321,35.4c-3.348,1.934-9.2,1.693-13.066-.541L3.2,45.553c-3.868-2.231-4.288-5.61-.939-7.544L63.581,2.6c3.348-1.931,9.2-1.69,13.068.543L189.782,68.464c3.868,2.233,4.288,5.61.939,7.544" transform="translate(-0.001 2.109)" fill="#35212d"/>
            <path id="Trazado_994394" data-name="Trazado 994394" d="M7.158,14.971,0,15.545v4.217l7.159,1.9Z" transform="translate(0 24.313)" fill="#35212d"/>
            <path id="Trazado_994395" data-name="Trazado 994395" d="M72.069,27.153h5.345l-.055,4.133-6.2,1.63Z" transform="translate(115.568 44.099)" fill="#35212d"/>
            <path id="Trazado_994396" data-name="Trazado 994396" d="M190.721,74.709l-61.321,35.4c-3.348,1.934-9.2,1.693-13.066-.541L3.2,44.254c-3.868-2.233-4.288-5.61-.939-7.544L63.581,1.3c3.348-1.931,9.2-1.69,13.068.543L189.782,67.165c3.868,2.233,4.288,5.61.939,7.544" transform="translate(-0.001 -0.001)" fill="#4f3745"/>
            <path id="Trazado_994397" data-name="Trazado 994397" d="M45.221,14.175,23.761,26.567,9.286,18.209,30.747,5.817Z" transform="translate(15.082 9.447)" fill="#d7eaf7"/>
            <path id="Trazado_994398" data-name="Trazado 994398" d="M9.286,10.111v1.123l3.065,1.771.976-.562Z" transform="translate(15.082 16.42)" fill="#98c2e2"/>
            <path id="Trazado_994399" data-name="Trazado 994399" d="M45.221,13.747,23.761,26.138,9.286,17.78,30.747,5.389Z" transform="translate(15.082 8.751)" fill="#d7eaf7"/>
            <path id="Trazado_994400" data-name="Trazado 994400" d="M179.435,67.169,115.988,103.8,3.436,38.818,66.882,2.187Z" transform="translate(5.58 3.551)" fill="#d7eaf7"/>
            <path id="Trazado_994401" data-name="Trazado 994401" d="M179.435,66.289,115.988,102.92,3.436,37.938,66.882,1.307Z" transform="translate(5.58 2.122)" fill="#fff"/>
            <path id="Trazado_994402" data-name="Trazado 994402" d="M109.773,26.07V28.38L46.327,65.01V62.7Z" transform="translate(75.241 42.341)" fill="#badaf6"/>
            <path id="Trazado_994403" data-name="Trazado 994403" d="M3.436,15.266v2.309L115.988,82.557V80.248Z" transform="translate(5.58 24.793)" fill="#d7eaf7"/>
            <path id="Trazado_994404" data-name="Trazado 994404" d="M24.682,25.45a7.4,7.4,0,0,1-3.616-.913l-8.584-4.954-1.7,1.005V18.128a.817.817,0,0,1,1.225-.709l9.875,5.7a5.518,5.518,0,0,0,4.86.234L42.56,14.226c.213-.126.572-.383.572-.716,0-.281-.257-.727-.981-1.147L33.588,7.422l-1.719.992V5.955A.819.819,0,0,1,33.1,5.246l9.872,5.7a3.123,3.123,0,0,1,1.8,2.564,2.475,2.475,0,0,1-1.388,2.131L27.563,24.773a5.847,5.847,0,0,1-2.881.677" transform="translate(17.515 8.34)" fill="#badaf6"/>
            <path id="Trazado_994405" data-name="Trazado 994405" d="M78.92,39.427c-.688.066-1.435.118-1.375.438s-.454.771-.863.932a4.388,4.388,0,0,1-2.425-.278,6.709,6.709,0,0,1-2.17-1.54c-.438-.559-.813-.446-1.341-.268a14.2,14.2,0,0,0-1.593,1.071c-.488.257-1.042-.26-1.5-.863a5.58,5.58,0,0,1-.942-1.412.876.876,0,0,0-.971-.583c-.31.129-1.076.7-1.05,1.065s-.4,1.417-2.023,1.136-3.472.155-3.519-.223-.136-.43-.887-.887-.6-1.026-.43-1.656.827-1.06,1.742-1.412.89-.743.979-1a3.4,3.4,0,0,1,1.832-.879c.834-.178.635-.47,1.449-.506s1,.36,1.569.8a2.289,2.289,0,0,0,1.929.257c.6-.139.228-.462-.756-.984a9.856,9.856,0,0,1-2.147-1.176c-.247-.339-.013-1.414.381-2.53s.37-.8-.11-1.207-.7-.559-.669-1.113S63.577,25.4,63.792,25s.625-.895.375-1.37.228-.834.756-1.191,1.016-.05,1.53-.126.724-1.454,1.052-2.1-.538-1.037-.3-1.275a14.764,14.764,0,0,1,2.3-.564c.845-.26,1.063-.485.572-.813a2.16,2.16,0,0,0-1.714-.331,1.486,1.486,0,0,1-1.3.066c-.415-.218-.806-.73-1.336-1.058A2.12,2.12,0,0,0,63.939,16a6.144,6.144,0,0,1-2.763-.058,15.747,15.747,0,0,0-2.244-.811c-.971-.252-1.554-.323-1.464.21s.32,1.11-.265,1.168a3.292,3.292,0,0,1-1.774-.651,3.42,3.42,0,0,0-1.593-.325,2.649,2.649,0,0,0-1.593.336c-.415.265-.858.318-.454.769s.848.756.813,1.131.32.449.774.467a2.392,2.392,0,0,1,1.346.493c.278.27.585.273.325.651s-.937.667-.64.929,1.7.871,1.5,1.346-1.218.4-1.855.029A3.594,3.594,0,0,0,52.106,21c-.8,0-2.084.163-2.805.1s-.966.454-1.328.485-.834-.459-1.267-.488-.827-.081-.979-.653a4.149,4.149,0,0,1,.144-2.446c.346-.659,1.771-.869,2.273-1.107s1.483-.554,1.249-.95-1.22-.134-1.8-.383.11-.748-.22-1.115-1.1-1.144-1.834-.95-.163.7-.383,1.212-.882.433-1.942.1a8.169,8.169,0,0,1-2.189-1.173c-.268-.331-.039-.64.126-.963s-.386-.64-.995-.265-.4.69-.055,1.2a16.429,16.429,0,0,0,1.055,1.574c.7.779.575,1.168-.286,1.64s-2.3.871-3.322,1.359a6.233,6.233,0,0,1-2.758.981c-.866-.06-3.889.052-5.259,1.055A6.485,6.485,0,0,1,26.264,22.2c-2.194.58-5.721.737-6.938,1.362s-2.212,1.042-2.538,1.687-1.018,1.459-1,2.06,1.27,1.323.924,1.981-1.06.84-.281,1.685a26.7,26.7,0,0,0,2.724,2.7c.6.415,1.569.312,2.8.365s2.44.417,3.2-.4a3.016,3.016,0,0,0,.556-2.913c-.325-.651.034-.706,1.173-.905s1.889-.863,2.7-.569,1.845,1.372,3.1,1.79a17.128,17.128,0,0,1,3.97,2.178A6.4,6.4,0,0,1,38.579,36.5c.386,1.149.509,1.813,1.821,2.506s2.039,1.312,2.829,1.084a3.171,3.171,0,0,1,2.643.556,38.08,38.08,0,0,0,3.829,2.21,11.973,11.973,0,0,0,2.978.848A3.469,3.469,0,0,0,54.1,43.62s-2.915-1.081-4.813-1.921-2.564-1.239-2.123-1.467c.3-.157,1.089.108,2.679.714a53.271,53.271,0,0,0,5.537,1.7,16.594,16.594,0,0,0,6.831.207c1.585-.194,2.383-.538,2.687-1.22.176-.4,1.648-.226,2.511-.157,2.207.176,2.729-.685,3.9-.522s3.044.834,5.075.3a3,3,0,0,0,1.863-.974c.323-.339,1.784.084,1.963.136,1.309.388,2.616,1.055,2.624,1.763a2.055,2.055,0,0,0,.6,1.887,2.6,2.6,0,0,0,1.855,1.113c.541.094.732.646,1.273,1.044a2.713,2.713,0,0,0,1.889.433,21.156,21.156,0,0,1,3.629.6,15.024,15.024,0,0,1,3.519.711,2.824,2.824,0,0,0,2.238.281,15.215,15.215,0,0,1,3.831-.076c1.488.155,1.732.472,3.687,1.425s4.8,2.816,6.025,3.125a7.458,7.458,0,0,1,2.7,1.031c1.278.737,1.868,1.564,2.671,1.763s3.039.808,4.653,1.3,3.317,1.719,4.288,1.971a31.641,31.641,0,0,0,5.175.567,7.635,7.635,0,0,0,4.256-.753c.979-.667,1.2-.976.7-1.092s-1.17.6-2.934.551-1.9-.349-2.454-.845-1.013-1.2-1.981-1.1-2.482.331-2.257-.155.3-.884-.438-1.22-2.74-.349-2.212-.706,1.5-.716.945-.95-1.485-.11-1.1-.635,1.774-1.483.908-1.9-1.215-.06-2.336-.226.315-.764,1.047-1.265c.6-.417-.207-1.328-1.17-2.5s-.092-1.4-1.43-1.992-1.821-.525-1.357-1.708,1.742-1.412,1.433-1.944a10.941,10.941,0,0,0-2.776-2.614c-1.43-1-2.249-1.344-2.645-2.231a10.185,10.185,0,0,0-1.131-2.194,3.652,3.652,0,0,0-2.414-1.349c-.9-.037-.926.433-1.627.381s-2.055-.438-3.026-.031a15.118,15.118,0,0,1-1.895.842,18.063,18.063,0,0,1-3.094.412c-.646.068-1.21.446-1.981.485a1.992,1.992,0,0,1-1.43-.344,8.247,8.247,0,0,0-4.6-.546c-1.577.454-1.569,1.163-2.616.955s-1.777.029-2.85-.15a9.069,9.069,0,0,0-3.125.042c-.47.171-.071.753-.722.771s-1.147.79-2.183.677a2.813,2.813,0,0,0-2.089.6,4.39,4.39,0,0,0-1.191,1.249c-.236.415.525.611.606.945s-.081.559-.779.627" transform="translate(25.642 19.867)" fill="#f79e00"/>
            <path id="Trazado_994406" data-name="Trazado 994406" d="M25.849,13.488a1.437,1.437,0,0,0,.365.981c.291.367.735.339,1.433.037a7.949,7.949,0,0,1,2.467-.381c.667-.031.323-.341.291-.6s.533-.024,1.514.081,1.813.079,2.259.2.05.58.11.9.782.386.318.554-1.375.617-1.294.926.294.59.792.228.806-.932,1.407-.806a10.771,10.771,0,0,1,1.884.428,2.045,2.045,0,0,0,1.889-.228c.514-.3.632-.491.241-.85a1.708,1.708,0,0,0-1.294-.548c-.546.013-1.719-.024-1.813-.478s.181-.409,1.023-.26,1.11.173,1.21-.165.129-.937-.506-.953-1.908.066-2.488.016-1.052-.1-1.281-.388-.575-.4-1.21-.409A2.329,2.329,0,0,0,32,11.939a1.93,1.93,0,0,1-1.569.018c-.748-.278-.939-.677-1.532-.512a8.587,8.587,0,0,0-1.6.769c-.42.22-1.514.774-1.451,1.273" transform="translate(41.978 18.526)" fill="#f79e00"/>
            <path id="Trazado_994407" data-name="Trazado 994407" d="M21.259,15.1c-.1.131.367.323.388.664s-.252,1,.213,1.178.96.533,1.178.152.352-.787.829-.732.656.36.968.559A3.633,3.633,0,0,0,26.764,17a3.272,3.272,0,0,0,1.79-1.034c.123-.325.892-.388,1.412-.459s.454-.464.422-.727-1.47-.32-1.735-.648-.525-1.094-1.173-1.052-.638.777-1,.984a6.3,6.3,0,0,1-2.553.265,3.864,3.864,0,0,0-2.669.769" transform="translate(34.504 21.238)" fill="#f79e00"/>
            <path id="Trazado_994408" data-name="Trazado 994408" d="M31.164,8.994c.478.562-.386,1.493-.464,1.842s-.748.585-.5.9.89.554.785.869-.829.428-.635.824-.115.569.247,1,.462.677-.018,1.207a8.655,8.655,0,0,1-2.826,1.288c-.522.136-.577-.643-1.37-.441s-1.821-.522-2.467-1.777a2.344,2.344,0,0,1,.934-3.333A33.245,33.245,0,0,1,28.12,9.479c1.3-.674,2.692-.9,3.044-.485" transform="translate(38.269 14.268)" fill="#f79e00"/>
            <path id="Trazado_994409" data-name="Trazado 994409" d="M21.771,15.295c-.281.381-.5.9-.415,1.1s.842.047,1.467-.034,1.763-.058,2.215-.567a12.365,12.365,0,0,1,1.842-1.21,4.7,4.7,0,0,1,2.044-1.034c.908-.092,1.475-.118,1.349-.388s-.911-.129-1.42-.577a10.787,10.787,0,0,0-1.488-.9,1.671,1.671,0,0,0-1.819.16c-.8.462-1.561,1.519-2.265,1.926a5.225,5.225,0,0,0-1.512,1.525" transform="translate(34.656 18.652)" fill="#f79e00"/>
            <path id="Trazado_994410" data-name="Trazado 994410" d="M24.2,12.875c-.339.244-.018.517.084.84s.4.252.979.323,1.21-.026.724-.68-.737-1.241-1.787-.483" transform="translate(39.058 20.33)" fill="#f79e00"/>
            <path id="Trazado_994411" data-name="Trazado 994411" d="M27.509,13.985c-.38.4-.963.632-.858.979s.6-.029,1.055.388-.36.785-.564,1.257.073.593.819.672,1.522.262,1.91-.239a2.274,2.274,0,0,1,2.238-.913,6.284,6.284,0,0,1,3.138,1.136c.362.451.436.714.722.879s1.008.714,1.5.6a1.58,1.58,0,0,1,1.4.535,4.582,4.582,0,0,0,2.265.879c1.239.276,2.322.614,3.566.937a2.572,2.572,0,0,0,1.942-.155c.517-.1,1.609.136,1.685-.236s-1.225-1.149-1.412-1.674-1.294-.879-1.071-1.212.974-.714.837-1.32-1.018-.963-.22-1.449.737-.958.816-1.792a1.215,1.215,0,0,0-1.1-1.344c-.514-.031-1.362-.433-1.328-.832s.092-.74-.68-1.183-1.519-1.428-2.078-1.375-1.052.16-1.312-.276a4.413,4.413,0,0,1-.53-1.8c-.005-.533-.126-.69-1-.491s-.556,1.11-1.386,1.181-1.32-.278-2.606-.273a6.356,6.356,0,0,0-3.238.727c-.816.5-.711.688-.493,1.123s-.239.213-.858.648a2.036,2.036,0,0,0-.824,1.262,2.505,2.505,0,0,1-.918,1.139,3.4,3.4,0,0,0-1.113,1.076c-.226.42-.139.966-.307,1.142" transform="translate(43.265 9.544)" fill="#f79e00"/>
            <path id="Trazado_994412" data-name="Trazado 994412" d="M35.153,24.739V27.4a14.026,14.026,0,0,1-3.472-.711,33.827,33.827,0,0,1-4.228-2.559l.5-1.918s2.863,1.307,3.753,1.64,3.446.882,3.446.882" transform="translate(44.589 36.082)" fill="#f79e00"/>
            <path id="Trazado_994413" data-name="Trazado 994413" d="M40.3,20.85v2.669s-1.845-.853-3.207-1.409S32.6,20.246,32.6,20.246l.5-1.918s2.863,1.307,3.755,1.64,3.443.882,3.443.882" transform="translate(52.954 29.766)" fill="#f79e00"/>
            <path id="Trazado_994414" data-name="Trazado 994414" d="M39.339,18.815v2.669s-1.845-.853-3.207-1.409-4.493-1.863-4.493-1.863l.5-1.918S35,17.6,35.894,17.933s3.446.882,3.446.882" transform="translate(51.388 26.461)" fill="#f79e00"/>
            <path id="Trazado_994415" data-name="Trazado 994415" d="M39.019,17.234V19.9s-1.845-.85-3.209-1.407-4.49-1.863-4.49-1.863l.5-1.918s2.863,1.307,3.753,1.64,3.446.882,3.446.882" transform="translate(50.868 23.893)" fill="#f79e00"/>
            <path id="Trazado_994416" data-name="Trazado 994416" d="M40.287,15.693v2.669s-1.845-.853-3.209-1.409-4.49-1.863-4.49-1.863l.5-1.918s2.863,1.307,3.753,1.64,3.446.882,3.446.882" transform="translate(52.928 21.39)" fill="#f79e00"/>
            <path id="Trazado_994417" data-name="Trazado 994417" d="M35.36,13.331v2.884a5.125,5.125,0,0,0,3.183-.131V13.415a10.445,10.445,0,0,1-3.183-.084" transform="translate(57.43 21.65)" fill="#f79e00"/>
            <path id="Trazado_994418" data-name="Trazado 994418" d="M27.4,12.631v2.881a5.126,5.126,0,0,0,3.175-.121l0-2.7a10.09,10.09,0,0,1-3.173-.058" transform="translate(44.497 20.513)" fill="#f79e00"/>
            <path id="Trazado_994419" data-name="Trazado 994419" d="M29.579,12.06l.945,2.635a5.117,5.117,0,0,0,3.173-.121v-2.7s-3.073.522-4.117.189" transform="translate(48.041 19.279)" fill="#f79e00"/>
            <path id="Trazado_994420" data-name="Trazado 994420" d="M25.143,14.252a6.117,6.117,0,0,0,.848-.228l0-2.7s-.346.055-.845.123Z" transform="translate(40.836 18.394)" fill="#f79e00"/>
            <path id="Trazado_994421" data-name="Trazado 994421" d="M24.048,14.527a7.1,7.1,0,0,1,2.112.527v-2.7a7.723,7.723,0,0,0-2.112-.632Z" transform="translate(39.058 19.029)" fill="#f79e00"/>
            <path id="Trazado_994422" data-name="Trazado 994422" d="M23.17,13.851c.5-.1,4.2-.118,4.2-.118V11.127s-3.739.2-4.235.262Z" transform="translate(37.576 18.071)" fill="#f79e00"/>
            <path id="Trazado_994423" data-name="Trazado 994423" d="M23.933,15.619a7.1,7.1,0,0,1,2.112.527V12.809s-1.614-.06-2.112.005Z" transform="translate(38.871 20.761)" fill="#f79e00"/>
            <path id="Trazado_994424" data-name="Trazado 994424" d="M21.245,15.6a45.084,45.084,0,0,1,4.582.527V12.79s-4.083.045-4.582.11Z" transform="translate(34.505 20.772)" fill="#f79e00"/>
            <path id="Trazado_994425" data-name="Trazado 994425" d="M21.338,15.07a45.085,45.085,0,0,1,4.582.527V12.26s-4.083.045-4.582.11Z" transform="translate(34.656 19.911)" fill="#f79e00"/>
            <path id="Trazado_994426" data-name="Trazado 994426" d="M23.562,12.262a45.085,45.085,0,0,1,4.582.527V9.452s-4.083.045-4.582.11Z" transform="translate(38.268 15.35)" fill="#f79e00"/>
            <path id="Trazado_994427" data-name="Trazado 994427" d="M26.638,11.054a45.085,45.085,0,0,1,4.582.527V8.244s-4.083.045-4.582.11Z" transform="translate(43.264 13.388)" fill="#f79e00"/>
            <path id="Trazado_994428" data-name="Trazado 994428" d="M28.444,8.548a45.085,45.085,0,0,1,4.582.527V5.738s-4.083.045-4.582.11Z" transform="translate(46.197 9.318)" fill="#f79e00"/>
            <path id="Trazado_994429" data-name="Trazado 994429" d="M28.9,9c-.955.021-1.874.042-2.091.071v2.705a12.8,12.8,0,0,1,2.091.173Z" transform="translate(43.534 14.613)" fill="#f79e00"/>
            <path id="Trazado_994430" data-name="Trazado 994430" d="M34.11,10.479v2.514a12.914,12.914,0,0,1,2.091.176v-2.69Z" transform="translate(55.4 17.018)" fill="#f79e00"/>
            <path id="Trazado_994431" data-name="Trazado 994431" d="M33.488,8.951v2.514a12.914,12.914,0,0,1,2.091.176V8.951Z" transform="translate(54.39 14.536)" fill="#f79e00"/>
            <path id="Trazado_994432" data-name="Trazado 994432" d="M33.711,7.6V10.11a12.914,12.914,0,0,1,2.091.176V7.6Z" transform="translate(54.752 12.336)" fill="#f79e00"/>
            <path id="Trazado_994433" data-name="Trazado 994433" d="M25.962,10.511c.8.113,1.446.213,1.446.213V7.976H25.962Z" transform="translate(42.166 12.953)" fill="#f79e00"/>
            <path id="Trazado_994434" data-name="Trazado 994434" d="M25.842,11.7c.806.113,1.449.21,1.449.21V9.17H25.842Z" transform="translate(41.971 14.892)" fill="#f79e00"/>
            <path id="Trazado_994435" data-name="Trazado 994435" d="M25.806,12.616c.806.113,1.449.213,1.449.213V10.081H25.806Z" transform="translate(41.913 16.372)" fill="#f79e00"/>
            <path id="Trazado_994436" data-name="Trazado 994436" d="M26.469,11.328l2.267,2.112c1.359.556,8.961.443,8.961.443v-2.7s-4.409-.252-7.707-.2c-1.777.026-3.157.464-3.522.349" transform="translate(42.99 17.82)" fill="#f79e00"/>
            <path id="Trazado_994437" data-name="Trazado 994437" d="M15.9,20.783V18.117h1.819l-.081,3.333Z" transform="translate(25.823 29.424)" fill="#f79e00"/>
            <path id="Trazado_994438" data-name="Trazado 994438" d="M19.167,22.576l1.215-1.081V18.571H19.362Z" transform="translate(31.131 30.161)" fill="#f79e00"/>
            <path id="Trazado_994439" data-name="Trazado 994439" d="M15.787,16.962v2.669H17.6l.3-2.312Z" transform="translate(25.641 27.548)" fill="#f79e00"/>
            <path id="Trazado_994440" data-name="Trazado 994440" d="M34.907,22.541c0,.11,1.039,2.705,2.559,2.705h4.674c-.037,0,2.661.869,3.8.307a11.529,11.529,0,0,0,1.614-.974l2.259-.11-.147-2.818-2.745.186a2.526,2.526,0,0,1-3.22,1.3,20.859,20.859,0,0,0-4.046-.743Z" transform="translate(56.694 35.163)" fill="#f79e00"/>
            <path id="Trazado_994441" data-name="Trazado 994441" d="M29.446,12.783v2.685l1.239.4,1.092-.527s-.008-1.509.021-1.509-2.351-1.05-2.351-1.05" transform="translate(47.825 20.76)" fill="#f79e00"/>
            <path id="Trazado_994442" data-name="Trazado 994442" d="M34.423,21.017V23.7l1.239.4,1.092-.527s-.008-1.509.021-1.509-2.351-1.05-2.351-1.05" transform="translate(55.908 34.133)" fill="#f79e00"/>
            <path id="Trazado_994443" data-name="Trazado 994443" d="M39.894,21.033v2.684l1.239.4,1.092-.527s-.008-1.509.021-1.509-2.351-1.05-2.351-1.05" transform="translate(64.794 34.159)" fill="#f79e00"/>
            <path id="Trazado_994444" data-name="Trazado 994444" d="M31.667,12.355V15.04l1.236.4,1.092-.527s-.008-1.509.024-1.509-2.351-1.05-2.351-1.05" transform="translate(51.432 20.065)" fill="#f79e00"/>
            <path id="Trazado_994445" data-name="Trazado 994445" d="M25.846,11.151v2.685l1.239.4,1.092-.527s.811-2.2.84-2.2-3.17-.36-3.17-.36" transform="translate(41.978 18.11)" fill="#f79e00"/>
            <path id="Trazado_994446" data-name="Trazado 994446" d="M24.925,11.46v2.685l1.548,1.632.782-1.758s-.554-.711-.527-.711-1.8-1.847-1.8-1.847" transform="translate(40.482 18.611)" fill="#f79e00"/>
            <path id="Trazado_994447" data-name="Trazado 994447" d="M28.688,12.793v2.685l.632.06,1.121-.827s.039-2.9.021-2.884a9.879,9.879,0,0,1-1.774.966" transform="translate(46.594 19.207)" fill="#f79e00"/>
            <path id="Trazado_994448" data-name="Trazado 994448" d="M30.471,14.227v2.685l1.239.4,1.092-.527s-.008-1.509.021-1.509-2.351-1.05-2.351-1.05" transform="translate(49.49 23.105)" fill="#f79e00"/>
            <path id="Trazado_994449" data-name="Trazado 994449" d="M65.77,28.538v2.65l-2.393.937-3.322-.446-.974-1.9L64,29.511Z" transform="translate(95.956 46.348)" fill="#f79e00"/>
            <path id="Trazado_994450" data-name="Trazado 994450" d="M61.418,26.831v2.65l-2.393.937L55.7,29.973l-.974-1.9,4.923-.265Z" transform="translate(88.888 43.577)" fill="#f79e00"/>
            <path id="Trazado_994451" data-name="Trazado 994451" d="M61.383,25.924v2.65l-2.393.937-3.322-.446-.974-1.905,4.92-.262Z" transform="translate(88.831 42.103)" fill="#f79e00"/>
            <path id="Trazado_994452" data-name="Trazado 994452" d="M60.867,25.118v2.65l-2.393.937-3.322-.446-.974-1.905,4.923-.262Z" transform="translate(87.993 40.795)" fill="#f79e00"/>
            <path id="Trazado_994453" data-name="Trazado 994453" d="M59.846,22.188V24.9l-2.393.937-3.322-.446-.974-1.905,4.92-.262Z" transform="translate(86.335 36.036)" fill="#f79e00"/>
            <path id="Trazado_994454" data-name="Trazado 994454" d="M78.92,38.4c-.688.066-1.435.118-1.375.438s-.454.771-.863.932a4.388,4.388,0,0,1-2.425-.278,6.67,6.67,0,0,1-2.17-1.54c-.438-.559-.813-.446-1.341-.268a14.2,14.2,0,0,0-1.593,1.071c-.488.257-1.042-.26-1.5-.863a5.58,5.58,0,0,1-.942-1.412.876.876,0,0,0-.971-.583c-.31.129-1.076.7-1.05,1.065s.921.84.459,1.74-1.7.979-3.322.7-2.632-1.147-2.679-1.527-.136-.43-.887-.884-.6-1.029-.43-1.658.827-1.06,1.742-1.412.89-.743.979-1a3.4,3.4,0,0,1,1.832-.879c.834-.178.635-.47,1.449-.506s1,.36,1.569.8a2.3,2.3,0,0,0,1.929.255c.6-.139.228-.462-.756-.984a10,10,0,0,1-2.147-1.173c-.247-.341-.013-1.417.381-2.532s.37-.8-.11-1.207-.7-.559-.669-1.113-.457-1.21-.241-1.611.625-.895.375-1.367.228-.837.756-1.191,1.016-.052,1.53-.129.724-1.454,1.052-2.1-.538-1.037-.3-1.275a14.763,14.763,0,0,1,2.3-.564c.845-.26,1.063-.485.572-.813A2.16,2.16,0,0,0,68.36,16.2a1.486,1.486,0,0,1-1.3.066c-.415-.218-.806-.73-1.336-1.058a2.12,2.12,0,0,0-1.787-.239,6.106,6.106,0,0,1-2.763-.058,15.747,15.747,0,0,0-2.244-.811c-.971-.252-1.554-.323-1.464.21s.32,1.11-.265,1.168a3.292,3.292,0,0,1-1.774-.651,3.42,3.42,0,0,0-1.593-.325,2.649,2.649,0,0,0-1.593.336c-.415.265-.858.318-.454.771s.848.753.813,1.128.32.449.774.47a2.371,2.371,0,0,1,1.346.491c.278.27.585.273.325.651s-.937.669-.64.929,1.7.871,1.5,1.346-1.218.4-1.855.029a3.594,3.594,0,0,0-1.942-.682c-.8,0-2.084.163-2.805.1s-.966.454-1.328.485-.834-.459-1.267-.488-.827-.081-.979-.653a4.149,4.149,0,0,1,.144-2.446c.346-.659,1.771-.869,2.273-1.107s1.483-.554,1.249-.95-1.22-.134-1.8-.383.11-.748-.22-1.115-1.1-1.144-1.834-.95-.163.7-.383,1.212-.882.433-1.942.1A8.169,8.169,0,0,1,41.022,12.6c-.268-.331-.039-.64.126-.963s-.386-.64-.995-.265-.4.69-.055,1.2a16.43,16.43,0,0,0,1.055,1.574c.7.779.575,1.168-.286,1.64s-2.3.871-3.322,1.359a6.234,6.234,0,0,1-2.758.981c-.866-.06-3.889.052-5.259,1.055a6.485,6.485,0,0,1-3.264,1.986c-2.194.58-5.721.737-6.938,1.362s-2.212,1.042-2.538,1.687-1.018,1.459-1,2.06,1.27,1.323.924,1.981-1.06.84-.281,1.685a26.7,26.7,0,0,0,2.724,2.7c.6.415,1.569.312,2.8.365s2.44.417,3.2-.4A3.016,3.016,0,0,0,25.71,29.7c-.325-.651.034-.706,1.173-.905s1.889-.863,2.7-.569,1.845,1.372,3.1,1.79a17.225,17.225,0,0,1,3.97,2.178,6.4,6.4,0,0,1,1.921,3.285c.386,1.149.509,1.813,1.821,2.506s2.039,1.312,2.829,1.084a3.171,3.171,0,0,1,2.643.556,38.081,38.081,0,0,0,3.829,2.21,11.973,11.973,0,0,0,2.978.848,3.469,3.469,0,0,0,1.425-.087s-2.915-1.081-4.813-1.921-2.564-1.239-2.123-1.467c.3-.157,1.089.108,2.679.714a53.273,53.273,0,0,0,5.537,1.7,16.548,16.548,0,0,0,6.831.207c1.585-.194,2.383-.538,2.687-1.22.176-.4,1.648-.223,2.511-.155,2.207.173,2.729-.688,3.9-.522s3.044.832,5.075.294a3,3,0,0,0,1.863-.974c.323-.339,1.784.084,1.963.136,1.309.388,2.616,1.055,2.624,1.763a2.055,2.055,0,0,0,.6,1.887,2.6,2.6,0,0,0,1.855,1.113c.541.094.732.646,1.273,1.044a2.713,2.713,0,0,0,1.889.433,21.156,21.156,0,0,1,3.629.6,15.024,15.024,0,0,1,3.519.711,2.824,2.824,0,0,0,2.238.281,15.215,15.215,0,0,1,3.831-.076c1.488.155,1.732.472,3.687,1.425s4.8,2.816,6.025,3.125a7.419,7.419,0,0,1,2.7,1.034c1.278.735,1.868,1.561,2.671,1.761s3.039.808,4.653,1.3,3.317,1.716,4.288,1.968a31.9,31.9,0,0,0,5.175.569,7.656,7.656,0,0,0,4.256-.756c.979-.667,1.2-.976.7-1.092s-1.17.6-2.934.551-1.9-.349-2.454-.845-1.013-1.2-1.981-1.1-2.482.328-2.257-.157.3-.884-.438-1.22-2.74-.349-2.212-.706,1.5-.716.945-.95-1.485-.11-1.1-.635,1.774-1.483.908-1.9-1.215-.06-2.336-.226.315-.764,1.047-1.265c.6-.417-.207-1.328-1.17-2.5s-.092-1.393-1.43-1.992-1.821-.525-1.357-1.708,1.742-1.412,1.433-1.944a10.941,10.941,0,0,0-2.776-2.614c-1.43-1-2.249-1.344-2.645-2.231a10.185,10.185,0,0,0-1.131-2.194,3.652,3.652,0,0,0-2.414-1.349c-.9-.037-.926.433-1.627.38s-2.055-.438-3.026-.031a15.119,15.119,0,0,1-1.895.842,17.8,17.8,0,0,1-3.094.412c-.646.068-1.21.446-1.981.485a1.992,1.992,0,0,1-1.43-.344,8.247,8.247,0,0,0-4.6-.546c-1.577.454-1.569,1.162-2.616.955s-1.777.029-2.85-.15a9.069,9.069,0,0,0-3.125.042c-.47.171-.071.753-.722.772s-1.147.79-2.183.677a2.824,2.824,0,0,0-2.089.6,4.39,4.39,0,0,0-1.191,1.249c-.236.415.525.611.606.945s-.081.559-.779.627" transform="translate(25.642 18.199)" fill="#fdd03e"/>
            <path id="Trazado_994455" data-name="Trazado 994455" d="M25.849,12.461a1.437,1.437,0,0,0,.365.981c.291.367.735.339,1.433.037a7.949,7.949,0,0,1,2.467-.381c.667-.031.323-.341.291-.6s.533-.024,1.514.081,1.813.079,2.259.2.05.58.11.9.782.386.318.554-1.375.617-1.294.926.294.59.792.228.806-.932,1.407-.806a10.537,10.537,0,0,1,1.884.428,2.045,2.045,0,0,0,1.889-.228c.514-.3.632-.491.241-.85a1.708,1.708,0,0,0-1.294-.548c-.546.013-1.719-.024-1.813-.475s.181-.412,1.023-.262,1.11.173,1.21-.165.129-.937-.506-.953-1.908.066-2.488.016-1.052-.1-1.281-.388-.575-.4-1.21-.409A2.329,2.329,0,0,0,32,10.912a1.93,1.93,0,0,1-1.569.018c-.748-.281-.939-.677-1.532-.512a8.587,8.587,0,0,0-1.6.769c-.42.22-1.514.774-1.451,1.273" transform="translate(41.978 16.858)" fill="#fdd03e"/>
            <path id="Trazado_994456" data-name="Trazado 994456" d="M21.259,14.07c-.1.131.367.323.388.664s-.252,1,.213,1.181.96.53,1.178.15.352-.787.829-.73.656.357.968.559a3.664,3.664,0,0,0,1.929.079,3.272,3.272,0,0,0,1.79-1.034c.123-.325.892-.388,1.412-.459s.454-.464.422-.727-1.47-.32-1.735-.648-.525-1.094-1.173-1.052-.638.777-1,.984a6.3,6.3,0,0,1-2.553.265,3.864,3.864,0,0,0-2.669.769" transform="translate(34.504 19.57)" fill="#fdd03e"/>
            <path id="Trazado_994457" data-name="Trazado 994457" d="M31.164,7.966c.478.562-.386,1.493-.464,1.845s-.748.583-.5.9.89.554.785.869-.829.428-.635.824-.115.569.247,1,.462.677-.018,1.207a8.655,8.655,0,0,1-2.826,1.288c-.522.139-.577-.643-1.37-.441s-1.821-.522-2.467-1.774a2.344,2.344,0,0,1,.934-3.333A32.724,32.724,0,0,1,28.12,8.454c1.3-.677,2.692-.9,3.044-.488" transform="translate(38.269 12.601)" fill="#fdd03e"/>
            <path id="Trazado_994458" data-name="Trazado 994458" d="M21.771,14.268c-.281.381-.5.9-.415,1.1s.842.047,1.467-.031,1.763-.06,2.215-.569a12.365,12.365,0,0,1,1.842-1.21,4.7,4.7,0,0,1,2.044-1.034c.908-.092,1.475-.118,1.349-.388s-.911-.129-1.42-.577a11.053,11.053,0,0,0-1.488-.9,1.671,1.671,0,0,0-1.819.16c-.8.462-1.561,1.519-2.265,1.926a5.225,5.225,0,0,0-1.512,1.525" transform="translate(34.656 16.984)" fill="#fdd03e"/>
            <path id="Trazado_994459" data-name="Trazado 994459" d="M24.2,11.847c-.339.244-.018.517.084.84s.4.252.979.323,1.21-.026.724-.68-.737-1.239-1.787-.483" transform="translate(39.058 18.662)" fill="#fdd03e"/>
            <path id="Trazado_994460" data-name="Trazado 994460" d="M27.509,12.958c-.38.4-.963.632-.858.979s.6-.029,1.055.388-.36.782-.564,1.257.073.593.819.672,1.522.262,1.91-.239a2.274,2.274,0,0,1,2.238-.913,6.284,6.284,0,0,1,3.138,1.136c.362.451.436.714.722.879s1.008.711,1.5.6a1.58,1.58,0,0,1,1.4.535,4.582,4.582,0,0,0,2.265.879c1.239.276,2.322.614,3.566.937a2.585,2.585,0,0,0,1.942-.155c.517-.1,1.609.136,1.685-.236s-1.225-1.149-1.412-1.674-1.294-.879-1.071-1.212.974-.714.837-1.32-1.018-.963-.22-1.449.737-.96.816-1.792a1.215,1.215,0,0,0-1.1-1.344c-.514-.031-1.362-.433-1.328-.832s.092-.74-.68-1.183S42.653,7.447,42.094,7.5s-1.052.16-1.312-.276a4.424,4.424,0,0,1-.53-1.8c-.005-.53-.126-.688-1-.488s-.556,1.11-1.386,1.181-1.32-.278-2.606-.273a6.356,6.356,0,0,0-3.238.727c-.816.5-.711.688-.493,1.121s-.239.215-.858.651A2.036,2.036,0,0,0,29.847,9.6a2.505,2.505,0,0,1-.918,1.139,3.372,3.372,0,0,0-1.113,1.076c-.226.42-.139.963-.307,1.142" transform="translate(43.265 7.876)" fill="#fdd03e"/>
            <path id="Trazado_994461" data-name="Trazado 994461" d="M35.122,18.785,21.151,18.2l-.31-2.5,13.971.58Z" transform="translate(33.85 25.508)" fill="#ff403a"/>
            <path id="Trazado_994462" data-name="Trazado 994462" d="M27.878,22.967l-1-8.067-4.33-.178,1.005,8.067Z" transform="translate(36.618 23.909)" fill="#ff403a"/>
            <path id="Trazado_994463" data-name="Trazado 994463" d="M76.187,58.349c-5.815,0-10.935-1.619-14.3-4.38-4.674-3.831-5.841-9.481-3.207-15.5,5.826-13.307,6.185-20.258,1.2-23.245-15.123-9.053-33.19,6.382-33.369,6.539a.817.817,0,1,1-1.073-1.233c.189-.168,19.133-16.38,35.284-6.707,7.337,4.39,4.075,14.756-.541,25.3C57.825,44.5,58.8,49.322,62.921,52.7c6.66,5.461,20.789,6.051,32.907-2.419a.819.819,0,0,1,.937,1.344,36.262,36.262,0,0,1-20.579,6.723" transform="translate(40.853 17.456)" fill="#ff403a"/>
            <path id="Trazado_994464" data-name="Trazado 994464" d="M54.053,32.253,59.328,29.2v-7.13l-5.275,3.055Z" transform="translate(87.791 35.841)" fill="#cc9669"/>
            <path id="Trazado_994465" data-name="Trazado 994465" d="M59.863,33.7l-9.387-5.39V21.177l9.387,5.393Z" transform="translate(81.981 34.394)" fill="#af744b"/>
            <path id="Trazado_994466" data-name="Trazado 994466" d="M50.476,23.092,55.75,20l9.387,5.432-5.275,3.052Z" transform="translate(81.98 32.479)" fill="#e5b483"/>
            <path id="Trazado_994467" data-name="Trazado 994467" d="M61.8,25.911l-9.35-5.471-1.162.682,9.392,5.424Z" transform="translate(83.303 33.197)" fill="#e6f2fb"/>
            <path id="Trazado_994468" data-name="Trazado 994468" d="M53.21,23.52l1.761,1.008V23.94L53.21,22.932Z" transform="translate(86.421 37.244)" fill="#4f3745"/>
            <path id="Trazado_994469" data-name="Trazado 994469" d="M53.21,23.532l1.761,1.008v-.294L53.21,23.238Z" transform="translate(86.421 37.741)" fill="#4f3745"/>
            <path id="Trazado_994470" data-name="Trazado 994470" d="M53.21,23.723l1.761,1.008v-.294L53.21,23.429Z" transform="translate(86.421 38.052)" fill="#4f3745"/>
            <path id="Trazado_994471" data-name="Trazado 994471" d="M53.21,25.181l1.761,1.008V24.65L53.21,23.643Z" transform="translate(86.421 38.398)" fill="#e6f2fb"/>
            <path id="Trazado_994472" data-name="Trazado 994472" d="M55.98,22.52l-1.11.64v2.561l1.11-.64Z" transform="translate(89.117 36.575)" fill="#badaf6"/>
            <path id="Trazado_994473" data-name="Trazado 994473" d="M51.955,25.562c0,.058-.013.081-.031.1a.213.213,0,0,1-.155-.178.076.076,0,0,0-.152,0,.356.356,0,0,0,.307.331.167.167,0,0,0,.139-.071.32.32,0,0,0,.045-.178V24.394l.669.386a1.779,1.779,0,0,0-.745-1.422c-.412-.239-.745.013-.745.562l.669.386Z" transform="translate(83.296 37.789)" fill="#4f3745"/>
            <path id="Trazado_994474" data-name="Trazado 994474" d="M50.652,25.759l1.338.771V23.468l-1.338-.774Zm.071-2.942,1.2.69v2.9l-1.2-.69Z" transform="translate(82.266 36.857)" fill="#4f3745"/>
            <path id="Trazado_994475" data-name="Trazado 994475" d="M51.229,23.021v3.065l1.834,1.055V24.076Zm1.763,4L51.3,26.044v-2.9l1.693.974Z" transform="translate(83.204 37.388)" fill="#4f3745"/>
            <path id="Trazado_994476" data-name="Trazado 994476" d="M50.748,24.013a1.085,1.085,0,0,0,.318.732v.541l-.2-.118c-.063-.034-.113,0-.113.084a.262.262,0,0,0,.113.213l.632.367c.06.034.11,0,.11-.087a.271.271,0,0,0-.11-.213l-.2-.118v-.541c.181.037.315-.1.315-.367V23.344l-.855-.5Z" transform="translate(82.422 37.107)" fill="#4f3745"/>
            <path id="Trazado_994477" data-name="Trazado 994477" d="M27.561,56.444l5.311-3.076v-7.18l-5.311,3.076Z" transform="translate(44.763 75.016)" fill="#cc9669"/>
            <path id="Trazado_994478" data-name="Trazado 994478" d="M33.411,57.9l-9.452-5.429v-7.18l9.452,5.429Z" transform="translate(38.913 73.559)" fill="#af744b"/>
            <path id="Trazado_994479" data-name="Trazado 994479" d="M23.959,47.219,29.27,44.1l9.455,5.469-5.314,3.076Z" transform="translate(38.912 71.631)" fill="#e5b483"/>
            <path id="Trazado_994480" data-name="Trazado 994480" d="M35.365,50.057l-9.415-5.508-1.17.685L34.236,50.7Z" transform="translate(40.245 72.353)" fill="#e6f2fb"/>
            <path id="Trazado_994481" data-name="Trazado 994481" d="M26.712,47.649l1.771,1.016v-.593l-1.771-1.013Z" transform="translate(43.384 76.43)" fill="#4f3745"/>
            <path id="Trazado_994482" data-name="Trazado 994482" d="M26.712,47.663l1.771,1.016v-.3l-1.771-1.016Z" transform="translate(43.384 76.929)" fill="#4f3745"/>
            <path id="Trazado_994483" data-name="Trazado 994483" d="M26.712,47.855l1.771,1.016v-.3l-1.771-1.016Z" transform="translate(43.384 77.241)" fill="#4f3745"/>
            <path id="Trazado_994484" data-name="Trazado 994484" d="M26.712,49.322l1.771,1.016V48.79l-1.771-1.016Z" transform="translate(43.384 77.591)" fill="#e6f2fb"/>
            <path id="Trazado_994485" data-name="Trazado 994485" d="M29.5,46.643l-1.118.646v2.58L29.5,49.22Z" transform="translate(46.099 75.754)" fill="#badaf6"/>
            <path id="Trazado_994486" data-name="Trazado 994486" d="M25.448,49.707c0,.058-.013.081-.031.1a.212.212,0,0,1-.157-.178.076.076,0,0,0-.152,0,.361.361,0,0,0,.31.333.163.163,0,0,0,.139-.073.3.3,0,0,0,.047-.178V48.529l.674.391a1.8,1.8,0,0,0-.753-1.433c-.415-.239-.751.013-.751.564l.674.391Z" transform="translate(40.237 76.978)" fill="#4f3745"/>
            <path id="Trazado_994487" data-name="Trazado 994487" d="M24.137,49.9l1.346.777V47.6l-1.346-.777Zm.071-2.963,1.2.7v2.921l-1.2-.7Z" transform="translate(39.202 76.04)" fill="#4f3745"/>
            <path id="Trazado_994488" data-name="Trazado 994488" d="M24.717,47.148v3.086L26.562,51.3V48.211Zm1.774,4.025-1.7-.981V47.271l1.7.981Z" transform="translate(40.144 76.574)" fill="#4f3745"/>
            <path id="Trazado_994489" data-name="Trazado 994489" d="M24.233,48.147a1.089,1.089,0,0,0,.32.737v.546l-.207-.121c-.063-.034-.113,0-.113.084a.264.264,0,0,0,.113.215l.638.367c.06.037.113,0,.113-.084a.27.27,0,0,0-.113-.213l-.207-.121v-.546c.184.039.32-.1.32-.367V47.473l-.863-.5Z" transform="translate(39.358 76.292)" fill="#4f3745"/>
            <path id="Trazado_994490" data-name="Trazado 994490" d="M40.023,55.248,27.141,47.811V37.236l12.882,7.439Z" transform="translate(44.081 60.476)" fill="#cc9669"/>
            <path id="Trazado_994491" data-name="Trazado 994491" d="M32.05,55.1l12.627-7.2V37.329l-12.627,7.2Z" transform="translate(52.054 60.627)" fill="#bf855a"/>
            <path id="Trazado_994492" data-name="Trazado 994492" d="M52.65,41.967,39.768,34.472,27.141,41.726l12.882,7.437Z" transform="translate(44.081 55.987)" fill="#e5b483"/>
            <path id="Trazado_994493" data-name="Trazado 994493" d="M43.45,43.143,30.589,35.659l-1.128.646,12.908,7.453Z" transform="translate(47.849 57.914)" fill="#e6f2fb"/>
            <path id="Trazado_994494" data-name="Trazado 994494" d="M30.849,40.555l2.608,1.5v-.871l-2.608-1.5Z" transform="translate(50.104 64.45)" fill="#4f3745"/>
            <path id="Trazado_994495" data-name="Trazado 994495" d="M30.849,40.572l2.608,1.5v-.436l-2.608-1.5Z" transform="translate(50.104 65.187)" fill="#4f3745"/>
            <path id="Trazado_994496" data-name="Trazado 994496" d="M30.849,40.856l2.608,1.5v-.436l-2.608-1.5Z" transform="translate(50.104 65.647)" fill="#4f3745"/>
            <path id="Trazado_994497" data-name="Trazado 994497" d="M30.849,43.017l2.608,1.5v-2.28l-2.608-1.5Z" transform="translate(50.104 66.161)" fill="#e6f2fb"/>
            <path id="Trazado_994498" data-name="Trazado 994498" d="M35.452,38.506l-1.071.619v2.469l1.071-.619Z" transform="translate(55.84 62.539)" fill="#badaf6"/>
            <path id="Trazado_994499" data-name="Trazado 994499" d="M28.855,43.3c0,.071-.016.1-.037.121a.263.263,0,0,1-.194-.22.094.094,0,0,0-.094-.094.1.1,0,0,0-.094.094.44.44,0,0,0,.383.407.207.207,0,0,0,.171-.089.377.377,0,0,0,.055-.218V41.856l.827.478a2.218,2.218,0,0,0-.921-1.758c-.509-.291-.921.018-.921.7l.827.478Z" transform="translate(45.522 65.722)" fill="#4f3745"/>
            <path id="Trazado_994500" data-name="Trazado 994500" d="M27.246,43.542l1.651.953V40.713l-1.651-.955Zm.087-3.632,1.477.853v3.579l-1.477-.85Z" transform="translate(44.252 64.572)" fill="#4f3745"/>
            <path id="Trazado_994501" data-name="Trazado 994501" d="M27.958,40.162v3.781l2.262,1.3V41.464ZM30.133,45.1l-2.089-1.2V40.314l2.089,1.2Z" transform="translate(45.408 65.228)" fill="#4f3745"/>
            <path id="Trazado_994502" data-name="Trazado 994502" d="M27.364,41.387a1.339,1.339,0,0,0,.391.9v.669l-.255-.147c-.073-.042-.136,0-.136.1a.338.338,0,0,0,.136.262l.782.451c.076.042.139,0,.139-.1a.333.333,0,0,0-.139-.262l-.252-.144v-.672c.223.05.391-.126.391-.451V40.56l-1.058-.611Z" transform="translate(44.443 64.882)" fill="#4f3745"/>
            <path id="Trazado_994503" data-name="Trazado 994503" d="M29.715,55.024,15.88,47.036V35.678l13.835,7.988Z" transform="translate(25.792 57.946)" fill="#d7eaf7"/>
            <path id="Trazado_994504" data-name="Trazado 994504" d="M18.954,40.185l-2.837-1.637V36.22l2.837,1.637Z" transform="translate(26.176 58.826)" fill="#fff"/>
            <path id="Trazado_994505" data-name="Trazado 994505" d="M18.954,39.4l-2.837-1.637v-.415l2.837,1.637Z" transform="translate(26.176 60.65)" fill="#4f3745"/>
            <path id="Trazado_994506" data-name="Trazado 994506" d="M18.954,39.651l-2.837-1.637V37.6l2.837,1.637Z" transform="translate(26.176 61.066)" fill="#4f3745"/>
            <path id="Trazado_994507" data-name="Trazado 994507" d="M18.954,39.938,16.117,38.3v-.415l2.837,1.637Z" transform="translate(26.176 61.53)" fill="#4f3745"/>
            <path id="Trazado_994508" data-name="Trazado 994508" d="M19.862,40.186V40.6l2.524,1.454v-.415Z" transform="translate(32.259 65.266)" fill="#4f3745"/>
            <path id="Trazado_994509" data-name="Trazado 994509" d="M21.152,55.024l13.835-7.988V35.678L21.152,43.666Z" transform="translate(34.354 57.946)" fill="#badaf6"/>
            <path id="Trazado_994510" data-name="Trazado 994510" d="M25.443,36.976,23.4,38.156V42.8l2.044-1.181Z" transform="translate(38.003 60.053)" fill="#ffc033"/>
            <path id="Trazado_994511" data-name="Trazado 994511" d="M43.549,40.661,29.715,32.611,15.88,40.661l13.835,7.988Z" transform="translate(25.792 52.963)" fill="#e6f2fb"/>
            <path id="Trazado_994512" data-name="Trazado 994512" d="M34.063,41.959,20.228,33.908l-2.115,1.241,13.835,7.988Z" transform="translate(29.418 55.07)" fill="#fdd03e"/>
            <path id="Trazado_994513" data-name="Trazado 994513" d="M20.863,44.013c0,.081-.018.115-.045.136A.3.3,0,0,1,20.6,43.9a.108.108,0,0,0-.108-.108.106.106,0,0,0-.108.108.5.5,0,0,0,.433.464.236.236,0,0,0,.2-.1.433.433,0,0,0,.063-.249V42.363l.945.546A2.524,2.524,0,0,0,20.97,40.9c-.58-.333-1.052.021-1.052.8l.945.546Z" transform="translate(32.35 66.221)" fill="#4f3745"/>
            <path id="Trazado_994514" data-name="Trazado 994514" d="M19.024,44.291l1.889,1.089V41.053l-1.889-1.089Zm.1-4.154,1.687.974v4.1l-1.687-.974Z" transform="translate(30.898 64.906)" fill="#4f3745"/>
            <path id="Trazado_994515" data-name="Trazado 994515" d="M19.838,40.426v4.325l2.587,1.491V41.914Zm2.488,5.642-2.388-1.375V40.6l2.388,1.372Z" transform="translate(32.22 65.657)" fill="#4f3745"/>
            <path id="Trazado_994516" data-name="Trazado 994516" d="M19.159,41.826a1.532,1.532,0,0,0,.446,1.031v.766l-.289-.168c-.087-.05-.157.005-.157.121a.379.379,0,0,0,.157.3l.895.517c.087.05.155-.005.155-.121a.377.377,0,0,0-.155-.3L19.92,43.8v-.764c.257.052.446-.147.446-.517V40.878l-1.207-.7Z" transform="translate(31.117 65.262)" fill="#4f3745"/>
            <path id="Trazado_994517" data-name="Trazado 994517" d="M69.852,37.855,58.615,31.368V22.142l11.237,6.49Z" transform="translate(95.2 35.96)" fill="#d7eaf7"/>
            <path id="Trazado_994518" data-name="Trazado 994518" d="M61.111,25.8l-2.3-1.33V22.582l2.3,1.33Z" transform="translate(95.512 36.675)" fill="#fff"/>
            <path id="Trazado_994519" data-name="Trazado 994519" d="M61.111,25.163l-2.3-1.33v-.339l2.3,1.33Z" transform="translate(95.512 38.156)" fill="#4f3745"/>
            <path id="Trazado_994520" data-name="Trazado 994520" d="M61.111,25.369l-2.3-1.33V23.7l2.3,1.328Z" transform="translate(95.512 38.496)" fill="#4f3745"/>
            <path id="Trazado_994521" data-name="Trazado 994521" d="M61.111,25.6l-2.3-1.33v-.336l2.3,1.328Z" transform="translate(95.512 38.873)" fill="#4f3745"/>
            <path id="Trazado_994522" data-name="Trazado 994522" d="M61.849,25.8v.339L63.9,27.323v-.339Z" transform="translate(100.452 41.907)" fill="#4f3745"/>
            <path id="Trazado_994523" data-name="Trazado 994523" d="M62.9,37.855l11.237-6.487V22.142L62.9,28.631Z" transform="translate(102.154 35.96)" fill="#badaf6"/>
            <path id="Trazado_994524" data-name="Trazado 994524" d="M66.383,23.2l-1.661.958v3.771l1.661-.96Z" transform="translate(105.118 37.672)" fill="#ffc033"/>
            <path id="Trazado_994525" data-name="Trazado 994525" d="M81.09,26.19,69.854,19.65,58.614,26.19l11.239,6.487Z" transform="translate(95.198 31.914)" fill="#e6f2fb"/>
            <path id="Trazado_994526" data-name="Trazado 994526" d="M73.384,27.244,62.147,20.7l-1.719,1.008L71.668,28.2Z" transform="translate(98.145 33.625)" fill="#fdd03e"/>
            <path id="Trazado_994527" data-name="Trazado 994527" d="M62.663,28.913c0,.066-.013.094-.034.11a.24.24,0,0,1-.178-.2.088.088,0,0,0-.176,0,.409.409,0,0,0,.354.378.185.185,0,0,0,.157-.084.343.343,0,0,0,.052-.2V27.572l.766.443a2.045,2.045,0,0,0-.855-1.632c-.47-.273-.853.016-.855.646l.769.443Z" transform="translate(100.525 42.683)" fill="#4f3745"/>
            <path id="Trazado_994528" data-name="Trazado 994528" d="M61.168,29.137l1.535.887V26.51l-1.535-.887Zm.081-3.372,1.372.792v3.325l-1.372-.79Z" transform="translate(99.346 41.614)" fill="#4f3745"/>
            <path id="Trazado_994529" data-name="Trazado 994529" d="M61.83,26v3.516l2.1,1.21V27.208Zm2.021,4.584-1.939-1.115V26.14l1.939,1.115Z" transform="translate(100.421 42.223)" fill="#4f3745"/>
            <path id="Trazado_994530" data-name="Trazado 994530" d="M61.278,27.136a1.245,1.245,0,0,0,.362.84V28.6l-.234-.136c-.071-.042-.129,0-.129.094a.3.3,0,0,0,.129.244l.724.42c.071.042.129,0,.129-.1a.3.3,0,0,0-.129-.241l-.234-.136v-.622c.207.045.362-.118.362-.42V26.367l-.981-.567Z" transform="translate(99.525 41.902)" fill="#4f3745"/>
            <path id="Trazado_994531" data-name="Trazado 994531" d="M64.767,31.341l5.92-3.427v-8l-5.92,3.427Z" transform="translate(105.192 32.34)" fill="#cc9669"/>
            <path id="Trazado_994532" data-name="Trazado 994532" d="M71.287,32.965,60.753,26.916v-8l10.533,6.051Z" transform="translate(98.673 30.716)" fill="#af744b"/>
            <path id="Trazado_994533" data-name="Trazado 994533" d="M60.753,21.062l5.92-3.472,10.533,6.1-5.92,3.425Z" transform="translate(98.672 28.568)" fill="#e5b483"/>
            <path id="Trazado_994534" data-name="Trazado 994534" d="M73.464,24.226,62.973,18.085l-1.307.766,10.541,6.088Z" transform="translate(100.155 29.372)" fill="#e6f2fb"/>
            <path id="Trazado_994535" data-name="Trazado 994535" d="M63.821,21.541,65.8,22.672v-.659l-1.976-1.131Z" transform="translate(103.655 33.915)" fill="#4f3745"/>
            <path id="Trazado_994536" data-name="Trazado 994536" d="M63.821,21.556,65.8,22.687v-.331l-1.976-1.131Z" transform="translate(103.655 34.472)" fill="#4f3745"/>
            <path id="Trazado_994537" data-name="Trazado 994537" d="M63.821,21.77,65.8,22.9v-.328L63.821,21.44Z" transform="translate(103.655 34.82)" fill="#4f3745"/>
            <path id="Trazado_994538" data-name="Trazado 994538" d="M63.821,23.406,65.8,24.537V22.81l-1.976-1.131Z" transform="translate(103.655 35.209)" fill="#e6f2fb"/>
            <path id="Trazado_994539" data-name="Trazado 994539" d="M66.93,20.42l-1.246.719v2.873l1.246-.719Z" transform="translate(106.68 33.163)" fill="#badaf6"/>
            <path id="Trazado_994540" data-name="Trazado 994540" d="M62.413,23.834c0,.066-.013.092-.034.108a.237.237,0,0,1-.176-.2.085.085,0,1,0-.171,0,.4.4,0,0,0,.346.37.185.185,0,0,0,.155-.081.34.34,0,0,0,.05-.2V22.522l.753.433a2.01,2.01,0,0,0-.837-1.6c-.462-.268-.837.016-.837.63l.751.436Z" transform="translate(100.148 34.526)" fill="#4f3745"/>
            <path id="Trazado_994541" data-name="Trazado 994541" d="M60.951,24.055l1.5.866V21.484l-1.5-.869Zm.079-3.3,1.344.774v3.257l-1.344-.777Z" transform="translate(98.994 33.481)" fill="#4f3745"/>
            <path id="Trazado_994542" data-name="Trazado 994542" d="M61.6,20.982V24.42l2.055,1.186v-3.44Zm1.976,4.485-1.9-1.092V21.118l1.9,1.094Z" transform="translate(100.046 34.077)" fill="#4f3745"/>
            <path id="Trazado_994543" data-name="Trazado 994543" d="M61.058,22.095a1.222,1.222,0,0,0,.354.821v.606l-.228-.131c-.071-.039-.126,0-.126.094a.3.3,0,0,0,.126.239l.709.409c.071.039.126,0,.126-.094a.3.3,0,0,0-.126-.239l-.228-.131v-.609c.2.042.354-.118.354-.412v-1.3l-.96-.556Z" transform="translate(99.167 33.762)" fill="#4f3745"/>
          </g>
        </g>
      </g>
    </g>
  </g>
</svg>
