<svg xmlns="http://www.w3.org/2000/svg" xmlns:xlink="http://www.w3.org/1999/xlink" width="189.962" height="182.038" viewBox="0 0 189.962 182.038">
  <defs>
    <clipPath id="clip-path">
      <rect id="Rectángulo_455146" data-name="Rectángulo 455146" width="170.218" height="182.038" fill="none"/>
    </clipPath>
  </defs>
  <g id="Grupo_1179120" data-name="Grupo 1179120" transform="translate(-9218.5 6198.519)">
    <g id="Grupo_1178575" data-name="Grupo 1178575" transform="translate(8515 -11387)">
      <rect id="Rectángulo_401036" data-name="Rectángulo 401036" width="149" height="147" rx="40" transform="translate(705 5206)" fill="none" stroke="#1e3a8a" stroke-miterlimit="10" stroke-width="3"/>
      <g id="Grupo_1178713" data-name="Grupo 1178713" transform="translate(723.244 5188.481)">
        <g id="Grupo_1178712" data-name="Grupo 1178712" clip-path="url(#clip-path)">
          <path id="Trazado_998562" data-name="Trazado 998562" d="M557.653,571.56a9.318,9.318,0,0,1-3.166.553,3.757,3.757,0,0,0-1.684.424c-4.177,2.183-7.586,2.506-10.287,1.085a1.549,1.549,0,0,1-.8-.923,1.647,1.647,0,0,1,.142-1.2,1.67,1.67,0,0,0,.66.6c2.7,1.422,6.11,1.1,10.287-1.085a3.762,3.762,0,0,1,1.684-.425,9.318,9.318,0,0,0,3.166-.552,4.142,4.142,0,0,0,2.54-3.2c.02.121.034.243.047.364a4.227,4.227,0,0,1-2.587,4.359" transform="translate(-403.296 -422.044)" fill="#46c17e"/>
          <path id="Trazado_998563" data-name="Trazado 998563" d="M627.972,592.447c1.546,6.938.558,11.252-3.3,12.595-3.818,1.078-6.145.512-4.993-3.895a10.861,10.861,0,0,1,.363-1.089,16.718,16.718,0,0,0,.862-7.47Z" transform="translate(-461.166 -441.112)" fill="#54d391"/>
          <path id="Trazado_998564" data-name="Trazado 998564" d="M624.853,605.044c-2.836.8-4.844.694-5.228-1.213a8.114,8.114,0,0,0,3.624-.391c3.55-1.233,4.675-4.985,3.625-10.968l1.28-.027c1.543,6.939.559,11.25-3.3,12.6" transform="translate(-461.348 -441.111)" fill="#46c17e"/>
          <path id="Trazado_998565" data-name="Trazado 998565" d="M559.22,558.376a3.984,3.984,0,0,1,1.012,2.524,4.233,4.233,0,0,1-2.59,4.36,9.261,9.261,0,0,1-3.165.55,3.8,3.8,0,0,0-1.681.424c-4.176,2.185-7.589,2.506-10.291,1.09a1.566,1.566,0,0,1-.8-.927c-.592-2.075,3.407-4.45,10.24-7.748Z" transform="translate(-403.287 -415.744)" fill="#54d391"/>
          <path id="Trazado_998566" data-name="Trazado 998566" d="M550.247,307.7l-.092,14.221a42.715,42.715,0,0,0,1.291,10.9,28.786,28.786,0,0,0,3.45,8.406,13.318,13.318,0,0,1,2.072,6.5l1.206,22.989c-.187,3.085,7.2,3.534,7.382.448l1.035-19.613a19.944,19.944,0,0,0-1.056-7.536l-1.408-4.095a6.983,6.983,0,0,1-.028-4.458l2.7-8.168-1.664-14.152-11.18-6.2Z" transform="translate(-409.622 -228.541)" fill="#353437"/>
          <path id="Trazado_998567" data-name="Trazado 998567" d="M589.788,360.325a20.043,20.043,0,0,1,1.058,7.539l-1.038,19.611c-.067,1.132-1.1,1.785-2.371,2.007a11.017,11.017,0,0,1-.734-2.371l-.99-4.426a9.44,9.44,0,0,1-.344-2.964,19.145,19.145,0,0,1,.835-3.025,18.242,18.242,0,0,0,.4-4.884,24.035,24.035,0,0,0-.916-7.794c-.606-1.718-1.59-3.288-2.216-5.006a12.837,12.837,0,0,1,.472-9.748c.714-1.509,1.751-2.944,1.893-4.608.162-1.914-.9-3.712-1.165-5.619a10.963,10.963,0,0,1,.047-2.856,11.206,11.206,0,0,1,2.607-6.575,5.109,5.109,0,0,1,.95-.761l1.112.613,1.664,14.147-2.695,8.172a6.951,6.951,0,0,0,.027,4.453Z" transform="translate(-433.875 -244.844)" fill="#29282b"/>
          <path id="Trazado_998568" data-name="Trazado 998568" d="M603.072,308.08c2.529,2.664,2.071,9.838.57,18.586l-2.5,16.088a4.959,4.959,0,0,0,.388,2.828c3.947,8.6,3.492,20.344-.063,34.294-.259,2.288-7.076,2.893-7.076,0,.16-9.153-.109-18.174-.755-27.077l-3.113-8.821-2.01-16.185a37.045,37.045,0,0,0-3.884-12.5l-.844-1.625,13.059-6.719Z" transform="translate(-434.667 -228.541)" fill="#353437"/>
          <path id="Trazado_998569" data-name="Trazado 998569" d="M638.993,346.05a4.959,4.959,0,0,0,.388,2.828c3.948,8.605,3.49,20.345-.063,34.3-.081.674-.714,1.2-1.583,1.536a19.328,19.328,0,0,1,.31-10.341c.364-1.152.836-2.277,1.146-3.449a26.215,26.215,0,0,0,.451-7.788,5.751,5.751,0,0,0-.5-2.553c-.276-.505-.694-.916-.937-1.435a6.4,6.4,0,0,1-.269-2.688c-.041-4.042-2.762-7.613-3.24-11.628-.606-5.147,2.553-10.159,2.082-15.326-.135-1.482-.566-2.924-.755-4.406a15.642,15.642,0,0,1,2.237-9.9,14.5,14.5,0,0,1,2.657-3.815c2.631,2.893,2.012,10.181.57,18.588Z" transform="translate(-472.512 -231.84)" fill="#29282b"/>
          <path id="Trazado_998570" data-name="Trazado 998570" d="M613.748,90.987c3.79.081,5.644,2.647,5.519,7.754a23.6,23.6,0,0,1-2.2,8.682,2.936,2.936,0,0,0-.29,2.077l1.137,4.865-3.307,1.24-2.812-7.2c-.153-2.148-1.525-4.6-3.075-7.092,0,0,3.661-8.284,3.661-8.577s1.363-1.75,1.363-1.75" transform="translate(-453.231 -67.745)" fill="#353437"/>
          <path id="Trazado_998571" data-name="Trazado 998571" d="M630.569,109.512l1.14,4.867-3.306,1.236-.149-.386,1.824-.684-1.14-4.867a3,3,0,0,1,.29-2.078,23.589,23.589,0,0,0,2.2-8.681c.105-4.472-1.3-6.989-4.183-7.6.167-.184.289-.316.289-.316,3.8.079,5.647,2.639,5.524,7.752a23.591,23.591,0,0,1-2.2,8.681,2.957,2.957,0,0,0-.289,2.078" transform="translate(-467.022 -67.756)" fill="#1a1a1c"/>
          <path id="Trazado_998572" data-name="Trazado 998572" d="M99.922,81.134a.564.564,0,0,1-.245-1.073,7.448,7.448,0,0,1,1.695-.575.564.564,0,1,1,.233,1.1,6.338,6.338,0,0,0-1.439.487.554.554,0,0,1-.244.056" transform="translate(-73.978 -59.173)" fill="#dde9fe"/>
          <path id="Trazado_998573" data-name="Trazado 998573" d="M116.935,130.543h0q-1.661-.007-3.321-.043a.564.564,0,1,1,.025-1.128q1.65.036,3.3.043a.564.564,0,0,1,0,1.128m3.311-.016a.564.564,0,0,1-.008-1.128q1.65-.023,3.3-.075h.018a.564.564,0,0,1,.018,1.128q-1.66.052-3.32.075Zm-9.931-.129h-.023q-1.659-.066-3.317-.161a.564.564,0,1,1,.065-1.127q1.648.1,3.3.16a.564.564,0,0,1-.021,1.128m-6.61-.38h-.043q-1.655-.125-3.309-.279a.564.564,0,0,1-.51-.614.557.557,0,0,1,.614-.509q1.644.153,3.29.277a.564.564,0,0,1-.042,1.127M97.11,129.4a.529.529,0,0,1-.063,0l-.856-.1q-1.222-.141-2.444-.3a.564.564,0,0,1,.152-1.119c.807.11,1.616.209,2.423.3l.85.1a.564.564,0,0,1-.061,1.125m-6.559-.91a.542.542,0,0,1-.1-.009c-1.167-.21-2.238-.437-3.274-.692a.564.564,0,0,1,.271-1.1c1.011.25,2.059.472,3.2.678a.564.564,0,0,1-.1,1.12m-6.417-1.611a.554.554,0,0,1-.182-.03q-.627-.214-1.247-.452c-.636-.244-1.269-.513-1.883-.8a.564.564,0,0,1,.478-1.022c.59.275,1.2.534,1.81.769q.6.231,1.206.437a.564.564,0,0,1-.182,1.1m-5.98-2.812a.558.558,0,0,1-.3-.087,23.316,23.316,0,0,1-2.731-2.009.564.564,0,1,1,.734-.857,22.259,22.259,0,0,0,2.6,1.911.564.564,0,0,1-.3,1.041m-4.988-4.314a.563.563,0,0,1-.435-.2c-.386-.466-.749-.952-1.081-1.443a14.011,14.011,0,0,1-.83-1.4.564.564,0,0,1,1-.517,12.823,12.823,0,0,0,.763,1.287c.311.462.652.918,1.014,1.354a.564.564,0,0,1-.435.924m-1.223-11.986a.564.564,0,0,1-.415-.947,15.376,15.376,0,0,1,2.645-2.185.564.564,0,1,1,.638.931,14.32,14.32,0,0,0-2.454,2.019.565.565,0,0,1-.415.181m5.3-3.952a.564.564,0,0,1-.331-1.022,23.8,23.8,0,0,0,2.481-2.072.564.564,0,1,1,.777.818,24.787,24.787,0,0,1-2.6,2.169.561.561,0,0,1-.329.107M82.064,99.3a.564.564,0,0,1-.424-.936c.631-.72,1.3-1.523,2.1-2.527a.564.564,0,0,1,.883.7c-.812,1.019-1.489,1.835-2.132,2.568a.562.562,0,0,1-.424.192m4.153-5.157a.564.564,0,0,1-.45-.9A17.858,17.858,0,0,0,87.5,90.55a.564.564,0,0,1,1.011.5,18.819,18.819,0,0,1-1.842,2.871.562.562,0,0,1-.451.225M88.9,88.2H88.87a.564.564,0,0,1-.532-.594c.006-.116.01-.233.01-.349a6.82,6.82,0,0,0-.542-2.633.564.564,0,0,1,1.04-.439,7.962,7.962,0,0,1,.63,3.072q0,.206-.011.41a.564.564,0,0,1-.563.533m-2.5-5.894a.562.562,0,0,1-.368-.136q-.164-.141-.337-.271a6.437,6.437,0,0,0-2.352-1.095.564.564,0,0,1,.266-1.1A7.56,7.56,0,0,1,86.377,81c.136.1.268.208.4.318a.564.564,0,0,1-.368.992" transform="translate(-52.685 -59.336)" fill="#dde9fe"/>
          <path id="Trazado_998574" data-name="Trazado 998574" d="M288.887,274.332a.564.564,0,0,1-.027-1.128q.824-.041,1.649-.089a.564.564,0,0,1,.066,1.127q-.83.049-1.66.089h-.028" transform="translate(-214.674 -203.35)" fill="#dde9fe"/>
          <path id="Trazado_998575" data-name="Trazado 998575" d="M72.625,57.934a.207.207,0,0,0,.1-.388q-.249-.141-.5-.278a.207.207,0,1,0-.2.364q.249.136.5.275a.2.2,0,0,0,.1.027" transform="translate(-53.548 -42.62)" fill="#526a70"/>
          <path id="Trazado_998576" data-name="Trazado 998576" d="M86.2,66.275q-.465-.319-.935-.629a.207.207,0,1,1,.229-.346q.472.312.94.633a.207.207,0,1,1-.234.342" transform="translate(-63.416 -48.594)" fill="#526a70"/>
          <path id="Trazado_998577" data-name="Trazado 998577" d="M78.749,61.524q-.477-.3-.959-.59A.207.207,0,1,1,78,60.579q.487.291.966.594a.207.207,0,1,1-.22.351" transform="translate(-57.844 -45.083)" fill="#526a70"/>
          <path id="Trazado_998578" data-name="Trazado 998578" d="M24,20.2l-1.458,5.916L5.248,11.956,0,8.028,20.354,16.27Z" transform="translate(0 -5.977)" fill="#c7d8ef"/>
          <path id="Trazado_998579" data-name="Trazado 998579" d="M0,8.028l32.466,7.009L24,20.2Z" transform="translate(0 -5.977)" fill="#dde9fe"/>
          <path id="Trazado_998580" data-name="Trazado 998580" d="M90.161,35.467,77.489,38.493l4.206,2.132Z" transform="translate(-57.695 -26.407)" fill="#a3bbd3"/>
          <path id="Trazado_998581" data-name="Trazado 998581" d="M66.62,47.315l-3.729,4.6h2.944l3.532,3.448,1.458-5.916Z" transform="translate(-46.826 -35.229)" fill="#b3c9e2"/>
          <path id="Trazado_998582" data-name="Trazado 998582" d="M70.938,61.37l1.29,4.458-5.5-4.458Z" transform="translate(-49.686 -45.694)" fill="#c7d8ef"/>
          <path id="Trazado_998583" data-name="Trazado 998583" d="M0,8.028l12.112,18.9,9.14-5.271Z" transform="translate(0 -5.977)" fill="#dde9fe"/>
          <path id="Trazado_998584" data-name="Trazado 998584" d="M52.636,51.531l-5.22,7.784,9.14-5.271Z" transform="translate(-35.304 -38.368)" fill="#a3bbd3"/>
          <path id="Trazado_998585" data-name="Trazado 998585" d="M122.838,110.815a16.679,16.679,0,0,1-7.559,13.105L16.418,181c-2.155,1.237-4.1,1.33-5.482.476l-3.129-1.82c-1.358-.789-2.2-2.475-2.2-4.864L5.4,71.215a16.667,16.667,0,0,1,7.559-13.1L111.831,1.039c2.1-1.216,4.018-1.33,5.39-.526l3.214,1.863a2.255,2.255,0,0,0-.291-.149c1.529.711,2.5,2.46,2.5,5.013Z" transform="translate(-4.023 0.001)" fill="#dde9fe"/>
          <path id="Trazado_998586" data-name="Trazado 998586" d="M120.433,2.379c-1.383-.8-3.294-.688-5.4.529L16.172,59.989A16.646,16.646,0,0,0,8.61,73.081L8.8,176.663c.007,2.388.853,4.075,2.216,4.869l-3.211-1.87c-1.363-.794-2.2-2.474-2.21-4.869L5.4,71.218a16.675,16.675,0,0,1,7.561-13.1L111.83,1.045c2.1-1.217,4.016-1.33,5.391-.529Z" transform="translate(-4.02 -0.003)" fill="#92b2f9"/>
          <path id="Trazado_998587" data-name="Trazado 998587" d="M124.387,8.34c4.19-2.419,7.6-.478,7.611,4.337l.193,103.576a16.671,16.671,0,0,1-7.561,13.1L25.767,186.433c-4.19,2.419-7.6.473-7.611-4.342L17.963,78.515a16.663,16.663,0,0,1,7.561-13.1Z" transform="translate(-13.374 -5.435)" fill="#dde9fe"/>
          <path id="Trazado_998588" data-name="Trazado 998588" d="M39.1,95.99a11.412,11.412,0,0,1,4.862-8.4l98.375-56.8.192,102.968a11.416,11.416,0,0,1-4.861,8.41L39.3,198.963Z" transform="translate(-29.114 -22.924)" fill="#fff"/>
          <path id="Trazado_998589" data-name="Trazado 998589" d="M175.636,49.214a6.088,6.088,0,0,1-2.766,4.793L71.576,112.486a1.909,1.909,0,0,1-2.019.163l-2.162-1.244a1.94,1.94,0,0,1-.811-1.792l-.021-8.242a6.1,6.1,0,0,1,2.766-4.8L170.623,38.093A1.957,1.957,0,0,1,172.6,37.9l2.2,1.28a.751.751,0,0,0-.107-.05,1.875,1.875,0,0,1,.917,1.835Z" transform="translate(-49.56 -28.079)" fill="#285294"/>
          <path id="Trazado_998590" data-name="Trazado 998590" d="M174.8,39.181a1.965,1.965,0,0,0-1.976.194L71.531,97.856a6.094,6.094,0,0,0-2.77,4.795l.024,8.245a1.96,1.96,0,0,0,.81,1.782L67.39,111.4a1.941,1.941,0,0,1-.81-1.79l-.024-8.245a6.084,6.084,0,0,1,2.77-4.795L170.617,38.092a1.965,1.965,0,0,1,1.976-.194Z" transform="translate(-49.555 -28.078)" fill="#263966"/>
          <path id="Trazado_998591" data-name="Trazado 998591" d="M179.26,43.11c1.536-.887,2.781-.177,2.786,1.588l.024,8.247a6.093,6.093,0,0,1-2.768,4.794L78.009,116.22c-1.536.887-2.781.177-2.786-1.588l-.023-8.247a6.092,6.092,0,0,1,2.768-4.794Z" transform="translate(-55.991 -31.814)" fill="#285294"/>
          <path id="Trazado_998592" data-name="Trazado 998592" d="M96.279,284.775c1-.576,1.811-.113,1.814,1.03a3.973,3.973,0,0,1-1.8,3.121c-1,.576-1.807.111-1.811-1.036a3.965,3.965,0,0,1,1.8-3.116" transform="translate(-70.346 -211.848)" fill="#fff"/>
          <path id="Trazado_998593" data-name="Trazado 998593" d="M121.619,270.147c1-.576,1.807-.111,1.811,1.032a3.967,3.967,0,0,1-1.8,3.12c-1,.576-1.807.111-1.811-1.036a3.965,3.965,0,0,1,1.8-3.116" transform="translate(-89.213 -200.956)" fill="#fff"/>
          <path id="Trazado_998594" data-name="Trazado 998594" d="M146.959,255.516c1-.576,1.808-.111,1.811,1.032a3.966,3.966,0,0,1-1.8,3.12c-1,.576-1.807.111-1.811-1.036a3.965,3.965,0,0,1,1.8-3.116" transform="translate(-108.08 -190.063)" fill="#fff"/>
          <path id="Trazado_998595" data-name="Trazado 998595" d="M101.468,494.21l-8.518,13.071a12.631,12.631,0,0,0-1.674,9.951l4.146,16.638,13.053-7.536-4.127-5.786a12.632,12.632,0,0,1-.024-14.637l4.531-6.4Z" transform="translate(-67.682 -367.969)" fill="#b0c4ff"/>
          <path id="Trazado_998596" data-name="Trazado 998596" d="M226.822,442.439l-1.926,9.182a3.483,3.483,0,0,1-.8,1.52l-14.978,17.212a3.253,3.253,0,0,1-1.239.92c-.857.331-1.577-.008-1.521-1l.632-11.065a98.218,98.218,0,0,0,19.834-16.772" transform="translate(-153.641 -329.422)" fill="#5789dc"/>
          <path id="Trazado_998597" data-name="Trazado 998597" d="M186.72,261.269A126.437,126.437,0,0,1,163.7,296.9a98.29,98.29,0,0,1-19.838,16.772,68.691,68.691,0,0,1-11.6,5.87c-.23.087-.452.176-.681.256a3.849,3.849,0,0,1-1.554.266,2.315,2.315,0,0,1-1.528-.641l-6.194-6.18a2.636,2.636,0,0,1-.7-1.538,4.59,4.59,0,0,1,.137-1.715,77.682,77.682,0,0,1,4.841-13.558,104.118,104.118,0,0,1,14.221-22.353A119.192,119.192,0,0,1,172.4,246.97a8.388,8.388,0,0,0-2.1,6.563c.652,6.284,7.656,12.166,13.332,9.976a7.857,7.857,0,0,0,3.091-2.24" transform="translate(-90.522 -183.884)" fill="#c7d8ef"/>
          <path id="Trazado_998598" data-name="Trazado 998598" d="M113.678,355.835q.057-.022.115-.041l8.421-2.706a104.33,104.33,0,0,0-14.223,22.358l-10.27,1.461c-1.353.193-1.508-1.519-.266-2.944l14.978-17.212a3.311,3.311,0,0,1,1.246-.917" transform="translate(-71.931 -262.895)" fill="#5789dc"/>
          <path id="Trazado_998599" data-name="Trazado 998599" d="M242.936,316.155c2.951-1.138,5.689-.983,7.4.728,3.164,3.161,1.645,10.4-3.4,16.2a19.633,19.633,0,0,1-7.449,5.5c-2.951,1.139-5.689.983-7.407-.727-3.164-3.161-1.646-10.4,3.4-16.2a19.656,19.656,0,0,1,7.452-5.5" transform="translate(-171.572 -234.853)" fill="#5789dc"/>
          <path id="Trazado_998600" data-name="Trazado 998600" d="M256.432,337.078c1.61-.621,3.1-.536,4.038.4,1.725,1.724.9,5.673-1.853,8.835a10.707,10.707,0,0,1-4.063,3c-1.61.621-3.1.536-4.04-.4-1.726-1.724-.9-5.673,1.853-8.835a10.719,10.719,0,0,1,4.065-3" transform="translate(-185.852 -250.678)" fill="#4075c1"/>
          <path id="Trazado_998601" data-name="Trazado 998601" d="M326.061,218.305a63.43,63.43,0,0,1,6.275-2.066c1.541-.415,2.492.532,2.21,2.207a76.428,76.428,0,0,1-1.76,7.888c-.034.122-.06.216-.086.31-.033.116-.066.233-.1.349l-.045.156-.115.4c-.064.217-.114.387-.166.559a100.169,100.169,0,0,1-3.472,9.674l-.073.175-.154.367a7.847,7.847,0,0,1-3.091,2.233c-5.677,2.19-12.681-3.688-13.335-9.974a8.4,8.4,0,0,1,2.087-6.553q2.98-1.725,5.93-3.154.91-.441,1.818-.854,2.048-.931,4.075-1.714" transform="translate(-232.378 -160.931)" fill="#dde9fe"/>
          <path id="Trazado_998602" data-name="Trazado 998602" d="M408.366,304.652a7.5,7.5,0,0,1-3.413,5.909L377.014,326.7a2.4,2.4,0,0,1-2.467.213l-1.444-.839a2.4,2.4,0,0,1-1-2.2l-.05-16.995a7.5,7.5,0,0,1,3.413-5.9L403.4,284.841a2.42,2.42,0,0,1,2.439-.235l1.479.86a2.4,2.4,0,0,1,1,2.19Z" transform="translate(-277.014 -211.734)" fill="#b0c4ff"/>
          <path id="Trazado_998603" data-name="Trazado 998603" d="M407.327,285.471a2.417,2.417,0,0,0-2.438.236l-27.936,16.13a7.51,7.51,0,0,0-3.413,5.905l.048,16.993a2.4,2.4,0,0,0,1,2.2l-1.481-.861a2.393,2.393,0,0,1-1-2.2l-.048-16.993a7.519,7.519,0,0,1,3.413-5.906l27.936-16.13a2.417,2.417,0,0,1,2.438-.236Z" transform="translate(-277.02 -211.736)" fill="#6a95d3"/>
          <path id="Trazado_998604" data-name="Trazado 998604" d="M409.206,288.214c1.892-1.092,3.43-.216,3.436,1.954l.048,16.992a7.522,7.522,0,0,1-3.414,5.913L381.34,329.2c-1.889,1.09-3.426.214-3.433-1.96l-.048-16.992a7.52,7.52,0,0,1,3.41-5.907Z" transform="translate(-281.339 -214.242)" fill="#b0c4ff"/>
          <path id="Trazado_998605" data-name="Trazado 998605" d="M384.492,332.748c-.286,0-.291-.792-.291-.825l-.048-16.992a5.927,5.927,0,0,1,2.606-4.51L414.7,294.292a1.549,1.549,0,0,1,.734-.255c.285,0,.291.788.291.821l.048,16.992a5.937,5.937,0,0,1-2.61,4.516L385.222,332.5a1.541,1.541,0,0,1-.73.253" transform="translate(-286.025 -218.928)" fill="#fff"/>
          <path id="Trazado_998606" data-name="Trazado 998606" d="M479.325,314.576c.613-.354,1.11-.071,1.112.63l.044,12.488a2.43,2.43,0,0,1-1.1,1.913l-2.515,1.452c-.613.354-1.11.071-1.112-.633l-.044-12.488a2.429,2.429,0,0,1,1.1-1.909Z" transform="translate(-354.191 -234.107)" fill="#dde9fe"/>
          <path id="Trazado_998607" data-name="Trazado 998607" d="M453.35,340.613c.61-.352,1.107-.069,1.109.636l.036,9.67a2.429,2.429,0,0,1-1.1,1.911l-2.518,1.454c-.61.352-1.107.069-1.109-.635l-.036-9.67a2.43,2.43,0,0,1,1.1-1.912Z" transform="translate(-334.851 -253.494)" fill="#b0c4ff"/>
          <path id="Trazado_998608" data-name="Trazado 998608" d="M427.394,377.682c.613-.354,1.11-.071,1.112.634l.02,4.037a2.431,2.431,0,0,1-1.1,1.914l-2.515,1.452c-.613.354-1.11.071-1.112-.634l-.02-4.037a2.43,2.43,0,0,1,1.1-1.913Z" transform="translate(-315.525 -281.093)" fill="#dde9fe"/>
          <path id="Trazado_998609" data-name="Trazado 998609" d="M401.294,359.627c.613-.354,1.11-.071,1.112.63l.044,12.488a2.43,2.43,0,0,1-1.1,1.913l-2.515,1.452c-.613.354-1.11.071-1.112-.634l-.044-12.488a2.43,2.43,0,0,1,1.1-1.91Z" transform="translate(-296.092 -267.65)" fill="#b0c4ff"/>
          <path id="Trazado_998610" data-name="Trazado 998610" d="M400.94,187.4s-6.149-1.482-8.909.942a5.162,5.162,0,0,1-2.9,1.212l-1.711.171a.81.81,0,0,0,.01,1.613l5.5.478a.375.375,0,0,1,.218.653c-.824.732-2.046,1.926-1.485,2.113,1.735.581,7.866-.943,7.866-.943l5.118.059a18.8,18.8,0,0,0,.92-3.184c-.142-.212-3.432-2.441-3.432-2.441Z" transform="translate(-287.912 -139.198)" fill="#f7b2b2"/>
          <path id="Trazado_998611" data-name="Trazado 998611" d="M493.274,185.01c-2.965-5.628-3.942-10.807-2.548-15.451,1.881-4.7,2.612-9.141,1.227-13.114-3.723-7.138-10.266-11.709-21.334-12.462a7.024,7.024,0,0,0-4.116.951c-3.994,2.417-6.336,7.558-9.153,12.473a1.477,1.477,0,0,1-1.194.741,41.94,41.94,0,0,1-17.792-2.753v.018c1.566,1.125.608,6.518-1.414,6.221a93.943,93.943,0,0,0,17.149,4.533,12.849,12.849,0,0,0,5.457-.213,2.477,2.477,0,0,1,2.706,1.053l2.99,4.627c3.5,3.709,3.6,8.243,1.031,13.439a2.953,2.953,0,0,0-.14,2.385c2.466,6.232,20.6,7.23,26.256,2.4a3.963,3.963,0,0,0,.875-4.85" transform="translate(-325.335 -107.191)" fill="#f1f3f2"/>
          <path id="Trazado_998612" data-name="Trazado 998612" d="M582.467,147.822a2.392,2.392,0,0,1-.848,1.141,15.259,15.259,0,0,1-3.393,1.9,10.9,10.9,0,0,1-3.921.891,4.31,4.31,0,0,1-4.434-3.5l-.029-.1-.478-4.049a29.122,29.122,0,0,1,13.1,3.721" transform="translate(-423.926 -107.292)" fill="#f1f3f2"/>
          <path id="Trazado_998613" data-name="Trazado 998613" d="M574.018,248.545c-5.652,4.83-23.788,3.833-26.253-2.4a2.949,2.949,0,0,1,.142-2.385c2.567-5.194,2.466-9.728-1.031-13.44l-.3-.472a9.715,9.715,0,0,1,1.624.364c3.207.923,6.5,2.109,9.8,1.59a3.62,3.62,0,0,0,1.88-.755c.983-.876.99-2.365,1.253-3.645.289-1.442,1.394-4.231,3.065-4.588,1.415-.3,2.648,1.846,3.577,2.627a25.461,25.461,0,0,0,4.554,2.9c-1.354,4.615-.371,9.762,2.574,15.353a3.955,3.955,0,0,1-.876,4.844" transform="translate(-406.956 -165.879)" fill="#d4d6d8"/>
          <path id="Trazado_998614" data-name="Trazado 998614" d="M463.056,189.836a9.526,9.526,0,0,0-1.394,2.378c-.3,1.031-.027,2.2-.478,3.18-.168.357-.424.667-.6,1.024a2.063,2.063,0,0,0-.411-.041,2.5,2.5,0,0,0-.626.081,12.854,12.854,0,0,1-5.457.216,94.333,94.333,0,0,1-17.152-4.534c1.3.189,2.156-1.961,2.2-3.82a4.543,4.543,0,0,1,.97.748,8.071,8.071,0,0,0,1.206,1.145,15.557,15.557,0,0,0,2.317.855,20.479,20.479,0,0,1,2.23,1.529,10.119,10.119,0,0,0,4.184,1.118,61.03,61.03,0,0,0,6.919.559,3.579,3.579,0,0,0,2.008-.4,3.859,3.859,0,0,0,1.307-2.3,30.814,30.814,0,0,1,1.179-3.543c.351-.842.916-2.446,1.759-2.91,2.223-1.24.256,4.089-.155,4.716" transform="translate(-325.326 -137.694)" fill="#d4d6d8"/>
          <path id="Trazado_998615" data-name="Trazado 998615" d="M498.435,288.933l-3.248.091a1.786,1.786,0,0,0-1.751,2.344,4.908,4.908,0,0,0,5.3,3.317l5.343-1.078c2.332-2.289,2.3-5.794-1.355-6.227a47.047,47.047,0,0,1-6.222-1.264c1.113.866,2.053,1.759,1.929,2.816" transform="translate(-367.315 -213.031)" fill="#f7b2b2"/>
          <path id="Trazado_998616" data-name="Trazado 998616" d="M553.3,210.919l-4.623,13.869-18.562,6.6c2.1,1.406,2.631,3.49,1.355,6.227l18.817-4.208a5.478,5.478,0,0,0,3.6-2.678l6.182-11.221Z" transform="translate(-394.703 -157.042)" fill="#f1f3f2"/>
          <path id="Trazado_998617" data-name="Trazado 998617" d="M582.467,147.822a2.392,2.392,0,0,1-.848,1.141,15.259,15.259,0,0,1-3.393,1.9,10.9,10.9,0,0,1-3.921.891,4.31,4.31,0,0,1-4.434-3.5l-.029-.1-.478-4.049a29.122,29.122,0,0,1,13.1,3.721" transform="translate(-423.926 -107.292)" fill="#d4d6d8"/>
          <path id="Trazado_998618" data-name="Trazado 998618" d="M584.463,135.823a13.961,13.961,0,0,1-3.079,1.722c-3.327,1.31-5.723,1.146-6.455-1.647l-.619-5.264L579.419,128l5.006.3.42,6.715a.929.929,0,0,1-.381.809" transform="translate(-427.608 -95.303)" fill="#f7b2b2"/>
          <path id="Trazado_998619" data-name="Trazado 998619" d="M556.384,95.98a33.143,33.143,0,0,0,.057,13.2,2.958,2.958,0,0,0,2.509,2.264c4.531.576,8.828-1.98,13.018-5.972l1.149-6.869s-3.731-3.139-4-3.457-12.192-.182-12.192-.182Z" transform="translate(-413.788 -70.683)" fill="#f7b2b2"/>
          <path id="Trazado_998620" data-name="Trazado 998620" d="M572.222,104.032l-.256,1.52c-4.189,3.99-8.486,6.545-13.017,5.971a2.953,2.953,0,0,1-2.51-2.266,33.112,33.112,0,0,1-.057-13.2l.535-1.019h.063a32.4,32.4,0,0,0,.216,12.226,2.959,2.959,0,0,0,2.51,2.265c4.349.552,8.486-1.781,12.516-5.5" transform="translate(-413.787 -70.762)" fill="#eaa7a7"/>
          <path id="Trazado_998621" data-name="Trazado 998621" d="M573.031,81.716c2.663-1.286,3.91-4.484,3.719-9.622-.173-4.159-2.171-7.1-6.062-8.441a11.348,11.348,0,0,0-4.463-.6,9.9,9.9,0,0,0-8.267,5.318,5.648,5.648,0,0,0-.734,2.475l-.046.731a.778.778,0,0,0,.639.823,6.575,6.575,0,0,1,3.524,1.86,2.782,2.782,0,0,1,.771,1.369,7.657,7.657,0,0,0,.218.741,2.6,2.6,0,0,0,2.053,1.692A4.111,4.111,0,0,1,566.89,79.4a1.65,1.65,0,0,0,1.41.529,3.386,3.386,0,0,0,2.117-.918,1.38,1.38,0,0,1,1.859-.135,1.747,1.747,0,0,1,.756,1.46Z" transform="translate(-414.852 -46.929)" fill="#353437"/>
          <path id="Trazado_998622" data-name="Trazado 998622" d="M578.022,81.27q1.435-2.55,1.267-7.265c-.172-4.16-2.174-7.1-6.064-8.442a11.335,11.335,0,0,0-4.462-.6,9.612,9.612,0,0,0-5.892,2.37,9.671,9.671,0,0,1,7.592-4.274,11.482,11.482,0,0,1,4.462.6c3.89,1.348,5.892,4.282,6.064,8.442.172,4.634-.825,7.682-2.967,9.178" transform="translate(-419.091 -46.93)" fill="#1a1a1c"/>
        </g>
      </g>
    </g>
  </g>
</svg>
