<svg xmlns="http://www.w3.org/2000/svg" xmlns:xlink="http://www.w3.org/1999/xlink" width="100.377" height="94.193" viewBox="0 0 100.377 94.193">
  <defs>
    <clipPath id="clip-path">
      <rect id="Rectángulo_455354" data-name="Rectángulo 455354" width="100.377" height="94.193" fill="none"/>
    </clipPath>
    <clipPath id="clip-path-3">
      <rect id="Rectángulo_455341" data-name="Rectángulo 455341" width="100.377" height="57.964" fill="none"/>
    </clipPath>
    <clipPath id="clip-path-5">
      <rect id="Rectángulo_455343" data-name="Rectángulo 455343" width="3.605" height="4.632" fill="none"/>
    </clipPath>
    <clipPath id="clip-path-6">
      <rect id="Rectángulo_455344" data-name="Rectángulo 455344" width="2.51" height="6.04" fill="none"/>
    </clipPath>
    <clipPath id="clip-path-7">
      <rect id="Rectángulo_455345" data-name="Rectángulo 455345" width="2.977" height="2.618" fill="none"/>
    </clipPath>
    <clipPath id="clip-path-10">
      <rect id="Rectángulo_455348" data-name="Rectángulo 455348" width="11.832" height="31.839" fill="none"/>
    </clipPath>
    <clipPath id="clip-path-11">
      <rect id="Rectángulo_455349" data-name="Rectángulo 455349" width="12.602" height="13.847" fill="none"/>
    </clipPath>
    <clipPath id="clip-path-12">
      <rect id="Rectángulo_455350" data-name="Rectángulo 455350" width="1.673" height="2.638" fill="none"/>
    </clipPath>
    <clipPath id="clip-path-13">
      <rect id="Rectángulo_455351" data-name="Rectángulo 455351" width="11.385" height="13.885" fill="none"/>
    </clipPath>
    <clipPath id="clip-path-14">
      <rect id="Rectángulo_455352" data-name="Rectángulo 455352" width="4.778" height="3.53" fill="none"/>
    </clipPath>
  </defs>
  <g id="Grupo_1179114" data-name="Grupo 1179114" transform="translate(-937.956 -155.553)">
    <g id="Grupo_1179044" data-name="Grupo 1179044" transform="translate(937.956 155.553)">
      <g id="Grupo_1179043" data-name="Grupo 1179043" clip-path="url(#clip-path)">
        <g id="Grupo_1179010" data-name="Grupo 1179010" transform="translate(0 0)">
          <g id="Grupo_1179009" data-name="Grupo 1179009" clip-path="url(#clip-path)">
            <g id="Grupo_1179008" data-name="Grupo 1179008" transform="translate(0 36.229)" style="mix-blend-mode: multiply;isolation: isolate">
              <g id="Grupo_1179007" data-name="Grupo 1179007">
                <g id="Grupo_1179006" data-name="Grupo 1179006" clip-path="url(#clip-path-3)">
                  <path id="Trazado_1001559" data-name="Trazado 1001559" d="M25.354,39.961l75.023,43.325L75.023,97.924,0,54.6Z" transform="translate(0 -39.961)" fill="#bfb5bf"/>
                </g>
              </g>
            </g>
          </g>
        </g>
        <path id="Trazado_1001560" data-name="Trazado 1001560" d="M16.162,58.946l3.4-2.624L31.623,64.8l29,19.81L64.4,82.346l10.063,6.389L69.8,75.8l-53.5-26.562Z" transform="translate(-1.509 -4.598)" fill="#0f0e1b"/>
        <g id="Grupo_1179042" data-name="Grupo 1179042" transform="translate(0 0)">
          <g id="Grupo_1179041" data-name="Grupo 1179041" clip-path="url(#clip-path)">
            <path id="Trazado_1001561" data-name="Trazado 1001561" d="M80.978,91.613a11.437,11.437,0,0,0-5.189-8.95,3.678,3.678,0,0,0-3.661-.379h0l-.021.012-3.277,1.893v2.539l7.36,10.1,3.073-1.786a2.4,2.4,0,0,0,.413-.239h0a3.757,3.757,0,0,0,1.3-3.192" transform="translate(-6.427 -7.653)" fill="#23222d"/>
            <path id="Trazado_1001562" data-name="Trazado 1001562" d="M31.51,63.06a11.433,11.433,0,0,0-5.189-8.95c-1.516-.875-2.879-.917-3.828-.276L19.25,55.712l2.2,3.582a12.208,12.208,0,0,0,3.515,5.732l1.933,3.151,2.849-1.662a2.468,2.468,0,0,0,.516-.3,3.8,3.8,0,0,0,1.25-3.154" transform="translate(-1.798 -4.986)" fill="#23222d"/>
            <path id="Trazado_1001563" data-name="Trazado 1001563" d="M100.348,63.479v9.165l-3.914-2.259a14.266,14.266,0,0,0-6.145-7.932c-3.694-2.132-4.2.35-6.278,4.051a8.441,8.441,0,0,0-.407,1.034L52.488,49.572q.01-.6.01-1.262c0-4.239-3-11.7-6.689-13.832s-6.69-.424-6.69,3.814q0,.672.024,1.282l-9.921-5.728V.895l60.623,35L93.42,55.061Z" transform="translate(-2.729 -0.084)" fill="#e4dfd9"/>
            <path id="Trazado_1001564" data-name="Trazado 1001564" d="M101.627,79.8c0,3.288-2.323,4.613-5.189,2.958a11.434,11.434,0,0,1-5.189-8.95c0-3.288,2.324-4.613,5.189-2.958a11.433,11.433,0,0,1,5.189,8.95" transform="translate(-8.521 -6.549)" fill="#2d2c37"/>
            <path id="Trazado_1001565" data-name="Trazado 1001565" d="M52.172,51.007c0,3.288-2.323,4.613-5.189,2.958s-5.189-7.956-5.189-11.244,2.324-4.613,5.189-2.958,5.189,7.956,5.189,11.244" transform="translate(-3.903 -3.647)" fill="#2d2c37"/>
            <path id="Trazado_1001566" data-name="Trazado 1001566" d="M50.751,50.3c0,2.285-1.614,3.2-3.6,2.055s-3.606-6.227-3.606-8.511,1.614-3.2,3.606-2.056,3.6,6.228,3.6,8.512" transform="translate(-4.066 -3.856)" fill="#504f58"/>
            <path id="Trazado_1001567" data-name="Trazado 1001567" d="M50.447,50.151c0,2.07-1.462,2.9-3.267,1.862s-3.267-5.858-3.267-7.927,1.462-2.9,3.267-1.862,3.267,5.858,3.267,7.927" transform="translate(-4.101 -3.901)" fill="#c2c7d6"/>
            <path id="Trazado_1001568" data-name="Trazado 1001568" d="M50.153,50.005c0,1.862-1.316,2.612-2.938,1.675s-2.938-5.5-2.938-7.362,1.316-2.612,2.938-1.675,2.938,5.5,2.938,7.362" transform="translate(-4.135 -3.945)" fill="#a5acc2"/>
            <path id="Trazado_1001569" data-name="Trazado 1001569" d="M49.135,47.206c0,1.142-.808,3.9-1.8,3.321s-1.8-4.26-1.8-5.4.808-1.6,1.8-1.027a3.972,3.972,0,0,1,1.8,3.109" transform="translate(-4.252 -4.095)" fill="#cfd9e7"/>
            <path id="Trazado_1001570" data-name="Trazado 1001570" d="M100.206,79.091c0,2.285-1.614,3.2-3.606,2.055A7.944,7.944,0,0,1,93,74.928c0-2.285,1.614-3.2,3.6-2.055a7.943,7.943,0,0,1,3.606,6.218" transform="translate(-8.684 -6.759)" fill="#504f58"/>
            <path id="Trazado_1001571" data-name="Trazado 1001571" d="M99.9,78.94c0,2.07-1.462,2.9-3.267,1.862a7.2,7.2,0,0,1-3.267-5.634c0-2.071,1.462-2.9,3.267-1.862A7.2,7.2,0,0,1,99.9,78.94" transform="translate(-8.719 -6.804)" fill="#b5bbcd"/>
            <path id="Trazado_1001572" data-name="Trazado 1001572" d="M99.219,78.6c0,1.587-1.121,2.227-2.5,1.428a5.519,5.519,0,0,1-2.5-4.321c0-1.587,1.121-2.227,2.5-1.428a5.52,5.52,0,0,1,2.5,4.321" transform="translate(-8.798 -6.905)" fill="#cfd9e7"/>
            <path id="Trazado_1001573" data-name="Trazado 1001573" d="M98.2,78.1c0,.866-.612,1.215-1.366.78a3.012,3.012,0,0,1-1.367-2.358c0-.866.612-1.215,1.367-.779A3.013,3.013,0,0,1,98.2,78.1" transform="translate(-8.915 -7.055)" fill="#e1e7ef"/>
            <path id="Trazado_1001574" data-name="Trazado 1001574" d="M97.638,77.818c0,.471-.333.66-.743.423a1.637,1.637,0,0,1-.743-1.281c0-.471.333-.66.743-.422a1.636,1.636,0,0,1,.743,1.28" transform="translate(-8.979 -7.138)" fill="#c2c7d6"/>
            <path id="Trazado_1001575" data-name="Trazado 1001575" d="M105.975,83.306,84.115,92.89l-3.655-1.253-2.284-1.319,23.306-13.456,3.584,2.069.909,1.338Z" transform="translate(-7.3 -7.178)" fill="#6b6164"/>
            <path id="Trazado_1001576" data-name="Trazado 1001576" d="M89.442,34.48,29.722,0l-.5.811,60.624,35Z" transform="translate(-2.729 0)" fill="#f3f1ee"/>
            <path id="Trazado_1001577" data-name="Trazado 1001577" d="M73.54,49.92l-43.3-25V23.667l43.3,25Z" transform="translate(-2.824 -2.21)" fill="#98979d"/>
            <path id="Trazado_1001578" data-name="Trazado 1001578" d="M78.644,63.79V33.543L91.126,40.75V60.882l-4.105,7.744Z" transform="translate(-7.344 -3.132)" fill="#cdc6bc"/>
            <path id="Trazado_1001579" data-name="Trazado 1001579" d="M96.1,43.621,93.285,42V57.92l4.168,2.406,1.178-1.917Z" transform="translate(-8.711 -3.922)" fill="#2d2c37"/>
            <path id="Trazado_1001580" data-name="Trazado 1001580" d="M93.7,57.773V42.711l2.149,1.24L98.27,58.193l-1.006,1.638Z" transform="translate(-8.75 -3.988)" fill="#7572a4"/>
            <path id="Trazado_1001581" data-name="Trazado 1001581" d="M88.158,72.822,78,66.957v.885l10.159,5.865Z" transform="translate(-7.284 -6.253)" fill="#9b897f"/>
            <path id="Trazado_1001582" data-name="Trazado 1001582" d="M28.855,36.053,25.3,34v.885l3.558,2.054Z" transform="translate(-2.362 -3.175)" fill="#9b897f"/>
            <path id="Trazado_1001583" data-name="Trazado 1001583" d="M106.285,73.339l-1.49-.86v-1.71l1.49.86Z" transform="translate(-9.786 -6.609)" fill="#504f58"/>
            <path id="Trazado_1001584" data-name="Trazado 1001584" d="M106.172,73.143l-1.237-.714V71.01l1.237.714Z" transform="translate(-9.799 -6.631)" fill="#ff9a2e"/>
            <path id="Trazado_1001585" data-name="Trazado 1001585" d="M32.582,29.709c0,.529-.374.742-.834.475a1.838,1.838,0,0,1-.833-1.438c0-.529.374-.741.833-.475a1.836,1.836,0,0,1,.834,1.438" transform="translate(-2.887 -2.629)" fill="#504f58"/>
            <path id="Trazado_1001586" data-name="Trazado 1001586" d="M32.427,29.631c0,.419-.3.587-.661.376a1.452,1.452,0,0,1-.661-1.139c0-.419.3-.587.661-.376a1.455,1.455,0,0,1,.661,1.139" transform="translate(-2.905 -2.652)" fill="#ff512e"/>
            <path id="Trazado_1001587" data-name="Trazado 1001587" d="M32.239,33.105c0,.359-.254.5-.567.323a1.249,1.249,0,0,1-.567-.977c0-.359.254-.5.567-.323a1.249,1.249,0,0,1,.567.977" transform="translate(-2.905 -2.993)" fill="#f9f1ec"/>
            <path id="Trazado_1001588" data-name="Trazado 1001588" d="M32.162,33.068c0,.3-.215.427-.481.274a1.058,1.058,0,0,1-.481-.829c0-.3.215-.427.481-.274a1.058,1.058,0,0,1,.481.829" transform="translate(-2.914 -3.004)" fill="#ff9a2e"/>
            <path id="Trazado_1001589" data-name="Trazado 1001589" d="M57.727,50.122c0,.359-.254.5-.567.323a1.249,1.249,0,0,1-.567-.977c0-.359.254-2.8.567-2.616s.567,2.912.567,3.271" transform="translate(-5.285 -4.374)" fill="#f9f1ec"/>
            <path id="Trazado_1001590" data-name="Trazado 1001590" d="M57.65,50.313c0,.3-.215.427-.481.274a1.058,1.058,0,0,1-.481-.829c0-.3.215-.427.481-.274a1.058,1.058,0,0,1,.481.829" transform="translate(-5.294 -4.615)" fill="#ff9a2e"/>
            <path id="Trazado_1001591" data-name="Trazado 1001591" d="M76.461,58.637c0,.359-.254.5-.567.323a1.249,1.249,0,0,1-.567-.977c0-.359.254-.5.567-.323a1.249,1.249,0,0,1,.567.977" transform="translate(-7.034 -5.377)" fill="#f9f1ec"/>
            <path id="Trazado_1001592" data-name="Trazado 1001592" d="M76.384,58.6c0,.3-.215.427-.48.274a1.058,1.058,0,0,1-.481-.829c0-.3.215-.427.481-.274a1.058,1.058,0,0,1,.48.829" transform="translate(-7.043 -5.389)" fill="#ff9a2e"/>
            <path id="Trazado_1001593" data-name="Trazado 1001593" d="M33.044,4.543,31.105,3.424V2.563l1.938,1.119Z" transform="translate(-2.905 -0.239)" fill="#cdc6bc"/>
            <path id="Trazado_1001594" data-name="Trazado 1001594" d="M32.89,4.309,31.3,3.388V2.751l1.595.921Z" transform="translate(-2.922 -0.257)" fill="#ff9a2e"/>
            <path id="Trazado_1001595" data-name="Trazado 1001595" d="M59.687,19.925l-1.938-1.119v-.861l1.938,1.119Z" transform="translate(-5.393 -1.676)" fill="#cdc6bc"/>
            <path id="Trazado_1001596" data-name="Trazado 1001596" d="M59.533,19.691l-1.595-.921v-.636l1.595.921Z" transform="translate(-5.41 -1.693)" fill="#ff9a2e"/>
            <path id="Trazado_1001597" data-name="Trazado 1001597" d="M93.281,39.321,91.343,38.2v-.861l1.938,1.12Z" transform="translate(-8.53 -3.487)" fill="#cdc6bc"/>
            <path id="Trazado_1001598" data-name="Trazado 1001598" d="M93.127,39.087l-1.595-.921v-.636l1.595.921Z" transform="translate(-8.548 -3.505)" fill="#ff9a2e"/>
            <path id="Trazado_1001599" data-name="Trazado 1001599" d="M46.418,27.74a1.946,1.946,0,0,1-.962-.286L33.247,20.4a5.415,5.415,0,0,1-2.268-4.315V9.124A2.118,2.118,0,0,1,31.828,7.2a1.584,1.584,0,0,1,1.619.114L45.656,14.36a5.416,5.416,0,0,1,2.267,4.315V25.64a2.121,2.121,0,0,1-.849,1.927,1.3,1.3,0,0,1-.656.172m-.762-.635a1.206,1.206,0,0,0,1.218.114,1.75,1.75,0,0,0,.649-1.579V18.675a4.978,4.978,0,0,0-2.067-3.967L33.247,7.659a1.206,1.206,0,0,0-1.218-.113,1.745,1.745,0,0,0-.649,1.578v6.966a4.978,4.978,0,0,0,2.067,3.967Z" transform="translate(-2.893 -0.656)" fill="#cdc6bc"/>
            <path id="Trazado_1001600" data-name="Trazado 1001600" d="M67.372,39.838a1.933,1.933,0,0,1-.962-.287L54.2,32.5a5.418,5.418,0,0,1-2.267-4.315V21.221a2.122,2.122,0,0,1,.849-1.927,1.588,1.588,0,0,1,1.619.114L66.61,26.457a5.417,5.417,0,0,1,2.267,4.315v6.966a2.118,2.118,0,0,1-.849,1.927,1.3,1.3,0,0,1-.656.173M53.441,19.525a.9.9,0,0,0-.457.118,1.749,1.749,0,0,0-.65,1.578v6.966A4.976,4.976,0,0,0,54.4,32.154L66.61,39.2a1.209,1.209,0,0,0,1.218.115,1.753,1.753,0,0,0,.648-1.579V30.772a4.974,4.974,0,0,0-2.066-3.966L54.2,19.757a1.547,1.547,0,0,0-.76-.232" transform="translate(-4.85 -1.786)" fill="#cdc6bc"/>
            <path id="Trazado_1001601" data-name="Trazado 1001601" d="M88.1,55.1,81.39,48.93A3.082,3.082,0,0,1,80.1,46.471V37.337c0-.947.576-1.383,1.286-.973l6.71,3.874A3.081,3.081,0,0,1,89.387,42.7V54.125c0,.947-.576,1.383-1.286.973" transform="translate(-7.48 -3.381)" fill="#2d2c37"/>
            <path id="Trazado_1001602" data-name="Trazado 1001602" d="M80.517,46.806V37.532c0-.672.408-.98.912-.689l6.71,3.874a2.183,2.183,0,0,1,.911,1.742V54.026c0,.672-.408.98-.911.689l-6.71-6.168a2.18,2.18,0,0,1-.912-1.742" transform="translate(-7.519 -3.43)" fill="#7572a4"/>
            <path id="Trazado_1001603" data-name="Trazado 1001603" d="M83.458,64.308,81.39,63.114C80.68,62.7,80.1,59.309,80.1,58.362V52.545c0-.947.577-1.383,1.287-.973l2.068,1.194a3.082,3.082,0,0,1,1.286,2.459v8.111c0,.947-.576,1.383-1.286.973" transform="translate(-7.48 -4.802)" fill="#2d2c37"/>
            <path id="Trazado_1001604" data-name="Trazado 1001604" d="M80.517,58.7V52.741c0-.671.408-.979.912-.689L83.5,53.246a2.186,2.186,0,0,1,.912,1.743v8.249c0,.672-.409.98-.912.689l-2.068-1.194c-.5-.29-.912-3.364-.912-4.035" transform="translate(-7.519 -4.851)" fill="#7572a4"/>
            <path id="Trazado_1001605" data-name="Trazado 1001605" d="M95.35,77.477a2.848,2.848,0,0,0,.631,1.118.555.555,0,0,1,.156.447c-.037.117-.208.082-.364-.1a4.517,4.517,0,0,1-.838-1.483c-.074-.227-.012-.384.11-.35a.575.575,0,0,1,.3.37" transform="translate(-8.862 -7.2)" fill="#504f58"/>
            <path id="Trazado_1001606" data-name="Trazado 1001606" d="M98.467,77.291a2.848,2.848,0,0,0-.631-1.118.555.555,0,0,1-.156-.447c.037-.117.207-.083.364.1a4.518,4.518,0,0,1,.838,1.483c.074.227.012.383-.11.35a.575.575,0,0,1-.3-.37" transform="translate(-9.121 -7.065)" fill="#504f58"/>
            <path id="Trazado_1001607" data-name="Trazado 1001607" d="M97.773,79.725a.605.605,0,0,0,.656-.345c.062-.1.19-.112.311,0a.42.42,0,0,1,.1.472.934.934,0,0,1-.871.458.443.443,0,0,1-.36-.334c-.033-.159.048-.257.169-.252" transform="translate(-9.114 -7.405)" fill="#504f58"/>
            <path id="Trazado_1001608" data-name="Trazado 1001608" d="M96.041,75.145a.605.605,0,0,0-.656.345c-.062.1-.19.112-.311,0a.42.42,0,0,1-.1-.472.934.934,0,0,1,.871-.458.443.443,0,0,1,.36.334c.033.159-.048.257-.169.252" transform="translate(-8.866 -6.962)" fill="#504f58"/>
            <path id="Trazado_1001609" data-name="Trazado 1001609" d="M98.773,69.425h-.2l.007-5.757L99.8,60.6l.186.074-1.215,3.051Z" transform="translate(-9.205 -5.659)" fill="#c9c3b9"/>
            <path id="Trazado_1001610" data-name="Trazado 1001610" d="M106.815,70.789l-7.539-8.4.149-.134,7.539,8.4Z" transform="translate(-9.271 -5.814)" fill="#c9c3b9"/>
            <path id="Trazado_1001611" data-name="Trazado 1001611" d="M4.852,52.462,1.294,50.408l4.228-2.441L9.08,50.021Z" transform="translate(-0.121 -4.479)" fill="#6b6164"/>
            <path id="Trazado_1001612" data-name="Trazado 1001612" d="M76.345,77.337V86.5l-3.914-2.259a14.269,14.269,0,0,0-6.145-7.932c-3.694-2.132-4.2.35-6.278,4.051a8.441,8.441,0,0,0-.407,1.034L28.485,63.43q.01-.6.01-1.262a14.741,14.741,0,0,0-6.69-11.539c-3.694-2.132-6.689-.424-6.689,3.814q0,.672.024,1.282L5.219,50V14.753l60.623,35,3.575,19.165Z" transform="translate(-0.487 -1.378)" fill="#ded8d1"/>
            <path id="Trazado_1001613" data-name="Trazado 1001613" d="M8.255,46.725c0,.419-.3.587-.66.376a1.454,1.454,0,0,1-.661-1.139c0-.419.3-.587.661-.376a1.454,1.454,0,0,1,.66,1.139" transform="translate(-0.648 -4.249)" fill="#cdc6bc"/>
            <path id="Trazado_1001614" data-name="Trazado 1001614" d="M48.925,66.944l-43.3-25V40.691l.555-.636L48.925,65.688l.556.619Z" transform="translate(-0.526 -3.74)" fill="#cdc6bc"/>
            <path id="Trazado_1001615" data-name="Trazado 1001615" d="M81.608,87.481l-.995-.575V85.765l.289-.9L82.139,87Z" transform="translate(-7.528 -7.925)" fill="#b5aa9c"/>
            <path id="Trazado_1001616" data-name="Trazado 1001616" d="M77.624,93.655c0,3.288-2.323,4.613-5.189,2.958a11.434,11.434,0,0,1-5.189-8.95c0-3.288,2.324-4.613,5.189-2.958a11.433,11.433,0,0,1,5.189,8.95" transform="translate(-6.28 -7.843)" fill="#2d2c37"/>
            <path id="Trazado_1001617" data-name="Trazado 1001617" d="M77.624,93.655c0,3.288-2.323,4.613-5.189,2.958a11.434,11.434,0,0,1-5.189-8.95c0-3.288,2.324-4.613,5.189-2.958a11.433,11.433,0,0,1,5.189,8.95" transform="translate(-6.28 -7.843)" fill="#393843"/>
            <path id="Trazado_1001618" data-name="Trazado 1001618" d="M77.308,93.627c0,3.163-2.235,4.438-4.992,2.846a11,11,0,0,1-4.991-8.609c0-3.163,2.235-4.438,4.991-2.846a11,11,0,0,1,4.992,8.609" transform="translate(-6.287 -7.875)" fill="#2d2c37"/>
            <path id="Trazado_1001619" data-name="Trazado 1001619" d="M28.169,65.1c0,3.288-2.324,4.613-5.189,2.958a11.434,11.434,0,0,1-5.189-8.95c0-3.288,2.324-4.613,5.189-2.958a11.436,11.436,0,0,1,5.189,8.95" transform="translate(-1.661 -5.177)" fill="#393843"/>
            <path id="Trazado_1001620" data-name="Trazado 1001620" d="M27.635,65.074c0,3.163-2.235,4.438-4.992,2.846a11,11,0,0,1-4.991-8.609c0-3.163,2.235-4.438,4.991-2.846a11,11,0,0,1,4.992,8.609" transform="translate(-1.648 -5.209)" fill="#2d2c37"/>
            <path id="Trazado_1001621" data-name="Trazado 1001621" d="M26.642,64.476c0,2.285-1.614,3.2-3.6,2.055a7.943,7.943,0,0,1-3.606-6.218c0-2.285,1.614-3.2,3.606-2.055a7.944,7.944,0,0,1,3.6,6.218" transform="translate(-1.815 -5.394)" fill="#504f58"/>
            <path id="Trazado_1001622" data-name="Trazado 1001622" d="M26.444,64.245c0,2.07-1.462,2.9-3.267,1.862a7.2,7.2,0,0,1-3.267-5.634c0-2.071,1.462-2.9,3.267-1.863a7.2,7.2,0,0,1,3.267,5.635" transform="translate(-1.859 -5.431)" fill="#c4c2bb"/>
            <path id="Trazado_1001623" data-name="Trazado 1001623" d="M26.151,64.1c0,1.861-1.316,2.612-2.938,1.675a6.473,6.473,0,0,1-2.938-5.067c0-1.863,1.315-2.613,2.938-1.675a4.221,4.221,0,0,1,.436.289,6.714,6.714,0,0,1,2.467,4.236,4.438,4.438,0,0,1,.035.543" transform="translate(-1.893 -5.475)" fill="#b0ac9e"/>
            <path id="Trazado_1001624" data-name="Trazado 1001624" d="M24.272,65.018a6.128,6.128,0,0,1-2.781-4.8,2.151,2.151,0,0,1,.548-1.586c-1.039-.08-1.765.689-1.765,2.073a6.472,6.472,0,0,0,2.938,5.067c1.182.683,2.2.47,2.667-.416a2.233,2.233,0,0,1-1.607-.341" transform="translate(-1.893 -5.475)" fill="#b7b4a9"/>
            <g id="Grupo_1179013" data-name="Grupo 1179013" transform="translate(20.48 54.94)" style="mix-blend-mode: multiply;isolation: isolate">
              <g id="Grupo_1179012" data-name="Grupo 1179012">
                <g id="Grupo_1179011" data-name="Grupo 1179011" clip-path="url(#clip-path-5)">
                  <path id="Trazado_1001625" data-name="Trazado 1001625" d="M26.195,63.956c0,1.142-.807,1.6-1.8,1.028a3.973,3.973,0,0,1-1.8-3.11c0-1.142.807-1.6,1.8-1.027a3.971,3.971,0,0,1,1.8,3.109" transform="translate(-22.59 -60.6)" fill="#cdc6bc"/>
                </g>
              </g>
            </g>
            <path id="Trazado_1001626" data-name="Trazado 1001626" d="M26.37,63.629c-.309.448-.9.533-1.568.144A3.971,3.971,0,0,1,23,60.664c0-.768.364-1.228.9-1.271a6.714,6.714,0,0,1,2.467,4.236" transform="translate(-2.148 -5.546)" fill="#9d9783"/>
            <path id="Trazado_1001627" data-name="Trazado 1001627" d="M23.375,59.559l-1.352.782,2.663,4.325,1.334-.77-.91-2.175Z" transform="translate(-2.057 -5.562)" fill="#9d9783"/>
            <path id="Trazado_1001628" data-name="Trazado 1001628" d="M25.132,63.594c0,1.142-.807,1.6-1.8,1.027a3.971,3.971,0,0,1-1.8-3.109c0-1.142.808-1.6,1.8-1.027a3.971,3.971,0,0,1,1.8,3.109" transform="translate(-2.01 -5.625)" fill="#b7b4a9"/>
            <path id="Trazado_1001629" data-name="Trazado 1001629" d="M24.954,63.578c0,1.092-.772,1.532-1.723.983a3.8,3.8,0,0,1-1.723-2.973c0-1.092.772-1.532,1.723-.983a3.8,3.8,0,0,1,1.723,2.973" transform="translate(-2.008 -5.637)" fill="#d5d2c9"/>
            <path id="Trazado_1001630" data-name="Trazado 1001630" d="M76.1,93.029c0,2.285-1.614,3.2-3.6,2.055a7.943,7.943,0,0,1-3.606-6.218c0-2.285,1.614-3.2,3.606-2.055a7.944,7.944,0,0,1,3.6,6.218" transform="translate(-6.433 -8.06)" fill="#504f58"/>
            <path id="Trazado_1001631" data-name="Trazado 1001631" d="M75.9,92.8c0,2.07-1.462,2.9-3.267,1.862a7.2,7.2,0,0,1-3.267-5.634c0-2.071,1.462-2.9,3.267-1.862A7.2,7.2,0,0,1,75.9,92.8" transform="translate(-6.478 -8.098)" fill="#c4c2bb"/>
            <path id="Trazado_1001632" data-name="Trazado 1001632" d="M75.533,92.617c0,1.811-1.279,2.541-2.858,1.629a6.3,6.3,0,0,1-2.859-4.929c0-1.811,1.28-2.54,2.859-1.629a6.3,6.3,0,0,1,2.858,4.929" transform="translate(-6.52 -8.152)" fill="#b7b4a9"/>
            <path id="Trazado_1001633" data-name="Trazado 1001633" d="M75.217,92.461c0,1.587-1.121,2.227-2.5,1.428a5.518,5.518,0,0,1-2.5-4.32c0-1.587,1.121-2.228,2.5-1.429a5.52,5.52,0,0,1,2.5,4.321" transform="translate(-6.556 -8.199)" fill="#d5d2c9"/>
            <path id="Trazado_1001634" data-name="Trazado 1001634" d="M74.083,92.22c0,.949-.67,1.331-1.5.854a3.3,3.3,0,0,1-1.5-2.583c0-.949.67-1.331,1.5-.853a3.3,3.3,0,0,1,1.5,2.582" transform="translate(-6.638 -8.351)" fill="#cac6bc"/>
            <path id="Trazado_1001635" data-name="Trazado 1001635" d="M71.347,91.335a2.854,2.854,0,0,0,.631,1.118.555.555,0,0,1,.156.447c-.037.117-.208.083-.364-.1a4.517,4.517,0,0,1-.838-1.483c-.074-.227-.012-.384.11-.35a.575.575,0,0,1,.3.37" transform="translate(-6.621 -8.494)" fill="#504f58"/>
            <path id="Trazado_1001636" data-name="Trazado 1001636" d="M73.724,92.151c0,.836-.59,1.172-1.318.752a2.9,2.9,0,0,1-1.319-2.275c0-.835.59-1.172,1.319-.752a2.906,2.906,0,0,1,1.318,2.275" transform="translate(-6.638 -8.376)" fill="#dddddb"/>
            <path id="Trazado_1001637" data-name="Trazado 1001637" d="M73.184,91.883c0,.454-.321.636-.716.408a1.575,1.575,0,0,1-.716-1.235c0-.454.32-.637.716-.409a1.579,1.579,0,0,1,.716,1.236" transform="translate(-6.7 -8.456)" fill="#b7b4a9"/>
            <path id="Trazado_1001638" data-name="Trazado 1001638" d="M84.115,97.313,80.332,96.9l-1.75-1.011-.406-4.18,2.284,1.319,3.655,1.253Z" transform="translate(-7.3 -8.564)" fill="#493f41"/>
            <path id="Trazado_1001639" data-name="Trazado 1001639" d="M65.439,48.338,5.719,13.859l-.5.811,60.624,35Z" transform="translate(-0.487 -1.294)" fill="#f3f1ee"/>
            <path id="Trazado_1001640" data-name="Trazado 1001640" d="M49.089,65.287l-43.3-25,.406-.235,43.3,25Z" transform="translate(-0.541 -3.74)" fill="#6b6164"/>
            <path id="Trazado_1001641" data-name="Trazado 1001641" d="M53.549,67.862v1.256l.406-.235V67.627Z" transform="translate(-5.001 -6.315)" fill="#554d4e"/>
            <path id="Trazado_1001642" data-name="Trazado 1001642" d="M54.641,77.884V49.931l12.482,7.207V74.976l-4.105,7.744Z" transform="translate(-5.103 -4.663)" fill="#cdc6bc"/>
            <path id="Trazado_1001643" data-name="Trazado 1001643" d="M72.1,57.479l-2.813-1.625V71.778l4.168,2.406,1.178-1.917Z" transform="translate(-6.47 -5.216)" fill="#2d2c37"/>
            <path id="Trazado_1001644" data-name="Trazado 1001644" d="M69.7,71.631V56.569l2.149,1.24,2.422,14.242-1.006,1.638Z" transform="translate(-6.508 -5.283)" fill="#573f3f"/>
            <path id="Trazado_1001645" data-name="Trazado 1001645" d="M4.852,52.713,1.294,50.659V51.3l3.558,2.054Z" transform="translate(-0.121 -4.731)" fill="#493f41"/>
            <path id="Trazado_1001646" data-name="Trazado 1001646" d="M82.282,87.2l-1.49-.86v-1.71l1.49.86Z" transform="translate(-7.545 -7.903)" fill="#504f58"/>
            <path id="Trazado_1001647" data-name="Trazado 1001647" d="M82.128,87l-1.636-1.625.4-.509,1.237.714Z" transform="translate(-7.517 -7.925)" fill="#ff9a2e"/>
            <path id="Trazado_1001648" data-name="Trazado 1001648" d="M81.486,87.145l-.995-.575V85.429l.995.575Z" transform="translate(-7.517 -7.978)" fill="#e06f2e"/>
            <path id="Trazado_1001649" data-name="Trazado 1001649" d="M8.579,46.1c0,.529-.374.742-.833.475a1.836,1.836,0,0,1-.834-1.438c0-.529.374-.741.834-.475A1.838,1.838,0,0,1,8.579,46.1" transform="translate(-0.645 -4.16)" fill="#504f58"/>
            <path id="Trazado_1001650" data-name="Trazado 1001650" d="M8.424,46.019c0,.419-.3.587-.66.376A1.452,1.452,0,0,1,7.1,45.257c0-.419.3-.587.661-.376a1.455,1.455,0,0,1,.66,1.139" transform="translate(-0.663 -4.183)" fill="#d83b2e"/>
            <path id="Trazado_1001651" data-name="Trazado 1001651" d="M7.225,44.875a2.346,2.346,0,0,0-.361.46c-.063.153.7,1.226.7,1.226a1.706,1.706,0,0,0,.631-.1c.24-.114-.974-1.581-.974-1.581" transform="translate(-0.641 -4.191)" fill="#d83b2e"/>
            <path id="Trazado_1001652" data-name="Trazado 1001652" d="M8.3,49.749c0,.359-.254.5-.567.323a1.249,1.249,0,0,1-.567-.977c0-.359.254-.5.567-.323a1.249,1.249,0,0,1,.567.977" transform="translate(-0.67 -4.547)" fill="#b5aa9c"/>
            <path id="Trazado_1001653" data-name="Trazado 1001653" d="M33.792,64.465c0,.359-.254.5-.567.323a1.249,1.249,0,0,1-.567-.977c0-.359.254-.5.567-.323a1.249,1.249,0,0,1,.567.977" transform="translate(-3.05 -5.921)" fill="#b5aa9c"/>
            <path id="Trazado_1001654" data-name="Trazado 1001654" d="M52.527,75.281c0,.359-.254.5-.567.323a1.248,1.248,0,0,1-.567-.976c0-.36.254-.5.567-.324a1.249,1.249,0,0,1,.567.977" transform="translate(-4.799 -6.932)" fill="#b5aa9c"/>
            <path id="Trazado_1001655" data-name="Trazado 1001655" d="M7.824,46.229c0,.329-.232.461-.519.3a1.142,1.142,0,0,1-.519-.895c0-.329.232-.461.519-.3a1.14,1.14,0,0,1,.519.895" transform="translate(-0.634 -4.227)" fill="#ff512e"/>
            <path id="Trazado_1001656" data-name="Trazado 1001656" d="M8.372,49.433c0,.359-.254.5-.567.323a1.249,1.249,0,0,1-.567-.977c0-.359.254-.5.567-.323a1.249,1.249,0,0,1,.567.977" transform="translate(-0.676 -4.518)" fill="#9da1bf"/>
            <path id="Trazado_1001657" data-name="Trazado 1001657" d="M33.86,64.149c0,.359-.254.5-.567.323a1.249,1.249,0,0,1-.567-.977c0-.359.254-.5.567-.323a1.249,1.249,0,0,1,.567.977" transform="translate(-3.056 -5.892)" fill="#9da1bf"/>
            <path id="Trazado_1001658" data-name="Trazado 1001658" d="M52.594,74.965c0,.359-.254.5-.567.323a1.249,1.249,0,0,1-.567-.977c0-.359.254-.5.567-.323a1.249,1.249,0,0,1,.567.977" transform="translate(-4.806 -6.902)" fill="#9da1bf"/>
            <path id="Trazado_1001659" data-name="Trazado 1001659" d="M8.236,49.493c0,.359-.254.5-.567.323a1.249,1.249,0,0,1-.567-.977c0-.359.254-.5.567-.323a1.249,1.249,0,0,1,.567.977" transform="translate(-0.663 -4.523)" fill="#f9f1ec"/>
            <path id="Trazado_1001660" data-name="Trazado 1001660" d="M8.159,49.455c0,.3-.215.427-.481.274A1.058,1.058,0,0,1,7.2,48.9c0-.3.215-.427.481-.274a1.058,1.058,0,0,1,.481.829" transform="translate(-0.672 -4.535)" fill="#e06f2e"/>
            <path id="Trazado_1001661" data-name="Trazado 1001661" d="M33.724,64.209c0,.359-.254.5-.567.323a1.248,1.248,0,0,1-.567-.976c0-.36.254-.5.567-.324a1.249,1.249,0,0,1,.567.977" transform="translate(-3.043 -5.898)" fill="#f9f1ec"/>
            <path id="Trazado_1001662" data-name="Trazado 1001662" d="M33.647,64.171c0,.3-.215.427-.481.274a1.058,1.058,0,0,1-.481-.829c0-.3.215-.427.481-.274a1.058,1.058,0,0,1,.481.829" transform="translate(-3.052 -5.909)" fill="#e06f2e"/>
            <path id="Trazado_1001663" data-name="Trazado 1001663" d="M52.459,75.025c0,.359-.255.5-.567.323a1.246,1.246,0,0,1-.567-.977c0-.359.253-.5.567-.323a1.251,1.251,0,0,1,.567.977" transform="translate(-4.793 -6.908)" fill="#f9f1ec"/>
            <path id="Trazado_1001664" data-name="Trazado 1001664" d="M52.382,74.987c0,.3-.215.427-.481.274a1.058,1.058,0,0,1-.48-.829c0-.3.215-.427.48-.274a1.058,1.058,0,0,1,.481.829" transform="translate(-4.802 -6.919)" fill="#e06f2e"/>
            <path id="Trazado_1001665" data-name="Trazado 1001665" d="M9.041,18.4,7.1,17.282v-.861L9.041,17.54Z" transform="translate(-0.663 -1.533)" fill="#cdc6bc"/>
            <path id="Trazado_1001666" data-name="Trazado 1001666" d="M8.887,18.167l-1.595-.921V16.61l1.595.921Z" transform="translate(-0.681 -1.551)" fill="#e06f2e"/>
            <path id="Trazado_1001667" data-name="Trazado 1001667" d="M35.684,33.783l-1.938-1.119V31.8l1.938,1.119Z" transform="translate(-3.151 -2.97)" fill="#cdc6bc"/>
            <path id="Trazado_1001668" data-name="Trazado 1001668" d="M35.53,33.549l-1.595-.921v-.636l1.595.921Z" transform="translate(-3.169 -2.988)" fill="#e06f2e"/>
            <path id="Trazado_1001669" data-name="Trazado 1001669" d="M69.278,53.179,67.34,52.06V51.2l1.938,1.12Z" transform="translate(-6.288 -4.781)" fill="#cdc6bc"/>
            <path id="Trazado_1001670" data-name="Trazado 1001670" d="M69.124,52.945l-1.595-.921v-.636l1.595.921Z" transform="translate(-6.306 -4.799)" fill="#e06f2e"/>
            <path id="Trazado_1001671" data-name="Trazado 1001671" d="M64.1,69.192l-6.71-3.874A3.083,3.083,0,0,1,56.1,62.859V53.725c0-.948.577-1.383,1.287-.973l6.71,3.874a3.081,3.081,0,0,1,1.286,2.459v9.134c0,.947-.576,1.383-1.286.973" transform="translate(-5.239 -4.912)" fill="#2d2c37"/>
            <path id="Trazado_1001672" data-name="Trazado 1001672" d="M56.514,63.194V53.92c0-.672.408-.98.912-.689l6.71,3.874a2.183,2.183,0,0,1,.911,1.742V68.12c0,.672-.408.98-.911.689l-6.71-3.874a2.181,2.181,0,0,1-.912-1.742" transform="translate(-5.277 -4.961)" fill="#573f3f"/>
            <path id="Trazado_1001673" data-name="Trazado 1001673" d="M59.455,78.4l-2.068-1.194A3.083,3.083,0,0,1,56.1,74.75V68.933c0-.947.577-1.383,1.287-.973l2.068,1.194a3.082,3.082,0,0,1,1.286,2.459V77.43c0,.947-.576,1.383-1.286.973" transform="translate(-5.239 -6.332)" fill="#2d2c37"/>
            <path id="Trazado_1001674" data-name="Trazado 1001674" d="M56.514,75.084V69.128c0-.671.408-.979.912-.689l2.068,1.194a2.185,2.185,0,0,1,.911,1.743v5.956c0,.672-.408.98-.911.689l-2.068-1.194a2.181,2.181,0,0,1-.912-1.742" transform="translate(-5.277 -6.381)" fill="#573f3f"/>
            <path id="Trazado_1001675" data-name="Trazado 1001675" d="M74.464,91.149a2.848,2.848,0,0,0-.631-1.118.555.555,0,0,1-.156-.447c.037-.117.208-.083.364.1a4.517,4.517,0,0,1,.838,1.483c.074.227.012.383-.11.35a.575.575,0,0,1-.3-.37" transform="translate(-6.879 -8.359)" fill="#504f58"/>
            <path id="Trazado_1001676" data-name="Trazado 1001676" d="M73.77,93.583a.605.605,0,0,0,.656-.345c.062-.1.19-.112.311,0a.42.42,0,0,1,.1.472.934.934,0,0,1-.871.458.443.443,0,0,1-.36-.334c-.033-.159.048-.257.169-.252" transform="translate(-6.872 -8.7)" fill="#504f58"/>
            <path id="Trazado_1001677" data-name="Trazado 1001677" d="M72.038,89a.605.605,0,0,0-.656.345c-.062.1-.19.112-.311,0a.42.42,0,0,1-.1-.472.934.934,0,0,1,.871-.458.443.443,0,0,1,.36.334c.033.159-.048.257-.169.252" transform="translate(-6.624 -8.257)" fill="#504f58"/>
            <path id="Trazado_1001678" data-name="Trazado 1001678" d="M71.885,92.647a4.518,4.518,0,0,1-.838-1.483.537.537,0,0,1-.027-.195c-.1-.006-.156.137-.086.346a4.5,4.5,0,0,0,.837,1.484c.157.183.327.218.364.1.008-.024-.006-.061-.008-.091a.434.434,0,0,1-.241-.162" transform="translate(-6.621 -8.495)" fill="#b7b4a9"/>
            <path id="Trazado_1001679" data-name="Trazado 1001679" d="M74.883,91.367a.575.575,0,0,1-.3-.37,2.854,2.854,0,0,0-.63-1.117.624.624,0,0,1-.149-.357.1.1,0,0,0-.122.062.559.559,0,0,0,.157.448,2.853,2.853,0,0,1,.63,1.117.578.578,0,0,0,.3.37c.081.022.131-.044.137-.155-.008,0-.014.005-.023,0" transform="translate(-6.879 -8.36)" fill="#b7b4a9"/>
            <path id="Trazado_1001680" data-name="Trazado 1001680" d="M74.074,94.062a.443.443,0,0,1-.36-.334c-.006-.034.009-.052.012-.08a.176.176,0,0,0-.126.232.443.443,0,0,0,.36.334.932.932,0,0,0,.871-.458l0-.01a.938.938,0,0,1-.761.316" transform="translate(-6.872 -8.745)" fill="#b7b4a9"/>
            <path id="Trazado_1001681" data-name="Trazado 1001681" d="M71.185,89.228a.422.422,0,0,1-.1-.462.839.839,0,0,0-.112.142.422.422,0,0,0,.1.472c.121.112.25.1.311,0a1.138,1.138,0,0,1,.1-.142c-.064.088-.186.1-.3-.01" transform="translate(-6.624 -8.289)" fill="#b7b4a9"/>
            <path id="Trazado_1001682" data-name="Trazado 1001682" d="M72.211,88.894a.6.6,0,0,0-.636.317.6.6,0,0,1,.522-.165c.094,0,.147-.069.158-.172-.016,0-.025.021-.044.02" transform="translate(-6.684 -8.299)" fill="#b7b4a9"/>
            <path id="Trazado_1001683" data-name="Trazado 1001683" d="M74.77,83.283h-.2l.007-5.757L75.8,74.457l.186.075L74.77,77.583Z" transform="translate(-6.964 -6.953)" fill="#c9c3b9"/>
            <path id="Trazado_1001684" data-name="Trazado 1001684" d="M82.812,84.647l-7.54-8.4.149-.134,7.54,8.4Z" transform="translate(-7.029 -7.108)" fill="#c9c3b9"/>
            <path id="Trazado_1001685" data-name="Trazado 1001685" d="M105.432,69.925,83.671,82.489v9.165L105.432,79.09Z" transform="translate(-7.813 -6.53)" fill="#e4dfd9"/>
            <path id="Trazado_1001686" data-name="Trazado 1001686" d="M101.211,73.441l-12.349,7.13v9.045l12.349-7.129Z" transform="translate(-8.298 -6.858)" fill="#ebe7e3"/>
            <path id="Trazado_1001687" data-name="Trazado 1001687" d="M100.65,75.083l-11.1,6.407v2.254l11.1-6.407Z" transform="translate(-8.363 -7.012)" fill="#554d4e"/>
            <path id="Trazado_1001688" data-name="Trazado 1001688" d="M100.65,79.5,89.553,85.9v3.319l11.1-6.407Z" transform="translate(-8.363 -7.424)" fill="#554d4e"/>
            <path id="Trazado_1001689" data-name="Trazado 1001689" d="M100,76.964,89.552,83v.745l11.1-6.407V75.083l-.645.373Z" transform="translate(-8.363 -7.011)" fill="#cdc6bc"/>
            <path id="Trazado_1001690" data-name="Trazado 1001690" d="M100,79.87v2.575L89.552,88.48v.745l11.1-6.407V79.5Z" transform="translate(-8.363 -7.424)" fill="#cdc6bc"/>
            <path id="Trazado_1001691" data-name="Trazado 1001691" d="M82.957,81.622l21.762-12.564L97.79,60.64,76.029,73.2Z" transform="translate(-7.1 -5.663)" fill="#f3f1ee"/>
            <path id="Trazado_1001692" data-name="Trazado 1001692" d="M76.029,73.2l6.982,8L87.1,78.994,104.42,68.94l-6.63-8.3,6.928,8.418L82.957,81.622Z" transform="translate(-7.1 -5.663)" fill="#faf8f5"/>
            <path id="Trazado_1001693" data-name="Trazado 1001693" d="M88.411,80.043l12.349-7.13-4.377-5.122-12.348,7.13Z" transform="translate(-7.847 -6.331)" fill="#f3f1ee"/>
            <path id="Trazado_1001694" data-name="Trazado 1001694" d="M72.086,52.065,93.848,39.5l3.574,19.165L75.66,71.23Z" transform="translate(-6.732 -3.689)" fill="#ebe7e3"/>
            <path id="Trazado_1001695" data-name="Trazado 1001695" d="M86.889,64.663l.079.371L76.112,71.3l-2.56-14.716,10.792-6.23.078.372Z" transform="translate(-6.868 -4.702)" fill="#554d4e"/>
            <path id="Trazado_1001696" data-name="Trazado 1001696" d="M86.6,64.911l-3.946,2.278L76.407,70.8,75.839,67.5,74.067,57.217,74,56.825l6.034-3.483,4.1-2.368,1.589,8.975.323,1.829Z" transform="translate(-6.91 -4.76)" fill="#b08480"/>
            <path id="Trazado_1001697" data-name="Trazado 1001697" d="M98.1,58.675,88.524,64.2l-.078-.371L85.98,49.9l-.079-.372,9.64-5.565Z" transform="translate(-8.022 -4.105)" fill="#554d4e"/>
            <path id="Trazado_1001698" data-name="Trazado 1001698" d="M97.736,58.551l-3.269,1.888L90.023,63l-1.206.7-.467-2.638-.085-.48L86.63,51.34l-.279-1.578,5.56-3.209L95.33,44.58l1.28,7.43,1,5.814Z" transform="translate(-8.064 -4.163)" fill="#b08480"/>
            <path id="Trazado_1001699" data-name="Trazado 1001699" d="M98.27,58.372l-.257.42-1.43.825L93.7,57.952V45.922l2.235-1.29Z" transform="translate(-8.75 -4.168)" fill="#d6b6b2"/>
            <path id="Trazado_1001700" data-name="Trazado 1001700" d="M72.045,51.928,93.806,39.364l-.4-1.333L71.642,50.6Z" transform="translate(-6.69 -3.552)" fill="#f3f1ee"/>
            <path id="Trazado_1001701" data-name="Trazado 1001701" d="M87.252,34.48,27.532,0,5.77,12.564l59.721,34.48Z" transform="translate(-0.539 0)" fill="#fcfbfa"/>
            <path id="Trazado_1001702" data-name="Trazado 1001702" d="M106.587,80.621,84.727,93.242v3.036l21.86-12.621Z" transform="translate(-7.912 -7.529)" fill="#554d4e"/>
            <path id="Trazado_1001703" data-name="Trazado 1001703" d="M82.23,85.655l-.642.37v1.141l.642-.092Z" transform="translate(-7.619 -7.999)" fill="#e07427"/>
            <path id="Trazado_1001704" data-name="Trazado 1001704" d="M88.385,81.062v9.165l.432.1V81.283Z" transform="translate(-8.254 -7.57)" fill="#ded8d1"/>
            <path id="Trazado_1001705" data-name="Trazado 1001705" d="M49.089,66.566l-43.3-25V40.314l43.3,25Z" transform="translate(-0.541 -3.765)" fill="#493f41"/>
            <path id="Trazado_1001706" data-name="Trazado 1001706" d="M102.866,81.609l2.977-1.719-2.723.41-.254.41Z" transform="translate(-9.606 -7.46)" fill="#b5aa9c"/>
            <path id="Trazado_1001707" data-name="Trazado 1001707" d="M103.047,73.424l2.3-1.085c.226-.131.408-.026.408.232v4.792a.9.9,0,0,1-.408.7l-2.3,1.326c-.226.131-.408.026-.408-.232V74.369a1.414,1.414,0,0,1,.408-.945" transform="translate(-9.585 -6.75)" fill="#b5aa9c"/>
            <path id="Trazado_1001708" data-name="Trazado 1001708" d="M106.065,71.957l-.233-.137-.005,0h0a.288.288,0,0,0-.284.032l-2.3,1.326a.9.9,0,0,0-.408.7V78.67a.292.292,0,0,0,.106.252h0l.028.015.226.13.073-.18,2.274-1.313a.9.9,0,0,0,.408-.7V72.245Z" transform="translate(-9.603 -6.704)" fill="#393843"/>
            <path id="Trazado_1001709" data-name="Trazado 1001709" d="M103.479,73.311l2.3-1.326c.226-.131.408-.026.408.232v4.792a.9.9,0,0,1-.408.7l-2.3,1.326c-.226.131-.408.026-.408-.232V74.014a.9.9,0,0,1,.408-.7" transform="translate(-9.625 -6.717)" fill="#5c5b64"/>
            <path id="Trazado_1001710" data-name="Trazado 1001710" d="M103.619,73.633l2.066-1.193c.153-.088.277-.018.277.156V77a.607.607,0,0,1-.277.475l-2.066,1.193c-.153.089-.277.019-.277-.156V74.109a.607.607,0,0,1,.277-.476" transform="translate(-9.65 -6.761)" fill="#cfcedf"/>
            <path id="Trazado_1001711" data-name="Trazado 1001711" d="M106.389,72.825l-.48-.391L103.454,78.7l.582.121Z" transform="translate(-9.661 -6.764)" fill="#cfcedf"/>
            <path id="Trazado_1001712" data-name="Trazado 1001712" d="M104.25,74.008l1.979-1.142c.147-.085.266-.018.266.149v4.219a.581.581,0,0,1-.266.456l-1.979,1.142c-.147.085-.266.018-.266-.149V74.464a.581.581,0,0,1,.266-.456" transform="translate(-9.71 -6.801)" fill="#f3f1ee"/>
            <g id="Grupo_1179016" data-name="Grupo 1179016" transform="translate(93.806 65.845)" style="mix-blend-mode: multiply;isolation: isolate">
              <g id="Grupo_1179015" data-name="Grupo 1179015">
                <g id="Grupo_1179014" data-name="Grupo 1179014" clip-path="url(#clip-path-6)">
                  <path id="Trazado_1001713" data-name="Trazado 1001713" d="M103.734,73.808l1.979-1.142c.147-.085.266-.018.266.149v4.219a.581.581,0,0,1-.266.456l-1.979,1.142c-.147.085-.266.018-.266-.149V74.264a.581.581,0,0,1,.266-.456" transform="translate(-103.468 -72.628)" fill="#eefaf9"/>
                </g>
              </g>
            </g>
            <path id="Trazado_1001714" data-name="Trazado 1001714" d="M103.553,81.3l2.977-1.719v-.9L103.553,80.4Z" transform="translate(-9.67 -7.348)" fill="#e07427"/>
            <path id="Trazado_1001715" data-name="Trazado 1001715" d="M103.515,80.379l-.369-.213,2.977-1.719.369.213Z" transform="translate(-9.632 -7.326)" fill="#ff9a2e"/>
            <path id="Trazado_1001716" data-name="Trazado 1001716" d="M103.515,80.556l-.369-.213v.9l.369.214Z" transform="translate(-9.632 -7.503)" fill="#e06f2e"/>
            <path id="Trazado_1001717" data-name="Trazado 1001717" d="M84.414,92.282l2.977-1.719-2.723.41-.254.41Z" transform="translate(-7.883 -8.457)" fill="#b5aa9c"/>
            <path id="Trazado_1001718" data-name="Trazado 1001718" d="M84.595,84.1l2.3-1.085c.226-.131.408-.026.408.232v4.792a.9.9,0,0,1-.408.7l-2.3,1.326c-.226.131-.408.026-.408-.232V85.042a1.414,1.414,0,0,1,.408-.945" transform="translate(-7.862 -7.747)" fill="#b5aa9c"/>
            <path id="Trazado_1001719" data-name="Trazado 1001719" d="M87.613,82.629l-.233-.136,0,0h0a.29.29,0,0,0-.284.032l-2.3,1.326a.9.9,0,0,0-.408.7v4.792a.294.294,0,0,0,.106.253.171.171,0,0,0,.028.015l.226.13.073-.179,2.274-1.313a.9.9,0,0,0,.408-.7V82.917Z" transform="translate(-7.88 -7.701)" fill="#393843"/>
            <path id="Trazado_1001720" data-name="Trazado 1001720" d="M85.026,83.983l2.3-1.326c.226-.131.408-.026.408.232v4.792a.9.9,0,0,1-.408.7l-2.3,1.326c-.225.131-.408.026-.408-.232V84.686a.9.9,0,0,1,.408-.7" transform="translate(-7.902 -7.713)" fill="#5c5b64"/>
            <path id="Trazado_1001721" data-name="Trazado 1001721" d="M85.168,84.306l2.066-1.193c.153-.089.277-.019.277.156v4.405a.607.607,0,0,1-.277.476l-2.066,1.193c-.153.089-.277.019-.277-.156V84.782a.606.606,0,0,1,.277-.476" transform="translate(-7.927 -7.758)" fill="#cfcedf"/>
            <path id="Trazado_1001722" data-name="Trazado 1001722" d="M87.937,83.5l-.48-.391L85,89.376l.582.121Z" transform="translate(-7.938 -7.761)" fill="#cfcedf"/>
            <path id="Trazado_1001723" data-name="Trazado 1001723" d="M85.8,84.68l1.979-1.142c.147-.085.266-.018.266.149v4.219a.581.581,0,0,1-.266.456L85.8,89.5c-.146.085-.265.018-.265-.149V85.136a.583.583,0,0,1,.265-.456" transform="translate(-7.987 -7.798)" fill="#f3f1ee"/>
            <path id="Trazado_1001724" data-name="Trazado 1001724" d="M85.1,91.972l2.977-1.719v-.9L85.1,91.073Z" transform="translate(-7.947 -8.344)" fill="#e07427"/>
            <g id="Grupo_1179019" data-name="Grupo 1179019" transform="translate(93.576 71.166)" style="mix-blend-mode: multiply;isolation: isolate">
              <g id="Grupo_1179018" data-name="Grupo 1179018">
                <g id="Grupo_1179017" data-name="Grupo 1179017" clip-path="url(#clip-path-7)">
                  <path id="Trazado_1001725" data-name="Trazado 1001725" d="M103.215,81.114l2.977-1.719v-.9l-2.977,1.719Z" transform="translate(-103.215 -78.496)" fill="#f5ec73"/>
                </g>
              </g>
            </g>
            <g id="Grupo_1179022" data-name="Grupo 1179022" transform="translate(76.847 80.841)" style="mix-blend-mode: multiply;isolation: isolate">
              <g id="Grupo_1179021" data-name="Grupo 1179021">
                <g id="Grupo_1179020" data-name="Grupo 1179020" clip-path="url(#clip-path-7)">
                  <path id="Trazado_1001726" data-name="Trazado 1001726" d="M84.763,91.786l2.977-1.719v-.9l-2.977,1.719Z" transform="translate(-84.763 -89.168)" fill="#f5ec73"/>
                </g>
              </g>
            </g>
            <path id="Trazado_1001727" data-name="Trazado 1001727" d="M85.063,91.051l-.369-.213,2.977-1.719.369.213Z" transform="translate(-7.909 -8.322)" fill="#ff9a2e"/>
            <path id="Trazado_1001728" data-name="Trazado 1001728" d="M85.063,91.228l-.369-.213v.9l.369.213Z" transform="translate(-7.909 -8.499)" fill="#e06f2e"/>
            <path id="Trazado_1001729" data-name="Trazado 1001729" d="M55.291,77.509v-27.2l-.65-.375V77.884l8.377,4.837.3-.575Z" transform="translate(-5.103 -4.663)" fill="#9b897f"/>
            <path id="Trazado_1001730" data-name="Trazado 1001730" d="M86.237,62.89l.555,3.133L76.6,71.91l-.567-3.295Z" transform="translate(-7.1 -5.873)" fill="#997a77"/>
            <path id="Trazado_1001731" data-name="Trazado 1001731" d="M97.933,59.84l-8.918,5.15-.552-3.118,6.214-3.486,3.131.727Z" transform="translate(-8.261 -5.452)" fill="#997a77"/>
            <path id="Trazado_1001732" data-name="Trazado 1001732" d="M55.291,80.349l-.65.375,8.377,4.837.3-.575Z" transform="translate(-5.103 -7.503)" fill="#f3f1ee"/>
            <path id="Trazado_1001733" data-name="Trazado 1001733" d="M62.384,87.975,52.225,82.11v.637l10.159,5.865Z" transform="translate(-4.877 -7.668)" fill="#493f41"/>
            <path id="Trazado_1001734" data-name="Trazado 1001734" d="M63.43,88.484l1.606-.927v.637l-1.606.927Z" transform="translate(-5.923 -8.176)" fill="#554d4e"/>
            <path id="Trazado_1001735" data-name="Trazado 1001735" d="M62.384,87.88l1.606-.927L53.832,81.087l-1.607.927Z" transform="translate(-4.877 -7.572)" fill="#6b6164"/>
            <g id="Grupo_1179025" data-name="Grupo 1179025" transform="translate(77.065 75.45)" style="mix-blend-mode: multiply;isolation: isolate">
              <g id="Grupo_1179024" data-name="Grupo 1179024">
                <g id="Grupo_1179023" data-name="Grupo 1179023" clip-path="url(#clip-path-6)">
                  <path id="Trazado_1001736" data-name="Trazado 1001736" d="M85.268,84.4l1.979-1.142c.147-.085.266-.018.266.149v4.219a.581.581,0,0,1-.266.456l-1.979,1.142c-.147.085-.266.018-.266-.149V84.857a.581.581,0,0,1,.266-.456" transform="translate(-85.002 -83.221)" fill="#eefaf9"/>
                </g>
              </g>
            </g>
            <g id="Grupo_1179028" data-name="Grupo 1179028" transform="translate(50.188 45.644)" style="mix-blend-mode: multiply;isolation: isolate">
              <g id="Grupo_1179027" data-name="Grupo 1179027">
                <g id="Grupo_1179026" data-name="Grupo 1179026" clip-path="url(#clip-path-10)">
                  <path id="Trazado_1001737" data-name="Trazado 1001737" d="M55.358,50.345v.57l11.035,6.495V74.953l-3.544,6.92.54.312,3.8-7.17V57.177Z" transform="translate(-55.358 -50.345)" fill="#f2f1f0"/>
                </g>
              </g>
            </g>
            <path id="Trazado_1001738" data-name="Trazado 1001738" d="M87.785,80.332l-5.826-7.085,6.258,7.306Z" transform="translate(-7.654 -6.84)" fill="#ded8d1"/>
            <path id="Trazado_1001739" data-name="Trazado 1001739" d="M100,77.158l.645.373-11.1,6.407v-.745Z" transform="translate(-8.363 -7.205)" fill="#f3f1ee"/>
            <path id="Trazado_1001740" data-name="Trazado 1001740" d="M100,82.748l.645.373-11.1,6.407v-.745Z" transform="translate(-8.363 -7.727)" fill="#f3f1ee"/>
            <path id="Trazado_1001741" data-name="Trazado 1001741" d="M85.045,50.974l.413,2.329-1.715-1.577Z" transform="translate(-7.82 -4.76)" fill="#cbcadd"/>
            <path id="Trazado_1001742" data-name="Trazado 1001742" d="M89.595,48.231V55.1c0,.671-.408.979-.912.689L87.1,54.333,86.35,50.1Z" transform="translate(-8.064 -4.504)" fill="#cbcadd"/>
            <path id="Trazado_1001743" data-name="Trazado 1001743" d="M85.457,53.3l-1.715-1.578,1.3-.752Z" transform="translate(-7.82 -4.76)" fill="#d6b6b2"/>
            <path id="Trazado_1001744" data-name="Trazado 1001744" d="M86.35,50.1l3.245-1.873V55.1c0,.671-.408.979-.912.688L87.1,54.333Z" transform="translate(-8.064 -4.504)" fill="#d6b6b2"/>
            <path id="Trazado_1001745" data-name="Trazado 1001745" d="M65.405,47.051,7.349,13.484l.406-.235,57.791,33.8Z" transform="translate(-0.686 -1.237)" fill="#ebe7e3"/>
            <path id="Trazado_1001746" data-name="Trazado 1001746" d="M65.561,46.9,7.5,13.337l.406-.235L65.967,46.669Z" transform="translate(-0.701 -1.224)" fill="#fcfbfa"/>
            <path id="Trazado_1001747" data-name="Trazado 1001747" d="M71.541,50.361v.133l.406-.235v-.133Z" transform="translate(-6.681 -4.681)" fill="#ebe7e3"/>
            <path id="Trazado_1001748" data-name="Trazado 1001748" d="M65.561,47.061,7.5,13.494v-.133L65.561,46.928Z" transform="translate(-0.701 -1.248)" fill="#cdc6bc"/>
            <path id="Trazado_1001749" data-name="Trazado 1001749" d="M68.352,45.349,10.3,11.783l.406-.235,57.791,33.8Z" transform="translate(-0.961 -1.078)" fill="#ebe7e3"/>
            <path id="Trazado_1001750" data-name="Trazado 1001750" d="M68.508,45.2,10.452,11.636l.406-.235L68.914,44.967Z" transform="translate(-0.976 -1.065)" fill="#fcfbfa"/>
            <path id="Trazado_1001751" data-name="Trazado 1001751" d="M74.488,48.66v.133l.406-.235v-.133Z" transform="translate(-6.956 -4.522)" fill="#ebe7e3"/>
            <path id="Trazado_1001752" data-name="Trazado 1001752" d="M68.508,45.36,10.452,11.793V11.66L68.508,45.226Z" transform="translate(-0.976 -1.089)" fill="#cdc6bc"/>
            <path id="Trazado_1001753" data-name="Trazado 1001753" d="M71.3,43.648,13.243,10.081l.406-.235,57.791,33.8Z" transform="translate(-1.237 -0.92)" fill="#ebe7e3"/>
            <path id="Trazado_1001754" data-name="Trazado 1001754" d="M71.455,43.5,13.4,9.934,13.8,9.7,71.862,43.266Z" transform="translate(-1.251 -0.906)" fill="#fcfbfa"/>
            <path id="Trazado_1001755" data-name="Trazado 1001755" d="M77.434,46.958v.133l.407-.235v-.133Z" transform="translate(-7.231 -4.363)" fill="#ebe7e3"/>
            <path id="Trazado_1001756" data-name="Trazado 1001756" d="M71.455,43.658,13.4,10.092V9.959L71.455,43.525Z" transform="translate(-1.251 -0.93)" fill="#cdc6bc"/>
            <path id="Trazado_1001757" data-name="Trazado 1001757" d="M74.246,41.946,16.19,8.38l.406-.235,57.791,33.8Z" transform="translate(-1.512 -0.761)" fill="#ebe7e3"/>
            <path id="Trazado_1001758" data-name="Trazado 1001758" d="M74.4,41.8,16.345,8.233,16.752,8,74.808,41.565Z" transform="translate(-1.526 -0.747)" fill="#fcfbfa"/>
            <path id="Trazado_1001759" data-name="Trazado 1001759" d="M80.381,45.257v.133l.406-.235v-.133Z" transform="translate(-7.506 -4.204)" fill="#ebe7e3"/>
            <path id="Trazado_1001760" data-name="Trazado 1001760" d="M74.4,41.957,16.345,8.39V8.257L74.4,41.824Z" transform="translate(-1.526 -0.771)" fill="#cdc6bc"/>
            <path id="Trazado_1001761" data-name="Trazado 1001761" d="M77.193,40.245,19.137,6.679l.406-.235,57.791,33.8Z" transform="translate(-1.787 -0.602)" fill="#ebe7e3"/>
            <path id="Trazado_1001762" data-name="Trazado 1001762" d="M77.348,40.1,19.292,6.532,19.7,6.3,77.754,39.863Z" transform="translate(-1.802 -0.588)" fill="#fcfbfa"/>
            <path id="Trazado_1001763" data-name="Trazado 1001763" d="M83.328,43.556v.133l.406-.235v-.133Z" transform="translate(-7.781 -4.045)" fill="#ebe7e3"/>
            <path id="Trazado_1001764" data-name="Trazado 1001764" d="M77.348,40.256,19.292,6.689V6.556L77.348,40.122Z" transform="translate(-1.802 -0.612)" fill="#cdc6bc"/>
            <path id="Trazado_1001765" data-name="Trazado 1001765" d="M80.14,38.544,22.083,4.977l.406-.235,57.791,33.8Z" transform="translate(-2.062 -0.443)" fill="#ebe7e3"/>
            <path id="Trazado_1001766" data-name="Trazado 1001766" d="M80.3,38.4,22.239,4.83l.406-.235L80.7,38.162Z" transform="translate(-2.077 -0.429)" fill="#fcfbfa"/>
            <path id="Trazado_1001767" data-name="Trazado 1001767" d="M86.275,41.854v.133l.407-.235v-.133Z" transform="translate(-8.057 -3.887)" fill="#ebe7e3"/>
            <path id="Trazado_1001768" data-name="Trazado 1001768" d="M80.3,38.554,22.239,4.988V4.854L80.3,38.421Z" transform="translate(-2.077 -0.453)" fill="#cdc6bc"/>
            <path id="Trazado_1001769" data-name="Trazado 1001769" d="M83.086,36.842,25.03,3.276l.406-.235,57.791,33.8Z" transform="translate(-2.337 -0.284)" fill="#ebe7e3"/>
            <path id="Trazado_1001770" data-name="Trazado 1001770" d="M83.242,36.7,25.186,3.129l.406-.235L83.648,36.461Z" transform="translate(-2.352 -0.27)" fill="#fcfbfa"/>
            <path id="Trazado_1001771" data-name="Trazado 1001771" d="M89.222,40.153v.133l.406-.235v-.133Z" transform="translate(-8.332 -3.728)" fill="#ebe7e3"/>
            <path id="Trazado_1001772" data-name="Trazado 1001772" d="M83.242,36.853,25.186,3.286V3.153L83.242,36.72Z" transform="translate(-2.352 -0.294)" fill="#cdc6bc"/>
            <path id="Trazado_1001773" data-name="Trazado 1001773" d="M86.033,35.141,27.977,1.575l.406-.235,57.791,33.8Z" transform="translate(-2.613 -0.125)" fill="#ebe7e3"/>
            <path id="Trazado_1001774" data-name="Trazado 1001774" d="M86.189,34.994,28.133,1.428l.406-.235L86.595,34.759Z" transform="translate(-2.627 -0.111)" fill="#fcfbfa"/>
            <path id="Trazado_1001775" data-name="Trazado 1001775" d="M92.169,38.452v.133l.406-.235v-.133Z" transform="translate(-8.607 -3.569)" fill="#ebe7e3"/>
            <path id="Trazado_1001776" data-name="Trazado 1001776" d="M86.189,35.152,28.133,1.585V1.452L86.189,35.018Z" transform="translate(-2.627 -0.136)" fill="#cdc6bc"/>
            <path id="Trazado_1001777" data-name="Trazado 1001777" d="M77.528,47.629l-.957-.548.757-.451.744,1Z" transform="translate(-7.15 -4.355)" fill="#ebe7e3"/>
            <path id="Trazado_1001778" data-name="Trazado 1001778" d="M78.227,47.647l.757-.451v-.375l-.757.451Z" transform="translate(-7.305 -4.372)" fill="#e07427"/>
            <path id="Trazado_1001779" data-name="Trazado 1001779" d="M78.128,47.216l-.957-.548.757-.451.957.548Z" transform="translate(-7.207 -4.316)" fill="#ff9a2e"/>
            <path id="Trazado_1001780" data-name="Trazado 1001780" d="M78.128,47.262l-.957-.548v.374l.957.549Z" transform="translate(-7.207 -4.362)" fill="#e06f2e"/>
            <path id="Trazado_1001781" data-name="Trazado 1001781" d="M81.7,45.145l-.957-.549.757-.45.744,1Z" transform="translate(-7.54 -4.123)" fill="#ebe7e3"/>
            <path id="Trazado_1001782" data-name="Trazado 1001782" d="M82.4,45.163l.757-.451v-.375l-.757.451Z" transform="translate(-7.695 -4.14)" fill="#e07427"/>
            <path id="Trazado_1001783" data-name="Trazado 1001783" d="M82.3,44.731l-.957-.548.757-.451.957.548Z" transform="translate(-7.596 -4.084)" fill="#ff9a2e"/>
            <path id="Trazado_1001784" data-name="Trazado 1001784" d="M82.3,44.778l-.957-.548V44.6l.957.549Z" transform="translate(-7.596 -4.13)" fill="#e06f2e"/>
            <path id="Trazado_1001785" data-name="Trazado 1001785" d="M85.878,42.661l-.957-.548.757-.451.744,1Z" transform="translate(-7.93 -3.891)" fill="#ebe7e3"/>
            <path id="Trazado_1001786" data-name="Trazado 1001786" d="M86.576,42.679l.757-.451v-.375l-.757.451Z" transform="translate(-8.085 -3.908)" fill="#e07427"/>
            <path id="Trazado_1001787" data-name="Trazado 1001787" d="M86.478,42.247,85.52,41.7l.757-.451.957.548Z" transform="translate(-7.986 -3.852)" fill="#ff9a2e"/>
            <path id="Trazado_1001788" data-name="Trazado 1001788" d="M86.478,42.294l-.957-.548v.374l.957.549Z" transform="translate(-7.986 -3.898)" fill="#e06f2e"/>
            <path id="Trazado_1001789" data-name="Trazado 1001789" d="M83.848,71.975l4.965-2.867-.963-1.178L82.885,70.8Z" transform="translate(-7.74 -6.344)" fill="#cdc6bc"/>
            <path id="Trazado_1001790" data-name="Trazado 1001790" d="M91.495,67.531l4.965-2.867L95.5,63.487l-4.965,2.866Z" transform="translate(-8.454 -5.929)" fill="#cdc6bc"/>
            <path id="Trazado_1001791" data-name="Trazado 1001791" d="M86.26,68.274a.222.222,0,0,0,.357-.044.363.363,0,0,0-.032-.44.223.223,0,0,0-.357.043.364.364,0,0,0,.032.441" transform="translate(-8.047 -6.324)" fill="#493f41"/>
            <path id="Trazado_1001792" data-name="Trazado 1001792" d="M86.283,68.247a.2.2,0,0,0,.312-.038.317.317,0,0,0-.028-.384.207.207,0,0,0-.312.038.318.318,0,0,0,.028.384" transform="translate(-8.05 -6.328)" fill="#493f41"/>
            <path id="Trazado_1001793" data-name="Trazado 1001793" d="M86.449,67.763a1.2,1.2,0,0,1,.228.037c.055.024.033.413.033.413a.926.926,0,0,1-.241.094c-.108.019-.019-.544-.019-.544" transform="translate(-8.07 -6.328)" fill="#493f41"/>
            <path id="Trazado_1001794" data-name="Trazado 1001794" d="M86.543,68.182a.153.153,0,0,0,.245-.03.25.25,0,0,0-.022-.3.153.153,0,0,0-.245.03.25.25,0,0,0,.022.3" transform="translate(-8.076 -6.332)" fill="#5c504e"/>
            <g id="Grupo_1179031" data-name="Grupo 1179031" transform="translate(67.09 48.582)" style="mix-blend-mode: screen;isolation: isolate">
              <g id="Grupo_1179030" data-name="Grupo 1179030">
                <g id="Grupo_1179029" data-name="Grupo 1179029" clip-path="url(#clip-path-11)">
                  <path id="Trazado_1001795" data-name="Trazado 1001795" d="M86.047,62.021l.555,3.133-3.947,2.278L74.067,57.46,74,57.07l6.034-3.484,5.69,6.607Z" transform="translate(-74 -53.586)" fill="#383838"/>
                </g>
              </g>
            </g>
            <g id="Grupo_1179034" data-name="Grupo 1179034" transform="translate(80.287 56.899)" style="mix-blend-mode: screen;isolation: isolate">
              <g id="Grupo_1179033" data-name="Grupo 1179033">
                <g id="Grupo_1179032" data-name="Grupo 1179032" clip-path="url(#clip-path-12)">
                  <path id="Trazado_1001796" data-name="Trazado 1001796" d="M90.229,64.7l-1.207.7-.466-2.638Z" transform="translate(-88.557 -62.76)" fill="#383838"/>
                </g>
              </g>
            </g>
            <g id="Grupo_1179037" data-name="Grupo 1179037" transform="translate(78.287 42.391)" style="mix-blend-mode: screen;isolation: isolate">
              <g id="Grupo_1179036" data-name="Grupo 1179036">
                <g id="Grupo_1179035" data-name="Grupo 1179035" clip-path="url(#clip-path-13)">
                  <path id="Trazado_1001797" data-name="Trazado 1001797" d="M97.736,58.754l-3.269,1.888-7.837-9.1-.279-1.578,5.56-3.209,4.7,5.456,1,5.814Z" transform="translate(-86.35 -46.757)" fill="#383838"/>
                </g>
              </g>
            </g>
            <path id="Trazado_1001798" data-name="Trazado 1001798" d="M91.734,91.865l-1.386.8V92.05l1.386-.8Z" transform="translate(-8.437 -8.521)" fill="#493f41"/>
            <path id="Trazado_1001799" data-name="Trazado 1001799" d="M91.624,91.84l-1.141.658v-.455l1.141-.658Z" transform="translate(-8.45 -8.534)" fill="#e06f2e"/>
            <path id="Trazado_1001800" data-name="Trazado 1001800" d="M102.639,85.311l-1.141.658v-.455l1.141-.658Z" transform="translate(-9.478 -7.924)" fill="#e06f2e"/>
            <path id="Trazado_1001801" data-name="Trazado 1001801" d="M83.841,68.177l-.314.3,2.636-.267-.029-.373Z" transform="translate(-7.8 -6.334)" fill="#493f41"/>
            <path id="Trazado_1001802" data-name="Trazado 1001802" d="M85.872,66.974c-.027,0-7.472,3.865-7.472,3.865l-.08-.236,7.256-3.923Z" transform="translate(-7.314 -6.227)" fill="#5c504e"/>
            <path id="Trazado_1001803" data-name="Trazado 1001803" d="M43.354,56.874a2.175,2.175,0,0,1-1.079-.319L30.066,49.506a5.589,5.589,0,0,1-2.383-4.516V38.025a2.34,2.34,0,0,1,.965-2.128,1.807,1.807,0,0,1,1.852.114L42.708,43.06a5.59,5.59,0,0,1,2.383,4.516v6.966a2.337,2.337,0,0,1-.966,2.127,1.52,1.52,0,0,1-.772.2m-.646-1.069a1.008,1.008,0,0,0,.985.114,1.562,1.562,0,0,0,.532-1.377V47.576a4.8,4.8,0,0,0-1.951-3.766L30.066,36.761a1.009,1.009,0,0,0-.985-.114,1.559,1.559,0,0,0-.532,1.378V44.99A4.794,4.794,0,0,0,30.5,48.756Z" transform="translate(-2.585 -3.333)" fill="#e9e5e1"/>
            <path id="Trazado_1001804" data-name="Trazado 1001804" d="M43.345,56.434a2.164,2.164,0,0,1-1.079-.318L30.057,49.067a5.589,5.589,0,0,1-2.383-4.516V37.585a2.34,2.34,0,0,1,.966-2.128,1.807,1.807,0,0,1,1.851.114L42.7,42.621a5.588,5.588,0,0,1,2.383,4.515V54.1a2.341,2.341,0,0,1-.966,2.128,1.539,1.539,0,0,1-.773.2M29.415,36.119a.674.674,0,0,0-.343.089,1.56,1.56,0,0,0-.533,1.377v6.966a4.8,4.8,0,0,0,1.952,3.766L42.7,55.366a1,1,0,0,0,.985.113,1.56,1.56,0,0,0,.533-1.377V47.136a4.8,4.8,0,0,0-1.952-3.765l-12.209-7.05a1.351,1.351,0,0,0-.642-.2" transform="translate(-2.584 -3.292)" fill="#d9d3cc"/>
            <path id="Trazado_1001805" data-name="Trazado 1001805" d="M22.4,44.776a2.175,2.175,0,0,1-1.079-.319L9.112,37.408a5.587,5.587,0,0,1-2.383-4.515V25.927A2.341,2.341,0,0,1,7.694,23.8a1.807,1.807,0,0,1,1.852.114l12.208,7.049a5.589,5.589,0,0,1,2.383,4.516v6.966a2.337,2.337,0,0,1-.966,2.127,1.522,1.522,0,0,1-.772.2m-.646-1.069a1,1,0,0,0,.985.114,1.558,1.558,0,0,0,.533-1.377V35.478a4.8,4.8,0,0,0-1.951-3.766L9.112,24.663a1.009,1.009,0,0,0-.985-.114,1.558,1.558,0,0,0-.533,1.378v6.966a4.794,4.794,0,0,0,1.951,3.765Z" transform="translate(-0.628 -2.203)" fill="#e9e5e1"/>
            <path id="Trazado_1001806" data-name="Trazado 1001806" d="M22.391,44.336a2.163,2.163,0,0,1-1.078-.319L9.1,36.969A5.591,5.591,0,0,1,6.72,32.453V25.487a2.343,2.343,0,0,1,.965-2.128,1.809,1.809,0,0,1,1.852.114l12.21,7.049a5.594,5.594,0,0,1,2.383,4.516V42a2.341,2.341,0,0,1-.967,2.128,1.528,1.528,0,0,1-.772.2M8.462,24.021a.673.673,0,0,0-.344.089,1.56,1.56,0,0,0-.533,1.377v6.966a4.792,4.792,0,0,0,1.952,3.765l12.21,7.049a1,1,0,0,0,.984.114A1.56,1.56,0,0,0,23.264,42V35.038a4.8,4.8,0,0,0-1.951-3.766L9.1,24.224a1.341,1.341,0,0,0-.641-.2" transform="translate(-0.628 -2.162)" fill="#d9d3cc"/>
            <path id="Trazado_1001807" data-name="Trazado 1001807" d="M48.515,63.163l-43.3-25V36.91l43.3,25Z" transform="translate(-0.487 -3.447)" fill="#f5b53d"/>
            <path id="Trazado_1001808" data-name="Trazado 1001808" d="M12.389,30.046v2.538a.623.623,0,0,0,.931.541l2.211-1.261a.622.622,0,0,0,0-1.08l-2.211-1.277a.623.623,0,0,0-.934.539" transform="translate(-1.157 -2.748)" fill="#de4037"/>
            <path id="Trazado_1001809" data-name="Trazado 1001809" d="M19.265,39.879V37.342a.622.622,0,0,0-.931-.54l-2.211,1.26a.622.622,0,0,0,0,1.08l2.211,1.277a.623.623,0,0,0,.934-.539" transform="translate(-1.476 -3.429)" fill="#de4037"/>
            <path id="Trazado_1001810" data-name="Trazado 1001810" d="M12.7,37.091,14.455,38.1a.622.622,0,0,0,.849-.851L13.55,34.227a.622.622,0,0,0-1.16.312v2.013a.621.621,0,0,0,.311.539" transform="translate(-1.157 -3.167)" fill="#f5b53d"/>
            <path id="Trazado_1001811" data-name="Trazado 1001811" d="M19,32.785l-1.754-1.013a.622.622,0,0,0-.849.851l1.754,3.026a.622.622,0,0,0,1.16-.313V33.324A.623.623,0,0,0,19,32.785" transform="translate(-1.523 -2.959)" fill="#f5b53d"/>
            <path id="Trazado_1001827" data-name="Trazado 1001827" d="M97.2,61.936a.222.222,0,0,0,.357-.044.364.364,0,0,0-.032-.44.223.223,0,0,0-.357.043.363.363,0,0,0,.032.441" transform="translate(-9.068 -5.732)" fill="#493f41"/>
            <path id="Trazado_1001828" data-name="Trazado 1001828" d="M97.223,61.91a.194.194,0,0,0,.312-.038.317.317,0,0,0-.028-.384.191.191,0,0,0-.292.013.273.273,0,0,0-.02.025.318.318,0,0,0,.028.384" transform="translate(-9.072 -5.736)" fill="#493f41"/>
            <path id="Trazado_1001829" data-name="Trazado 1001829" d="M97.389,61.426a1.2,1.2,0,0,1,.228.037c.055.024.033.413.033.413a.926.926,0,0,1-.241.094c-.108.019-.019-.544-.019-.544" transform="translate(-9.091 -5.736)" fill="#493f41"/>
            <path id="Trazado_1001830" data-name="Trazado 1001830" d="M97.483,61.844a.154.154,0,0,0,.246-.03.252.252,0,0,0-.023-.3.153.153,0,0,0-.245.03.25.25,0,0,0,.022.3" transform="translate(-9.097 -5.74)" fill="#5c504e"/>
            <path id="Trazado_1001831" data-name="Trazado 1001831" d="M94.781,61.839l-.314.3,2.636-.267-.029-.373Z" transform="translate(-8.822 -5.743)" fill="#493f41"/>
            <path id="Trazado_1001832" data-name="Trazado 1001832" d="M96.812,60.637c-.027,0-7.472,3.865-7.472,3.865l-.08-.236,7.256-3.923Z" transform="translate(-8.335 -5.635)" fill="#5c504e"/>
            <path id="Trazado_1001833" data-name="Trazado 1001833" d="M96.19,67.791l4.049,5.052L88.28,79.757l-6.321-7.02,6.258,7.306,12.348-7.13Z" transform="translate(-7.654 -6.331)" fill="#faf8f5"/>
            <path id="Trazado_1001834" data-name="Trazado 1001834" d="M93.458,93.569l3.523-2.034a1.5,1.5,0,0,0,.626-1.195V88.33c0-.461-.28-.672-.626-.472l-3.523,2.034a1.5,1.5,0,0,0-.626,1.195V93.1c0,.46.28.672.626.472" transform="translate(-8.669 -8.197)" fill="#faf8f5"/>
            <path id="Trazado_1001835" data-name="Trazado 1001835" d="M97.818,88.419v2.013a1.5,1.5,0,0,1-.631,1.193l-3.525,2.03c-.345.2-.622-.008-.622-.466V91.176a1.492,1.492,0,0,1,.622-1.192l3.525-2.039c.346-.2.631.017.631.475" transform="translate(-8.688 -8.206)" fill="#ebe7e3"/>
            <g id="Grupo_1179040" data-name="Grupo 1179040" transform="translate(84.351 79.664)" style="mix-blend-mode: multiply;isolation: isolate">
              <g id="Grupo_1179039" data-name="Grupo 1179039">
                <g id="Grupo_1179038" data-name="Grupo 1179038" clip-path="url(#clip-path-14)">
                  <path id="Trazado_1001836" data-name="Trazado 1001836" d="M97.818,88.419v.224L93.04,91.4v-.225a1.492,1.492,0,0,1,.622-1.192l3.525-2.039c.346-.2.631.017.631.475" transform="translate(-93.04 -87.87)" fill="#ff8e8c"/>
                </g>
              </g>
            </g>
            <path id="Trazado_1001837" data-name="Trazado 1001837" d="M2.752,49.662c0-.053-.015-4.073-.011-6.481-.443-.212-.909-.441-1.172-.581l-.244-.131.069-.327a2.513,2.513,0,0,1,1.677-.93.388.388,0,0,1,.328.394c0,.22-.007.636-.009,1.168.436.208.786.372.794.374a.814.814,0,0,0,.9.027l.444-.284.349.546-.443.285a1.435,1.435,0,0,1-1.56-.009c-.011,0-.2-.093-.481-.223,0,2.42.01,6.12.01,6.17Zm-.529-7.455c.157.079.335.166.52.256,0-.2,0-.384,0-.537a4.129,4.129,0,0,0-.523.281" transform="translate(-0.124 -3.848)" fill="#d5d2c9"/>
            <path id="Trazado_1001838" data-name="Trazado 1001838" d="M3.451,50.381a.506.506,0,0,0-.458,0,.14.14,0,0,0,0,.265.508.508,0,0,0,.459,0,.14.14,0,0,0,0-.265" transform="translate(-0.271 -4.7)" fill="#d5d2c9"/>
            <path id="Trazado_1001839" data-name="Trazado 1001839" d="M5.895,43.208a.506.506,0,0,0,.236.393c.128.071.228.009.226-.138a.506.506,0,0,0-.236-.393c-.128-.071-.228-.009-.226.138" transform="translate(-0.55 -4.019)" fill="#d5d2c9"/>
          </g>
        </g>
      </g>
    </g>
  </g>
</svg>
