<svg xmlns="http://www.w3.org/2000/svg" width="85" height="129" viewBox="0 0 85 129">
  <g id="Grupo_1179114" data-name="Grupo 1179114" transform="translate(-1378 -629)">
    <g id="Grupo_1177121" data-name="Grupo 1177121" transform="translate(43)">
      <rect id="Rectángulo_409244" data-name="Rectángulo 409244" width="85" height="129" rx="20" transform="translate(1335 629)" fill="#1e3a8a"/>
      <g id="Grupo_1177120" data-name="Grupo 1177120" transform="translate(1343 659)">
        <path id="Trazado_992248" data-name="Trazado 992248" d="M37.387,52a3.387,3.387,0,1,0,3.387,3.387A3.391,3.391,0,0,0,37.387,52Zm0,4.516a1.129,1.129,0,1,1,1.129-1.129A1.13,1.13,0,0,1,37.387,56.516Z" transform="translate(4.387 6.71)" fill="#fff"/>
        <path id="Trazado_992249" data-name="Trazado 992249" d="M13.387,52a3.387,3.387,0,1,0,3.387,3.387A3.391,3.391,0,0,0,13.387,52Zm0,4.516a1.129,1.129,0,1,1,1.129-1.129A1.13,1.13,0,0,1,13.387,56.516Z" transform="translate(1.29 6.71)" fill="#fff"/>
        <path id="Trazado_992250" data-name="Trazado 992250" d="M15.387,16.774A3.387,3.387,0,1,0,12,13.387,3.391,3.391,0,0,0,15.387,16.774Zm0-4.516a1.129,1.129,0,1,1-1.129,1.129A1.13,1.13,0,0,1,15.387,12.258Z" transform="translate(1.548 1.29)" fill="#fff"/>
        <path id="Trazado_992251" data-name="Trazado 992251" d="M55.387,36a3.387,3.387,0,1,0,3.387,3.387A3.391,3.391,0,0,0,55.387,36Zm0,4.516a1.129,1.129,0,1,1,1.129-1.129A1.13,1.13,0,0,1,55.387,40.516Z" transform="translate(6.71 4.645)" fill="#fff"/>
        <path id="Trazado_992252" data-name="Trazado 992252" d="M63.176,36.211c.017-.4.05-.808.05-1.211a28.13,28.13,0,0,0-4.042-14.531,13.6,13.6,0,0,0,1.784-6.7v-.221A13.538,13.538,0,0,0,35.69,6.8,28.55,28.55,0,0,0,22.9,9.51a7.9,7.9,0,0,0-12.288,9.908l.467.623a28.054,28.054,0,0,0-4.264,13.83h-2.3a2.26,2.26,0,0,0-2.258,2.258V58.71A2.26,2.26,0,0,0,0,60.968v2.258a2.26,2.26,0,0,0,2.258,2.258h5.29a7.886,7.886,0,0,0,14.26,0H34.644a7.886,7.886,0,0,0,14.26,0h3.031a2.26,2.26,0,0,0,2.258-2.258V60.116a3.441,3.441,0,0,0-.1-.822L53.37,56.4a28.228,28.228,0,0,0,4.48-4.863L62.1,57.2l6.323-8.43a7.9,7.9,0,0,0-5.243-12.563ZM47.419,2.258a11.3,11.3,0,0,1,11.29,11.29v.22A11.338,11.338,0,0,1,56.3,20.744l-8.878,11.3-8.878-11.3a11.335,11.335,0,0,1-2.413-6.975v-.22A11.3,11.3,0,0,1,47.419,2.258ZM16.935,9.032a5.644,5.644,0,0,1,4.516,9.031l-4.516,6.022-4.516-6.022a5.644,5.644,0,0,1,4.516-9.031ZM4.516,36.129h9.032v8.6l5.645-2.823,5.645,2.823v-8.6h9.032V58.71H21.807a7.886,7.886,0,0,0-14.26,0H4.516Zm11.29,0h6.774v4.947l-3.387-1.694-3.387,1.694ZM36.129,42.9H46.785a1.128,1.128,0,0,1,1.1.855l.351,1.4H42.9a2.26,2.26,0,0,0-2.258,2.258v2.258A2.26,2.26,0,0,0,42.9,51.935h7.021l1.694,6.774H48.9a7.883,7.883,0,0,0-12.775-2.133ZM49.36,49.677H42.9V47.419H48.8ZM2.258,63.226V60.968H6.865a7.1,7.1,0,0,0,0,2.258Zm12.419,4.516A5.645,5.645,0,1,1,20.323,62.1,5.652,5.652,0,0,1,14.677,67.742Zm7.813-4.516a7.1,7.1,0,0,0,0-2.258H33.961a7.1,7.1,0,0,0,0,2.258Zm19.284,4.516A5.645,5.645,0,1,1,47.419,62.1,5.652,5.652,0,0,1,41.774,67.742Zm7.813-4.516a7.1,7.1,0,0,0,0-2.258h2.348v2.258Zm3.167-9.286L50.071,43.21a3.384,3.384,0,0,0-3.287-2.565H36.129V36.129a2.26,2.26,0,0,0-2.258-2.258H9.073a25.8,25.8,0,0,1,3.463-11.888l4.4,5.866,6.323-8.43a7.949,7.949,0,0,0,1.581-4.742,7.84,7.84,0,0,0-.711-3.257A25.625,25.625,0,0,1,34.657,9.042a13.488,13.488,0,0,0-.786,4.506v.22a13.607,13.607,0,0,0,2.895,8.371L47.419,35.7,57.773,22.521A25.9,25.9,0,0,1,60.968,35c0,.408-.032.817-.05,1.227a7.894,7.894,0,0,0-5.144,12.546l.651.869a26.011,26.011,0,0,1-3.672,4.3Zm13.859-6.521L62.1,53.44l-4.516-6.022a5.645,5.645,0,1,1,9.032,0Z" transform="translate(0 0)" fill="#fff"/>
        <path id="Trazado_992253" data-name="Trazado 992253" d="M43.032,22.065A9.032,9.032,0,1,0,34,13.032,9.043,9.043,0,0,0,43.032,22.065Zm0-15.806a6.774,6.774,0,1,1-6.774,6.774A6.781,6.781,0,0,1,43.032,6.258Z" transform="translate(4.387 0.516)" fill="#fff"/>
        <path id="Trazado_992254" data-name="Trazado 992254" d="M24,26h2.258v2.258H24Z" transform="translate(3.097 3.355)" fill="#fff"/>
        <path id="Trazado_992255" data-name="Trazado 992255" d="M28,26h2.258v2.258H28Z" transform="translate(3.613 3.355)" fill="#fff"/>
        <path id="Trazado_992256" data-name="Trazado 992256" d="M32,26h2.258v2.258H32Z" transform="translate(4.129 3.355)" fill="#fff"/>
      </g>
    </g>
  </g>
</svg>
